G04 #@! TF.GenerationSoftware,KiCad,Pcbnew,9.0.0*
G04 #@! TF.CreationDate,2025-10-22T11:33:07+02:00*
G04 #@! TF.ProjectId,ecap5-bsom-frame,65636170-352d-4627-936f-6d2d6672616d,rev?*
G04 #@! TF.SameCoordinates,Original*
G04 #@! TF.FileFunction,Soldermask,Bot*
G04 #@! TF.FilePolarity,Negative*
%FSLAX46Y46*%
G04 Gerber Fmt 4.6, Leading zero omitted, Abs format (unit mm)*
G04 Created by KiCad (PCBNEW 9.0.0) date 2025-10-22 11:33:07*
%MOMM*%
%LPD*%
G01*
G04 APERTURE LIST*
G04 Aperture macros list*
%AMRoundRect*
0 Rectangle with rounded corners*
0 $1 Rounding radius*
0 $2 $3 $4 $5 $6 $7 $8 $9 X,Y pos of 4 corners*
0 Add a 4 corners polygon primitive as box body*
4,1,4,$2,$3,$4,$5,$6,$7,$8,$9,$2,$3,0*
0 Add four circle primitives for the rounded corners*
1,1,$1+$1,$2,$3*
1,1,$1+$1,$4,$5*
1,1,$1+$1,$6,$7*
1,1,$1+$1,$8,$9*
0 Add four rect primitives between the rounded corners*
20,1,$1+$1,$2,$3,$4,$5,0*
20,1,$1+$1,$4,$5,$6,$7,0*
20,1,$1+$1,$6,$7,$8,$9,0*
20,1,$1+$1,$8,$9,$2,$3,0*%
G04 Aperture macros list end*
%ADD10C,1.800000*%
%ADD11R,0.350000X2.250000*%
%ADD12C,0.600000*%
%ADD13C,2.600000*%
%ADD14C,3.800000*%
%ADD15C,1.448000*%
%ADD16RoundRect,0.100000X-0.130000X-0.100000X0.130000X-0.100000X0.130000X0.100000X-0.130000X0.100000X0*%
%ADD17RoundRect,0.100000X-0.162635X0.021213X0.021213X-0.162635X0.162635X-0.021213X-0.021213X0.162635X0*%
%ADD18C,1.000000*%
%ADD19RoundRect,0.100000X-0.100000X0.130000X-0.100000X-0.130000X0.100000X-0.130000X0.100000X0.130000X0*%
%ADD20RoundRect,0.100000X0.130000X0.100000X-0.130000X0.100000X-0.130000X-0.100000X0.130000X-0.100000X0*%
%ADD21RoundRect,0.100000X0.100000X-0.130000X0.100000X0.130000X-0.100000X0.130000X-0.100000X-0.130000X0*%
%ADD22RoundRect,0.225000X-0.250000X0.225000X-0.250000X-0.225000X0.250000X-0.225000X0.250000X0.225000X0*%
%ADD23RoundRect,0.100000X0.162635X-0.021213X-0.021213X0.162635X-0.162635X0.021213X0.021213X-0.162635X0*%
%ADD24RoundRect,0.140000X0.170000X-0.140000X0.170000X0.140000X-0.170000X0.140000X-0.170000X-0.140000X0*%
%ADD25RoundRect,0.100000X-0.021213X-0.162635X0.162635X0.021213X0.021213X0.162635X-0.162635X-0.021213X0*%
%ADD26RoundRect,0.100000X0.021213X0.162635X-0.162635X-0.021213X-0.021213X-0.162635X0.162635X0.021213X0*%
G04 APERTURE END LIST*
G36*
X113700000Y-75950000D02*
G01*
X183300000Y-75950000D01*
X183300000Y-78500000D01*
X113700000Y-78500000D01*
X113700000Y-75950000D01*
G37*
D10*
X115700000Y-72500000D03*
X181300000Y-72500000D03*
D11*
X115375000Y-77075000D03*
X115875000Y-77075000D03*
X116375000Y-77075000D03*
X116875000Y-77075000D03*
X117375000Y-77075000D03*
X117875000Y-77075000D03*
X118375000Y-77075000D03*
X118875000Y-77075000D03*
X119375000Y-77075000D03*
X119875000Y-77075000D03*
X120375000Y-77075000D03*
X120875000Y-77075000D03*
X121375000Y-77075000D03*
X121875000Y-77075000D03*
X122375000Y-77075000D03*
X122875000Y-77075000D03*
X123375000Y-77075000D03*
X123875000Y-77075000D03*
X124375000Y-77075000D03*
X124875000Y-77075000D03*
X125375000Y-77075000D03*
X125875000Y-77075000D03*
X126375000Y-77075000D03*
X126875000Y-77075000D03*
X127375000Y-77075000D03*
X127875000Y-77075000D03*
X128375000Y-77075000D03*
X128875000Y-77075000D03*
X129375000Y-77075000D03*
X129875000Y-77075000D03*
X130375000Y-77075000D03*
X130875000Y-77075000D03*
X131375000Y-77075000D03*
X131875000Y-77075000D03*
X132375000Y-77075000D03*
X132875000Y-77075000D03*
X133375000Y-77075000D03*
X133875000Y-77075000D03*
X134375000Y-77075000D03*
X134875000Y-77075000D03*
X135375000Y-77075000D03*
X135875000Y-77075000D03*
X136375000Y-77075000D03*
X136875000Y-77075000D03*
X137375000Y-77075000D03*
X137875000Y-77075000D03*
X138375000Y-77075000D03*
X138875000Y-77075000D03*
X139375000Y-77075000D03*
X139875000Y-77075000D03*
X140375000Y-77075000D03*
X140875000Y-77075000D03*
X141375000Y-77075000D03*
X141875000Y-77075000D03*
X142375000Y-77075000D03*
X142875000Y-77075000D03*
X143375000Y-77075000D03*
X143875000Y-77075000D03*
X144375000Y-77075000D03*
X144875000Y-77075000D03*
X145375000Y-77075000D03*
X145875000Y-77075000D03*
X146375000Y-77075000D03*
X146875000Y-77075000D03*
X147375000Y-77075000D03*
X147875000Y-77075000D03*
X148375000Y-77075000D03*
X148875000Y-77075000D03*
X149375000Y-77075000D03*
X149875000Y-77075000D03*
X150375000Y-77075000D03*
X150875000Y-77075000D03*
X153375000Y-77075000D03*
X153875000Y-77075000D03*
X154375000Y-77075000D03*
X154875000Y-77075000D03*
X155375000Y-77075000D03*
X155875000Y-77075000D03*
X156375000Y-77075000D03*
X156875000Y-77075000D03*
X157375000Y-77075000D03*
X157875000Y-77075000D03*
X158375000Y-77075000D03*
X158875000Y-77075000D03*
X159375000Y-77075000D03*
X159875000Y-77075000D03*
X160375000Y-77075000D03*
X160875000Y-77075000D03*
X161375000Y-77075000D03*
X161875000Y-77075000D03*
X162375000Y-77075000D03*
X162875000Y-77075000D03*
X163375000Y-77075000D03*
X163875000Y-77075000D03*
X164375000Y-77075000D03*
X164875000Y-77075000D03*
X165375000Y-77075000D03*
X165875000Y-77075000D03*
X166375000Y-77075000D03*
X166875000Y-77075000D03*
X167375000Y-77075000D03*
X167875000Y-77075000D03*
X168375000Y-77075000D03*
X168875000Y-77075000D03*
X169375000Y-77075000D03*
X169875000Y-77075000D03*
X170375000Y-77075000D03*
X170875000Y-77075000D03*
X171375000Y-77075000D03*
X171875000Y-77075000D03*
X172375000Y-77075000D03*
X172875000Y-77075000D03*
X173375000Y-77075000D03*
X173875000Y-77075000D03*
X174375000Y-77075000D03*
X174875000Y-77075000D03*
X175375000Y-77075000D03*
X175875000Y-77075000D03*
X176375000Y-77075000D03*
X176875000Y-77075000D03*
X177375000Y-77075000D03*
X177875000Y-77075000D03*
X178375000Y-77075000D03*
X178875000Y-77075000D03*
X179375000Y-77075000D03*
X179875000Y-77075000D03*
X180375000Y-77075000D03*
X180875000Y-77075000D03*
X181375000Y-77075000D03*
X181875000Y-77075000D03*
D12*
X188300000Y-78500000D03*
X149122550Y-31100000D03*
X113700000Y-82611111D03*
X113700000Y-24222223D03*
X113700000Y-90000000D03*
X113300000Y-51180000D03*
X113700000Y-87888888D03*
X108700000Y-78500000D03*
X162583775Y-31100000D03*
X107700000Y-78500000D03*
D13*
X180300000Y-35489800D03*
D14*
X180300000Y-35489800D03*
D12*
X183300000Y-84722222D03*
X148122550Y-31100000D03*
D13*
X116700000Y-35489800D03*
D14*
X116700000Y-35489800D03*
D12*
X147122550Y-31100000D03*
X183300000Y-83666666D03*
X190300000Y-31500000D03*
X183700000Y-62840000D03*
X116200099Y-31100000D03*
X113300000Y-34990000D03*
X113700000Y-23166667D03*
X183700000Y-61840000D03*
X183300000Y-85777777D03*
D15*
X187800000Y-22500000D03*
D12*
X110700000Y-31500000D03*
X183700000Y-72240000D03*
X113300000Y-63840000D03*
X113300000Y-52180000D03*
X183300000Y-81555555D03*
X183300000Y-27388889D03*
X109700000Y-78500000D03*
X150122550Y-31100000D03*
X189300000Y-31500000D03*
X113300000Y-49180000D03*
X113700000Y-21055556D03*
X113700000Y-28444445D03*
X190300000Y-78500000D03*
X111700000Y-31500000D03*
X187300000Y-31500000D03*
X110700000Y-78500000D03*
X183300000Y-82611111D03*
X134661324Y-31100000D03*
X183300000Y-26333334D03*
X131661324Y-31100000D03*
X189300000Y-78500000D03*
X109700000Y-31500000D03*
X183300000Y-80500000D03*
X113300000Y-36990000D03*
X186300000Y-31500000D03*
X185300000Y-78500000D03*
X186300000Y-78500000D03*
X113700000Y-86833333D03*
X113700000Y-80500000D03*
X117200099Y-31100000D03*
X183300000Y-87888888D03*
X180045000Y-31100000D03*
X183300000Y-25277778D03*
X183700000Y-52180000D03*
X113300000Y-71240000D03*
D15*
X109200000Y-22500000D03*
D12*
X113300000Y-50180000D03*
X183300000Y-86833333D03*
X118200099Y-31100000D03*
X108700000Y-31500000D03*
X183700000Y-63840000D03*
X107700000Y-31500000D03*
X113700000Y-29500000D03*
X183700000Y-73240000D03*
X113700000Y-83666666D03*
X111700000Y-78500000D03*
X113700000Y-81555555D03*
X113700000Y-84722222D03*
D15*
X109200000Y-87500000D03*
D12*
X188300000Y-31500000D03*
X183700000Y-71240000D03*
X113700000Y-27388889D03*
X113700000Y-26333334D03*
D13*
X165460000Y-71870000D03*
D14*
X165460000Y-71870000D03*
D12*
X183300000Y-28444445D03*
X183700000Y-74240000D03*
X183700000Y-34990000D03*
X133661324Y-31100000D03*
X183300000Y-22111112D03*
X183700000Y-64840000D03*
X183300000Y-90000000D03*
X106700000Y-78500000D03*
X113300000Y-74240000D03*
X183300000Y-29500000D03*
X183700000Y-50180000D03*
X183700000Y-33990000D03*
X113300000Y-62840000D03*
X132661324Y-31100000D03*
X183700000Y-49180000D03*
X113700000Y-88944444D03*
X113700000Y-25277778D03*
X187300000Y-78500000D03*
X178045000Y-31100000D03*
X113300000Y-61840000D03*
X185300000Y-31500000D03*
X183700000Y-35990000D03*
X183300000Y-21055556D03*
X183700000Y-36990000D03*
X183300000Y-23166667D03*
X183300000Y-24222223D03*
X106700000Y-31500000D03*
X113300000Y-73240000D03*
X181045000Y-31100000D03*
X183300000Y-20000000D03*
X183700000Y-51180000D03*
X179045000Y-31100000D03*
X113300000Y-72240000D03*
X113700000Y-85777777D03*
X113300000Y-33990000D03*
X113700000Y-20000000D03*
X183300000Y-88944444D03*
X119200099Y-31100000D03*
X164583775Y-31100000D03*
X163583775Y-31100000D03*
X113700000Y-22111112D03*
X165583775Y-31100000D03*
X113300000Y-35990000D03*
D13*
X131635000Y-71870000D03*
D14*
X131635000Y-71870000D03*
D12*
X113300000Y-64840000D03*
D16*
X143415000Y-55371800D03*
X144055000Y-55371800D03*
D17*
X145108726Y-53945526D03*
X145561274Y-54398074D03*
D18*
X185300000Y-23850000D03*
D19*
X150535000Y-53851800D03*
X150535000Y-54491800D03*
D16*
X143415000Y-56971800D03*
X144055000Y-56971800D03*
D18*
X111700000Y-23850000D03*
D20*
X125281800Y-49533200D03*
X124641800Y-49533200D03*
D19*
X152135000Y-52251800D03*
X152135000Y-52891800D03*
D16*
X145015000Y-56971800D03*
X145655000Y-56971800D03*
D19*
X147335000Y-53851800D03*
X147335000Y-54491800D03*
D20*
X153655000Y-60171800D03*
X153015000Y-60171800D03*
D21*
X148135000Y-60891800D03*
X148135000Y-60251800D03*
X140615000Y-38245000D03*
X140615000Y-37605000D03*
D20*
X125980000Y-40920000D03*
X125340000Y-40920000D03*
D16*
X145015000Y-60171800D03*
X145655000Y-60171800D03*
D20*
X152055000Y-55371800D03*
X151415000Y-55371800D03*
D19*
X144935000Y-61051800D03*
X144935000Y-61691800D03*
D20*
X126385000Y-39920000D03*
X125745000Y-39920000D03*
D21*
X149735000Y-60891800D03*
X149735000Y-60251800D03*
X123685000Y-50271800D03*
X123685000Y-49631800D03*
D20*
X146110000Y-39845000D03*
X145470000Y-39845000D03*
X152055000Y-56971800D03*
X151415000Y-56971800D03*
D19*
X145735000Y-52251800D03*
X145735000Y-52891800D03*
D20*
X153655000Y-57771800D03*
X153015000Y-57771800D03*
D19*
X146535000Y-52251800D03*
X146535000Y-52891800D03*
D20*
X128060000Y-35345000D03*
X127420000Y-35345000D03*
D16*
X139095000Y-38245000D03*
X139735000Y-38245000D03*
D20*
X152055000Y-56171800D03*
X151415000Y-56171800D03*
X152435000Y-38245000D03*
X151795000Y-38245000D03*
D19*
X145735000Y-61051800D03*
X145735000Y-61691800D03*
D16*
X145015000Y-55371800D03*
X145655000Y-55371800D03*
D19*
X148135000Y-52251800D03*
X148135000Y-52891800D03*
D20*
X153655000Y-61771800D03*
X153015000Y-61771800D03*
D22*
X145739000Y-65026600D03*
X145739000Y-66576600D03*
D16*
X141470000Y-35045000D03*
X142110000Y-35045000D03*
D19*
X150535000Y-52251800D03*
X150535000Y-52891800D03*
D23*
X151961274Y-60798074D03*
X151508726Y-60345526D03*
D16*
X151770000Y-35045000D03*
X152410000Y-35045000D03*
X143415000Y-54571800D03*
X144055000Y-54571800D03*
X145015000Y-57771800D03*
X145655000Y-57771800D03*
D21*
X148935000Y-60891800D03*
X148935000Y-60251800D03*
D16*
X143415000Y-56171800D03*
X144055000Y-56171800D03*
D20*
X122085000Y-56671800D03*
X121445000Y-56671800D03*
D16*
X145015000Y-59371800D03*
X145655000Y-59371800D03*
D20*
X150035000Y-35045000D03*
X149395000Y-35045000D03*
X152055000Y-57771800D03*
X151415000Y-57771800D03*
D16*
X145020000Y-56171800D03*
X145660000Y-56171800D03*
D19*
X147335000Y-52251800D03*
X147335000Y-52891800D03*
D24*
X151365000Y-63780000D03*
X151365000Y-62820000D03*
X155035000Y-53981800D03*
X155035000Y-53021800D03*
D20*
X142135000Y-38245000D03*
X141495000Y-38245000D03*
D24*
X149035000Y-63780000D03*
X149035000Y-62820000D03*
D21*
X147335000Y-60891800D03*
X147335000Y-60251800D03*
D16*
X143415000Y-60971800D03*
X144055000Y-60971800D03*
X143415000Y-53771800D03*
X144055000Y-53771800D03*
D19*
X149735000Y-52251800D03*
X149735000Y-52891800D03*
D21*
X150535000Y-60891800D03*
X150535000Y-60251800D03*
D16*
X127685000Y-50271800D03*
X128325000Y-50271800D03*
D25*
X123858726Y-56498074D03*
X124311274Y-56045526D03*
D20*
X153655000Y-60971800D03*
X153015000Y-60971800D03*
D19*
X149735000Y-53851800D03*
X149735000Y-54491800D03*
D16*
X142220000Y-39845000D03*
X142860000Y-39845000D03*
D20*
X122085000Y-50271800D03*
X121445000Y-50271800D03*
D19*
X144935000Y-52251800D03*
X144935000Y-52891800D03*
D16*
X144165000Y-62571800D03*
X144805000Y-62571800D03*
D19*
X148135000Y-53851800D03*
X148135000Y-54491800D03*
D20*
X153655000Y-56171800D03*
X153015000Y-56171800D03*
X143255000Y-62571800D03*
X142615000Y-62571800D03*
X139735000Y-35045000D03*
X139095000Y-35045000D03*
D24*
X148115000Y-63780000D03*
X148115000Y-62820000D03*
D16*
X152520000Y-39845000D03*
X153160000Y-39845000D03*
D20*
X135810000Y-39845000D03*
X135170000Y-39845000D03*
D16*
X143415000Y-59371800D03*
X144055000Y-59371800D03*
X143415000Y-61771800D03*
X144055000Y-61771800D03*
D19*
X151335000Y-52251800D03*
X151335000Y-52891800D03*
D16*
X143415000Y-60171800D03*
X144055000Y-60171800D03*
D24*
X150435000Y-63780000D03*
X150435000Y-62820000D03*
D16*
X149395000Y-38245000D03*
X150035000Y-38245000D03*
D19*
X124885000Y-38420000D03*
X124885000Y-39060000D03*
D16*
X153815000Y-62571800D03*
X154455000Y-62571800D03*
D20*
X153655000Y-59371800D03*
X153015000Y-59371800D03*
D19*
X151335000Y-53851800D03*
X151335000Y-54491800D03*
D16*
X125290000Y-56671800D03*
X125930000Y-56671800D03*
X145015000Y-58571800D03*
X145655000Y-58571800D03*
D20*
X153655000Y-53771800D03*
X153015000Y-53771800D03*
D18*
X111700000Y-86150000D03*
D26*
X123511274Y-55245526D03*
X123058726Y-55698074D03*
D19*
X161440000Y-36419300D03*
X161440000Y-37059300D03*
D20*
X152055000Y-59371800D03*
X151415000Y-59371800D03*
D19*
X146535000Y-53851800D03*
X146535000Y-54491800D03*
D16*
X130084800Y-57130000D03*
X130724800Y-57130000D03*
X143415000Y-57771800D03*
X144055000Y-57771800D03*
D20*
X153655000Y-58571800D03*
X153015000Y-58571800D03*
X153655000Y-56971800D03*
X153015000Y-56971800D03*
D19*
X148935000Y-53851800D03*
X148935000Y-54491800D03*
D22*
X152139800Y-65027200D03*
X152139800Y-66577200D03*
D19*
X148935000Y-52251800D03*
X148935000Y-52891800D03*
D20*
X152855000Y-62571800D03*
X152215000Y-62571800D03*
D16*
X143415000Y-58571800D03*
X144055000Y-58571800D03*
D21*
X146535000Y-60891800D03*
X146535000Y-60251800D03*
D20*
X152055000Y-58571800D03*
X151415000Y-58571800D03*
D22*
X149726800Y-65026600D03*
X149726800Y-66576600D03*
D20*
X153655000Y-54571800D03*
X153015000Y-54571800D03*
D25*
X123858726Y-51698074D03*
X124311274Y-51245526D03*
D19*
X129410000Y-40775000D03*
X129410000Y-41415000D03*
D21*
X150915000Y-38245000D03*
X150915000Y-37605000D03*
X157190000Y-37059300D03*
X157190000Y-36419300D03*
D20*
X153655000Y-55371800D03*
X153015000Y-55371800D03*
D16*
X125365000Y-51070000D03*
X126005000Y-51070000D03*
M02*
