G04 #@! TF.GenerationSoftware,KiCad,Pcbnew,9.0.0*
G04 #@! TF.CreationDate,2025-10-22T11:33:07+02:00*
G04 #@! TF.ProjectId,ecap5-bsom-frame,65636170-352d-4627-936f-6d2d6672616d,rev?*
G04 #@! TF.SameCoordinates,Original*
G04 #@! TF.FileFunction,Legend,Bot*
G04 #@! TF.FilePolarity,Positive*
%FSLAX46Y46*%
G04 Gerber Fmt 4.6, Leading zero omitted, Abs format (unit mm)*
G04 Created by KiCad (PCBNEW 9.0.0) date 2025-10-22 11:33:07*
%MOMM*%
%LPD*%
G01*
G04 APERTURE LIST*
G04 Aperture macros list*
%AMRoundRect*
0 Rectangle with rounded corners*
0 $1 Rounding radius*
0 $2 $3 $4 $5 $6 $7 $8 $9 X,Y pos of 4 corners*
0 Add a 4 corners polygon primitive as box body*
4,1,4,$2,$3,$4,$5,$6,$7,$8,$9,$2,$3,0*
0 Add four circle primitives for the rounded corners*
1,1,$1+$1,$2,$3*
1,1,$1+$1,$4,$5*
1,1,$1+$1,$6,$7*
1,1,$1+$1,$8,$9*
0 Add four rect primitives between the rounded corners*
20,1,$1+$1,$2,$3,$4,$5,0*
20,1,$1+$1,$4,$5,$6,$7,0*
20,1,$1+$1,$6,$7,$8,$9,0*
20,1,$1+$1,$8,$9,$2,$3,0*%
G04 Aperture macros list end*
%ADD10C,0.105000*%
%ADD11C,0.010000*%
%ADD12C,1.800000*%
%ADD13R,0.350000X2.250000*%
%ADD14C,0.600000*%
%ADD15C,2.600000*%
%ADD16C,3.800000*%
%ADD17C,1.448000*%
%ADD18RoundRect,0.100000X-0.130000X-0.100000X0.130000X-0.100000X0.130000X0.100000X-0.130000X0.100000X0*%
%ADD19RoundRect,0.100000X-0.162635X0.021213X0.021213X-0.162635X0.162635X-0.021213X-0.021213X0.162635X0*%
%ADD20C,1.000000*%
%ADD21RoundRect,0.100000X-0.100000X0.130000X-0.100000X-0.130000X0.100000X-0.130000X0.100000X0.130000X0*%
%ADD22RoundRect,0.100000X0.130000X0.100000X-0.130000X0.100000X-0.130000X-0.100000X0.130000X-0.100000X0*%
%ADD23RoundRect,0.100000X0.100000X-0.130000X0.100000X0.130000X-0.100000X0.130000X-0.100000X-0.130000X0*%
%ADD24RoundRect,0.225000X-0.250000X0.225000X-0.250000X-0.225000X0.250000X-0.225000X0.250000X0.225000X0*%
%ADD25RoundRect,0.100000X0.162635X-0.021213X-0.021213X0.162635X-0.162635X0.021213X0.021213X-0.162635X0*%
%ADD26RoundRect,0.140000X0.170000X-0.140000X0.170000X0.140000X-0.170000X0.140000X-0.170000X-0.140000X0*%
%ADD27RoundRect,0.100000X-0.021213X-0.162635X0.162635X0.021213X0.021213X0.162635X-0.162635X-0.021213X0*%
%ADD28RoundRect,0.100000X0.021213X0.162635X-0.162635X-0.021213X-0.021213X-0.162635X0.162635X0.021213X0*%
G04 APERTURE END LIST*
G36*
X136165000Y-69995000D02*
G01*
X161075000Y-69995000D01*
X161075000Y-73805000D01*
X136165000Y-73805000D01*
X136165000Y-69995000D01*
G37*
D10*
X113700000Y-74500000D02*
X183300000Y-74500000D01*
D11*
X122257971Y-73437822D02*
X118737178Y-73437822D01*
X118737178Y-72570198D01*
X122257971Y-72570198D01*
X122257971Y-73437822D01*
G36*
X122257971Y-73437822D02*
G01*
X118737178Y-73437822D01*
X118737178Y-72570198D01*
X122257971Y-72570198D01*
X122257971Y-73437822D01*
G37*
X121226894Y-67895718D02*
X121227388Y-67908668D01*
X121233819Y-67930411D01*
X121252123Y-67948851D01*
X121287830Y-67970801D01*
X121319174Y-67990854D01*
X121366893Y-68029356D01*
X121410138Y-68072579D01*
X121443219Y-68114627D01*
X121460442Y-68149604D01*
X121464662Y-68163081D01*
X121472480Y-68172334D01*
X121475116Y-68175454D01*
X121496662Y-68180696D01*
X121536314Y-68181782D01*
X121604109Y-68181782D01*
X121604109Y-68294951D01*
X121444577Y-68294951D01*
X121429682Y-68472732D01*
X121427682Y-68497037D01*
X121423023Y-68557880D01*
X121419731Y-68607389D01*
X121418092Y-68640992D01*
X121418390Y-68654116D01*
X121422724Y-68650343D01*
X121442496Y-68630676D01*
X121476679Y-68595818D01*
X121523541Y-68547576D01*
X121581354Y-68487757D01*
X121648387Y-68418167D01*
X121722912Y-68340615D01*
X121803197Y-68256907D01*
X121887513Y-68168849D01*
X121974130Y-68078250D01*
X122061319Y-67986915D01*
X122147349Y-67896653D01*
X122230492Y-67809269D01*
X122309016Y-67726572D01*
X122381192Y-67650368D01*
X122445291Y-67582463D01*
X122499583Y-67524666D01*
X122596592Y-67421040D01*
X122597034Y-67509315D01*
X122597475Y-67597589D01*
X121996938Y-68229158D01*
X121396401Y-68860726D01*
X121384396Y-69004674D01*
X121336365Y-69580635D01*
X121327876Y-69682791D01*
X121317343Y-69810612D01*
X121307621Y-69929767D01*
X121298898Y-70037914D01*
X121291358Y-70132713D01*
X121285187Y-70211819D01*
X121280573Y-70272892D01*
X121277700Y-70313590D01*
X121276754Y-70331570D01*
X121279251Y-70339808D01*
X121290471Y-70357599D01*
X121311751Y-70384411D01*
X121322021Y-70396129D01*
X121344225Y-70421466D01*
X121389023Y-70469986D01*
X121447281Y-70531192D01*
X121520129Y-70606307D01*
X121608703Y-70696550D01*
X121714134Y-70803145D01*
X121783492Y-70873093D01*
X121880179Y-70970658D01*
X121976526Y-71067941D01*
X122069638Y-71162014D01*
X122156618Y-71249950D01*
X122234569Y-71328820D01*
X122300596Y-71395699D01*
X122351802Y-71447658D01*
X122552514Y-71651620D01*
X122516058Y-71689671D01*
X122507460Y-71698245D01*
X122482095Y-71719297D01*
X122464695Y-71727723D01*
X122451071Y-71720530D01*
X122425743Y-71698944D01*
X122395379Y-71667995D01*
X122376896Y-71648448D01*
X122342427Y-71612752D01*
X122293712Y-71562684D01*
X122232469Y-71500001D01*
X122160420Y-71426457D01*
X122079285Y-71343810D01*
X121990784Y-71253815D01*
X121896637Y-71158228D01*
X121798565Y-71058805D01*
X121256161Y-70509343D01*
X121234066Y-70794746D01*
X121229250Y-70855662D01*
X121222216Y-70937548D01*
X121215872Y-70999569D01*
X121209748Y-71044987D01*
X121203373Y-71077062D01*
X121196277Y-71099052D01*
X121187991Y-71114219D01*
X121176393Y-71135416D01*
X121166850Y-71174386D01*
X121164010Y-71230531D01*
X121164010Y-71312773D01*
X120937674Y-71312773D01*
X120937674Y-71136733D01*
X120092082Y-71136733D01*
X120043203Y-71192262D01*
X120029836Y-71206722D01*
X119957388Y-71264813D01*
X119875532Y-71300576D01*
X119786900Y-71312773D01*
X119708692Y-71306306D01*
X119620233Y-71279047D01*
X119544507Y-71230328D01*
X119529748Y-71216403D01*
X119492864Y-71171328D01*
X119460503Y-71118819D01*
X119437297Y-71067061D01*
X119427879Y-71024239D01*
X119427697Y-71018023D01*
X119426342Y-70995246D01*
X119422800Y-70979513D01*
X119415390Y-70972068D01*
X119402431Y-70974156D01*
X119382243Y-70987020D01*
X119353145Y-71011905D01*
X119313456Y-71050053D01*
X119261496Y-71102710D01*
X119195584Y-71171119D01*
X119114040Y-71256524D01*
X119070604Y-71302112D01*
X118998000Y-71378441D01*
X118929309Y-71450808D01*
X118867223Y-71516366D01*
X118814434Y-71572274D01*
X118773634Y-71615686D01*
X118747515Y-71643758D01*
X118676119Y-71721436D01*
X118587863Y-71633416D01*
X119133690Y-71061287D01*
X119168105Y-71025188D01*
X119290546Y-70896272D01*
X119395651Y-70784754D01*
X119483736Y-70690288D01*
X119555116Y-70612529D01*
X119605588Y-70556174D01*
X119812247Y-70556174D01*
X119813872Y-70569434D01*
X119814156Y-70570819D01*
X119827698Y-70602228D01*
X119854748Y-70616863D01*
X119938129Y-70648063D01*
X120012418Y-70700038D01*
X120070846Y-70768791D01*
X120110890Y-70851315D01*
X120130026Y-70944606D01*
X120136364Y-71023565D01*
X121085838Y-71023565D01*
X121092458Y-70995273D01*
X121093629Y-70988329D01*
X121097268Y-70957281D01*
X121102234Y-70907081D01*
X121108157Y-70841727D01*
X121114669Y-70765219D01*
X121121401Y-70681555D01*
X121143724Y-70396129D01*
X120842826Y-70090565D01*
X120787636Y-70034704D01*
X120720109Y-69966888D01*
X120659529Y-69906643D01*
X120608021Y-69856052D01*
X120567710Y-69817200D01*
X120540722Y-69792170D01*
X120529182Y-69783046D01*
X120521444Y-69787405D01*
X120498395Y-69807241D01*
X120463709Y-69840375D01*
X120420487Y-69883820D01*
X120371832Y-69934587D01*
X120359140Y-69948051D01*
X120302229Y-70008275D01*
X120234414Y-70079864D01*
X120160800Y-70157437D01*
X120086493Y-70235611D01*
X120016599Y-70309005D01*
X120012401Y-70313409D01*
X119947420Y-70381785D01*
X119897836Y-70434732D01*
X119861688Y-70474767D01*
X119837016Y-70504411D01*
X119821858Y-70526181D01*
X119814256Y-70542595D01*
X119812247Y-70556174D01*
X119605588Y-70556174D01*
X119610105Y-70551131D01*
X119649019Y-70505748D01*
X119672173Y-70476035D01*
X119679882Y-70461644D01*
X119679883Y-70461559D01*
X119678825Y-70443624D01*
X119675737Y-70403421D01*
X119670858Y-70343687D01*
X119664432Y-70267158D01*
X119656700Y-70176569D01*
X119647905Y-70074657D01*
X119638287Y-69964159D01*
X119628091Y-69847811D01*
X119617556Y-69728348D01*
X119606926Y-69608507D01*
X119596442Y-69491025D01*
X119586346Y-69378637D01*
X119576881Y-69274081D01*
X119568288Y-69180091D01*
X119560809Y-69099405D01*
X119554687Y-69034759D01*
X119550162Y-68988888D01*
X119547478Y-68964530D01*
X119542067Y-68923732D01*
X119671253Y-68923732D01*
X119672908Y-68954653D01*
X119676549Y-69006653D01*
X119681995Y-69077487D01*
X119689063Y-69164911D01*
X119697570Y-69266681D01*
X119707335Y-69380552D01*
X119718174Y-69504279D01*
X119729907Y-69635618D01*
X119739079Y-69736908D01*
X119750566Y-69862526D01*
X119761322Y-69978762D01*
X119771131Y-70083380D01*
X119779781Y-70174140D01*
X119787057Y-70248804D01*
X119792746Y-70305134D01*
X119796634Y-70340891D01*
X119798506Y-70353837D01*
X119804188Y-70349826D01*
X119825020Y-70330138D01*
X119858872Y-70296322D01*
X119903412Y-70250837D01*
X119956310Y-70196146D01*
X120015236Y-70134710D01*
X120077858Y-70068990D01*
X120141848Y-70001449D01*
X120204874Y-69934547D01*
X120264606Y-69870746D01*
X120318713Y-69812507D01*
X120364865Y-69762292D01*
X120400733Y-69722563D01*
X120423984Y-69695780D01*
X120430778Y-69686477D01*
X120612601Y-69686477D01*
X120888305Y-69961968D01*
X120955726Y-70029224D01*
X121019267Y-70092162D01*
X121068490Y-70140100D01*
X121105196Y-70174594D01*
X121131190Y-70197199D01*
X121148276Y-70209471D01*
X121158256Y-70212966D01*
X121162935Y-70209238D01*
X121164116Y-70199844D01*
X121164873Y-70184749D01*
X121167601Y-70145883D01*
X121172108Y-70086895D01*
X121178179Y-70010473D01*
X121185596Y-69919305D01*
X121194142Y-69816080D01*
X121203602Y-69703483D01*
X121213758Y-69584205D01*
X121222723Y-69479077D01*
X121232066Y-69368351D01*
X121240443Y-69267814D01*
X121247653Y-69179943D01*
X121253496Y-69107215D01*
X121257769Y-69052110D01*
X121260273Y-69017104D01*
X121260805Y-69004674D01*
X121260384Y-69004908D01*
X121248509Y-69016350D01*
X121222130Y-69043198D01*
X121183570Y-69083018D01*
X121135153Y-69133372D01*
X121079203Y-69191828D01*
X121018042Y-69255948D01*
X120953995Y-69323298D01*
X120889385Y-69391443D01*
X120826535Y-69457948D01*
X120767768Y-69520377D01*
X120715409Y-69576295D01*
X120614533Y-69684406D01*
X120612601Y-69686477D01*
X120430778Y-69686477D01*
X120432290Y-69684406D01*
X120424148Y-69673383D01*
X120400478Y-69646999D01*
X120363478Y-69607527D01*
X120315350Y-69557191D01*
X120258296Y-69498217D01*
X120194520Y-69432830D01*
X120126222Y-69363255D01*
X120055605Y-69291716D01*
X119984871Y-69220438D01*
X119916222Y-69151647D01*
X119851861Y-69087566D01*
X119793989Y-69030422D01*
X119744810Y-68982439D01*
X119706524Y-68945841D01*
X119681334Y-68922854D01*
X119671442Y-68915703D01*
X119671253Y-68923732D01*
X119542067Y-68923732D01*
X119540390Y-68911089D01*
X119265297Y-68911089D01*
X119264968Y-68700471D01*
X119264797Y-68591172D01*
X119365891Y-68591172D01*
X119365891Y-68810495D01*
X119447624Y-68810495D01*
X119454895Y-68810489D01*
X119495950Y-68809613D01*
X119518277Y-68805867D01*
X119527529Y-68797270D01*
X119529357Y-68781840D01*
X119521306Y-68759159D01*
X119493730Y-68721428D01*
X119447624Y-68672179D01*
X119365891Y-68591172D01*
X119264797Y-68591172D01*
X119264639Y-68489852D01*
X118812914Y-68030891D01*
X118361189Y-67571931D01*
X118360570Y-67484848D01*
X118359951Y-67397767D01*
X118901769Y-67946952D01*
X118954137Y-67999998D01*
X119062803Y-68109772D01*
X119155709Y-68203114D01*
X119234055Y-68281173D01*
X119299043Y-68345097D01*
X119351872Y-68396035D01*
X119393743Y-68435135D01*
X119425855Y-68463548D01*
X119449410Y-68482420D01*
X119465608Y-68492901D01*
X119475649Y-68496139D01*
X119492579Y-68495158D01*
X119502084Y-68487996D01*
X119503723Y-68468401D01*
X119499782Y-68430124D01*
X119497065Y-68406025D01*
X119493284Y-68365744D01*
X119491760Y-68338961D01*
X119491015Y-68329728D01*
X119483746Y-68319839D01*
X119463668Y-68316562D01*
X119424689Y-68317992D01*
X119414737Y-68318553D01*
X119374898Y-68317921D01*
X119346560Y-68309167D01*
X119326586Y-68294951D01*
X119609852Y-68294951D01*
X119614013Y-68342104D01*
X119615935Y-68363498D01*
X119621924Y-68421909D01*
X119627826Y-68460381D01*
X119634727Y-68482912D01*
X119643712Y-68493498D01*
X119655870Y-68496139D01*
X119666801Y-68497937D01*
X119674050Y-68506530D01*
X119678100Y-68526505D01*
X119679863Y-68562450D01*
X119680248Y-68618952D01*
X119680248Y-68741766D01*
X119720447Y-68781840D01*
X119818565Y-68879654D01*
X119956881Y-69017542D01*
X119956881Y-68911089D01*
X120711337Y-68911089D01*
X120711337Y-69150000D01*
X120092831Y-69150000D01*
X120302592Y-69366906D01*
X120342770Y-69408334D01*
X120398328Y-69465200D01*
X120446570Y-69514082D01*
X120484971Y-69552441D01*
X120511003Y-69577741D01*
X120522140Y-69587442D01*
X120526373Y-69584767D01*
X120546224Y-69566782D01*
X120580451Y-69533481D01*
X120627227Y-69486712D01*
X120684724Y-69428325D01*
X120751112Y-69360169D01*
X120824564Y-69284094D01*
X120903251Y-69201950D01*
X120982341Y-69118943D01*
X121059871Y-69037136D01*
X121122746Y-68970083D01*
X121172502Y-68916007D01*
X121210678Y-68873129D01*
X121238811Y-68839673D01*
X121258440Y-68813861D01*
X121271101Y-68793914D01*
X121278334Y-68778056D01*
X121281675Y-68764509D01*
X121282561Y-68757910D01*
X121286488Y-68721548D01*
X121291459Y-68668018D01*
X121296927Y-68603421D01*
X121302344Y-68533862D01*
X121304181Y-68509635D01*
X121309488Y-68444178D01*
X121314548Y-68387717D01*
X121318863Y-68345618D01*
X121321934Y-68323243D01*
X121327955Y-68294951D01*
X119609852Y-68294951D01*
X119326586Y-68294951D01*
X119318630Y-68289289D01*
X119313820Y-68285104D01*
X119274482Y-68234427D01*
X119258903Y-68181782D01*
X119599698Y-68181782D01*
X121014221Y-68181782D01*
X121012172Y-68131485D01*
X121226881Y-68131485D01*
X121226881Y-68181782D01*
X121283908Y-68181782D01*
X121300993Y-68181662D01*
X121326308Y-68179462D01*
X121333616Y-68172334D01*
X121327943Y-68157508D01*
X121326267Y-68154682D01*
X121307448Y-68132944D01*
X121280183Y-68108820D01*
X121252987Y-68089254D01*
X121234371Y-68081188D01*
X121232697Y-68082463D01*
X121228544Y-68099976D01*
X121226881Y-68131485D01*
X121012172Y-68131485D01*
X121010526Y-68091095D01*
X121006832Y-68000407D01*
X120931386Y-67985252D01*
X120893551Y-67978379D01*
X120830368Y-67968756D01*
X120771065Y-67961496D01*
X120686188Y-67952893D01*
X120686188Y-68056040D01*
X120107773Y-68056040D01*
X120107773Y-67965122D01*
X120035471Y-67973753D01*
X119924998Y-67992249D01*
X119813816Y-68025691D01*
X119721850Y-68072324D01*
X119647542Y-68132786D01*
X119599698Y-68181782D01*
X119258903Y-68181782D01*
X119257172Y-68175934D01*
X119262474Y-68114575D01*
X119290975Y-68055297D01*
X119293733Y-68051606D01*
X119331822Y-68019851D01*
X119381476Y-68001067D01*
X119435002Y-67996071D01*
X119484707Y-68005678D01*
X119522900Y-68030704D01*
X119535831Y-68043480D01*
X119548428Y-68046576D01*
X119566467Y-68036998D01*
X119596928Y-68013082D01*
X119606274Y-68005731D01*
X119678430Y-67959339D01*
X119763915Y-67918084D01*
X119833830Y-67892575D01*
X120208367Y-67892575D01*
X120208367Y-67955446D01*
X120585594Y-67955446D01*
X120585594Y-67892575D01*
X120208367Y-67892575D01*
X119833830Y-67892575D01*
X119854767Y-67884936D01*
X119943027Y-67862868D01*
X120020736Y-67854852D01*
X120028991Y-67854788D01*
X120074879Y-67850321D01*
X120100079Y-67837795D01*
X120107773Y-67815784D01*
X120108676Y-67808849D01*
X120113615Y-67802885D01*
X120125611Y-67798519D01*
X120147680Y-67795503D01*
X120182836Y-67793590D01*
X120234094Y-67792530D01*
X120304471Y-67792077D01*
X120396980Y-67791980D01*
X120483660Y-67792150D01*
X120557332Y-67792834D01*
X120611265Y-67794215D01*
X120648288Y-67796470D01*
X120671230Y-67799778D01*
X120682920Y-67804320D01*
X120686188Y-67810272D01*
X120696937Y-67824888D01*
X120727055Y-67834215D01*
X120738582Y-67835847D01*
X120777886Y-67841591D01*
X120830188Y-67849378D01*
X120887376Y-67858003D01*
X120918916Y-67862393D01*
X120965074Y-67867148D01*
X120997641Y-67868295D01*
X121011023Y-67865495D01*
X121013308Y-67863671D01*
X121034405Y-67859165D01*
X121072355Y-67856029D01*
X121121048Y-67854852D01*
X121226881Y-67854852D01*
X121226894Y-67892575D01*
X121226894Y-67895718D01*
G36*
X121226894Y-67895718D02*
G01*
X121227388Y-67908668D01*
X121233819Y-67930411D01*
X121252123Y-67948851D01*
X121287830Y-67970801D01*
X121319174Y-67990854D01*
X121366893Y-68029356D01*
X121410138Y-68072579D01*
X121443219Y-68114627D01*
X121460442Y-68149604D01*
X121464662Y-68163081D01*
X121472480Y-68172334D01*
X121475116Y-68175454D01*
X121496662Y-68180696D01*
X121536314Y-68181782D01*
X121604109Y-68181782D01*
X121604109Y-68294951D01*
X121444577Y-68294951D01*
X121429682Y-68472732D01*
X121427682Y-68497037D01*
X121423023Y-68557880D01*
X121419731Y-68607389D01*
X121418092Y-68640992D01*
X121418390Y-68654116D01*
X121422724Y-68650343D01*
X121442496Y-68630676D01*
X121476679Y-68595818D01*
X121523541Y-68547576D01*
X121581354Y-68487757D01*
X121648387Y-68418167D01*
X121722912Y-68340615D01*
X121803197Y-68256907D01*
X121887513Y-68168849D01*
X121974130Y-68078250D01*
X122061319Y-67986915D01*
X122147349Y-67896653D01*
X122230492Y-67809269D01*
X122309016Y-67726572D01*
X122381192Y-67650368D01*
X122445291Y-67582463D01*
X122499583Y-67524666D01*
X122596592Y-67421040D01*
X122597034Y-67509315D01*
X122597475Y-67597589D01*
X121996938Y-68229158D01*
X121396401Y-68860726D01*
X121384396Y-69004674D01*
X121336365Y-69580635D01*
X121327876Y-69682791D01*
X121317343Y-69810612D01*
X121307621Y-69929767D01*
X121298898Y-70037914D01*
X121291358Y-70132713D01*
X121285187Y-70211819D01*
X121280573Y-70272892D01*
X121277700Y-70313590D01*
X121276754Y-70331570D01*
X121279251Y-70339808D01*
X121290471Y-70357599D01*
X121311751Y-70384411D01*
X121322021Y-70396129D01*
X121344225Y-70421466D01*
X121389023Y-70469986D01*
X121447281Y-70531192D01*
X121520129Y-70606307D01*
X121608703Y-70696550D01*
X121714134Y-70803145D01*
X121783492Y-70873093D01*
X121880179Y-70970658D01*
X121976526Y-71067941D01*
X122069638Y-71162014D01*
X122156618Y-71249950D01*
X122234569Y-71328820D01*
X122300596Y-71395699D01*
X122351802Y-71447658D01*
X122552514Y-71651620D01*
X122516058Y-71689671D01*
X122507460Y-71698245D01*
X122482095Y-71719297D01*
X122464695Y-71727723D01*
X122451071Y-71720530D01*
X122425743Y-71698944D01*
X122395379Y-71667995D01*
X122376896Y-71648448D01*
X122342427Y-71612752D01*
X122293712Y-71562684D01*
X122232469Y-71500001D01*
X122160420Y-71426457D01*
X122079285Y-71343810D01*
X121990784Y-71253815D01*
X121896637Y-71158228D01*
X121798565Y-71058805D01*
X121256161Y-70509343D01*
X121234066Y-70794746D01*
X121229250Y-70855662D01*
X121222216Y-70937548D01*
X121215872Y-70999569D01*
X121209748Y-71044987D01*
X121203373Y-71077062D01*
X121196277Y-71099052D01*
X121187991Y-71114219D01*
X121176393Y-71135416D01*
X121166850Y-71174386D01*
X121164010Y-71230531D01*
X121164010Y-71312773D01*
X120937674Y-71312773D01*
X120937674Y-71136733D01*
X120092082Y-71136733D01*
X120043203Y-71192262D01*
X120029836Y-71206722D01*
X119957388Y-71264813D01*
X119875532Y-71300576D01*
X119786900Y-71312773D01*
X119708692Y-71306306D01*
X119620233Y-71279047D01*
X119544507Y-71230328D01*
X119529748Y-71216403D01*
X119492864Y-71171328D01*
X119460503Y-71118819D01*
X119437297Y-71067061D01*
X119427879Y-71024239D01*
X119427697Y-71018023D01*
X119426342Y-70995246D01*
X119422800Y-70979513D01*
X119415390Y-70972068D01*
X119402431Y-70974156D01*
X119382243Y-70987020D01*
X119353145Y-71011905D01*
X119313456Y-71050053D01*
X119261496Y-71102710D01*
X119195584Y-71171119D01*
X119114040Y-71256524D01*
X119070604Y-71302112D01*
X118998000Y-71378441D01*
X118929309Y-71450808D01*
X118867223Y-71516366D01*
X118814434Y-71572274D01*
X118773634Y-71615686D01*
X118747515Y-71643758D01*
X118676119Y-71721436D01*
X118587863Y-71633416D01*
X119133690Y-71061287D01*
X119168105Y-71025188D01*
X119290546Y-70896272D01*
X119395651Y-70784754D01*
X119483736Y-70690288D01*
X119555116Y-70612529D01*
X119605588Y-70556174D01*
X119812247Y-70556174D01*
X119813872Y-70569434D01*
X119814156Y-70570819D01*
X119827698Y-70602228D01*
X119854748Y-70616863D01*
X119938129Y-70648063D01*
X120012418Y-70700038D01*
X120070846Y-70768791D01*
X120110890Y-70851315D01*
X120130026Y-70944606D01*
X120136364Y-71023565D01*
X121085838Y-71023565D01*
X121092458Y-70995273D01*
X121093629Y-70988329D01*
X121097268Y-70957281D01*
X121102234Y-70907081D01*
X121108157Y-70841727D01*
X121114669Y-70765219D01*
X121121401Y-70681555D01*
X121143724Y-70396129D01*
X120842826Y-70090565D01*
X120787636Y-70034704D01*
X120720109Y-69966888D01*
X120659529Y-69906643D01*
X120608021Y-69856052D01*
X120567710Y-69817200D01*
X120540722Y-69792170D01*
X120529182Y-69783046D01*
X120521444Y-69787405D01*
X120498395Y-69807241D01*
X120463709Y-69840375D01*
X120420487Y-69883820D01*
X120371832Y-69934587D01*
X120359140Y-69948051D01*
X120302229Y-70008275D01*
X120234414Y-70079864D01*
X120160800Y-70157437D01*
X120086493Y-70235611D01*
X120016599Y-70309005D01*
X120012401Y-70313409D01*
X119947420Y-70381785D01*
X119897836Y-70434732D01*
X119861688Y-70474767D01*
X119837016Y-70504411D01*
X119821858Y-70526181D01*
X119814256Y-70542595D01*
X119812247Y-70556174D01*
X119605588Y-70556174D01*
X119610105Y-70551131D01*
X119649019Y-70505748D01*
X119672173Y-70476035D01*
X119679882Y-70461644D01*
X119679883Y-70461559D01*
X119678825Y-70443624D01*
X119675737Y-70403421D01*
X119670858Y-70343687D01*
X119664432Y-70267158D01*
X119656700Y-70176569D01*
X119647905Y-70074657D01*
X119638287Y-69964159D01*
X119628091Y-69847811D01*
X119617556Y-69728348D01*
X119606926Y-69608507D01*
X119596442Y-69491025D01*
X119586346Y-69378637D01*
X119576881Y-69274081D01*
X119568288Y-69180091D01*
X119560809Y-69099405D01*
X119554687Y-69034759D01*
X119550162Y-68988888D01*
X119547478Y-68964530D01*
X119542067Y-68923732D01*
X119671253Y-68923732D01*
X119672908Y-68954653D01*
X119676549Y-69006653D01*
X119681995Y-69077487D01*
X119689063Y-69164911D01*
X119697570Y-69266681D01*
X119707335Y-69380552D01*
X119718174Y-69504279D01*
X119729907Y-69635618D01*
X119739079Y-69736908D01*
X119750566Y-69862526D01*
X119761322Y-69978762D01*
X119771131Y-70083380D01*
X119779781Y-70174140D01*
X119787057Y-70248804D01*
X119792746Y-70305134D01*
X119796634Y-70340891D01*
X119798506Y-70353837D01*
X119804188Y-70349826D01*
X119825020Y-70330138D01*
X119858872Y-70296322D01*
X119903412Y-70250837D01*
X119956310Y-70196146D01*
X120015236Y-70134710D01*
X120077858Y-70068990D01*
X120141848Y-70001449D01*
X120204874Y-69934547D01*
X120264606Y-69870746D01*
X120318713Y-69812507D01*
X120364865Y-69762292D01*
X120400733Y-69722563D01*
X120423984Y-69695780D01*
X120430778Y-69686477D01*
X120612601Y-69686477D01*
X120888305Y-69961968D01*
X120955726Y-70029224D01*
X121019267Y-70092162D01*
X121068490Y-70140100D01*
X121105196Y-70174594D01*
X121131190Y-70197199D01*
X121148276Y-70209471D01*
X121158256Y-70212966D01*
X121162935Y-70209238D01*
X121164116Y-70199844D01*
X121164873Y-70184749D01*
X121167601Y-70145883D01*
X121172108Y-70086895D01*
X121178179Y-70010473D01*
X121185596Y-69919305D01*
X121194142Y-69816080D01*
X121203602Y-69703483D01*
X121213758Y-69584205D01*
X121222723Y-69479077D01*
X121232066Y-69368351D01*
X121240443Y-69267814D01*
X121247653Y-69179943D01*
X121253496Y-69107215D01*
X121257769Y-69052110D01*
X121260273Y-69017104D01*
X121260805Y-69004674D01*
X121260384Y-69004908D01*
X121248509Y-69016350D01*
X121222130Y-69043198D01*
X121183570Y-69083018D01*
X121135153Y-69133372D01*
X121079203Y-69191828D01*
X121018042Y-69255948D01*
X120953995Y-69323298D01*
X120889385Y-69391443D01*
X120826535Y-69457948D01*
X120767768Y-69520377D01*
X120715409Y-69576295D01*
X120614533Y-69684406D01*
X120612601Y-69686477D01*
X120430778Y-69686477D01*
X120432290Y-69684406D01*
X120424148Y-69673383D01*
X120400478Y-69646999D01*
X120363478Y-69607527D01*
X120315350Y-69557191D01*
X120258296Y-69498217D01*
X120194520Y-69432830D01*
X120126222Y-69363255D01*
X120055605Y-69291716D01*
X119984871Y-69220438D01*
X119916222Y-69151647D01*
X119851861Y-69087566D01*
X119793989Y-69030422D01*
X119744810Y-68982439D01*
X119706524Y-68945841D01*
X119681334Y-68922854D01*
X119671442Y-68915703D01*
X119671253Y-68923732D01*
X119542067Y-68923732D01*
X119540390Y-68911089D01*
X119265297Y-68911089D01*
X119264968Y-68700471D01*
X119264797Y-68591172D01*
X119365891Y-68591172D01*
X119365891Y-68810495D01*
X119447624Y-68810495D01*
X119454895Y-68810489D01*
X119495950Y-68809613D01*
X119518277Y-68805867D01*
X119527529Y-68797270D01*
X119529357Y-68781840D01*
X119521306Y-68759159D01*
X119493730Y-68721428D01*
X119447624Y-68672179D01*
X119365891Y-68591172D01*
X119264797Y-68591172D01*
X119264639Y-68489852D01*
X118812914Y-68030891D01*
X118361189Y-67571931D01*
X118360570Y-67484848D01*
X118359951Y-67397767D01*
X118901769Y-67946952D01*
X118954137Y-67999998D01*
X119062803Y-68109772D01*
X119155709Y-68203114D01*
X119234055Y-68281173D01*
X119299043Y-68345097D01*
X119351872Y-68396035D01*
X119393743Y-68435135D01*
X119425855Y-68463548D01*
X119449410Y-68482420D01*
X119465608Y-68492901D01*
X119475649Y-68496139D01*
X119492579Y-68495158D01*
X119502084Y-68487996D01*
X119503723Y-68468401D01*
X119499782Y-68430124D01*
X119497065Y-68406025D01*
X119493284Y-68365744D01*
X119491760Y-68338961D01*
X119491015Y-68329728D01*
X119483746Y-68319839D01*
X119463668Y-68316562D01*
X119424689Y-68317992D01*
X119414737Y-68318553D01*
X119374898Y-68317921D01*
X119346560Y-68309167D01*
X119326586Y-68294951D01*
X119609852Y-68294951D01*
X119614013Y-68342104D01*
X119615935Y-68363498D01*
X119621924Y-68421909D01*
X119627826Y-68460381D01*
X119634727Y-68482912D01*
X119643712Y-68493498D01*
X119655870Y-68496139D01*
X119666801Y-68497937D01*
X119674050Y-68506530D01*
X119678100Y-68526505D01*
X119679863Y-68562450D01*
X119680248Y-68618952D01*
X119680248Y-68741766D01*
X119720447Y-68781840D01*
X119818565Y-68879654D01*
X119956881Y-69017542D01*
X119956881Y-68911089D01*
X120711337Y-68911089D01*
X120711337Y-69150000D01*
X120092831Y-69150000D01*
X120302592Y-69366906D01*
X120342770Y-69408334D01*
X120398328Y-69465200D01*
X120446570Y-69514082D01*
X120484971Y-69552441D01*
X120511003Y-69577741D01*
X120522140Y-69587442D01*
X120526373Y-69584767D01*
X120546224Y-69566782D01*
X120580451Y-69533481D01*
X120627227Y-69486712D01*
X120684724Y-69428325D01*
X120751112Y-69360169D01*
X120824564Y-69284094D01*
X120903251Y-69201950D01*
X120982341Y-69118943D01*
X121059871Y-69037136D01*
X121122746Y-68970083D01*
X121172502Y-68916007D01*
X121210678Y-68873129D01*
X121238811Y-68839673D01*
X121258440Y-68813861D01*
X121271101Y-68793914D01*
X121278334Y-68778056D01*
X121281675Y-68764509D01*
X121282561Y-68757910D01*
X121286488Y-68721548D01*
X121291459Y-68668018D01*
X121296927Y-68603421D01*
X121302344Y-68533862D01*
X121304181Y-68509635D01*
X121309488Y-68444178D01*
X121314548Y-68387717D01*
X121318863Y-68345618D01*
X121321934Y-68323243D01*
X121327955Y-68294951D01*
X119609852Y-68294951D01*
X119326586Y-68294951D01*
X119318630Y-68289289D01*
X119313820Y-68285104D01*
X119274482Y-68234427D01*
X119258903Y-68181782D01*
X119599698Y-68181782D01*
X121014221Y-68181782D01*
X121012172Y-68131485D01*
X121226881Y-68131485D01*
X121226881Y-68181782D01*
X121283908Y-68181782D01*
X121300993Y-68181662D01*
X121326308Y-68179462D01*
X121333616Y-68172334D01*
X121327943Y-68157508D01*
X121326267Y-68154682D01*
X121307448Y-68132944D01*
X121280183Y-68108820D01*
X121252987Y-68089254D01*
X121234371Y-68081188D01*
X121232697Y-68082463D01*
X121228544Y-68099976D01*
X121226881Y-68131485D01*
X121012172Y-68131485D01*
X121010526Y-68091095D01*
X121006832Y-68000407D01*
X120931386Y-67985252D01*
X120893551Y-67978379D01*
X120830368Y-67968756D01*
X120771065Y-67961496D01*
X120686188Y-67952893D01*
X120686188Y-68056040D01*
X120107773Y-68056040D01*
X120107773Y-67965122D01*
X120035471Y-67973753D01*
X119924998Y-67992249D01*
X119813816Y-68025691D01*
X119721850Y-68072324D01*
X119647542Y-68132786D01*
X119599698Y-68181782D01*
X119258903Y-68181782D01*
X119257172Y-68175934D01*
X119262474Y-68114575D01*
X119290975Y-68055297D01*
X119293733Y-68051606D01*
X119331822Y-68019851D01*
X119381476Y-68001067D01*
X119435002Y-67996071D01*
X119484707Y-68005678D01*
X119522900Y-68030704D01*
X119535831Y-68043480D01*
X119548428Y-68046576D01*
X119566467Y-68036998D01*
X119596928Y-68013082D01*
X119606274Y-68005731D01*
X119678430Y-67959339D01*
X119763915Y-67918084D01*
X119833830Y-67892575D01*
X120208367Y-67892575D01*
X120208367Y-67955446D01*
X120585594Y-67955446D01*
X120585594Y-67892575D01*
X120208367Y-67892575D01*
X119833830Y-67892575D01*
X119854767Y-67884936D01*
X119943027Y-67862868D01*
X120020736Y-67854852D01*
X120028991Y-67854788D01*
X120074879Y-67850321D01*
X120100079Y-67837795D01*
X120107773Y-67815784D01*
X120108676Y-67808849D01*
X120113615Y-67802885D01*
X120125611Y-67798519D01*
X120147680Y-67795503D01*
X120182836Y-67793590D01*
X120234094Y-67792530D01*
X120304471Y-67792077D01*
X120396980Y-67791980D01*
X120483660Y-67792150D01*
X120557332Y-67792834D01*
X120611265Y-67794215D01*
X120648288Y-67796470D01*
X120671230Y-67799778D01*
X120682920Y-67804320D01*
X120686188Y-67810272D01*
X120696937Y-67824888D01*
X120727055Y-67834215D01*
X120738582Y-67835847D01*
X120777886Y-67841591D01*
X120830188Y-67849378D01*
X120887376Y-67858003D01*
X120918916Y-67862393D01*
X120965074Y-67867148D01*
X120997641Y-67868295D01*
X121011023Y-67865495D01*
X121013308Y-67863671D01*
X121034405Y-67859165D01*
X121072355Y-67856029D01*
X121121048Y-67854852D01*
X121226881Y-67854852D01*
X121226894Y-67892575D01*
X121226894Y-67895718D01*
G37*
X124567836Y-70662363D02*
X124582023Y-70676032D01*
X124623392Y-70717719D01*
X124678107Y-70774472D01*
X124743510Y-70843397D01*
X124816943Y-70921599D01*
X124895746Y-71006182D01*
X124977260Y-71094253D01*
X125058827Y-71182916D01*
X125137788Y-71269276D01*
X125211483Y-71350439D01*
X125277254Y-71423510D01*
X125332441Y-71485594D01*
X125374386Y-71533795D01*
X125400431Y-71565220D01*
X125407915Y-71576974D01*
X125405346Y-71578272D01*
X125380785Y-71591978D01*
X125332204Y-71619613D01*
X125261652Y-71659998D01*
X125171173Y-71711955D01*
X125062815Y-71774305D01*
X124938624Y-71845871D01*
X124800645Y-71925475D01*
X124650926Y-72011938D01*
X124491513Y-72104083D01*
X124324451Y-72200732D01*
X124262008Y-72236867D01*
X124097883Y-72331806D01*
X123942358Y-72421714D01*
X123797454Y-72505424D01*
X123665195Y-72581771D01*
X123547604Y-72649589D01*
X123446702Y-72707711D01*
X123364513Y-72754971D01*
X123303059Y-72790203D01*
X123264364Y-72812242D01*
X123250449Y-72819920D01*
X123251075Y-72815831D01*
X123262493Y-72792330D01*
X123283493Y-72754786D01*
X123296376Y-72732564D01*
X123323772Y-72685173D01*
X123364087Y-72615377D01*
X123416009Y-72525444D01*
X123478231Y-72417642D01*
X123549443Y-72294240D01*
X123628335Y-72157506D01*
X123713598Y-72009709D01*
X123803924Y-71853117D01*
X123898002Y-71690000D01*
X123990121Y-71530323D01*
X124079680Y-71375187D01*
X124163893Y-71229412D01*
X124241497Y-71095183D01*
X124311225Y-70974685D01*
X124371814Y-70870102D01*
X124421998Y-70783619D01*
X124460512Y-70717421D01*
X124486092Y-70673693D01*
X124497472Y-70654619D01*
X124520820Y-70618201D01*
X124567836Y-70662363D01*
G36*
X124567836Y-70662363D02*
G01*
X124582023Y-70676032D01*
X124623392Y-70717719D01*
X124678107Y-70774472D01*
X124743510Y-70843397D01*
X124816943Y-70921599D01*
X124895746Y-71006182D01*
X124977260Y-71094253D01*
X125058827Y-71182916D01*
X125137788Y-71269276D01*
X125211483Y-71350439D01*
X125277254Y-71423510D01*
X125332441Y-71485594D01*
X125374386Y-71533795D01*
X125400431Y-71565220D01*
X125407915Y-71576974D01*
X125405346Y-71578272D01*
X125380785Y-71591978D01*
X125332204Y-71619613D01*
X125261652Y-71659998D01*
X125171173Y-71711955D01*
X125062815Y-71774305D01*
X124938624Y-71845871D01*
X124800645Y-71925475D01*
X124650926Y-72011938D01*
X124491513Y-72104083D01*
X124324451Y-72200732D01*
X124262008Y-72236867D01*
X124097883Y-72331806D01*
X123942358Y-72421714D01*
X123797454Y-72505424D01*
X123665195Y-72581771D01*
X123547604Y-72649589D01*
X123446702Y-72707711D01*
X123364513Y-72754971D01*
X123303059Y-72790203D01*
X123264364Y-72812242D01*
X123250449Y-72819920D01*
X123251075Y-72815831D01*
X123262493Y-72792330D01*
X123283493Y-72754786D01*
X123296376Y-72732564D01*
X123323772Y-72685173D01*
X123364087Y-72615377D01*
X123416009Y-72525444D01*
X123478231Y-72417642D01*
X123549443Y-72294240D01*
X123628335Y-72157506D01*
X123713598Y-72009709D01*
X123803924Y-71853117D01*
X123898002Y-71690000D01*
X123990121Y-71530323D01*
X124079680Y-71375187D01*
X124163893Y-71229412D01*
X124241497Y-71095183D01*
X124311225Y-70974685D01*
X124371814Y-70870102D01*
X124421998Y-70783619D01*
X124460512Y-70717421D01*
X124486092Y-70673693D01*
X124497472Y-70654619D01*
X124520820Y-70618201D01*
X124567836Y-70662363D01*
G37*
X126330560Y-67493175D02*
X126342093Y-67510511D01*
X126367500Y-67552162D01*
X126405507Y-67615911D01*
X126454837Y-67699545D01*
X126514213Y-67800849D01*
X126582359Y-67917609D01*
X126658000Y-68047608D01*
X126739859Y-68188633D01*
X126826660Y-68338468D01*
X126917126Y-68494900D01*
X127009982Y-68655713D01*
X127103951Y-68818693D01*
X127197757Y-68981624D01*
X127290124Y-69142292D01*
X127379776Y-69298482D01*
X127465436Y-69447980D01*
X127545828Y-69588571D01*
X127619677Y-69718040D01*
X127685705Y-69834172D01*
X127742637Y-69934752D01*
X127789197Y-70017567D01*
X127824108Y-70080400D01*
X127846094Y-70121037D01*
X127853879Y-70137264D01*
X127853887Y-70137388D01*
X127841333Y-70154416D01*
X127805258Y-70183279D01*
X127749417Y-70221247D01*
X127677561Y-70265587D01*
X127629373Y-70293952D01*
X127560032Y-70333396D01*
X127511734Y-70358254D01*
X127481242Y-70369924D01*
X127465320Y-70369806D01*
X127460732Y-70359297D01*
X127460382Y-70357583D01*
X127447268Y-70336682D01*
X127419000Y-70301139D01*
X127380786Y-70257583D01*
X127363155Y-70238875D01*
X127308482Y-70188512D01*
X127248022Y-70145465D01*
X127178182Y-70108473D01*
X127095370Y-70076273D01*
X126995992Y-70047602D01*
X126876455Y-70021198D01*
X126733166Y-69995800D01*
X126562531Y-69970145D01*
X126366134Y-69941227D01*
X126176274Y-69910173D01*
X126010260Y-69879044D01*
X125864382Y-69846942D01*
X125734927Y-69812969D01*
X125618183Y-69776226D01*
X125510440Y-69735817D01*
X125407985Y-69690843D01*
X125332688Y-69653754D01*
X125260765Y-69614725D01*
X125203886Y-69579882D01*
X125166499Y-69551965D01*
X125153049Y-69533714D01*
X125153446Y-69532370D01*
X125164280Y-69510862D01*
X125188845Y-69465822D01*
X125225685Y-69399772D01*
X125273347Y-69315233D01*
X125330376Y-69214727D01*
X125395318Y-69100776D01*
X125466719Y-68975901D01*
X125543124Y-68842624D01*
X125623079Y-68703467D01*
X125705130Y-68560951D01*
X125787822Y-68417598D01*
X125869701Y-68275930D01*
X125949313Y-68138468D01*
X126025204Y-68007734D01*
X126095919Y-67886250D01*
X126160004Y-67776538D01*
X126216004Y-67681118D01*
X126262466Y-67602514D01*
X126297935Y-67543245D01*
X126320957Y-67505835D01*
X126330077Y-67492805D01*
X126330560Y-67493175D01*
G36*
X126330560Y-67493175D02*
G01*
X126342093Y-67510511D01*
X126367500Y-67552162D01*
X126405507Y-67615911D01*
X126454837Y-67699545D01*
X126514213Y-67800849D01*
X126582359Y-67917609D01*
X126658000Y-68047608D01*
X126739859Y-68188633D01*
X126826660Y-68338468D01*
X126917126Y-68494900D01*
X127009982Y-68655713D01*
X127103951Y-68818693D01*
X127197757Y-68981624D01*
X127290124Y-69142292D01*
X127379776Y-69298482D01*
X127465436Y-69447980D01*
X127545828Y-69588571D01*
X127619677Y-69718040D01*
X127685705Y-69834172D01*
X127742637Y-69934752D01*
X127789197Y-70017567D01*
X127824108Y-70080400D01*
X127846094Y-70121037D01*
X127853879Y-70137264D01*
X127853887Y-70137388D01*
X127841333Y-70154416D01*
X127805258Y-70183279D01*
X127749417Y-70221247D01*
X127677561Y-70265587D01*
X127629373Y-70293952D01*
X127560032Y-70333396D01*
X127511734Y-70358254D01*
X127481242Y-70369924D01*
X127465320Y-70369806D01*
X127460732Y-70359297D01*
X127460382Y-70357583D01*
X127447268Y-70336682D01*
X127419000Y-70301139D01*
X127380786Y-70257583D01*
X127363155Y-70238875D01*
X127308482Y-70188512D01*
X127248022Y-70145465D01*
X127178182Y-70108473D01*
X127095370Y-70076273D01*
X126995992Y-70047602D01*
X126876455Y-70021198D01*
X126733166Y-69995800D01*
X126562531Y-69970145D01*
X126366134Y-69941227D01*
X126176274Y-69910173D01*
X126010260Y-69879044D01*
X125864382Y-69846942D01*
X125734927Y-69812969D01*
X125618183Y-69776226D01*
X125510440Y-69735817D01*
X125407985Y-69690843D01*
X125332688Y-69653754D01*
X125260765Y-69614725D01*
X125203886Y-69579882D01*
X125166499Y-69551965D01*
X125153049Y-69533714D01*
X125153446Y-69532370D01*
X125164280Y-69510862D01*
X125188845Y-69465822D01*
X125225685Y-69399772D01*
X125273347Y-69315233D01*
X125330376Y-69214727D01*
X125395318Y-69100776D01*
X125466719Y-68975901D01*
X125543124Y-68842624D01*
X125623079Y-68703467D01*
X125705130Y-68560951D01*
X125787822Y-68417598D01*
X125869701Y-68275930D01*
X125949313Y-68138468D01*
X126025204Y-68007734D01*
X126095919Y-67886250D01*
X126160004Y-67776538D01*
X126216004Y-67681118D01*
X126262466Y-67602514D01*
X126297935Y-67543245D01*
X126320957Y-67505835D01*
X126330077Y-67492805D01*
X126330560Y-67493175D01*
G37*
X128195047Y-70716040D02*
X128200802Y-70724625D01*
X128221365Y-70758346D01*
X128255179Y-70815200D01*
X128300950Y-70892968D01*
X128357383Y-70989432D01*
X128423184Y-71102371D01*
X128497058Y-71229568D01*
X128577711Y-71368803D01*
X128663848Y-71517857D01*
X128754175Y-71674512D01*
X128778947Y-71717521D01*
X128876900Y-71887575D01*
X128975509Y-72058754D01*
X129072760Y-72227562D01*
X129166638Y-72390503D01*
X129255131Y-72544082D01*
X129336222Y-72684801D01*
X129407898Y-72809166D01*
X129468144Y-72913680D01*
X129514947Y-72994847D01*
X129736030Y-73378171D01*
X126636076Y-73378171D01*
X126507921Y-73378159D01*
X126202500Y-73378042D01*
X125906432Y-73377802D01*
X125621159Y-73377444D01*
X125348123Y-73376976D01*
X125088765Y-73376403D01*
X124844527Y-73375732D01*
X124616849Y-73374968D01*
X124407174Y-73374119D01*
X124216943Y-73373189D01*
X124047597Y-73372186D01*
X123900578Y-73371115D01*
X123777327Y-73369983D01*
X123679286Y-73368796D01*
X123607896Y-73367559D01*
X123564598Y-73366280D01*
X123550835Y-73364963D01*
X123561054Y-73358304D01*
X123596311Y-73337083D01*
X123654221Y-73302920D01*
X123732430Y-73257171D01*
X123828583Y-73201190D01*
X123940323Y-73136333D01*
X124065296Y-73063954D01*
X124201146Y-72985409D01*
X124345518Y-72902054D01*
X124496056Y-72815243D01*
X124650405Y-72726332D01*
X124806210Y-72636676D01*
X124961116Y-72547629D01*
X125112766Y-72460548D01*
X125258806Y-72376788D01*
X125396881Y-72297703D01*
X125524634Y-72224649D01*
X125639711Y-72158981D01*
X125739756Y-72102054D01*
X125822414Y-72055224D01*
X125885329Y-72019846D01*
X125926147Y-71997274D01*
X125942511Y-71988864D01*
X125953189Y-71990949D01*
X125985358Y-72009908D01*
X126031221Y-72045032D01*
X126085740Y-72092669D01*
X126134845Y-72140356D01*
X126197389Y-72205316D01*
X126267368Y-72281155D01*
X126341196Y-72363698D01*
X126415285Y-72448768D01*
X126486048Y-72532190D01*
X126549898Y-72609789D01*
X126603247Y-72677389D01*
X126642509Y-72730814D01*
X126664095Y-72765889D01*
X126678506Y-72791505D01*
X126717643Y-72844516D01*
X126767958Y-72900912D01*
X126822276Y-72953462D01*
X126873424Y-72994930D01*
X126914227Y-73018086D01*
X126959292Y-73023438D01*
X127019426Y-73008645D01*
X127076579Y-72974726D01*
X127120933Y-72926053D01*
X127128613Y-72913425D01*
X127138392Y-72892743D01*
X127144765Y-72867854D01*
X127148142Y-72833409D01*
X127148931Y-72784062D01*
X127147541Y-72714464D01*
X127144381Y-72619268D01*
X127142116Y-72564202D01*
X127137304Y-72477117D01*
X127131625Y-72400899D01*
X127125608Y-72342249D01*
X127119783Y-72307866D01*
X127105679Y-72268588D01*
X127063866Y-72191240D01*
X126998895Y-72099591D01*
X126909970Y-71992567D01*
X126796300Y-71869090D01*
X126746972Y-71817066D01*
X126689938Y-71755696D01*
X126642864Y-71703665D01*
X126609624Y-71665266D01*
X126594089Y-71644796D01*
X126592492Y-71641546D01*
X126590577Y-71627553D01*
X126600145Y-71612039D01*
X126625115Y-71591659D01*
X126669406Y-71563071D01*
X126736938Y-71522932D01*
X126794347Y-71489422D01*
X126899992Y-71428123D01*
X126983171Y-71380509D01*
X127046678Y-71345033D01*
X127093306Y-71320149D01*
X127125850Y-71304313D01*
X127147104Y-71295977D01*
X127169097Y-71286728D01*
X127181951Y-71274307D01*
X127183154Y-71271378D01*
X127201961Y-71255084D01*
X127236335Y-71234098D01*
X127290719Y-71204810D01*
X127330874Y-71242192D01*
X127345057Y-71257336D01*
X127378055Y-71298493D01*
X127418346Y-71353445D01*
X127460182Y-71414531D01*
X127549336Y-71549489D01*
X127545837Y-71899362D01*
X127542339Y-72249235D01*
X127491393Y-72298733D01*
X127474274Y-72316379D01*
X127419376Y-72395660D01*
X127387330Y-72489935D01*
X127376412Y-72603780D01*
X127379123Y-72664779D01*
X127398261Y-72772378D01*
X127433141Y-72870583D01*
X127480742Y-72949382D01*
X127513795Y-72978114D01*
X127572549Y-72999937D01*
X127639061Y-73002454D01*
X127704816Y-72986828D01*
X127761301Y-72954220D01*
X127800003Y-72905793D01*
X127801270Y-72903168D01*
X127824663Y-72855225D01*
X127849439Y-72805122D01*
X127870472Y-72758087D01*
X127900644Y-72678810D01*
X127933932Y-72581072D01*
X127969179Y-72469228D01*
X128005229Y-72347634D01*
X128040925Y-72220645D01*
X128075110Y-72092616D01*
X128106627Y-71967902D01*
X128134320Y-71850859D01*
X128157032Y-71745843D01*
X128173606Y-71657209D01*
X128182885Y-71589312D01*
X128183714Y-71546507D01*
X128181847Y-71536782D01*
X128163658Y-71487556D01*
X128129907Y-71421699D01*
X128083555Y-71345165D01*
X128065764Y-71317585D01*
X127994282Y-71205122D01*
X127933520Y-71106772D01*
X127884817Y-71024832D01*
X127849514Y-70961605D01*
X127828952Y-70919390D01*
X127824469Y-70900487D01*
X127824988Y-70899820D01*
X127843545Y-70886205D01*
X127883202Y-70861319D01*
X127938526Y-70828476D01*
X128004084Y-70790988D01*
X128009626Y-70787876D01*
X128080807Y-70748712D01*
X128130381Y-70723736D01*
X128162906Y-70711158D01*
X128182942Y-70709189D01*
X128195047Y-70716040D01*
G36*
X128195047Y-70716040D02*
G01*
X128200802Y-70724625D01*
X128221365Y-70758346D01*
X128255179Y-70815200D01*
X128300950Y-70892968D01*
X128357383Y-70989432D01*
X128423184Y-71102371D01*
X128497058Y-71229568D01*
X128577711Y-71368803D01*
X128663848Y-71517857D01*
X128754175Y-71674512D01*
X128778947Y-71717521D01*
X128876900Y-71887575D01*
X128975509Y-72058754D01*
X129072760Y-72227562D01*
X129166638Y-72390503D01*
X129255131Y-72544082D01*
X129336222Y-72684801D01*
X129407898Y-72809166D01*
X129468144Y-72913680D01*
X129514947Y-72994847D01*
X129736030Y-73378171D01*
X126636076Y-73378171D01*
X126507921Y-73378159D01*
X126202500Y-73378042D01*
X125906432Y-73377802D01*
X125621159Y-73377444D01*
X125348123Y-73376976D01*
X125088765Y-73376403D01*
X124844527Y-73375732D01*
X124616849Y-73374968D01*
X124407174Y-73374119D01*
X124216943Y-73373189D01*
X124047597Y-73372186D01*
X123900578Y-73371115D01*
X123777327Y-73369983D01*
X123679286Y-73368796D01*
X123607896Y-73367559D01*
X123564598Y-73366280D01*
X123550835Y-73364963D01*
X123561054Y-73358304D01*
X123596311Y-73337083D01*
X123654221Y-73302920D01*
X123732430Y-73257171D01*
X123828583Y-73201190D01*
X123940323Y-73136333D01*
X124065296Y-73063954D01*
X124201146Y-72985409D01*
X124345518Y-72902054D01*
X124496056Y-72815243D01*
X124650405Y-72726332D01*
X124806210Y-72636676D01*
X124961116Y-72547629D01*
X125112766Y-72460548D01*
X125258806Y-72376788D01*
X125396881Y-72297703D01*
X125524634Y-72224649D01*
X125639711Y-72158981D01*
X125739756Y-72102054D01*
X125822414Y-72055224D01*
X125885329Y-72019846D01*
X125926147Y-71997274D01*
X125942511Y-71988864D01*
X125953189Y-71990949D01*
X125985358Y-72009908D01*
X126031221Y-72045032D01*
X126085740Y-72092669D01*
X126134845Y-72140356D01*
X126197389Y-72205316D01*
X126267368Y-72281155D01*
X126341196Y-72363698D01*
X126415285Y-72448768D01*
X126486048Y-72532190D01*
X126549898Y-72609789D01*
X126603247Y-72677389D01*
X126642509Y-72730814D01*
X126664095Y-72765889D01*
X126678506Y-72791505D01*
X126717643Y-72844516D01*
X126767958Y-72900912D01*
X126822276Y-72953462D01*
X126873424Y-72994930D01*
X126914227Y-73018086D01*
X126959292Y-73023438D01*
X127019426Y-73008645D01*
X127076579Y-72974726D01*
X127120933Y-72926053D01*
X127128613Y-72913425D01*
X127138392Y-72892743D01*
X127144765Y-72867854D01*
X127148142Y-72833409D01*
X127148931Y-72784062D01*
X127147541Y-72714464D01*
X127144381Y-72619268D01*
X127142116Y-72564202D01*
X127137304Y-72477117D01*
X127131625Y-72400899D01*
X127125608Y-72342249D01*
X127119783Y-72307866D01*
X127105679Y-72268588D01*
X127063866Y-72191240D01*
X126998895Y-72099591D01*
X126909970Y-71992567D01*
X126796300Y-71869090D01*
X126746972Y-71817066D01*
X126689938Y-71755696D01*
X126642864Y-71703665D01*
X126609624Y-71665266D01*
X126594089Y-71644796D01*
X126592492Y-71641546D01*
X126590577Y-71627553D01*
X126600145Y-71612039D01*
X126625115Y-71591659D01*
X126669406Y-71563071D01*
X126736938Y-71522932D01*
X126794347Y-71489422D01*
X126899992Y-71428123D01*
X126983171Y-71380509D01*
X127046678Y-71345033D01*
X127093306Y-71320149D01*
X127125850Y-71304313D01*
X127147104Y-71295977D01*
X127169097Y-71286728D01*
X127181951Y-71274307D01*
X127183154Y-71271378D01*
X127201961Y-71255084D01*
X127236335Y-71234098D01*
X127290719Y-71204810D01*
X127330874Y-71242192D01*
X127345057Y-71257336D01*
X127378055Y-71298493D01*
X127418346Y-71353445D01*
X127460182Y-71414531D01*
X127549336Y-71549489D01*
X127545837Y-71899362D01*
X127542339Y-72249235D01*
X127491393Y-72298733D01*
X127474274Y-72316379D01*
X127419376Y-72395660D01*
X127387330Y-72489935D01*
X127376412Y-72603780D01*
X127379123Y-72664779D01*
X127398261Y-72772378D01*
X127433141Y-72870583D01*
X127480742Y-72949382D01*
X127513795Y-72978114D01*
X127572549Y-72999937D01*
X127639061Y-73002454D01*
X127704816Y-72986828D01*
X127761301Y-72954220D01*
X127800003Y-72905793D01*
X127801270Y-72903168D01*
X127824663Y-72855225D01*
X127849439Y-72805122D01*
X127870472Y-72758087D01*
X127900644Y-72678810D01*
X127933932Y-72581072D01*
X127969179Y-72469228D01*
X128005229Y-72347634D01*
X128040925Y-72220645D01*
X128075110Y-72092616D01*
X128106627Y-71967902D01*
X128134320Y-71850859D01*
X128157032Y-71745843D01*
X128173606Y-71657209D01*
X128182885Y-71589312D01*
X128183714Y-71546507D01*
X128181847Y-71536782D01*
X128163658Y-71487556D01*
X128129907Y-71421699D01*
X128083555Y-71345165D01*
X128065764Y-71317585D01*
X127994282Y-71205122D01*
X127933520Y-71106772D01*
X127884817Y-71024832D01*
X127849514Y-70961605D01*
X127828952Y-70919390D01*
X127824469Y-70900487D01*
X127824988Y-70899820D01*
X127843545Y-70886205D01*
X127883202Y-70861319D01*
X127938526Y-70828476D01*
X128004084Y-70790988D01*
X128009626Y-70787876D01*
X128080807Y-70748712D01*
X128130381Y-70723736D01*
X128162906Y-70711158D01*
X128182942Y-70709189D01*
X128195047Y-70716040D01*
G37*
X163472128Y-67573945D02*
X163502954Y-67583568D01*
X163540916Y-67599563D01*
X163559296Y-67608159D01*
X163572561Y-67609713D01*
X163575495Y-67597798D01*
X163575498Y-67597461D01*
X163581709Y-67586087D01*
X163603131Y-67580256D01*
X163644653Y-67578614D01*
X163713812Y-67578614D01*
X163713812Y-68182179D01*
X163575495Y-68182179D01*
X163575495Y-67766027D01*
X163541110Y-67734161D01*
X163530368Y-67725104D01*
X163498370Y-67709630D01*
X163458965Y-67709010D01*
X163405312Y-67722664D01*
X163387225Y-67723529D01*
X163366008Y-67710283D01*
X163337768Y-67678800D01*
X163324069Y-67661385D01*
X163307868Y-67636797D01*
X163305371Y-67621145D01*
X163314442Y-67607941D01*
X163342289Y-67591245D01*
X163385540Y-67578030D01*
X163432464Y-67571478D01*
X163472128Y-67573945D01*
G36*
X163472128Y-67573945D02*
G01*
X163502954Y-67583568D01*
X163540916Y-67599563D01*
X163559296Y-67608159D01*
X163572561Y-67609713D01*
X163575495Y-67597798D01*
X163575498Y-67597461D01*
X163581709Y-67586087D01*
X163603131Y-67580256D01*
X163644653Y-67578614D01*
X163713812Y-67578614D01*
X163713812Y-68182179D01*
X163575495Y-68182179D01*
X163575495Y-67766027D01*
X163541110Y-67734161D01*
X163530368Y-67725104D01*
X163498370Y-67709630D01*
X163458965Y-67709010D01*
X163405312Y-67722664D01*
X163387225Y-67723529D01*
X163366008Y-67710283D01*
X163337768Y-67678800D01*
X163324069Y-67661385D01*
X163307868Y-67636797D01*
X163305371Y-67621145D01*
X163314442Y-67607941D01*
X163342289Y-67591245D01*
X163385540Y-67578030D01*
X163432464Y-67571478D01*
X163472128Y-67573945D01*
G37*
X163655265Y-68529965D02*
X163693255Y-68547745D01*
X163726386Y-68573806D01*
X163726386Y-68547745D01*
X163727211Y-68537849D01*
X163734893Y-68527358D01*
X163755667Y-68522725D01*
X163795544Y-68521683D01*
X163864703Y-68521683D01*
X163864703Y-69137822D01*
X163726386Y-69137822D01*
X163726386Y-68937226D01*
X163726369Y-68925710D01*
X163725189Y-68844758D01*
X163722294Y-68778817D01*
X163717888Y-68731258D01*
X163712181Y-68705452D01*
X163706940Y-68695710D01*
X163674676Y-68665156D01*
X163630730Y-68651631D01*
X163582743Y-68657941D01*
X163570973Y-68662217D01*
X163545898Y-68669776D01*
X163528762Y-68667428D01*
X163511518Y-68652064D01*
X163486124Y-68620571D01*
X163444936Y-68568568D01*
X163473886Y-68545125D01*
X163501405Y-68531015D01*
X163549745Y-68521486D01*
X163604230Y-68521174D01*
X163655265Y-68529965D01*
G36*
X163655265Y-68529965D02*
G01*
X163693255Y-68547745D01*
X163726386Y-68573806D01*
X163726386Y-68547745D01*
X163727211Y-68537849D01*
X163734893Y-68527358D01*
X163755667Y-68522725D01*
X163795544Y-68521683D01*
X163864703Y-68521683D01*
X163864703Y-69137822D01*
X163726386Y-69137822D01*
X163726386Y-68937226D01*
X163726369Y-68925710D01*
X163725189Y-68844758D01*
X163722294Y-68778817D01*
X163717888Y-68731258D01*
X163712181Y-68705452D01*
X163706940Y-68695710D01*
X163674676Y-68665156D01*
X163630730Y-68651631D01*
X163582743Y-68657941D01*
X163570973Y-68662217D01*
X163545898Y-68669776D01*
X163528762Y-68667428D01*
X163511518Y-68652064D01*
X163486124Y-68620571D01*
X163444936Y-68568568D01*
X163473886Y-68545125D01*
X163501405Y-68531015D01*
X163549745Y-68521486D01*
X163604230Y-68521174D01*
X163655265Y-68529965D01*
G37*
X166278960Y-69137822D02*
X166153218Y-69137822D01*
X166153218Y-68943740D01*
X166153078Y-68898594D01*
X166151649Y-68823823D01*
X166148029Y-68768467D01*
X166141434Y-68728702D01*
X166131079Y-68700700D01*
X166116178Y-68680635D01*
X166095946Y-68664681D01*
X166073859Y-68652792D01*
X166047705Y-68649421D01*
X166010508Y-68656917D01*
X165998555Y-68660038D01*
X165968718Y-68664735D01*
X165947383Y-68658005D01*
X165922655Y-68637177D01*
X165917963Y-68632647D01*
X165892020Y-68604626D01*
X165875291Y-68581843D01*
X165872996Y-68576355D01*
X165877543Y-68556088D01*
X165900602Y-68539884D01*
X165936995Y-68528513D01*
X165981544Y-68522740D01*
X166029072Y-68523334D01*
X166074400Y-68531063D01*
X166112351Y-68546694D01*
X166124381Y-68553993D01*
X166144632Y-68564676D01*
X166152129Y-68562230D01*
X166153218Y-68546647D01*
X166153473Y-68541053D01*
X166159539Y-68528660D01*
X166178356Y-68523020D01*
X166216089Y-68521683D01*
X166278960Y-68521683D01*
X166278960Y-69137822D01*
G36*
X166278960Y-69137822D02*
G01*
X166153218Y-69137822D01*
X166153218Y-68943740D01*
X166153078Y-68898594D01*
X166151649Y-68823823D01*
X166148029Y-68768467D01*
X166141434Y-68728702D01*
X166131079Y-68700700D01*
X166116178Y-68680635D01*
X166095946Y-68664681D01*
X166073859Y-68652792D01*
X166047705Y-68649421D01*
X166010508Y-68656917D01*
X165998555Y-68660038D01*
X165968718Y-68664735D01*
X165947383Y-68658005D01*
X165922655Y-68637177D01*
X165917963Y-68632647D01*
X165892020Y-68604626D01*
X165875291Y-68581843D01*
X165872996Y-68576355D01*
X165877543Y-68556088D01*
X165900602Y-68539884D01*
X165936995Y-68528513D01*
X165981544Y-68522740D01*
X166029072Y-68523334D01*
X166074400Y-68531063D01*
X166112351Y-68546694D01*
X166124381Y-68553993D01*
X166144632Y-68564676D01*
X166152129Y-68562230D01*
X166153218Y-68546647D01*
X166153473Y-68541053D01*
X166159539Y-68528660D01*
X166178356Y-68523020D01*
X166216089Y-68521683D01*
X166278960Y-68521683D01*
X166278960Y-69137822D01*
G37*
X163965297Y-67774342D02*
X163966357Y-67862394D01*
X163970509Y-67933510D01*
X163978921Y-67985199D01*
X163992757Y-68020360D01*
X164013182Y-68041889D01*
X164041364Y-68052682D01*
X164078465Y-68055636D01*
X164113890Y-68053000D01*
X164142500Y-68042679D01*
X164163296Y-68021772D01*
X164177442Y-67987381D01*
X164186103Y-67936610D01*
X164190445Y-67866563D01*
X164191633Y-67774342D01*
X164191633Y-67578614D01*
X164317376Y-67578614D01*
X164317376Y-67814578D01*
X164317160Y-67877561D01*
X164315484Y-67959007D01*
X164311277Y-68021121D01*
X164303521Y-68067458D01*
X164291196Y-68101573D01*
X164273285Y-68127022D01*
X164248767Y-68147362D01*
X164216623Y-68166147D01*
X164149125Y-68189928D01*
X164078681Y-68191480D01*
X164012264Y-68169580D01*
X163983286Y-68155383D01*
X163968909Y-68153261D01*
X163965297Y-68163293D01*
X163959299Y-68174556D01*
X163937830Y-68180489D01*
X163896138Y-68182179D01*
X163826980Y-68182179D01*
X163826980Y-67578614D01*
X163965297Y-67578614D01*
X163965297Y-67774342D01*
G36*
X163965297Y-67774342D02*
G01*
X163966357Y-67862394D01*
X163970509Y-67933510D01*
X163978921Y-67985199D01*
X163992757Y-68020360D01*
X164013182Y-68041889D01*
X164041364Y-68052682D01*
X164078465Y-68055636D01*
X164113890Y-68053000D01*
X164142500Y-68042679D01*
X164163296Y-68021772D01*
X164177442Y-67987381D01*
X164186103Y-67936610D01*
X164190445Y-67866563D01*
X164191633Y-67774342D01*
X164191633Y-67578614D01*
X164317376Y-67578614D01*
X164317376Y-67814578D01*
X164317160Y-67877561D01*
X164315484Y-67959007D01*
X164311277Y-68021121D01*
X164303521Y-68067458D01*
X164291196Y-68101573D01*
X164273285Y-68127022D01*
X164248767Y-68147362D01*
X164216623Y-68166147D01*
X164149125Y-68189928D01*
X164078681Y-68191480D01*
X164012264Y-68169580D01*
X163983286Y-68155383D01*
X163968909Y-68153261D01*
X163965297Y-68163293D01*
X163959299Y-68174556D01*
X163937830Y-68180489D01*
X163896138Y-68182179D01*
X163826980Y-68182179D01*
X163826980Y-67578614D01*
X163965297Y-67578614D01*
X163965297Y-67774342D01*
G37*
X166067605Y-67577424D02*
X166124926Y-67595434D01*
X166150199Y-67607674D01*
X166162910Y-67608938D01*
X166165792Y-67597798D01*
X166165795Y-67597461D01*
X166172006Y-67586087D01*
X166193428Y-67580256D01*
X166234950Y-67578614D01*
X166304109Y-67578614D01*
X166304109Y-68182179D01*
X166165792Y-68182179D01*
X166165792Y-67974132D01*
X166165697Y-67903879D01*
X166165051Y-67846170D01*
X166163320Y-67805787D01*
X166159974Y-67778615D01*
X166154481Y-67760540D01*
X166146310Y-67747447D01*
X166134928Y-67735221D01*
X166119424Y-67722217D01*
X166074843Y-67704745D01*
X166028047Y-67709873D01*
X165985180Y-67737507D01*
X165972927Y-67750368D01*
X165964132Y-67763384D01*
X165958233Y-67780706D01*
X165954651Y-67806501D01*
X165952809Y-67844939D01*
X165952128Y-67900189D01*
X165952030Y-67976418D01*
X165952030Y-68182179D01*
X165813713Y-68182179D01*
X165813989Y-67958985D01*
X165814008Y-67949044D01*
X165815207Y-67854106D01*
X165818891Y-67780358D01*
X165826006Y-67724214D01*
X165837500Y-67682087D01*
X165854318Y-67650391D01*
X165877409Y-67625541D01*
X165907717Y-67603950D01*
X165939012Y-67589002D01*
X166002037Y-67575421D01*
X166067605Y-67577424D01*
G36*
X166067605Y-67577424D02*
G01*
X166124926Y-67595434D01*
X166150199Y-67607674D01*
X166162910Y-67608938D01*
X166165792Y-67597798D01*
X166165795Y-67597461D01*
X166172006Y-67586087D01*
X166193428Y-67580256D01*
X166234950Y-67578614D01*
X166304109Y-67578614D01*
X166304109Y-68182179D01*
X166165792Y-68182179D01*
X166165792Y-67974132D01*
X166165697Y-67903879D01*
X166165051Y-67846170D01*
X166163320Y-67805787D01*
X166159974Y-67778615D01*
X166154481Y-67760540D01*
X166146310Y-67747447D01*
X166134928Y-67735221D01*
X166119424Y-67722217D01*
X166074843Y-67704745D01*
X166028047Y-67709873D01*
X165985180Y-67737507D01*
X165972927Y-67750368D01*
X165964132Y-67763384D01*
X165958233Y-67780706D01*
X165954651Y-67806501D01*
X165952809Y-67844939D01*
X165952128Y-67900189D01*
X165952030Y-67976418D01*
X165952030Y-68182179D01*
X165813713Y-68182179D01*
X165813989Y-67958985D01*
X165814008Y-67949044D01*
X165815207Y-67854106D01*
X165818891Y-67780358D01*
X165826006Y-67724214D01*
X165837500Y-67682087D01*
X165854318Y-67650391D01*
X165877409Y-67625541D01*
X165907717Y-67603950D01*
X165939012Y-67589002D01*
X166002037Y-67575421D01*
X166067605Y-67577424D01*
G37*
X163118409Y-67581493D02*
X163187021Y-67608224D01*
X163245048Y-67652351D01*
X163287907Y-67712958D01*
X163290801Y-67719137D01*
X163309176Y-67779409D01*
X163318357Y-67851407D01*
X163318285Y-67926369D01*
X163308901Y-67995536D01*
X163290149Y-68050149D01*
X163266995Y-68088212D01*
X163216030Y-68142135D01*
X163152306Y-68176411D01*
X163097785Y-68190272D01*
X163014767Y-68191785D01*
X162935326Y-68170882D01*
X162864879Y-68128464D01*
X162819284Y-68090880D01*
X162860351Y-68048510D01*
X162886296Y-68023409D01*
X162909764Y-68009434D01*
X162931524Y-68012511D01*
X162959356Y-68031287D01*
X162970454Y-68038638D01*
X163017337Y-68053683D01*
X163071224Y-68053673D01*
X163121675Y-68038168D01*
X163140672Y-68025716D01*
X163168537Y-67988946D01*
X163182506Y-67934939D01*
X163183405Y-67861331D01*
X163183403Y-67861289D01*
X163173009Y-67795433D01*
X163150114Y-67749772D01*
X163112439Y-67721528D01*
X163057708Y-67707920D01*
X163023241Y-67706090D01*
X162993126Y-67713584D01*
X162962240Y-67735295D01*
X162922272Y-67768926D01*
X162871656Y-67728250D01*
X162853163Y-67712667D01*
X162830065Y-67690340D01*
X162821039Y-67677183D01*
X162824236Y-67671253D01*
X162842646Y-67653048D01*
X162871973Y-67629895D01*
X162894920Y-67614830D01*
X162967774Y-67583880D01*
X163043799Y-67573073D01*
X163118409Y-67581493D01*
G36*
X163118409Y-67581493D02*
G01*
X163187021Y-67608224D01*
X163245048Y-67652351D01*
X163287907Y-67712958D01*
X163290801Y-67719137D01*
X163309176Y-67779409D01*
X163318357Y-67851407D01*
X163318285Y-67926369D01*
X163308901Y-67995536D01*
X163290149Y-68050149D01*
X163266995Y-68088212D01*
X163216030Y-68142135D01*
X163152306Y-68176411D01*
X163097785Y-68190272D01*
X163014767Y-68191785D01*
X162935326Y-68170882D01*
X162864879Y-68128464D01*
X162819284Y-68090880D01*
X162860351Y-68048510D01*
X162886296Y-68023409D01*
X162909764Y-68009434D01*
X162931524Y-68012511D01*
X162959356Y-68031287D01*
X162970454Y-68038638D01*
X163017337Y-68053683D01*
X163071224Y-68053673D01*
X163121675Y-68038168D01*
X163140672Y-68025716D01*
X163168537Y-67988946D01*
X163182506Y-67934939D01*
X163183405Y-67861331D01*
X163183403Y-67861289D01*
X163173009Y-67795433D01*
X163150114Y-67749772D01*
X163112439Y-67721528D01*
X163057708Y-67707920D01*
X163023241Y-67706090D01*
X162993126Y-67713584D01*
X162962240Y-67735295D01*
X162922272Y-67768926D01*
X162871656Y-67728250D01*
X162853163Y-67712667D01*
X162830065Y-67690340D01*
X162821039Y-67677183D01*
X162824236Y-67671253D01*
X162842646Y-67653048D01*
X162871973Y-67629895D01*
X162894920Y-67614830D01*
X162967774Y-67583880D01*
X163043799Y-67573073D01*
X163118409Y-67581493D01*
G37*
X164917857Y-67923771D02*
X164914349Y-67963565D01*
X164898844Y-68039538D01*
X164871110Y-68097511D01*
X164828898Y-68141300D01*
X164769960Y-68174722D01*
X164747076Y-68182676D01*
X164687812Y-68192601D01*
X164625447Y-68192331D01*
X164572823Y-68181430D01*
X164571789Y-68181034D01*
X164529381Y-68156087D01*
X164486537Y-68117468D01*
X164450986Y-68073306D01*
X164430459Y-68031727D01*
X164424374Y-68001334D01*
X164419164Y-67944429D01*
X164418291Y-67893705D01*
X164544976Y-67893705D01*
X164552549Y-67954545D01*
X164570341Y-68004538D01*
X164597296Y-68037204D01*
X164607513Y-68042812D01*
X164646473Y-68053007D01*
X164691536Y-68055104D01*
X164729448Y-68048020D01*
X164744244Y-68037861D01*
X164765014Y-68002334D01*
X164778083Y-67946732D01*
X164782624Y-67873766D01*
X164782551Y-67852762D01*
X164780974Y-67810203D01*
X164775728Y-67782439D01*
X164764723Y-67761925D01*
X164745868Y-67741112D01*
X164709989Y-67715887D01*
X164663280Y-67705573D01*
X164618151Y-67715396D01*
X164580680Y-67743805D01*
X164556943Y-67789253D01*
X164548675Y-67828497D01*
X164544976Y-67893705D01*
X164418291Y-67893705D01*
X164418049Y-67879621D01*
X164420844Y-67815116D01*
X164427366Y-67759121D01*
X164437432Y-67719842D01*
X164460877Y-67675372D01*
X164510637Y-67620692D01*
X164574238Y-67586055D01*
X164649790Y-67572345D01*
X164735399Y-67580448D01*
X164749644Y-67583899D01*
X164815982Y-67613664D01*
X164865971Y-67662530D01*
X164899612Y-67730501D01*
X164916906Y-67817580D01*
X164917410Y-67873766D01*
X164917857Y-67923771D01*
G36*
X164917857Y-67923771D02*
G01*
X164914349Y-67963565D01*
X164898844Y-68039538D01*
X164871110Y-68097511D01*
X164828898Y-68141300D01*
X164769960Y-68174722D01*
X164747076Y-68182676D01*
X164687812Y-68192601D01*
X164625447Y-68192331D01*
X164572823Y-68181430D01*
X164571789Y-68181034D01*
X164529381Y-68156087D01*
X164486537Y-68117468D01*
X164450986Y-68073306D01*
X164430459Y-68031727D01*
X164424374Y-68001334D01*
X164419164Y-67944429D01*
X164418291Y-67893705D01*
X164544976Y-67893705D01*
X164552549Y-67954545D01*
X164570341Y-68004538D01*
X164597296Y-68037204D01*
X164607513Y-68042812D01*
X164646473Y-68053007D01*
X164691536Y-68055104D01*
X164729448Y-68048020D01*
X164744244Y-68037861D01*
X164765014Y-68002334D01*
X164778083Y-67946732D01*
X164782624Y-67873766D01*
X164782551Y-67852762D01*
X164780974Y-67810203D01*
X164775728Y-67782439D01*
X164764723Y-67761925D01*
X164745868Y-67741112D01*
X164709989Y-67715887D01*
X164663280Y-67705573D01*
X164618151Y-67715396D01*
X164580680Y-67743805D01*
X164556943Y-67789253D01*
X164548675Y-67828497D01*
X164544976Y-67893705D01*
X164418291Y-67893705D01*
X164418049Y-67879621D01*
X164420844Y-67815116D01*
X164427366Y-67759121D01*
X164437432Y-67719842D01*
X164460877Y-67675372D01*
X164510637Y-67620692D01*
X164574238Y-67586055D01*
X164649790Y-67572345D01*
X164735399Y-67580448D01*
X164749644Y-67583899D01*
X164815982Y-67613664D01*
X164865971Y-67662530D01*
X164899612Y-67730501D01*
X164916906Y-67817580D01*
X164917410Y-67873766D01*
X164917857Y-67923771D01*
G37*
X165017997Y-68719130D02*
X165034997Y-68769850D01*
X165055107Y-68825997D01*
X165071899Y-68868532D01*
X165083986Y-68893990D01*
X165089980Y-68898903D01*
X165091426Y-68894630D01*
X165099254Y-68868422D01*
X165111723Y-68824649D01*
X165127447Y-68768211D01*
X165145043Y-68704010D01*
X165192914Y-68527971D01*
X165266007Y-68524152D01*
X165272177Y-68523846D01*
X165311592Y-68523441D01*
X165330533Y-68527487D01*
X165332945Y-68536726D01*
X165329898Y-68545749D01*
X165319874Y-68576632D01*
X165304180Y-68625544D01*
X165283934Y-68688987D01*
X165260256Y-68763462D01*
X165234263Y-68845471D01*
X165141736Y-69137822D01*
X165025993Y-69137822D01*
X164971457Y-68952352D01*
X164961386Y-68918294D01*
X164942775Y-68856378D01*
X164926872Y-68804787D01*
X164915109Y-68768130D01*
X164908918Y-68751018D01*
X164907154Y-68749741D01*
X164898571Y-68760779D01*
X164886316Y-68789969D01*
X164872426Y-68832750D01*
X164871692Y-68835263D01*
X164853096Y-68898400D01*
X164831818Y-68969889D01*
X164812321Y-69034734D01*
X164780705Y-69139122D01*
X164722402Y-69135328D01*
X164664098Y-69131535D01*
X164610098Y-68961782D01*
X164586390Y-68887193D01*
X164559833Y-68803539D01*
X164534404Y-68723342D01*
X164513354Y-68656857D01*
X164470609Y-68521683D01*
X164613612Y-68521683D01*
X164648274Y-68650570D01*
X164657488Y-68684625D01*
X164674915Y-68748115D01*
X164691054Y-68805874D01*
X164703322Y-68848614D01*
X164723709Y-68917773D01*
X164853745Y-68527971D01*
X164903476Y-68524237D01*
X164953206Y-68520504D01*
X165017997Y-68719130D01*
G36*
X165017997Y-68719130D02*
G01*
X165034997Y-68769850D01*
X165055107Y-68825997D01*
X165071899Y-68868532D01*
X165083986Y-68893990D01*
X165089980Y-68898903D01*
X165091426Y-68894630D01*
X165099254Y-68868422D01*
X165111723Y-68824649D01*
X165127447Y-68768211D01*
X165145043Y-68704010D01*
X165192914Y-68527971D01*
X165266007Y-68524152D01*
X165272177Y-68523846D01*
X165311592Y-68523441D01*
X165330533Y-68527487D01*
X165332945Y-68536726D01*
X165329898Y-68545749D01*
X165319874Y-68576632D01*
X165304180Y-68625544D01*
X165283934Y-68688987D01*
X165260256Y-68763462D01*
X165234263Y-68845471D01*
X165141736Y-69137822D01*
X165025993Y-69137822D01*
X164971457Y-68952352D01*
X164961386Y-68918294D01*
X164942775Y-68856378D01*
X164926872Y-68804787D01*
X164915109Y-68768130D01*
X164908918Y-68751018D01*
X164907154Y-68749741D01*
X164898571Y-68760779D01*
X164886316Y-68789969D01*
X164872426Y-68832750D01*
X164871692Y-68835263D01*
X164853096Y-68898400D01*
X164831818Y-68969889D01*
X164812321Y-69034734D01*
X164780705Y-69139122D01*
X164722402Y-69135328D01*
X164664098Y-69131535D01*
X164610098Y-68961782D01*
X164586390Y-68887193D01*
X164559833Y-68803539D01*
X164534404Y-68723342D01*
X164513354Y-68656857D01*
X164470609Y-68521683D01*
X164613612Y-68521683D01*
X164648274Y-68650570D01*
X164657488Y-68684625D01*
X164674915Y-68748115D01*
X164691054Y-68805874D01*
X164703322Y-68848614D01*
X164723709Y-68917773D01*
X164853745Y-68527971D01*
X164903476Y-68524237D01*
X164953206Y-68520504D01*
X165017997Y-68719130D01*
G37*
X165875761Y-68876813D02*
X165874167Y-68930571D01*
X165870962Y-68968018D01*
X165870413Y-68971450D01*
X165848838Y-69032835D01*
X165809438Y-69084877D01*
X165757752Y-69120135D01*
X165702248Y-69134729D01*
X165633977Y-69133597D01*
X165571173Y-69114029D01*
X165554815Y-69105771D01*
X165533779Y-69096923D01*
X165525774Y-69099676D01*
X165524505Y-69114029D01*
X165523922Y-69121186D01*
X165516394Y-69131772D01*
X165495488Y-69136645D01*
X165455346Y-69137822D01*
X165386188Y-69137822D01*
X165386188Y-68835930D01*
X165524505Y-68835930D01*
X165525496Y-68888230D01*
X165529519Y-68923050D01*
X165538108Y-68946905D01*
X165552797Y-68966895D01*
X165591584Y-68996618D01*
X165636974Y-69006582D01*
X165680989Y-68994260D01*
X165718060Y-68959888D01*
X165727859Y-68934735D01*
X165735097Y-68890194D01*
X165738279Y-68836155D01*
X165737277Y-68780728D01*
X165731961Y-68732022D01*
X165722204Y-68698148D01*
X165719087Y-68692593D01*
X165689038Y-68664674D01*
X165648315Y-68652306D01*
X165604579Y-68655183D01*
X165565491Y-68673000D01*
X165538710Y-68705452D01*
X165537603Y-68708181D01*
X165530963Y-68738634D01*
X165526278Y-68784139D01*
X165524505Y-68835930D01*
X165386188Y-68835930D01*
X165386188Y-68282773D01*
X165524505Y-68282773D01*
X165524505Y-68575878D01*
X165550124Y-68552693D01*
X165574792Y-68538282D01*
X165621480Y-68526236D01*
X165676056Y-68522354D01*
X165729354Y-68527120D01*
X165772207Y-68541014D01*
X165802878Y-68560779D01*
X165834471Y-68594449D01*
X165855733Y-68639730D01*
X165868514Y-68700981D01*
X165874664Y-68782563D01*
X165875568Y-68815540D01*
X165875633Y-68836155D01*
X165875761Y-68876813D01*
G36*
X165875761Y-68876813D02*
G01*
X165874167Y-68930571D01*
X165870962Y-68968018D01*
X165870413Y-68971450D01*
X165848838Y-69032835D01*
X165809438Y-69084877D01*
X165757752Y-69120135D01*
X165702248Y-69134729D01*
X165633977Y-69133597D01*
X165571173Y-69114029D01*
X165554815Y-69105771D01*
X165533779Y-69096923D01*
X165525774Y-69099676D01*
X165524505Y-69114029D01*
X165523922Y-69121186D01*
X165516394Y-69131772D01*
X165495488Y-69136645D01*
X165455346Y-69137822D01*
X165386188Y-69137822D01*
X165386188Y-68835930D01*
X165524505Y-68835930D01*
X165525496Y-68888230D01*
X165529519Y-68923050D01*
X165538108Y-68946905D01*
X165552797Y-68966895D01*
X165591584Y-68996618D01*
X165636974Y-69006582D01*
X165680989Y-68994260D01*
X165718060Y-68959888D01*
X165727859Y-68934735D01*
X165735097Y-68890194D01*
X165738279Y-68836155D01*
X165737277Y-68780728D01*
X165731961Y-68732022D01*
X165722204Y-68698148D01*
X165719087Y-68692593D01*
X165689038Y-68664674D01*
X165648315Y-68652306D01*
X165604579Y-68655183D01*
X165565491Y-68673000D01*
X165538710Y-68705452D01*
X165537603Y-68708181D01*
X165530963Y-68738634D01*
X165526278Y-68784139D01*
X165524505Y-68835930D01*
X165386188Y-68835930D01*
X165386188Y-68282773D01*
X165524505Y-68282773D01*
X165524505Y-68575878D01*
X165550124Y-68552693D01*
X165574792Y-68538282D01*
X165621480Y-68526236D01*
X165676056Y-68522354D01*
X165729354Y-68527120D01*
X165772207Y-68541014D01*
X165802878Y-68560779D01*
X165834471Y-68594449D01*
X165855733Y-68639730D01*
X165868514Y-68700981D01*
X165874664Y-68782563D01*
X165875568Y-68815540D01*
X165875633Y-68836155D01*
X165875761Y-68876813D01*
G37*
X168049997Y-67914931D02*
X168048373Y-67954310D01*
X168044688Y-68002332D01*
X168038410Y-68036368D01*
X168028044Y-68063338D01*
X168012092Y-68090158D01*
X168011412Y-68091175D01*
X167972132Y-68134629D01*
X167924072Y-68167772D01*
X167868185Y-68187439D01*
X167794666Y-68193824D01*
X167722609Y-68181268D01*
X167658201Y-68151011D01*
X167607627Y-68104294D01*
X167593108Y-68082221D01*
X167565993Y-68013602D01*
X167552546Y-67928939D01*
X167552776Y-67907523D01*
X167687920Y-67907523D01*
X167688174Y-67947574D01*
X167692421Y-67974313D01*
X167702096Y-67994859D01*
X167718638Y-68016331D01*
X167741593Y-68037639D01*
X167787505Y-68056653D01*
X167836802Y-68053122D01*
X167883917Y-68026694D01*
X167897207Y-68014072D01*
X167911397Y-67992465D01*
X167919266Y-67962094D01*
X167923726Y-67914770D01*
X167924955Y-67879219D01*
X167918224Y-67806620D01*
X167897567Y-67754642D01*
X167862894Y-67722999D01*
X167822249Y-67707847D01*
X167773777Y-67709123D01*
X167728845Y-67734703D01*
X167718103Y-67744442D01*
X167704548Y-67761480D01*
X167696505Y-67783772D01*
X167692043Y-67817947D01*
X167689228Y-67870638D01*
X167687920Y-67907523D01*
X167552776Y-67907523D01*
X167553583Y-67832351D01*
X167554907Y-67818651D01*
X167573374Y-67730908D01*
X167607540Y-67662793D01*
X167657479Y-67614231D01*
X167723261Y-67585148D01*
X167804961Y-67575471D01*
X167835828Y-67576379D01*
X167899128Y-67587493D01*
X167950889Y-67614021D01*
X167999147Y-67659436D01*
X168006865Y-67668551D01*
X168027681Y-67699248D01*
X168041362Y-67734007D01*
X168048948Y-67778056D01*
X168051479Y-67836621D01*
X168050672Y-67879219D01*
X168049997Y-67914931D01*
G36*
X168049997Y-67914931D02*
G01*
X168048373Y-67954310D01*
X168044688Y-68002332D01*
X168038410Y-68036368D01*
X168028044Y-68063338D01*
X168012092Y-68090158D01*
X168011412Y-68091175D01*
X167972132Y-68134629D01*
X167924072Y-68167772D01*
X167868185Y-68187439D01*
X167794666Y-68193824D01*
X167722609Y-68181268D01*
X167658201Y-68151011D01*
X167607627Y-68104294D01*
X167593108Y-68082221D01*
X167565993Y-68013602D01*
X167552546Y-67928939D01*
X167552776Y-67907523D01*
X167687920Y-67907523D01*
X167688174Y-67947574D01*
X167692421Y-67974313D01*
X167702096Y-67994859D01*
X167718638Y-68016331D01*
X167741593Y-68037639D01*
X167787505Y-68056653D01*
X167836802Y-68053122D01*
X167883917Y-68026694D01*
X167897207Y-68014072D01*
X167911397Y-67992465D01*
X167919266Y-67962094D01*
X167923726Y-67914770D01*
X167924955Y-67879219D01*
X167918224Y-67806620D01*
X167897567Y-67754642D01*
X167862894Y-67722999D01*
X167822249Y-67707847D01*
X167773777Y-67709123D01*
X167728845Y-67734703D01*
X167718103Y-67744442D01*
X167704548Y-67761480D01*
X167696505Y-67783772D01*
X167692043Y-67817947D01*
X167689228Y-67870638D01*
X167687920Y-67907523D01*
X167552776Y-67907523D01*
X167553583Y-67832351D01*
X167554907Y-67818651D01*
X167573374Y-67730908D01*
X167607540Y-67662793D01*
X167657479Y-67614231D01*
X167723261Y-67585148D01*
X167804961Y-67575471D01*
X167835828Y-67576379D01*
X167899128Y-67587493D01*
X167950889Y-67614021D01*
X167999147Y-67659436D01*
X168006865Y-67668551D01*
X168027681Y-67699248D01*
X168041362Y-67734007D01*
X168048948Y-67778056D01*
X168051479Y-67836621D01*
X168050672Y-67879219D01*
X168049997Y-67914931D01*
G37*
X162804444Y-67839878D02*
X162802825Y-67936121D01*
X162802615Y-67938014D01*
X162784535Y-68026325D01*
X162751870Y-68094986D01*
X162703601Y-68145506D01*
X162638713Y-68179393D01*
X162626801Y-68183268D01*
X162552971Y-68194688D01*
X162476614Y-68188320D01*
X162405626Y-68165563D01*
X162347904Y-68127819D01*
X162304667Y-68087872D01*
X162350625Y-68051532D01*
X162396583Y-68015193D01*
X162451969Y-68042101D01*
X162516056Y-68063905D01*
X162572632Y-68064558D01*
X162618920Y-68044525D01*
X162652230Y-68004315D01*
X162664171Y-67980222D01*
X162670837Y-67959630D01*
X162666980Y-67945720D01*
X162649675Y-67937181D01*
X162615997Y-67932704D01*
X162563021Y-67930978D01*
X162487822Y-67930693D01*
X162305495Y-67930693D01*
X162305495Y-67843492D01*
X162306857Y-67805210D01*
X162435234Y-67805210D01*
X162441399Y-67812251D01*
X162459654Y-67815916D01*
X162494352Y-67817306D01*
X162549846Y-67817525D01*
X162579603Y-67817176D01*
X162626562Y-67814867D01*
X162658416Y-67810822D01*
X162670148Y-67805542D01*
X162667146Y-67786062D01*
X162645988Y-67748786D01*
X162610731Y-67718164D01*
X162568699Y-67699668D01*
X162527220Y-67698773D01*
X162495997Y-67713604D01*
X162460618Y-67747355D01*
X162438122Y-67789233D01*
X162436805Y-67793690D01*
X162435234Y-67805210D01*
X162306857Y-67805210D01*
X162307136Y-67797371D01*
X162311955Y-67751740D01*
X162318840Y-67720893D01*
X162323859Y-67709117D01*
X162360390Y-67656667D01*
X162413175Y-67612921D01*
X162474904Y-67584279D01*
X162507102Y-67576457D01*
X162583820Y-67572896D01*
X162652179Y-67591009D01*
X162710299Y-67628779D01*
X162756302Y-67684191D01*
X162788310Y-67755229D01*
X162797900Y-67805542D01*
X162804444Y-67839878D01*
G36*
X162804444Y-67839878D02*
G01*
X162802825Y-67936121D01*
X162802615Y-67938014D01*
X162784535Y-68026325D01*
X162751870Y-68094986D01*
X162703601Y-68145506D01*
X162638713Y-68179393D01*
X162626801Y-68183268D01*
X162552971Y-68194688D01*
X162476614Y-68188320D01*
X162405626Y-68165563D01*
X162347904Y-68127819D01*
X162304667Y-68087872D01*
X162350625Y-68051532D01*
X162396583Y-68015193D01*
X162451969Y-68042101D01*
X162516056Y-68063905D01*
X162572632Y-68064558D01*
X162618920Y-68044525D01*
X162652230Y-68004315D01*
X162664171Y-67980222D01*
X162670837Y-67959630D01*
X162666980Y-67945720D01*
X162649675Y-67937181D01*
X162615997Y-67932704D01*
X162563021Y-67930978D01*
X162487822Y-67930693D01*
X162305495Y-67930693D01*
X162305495Y-67843492D01*
X162306857Y-67805210D01*
X162435234Y-67805210D01*
X162441399Y-67812251D01*
X162459654Y-67815916D01*
X162494352Y-67817306D01*
X162549846Y-67817525D01*
X162579603Y-67817176D01*
X162626562Y-67814867D01*
X162658416Y-67810822D01*
X162670148Y-67805542D01*
X162667146Y-67786062D01*
X162645988Y-67748786D01*
X162610731Y-67718164D01*
X162568699Y-67699668D01*
X162527220Y-67698773D01*
X162495997Y-67713604D01*
X162460618Y-67747355D01*
X162438122Y-67789233D01*
X162436805Y-67793690D01*
X162435234Y-67805210D01*
X162306857Y-67805210D01*
X162307136Y-67797371D01*
X162311955Y-67751740D01*
X162318840Y-67720893D01*
X162323859Y-67709117D01*
X162360390Y-67656667D01*
X162413175Y-67612921D01*
X162474904Y-67584279D01*
X162507102Y-67576457D01*
X162583820Y-67572896D01*
X162652179Y-67591009D01*
X162710299Y-67628779D01*
X162756302Y-67684191D01*
X162788310Y-67755229D01*
X162797900Y-67805542D01*
X162804444Y-67839878D01*
G37*
X165283874Y-67578207D02*
X165356495Y-67596408D01*
X165409546Y-67630144D01*
X165443329Y-67679642D01*
X165458147Y-67745126D01*
X165455147Y-67807820D01*
X165433493Y-67860699D01*
X165391967Y-67899796D01*
X165329736Y-67925873D01*
X165245969Y-67939695D01*
X165191540Y-67946940D01*
X165141860Y-67962615D01*
X165116211Y-67985314D01*
X165114662Y-68014998D01*
X165124984Y-68033507D01*
X165156951Y-68055443D01*
X165202395Y-68065818D01*
X165255649Y-68064399D01*
X165311048Y-68050952D01*
X165362928Y-68025243D01*
X165414653Y-67991013D01*
X165460148Y-68037049D01*
X165505643Y-68083084D01*
X165467921Y-68113876D01*
X165453253Y-68124574D01*
X165411983Y-68148880D01*
X165367327Y-68169825D01*
X165331984Y-68181845D01*
X165280234Y-68190552D01*
X165216435Y-68190667D01*
X165138200Y-68181081D01*
X165067722Y-68156783D01*
X165017836Y-68118188D01*
X164988423Y-68065198D01*
X164979365Y-67997718D01*
X164985921Y-67938354D01*
X165006970Y-67889752D01*
X165044864Y-67854946D01*
X165102004Y-67831798D01*
X165180785Y-67818170D01*
X165189834Y-67817183D01*
X165238885Y-67810892D01*
X165278675Y-67804309D01*
X165301312Y-67798708D01*
X165308866Y-67794197D01*
X165321637Y-67770941D01*
X165319563Y-67741171D01*
X165302495Y-67715327D01*
X165293533Y-67709691D01*
X165256188Y-67700660D01*
X165207950Y-67701267D01*
X165157650Y-67710878D01*
X165114115Y-67728858D01*
X165068372Y-67755847D01*
X165032890Y-67714384D01*
X165024280Y-67703850D01*
X165004883Y-67675632D01*
X164996897Y-67656508D01*
X165005283Y-67644781D01*
X165031226Y-67626476D01*
X165068688Y-67606777D01*
X165073966Y-67604370D01*
X165123366Y-67585482D01*
X165170983Y-67576452D01*
X165230072Y-67574639D01*
X165283874Y-67578207D01*
G36*
X165283874Y-67578207D02*
G01*
X165356495Y-67596408D01*
X165409546Y-67630144D01*
X165443329Y-67679642D01*
X165458147Y-67745126D01*
X165455147Y-67807820D01*
X165433493Y-67860699D01*
X165391967Y-67899796D01*
X165329736Y-67925873D01*
X165245969Y-67939695D01*
X165191540Y-67946940D01*
X165141860Y-67962615D01*
X165116211Y-67985314D01*
X165114662Y-68014998D01*
X165124984Y-68033507D01*
X165156951Y-68055443D01*
X165202395Y-68065818D01*
X165255649Y-68064399D01*
X165311048Y-68050952D01*
X165362928Y-68025243D01*
X165414653Y-67991013D01*
X165460148Y-68037049D01*
X165505643Y-68083084D01*
X165467921Y-68113876D01*
X165453253Y-68124574D01*
X165411983Y-68148880D01*
X165367327Y-68169825D01*
X165331984Y-68181845D01*
X165280234Y-68190552D01*
X165216435Y-68190667D01*
X165138200Y-68181081D01*
X165067722Y-68156783D01*
X165017836Y-68118188D01*
X164988423Y-68065198D01*
X164979365Y-67997718D01*
X164985921Y-67938354D01*
X165006970Y-67889752D01*
X165044864Y-67854946D01*
X165102004Y-67831798D01*
X165180785Y-67818170D01*
X165189834Y-67817183D01*
X165238885Y-67810892D01*
X165278675Y-67804309D01*
X165301312Y-67798708D01*
X165308866Y-67794197D01*
X165321637Y-67770941D01*
X165319563Y-67741171D01*
X165302495Y-67715327D01*
X165293533Y-67709691D01*
X165256188Y-67700660D01*
X165207950Y-67701267D01*
X165157650Y-67710878D01*
X165114115Y-67728858D01*
X165068372Y-67755847D01*
X165032890Y-67714384D01*
X165024280Y-67703850D01*
X165004883Y-67675632D01*
X164996897Y-67656508D01*
X165005283Y-67644781D01*
X165031226Y-67626476D01*
X165068688Y-67606777D01*
X165073966Y-67604370D01*
X165123366Y-67585482D01*
X165170983Y-67576452D01*
X165230072Y-67574639D01*
X165283874Y-67578207D01*
G37*
X163449353Y-68829753D02*
X163447718Y-68876692D01*
X163432827Y-68966459D01*
X163402185Y-69037045D01*
X163355524Y-69088952D01*
X163292574Y-69122686D01*
X163272235Y-69128647D01*
X163199612Y-69136971D01*
X163122928Y-69129946D01*
X163053663Y-69108265D01*
X163029262Y-69095959D01*
X162994275Y-69074879D01*
X162973072Y-69057534D01*
X162969942Y-69053571D01*
X162964085Y-69039077D01*
X162972524Y-69023321D01*
X162998221Y-68999460D01*
X163010622Y-68989072D01*
X163035052Y-68970063D01*
X163047861Y-68962293D01*
X163051530Y-68963094D01*
X163072561Y-68971745D01*
X163103960Y-68986931D01*
X163114197Y-68991926D01*
X163174590Y-69010475D01*
X163227057Y-69005694D01*
X163273065Y-68977500D01*
X163278419Y-68972291D01*
X163304013Y-68939659D01*
X163318637Y-68908342D01*
X163326736Y-68873763D01*
X162946782Y-68873763D01*
X162946852Y-68807748D01*
X162946892Y-68801182D01*
X162952022Y-68748218D01*
X163085099Y-68748218D01*
X163086670Y-68759203D01*
X163094738Y-68766773D01*
X163113967Y-68770975D01*
X163149019Y-68772783D01*
X163204554Y-68773169D01*
X163235429Y-68772768D01*
X163281002Y-68770429D01*
X163312348Y-68766465D01*
X163324010Y-68761413D01*
X163314064Y-68719827D01*
X163284947Y-68681013D01*
X163242952Y-68654086D01*
X163194440Y-68644772D01*
X163158723Y-68655272D01*
X163123020Y-68680940D01*
X163095879Y-68714381D01*
X163085099Y-68748218D01*
X162952022Y-68748218D01*
X162954758Y-68719965D01*
X162977655Y-68653895D01*
X163017607Y-68596940D01*
X163041979Y-68572848D01*
X163092315Y-68540597D01*
X163152419Y-68524970D01*
X163228338Y-68523871D01*
X163265010Y-68528179D01*
X163332703Y-68550549D01*
X163384530Y-68591263D01*
X163420945Y-68650949D01*
X163442401Y-68730236D01*
X163444579Y-68761413D01*
X163449353Y-68829753D01*
G36*
X163449353Y-68829753D02*
G01*
X163447718Y-68876692D01*
X163432827Y-68966459D01*
X163402185Y-69037045D01*
X163355524Y-69088952D01*
X163292574Y-69122686D01*
X163272235Y-69128647D01*
X163199612Y-69136971D01*
X163122928Y-69129946D01*
X163053663Y-69108265D01*
X163029262Y-69095959D01*
X162994275Y-69074879D01*
X162973072Y-69057534D01*
X162969942Y-69053571D01*
X162964085Y-69039077D01*
X162972524Y-69023321D01*
X162998221Y-68999460D01*
X163010622Y-68989072D01*
X163035052Y-68970063D01*
X163047861Y-68962293D01*
X163051530Y-68963094D01*
X163072561Y-68971745D01*
X163103960Y-68986931D01*
X163114197Y-68991926D01*
X163174590Y-69010475D01*
X163227057Y-69005694D01*
X163273065Y-68977500D01*
X163278419Y-68972291D01*
X163304013Y-68939659D01*
X163318637Y-68908342D01*
X163326736Y-68873763D01*
X162946782Y-68873763D01*
X162946852Y-68807748D01*
X162946892Y-68801182D01*
X162952022Y-68748218D01*
X163085099Y-68748218D01*
X163086670Y-68759203D01*
X163094738Y-68766773D01*
X163113967Y-68770975D01*
X163149019Y-68772783D01*
X163204554Y-68773169D01*
X163235429Y-68772768D01*
X163281002Y-68770429D01*
X163312348Y-68766465D01*
X163324010Y-68761413D01*
X163314064Y-68719827D01*
X163284947Y-68681013D01*
X163242952Y-68654086D01*
X163194440Y-68644772D01*
X163158723Y-68655272D01*
X163123020Y-68680940D01*
X163095879Y-68714381D01*
X163085099Y-68748218D01*
X162952022Y-68748218D01*
X162954758Y-68719965D01*
X162977655Y-68653895D01*
X163017607Y-68596940D01*
X163041979Y-68572848D01*
X163092315Y-68540597D01*
X163152419Y-68524970D01*
X163228338Y-68523871D01*
X163265010Y-68528179D01*
X163332703Y-68550549D01*
X163384530Y-68591263D01*
X163420945Y-68650949D01*
X163442401Y-68730236D01*
X163444579Y-68761413D01*
X163449353Y-68829753D01*
G37*
X166892022Y-67804861D02*
X166896421Y-67892936D01*
X166895322Y-67931371D01*
X166882926Y-68015367D01*
X166855608Y-68081595D01*
X166811941Y-68132784D01*
X166750495Y-68171663D01*
X166690888Y-68189812D01*
X166616110Y-68193284D01*
X166540664Y-68179930D01*
X166473366Y-68150425D01*
X166448428Y-68134012D01*
X166420951Y-68112973D01*
X166408414Y-68099129D01*
X166409124Y-68093417D01*
X166423158Y-68073955D01*
X166449533Y-68050376D01*
X166495240Y-68015513D01*
X166548799Y-68042262D01*
X166563282Y-68048882D01*
X166605916Y-68063273D01*
X166641649Y-68069010D01*
X166667998Y-68064282D01*
X166709347Y-68041514D01*
X166744104Y-68006170D01*
X166763983Y-67965273D01*
X166772083Y-67930693D01*
X166392129Y-67930693D01*
X166392199Y-67864679D01*
X166392774Y-67843757D01*
X166396972Y-67798862D01*
X166530445Y-67798862D01*
X166530690Y-67801434D01*
X166537604Y-67809443D01*
X166557141Y-67814364D01*
X166593467Y-67816843D01*
X166650748Y-67817525D01*
X166669575Y-67817517D01*
X166718470Y-67817065D01*
X166747863Y-67815113D01*
X166762115Y-67810558D01*
X166765582Y-67802299D01*
X166762625Y-67789233D01*
X166762173Y-67787752D01*
X166736699Y-67742285D01*
X166696539Y-67710981D01*
X166648651Y-67699327D01*
X166630949Y-67700259D01*
X166598094Y-67711408D01*
X166566575Y-67739763D01*
X166558085Y-67749789D01*
X166538336Y-67778423D01*
X166530445Y-67798862D01*
X166396972Y-67798862D01*
X166397512Y-67793091D01*
X166405459Y-67751166D01*
X166414168Y-67727696D01*
X166444790Y-67676646D01*
X166485799Y-67630283D01*
X166529168Y-67598514D01*
X166541699Y-67592614D01*
X166614661Y-67573046D01*
X166689168Y-67575109D01*
X166759217Y-67597931D01*
X166818807Y-67640639D01*
X166851038Y-67680025D01*
X166877392Y-67735510D01*
X166891482Y-67802299D01*
X166892022Y-67804861D01*
G36*
X166892022Y-67804861D02*
G01*
X166896421Y-67892936D01*
X166895322Y-67931371D01*
X166882926Y-68015367D01*
X166855608Y-68081595D01*
X166811941Y-68132784D01*
X166750495Y-68171663D01*
X166690888Y-68189812D01*
X166616110Y-68193284D01*
X166540664Y-68179930D01*
X166473366Y-68150425D01*
X166448428Y-68134012D01*
X166420951Y-68112973D01*
X166408414Y-68099129D01*
X166409124Y-68093417D01*
X166423158Y-68073955D01*
X166449533Y-68050376D01*
X166495240Y-68015513D01*
X166548799Y-68042262D01*
X166563282Y-68048882D01*
X166605916Y-68063273D01*
X166641649Y-68069010D01*
X166667998Y-68064282D01*
X166709347Y-68041514D01*
X166744104Y-68006170D01*
X166763983Y-67965273D01*
X166772083Y-67930693D01*
X166392129Y-67930693D01*
X166392199Y-67864679D01*
X166392774Y-67843757D01*
X166396972Y-67798862D01*
X166530445Y-67798862D01*
X166530690Y-67801434D01*
X166537604Y-67809443D01*
X166557141Y-67814364D01*
X166593467Y-67816843D01*
X166650748Y-67817525D01*
X166669575Y-67817517D01*
X166718470Y-67817065D01*
X166747863Y-67815113D01*
X166762115Y-67810558D01*
X166765582Y-67802299D01*
X166762625Y-67789233D01*
X166762173Y-67787752D01*
X166736699Y-67742285D01*
X166696539Y-67710981D01*
X166648651Y-67699327D01*
X166630949Y-67700259D01*
X166598094Y-67711408D01*
X166566575Y-67739763D01*
X166558085Y-67749789D01*
X166538336Y-67778423D01*
X166530445Y-67798862D01*
X166396972Y-67798862D01*
X166397512Y-67793091D01*
X166405459Y-67751166D01*
X166414168Y-67727696D01*
X166444790Y-67676646D01*
X166485799Y-67630283D01*
X166529168Y-67598514D01*
X166541699Y-67592614D01*
X166614661Y-67573046D01*
X166689168Y-67575109D01*
X166759217Y-67597931D01*
X166818807Y-67640639D01*
X166851038Y-67680025D01*
X166877392Y-67735510D01*
X166891482Y-67802299D01*
X166892022Y-67804861D01*
G37*
X164474413Y-68972333D02*
X164459244Y-69029419D01*
X164426277Y-69078255D01*
X164376270Y-69113386D01*
X164371362Y-69115521D01*
X164316646Y-69130903D01*
X164254993Y-69136899D01*
X164196376Y-69133233D01*
X164150767Y-69119629D01*
X164132549Y-69110754D01*
X164119179Y-69108637D01*
X164116188Y-69119706D01*
X164110524Y-69129942D01*
X164088607Y-69136038D01*
X164046068Y-69137822D01*
X163975948Y-69137822D01*
X163980053Y-68895768D01*
X163980492Y-68873763D01*
X164116188Y-68873763D01*
X164116188Y-68917773D01*
X164120924Y-68950666D01*
X164141336Y-68986931D01*
X164148871Y-68993597D01*
X164179753Y-69007620D01*
X164226213Y-69011228D01*
X164254090Y-69009819D01*
X164306255Y-68999204D01*
X164338587Y-68979425D01*
X164349492Y-68951824D01*
X164337374Y-68917743D01*
X164330304Y-68908824D01*
X164298724Y-68888818D01*
X164248744Y-68877395D01*
X164177487Y-68873763D01*
X164116188Y-68873763D01*
X163980492Y-68873763D01*
X163981169Y-68839794D01*
X163984106Y-68755996D01*
X163989058Y-68691920D01*
X163997002Y-68644073D01*
X164008917Y-68608962D01*
X164025780Y-68583093D01*
X164048572Y-68562974D01*
X164078269Y-68545110D01*
X164093589Y-68538290D01*
X164146589Y-68525417D01*
X164210513Y-68520095D01*
X164276602Y-68522227D01*
X164336099Y-68531714D01*
X164380247Y-68548461D01*
X164395604Y-68558185D01*
X164430960Y-68587005D01*
X164442926Y-68611137D01*
X164440020Y-68615800D01*
X164421909Y-68632088D01*
X164392672Y-68653817D01*
X164377725Y-68663987D01*
X164352270Y-68678397D01*
X164335728Y-68679773D01*
X164320370Y-68669827D01*
X164282094Y-68649684D01*
X164230590Y-68641400D01*
X164177957Y-68647742D01*
X164176961Y-68648030D01*
X164139838Y-68664158D01*
X164121463Y-68689405D01*
X164116380Y-68731158D01*
X164116188Y-68770879D01*
X164247423Y-68775168D01*
X164268331Y-68775873D01*
X164321043Y-68778326D01*
X164356381Y-68782180D01*
X164380267Y-68788878D01*
X164398624Y-68799864D01*
X164417376Y-68816580D01*
X164448337Y-68855244D01*
X164471029Y-68912456D01*
X164473254Y-68951824D01*
X164474413Y-68972333D01*
G36*
X164474413Y-68972333D02*
G01*
X164459244Y-69029419D01*
X164426277Y-69078255D01*
X164376270Y-69113386D01*
X164371362Y-69115521D01*
X164316646Y-69130903D01*
X164254993Y-69136899D01*
X164196376Y-69133233D01*
X164150767Y-69119629D01*
X164132549Y-69110754D01*
X164119179Y-69108637D01*
X164116188Y-69119706D01*
X164110524Y-69129942D01*
X164088607Y-69136038D01*
X164046068Y-69137822D01*
X163975948Y-69137822D01*
X163980053Y-68895768D01*
X163980492Y-68873763D01*
X164116188Y-68873763D01*
X164116188Y-68917773D01*
X164120924Y-68950666D01*
X164141336Y-68986931D01*
X164148871Y-68993597D01*
X164179753Y-69007620D01*
X164226213Y-69011228D01*
X164254090Y-69009819D01*
X164306255Y-68999204D01*
X164338587Y-68979425D01*
X164349492Y-68951824D01*
X164337374Y-68917743D01*
X164330304Y-68908824D01*
X164298724Y-68888818D01*
X164248744Y-68877395D01*
X164177487Y-68873763D01*
X164116188Y-68873763D01*
X163980492Y-68873763D01*
X163981169Y-68839794D01*
X163984106Y-68755996D01*
X163989058Y-68691920D01*
X163997002Y-68644073D01*
X164008917Y-68608962D01*
X164025780Y-68583093D01*
X164048572Y-68562974D01*
X164078269Y-68545110D01*
X164093589Y-68538290D01*
X164146589Y-68525417D01*
X164210513Y-68520095D01*
X164276602Y-68522227D01*
X164336099Y-68531714D01*
X164380247Y-68548461D01*
X164395604Y-68558185D01*
X164430960Y-68587005D01*
X164442926Y-68611137D01*
X164440020Y-68615800D01*
X164421909Y-68632088D01*
X164392672Y-68653817D01*
X164377725Y-68663987D01*
X164352270Y-68678397D01*
X164335728Y-68679773D01*
X164320370Y-68669827D01*
X164282094Y-68649684D01*
X164230590Y-68641400D01*
X164177957Y-68647742D01*
X164176961Y-68648030D01*
X164139838Y-68664158D01*
X164121463Y-68689405D01*
X164116380Y-68731158D01*
X164116188Y-68770879D01*
X164247423Y-68775168D01*
X164268331Y-68775873D01*
X164321043Y-68778326D01*
X164356381Y-68782180D01*
X164380267Y-68788878D01*
X164398624Y-68799864D01*
X164417376Y-68816580D01*
X164448337Y-68855244D01*
X164471029Y-68912456D01*
X164473254Y-68951824D01*
X164474413Y-68972333D01*
G37*
X166892299Y-68970223D02*
X166892157Y-68971882D01*
X166876835Y-69036479D01*
X166842753Y-69085063D01*
X166788218Y-69120072D01*
X166760036Y-69128589D01*
X166711764Y-69135228D01*
X166658978Y-69136813D01*
X166611353Y-69133160D01*
X166578566Y-69124083D01*
X166558652Y-69116813D01*
X166539155Y-69124083D01*
X166532023Y-69128295D01*
X166503557Y-69135126D01*
X166465059Y-69137822D01*
X166404703Y-69137822D01*
X166404703Y-68894484D01*
X166404707Y-68873763D01*
X166543020Y-68873763D01*
X166543020Y-68922111D01*
X166547668Y-68958904D01*
X166566015Y-68991269D01*
X166576514Y-68998274D01*
X166613988Y-69009191D01*
X166660773Y-69011917D01*
X166706652Y-69006379D01*
X166741410Y-68992505D01*
X166758726Y-68974161D01*
X166769356Y-68941566D01*
X166759929Y-68915729D01*
X166728764Y-68893263D01*
X166678667Y-68878850D01*
X166612582Y-68873763D01*
X166543020Y-68873763D01*
X166404707Y-68873763D01*
X166404707Y-68873440D01*
X166404937Y-68794122D01*
X166405797Y-68735154D01*
X166407679Y-68692616D01*
X166410974Y-68662592D01*
X166416073Y-68641163D01*
X166423366Y-68624411D01*
X166433246Y-68608419D01*
X166465023Y-68570948D01*
X166510055Y-68542339D01*
X166569210Y-68526555D01*
X166647161Y-68521703D01*
X166649695Y-68521708D01*
X166703880Y-68524155D01*
X166752380Y-68530256D01*
X166785478Y-68538809D01*
X166794552Y-68543096D01*
X166823433Y-68561248D01*
X166849568Y-68582822D01*
X166866764Y-68602236D01*
X166868825Y-68613909D01*
X166864803Y-68617063D01*
X166820976Y-68650739D01*
X166791671Y-68670600D01*
X166772294Y-68678613D01*
X166758253Y-68676746D01*
X166744957Y-68666965D01*
X166720418Y-68654756D01*
X166679064Y-68646615D01*
X166632326Y-68644503D01*
X166590034Y-68648800D01*
X166562017Y-68659887D01*
X166560543Y-68661236D01*
X166547953Y-68686581D01*
X166543020Y-68724411D01*
X166543020Y-68773169D01*
X166659331Y-68773216D01*
X166712760Y-68774061D01*
X166757735Y-68777740D01*
X166789907Y-68785309D01*
X166815899Y-68797808D01*
X166821948Y-68801647D01*
X166865710Y-68843845D01*
X166888987Y-68899647D01*
X166890955Y-68941566D01*
X166892299Y-68970223D01*
G36*
X166892299Y-68970223D02*
G01*
X166892157Y-68971882D01*
X166876835Y-69036479D01*
X166842753Y-69085063D01*
X166788218Y-69120072D01*
X166760036Y-69128589D01*
X166711764Y-69135228D01*
X166658978Y-69136813D01*
X166611353Y-69133160D01*
X166578566Y-69124083D01*
X166558652Y-69116813D01*
X166539155Y-69124083D01*
X166532023Y-69128295D01*
X166503557Y-69135126D01*
X166465059Y-69137822D01*
X166404703Y-69137822D01*
X166404703Y-68894484D01*
X166404707Y-68873763D01*
X166543020Y-68873763D01*
X166543020Y-68922111D01*
X166547668Y-68958904D01*
X166566015Y-68991269D01*
X166576514Y-68998274D01*
X166613988Y-69009191D01*
X166660773Y-69011917D01*
X166706652Y-69006379D01*
X166741410Y-68992505D01*
X166758726Y-68974161D01*
X166769356Y-68941566D01*
X166759929Y-68915729D01*
X166728764Y-68893263D01*
X166678667Y-68878850D01*
X166612582Y-68873763D01*
X166543020Y-68873763D01*
X166404707Y-68873763D01*
X166404707Y-68873440D01*
X166404937Y-68794122D01*
X166405797Y-68735154D01*
X166407679Y-68692616D01*
X166410974Y-68662592D01*
X166416073Y-68641163D01*
X166423366Y-68624411D01*
X166433246Y-68608419D01*
X166465023Y-68570948D01*
X166510055Y-68542339D01*
X166569210Y-68526555D01*
X166647161Y-68521703D01*
X166649695Y-68521708D01*
X166703880Y-68524155D01*
X166752380Y-68530256D01*
X166785478Y-68538809D01*
X166794552Y-68543096D01*
X166823433Y-68561248D01*
X166849568Y-68582822D01*
X166866764Y-68602236D01*
X166868825Y-68613909D01*
X166864803Y-68617063D01*
X166820976Y-68650739D01*
X166791671Y-68670600D01*
X166772294Y-68678613D01*
X166758253Y-68676746D01*
X166744957Y-68666965D01*
X166720418Y-68654756D01*
X166679064Y-68646615D01*
X166632326Y-68644503D01*
X166590034Y-68648800D01*
X166562017Y-68659887D01*
X166560543Y-68661236D01*
X166547953Y-68686581D01*
X166543020Y-68724411D01*
X166543020Y-68773169D01*
X166659331Y-68773216D01*
X166712760Y-68774061D01*
X166757735Y-68777740D01*
X166789907Y-68785309D01*
X166815899Y-68797808D01*
X166821948Y-68801647D01*
X166865710Y-68843845D01*
X166888987Y-68899647D01*
X166890955Y-68941566D01*
X166892299Y-68970223D01*
G37*
X167460940Y-69139136D02*
X167394926Y-69135336D01*
X167328911Y-69131535D01*
X167325772Y-68930347D01*
X167324844Y-68881425D01*
X167322208Y-68807926D01*
X167317683Y-68753991D01*
X167310438Y-68715995D01*
X167299642Y-68690313D01*
X167284462Y-68673320D01*
X167264066Y-68661389D01*
X167225797Y-68649205D01*
X167187738Y-68653940D01*
X167147549Y-68679979D01*
X167108861Y-68712533D01*
X167108861Y-69137822D01*
X166970544Y-69137822D01*
X166970544Y-68907176D01*
X166970677Y-68834882D01*
X166971413Y-68770641D01*
X166973181Y-68723618D01*
X166976411Y-68689548D01*
X166981530Y-68664170D01*
X166988967Y-68643221D01*
X166999150Y-68622436D01*
X167001564Y-68618024D01*
X167033675Y-68575047D01*
X167071256Y-68545013D01*
X167116564Y-68529243D01*
X167176561Y-68522222D01*
X167236643Y-68526025D01*
X167285525Y-68540868D01*
X167322624Y-68560052D01*
X167322624Y-68144859D01*
X167271792Y-68171354D01*
X167250558Y-68180980D01*
X167183536Y-68194592D01*
X167116930Y-68185184D01*
X167055187Y-68153905D01*
X167002757Y-68101902D01*
X166994543Y-68089680D01*
X166986649Y-68071763D01*
X166981500Y-68047404D01*
X166978527Y-68011927D01*
X166977161Y-67960656D01*
X166976915Y-67907236D01*
X167109749Y-67907236D01*
X167109861Y-67951849D01*
X167113272Y-67981601D01*
X167120937Y-68002835D01*
X167133814Y-68021896D01*
X167150171Y-68039617D01*
X167176329Y-68053028D01*
X167215742Y-68056436D01*
X167250559Y-68053471D01*
X167285020Y-68038631D01*
X167307215Y-68008569D01*
X167319097Y-67960254D01*
X167322624Y-67890650D01*
X167321712Y-67853624D01*
X167312609Y-67783728D01*
X167293828Y-67736464D01*
X167265476Y-67712168D01*
X167236840Y-67705332D01*
X167186970Y-67708537D01*
X167144833Y-67728380D01*
X167134749Y-67737480D01*
X167124063Y-67753223D01*
X167117456Y-67776658D01*
X167113532Y-67813604D01*
X167110897Y-67869880D01*
X167109749Y-67907236D01*
X166976915Y-67907236D01*
X166976831Y-67888917D01*
X166976944Y-67856184D01*
X166978872Y-67780044D01*
X166984240Y-67723166D01*
X166994406Y-67681249D01*
X167010725Y-67649996D01*
X167034553Y-67625106D01*
X167067247Y-67602282D01*
X167093759Y-67589184D01*
X167156615Y-67574739D01*
X167222869Y-67576707D01*
X167281757Y-67595433D01*
X167307030Y-67607673D01*
X167319742Y-67608938D01*
X167322624Y-67597798D01*
X167322626Y-67597461D01*
X167328838Y-67586087D01*
X167350260Y-67580256D01*
X167391782Y-67578614D01*
X167460940Y-67578614D01*
X167460940Y-67890650D01*
X167460940Y-69139136D01*
G36*
X167460940Y-69139136D02*
G01*
X167394926Y-69135336D01*
X167328911Y-69131535D01*
X167325772Y-68930347D01*
X167324844Y-68881425D01*
X167322208Y-68807926D01*
X167317683Y-68753991D01*
X167310438Y-68715995D01*
X167299642Y-68690313D01*
X167284462Y-68673320D01*
X167264066Y-68661389D01*
X167225797Y-68649205D01*
X167187738Y-68653940D01*
X167147549Y-68679979D01*
X167108861Y-68712533D01*
X167108861Y-69137822D01*
X166970544Y-69137822D01*
X166970544Y-68907176D01*
X166970677Y-68834882D01*
X166971413Y-68770641D01*
X166973181Y-68723618D01*
X166976411Y-68689548D01*
X166981530Y-68664170D01*
X166988967Y-68643221D01*
X166999150Y-68622436D01*
X167001564Y-68618024D01*
X167033675Y-68575047D01*
X167071256Y-68545013D01*
X167116564Y-68529243D01*
X167176561Y-68522222D01*
X167236643Y-68526025D01*
X167285525Y-68540868D01*
X167322624Y-68560052D01*
X167322624Y-68144859D01*
X167271792Y-68171354D01*
X167250558Y-68180980D01*
X167183536Y-68194592D01*
X167116930Y-68185184D01*
X167055187Y-68153905D01*
X167002757Y-68101902D01*
X166994543Y-68089680D01*
X166986649Y-68071763D01*
X166981500Y-68047404D01*
X166978527Y-68011927D01*
X166977161Y-67960656D01*
X166976915Y-67907236D01*
X167109749Y-67907236D01*
X167109861Y-67951849D01*
X167113272Y-67981601D01*
X167120937Y-68002835D01*
X167133814Y-68021896D01*
X167150171Y-68039617D01*
X167176329Y-68053028D01*
X167215742Y-68056436D01*
X167250559Y-68053471D01*
X167285020Y-68038631D01*
X167307215Y-68008569D01*
X167319097Y-67960254D01*
X167322624Y-67890650D01*
X167321712Y-67853624D01*
X167312609Y-67783728D01*
X167293828Y-67736464D01*
X167265476Y-67712168D01*
X167236840Y-67705332D01*
X167186970Y-67708537D01*
X167144833Y-67728380D01*
X167134749Y-67737480D01*
X167124063Y-67753223D01*
X167117456Y-67776658D01*
X167113532Y-67813604D01*
X167110897Y-67869880D01*
X167109749Y-67907236D01*
X166976915Y-67907236D01*
X166976831Y-67888917D01*
X166976944Y-67856184D01*
X166978872Y-67780044D01*
X166984240Y-67723166D01*
X166994406Y-67681249D01*
X167010725Y-67649996D01*
X167034553Y-67625106D01*
X167067247Y-67602282D01*
X167093759Y-67589184D01*
X167156615Y-67574739D01*
X167222869Y-67576707D01*
X167281757Y-67595433D01*
X167307030Y-67607673D01*
X167319742Y-67608938D01*
X167322624Y-67597798D01*
X167322626Y-67597461D01*
X167328838Y-67586087D01*
X167350260Y-67580256D01*
X167391782Y-67578614D01*
X167460940Y-67578614D01*
X167460940Y-67890650D01*
X167460940Y-69139136D01*
G37*
X165549389Y-63410018D02*
X165606237Y-63711570D01*
X165816001Y-63798041D01*
X166025764Y-63884512D01*
X166277410Y-63713395D01*
X166327216Y-63679661D01*
X166393244Y-63635381D01*
X166450410Y-63597561D01*
X166495744Y-63568142D01*
X166526280Y-63549067D01*
X166539046Y-63542278D01*
X166546887Y-63547106D01*
X166570325Y-63567339D01*
X166605794Y-63600543D01*
X166650289Y-63643670D01*
X166700805Y-63693670D01*
X166754336Y-63747495D01*
X166807877Y-63802095D01*
X166858423Y-63854423D01*
X166902968Y-63901428D01*
X166938507Y-63940063D01*
X166962034Y-63967278D01*
X166970544Y-63980024D01*
X166968565Y-63985500D01*
X166954857Y-64009927D01*
X166929825Y-64050129D01*
X166895499Y-64102952D01*
X166853907Y-64165247D01*
X166807079Y-64233862D01*
X166781380Y-64271283D01*
X166737173Y-64336432D01*
X166699272Y-64393289D01*
X166669698Y-64438770D01*
X166650472Y-64469793D01*
X166643614Y-64483274D01*
X166643726Y-64484021D01*
X166649776Y-64501110D01*
X166663654Y-64536006D01*
X166683427Y-64584151D01*
X166707160Y-64640986D01*
X166732918Y-64701953D01*
X166758766Y-64762492D01*
X166782771Y-64818047D01*
X166802998Y-64864057D01*
X166817511Y-64895965D01*
X166824377Y-64909212D01*
X166828439Y-64910387D01*
X166853121Y-64915687D01*
X166897111Y-64924467D01*
X166956887Y-64936040D01*
X167028929Y-64949721D01*
X167109716Y-64964823D01*
X167152294Y-64972830D01*
X167230445Y-64988107D01*
X167298775Y-65002215D01*
X167353551Y-65014345D01*
X167391037Y-65023686D01*
X167407500Y-65029427D01*
X167410457Y-65035119D01*
X167415362Y-65062930D01*
X167419216Y-65109250D01*
X167422021Y-65169720D01*
X167423781Y-65239983D01*
X167424499Y-65315680D01*
X167424177Y-65392453D01*
X167422819Y-65465944D01*
X167420428Y-65531794D01*
X167417006Y-65585645D01*
X167412556Y-65623138D01*
X167407082Y-65639916D01*
X167403760Y-65641809D01*
X167378987Y-65649926D01*
X167336011Y-65660666D01*
X167279802Y-65672853D01*
X167215325Y-65685310D01*
X167193570Y-65689277D01*
X167093093Y-65707729D01*
X167014126Y-65722559D01*
X166953934Y-65734380D01*
X166909778Y-65743809D01*
X166878920Y-65751460D01*
X166858625Y-65757948D01*
X166846154Y-65763888D01*
X166838771Y-65769894D01*
X166837913Y-65770902D01*
X166825838Y-65791919D01*
X166807971Y-65830376D01*
X166786042Y-65881761D01*
X166761784Y-65941563D01*
X166736927Y-66005270D01*
X166713205Y-66068371D01*
X166692347Y-66126355D01*
X166676087Y-66174709D01*
X166666156Y-66208922D01*
X166664285Y-66224483D01*
X166665536Y-66226502D01*
X166678486Y-66246028D01*
X166702840Y-66282042D01*
X166736340Y-66331228D01*
X166776727Y-66390267D01*
X166821745Y-66455842D01*
X166834100Y-66473884D01*
X166877545Y-66538599D01*
X166915091Y-66596476D01*
X166944594Y-66644082D01*
X166963914Y-66677985D01*
X166970905Y-66694752D01*
X166969398Y-66699161D01*
X166953695Y-66720882D01*
X166922714Y-66756354D01*
X166878673Y-66803188D01*
X166823790Y-66858996D01*
X166760286Y-66921392D01*
X166723988Y-66956317D01*
X166666595Y-67010711D01*
X166616361Y-67057302D01*
X166575984Y-67093636D01*
X166548161Y-67117261D01*
X166535590Y-67125724D01*
X166526952Y-67122587D01*
X166500360Y-67107747D01*
X166461741Y-67083477D01*
X166416134Y-67052852D01*
X166383707Y-67030503D01*
X166318970Y-66986122D01*
X166249886Y-66938987D01*
X166186787Y-66896155D01*
X166063178Y-66812547D01*
X165959417Y-66868650D01*
X165934984Y-66881599D01*
X165890552Y-66903749D01*
X165856191Y-66919041D01*
X165837828Y-66924743D01*
X165831818Y-66917421D01*
X165816895Y-66889541D01*
X165794852Y-66843575D01*
X165766917Y-66782441D01*
X165734317Y-66709055D01*
X165698276Y-66626335D01*
X165660023Y-66537197D01*
X165620783Y-66444559D01*
X165581783Y-66351337D01*
X165544249Y-66260450D01*
X165509409Y-66174814D01*
X165478488Y-66097345D01*
X165452714Y-66030962D01*
X165433311Y-65978582D01*
X165421508Y-65943121D01*
X165418531Y-65927496D01*
X165418732Y-65927039D01*
X165432601Y-65912595D01*
X165461611Y-65889974D01*
X165499772Y-65863864D01*
X165511817Y-65855892D01*
X165603469Y-65780256D01*
X165679323Y-65690169D01*
X165737581Y-65589381D01*
X165776448Y-65481640D01*
X165794128Y-65370697D01*
X165788826Y-65260303D01*
X165767347Y-65162115D01*
X165728782Y-65062966D01*
X165672562Y-64974512D01*
X165595410Y-64890487D01*
X165565095Y-64863645D01*
X165467094Y-64797510D01*
X165361227Y-64752970D01*
X165250561Y-64729625D01*
X165138164Y-64727078D01*
X165027105Y-64744929D01*
X164920451Y-64782780D01*
X164821270Y-64840232D01*
X164732631Y-64916887D01*
X164657600Y-65012345D01*
X164643175Y-65035985D01*
X164594143Y-65144034D01*
X164568103Y-65256548D01*
X164564372Y-65370614D01*
X164582268Y-65483318D01*
X164621109Y-65591745D01*
X164680214Y-65692982D01*
X164758900Y-65784114D01*
X164856485Y-65862228D01*
X164859654Y-65864333D01*
X164897411Y-65890940D01*
X164925709Y-65913561D01*
X164938634Y-65927496D01*
X164937003Y-65938421D01*
X164926864Y-65970231D01*
X164908884Y-66019534D01*
X164884292Y-66083413D01*
X164854311Y-66158948D01*
X164820170Y-66243223D01*
X164783092Y-66333320D01*
X164744306Y-66426321D01*
X164705036Y-66519308D01*
X164666509Y-66609364D01*
X164629950Y-66693571D01*
X164596586Y-66769010D01*
X164567643Y-66832765D01*
X164544346Y-66881917D01*
X164527923Y-66913549D01*
X164519598Y-66924743D01*
X164512674Y-66923227D01*
X164485477Y-66912331D01*
X164445280Y-66893228D01*
X164398009Y-66868650D01*
X164294248Y-66812547D01*
X164170639Y-66896155D01*
X164134120Y-66920913D01*
X164066194Y-66967171D01*
X163998475Y-67013503D01*
X163941291Y-67052852D01*
X163909732Y-67074297D01*
X163868714Y-67100939D01*
X163838301Y-67119178D01*
X163823446Y-67125941D01*
X163817065Y-67123070D01*
X163793996Y-67105485D01*
X163758433Y-67074523D01*
X163713471Y-67033231D01*
X163662206Y-66984653D01*
X163607733Y-66931835D01*
X163553148Y-66877823D01*
X163501547Y-66825661D01*
X163456024Y-66778396D01*
X163419675Y-66739072D01*
X163395595Y-66710736D01*
X163386881Y-66696432D01*
X163387383Y-66693711D01*
X163397755Y-66671560D01*
X163419912Y-66633235D01*
X163451712Y-66582200D01*
X163491016Y-66521914D01*
X163535681Y-66455842D01*
X163548207Y-66437617D01*
X163592193Y-66373485D01*
X163630937Y-66316789D01*
X163662182Y-66270844D01*
X163683669Y-66238970D01*
X163693140Y-66224483D01*
X163693373Y-66223862D01*
X163690578Y-66206139D01*
X163679903Y-66170235D01*
X163663081Y-66120662D01*
X163641843Y-66061932D01*
X163617921Y-65998556D01*
X163593046Y-65935046D01*
X163568950Y-65875913D01*
X163547365Y-65825669D01*
X163530023Y-65788826D01*
X163518655Y-65769894D01*
X163517516Y-65768719D01*
X163509376Y-65762773D01*
X163495629Y-65756776D01*
X163473537Y-65750114D01*
X163440363Y-65742173D01*
X163393370Y-65732337D01*
X163329820Y-65719991D01*
X163246976Y-65704520D01*
X163142100Y-65685310D01*
X163120348Y-65681267D01*
X163058036Y-65668769D01*
X163005619Y-65656927D01*
X162968066Y-65646917D01*
X162950343Y-65639916D01*
X162947378Y-65634075D01*
X162942435Y-65606016D01*
X162938518Y-65559500D01*
X162935629Y-65498886D01*
X162933773Y-65428532D01*
X162932952Y-65352796D01*
X162933168Y-65276037D01*
X162934426Y-65202612D01*
X162936728Y-65136880D01*
X162940076Y-65083200D01*
X162944474Y-65045930D01*
X162949926Y-65029427D01*
X162955491Y-65026989D01*
X162983178Y-65019305D01*
X163029979Y-65008436D01*
X163092157Y-64995192D01*
X163165979Y-64980384D01*
X163247710Y-64964823D01*
X163292336Y-64956509D01*
X163368824Y-64942092D01*
X163434660Y-64929467D01*
X163486323Y-64919321D01*
X163520293Y-64912341D01*
X163533048Y-64909212D01*
X163533528Y-64908568D01*
X163541651Y-64892181D01*
X163557137Y-64857852D01*
X163578050Y-64810136D01*
X163602455Y-64753586D01*
X163628416Y-64692758D01*
X163653997Y-64632206D01*
X163677262Y-64576485D01*
X163696277Y-64530150D01*
X163709105Y-64497755D01*
X163713812Y-64483855D01*
X163711736Y-64478965D01*
X163697920Y-64455692D01*
X163672860Y-64416519D01*
X163638568Y-64364520D01*
X163597059Y-64302768D01*
X163550346Y-64234336D01*
X163524718Y-64196860D01*
X163480490Y-64131156D01*
X163442570Y-64073492D01*
X163412980Y-64027014D01*
X163393743Y-63994865D01*
X163386881Y-63980190D01*
X163391649Y-63972230D01*
X163411593Y-63948446D01*
X163444313Y-63912451D01*
X163486805Y-63867295D01*
X163536065Y-63816028D01*
X163589091Y-63761701D01*
X163642877Y-63707364D01*
X163694421Y-63656067D01*
X163740720Y-63610859D01*
X163778769Y-63574792D01*
X163805565Y-63550914D01*
X163818105Y-63542278D01*
X163825066Y-63545636D01*
X163850627Y-63561210D01*
X163891874Y-63587715D01*
X163945837Y-63623210D01*
X164009542Y-63665750D01*
X164080016Y-63713395D01*
X164331662Y-63884512D01*
X164751188Y-63711570D01*
X164808036Y-63410018D01*
X164864885Y-63108466D01*
X165492540Y-63108466D01*
X165549389Y-63410018D01*
G36*
X165549389Y-63410018D02*
G01*
X165606237Y-63711570D01*
X165816001Y-63798041D01*
X166025764Y-63884512D01*
X166277410Y-63713395D01*
X166327216Y-63679661D01*
X166393244Y-63635381D01*
X166450410Y-63597561D01*
X166495744Y-63568142D01*
X166526280Y-63549067D01*
X166539046Y-63542278D01*
X166546887Y-63547106D01*
X166570325Y-63567339D01*
X166605794Y-63600543D01*
X166650289Y-63643670D01*
X166700805Y-63693670D01*
X166754336Y-63747495D01*
X166807877Y-63802095D01*
X166858423Y-63854423D01*
X166902968Y-63901428D01*
X166938507Y-63940063D01*
X166962034Y-63967278D01*
X166970544Y-63980024D01*
X166968565Y-63985500D01*
X166954857Y-64009927D01*
X166929825Y-64050129D01*
X166895499Y-64102952D01*
X166853907Y-64165247D01*
X166807079Y-64233862D01*
X166781380Y-64271283D01*
X166737173Y-64336432D01*
X166699272Y-64393289D01*
X166669698Y-64438770D01*
X166650472Y-64469793D01*
X166643614Y-64483274D01*
X166643726Y-64484021D01*
X166649776Y-64501110D01*
X166663654Y-64536006D01*
X166683427Y-64584151D01*
X166707160Y-64640986D01*
X166732918Y-64701953D01*
X166758766Y-64762492D01*
X166782771Y-64818047D01*
X166802998Y-64864057D01*
X166817511Y-64895965D01*
X166824377Y-64909212D01*
X166828439Y-64910387D01*
X166853121Y-64915687D01*
X166897111Y-64924467D01*
X166956887Y-64936040D01*
X167028929Y-64949721D01*
X167109716Y-64964823D01*
X167152294Y-64972830D01*
X167230445Y-64988107D01*
X167298775Y-65002215D01*
X167353551Y-65014345D01*
X167391037Y-65023686D01*
X167407500Y-65029427D01*
X167410457Y-65035119D01*
X167415362Y-65062930D01*
X167419216Y-65109250D01*
X167422021Y-65169720D01*
X167423781Y-65239983D01*
X167424499Y-65315680D01*
X167424177Y-65392453D01*
X167422819Y-65465944D01*
X167420428Y-65531794D01*
X167417006Y-65585645D01*
X167412556Y-65623138D01*
X167407082Y-65639916D01*
X167403760Y-65641809D01*
X167378987Y-65649926D01*
X167336011Y-65660666D01*
X167279802Y-65672853D01*
X167215325Y-65685310D01*
X167193570Y-65689277D01*
X167093093Y-65707729D01*
X167014126Y-65722559D01*
X166953934Y-65734380D01*
X166909778Y-65743809D01*
X166878920Y-65751460D01*
X166858625Y-65757948D01*
X166846154Y-65763888D01*
X166838771Y-65769894D01*
X166837913Y-65770902D01*
X166825838Y-65791919D01*
X166807971Y-65830376D01*
X166786042Y-65881761D01*
X166761784Y-65941563D01*
X166736927Y-66005270D01*
X166713205Y-66068371D01*
X166692347Y-66126355D01*
X166676087Y-66174709D01*
X166666156Y-66208922D01*
X166664285Y-66224483D01*
X166665536Y-66226502D01*
X166678486Y-66246028D01*
X166702840Y-66282042D01*
X166736340Y-66331228D01*
X166776727Y-66390267D01*
X166821745Y-66455842D01*
X166834100Y-66473884D01*
X166877545Y-66538599D01*
X166915091Y-66596476D01*
X166944594Y-66644082D01*
X166963914Y-66677985D01*
X166970905Y-66694752D01*
X166969398Y-66699161D01*
X166953695Y-66720882D01*
X166922714Y-66756354D01*
X166878673Y-66803188D01*
X166823790Y-66858996D01*
X166760286Y-66921392D01*
X166723988Y-66956317D01*
X166666595Y-67010711D01*
X166616361Y-67057302D01*
X166575984Y-67093636D01*
X166548161Y-67117261D01*
X166535590Y-67125724D01*
X166526952Y-67122587D01*
X166500360Y-67107747D01*
X166461741Y-67083477D01*
X166416134Y-67052852D01*
X166383707Y-67030503D01*
X166318970Y-66986122D01*
X166249886Y-66938987D01*
X166186787Y-66896155D01*
X166063178Y-66812547D01*
X165959417Y-66868650D01*
X165934984Y-66881599D01*
X165890552Y-66903749D01*
X165856191Y-66919041D01*
X165837828Y-66924743D01*
X165831818Y-66917421D01*
X165816895Y-66889541D01*
X165794852Y-66843575D01*
X165766917Y-66782441D01*
X165734317Y-66709055D01*
X165698276Y-66626335D01*
X165660023Y-66537197D01*
X165620783Y-66444559D01*
X165581783Y-66351337D01*
X165544249Y-66260450D01*
X165509409Y-66174814D01*
X165478488Y-66097345D01*
X165452714Y-66030962D01*
X165433311Y-65978582D01*
X165421508Y-65943121D01*
X165418531Y-65927496D01*
X165418732Y-65927039D01*
X165432601Y-65912595D01*
X165461611Y-65889974D01*
X165499772Y-65863864D01*
X165511817Y-65855892D01*
X165603469Y-65780256D01*
X165679323Y-65690169D01*
X165737581Y-65589381D01*
X165776448Y-65481640D01*
X165794128Y-65370697D01*
X165788826Y-65260303D01*
X165767347Y-65162115D01*
X165728782Y-65062966D01*
X165672562Y-64974512D01*
X165595410Y-64890487D01*
X165565095Y-64863645D01*
X165467094Y-64797510D01*
X165361227Y-64752970D01*
X165250561Y-64729625D01*
X165138164Y-64727078D01*
X165027105Y-64744929D01*
X164920451Y-64782780D01*
X164821270Y-64840232D01*
X164732631Y-64916887D01*
X164657600Y-65012345D01*
X164643175Y-65035985D01*
X164594143Y-65144034D01*
X164568103Y-65256548D01*
X164564372Y-65370614D01*
X164582268Y-65483318D01*
X164621109Y-65591745D01*
X164680214Y-65692982D01*
X164758900Y-65784114D01*
X164856485Y-65862228D01*
X164859654Y-65864333D01*
X164897411Y-65890940D01*
X164925709Y-65913561D01*
X164938634Y-65927496D01*
X164937003Y-65938421D01*
X164926864Y-65970231D01*
X164908884Y-66019534D01*
X164884292Y-66083413D01*
X164854311Y-66158948D01*
X164820170Y-66243223D01*
X164783092Y-66333320D01*
X164744306Y-66426321D01*
X164705036Y-66519308D01*
X164666509Y-66609364D01*
X164629950Y-66693571D01*
X164596586Y-66769010D01*
X164567643Y-66832765D01*
X164544346Y-66881917D01*
X164527923Y-66913549D01*
X164519598Y-66924743D01*
X164512674Y-66923227D01*
X164485477Y-66912331D01*
X164445280Y-66893228D01*
X164398009Y-66868650D01*
X164294248Y-66812547D01*
X164170639Y-66896155D01*
X164134120Y-66920913D01*
X164066194Y-66967171D01*
X163998475Y-67013503D01*
X163941291Y-67052852D01*
X163909732Y-67074297D01*
X163868714Y-67100939D01*
X163838301Y-67119178D01*
X163823446Y-67125941D01*
X163817065Y-67123070D01*
X163793996Y-67105485D01*
X163758433Y-67074523D01*
X163713471Y-67033231D01*
X163662206Y-66984653D01*
X163607733Y-66931835D01*
X163553148Y-66877823D01*
X163501547Y-66825661D01*
X163456024Y-66778396D01*
X163419675Y-66739072D01*
X163395595Y-66710736D01*
X163386881Y-66696432D01*
X163387383Y-66693711D01*
X163397755Y-66671560D01*
X163419912Y-66633235D01*
X163451712Y-66582200D01*
X163491016Y-66521914D01*
X163535681Y-66455842D01*
X163548207Y-66437617D01*
X163592193Y-66373485D01*
X163630937Y-66316789D01*
X163662182Y-66270844D01*
X163683669Y-66238970D01*
X163693140Y-66224483D01*
X163693373Y-66223862D01*
X163690578Y-66206139D01*
X163679903Y-66170235D01*
X163663081Y-66120662D01*
X163641843Y-66061932D01*
X163617921Y-65998556D01*
X163593046Y-65935046D01*
X163568950Y-65875913D01*
X163547365Y-65825669D01*
X163530023Y-65788826D01*
X163518655Y-65769894D01*
X163517516Y-65768719D01*
X163509376Y-65762773D01*
X163495629Y-65756776D01*
X163473537Y-65750114D01*
X163440363Y-65742173D01*
X163393370Y-65732337D01*
X163329820Y-65719991D01*
X163246976Y-65704520D01*
X163142100Y-65685310D01*
X163120348Y-65681267D01*
X163058036Y-65668769D01*
X163005619Y-65656927D01*
X162968066Y-65646917D01*
X162950343Y-65639916D01*
X162947378Y-65634075D01*
X162942435Y-65606016D01*
X162938518Y-65559500D01*
X162935629Y-65498886D01*
X162933773Y-65428532D01*
X162932952Y-65352796D01*
X162933168Y-65276037D01*
X162934426Y-65202612D01*
X162936728Y-65136880D01*
X162940076Y-65083200D01*
X162944474Y-65045930D01*
X162949926Y-65029427D01*
X162955491Y-65026989D01*
X162983178Y-65019305D01*
X163029979Y-65008436D01*
X163092157Y-64995192D01*
X163165979Y-64980384D01*
X163247710Y-64964823D01*
X163292336Y-64956509D01*
X163368824Y-64942092D01*
X163434660Y-64929467D01*
X163486323Y-64919321D01*
X163520293Y-64912341D01*
X163533048Y-64909212D01*
X163533528Y-64908568D01*
X163541651Y-64892181D01*
X163557137Y-64857852D01*
X163578050Y-64810136D01*
X163602455Y-64753586D01*
X163628416Y-64692758D01*
X163653997Y-64632206D01*
X163677262Y-64576485D01*
X163696277Y-64530150D01*
X163709105Y-64497755D01*
X163713812Y-64483855D01*
X163711736Y-64478965D01*
X163697920Y-64455692D01*
X163672860Y-64416519D01*
X163638568Y-64364520D01*
X163597059Y-64302768D01*
X163550346Y-64234336D01*
X163524718Y-64196860D01*
X163480490Y-64131156D01*
X163442570Y-64073492D01*
X163412980Y-64027014D01*
X163393743Y-63994865D01*
X163386881Y-63980190D01*
X163391649Y-63972230D01*
X163411593Y-63948446D01*
X163444313Y-63912451D01*
X163486805Y-63867295D01*
X163536065Y-63816028D01*
X163589091Y-63761701D01*
X163642877Y-63707364D01*
X163694421Y-63656067D01*
X163740720Y-63610859D01*
X163778769Y-63574792D01*
X163805565Y-63550914D01*
X163818105Y-63542278D01*
X163825066Y-63545636D01*
X163850627Y-63561210D01*
X163891874Y-63587715D01*
X163945837Y-63623210D01*
X164009542Y-63665750D01*
X164080016Y-63713395D01*
X164331662Y-63884512D01*
X164751188Y-63711570D01*
X164808036Y-63410018D01*
X164864885Y-63108466D01*
X165492540Y-63108466D01*
X165549389Y-63410018D01*
G37*
G36*
X169885000Y-63420000D02*
G01*
X169485000Y-63420000D01*
X169485000Y-63820000D01*
X169885000Y-63820000D01*
X169885000Y-63420000D01*
G37*
G36*
X169885000Y-63820000D02*
G01*
X169485000Y-63820000D01*
X169485000Y-64220000D01*
X169885000Y-64220000D01*
X169885000Y-63820000D01*
G37*
G36*
X169885000Y-64220000D02*
G01*
X169485000Y-64220000D01*
X169485000Y-64620000D01*
X169885000Y-64620000D01*
X169885000Y-64220000D01*
G37*
G36*
X169885000Y-64620000D02*
G01*
X169485000Y-64620000D01*
X169485000Y-65020000D01*
X169885000Y-65020000D01*
X169885000Y-64620000D01*
G37*
G36*
X169885000Y-65020000D02*
G01*
X169485000Y-65020000D01*
X169485000Y-65420000D01*
X169885000Y-65420000D01*
X169885000Y-65020000D01*
G37*
G36*
X169885000Y-65420000D02*
G01*
X169485000Y-65420000D01*
X169485000Y-65820000D01*
X169885000Y-65820000D01*
X169885000Y-65420000D01*
G37*
G36*
X169885000Y-65820000D02*
G01*
X169485000Y-65820000D01*
X169485000Y-66220000D01*
X169885000Y-66220000D01*
X169885000Y-65820000D01*
G37*
G36*
X169885000Y-66620000D02*
G01*
X169485000Y-66620000D01*
X169485000Y-67020000D01*
X169885000Y-67020000D01*
X169885000Y-66620000D01*
G37*
G36*
X169885000Y-68220000D02*
G01*
X169485000Y-68220000D01*
X169485000Y-68620000D01*
X169885000Y-68620000D01*
X169885000Y-68220000D01*
G37*
G36*
X169885000Y-68620000D02*
G01*
X169485000Y-68620000D01*
X169485000Y-69020000D01*
X169885000Y-69020000D01*
X169885000Y-68620000D01*
G37*
G36*
X169885000Y-69420000D02*
G01*
X169485000Y-69420000D01*
X169485000Y-69820000D01*
X169885000Y-69820000D01*
X169885000Y-69420000D01*
G37*
G36*
X169885000Y-69820000D02*
G01*
X169485000Y-69820000D01*
X169485000Y-70220000D01*
X169885000Y-70220000D01*
X169885000Y-69820000D01*
G37*
G36*
X169885000Y-70220000D02*
G01*
X169485000Y-70220000D01*
X169485000Y-70620000D01*
X169885000Y-70620000D01*
X169885000Y-70220000D01*
G37*
G36*
X169885000Y-70620000D02*
G01*
X169485000Y-70620000D01*
X169485000Y-71020000D01*
X169885000Y-71020000D01*
X169885000Y-70620000D01*
G37*
G36*
X169885000Y-71020000D02*
G01*
X169485000Y-71020000D01*
X169485000Y-71420000D01*
X169885000Y-71420000D01*
X169885000Y-71020000D01*
G37*
G36*
X169885000Y-71420000D02*
G01*
X169485000Y-71420000D01*
X169485000Y-71820000D01*
X169885000Y-71820000D01*
X169885000Y-71420000D01*
G37*
G36*
X169885000Y-71820000D02*
G01*
X169485000Y-71820000D01*
X169485000Y-72220000D01*
X169885000Y-72220000D01*
X169885000Y-71820000D01*
G37*
G36*
X169885000Y-73020000D02*
G01*
X169485000Y-73020000D01*
X169485000Y-73420000D01*
X169885000Y-73420000D01*
X169885000Y-73020000D01*
G37*
G36*
X170285000Y-63420000D02*
G01*
X169885000Y-63420000D01*
X169885000Y-63820000D01*
X170285000Y-63820000D01*
X170285000Y-63420000D01*
G37*
G36*
X170285000Y-65820000D02*
G01*
X169885000Y-65820000D01*
X169885000Y-66220000D01*
X170285000Y-66220000D01*
X170285000Y-65820000D01*
G37*
G36*
X170285000Y-67020000D02*
G01*
X169885000Y-67020000D01*
X169885000Y-67420000D01*
X170285000Y-67420000D01*
X170285000Y-67020000D01*
G37*
G36*
X170285000Y-68220000D02*
G01*
X169885000Y-68220000D01*
X169885000Y-68620000D01*
X170285000Y-68620000D01*
X170285000Y-68220000D01*
G37*
G36*
X170285000Y-69020000D02*
G01*
X169885000Y-69020000D01*
X169885000Y-69420000D01*
X170285000Y-69420000D01*
X170285000Y-69020000D01*
G37*
G36*
X170285000Y-69820000D02*
G01*
X169885000Y-69820000D01*
X169885000Y-70220000D01*
X170285000Y-70220000D01*
X170285000Y-69820000D01*
G37*
G36*
X170285000Y-70620000D02*
G01*
X169885000Y-70620000D01*
X169885000Y-71020000D01*
X170285000Y-71020000D01*
X170285000Y-70620000D01*
G37*
G36*
X170285000Y-71020000D02*
G01*
X169885000Y-71020000D01*
X169885000Y-71420000D01*
X170285000Y-71420000D01*
X170285000Y-71020000D01*
G37*
G36*
X170285000Y-71420000D02*
G01*
X169885000Y-71420000D01*
X169885000Y-71820000D01*
X170285000Y-71820000D01*
X170285000Y-71420000D01*
G37*
G36*
X170285000Y-71820000D02*
G01*
X169885000Y-71820000D01*
X169885000Y-72220000D01*
X170285000Y-72220000D01*
X170285000Y-71820000D01*
G37*
G36*
X170285000Y-72220000D02*
G01*
X169885000Y-72220000D01*
X169885000Y-72620000D01*
X170285000Y-72620000D01*
X170285000Y-72220000D01*
G37*
G36*
X170285000Y-73020000D02*
G01*
X169885000Y-73020000D01*
X169885000Y-73420000D01*
X170285000Y-73420000D01*
X170285000Y-73020000D01*
G37*
G36*
X170685000Y-63420000D02*
G01*
X170285000Y-63420000D01*
X170285000Y-63820000D01*
X170685000Y-63820000D01*
X170685000Y-63420000D01*
G37*
G36*
X170685000Y-64220000D02*
G01*
X170285000Y-64220000D01*
X170285000Y-64620000D01*
X170685000Y-64620000D01*
X170685000Y-64220000D01*
G37*
G36*
X170685000Y-64620000D02*
G01*
X170285000Y-64620000D01*
X170285000Y-65020000D01*
X170685000Y-65020000D01*
X170685000Y-64620000D01*
G37*
G36*
X170685000Y-65020000D02*
G01*
X170285000Y-65020000D01*
X170285000Y-65420000D01*
X170685000Y-65420000D01*
X170685000Y-65020000D01*
G37*
G36*
X170685000Y-65820000D02*
G01*
X170285000Y-65820000D01*
X170285000Y-66220000D01*
X170685000Y-66220000D01*
X170685000Y-65820000D01*
G37*
G36*
X170685000Y-66620000D02*
G01*
X170285000Y-66620000D01*
X170285000Y-67020000D01*
X170685000Y-67020000D01*
X170685000Y-66620000D01*
G37*
G36*
X170685000Y-67820000D02*
G01*
X170285000Y-67820000D01*
X170285000Y-68220000D01*
X170685000Y-68220000D01*
X170685000Y-67820000D01*
G37*
G36*
X170685000Y-68220000D02*
G01*
X170285000Y-68220000D01*
X170285000Y-68620000D01*
X170685000Y-68620000D01*
X170685000Y-68220000D01*
G37*
G36*
X170685000Y-69020000D02*
G01*
X170285000Y-69020000D01*
X170285000Y-69420000D01*
X170685000Y-69420000D01*
X170685000Y-69020000D01*
G37*
G36*
X170685000Y-69820000D02*
G01*
X170285000Y-69820000D01*
X170285000Y-70220000D01*
X170685000Y-70220000D01*
X170685000Y-69820000D01*
G37*
G36*
X170685000Y-70220000D02*
G01*
X170285000Y-70220000D01*
X170285000Y-70620000D01*
X170685000Y-70620000D01*
X170685000Y-70220000D01*
G37*
G36*
X170685000Y-70620000D02*
G01*
X170285000Y-70620000D01*
X170285000Y-71020000D01*
X170685000Y-71020000D01*
X170685000Y-70620000D01*
G37*
G36*
X170685000Y-71820000D02*
G01*
X170285000Y-71820000D01*
X170285000Y-72220000D01*
X170685000Y-72220000D01*
X170685000Y-71820000D01*
G37*
G36*
X170685000Y-72220000D02*
G01*
X170285000Y-72220000D01*
X170285000Y-72620000D01*
X170685000Y-72620000D01*
X170685000Y-72220000D01*
G37*
G36*
X170685000Y-72620000D02*
G01*
X170285000Y-72620000D01*
X170285000Y-73020000D01*
X170685000Y-73020000D01*
X170685000Y-72620000D01*
G37*
G36*
X170685000Y-73020000D02*
G01*
X170285000Y-73020000D01*
X170285000Y-73420000D01*
X170685000Y-73420000D01*
X170685000Y-73020000D01*
G37*
G36*
X171085000Y-63420000D02*
G01*
X170685000Y-63420000D01*
X170685000Y-63820000D01*
X171085000Y-63820000D01*
X171085000Y-63420000D01*
G37*
G36*
X171085000Y-64220000D02*
G01*
X170685000Y-64220000D01*
X170685000Y-64620000D01*
X171085000Y-64620000D01*
X171085000Y-64220000D01*
G37*
G36*
X171085000Y-64620000D02*
G01*
X170685000Y-64620000D01*
X170685000Y-65020000D01*
X171085000Y-65020000D01*
X171085000Y-64620000D01*
G37*
G36*
X171085000Y-65020000D02*
G01*
X170685000Y-65020000D01*
X170685000Y-65420000D01*
X171085000Y-65420000D01*
X171085000Y-65020000D01*
G37*
G36*
X171085000Y-65820000D02*
G01*
X170685000Y-65820000D01*
X170685000Y-66220000D01*
X171085000Y-66220000D01*
X171085000Y-65820000D01*
G37*
G36*
X171085000Y-66620000D02*
G01*
X170685000Y-66620000D01*
X170685000Y-67020000D01*
X171085000Y-67020000D01*
X171085000Y-66620000D01*
G37*
G36*
X171085000Y-67820000D02*
G01*
X170685000Y-67820000D01*
X170685000Y-68220000D01*
X171085000Y-68220000D01*
X171085000Y-67820000D01*
G37*
G36*
X171085000Y-69820000D02*
G01*
X170685000Y-69820000D01*
X170685000Y-70220000D01*
X171085000Y-70220000D01*
X171085000Y-69820000D01*
G37*
G36*
X171085000Y-71420000D02*
G01*
X170685000Y-71420000D01*
X170685000Y-71820000D01*
X171085000Y-71820000D01*
X171085000Y-71420000D01*
G37*
G36*
X171085000Y-71820000D02*
G01*
X170685000Y-71820000D01*
X170685000Y-72220000D01*
X171085000Y-72220000D01*
X171085000Y-71820000D01*
G37*
G36*
X171085000Y-73020000D02*
G01*
X170685000Y-73020000D01*
X170685000Y-73420000D01*
X171085000Y-73420000D01*
X171085000Y-73020000D01*
G37*
G36*
X171485000Y-63420000D02*
G01*
X171085000Y-63420000D01*
X171085000Y-63820000D01*
X171485000Y-63820000D01*
X171485000Y-63420000D01*
G37*
G36*
X171485000Y-64220000D02*
G01*
X171085000Y-64220000D01*
X171085000Y-64620000D01*
X171485000Y-64620000D01*
X171485000Y-64220000D01*
G37*
G36*
X171485000Y-64620000D02*
G01*
X171085000Y-64620000D01*
X171085000Y-65020000D01*
X171485000Y-65020000D01*
X171485000Y-64620000D01*
G37*
G36*
X171485000Y-65020000D02*
G01*
X171085000Y-65020000D01*
X171085000Y-65420000D01*
X171485000Y-65420000D01*
X171485000Y-65020000D01*
G37*
G36*
X171485000Y-65820000D02*
G01*
X171085000Y-65820000D01*
X171085000Y-66220000D01*
X171485000Y-66220000D01*
X171485000Y-65820000D01*
G37*
G36*
X171485000Y-66620000D02*
G01*
X171085000Y-66620000D01*
X171085000Y-67020000D01*
X171485000Y-67020000D01*
X171485000Y-66620000D01*
G37*
G36*
X171485000Y-68220000D02*
G01*
X171085000Y-68220000D01*
X171085000Y-68620000D01*
X171485000Y-68620000D01*
X171485000Y-68220000D01*
G37*
G36*
X171485000Y-68620000D02*
G01*
X171085000Y-68620000D01*
X171085000Y-69020000D01*
X171485000Y-69020000D01*
X171485000Y-68620000D01*
G37*
G36*
X171485000Y-69020000D02*
G01*
X171085000Y-69020000D01*
X171085000Y-69420000D01*
X171485000Y-69420000D01*
X171485000Y-69020000D01*
G37*
G36*
X171485000Y-69420000D02*
G01*
X171085000Y-69420000D01*
X171085000Y-69820000D01*
X171485000Y-69820000D01*
X171485000Y-69420000D01*
G37*
G36*
X171485000Y-69820000D02*
G01*
X171085000Y-69820000D01*
X171085000Y-70220000D01*
X171485000Y-70220000D01*
X171485000Y-69820000D01*
G37*
G36*
X171485000Y-70220000D02*
G01*
X171085000Y-70220000D01*
X171085000Y-70620000D01*
X171485000Y-70620000D01*
X171485000Y-70220000D01*
G37*
G36*
X171485000Y-70620000D02*
G01*
X171085000Y-70620000D01*
X171085000Y-71020000D01*
X171485000Y-71020000D01*
X171485000Y-70620000D01*
G37*
G36*
X171485000Y-71020000D02*
G01*
X171085000Y-71020000D01*
X171085000Y-71420000D01*
X171485000Y-71420000D01*
X171485000Y-71020000D01*
G37*
G36*
X171485000Y-71420000D02*
G01*
X171085000Y-71420000D01*
X171085000Y-71820000D01*
X171485000Y-71820000D01*
X171485000Y-71420000D01*
G37*
G36*
X171485000Y-71820000D02*
G01*
X171085000Y-71820000D01*
X171085000Y-72220000D01*
X171485000Y-72220000D01*
X171485000Y-71820000D01*
G37*
G36*
X171485000Y-72220000D02*
G01*
X171085000Y-72220000D01*
X171085000Y-72620000D01*
X171485000Y-72620000D01*
X171485000Y-72220000D01*
G37*
G36*
X171485000Y-72620000D02*
G01*
X171085000Y-72620000D01*
X171085000Y-73020000D01*
X171485000Y-73020000D01*
X171485000Y-72620000D01*
G37*
G36*
X171485000Y-73020000D02*
G01*
X171085000Y-73020000D01*
X171085000Y-73420000D01*
X171485000Y-73420000D01*
X171485000Y-73020000D01*
G37*
G36*
X171885000Y-63420000D02*
G01*
X171485000Y-63420000D01*
X171485000Y-63820000D01*
X171885000Y-63820000D01*
X171885000Y-63420000D01*
G37*
G36*
X171885000Y-65820000D02*
G01*
X171485000Y-65820000D01*
X171485000Y-66220000D01*
X171885000Y-66220000D01*
X171885000Y-65820000D01*
G37*
G36*
X171885000Y-67020000D02*
G01*
X171485000Y-67020000D01*
X171485000Y-67420000D01*
X171885000Y-67420000D01*
X171885000Y-67020000D01*
G37*
G36*
X171885000Y-67420000D02*
G01*
X171485000Y-67420000D01*
X171485000Y-67820000D01*
X171885000Y-67820000D01*
X171885000Y-67420000D01*
G37*
G36*
X171885000Y-68620000D02*
G01*
X171485000Y-68620000D01*
X171485000Y-69020000D01*
X171885000Y-69020000D01*
X171885000Y-68620000D01*
G37*
G36*
X171885000Y-69420000D02*
G01*
X171485000Y-69420000D01*
X171485000Y-69820000D01*
X171885000Y-69820000D01*
X171885000Y-69420000D01*
G37*
G36*
X171885000Y-69820000D02*
G01*
X171485000Y-69820000D01*
X171485000Y-70220000D01*
X171885000Y-70220000D01*
X171885000Y-69820000D01*
G37*
G36*
X171885000Y-71420000D02*
G01*
X171485000Y-71420000D01*
X171485000Y-71820000D01*
X171885000Y-71820000D01*
X171885000Y-71420000D01*
G37*
G36*
X171885000Y-73020000D02*
G01*
X171485000Y-73020000D01*
X171485000Y-73420000D01*
X171885000Y-73420000D01*
X171885000Y-73020000D01*
G37*
G36*
X172285000Y-63420000D02*
G01*
X171885000Y-63420000D01*
X171885000Y-63820000D01*
X172285000Y-63820000D01*
X172285000Y-63420000D01*
G37*
G36*
X172285000Y-63820000D02*
G01*
X171885000Y-63820000D01*
X171885000Y-64220000D01*
X172285000Y-64220000D01*
X172285000Y-63820000D01*
G37*
G36*
X172285000Y-64220000D02*
G01*
X171885000Y-64220000D01*
X171885000Y-64620000D01*
X172285000Y-64620000D01*
X172285000Y-64220000D01*
G37*
G36*
X172285000Y-64620000D02*
G01*
X171885000Y-64620000D01*
X171885000Y-65020000D01*
X172285000Y-65020000D01*
X172285000Y-64620000D01*
G37*
G36*
X172285000Y-65020000D02*
G01*
X171885000Y-65020000D01*
X171885000Y-65420000D01*
X172285000Y-65420000D01*
X172285000Y-65020000D01*
G37*
G36*
X172285000Y-65420000D02*
G01*
X171885000Y-65420000D01*
X171885000Y-65820000D01*
X172285000Y-65820000D01*
X172285000Y-65420000D01*
G37*
G36*
X172285000Y-65820000D02*
G01*
X171885000Y-65820000D01*
X171885000Y-66220000D01*
X172285000Y-66220000D01*
X172285000Y-65820000D01*
G37*
G36*
X172285000Y-67420000D02*
G01*
X171885000Y-67420000D01*
X171885000Y-67820000D01*
X172285000Y-67820000D01*
X172285000Y-67420000D01*
G37*
G36*
X172285000Y-68220000D02*
G01*
X171885000Y-68220000D01*
X171885000Y-68620000D01*
X172285000Y-68620000D01*
X172285000Y-68220000D01*
G37*
G36*
X172285000Y-68620000D02*
G01*
X171885000Y-68620000D01*
X171885000Y-69020000D01*
X172285000Y-69020000D01*
X172285000Y-68620000D01*
G37*
G36*
X172285000Y-69420000D02*
G01*
X171885000Y-69420000D01*
X171885000Y-69820000D01*
X172285000Y-69820000D01*
X172285000Y-69420000D01*
G37*
G36*
X172285000Y-69820000D02*
G01*
X171885000Y-69820000D01*
X171885000Y-70220000D01*
X172285000Y-70220000D01*
X172285000Y-69820000D01*
G37*
G36*
X172285000Y-70620000D02*
G01*
X171885000Y-70620000D01*
X171885000Y-71020000D01*
X172285000Y-71020000D01*
X172285000Y-70620000D01*
G37*
G36*
X172285000Y-71420000D02*
G01*
X171885000Y-71420000D01*
X171885000Y-71820000D01*
X172285000Y-71820000D01*
X172285000Y-71420000D01*
G37*
G36*
X172285000Y-71820000D02*
G01*
X171885000Y-71820000D01*
X171885000Y-72220000D01*
X172285000Y-72220000D01*
X172285000Y-71820000D01*
G37*
G36*
X172285000Y-72220000D02*
G01*
X171885000Y-72220000D01*
X171885000Y-72620000D01*
X172285000Y-72620000D01*
X172285000Y-72220000D01*
G37*
G36*
X172285000Y-72620000D02*
G01*
X171885000Y-72620000D01*
X171885000Y-73020000D01*
X172285000Y-73020000D01*
X172285000Y-72620000D01*
G37*
G36*
X172285000Y-73020000D02*
G01*
X171885000Y-73020000D01*
X171885000Y-73420000D01*
X172285000Y-73420000D01*
X172285000Y-73020000D01*
G37*
G36*
X172685000Y-66620000D02*
G01*
X172285000Y-66620000D01*
X172285000Y-67020000D01*
X172685000Y-67020000D01*
X172685000Y-66620000D01*
G37*
G36*
X172685000Y-67420000D02*
G01*
X172285000Y-67420000D01*
X172285000Y-67820000D01*
X172685000Y-67820000D01*
X172685000Y-67420000D01*
G37*
G36*
X172685000Y-67820000D02*
G01*
X172285000Y-67820000D01*
X172285000Y-68220000D01*
X172685000Y-68220000D01*
X172685000Y-67820000D01*
G37*
G36*
X172685000Y-68220000D02*
G01*
X172285000Y-68220000D01*
X172285000Y-68620000D01*
X172685000Y-68620000D01*
X172685000Y-68220000D01*
G37*
G36*
X172685000Y-69020000D02*
G01*
X172285000Y-69020000D01*
X172285000Y-69420000D01*
X172685000Y-69420000D01*
X172685000Y-69020000D01*
G37*
G36*
X172685000Y-69820000D02*
G01*
X172285000Y-69820000D01*
X172285000Y-70220000D01*
X172685000Y-70220000D01*
X172685000Y-69820000D01*
G37*
G36*
X172685000Y-71420000D02*
G01*
X172285000Y-71420000D01*
X172285000Y-71820000D01*
X172685000Y-71820000D01*
X172685000Y-71420000D01*
G37*
G36*
X172685000Y-71820000D02*
G01*
X172285000Y-71820000D01*
X172285000Y-72220000D01*
X172685000Y-72220000D01*
X172685000Y-71820000D01*
G37*
G36*
X172685000Y-72220000D02*
G01*
X172285000Y-72220000D01*
X172285000Y-72620000D01*
X172685000Y-72620000D01*
X172685000Y-72220000D01*
G37*
G36*
X173085000Y-63420000D02*
G01*
X172685000Y-63420000D01*
X172685000Y-63820000D01*
X173085000Y-63820000D01*
X173085000Y-63420000D01*
G37*
G36*
X173085000Y-63820000D02*
G01*
X172685000Y-63820000D01*
X172685000Y-64220000D01*
X173085000Y-64220000D01*
X173085000Y-63820000D01*
G37*
G36*
X173085000Y-65020000D02*
G01*
X172685000Y-65020000D01*
X172685000Y-65420000D01*
X173085000Y-65420000D01*
X173085000Y-65020000D01*
G37*
G36*
X173085000Y-65820000D02*
G01*
X172685000Y-65820000D01*
X172685000Y-66220000D01*
X173085000Y-66220000D01*
X173085000Y-65820000D01*
G37*
G36*
X173085000Y-66620000D02*
G01*
X172685000Y-66620000D01*
X172685000Y-67020000D01*
X173085000Y-67020000D01*
X173085000Y-66620000D01*
G37*
G36*
X173085000Y-67020000D02*
G01*
X172685000Y-67020000D01*
X172685000Y-67420000D01*
X173085000Y-67420000D01*
X173085000Y-67020000D01*
G37*
G36*
X173085000Y-69020000D02*
G01*
X172685000Y-69020000D01*
X172685000Y-69420000D01*
X173085000Y-69420000D01*
X173085000Y-69020000D01*
G37*
G36*
X173085000Y-69820000D02*
G01*
X172685000Y-69820000D01*
X172685000Y-70220000D01*
X173085000Y-70220000D01*
X173085000Y-69820000D01*
G37*
G36*
X173085000Y-70220000D02*
G01*
X172685000Y-70220000D01*
X172685000Y-70620000D01*
X173085000Y-70620000D01*
X173085000Y-70220000D01*
G37*
G36*
X173085000Y-70620000D02*
G01*
X172685000Y-70620000D01*
X172685000Y-71020000D01*
X173085000Y-71020000D01*
X173085000Y-70620000D01*
G37*
G36*
X173085000Y-71020000D02*
G01*
X172685000Y-71020000D01*
X172685000Y-71420000D01*
X173085000Y-71420000D01*
X173085000Y-71020000D01*
G37*
G36*
X173085000Y-71420000D02*
G01*
X172685000Y-71420000D01*
X172685000Y-71820000D01*
X173085000Y-71820000D01*
X173085000Y-71420000D01*
G37*
G36*
X173485000Y-64220000D02*
G01*
X173085000Y-64220000D01*
X173085000Y-64620000D01*
X173485000Y-64620000D01*
X173485000Y-64220000D01*
G37*
G36*
X173485000Y-65020000D02*
G01*
X173085000Y-65020000D01*
X173085000Y-65420000D01*
X173485000Y-65420000D01*
X173485000Y-65020000D01*
G37*
G36*
X173485000Y-66220000D02*
G01*
X173085000Y-66220000D01*
X173085000Y-66620000D01*
X173485000Y-66620000D01*
X173485000Y-66220000D01*
G37*
G36*
X173485000Y-67820000D02*
G01*
X173085000Y-67820000D01*
X173085000Y-68220000D01*
X173485000Y-68220000D01*
X173485000Y-67820000D01*
G37*
G36*
X173485000Y-68620000D02*
G01*
X173085000Y-68620000D01*
X173085000Y-69020000D01*
X173485000Y-69020000D01*
X173485000Y-68620000D01*
G37*
G36*
X173485000Y-71020000D02*
G01*
X173085000Y-71020000D01*
X173085000Y-71420000D01*
X173485000Y-71420000D01*
X173485000Y-71020000D01*
G37*
G36*
X173485000Y-72220000D02*
G01*
X173085000Y-72220000D01*
X173085000Y-72620000D01*
X173485000Y-72620000D01*
X173485000Y-72220000D01*
G37*
G36*
X173485000Y-72620000D02*
G01*
X173085000Y-72620000D01*
X173085000Y-73020000D01*
X173485000Y-73020000D01*
X173485000Y-72620000D01*
G37*
G36*
X173885000Y-64220000D02*
G01*
X173485000Y-64220000D01*
X173485000Y-64620000D01*
X173885000Y-64620000D01*
X173885000Y-64220000D01*
G37*
G36*
X173885000Y-65020000D02*
G01*
X173485000Y-65020000D01*
X173485000Y-65420000D01*
X173885000Y-65420000D01*
X173885000Y-65020000D01*
G37*
G36*
X173885000Y-65420000D02*
G01*
X173485000Y-65420000D01*
X173485000Y-65820000D01*
X173885000Y-65820000D01*
X173885000Y-65420000D01*
G37*
G36*
X173885000Y-65820000D02*
G01*
X173485000Y-65820000D01*
X173485000Y-66220000D01*
X173885000Y-66220000D01*
X173885000Y-65820000D01*
G37*
G36*
X173885000Y-66620000D02*
G01*
X173485000Y-66620000D01*
X173485000Y-67020000D01*
X173885000Y-67020000D01*
X173885000Y-66620000D01*
G37*
G36*
X173885000Y-67820000D02*
G01*
X173485000Y-67820000D01*
X173485000Y-68220000D01*
X173885000Y-68220000D01*
X173885000Y-67820000D01*
G37*
G36*
X173885000Y-68220000D02*
G01*
X173485000Y-68220000D01*
X173485000Y-68620000D01*
X173885000Y-68620000D01*
X173885000Y-68220000D01*
G37*
G36*
X173885000Y-68620000D02*
G01*
X173485000Y-68620000D01*
X173485000Y-69020000D01*
X173885000Y-69020000D01*
X173885000Y-68620000D01*
G37*
G36*
X173885000Y-69420000D02*
G01*
X173485000Y-69420000D01*
X173485000Y-69820000D01*
X173885000Y-69820000D01*
X173885000Y-69420000D01*
G37*
G36*
X173885000Y-71420000D02*
G01*
X173485000Y-71420000D01*
X173485000Y-71820000D01*
X173885000Y-71820000D01*
X173885000Y-71420000D01*
G37*
G36*
X173885000Y-71820000D02*
G01*
X173485000Y-71820000D01*
X173485000Y-72220000D01*
X173885000Y-72220000D01*
X173885000Y-71820000D01*
G37*
G36*
X173885000Y-72220000D02*
G01*
X173485000Y-72220000D01*
X173485000Y-72620000D01*
X173885000Y-72620000D01*
X173885000Y-72220000D01*
G37*
G36*
X174285000Y-63420000D02*
G01*
X173885000Y-63420000D01*
X173885000Y-63820000D01*
X174285000Y-63820000D01*
X174285000Y-63420000D01*
G37*
G36*
X174285000Y-64220000D02*
G01*
X173885000Y-64220000D01*
X173885000Y-64620000D01*
X174285000Y-64620000D01*
X174285000Y-64220000D01*
G37*
G36*
X174285000Y-64620000D02*
G01*
X173885000Y-64620000D01*
X173885000Y-65020000D01*
X174285000Y-65020000D01*
X174285000Y-64620000D01*
G37*
G36*
X174285000Y-65020000D02*
G01*
X173885000Y-65020000D01*
X173885000Y-65420000D01*
X174285000Y-65420000D01*
X174285000Y-65020000D01*
G37*
G36*
X174285000Y-66620000D02*
G01*
X173885000Y-66620000D01*
X173885000Y-67020000D01*
X174285000Y-67020000D01*
X174285000Y-66620000D01*
G37*
G36*
X174285000Y-67820000D02*
G01*
X173885000Y-67820000D01*
X173885000Y-68220000D01*
X174285000Y-68220000D01*
X174285000Y-67820000D01*
G37*
G36*
X174285000Y-70220000D02*
G01*
X173885000Y-70220000D01*
X173885000Y-70620000D01*
X174285000Y-70620000D01*
X174285000Y-70220000D01*
G37*
G36*
X174285000Y-71420000D02*
G01*
X173885000Y-71420000D01*
X173885000Y-71820000D01*
X174285000Y-71820000D01*
X174285000Y-71420000D01*
G37*
G36*
X174285000Y-72620000D02*
G01*
X173885000Y-72620000D01*
X173885000Y-73020000D01*
X174285000Y-73020000D01*
X174285000Y-72620000D01*
G37*
G36*
X174285000Y-73020000D02*
G01*
X173885000Y-73020000D01*
X173885000Y-73420000D01*
X174285000Y-73420000D01*
X174285000Y-73020000D01*
G37*
G36*
X174685000Y-63420000D02*
G01*
X174285000Y-63420000D01*
X174285000Y-63820000D01*
X174685000Y-63820000D01*
X174685000Y-63420000D01*
G37*
G36*
X174685000Y-65020000D02*
G01*
X174285000Y-65020000D01*
X174285000Y-65420000D01*
X174685000Y-65420000D01*
X174685000Y-65020000D01*
G37*
G36*
X174685000Y-65420000D02*
G01*
X174285000Y-65420000D01*
X174285000Y-65820000D01*
X174685000Y-65820000D01*
X174685000Y-65420000D01*
G37*
G36*
X174685000Y-65820000D02*
G01*
X174285000Y-65820000D01*
X174285000Y-66220000D01*
X174685000Y-66220000D01*
X174685000Y-65820000D01*
G37*
G36*
X174685000Y-67420000D02*
G01*
X174285000Y-67420000D01*
X174285000Y-67820000D01*
X174685000Y-67820000D01*
X174685000Y-67420000D01*
G37*
G36*
X174685000Y-68220000D02*
G01*
X174285000Y-68220000D01*
X174285000Y-68620000D01*
X174685000Y-68620000D01*
X174685000Y-68220000D01*
G37*
G36*
X174685000Y-68620000D02*
G01*
X174285000Y-68620000D01*
X174285000Y-69020000D01*
X174685000Y-69020000D01*
X174685000Y-68620000D01*
G37*
G36*
X174685000Y-69020000D02*
G01*
X174285000Y-69020000D01*
X174285000Y-69420000D01*
X174685000Y-69420000D01*
X174685000Y-69020000D01*
G37*
G36*
X174685000Y-70220000D02*
G01*
X174285000Y-70220000D01*
X174285000Y-70620000D01*
X174685000Y-70620000D01*
X174685000Y-70220000D01*
G37*
G36*
X174685000Y-71020000D02*
G01*
X174285000Y-71020000D01*
X174285000Y-71420000D01*
X174685000Y-71420000D01*
X174685000Y-71020000D01*
G37*
G36*
X174685000Y-71820000D02*
G01*
X174285000Y-71820000D01*
X174285000Y-72220000D01*
X174685000Y-72220000D01*
X174685000Y-71820000D01*
G37*
G36*
X174685000Y-72220000D02*
G01*
X174285000Y-72220000D01*
X174285000Y-72620000D01*
X174685000Y-72620000D01*
X174685000Y-72220000D01*
G37*
G36*
X174685000Y-72620000D02*
G01*
X174285000Y-72620000D01*
X174285000Y-73020000D01*
X174685000Y-73020000D01*
X174685000Y-72620000D01*
G37*
G36*
X175085000Y-63420000D02*
G01*
X174685000Y-63420000D01*
X174685000Y-63820000D01*
X175085000Y-63820000D01*
X175085000Y-63420000D01*
G37*
G36*
X175085000Y-63820000D02*
G01*
X174685000Y-63820000D01*
X174685000Y-64220000D01*
X175085000Y-64220000D01*
X175085000Y-63820000D01*
G37*
G36*
X175085000Y-65020000D02*
G01*
X174685000Y-65020000D01*
X174685000Y-65420000D01*
X175085000Y-65420000D01*
X175085000Y-65020000D01*
G37*
G36*
X175085000Y-66220000D02*
G01*
X174685000Y-66220000D01*
X174685000Y-66620000D01*
X175085000Y-66620000D01*
X175085000Y-66220000D01*
G37*
G36*
X175085000Y-67420000D02*
G01*
X174685000Y-67420000D01*
X174685000Y-67820000D01*
X175085000Y-67820000D01*
X175085000Y-67420000D01*
G37*
G36*
X175085000Y-67820000D02*
G01*
X174685000Y-67820000D01*
X174685000Y-68220000D01*
X175085000Y-68220000D01*
X175085000Y-67820000D01*
G37*
G36*
X175085000Y-68620000D02*
G01*
X174685000Y-68620000D01*
X174685000Y-69020000D01*
X175085000Y-69020000D01*
X175085000Y-68620000D01*
G37*
G36*
X175085000Y-69820000D02*
G01*
X174685000Y-69820000D01*
X174685000Y-70220000D01*
X175085000Y-70220000D01*
X175085000Y-69820000D01*
G37*
G36*
X175085000Y-71420000D02*
G01*
X174685000Y-71420000D01*
X174685000Y-71820000D01*
X175085000Y-71820000D01*
X175085000Y-71420000D01*
G37*
G36*
X175085000Y-71820000D02*
G01*
X174685000Y-71820000D01*
X174685000Y-72220000D01*
X175085000Y-72220000D01*
X175085000Y-71820000D01*
G37*
G36*
X175085000Y-72220000D02*
G01*
X174685000Y-72220000D01*
X174685000Y-72620000D01*
X175085000Y-72620000D01*
X175085000Y-72220000D01*
G37*
G36*
X175485000Y-63420000D02*
G01*
X175085000Y-63420000D01*
X175085000Y-63820000D01*
X175485000Y-63820000D01*
X175485000Y-63420000D01*
G37*
G36*
X175485000Y-63820000D02*
G01*
X175085000Y-63820000D01*
X175085000Y-64220000D01*
X175485000Y-64220000D01*
X175485000Y-63820000D01*
G37*
G36*
X175485000Y-65820000D02*
G01*
X175085000Y-65820000D01*
X175085000Y-66220000D01*
X175485000Y-66220000D01*
X175485000Y-65820000D01*
G37*
G36*
X175485000Y-68620000D02*
G01*
X175085000Y-68620000D01*
X175085000Y-69020000D01*
X175485000Y-69020000D01*
X175485000Y-68620000D01*
G37*
G36*
X175485000Y-69020000D02*
G01*
X175085000Y-69020000D01*
X175085000Y-69420000D01*
X175485000Y-69420000D01*
X175485000Y-69020000D01*
G37*
G36*
X175485000Y-70220000D02*
G01*
X175085000Y-70220000D01*
X175085000Y-70620000D01*
X175485000Y-70620000D01*
X175485000Y-70220000D01*
G37*
G36*
X175485000Y-71820000D02*
G01*
X175085000Y-71820000D01*
X175085000Y-72220000D01*
X175485000Y-72220000D01*
X175485000Y-71820000D01*
G37*
G36*
X175485000Y-72620000D02*
G01*
X175085000Y-72620000D01*
X175085000Y-73020000D01*
X175485000Y-73020000D01*
X175485000Y-72620000D01*
G37*
G36*
X175885000Y-63420000D02*
G01*
X175485000Y-63420000D01*
X175485000Y-63820000D01*
X175885000Y-63820000D01*
X175885000Y-63420000D01*
G37*
G36*
X175885000Y-64620000D02*
G01*
X175485000Y-64620000D01*
X175485000Y-65020000D01*
X175885000Y-65020000D01*
X175885000Y-64620000D01*
G37*
G36*
X175885000Y-65020000D02*
G01*
X175485000Y-65020000D01*
X175485000Y-65420000D01*
X175885000Y-65420000D01*
X175885000Y-65020000D01*
G37*
G36*
X175885000Y-65420000D02*
G01*
X175485000Y-65420000D01*
X175485000Y-65820000D01*
X175885000Y-65820000D01*
X175885000Y-65420000D01*
G37*
G36*
X175885000Y-66220000D02*
G01*
X175485000Y-66220000D01*
X175485000Y-66620000D01*
X175885000Y-66620000D01*
X175885000Y-66220000D01*
G37*
G36*
X175885000Y-67020000D02*
G01*
X175485000Y-67020000D01*
X175485000Y-67420000D01*
X175885000Y-67420000D01*
X175885000Y-67020000D01*
G37*
G36*
X175885000Y-68220000D02*
G01*
X175485000Y-68220000D01*
X175485000Y-68620000D01*
X175885000Y-68620000D01*
X175885000Y-68220000D01*
G37*
G36*
X175885000Y-69020000D02*
G01*
X175485000Y-69020000D01*
X175485000Y-69420000D01*
X175885000Y-69420000D01*
X175885000Y-69020000D01*
G37*
G36*
X175885000Y-70220000D02*
G01*
X175485000Y-70220000D01*
X175485000Y-70620000D01*
X175885000Y-70620000D01*
X175885000Y-70220000D01*
G37*
G36*
X175885000Y-71020000D02*
G01*
X175485000Y-71020000D01*
X175485000Y-71420000D01*
X175885000Y-71420000D01*
X175885000Y-71020000D01*
G37*
G36*
X175885000Y-71420000D02*
G01*
X175485000Y-71420000D01*
X175485000Y-71820000D01*
X175885000Y-71820000D01*
X175885000Y-71420000D01*
G37*
G36*
X175885000Y-72220000D02*
G01*
X175485000Y-72220000D01*
X175485000Y-72620000D01*
X175885000Y-72620000D01*
X175885000Y-72220000D01*
G37*
G36*
X175885000Y-72620000D02*
G01*
X175485000Y-72620000D01*
X175485000Y-73020000D01*
X175885000Y-73020000D01*
X175885000Y-72620000D01*
G37*
G36*
X175885000Y-73020000D02*
G01*
X175485000Y-73020000D01*
X175485000Y-73420000D01*
X175885000Y-73420000D01*
X175885000Y-73020000D01*
G37*
G36*
X176285000Y-63420000D02*
G01*
X175885000Y-63420000D01*
X175885000Y-63820000D01*
X176285000Y-63820000D01*
X176285000Y-63420000D01*
G37*
G36*
X176285000Y-64220000D02*
G01*
X175885000Y-64220000D01*
X175885000Y-64620000D01*
X176285000Y-64620000D01*
X176285000Y-64220000D01*
G37*
G36*
X176285000Y-64620000D02*
G01*
X175885000Y-64620000D01*
X175885000Y-65020000D01*
X176285000Y-65020000D01*
X176285000Y-64620000D01*
G37*
G36*
X176285000Y-65020000D02*
G01*
X175885000Y-65020000D01*
X175885000Y-65420000D01*
X176285000Y-65420000D01*
X176285000Y-65020000D01*
G37*
G36*
X176285000Y-65820000D02*
G01*
X175885000Y-65820000D01*
X175885000Y-66220000D01*
X176285000Y-66220000D01*
X176285000Y-65820000D01*
G37*
G36*
X176285000Y-66620000D02*
G01*
X175885000Y-66620000D01*
X175885000Y-67020000D01*
X176285000Y-67020000D01*
X176285000Y-66620000D01*
G37*
G36*
X176285000Y-67020000D02*
G01*
X175885000Y-67020000D01*
X175885000Y-67420000D01*
X176285000Y-67420000D01*
X176285000Y-67020000D01*
G37*
G36*
X176285000Y-67420000D02*
G01*
X175885000Y-67420000D01*
X175885000Y-67820000D01*
X176285000Y-67820000D01*
X176285000Y-67420000D01*
G37*
G36*
X176285000Y-67820000D02*
G01*
X175885000Y-67820000D01*
X175885000Y-68220000D01*
X176285000Y-68220000D01*
X176285000Y-67820000D01*
G37*
G36*
X176285000Y-68620000D02*
G01*
X175885000Y-68620000D01*
X175885000Y-69020000D01*
X176285000Y-69020000D01*
X176285000Y-68620000D01*
G37*
G36*
X176285000Y-70220000D02*
G01*
X175885000Y-70220000D01*
X175885000Y-70620000D01*
X176285000Y-70620000D01*
X176285000Y-70220000D01*
G37*
G36*
X176285000Y-71820000D02*
G01*
X175885000Y-71820000D01*
X175885000Y-72220000D01*
X176285000Y-72220000D01*
X176285000Y-71820000D01*
G37*
G36*
X176285000Y-72220000D02*
G01*
X175885000Y-72220000D01*
X175885000Y-72620000D01*
X176285000Y-72620000D01*
X176285000Y-72220000D01*
G37*
G36*
X176285000Y-72620000D02*
G01*
X175885000Y-72620000D01*
X175885000Y-73020000D01*
X176285000Y-73020000D01*
X176285000Y-72620000D01*
G37*
G36*
X176285000Y-73020000D02*
G01*
X175885000Y-73020000D01*
X175885000Y-73420000D01*
X176285000Y-73420000D01*
X176285000Y-73020000D01*
G37*
G36*
X176685000Y-67420000D02*
G01*
X176285000Y-67420000D01*
X176285000Y-67820000D01*
X176685000Y-67820000D01*
X176685000Y-67420000D01*
G37*
G36*
X176685000Y-68620000D02*
G01*
X176285000Y-68620000D01*
X176285000Y-69020000D01*
X176685000Y-69020000D01*
X176685000Y-68620000D01*
G37*
G36*
X176685000Y-69420000D02*
G01*
X176285000Y-69420000D01*
X176285000Y-69820000D01*
X176685000Y-69820000D01*
X176685000Y-69420000D01*
G37*
G36*
X177085000Y-63420000D02*
G01*
X176685000Y-63420000D01*
X176685000Y-63820000D01*
X177085000Y-63820000D01*
X177085000Y-63420000D01*
G37*
G36*
X177085000Y-63820000D02*
G01*
X176685000Y-63820000D01*
X176685000Y-64220000D01*
X177085000Y-64220000D01*
X177085000Y-63820000D01*
G37*
G36*
X177085000Y-64220000D02*
G01*
X176685000Y-64220000D01*
X176685000Y-64620000D01*
X177085000Y-64620000D01*
X177085000Y-64220000D01*
G37*
G36*
X177085000Y-64620000D02*
G01*
X176685000Y-64620000D01*
X176685000Y-65020000D01*
X177085000Y-65020000D01*
X177085000Y-64620000D01*
G37*
G36*
X177085000Y-65020000D02*
G01*
X176685000Y-65020000D01*
X176685000Y-65420000D01*
X177085000Y-65420000D01*
X177085000Y-65020000D01*
G37*
G36*
X177085000Y-65420000D02*
G01*
X176685000Y-65420000D01*
X176685000Y-65820000D01*
X177085000Y-65820000D01*
X177085000Y-65420000D01*
G37*
G36*
X177085000Y-65820000D02*
G01*
X176685000Y-65820000D01*
X176685000Y-66220000D01*
X177085000Y-66220000D01*
X177085000Y-65820000D01*
G37*
G36*
X177085000Y-66620000D02*
G01*
X176685000Y-66620000D01*
X176685000Y-67020000D01*
X177085000Y-67020000D01*
X177085000Y-66620000D01*
G37*
G36*
X177085000Y-67420000D02*
G01*
X176685000Y-67420000D01*
X176685000Y-67820000D01*
X177085000Y-67820000D01*
X177085000Y-67420000D01*
G37*
G36*
X177085000Y-68220000D02*
G01*
X176685000Y-68220000D01*
X176685000Y-68620000D01*
X177085000Y-68620000D01*
X177085000Y-68220000D01*
G37*
G36*
X177085000Y-69020000D02*
G01*
X176685000Y-69020000D01*
X176685000Y-69420000D01*
X177085000Y-69420000D01*
X177085000Y-69020000D01*
G37*
G36*
X177085000Y-69820000D02*
G01*
X176685000Y-69820000D01*
X176685000Y-70220000D01*
X177085000Y-70220000D01*
X177085000Y-69820000D01*
G37*
G36*
X177085000Y-70620000D02*
G01*
X176685000Y-70620000D01*
X176685000Y-71020000D01*
X177085000Y-71020000D01*
X177085000Y-70620000D01*
G37*
G36*
X177085000Y-71020000D02*
G01*
X176685000Y-71020000D01*
X176685000Y-71420000D01*
X177085000Y-71420000D01*
X177085000Y-71020000D01*
G37*
G36*
X177085000Y-71420000D02*
G01*
X176685000Y-71420000D01*
X176685000Y-71820000D01*
X177085000Y-71820000D01*
X177085000Y-71420000D01*
G37*
G36*
X177085000Y-71820000D02*
G01*
X176685000Y-71820000D01*
X176685000Y-72220000D01*
X177085000Y-72220000D01*
X177085000Y-71820000D01*
G37*
G36*
X177085000Y-72220000D02*
G01*
X176685000Y-72220000D01*
X176685000Y-72620000D01*
X177085000Y-72620000D01*
X177085000Y-72220000D01*
G37*
G36*
X177085000Y-72620000D02*
G01*
X176685000Y-72620000D01*
X176685000Y-73020000D01*
X177085000Y-73020000D01*
X177085000Y-72620000D01*
G37*
G36*
X177085000Y-73020000D02*
G01*
X176685000Y-73020000D01*
X176685000Y-73420000D01*
X177085000Y-73420000D01*
X177085000Y-73020000D01*
G37*
G36*
X177485000Y-63420000D02*
G01*
X177085000Y-63420000D01*
X177085000Y-63820000D01*
X177485000Y-63820000D01*
X177485000Y-63420000D01*
G37*
G36*
X177485000Y-65820000D02*
G01*
X177085000Y-65820000D01*
X177085000Y-66220000D01*
X177485000Y-66220000D01*
X177485000Y-65820000D01*
G37*
G36*
X177485000Y-67820000D02*
G01*
X177085000Y-67820000D01*
X177085000Y-68220000D01*
X177485000Y-68220000D01*
X177485000Y-67820000D01*
G37*
G36*
X177485000Y-68220000D02*
G01*
X177085000Y-68220000D01*
X177085000Y-68620000D01*
X177485000Y-68620000D01*
X177485000Y-68220000D01*
G37*
G36*
X177485000Y-68620000D02*
G01*
X177085000Y-68620000D01*
X177085000Y-69020000D01*
X177485000Y-69020000D01*
X177485000Y-68620000D01*
G37*
G36*
X177485000Y-69020000D02*
G01*
X177085000Y-69020000D01*
X177085000Y-69420000D01*
X177485000Y-69420000D01*
X177485000Y-69020000D01*
G37*
G36*
X177485000Y-70620000D02*
G01*
X177085000Y-70620000D01*
X177085000Y-71020000D01*
X177485000Y-71020000D01*
X177485000Y-70620000D01*
G37*
G36*
X177485000Y-73020000D02*
G01*
X177085000Y-73020000D01*
X177085000Y-73420000D01*
X177485000Y-73420000D01*
X177485000Y-73020000D01*
G37*
G36*
X177885000Y-63420000D02*
G01*
X177485000Y-63420000D01*
X177485000Y-63820000D01*
X177885000Y-63820000D01*
X177885000Y-63420000D01*
G37*
G36*
X177885000Y-64220000D02*
G01*
X177485000Y-64220000D01*
X177485000Y-64620000D01*
X177885000Y-64620000D01*
X177885000Y-64220000D01*
G37*
G36*
X177885000Y-64620000D02*
G01*
X177485000Y-64620000D01*
X177485000Y-65020000D01*
X177885000Y-65020000D01*
X177885000Y-64620000D01*
G37*
G36*
X177885000Y-65020000D02*
G01*
X177485000Y-65020000D01*
X177485000Y-65420000D01*
X177885000Y-65420000D01*
X177885000Y-65020000D01*
G37*
G36*
X177885000Y-65820000D02*
G01*
X177485000Y-65820000D01*
X177485000Y-66220000D01*
X177885000Y-66220000D01*
X177885000Y-65820000D01*
G37*
G36*
X177885000Y-67420000D02*
G01*
X177485000Y-67420000D01*
X177485000Y-67820000D01*
X177885000Y-67820000D01*
X177885000Y-67420000D01*
G37*
G36*
X177885000Y-68220000D02*
G01*
X177485000Y-68220000D01*
X177485000Y-68620000D01*
X177885000Y-68620000D01*
X177885000Y-68220000D01*
G37*
G36*
X177885000Y-68620000D02*
G01*
X177485000Y-68620000D01*
X177485000Y-69020000D01*
X177885000Y-69020000D01*
X177885000Y-68620000D01*
G37*
G36*
X177885000Y-69020000D02*
G01*
X177485000Y-69020000D01*
X177485000Y-69420000D01*
X177885000Y-69420000D01*
X177885000Y-69020000D01*
G37*
G36*
X177885000Y-69420000D02*
G01*
X177485000Y-69420000D01*
X177485000Y-69820000D01*
X177885000Y-69820000D01*
X177885000Y-69420000D01*
G37*
G36*
X177885000Y-69820000D02*
G01*
X177485000Y-69820000D01*
X177485000Y-70220000D01*
X177885000Y-70220000D01*
X177885000Y-69820000D01*
G37*
G36*
X177885000Y-70620000D02*
G01*
X177485000Y-70620000D01*
X177485000Y-71020000D01*
X177885000Y-71020000D01*
X177885000Y-70620000D01*
G37*
G36*
X177885000Y-71420000D02*
G01*
X177485000Y-71420000D01*
X177485000Y-71820000D01*
X177885000Y-71820000D01*
X177885000Y-71420000D01*
G37*
G36*
X177885000Y-71820000D02*
G01*
X177485000Y-71820000D01*
X177485000Y-72220000D01*
X177885000Y-72220000D01*
X177885000Y-71820000D01*
G37*
G36*
X177885000Y-72220000D02*
G01*
X177485000Y-72220000D01*
X177485000Y-72620000D01*
X177885000Y-72620000D01*
X177885000Y-72220000D01*
G37*
G36*
X177885000Y-73020000D02*
G01*
X177485000Y-73020000D01*
X177485000Y-73420000D01*
X177885000Y-73420000D01*
X177885000Y-73020000D01*
G37*
G36*
X178285000Y-63420000D02*
G01*
X177885000Y-63420000D01*
X177885000Y-63820000D01*
X178285000Y-63820000D01*
X178285000Y-63420000D01*
G37*
G36*
X178285000Y-64220000D02*
G01*
X177885000Y-64220000D01*
X177885000Y-64620000D01*
X178285000Y-64620000D01*
X178285000Y-64220000D01*
G37*
G36*
X178285000Y-64620000D02*
G01*
X177885000Y-64620000D01*
X177885000Y-65020000D01*
X178285000Y-65020000D01*
X178285000Y-64620000D01*
G37*
G36*
X178285000Y-65020000D02*
G01*
X177885000Y-65020000D01*
X177885000Y-65420000D01*
X178285000Y-65420000D01*
X178285000Y-65020000D01*
G37*
G36*
X178285000Y-65820000D02*
G01*
X177885000Y-65820000D01*
X177885000Y-66220000D01*
X178285000Y-66220000D01*
X178285000Y-65820000D01*
G37*
G36*
X178285000Y-66620000D02*
G01*
X177885000Y-66620000D01*
X177885000Y-67020000D01*
X178285000Y-67020000D01*
X178285000Y-66620000D01*
G37*
G36*
X178285000Y-69020000D02*
G01*
X177885000Y-69020000D01*
X177885000Y-69420000D01*
X178285000Y-69420000D01*
X178285000Y-69020000D01*
G37*
G36*
X178285000Y-70620000D02*
G01*
X177885000Y-70620000D01*
X177885000Y-71020000D01*
X178285000Y-71020000D01*
X178285000Y-70620000D01*
G37*
G36*
X178285000Y-71420000D02*
G01*
X177885000Y-71420000D01*
X177885000Y-71820000D01*
X178285000Y-71820000D01*
X178285000Y-71420000D01*
G37*
G36*
X178285000Y-71820000D02*
G01*
X177885000Y-71820000D01*
X177885000Y-72220000D01*
X178285000Y-72220000D01*
X178285000Y-71820000D01*
G37*
G36*
X178285000Y-72220000D02*
G01*
X177885000Y-72220000D01*
X177885000Y-72620000D01*
X178285000Y-72620000D01*
X178285000Y-72220000D01*
G37*
G36*
X178285000Y-73020000D02*
G01*
X177885000Y-73020000D01*
X177885000Y-73420000D01*
X178285000Y-73420000D01*
X178285000Y-73020000D01*
G37*
G36*
X178685000Y-63420000D02*
G01*
X178285000Y-63420000D01*
X178285000Y-63820000D01*
X178685000Y-63820000D01*
X178685000Y-63420000D01*
G37*
G36*
X178685000Y-64220000D02*
G01*
X178285000Y-64220000D01*
X178285000Y-64620000D01*
X178685000Y-64620000D01*
X178685000Y-64220000D01*
G37*
G36*
X178685000Y-64620000D02*
G01*
X178285000Y-64620000D01*
X178285000Y-65020000D01*
X178685000Y-65020000D01*
X178685000Y-64620000D01*
G37*
G36*
X178685000Y-65020000D02*
G01*
X178285000Y-65020000D01*
X178285000Y-65420000D01*
X178685000Y-65420000D01*
X178685000Y-65020000D01*
G37*
G36*
X178685000Y-65820000D02*
G01*
X178285000Y-65820000D01*
X178285000Y-66220000D01*
X178685000Y-66220000D01*
X178685000Y-65820000D01*
G37*
G36*
X178685000Y-66620000D02*
G01*
X178285000Y-66620000D01*
X178285000Y-67020000D01*
X178685000Y-67020000D01*
X178685000Y-66620000D01*
G37*
G36*
X178685000Y-67020000D02*
G01*
X178285000Y-67020000D01*
X178285000Y-67420000D01*
X178685000Y-67420000D01*
X178685000Y-67020000D01*
G37*
G36*
X178685000Y-69420000D02*
G01*
X178285000Y-69420000D01*
X178285000Y-69820000D01*
X178685000Y-69820000D01*
X178685000Y-69420000D01*
G37*
G36*
X178685000Y-69820000D02*
G01*
X178285000Y-69820000D01*
X178285000Y-70220000D01*
X178685000Y-70220000D01*
X178685000Y-69820000D01*
G37*
G36*
X178685000Y-70620000D02*
G01*
X178285000Y-70620000D01*
X178285000Y-71020000D01*
X178685000Y-71020000D01*
X178685000Y-70620000D01*
G37*
G36*
X178685000Y-71420000D02*
G01*
X178285000Y-71420000D01*
X178285000Y-71820000D01*
X178685000Y-71820000D01*
X178685000Y-71420000D01*
G37*
G36*
X178685000Y-71820000D02*
G01*
X178285000Y-71820000D01*
X178285000Y-72220000D01*
X178685000Y-72220000D01*
X178685000Y-71820000D01*
G37*
G36*
X178685000Y-72220000D02*
G01*
X178285000Y-72220000D01*
X178285000Y-72620000D01*
X178685000Y-72620000D01*
X178685000Y-72220000D01*
G37*
G36*
X178685000Y-73020000D02*
G01*
X178285000Y-73020000D01*
X178285000Y-73420000D01*
X178685000Y-73420000D01*
X178685000Y-73020000D01*
G37*
G36*
X179085000Y-63420000D02*
G01*
X178685000Y-63420000D01*
X178685000Y-63820000D01*
X179085000Y-63820000D01*
X179085000Y-63420000D01*
G37*
G36*
X179085000Y-65820000D02*
G01*
X178685000Y-65820000D01*
X178685000Y-66220000D01*
X179085000Y-66220000D01*
X179085000Y-65820000D01*
G37*
G36*
X179085000Y-66620000D02*
G01*
X178685000Y-66620000D01*
X178685000Y-67020000D01*
X179085000Y-67020000D01*
X179085000Y-66620000D01*
G37*
G36*
X179085000Y-67020000D02*
G01*
X178685000Y-67020000D01*
X178685000Y-67420000D01*
X179085000Y-67420000D01*
X179085000Y-67020000D01*
G37*
G36*
X179085000Y-67420000D02*
G01*
X178685000Y-67420000D01*
X178685000Y-67820000D01*
X179085000Y-67820000D01*
X179085000Y-67420000D01*
G37*
G36*
X179085000Y-67820000D02*
G01*
X178685000Y-67820000D01*
X178685000Y-68220000D01*
X179085000Y-68220000D01*
X179085000Y-67820000D01*
G37*
G36*
X179085000Y-68620000D02*
G01*
X178685000Y-68620000D01*
X178685000Y-69020000D01*
X179085000Y-69020000D01*
X179085000Y-68620000D01*
G37*
G36*
X179085000Y-69020000D02*
G01*
X178685000Y-69020000D01*
X178685000Y-69420000D01*
X179085000Y-69420000D01*
X179085000Y-69020000D01*
G37*
G36*
X179085000Y-70620000D02*
G01*
X178685000Y-70620000D01*
X178685000Y-71020000D01*
X179085000Y-71020000D01*
X179085000Y-70620000D01*
G37*
G36*
X179085000Y-73020000D02*
G01*
X178685000Y-73020000D01*
X178685000Y-73420000D01*
X179085000Y-73420000D01*
X179085000Y-73020000D01*
G37*
G36*
X179485000Y-63420000D02*
G01*
X179085000Y-63420000D01*
X179085000Y-63820000D01*
X179485000Y-63820000D01*
X179485000Y-63420000D01*
G37*
G36*
X179485000Y-63820000D02*
G01*
X179085000Y-63820000D01*
X179085000Y-64220000D01*
X179485000Y-64220000D01*
X179485000Y-63820000D01*
G37*
G36*
X179485000Y-64220000D02*
G01*
X179085000Y-64220000D01*
X179085000Y-64620000D01*
X179485000Y-64620000D01*
X179485000Y-64220000D01*
G37*
G36*
X179485000Y-64620000D02*
G01*
X179085000Y-64620000D01*
X179085000Y-65020000D01*
X179485000Y-65020000D01*
X179485000Y-64620000D01*
G37*
G36*
X179485000Y-65020000D02*
G01*
X179085000Y-65020000D01*
X179085000Y-65420000D01*
X179485000Y-65420000D01*
X179485000Y-65020000D01*
G37*
G36*
X179485000Y-65420000D02*
G01*
X179085000Y-65420000D01*
X179085000Y-65820000D01*
X179485000Y-65820000D01*
X179485000Y-65420000D01*
G37*
G36*
X179485000Y-65820000D02*
G01*
X179085000Y-65820000D01*
X179085000Y-66220000D01*
X179485000Y-66220000D01*
X179485000Y-65820000D01*
G37*
G36*
X179485000Y-66620000D02*
G01*
X179085000Y-66620000D01*
X179085000Y-67020000D01*
X179485000Y-67020000D01*
X179485000Y-66620000D01*
G37*
G36*
X179485000Y-67020000D02*
G01*
X179085000Y-67020000D01*
X179085000Y-67420000D01*
X179485000Y-67420000D01*
X179485000Y-67020000D01*
G37*
G36*
X179485000Y-67820000D02*
G01*
X179085000Y-67820000D01*
X179085000Y-68220000D01*
X179485000Y-68220000D01*
X179485000Y-67820000D01*
G37*
G36*
X179485000Y-68220000D02*
G01*
X179085000Y-68220000D01*
X179085000Y-68620000D01*
X179485000Y-68620000D01*
X179485000Y-68220000D01*
G37*
G36*
X179485000Y-69420000D02*
G01*
X179085000Y-69420000D01*
X179085000Y-69820000D01*
X179485000Y-69820000D01*
X179485000Y-69420000D01*
G37*
G36*
X179485000Y-70620000D02*
G01*
X179085000Y-70620000D01*
X179085000Y-71020000D01*
X179485000Y-71020000D01*
X179485000Y-70620000D01*
G37*
G36*
X179485000Y-71020000D02*
G01*
X179085000Y-71020000D01*
X179085000Y-71420000D01*
X179485000Y-71420000D01*
X179485000Y-71020000D01*
G37*
G36*
X179485000Y-71420000D02*
G01*
X179085000Y-71420000D01*
X179085000Y-71820000D01*
X179485000Y-71820000D01*
X179485000Y-71420000D01*
G37*
G36*
X179485000Y-71820000D02*
G01*
X179085000Y-71820000D01*
X179085000Y-72220000D01*
X179485000Y-72220000D01*
X179485000Y-71820000D01*
G37*
G36*
X179485000Y-72220000D02*
G01*
X179085000Y-72220000D01*
X179085000Y-72620000D01*
X179485000Y-72620000D01*
X179485000Y-72220000D01*
G37*
G36*
X179485000Y-72620000D02*
G01*
X179085000Y-72620000D01*
X179085000Y-73020000D01*
X179485000Y-73020000D01*
X179485000Y-72620000D01*
G37*
G36*
X179485000Y-73020000D02*
G01*
X179085000Y-73020000D01*
X179085000Y-73420000D01*
X179485000Y-73420000D01*
X179485000Y-73020000D01*
G37*
%LPC*%
G36*
X113700000Y-75950000D02*
G01*
X183300000Y-75950000D01*
X183300000Y-78500000D01*
X113700000Y-78500000D01*
X113700000Y-75950000D01*
G37*
D12*
X115700000Y-72500000D03*
X181300000Y-72500000D03*
D13*
X115375000Y-77075000D03*
X115875000Y-77075000D03*
X116375000Y-77075000D03*
X116875000Y-77075000D03*
X117375000Y-77075000D03*
X117875000Y-77075000D03*
X118375000Y-77075000D03*
X118875000Y-77075000D03*
X119375000Y-77075000D03*
X119875000Y-77075000D03*
X120375000Y-77075000D03*
X120875000Y-77075000D03*
X121375000Y-77075000D03*
X121875000Y-77075000D03*
X122375000Y-77075000D03*
X122875000Y-77075000D03*
X123375000Y-77075000D03*
X123875000Y-77075000D03*
X124375000Y-77075000D03*
X124875000Y-77075000D03*
X125375000Y-77075000D03*
X125875000Y-77075000D03*
X126375000Y-77075000D03*
X126875000Y-77075000D03*
X127375000Y-77075000D03*
X127875000Y-77075000D03*
X128375000Y-77075000D03*
X128875000Y-77075000D03*
X129375000Y-77075000D03*
X129875000Y-77075000D03*
X130375000Y-77075000D03*
X130875000Y-77075000D03*
X131375000Y-77075000D03*
X131875000Y-77075000D03*
X132375000Y-77075000D03*
X132875000Y-77075000D03*
X133375000Y-77075000D03*
X133875000Y-77075000D03*
X134375000Y-77075000D03*
X134875000Y-77075000D03*
X135375000Y-77075000D03*
X135875000Y-77075000D03*
X136375000Y-77075000D03*
X136875000Y-77075000D03*
X137375000Y-77075000D03*
X137875000Y-77075000D03*
X138375000Y-77075000D03*
X138875000Y-77075000D03*
X139375000Y-77075000D03*
X139875000Y-77075000D03*
X140375000Y-77075000D03*
X140875000Y-77075000D03*
X141375000Y-77075000D03*
X141875000Y-77075000D03*
X142375000Y-77075000D03*
X142875000Y-77075000D03*
X143375000Y-77075000D03*
X143875000Y-77075000D03*
X144375000Y-77075000D03*
X144875000Y-77075000D03*
X145375000Y-77075000D03*
X145875000Y-77075000D03*
X146375000Y-77075000D03*
X146875000Y-77075000D03*
X147375000Y-77075000D03*
X147875000Y-77075000D03*
X148375000Y-77075000D03*
X148875000Y-77075000D03*
X149375000Y-77075000D03*
X149875000Y-77075000D03*
X150375000Y-77075000D03*
X150875000Y-77075000D03*
X153375000Y-77075000D03*
X153875000Y-77075000D03*
X154375000Y-77075000D03*
X154875000Y-77075000D03*
X155375000Y-77075000D03*
X155875000Y-77075000D03*
X156375000Y-77075000D03*
X156875000Y-77075000D03*
X157375000Y-77075000D03*
X157875000Y-77075000D03*
X158375000Y-77075000D03*
X158875000Y-77075000D03*
X159375000Y-77075000D03*
X159875000Y-77075000D03*
X160375000Y-77075000D03*
X160875000Y-77075000D03*
X161375000Y-77075000D03*
X161875000Y-77075000D03*
X162375000Y-77075000D03*
X162875000Y-77075000D03*
X163375000Y-77075000D03*
X163875000Y-77075000D03*
X164375000Y-77075000D03*
X164875000Y-77075000D03*
X165375000Y-77075000D03*
X165875000Y-77075000D03*
X166375000Y-77075000D03*
X166875000Y-77075000D03*
X167375000Y-77075000D03*
X167875000Y-77075000D03*
X168375000Y-77075000D03*
X168875000Y-77075000D03*
X169375000Y-77075000D03*
X169875000Y-77075000D03*
X170375000Y-77075000D03*
X170875000Y-77075000D03*
X171375000Y-77075000D03*
X171875000Y-77075000D03*
X172375000Y-77075000D03*
X172875000Y-77075000D03*
X173375000Y-77075000D03*
X173875000Y-77075000D03*
X174375000Y-77075000D03*
X174875000Y-77075000D03*
X175375000Y-77075000D03*
X175875000Y-77075000D03*
X176375000Y-77075000D03*
X176875000Y-77075000D03*
X177375000Y-77075000D03*
X177875000Y-77075000D03*
X178375000Y-77075000D03*
X178875000Y-77075000D03*
X179375000Y-77075000D03*
X179875000Y-77075000D03*
X180375000Y-77075000D03*
X180875000Y-77075000D03*
X181375000Y-77075000D03*
X181875000Y-77075000D03*
D14*
X188300000Y-78500000D03*
X149122550Y-31100000D03*
X113700000Y-82611111D03*
X113700000Y-24222223D03*
X113700000Y-90000000D03*
X113300000Y-51180000D03*
X113700000Y-87888888D03*
X108700000Y-78500000D03*
X162583775Y-31100000D03*
X107700000Y-78500000D03*
D15*
X180300000Y-35489800D03*
D16*
X180300000Y-35489800D03*
D14*
X183300000Y-84722222D03*
X148122550Y-31100000D03*
D15*
X116700000Y-35489800D03*
D16*
X116700000Y-35489800D03*
D14*
X147122550Y-31100000D03*
X183300000Y-83666666D03*
X190300000Y-31500000D03*
X183700000Y-62840000D03*
X116200099Y-31100000D03*
X113300000Y-34990000D03*
X113700000Y-23166667D03*
X183700000Y-61840000D03*
X183300000Y-85777777D03*
D17*
X187800000Y-22500000D03*
D14*
X110700000Y-31500000D03*
X183700000Y-72240000D03*
X113300000Y-63840000D03*
X113300000Y-52180000D03*
X183300000Y-81555555D03*
X183300000Y-27388889D03*
X109700000Y-78500000D03*
X150122550Y-31100000D03*
X189300000Y-31500000D03*
X113300000Y-49180000D03*
X113700000Y-21055556D03*
X113700000Y-28444445D03*
X190300000Y-78500000D03*
X111700000Y-31500000D03*
X187300000Y-31500000D03*
X110700000Y-78500000D03*
X183300000Y-82611111D03*
X134661324Y-31100000D03*
X183300000Y-26333334D03*
X131661324Y-31100000D03*
X189300000Y-78500000D03*
X109700000Y-31500000D03*
X183300000Y-80500000D03*
X113300000Y-36990000D03*
X186300000Y-31500000D03*
X185300000Y-78500000D03*
X186300000Y-78500000D03*
X113700000Y-86833333D03*
X113700000Y-80500000D03*
X117200099Y-31100000D03*
X183300000Y-87888888D03*
X180045000Y-31100000D03*
X183300000Y-25277778D03*
X183700000Y-52180000D03*
X113300000Y-71240000D03*
D17*
X109200000Y-22500000D03*
D14*
X113300000Y-50180000D03*
X183300000Y-86833333D03*
X118200099Y-31100000D03*
X108700000Y-31500000D03*
X183700000Y-63840000D03*
X107700000Y-31500000D03*
X113700000Y-29500000D03*
X183700000Y-73240000D03*
X113700000Y-83666666D03*
X111700000Y-78500000D03*
X113700000Y-81555555D03*
X113700000Y-84722222D03*
D17*
X109200000Y-87500000D03*
D14*
X188300000Y-31500000D03*
X183700000Y-71240000D03*
X113700000Y-27388889D03*
X113700000Y-26333334D03*
D15*
X165460000Y-71870000D03*
D16*
X165460000Y-71870000D03*
D14*
X183300000Y-28444445D03*
X183700000Y-74240000D03*
X183700000Y-34990000D03*
X133661324Y-31100000D03*
X183300000Y-22111112D03*
X183700000Y-64840000D03*
X183300000Y-90000000D03*
X106700000Y-78500000D03*
X113300000Y-74240000D03*
X183300000Y-29500000D03*
X183700000Y-50180000D03*
X183700000Y-33990000D03*
X113300000Y-62840000D03*
X132661324Y-31100000D03*
X183700000Y-49180000D03*
X113700000Y-88944444D03*
X113700000Y-25277778D03*
X187300000Y-78500000D03*
X178045000Y-31100000D03*
X113300000Y-61840000D03*
X185300000Y-31500000D03*
X183700000Y-35990000D03*
X183300000Y-21055556D03*
X183700000Y-36990000D03*
X183300000Y-23166667D03*
X183300000Y-24222223D03*
X106700000Y-31500000D03*
X113300000Y-73240000D03*
X181045000Y-31100000D03*
X183300000Y-20000000D03*
X183700000Y-51180000D03*
X179045000Y-31100000D03*
X113300000Y-72240000D03*
X113700000Y-85777777D03*
X113300000Y-33990000D03*
X113700000Y-20000000D03*
X183300000Y-88944444D03*
X119200099Y-31100000D03*
X164583775Y-31100000D03*
X163583775Y-31100000D03*
X113700000Y-22111112D03*
X165583775Y-31100000D03*
X113300000Y-35990000D03*
D15*
X131635000Y-71870000D03*
D16*
X131635000Y-71870000D03*
D14*
X113300000Y-64840000D03*
D18*
X143415000Y-55371800D03*
X144055000Y-55371800D03*
D19*
X145108726Y-53945526D03*
X145561274Y-54398074D03*
D20*
X185300000Y-23850000D03*
D21*
X150535000Y-53851800D03*
X150535000Y-54491800D03*
D18*
X143415000Y-56971800D03*
X144055000Y-56971800D03*
D20*
X111700000Y-23850000D03*
D22*
X125281800Y-49533200D03*
X124641800Y-49533200D03*
D21*
X152135000Y-52251800D03*
X152135000Y-52891800D03*
D18*
X145015000Y-56971800D03*
X145655000Y-56971800D03*
D21*
X147335000Y-53851800D03*
X147335000Y-54491800D03*
D22*
X153655000Y-60171800D03*
X153015000Y-60171800D03*
D23*
X148135000Y-60891800D03*
X148135000Y-60251800D03*
X140615000Y-38245000D03*
X140615000Y-37605000D03*
D22*
X125980000Y-40920000D03*
X125340000Y-40920000D03*
D18*
X145015000Y-60171800D03*
X145655000Y-60171800D03*
D22*
X152055000Y-55371800D03*
X151415000Y-55371800D03*
D21*
X144935000Y-61051800D03*
X144935000Y-61691800D03*
D22*
X126385000Y-39920000D03*
X125745000Y-39920000D03*
D23*
X149735000Y-60891800D03*
X149735000Y-60251800D03*
X123685000Y-50271800D03*
X123685000Y-49631800D03*
D22*
X146110000Y-39845000D03*
X145470000Y-39845000D03*
X152055000Y-56971800D03*
X151415000Y-56971800D03*
D21*
X145735000Y-52251800D03*
X145735000Y-52891800D03*
D22*
X153655000Y-57771800D03*
X153015000Y-57771800D03*
D21*
X146535000Y-52251800D03*
X146535000Y-52891800D03*
D22*
X128060000Y-35345000D03*
X127420000Y-35345000D03*
D18*
X139095000Y-38245000D03*
X139735000Y-38245000D03*
D22*
X152055000Y-56171800D03*
X151415000Y-56171800D03*
X152435000Y-38245000D03*
X151795000Y-38245000D03*
D21*
X145735000Y-61051800D03*
X145735000Y-61691800D03*
D18*
X145015000Y-55371800D03*
X145655000Y-55371800D03*
D21*
X148135000Y-52251800D03*
X148135000Y-52891800D03*
D22*
X153655000Y-61771800D03*
X153015000Y-61771800D03*
D24*
X145739000Y-65026600D03*
X145739000Y-66576600D03*
D18*
X141470000Y-35045000D03*
X142110000Y-35045000D03*
D21*
X150535000Y-52251800D03*
X150535000Y-52891800D03*
D25*
X151961274Y-60798074D03*
X151508726Y-60345526D03*
D18*
X151770000Y-35045000D03*
X152410000Y-35045000D03*
X143415000Y-54571800D03*
X144055000Y-54571800D03*
X145015000Y-57771800D03*
X145655000Y-57771800D03*
D23*
X148935000Y-60891800D03*
X148935000Y-60251800D03*
D18*
X143415000Y-56171800D03*
X144055000Y-56171800D03*
D22*
X122085000Y-56671800D03*
X121445000Y-56671800D03*
D18*
X145015000Y-59371800D03*
X145655000Y-59371800D03*
D22*
X150035000Y-35045000D03*
X149395000Y-35045000D03*
X152055000Y-57771800D03*
X151415000Y-57771800D03*
D18*
X145020000Y-56171800D03*
X145660000Y-56171800D03*
D21*
X147335000Y-52251800D03*
X147335000Y-52891800D03*
D26*
X151365000Y-63780000D03*
X151365000Y-62820000D03*
X155035000Y-53981800D03*
X155035000Y-53021800D03*
D22*
X142135000Y-38245000D03*
X141495000Y-38245000D03*
D26*
X149035000Y-63780000D03*
X149035000Y-62820000D03*
D23*
X147335000Y-60891800D03*
X147335000Y-60251800D03*
D18*
X143415000Y-60971800D03*
X144055000Y-60971800D03*
X143415000Y-53771800D03*
X144055000Y-53771800D03*
D21*
X149735000Y-52251800D03*
X149735000Y-52891800D03*
D23*
X150535000Y-60891800D03*
X150535000Y-60251800D03*
D18*
X127685000Y-50271800D03*
X128325000Y-50271800D03*
D27*
X123858726Y-56498074D03*
X124311274Y-56045526D03*
D22*
X153655000Y-60971800D03*
X153015000Y-60971800D03*
D21*
X149735000Y-53851800D03*
X149735000Y-54491800D03*
D18*
X142220000Y-39845000D03*
X142860000Y-39845000D03*
D22*
X122085000Y-50271800D03*
X121445000Y-50271800D03*
D21*
X144935000Y-52251800D03*
X144935000Y-52891800D03*
D18*
X144165000Y-62571800D03*
X144805000Y-62571800D03*
D21*
X148135000Y-53851800D03*
X148135000Y-54491800D03*
D22*
X153655000Y-56171800D03*
X153015000Y-56171800D03*
X143255000Y-62571800D03*
X142615000Y-62571800D03*
X139735000Y-35045000D03*
X139095000Y-35045000D03*
D26*
X148115000Y-63780000D03*
X148115000Y-62820000D03*
D18*
X152520000Y-39845000D03*
X153160000Y-39845000D03*
D22*
X135810000Y-39845000D03*
X135170000Y-39845000D03*
D18*
X143415000Y-59371800D03*
X144055000Y-59371800D03*
X143415000Y-61771800D03*
X144055000Y-61771800D03*
D21*
X151335000Y-52251800D03*
X151335000Y-52891800D03*
D18*
X143415000Y-60171800D03*
X144055000Y-60171800D03*
D26*
X150435000Y-63780000D03*
X150435000Y-62820000D03*
D18*
X149395000Y-38245000D03*
X150035000Y-38245000D03*
D21*
X124885000Y-38420000D03*
X124885000Y-39060000D03*
D18*
X153815000Y-62571800D03*
X154455000Y-62571800D03*
D22*
X153655000Y-59371800D03*
X153015000Y-59371800D03*
D21*
X151335000Y-53851800D03*
X151335000Y-54491800D03*
D18*
X125290000Y-56671800D03*
X125930000Y-56671800D03*
X145015000Y-58571800D03*
X145655000Y-58571800D03*
D22*
X153655000Y-53771800D03*
X153015000Y-53771800D03*
D20*
X111700000Y-86150000D03*
D28*
X123511274Y-55245526D03*
X123058726Y-55698074D03*
D21*
X161440000Y-36419300D03*
X161440000Y-37059300D03*
D22*
X152055000Y-59371800D03*
X151415000Y-59371800D03*
D21*
X146535000Y-53851800D03*
X146535000Y-54491800D03*
D18*
X130084800Y-57130000D03*
X130724800Y-57130000D03*
X143415000Y-57771800D03*
X144055000Y-57771800D03*
D22*
X153655000Y-58571800D03*
X153015000Y-58571800D03*
X153655000Y-56971800D03*
X153015000Y-56971800D03*
D21*
X148935000Y-53851800D03*
X148935000Y-54491800D03*
D24*
X152139800Y-65027200D03*
X152139800Y-66577200D03*
D21*
X148935000Y-52251800D03*
X148935000Y-52891800D03*
D22*
X152855000Y-62571800D03*
X152215000Y-62571800D03*
D18*
X143415000Y-58571800D03*
X144055000Y-58571800D03*
D23*
X146535000Y-60891800D03*
X146535000Y-60251800D03*
D22*
X152055000Y-58571800D03*
X151415000Y-58571800D03*
D24*
X149726800Y-65026600D03*
X149726800Y-66576600D03*
D22*
X153655000Y-54571800D03*
X153015000Y-54571800D03*
D27*
X123858726Y-51698074D03*
X124311274Y-51245526D03*
D21*
X129410000Y-40775000D03*
X129410000Y-41415000D03*
D23*
X150915000Y-38245000D03*
X150915000Y-37605000D03*
X157190000Y-37059300D03*
X157190000Y-36419300D03*
D22*
X153655000Y-55371800D03*
X153015000Y-55371800D03*
D18*
X125365000Y-51070000D03*
X126005000Y-51070000D03*
%LPD*%
M02*
