M48
; DRILL file {KiCad 9.0.0} date 2025-10-22T11:33:18+0200
; FORMAT={-:-/ absolute / metric / decimal}
; #@! TF.CreationDate,2025-10-22T11:33:18+02:00
; #@! TF.GenerationSoftware,Kicad,Pcbnew,9.0.0
; #@! TF.FileFunction,Plated,1,8,PTH
FMAT,2
METRIC
; #@! TA.AperFunction,Plated,PTH,ViaDrill
T1C0.200
; #@! TA.AperFunction,Plated,PTH,ComponentDrill
T2C2.200
%
G90
G05
T1
X114.225Y-32.02
X114.225Y-34.036
X114.225Y-36.052
X114.225Y-38.069
X114.225Y-40.085
X114.225Y-42.101
X114.225Y-44.117
X114.225Y-46.133
X114.225Y-48.149
X114.225Y-50.166
X114.225Y-52.182
X114.225Y-54.198
X114.225Y-56.01
X115.01Y-65.399
X115.01Y-67.415
X115.01Y-69.431
X115.01Y-71.32
X115.01Y-73.645
X115.01Y-75.05
X115.125Y-75.585
X115.635Y-46.56
X115.955Y-59.58
X115.955Y-61.36
X115.96Y-63.383
X115.96Y-65.395
X115.965Y-57.8
X115.975Y-56.02
X116.235Y-71.07
X116.241Y-32.02
X116.625Y-75.585
X117.125Y-39.05
X117.175Y-40.97
X118.125Y-75.585
X118.135Y-74.395
X118.135Y-74.995
X118.257Y-32.02
X118.655Y-39.63
X118.655Y-41.49
X118.655Y-43.35
X118.655Y-45.21
X118.66Y-47.07
X118.935Y-50.62
X118.935Y-55.57
X119.625Y-75.585
X119.635Y-74.395
X119.635Y-74.995
X119.885Y-50.62
X119.885Y-55.57
X120.274Y-32.02
X120.485Y-47.145
X121.125Y-75.585
X121.135Y-74.395
X121.135Y-74.995
X121.445Y-50.272
X121.445Y-56.672
X121.835Y-58.41
X121.835Y-59.385
X122.035Y-47.145
X122.08Y-50.272
X122.085Y-51.072
X122.085Y-51.872
X122.085Y-55.072
X122.085Y-56.672
X122.29Y-32.02
X122.61Y-74.395
X122.61Y-74.995
X122.625Y-75.585
X122.885Y-50.272
X122.885Y-51.072
X122.885Y-51.872
X122.885Y-55.072
X122.885Y-55.872
X122.885Y-56.672
X123.685Y-49.632
X123.685Y-50.272
X123.685Y-51.072
X123.685Y-51.872
X123.685Y-55.072
X123.685Y-55.872
X123.685Y-56.672
X124.125Y-75.585
X124.135Y-73.82
X124.135Y-74.395
X124.135Y-74.995
X124.306Y-32.02
X124.435Y-67.74
X124.435Y-68.695
X124.485Y-50.272
X124.485Y-51.072
X124.485Y-51.872
X124.485Y-55.072
X124.485Y-55.872
X124.485Y-56.672
X124.642Y-49.533
X124.885Y-38.42
X124.885Y-39.06
X125.282Y-49.533
X125.285Y-51.072
X125.285Y-51.872
X125.285Y-55.072
X125.29Y-56.672
X125.31Y-58.445
X125.31Y-59.42
X125.34Y-40.92
X125.385Y-37.495
X125.625Y-75.585
X125.635Y-73.245
X125.635Y-73.82
X125.635Y-74.395
X125.635Y-74.995
X125.745Y-39.92
X125.76Y-64.905
X125.76Y-66.175
X125.76Y-67.445
X125.93Y-56.672
X125.985Y-40.92
X126.063Y-49.198
X126.085Y-51.072
X126.085Y-51.872
X126.085Y-55.072
X126.085Y-55.872
X126.13Y-43.425
X126.16Y-35.495
X126.315Y-37.39
X126.322Y-32.02
X126.385Y-39.92
X126.385Y-42.82
X126.46Y-38.929
X126.76Y-35.445
X126.865Y-37.39
X126.865Y-40.92
X126.885Y-51.072
X126.885Y-51.872
X126.885Y-55.072
X126.885Y-55.872
X126.918Y-43.349
X127.125Y-75.585
X127.135Y-73.245
X127.135Y-73.82
X127.135Y-74.395
X127.135Y-74.995
X127.31Y-39.42
X127.385Y-40.945
X127.394Y-37.92
X127.395Y-37.39
X127.395Y-38.45
X127.42Y-35.345
X127.426Y-40.428
X127.629Y-43.349
X127.685Y-46.97
X127.685Y-48.545
X127.685Y-50.272
X127.685Y-51.072
X127.685Y-51.872
X127.685Y-55.072
X127.685Y-55.872
X128.06Y-35.345
X128.086Y-42.968
X128.325Y-50.272
X128.338Y-32.02
X128.435Y-60.26
X128.435Y-61.22
X128.485Y-51.072
X128.485Y-51.872
X128.485Y-55.072
X128.485Y-55.872
X128.485Y-56.672
X128.625Y-75.585
X128.635Y-73.245
X128.635Y-73.82
X128.635Y-74.395
X128.635Y-74.995
X129.285Y-50.272
X129.285Y-51.072
X129.285Y-51.872
X129.285Y-55.072
X129.285Y-55.872
X129.31Y-47.145
X129.355Y-36.42
X129.41Y-40.775
X129.41Y-41.42
X129.81Y-74.62
X129.985Y-37.47
X129.985Y-38.295
X129.985Y-38.945
X129.985Y-39.545
X130.01Y-42.57
X130.085Y-51.072
X130.085Y-55.872
X130.085Y-57.13
X130.354Y-32.02
X130.375Y-75.585
X130.385Y-75.01
X130.41Y-40.17
X130.735Y-57.13
X130.76Y-41.67
X130.86Y-47.145
X131.16Y-64.905
X131.16Y-66.175
X131.16Y-67.445
X131.16Y-68.715
X131.26Y-74.62
X131.875Y-75.585
X131.885Y-75.01
X132.371Y-32.02
X132.525Y-64.42
X132.525Y-65.37
X132.525Y-66.32
X132.525Y-67.275
X132.525Y-68.225
X132.785Y-69.175
X132.81Y-74.62
X132.83Y-60.915
X133.16Y-32.895
X133.16Y-34.445
X133.375Y-75.585
X133.545Y-64.42
X133.545Y-65.37
X133.545Y-66.32
X133.545Y-67.275
X133.545Y-68.225
X133.545Y-69.175
X133.585Y-54.451
X133.595Y-38.77
X133.62Y-57.245
X134.31Y-36.87
X134.31Y-37.82
X134.31Y-39.72
X134.31Y-40.67
X134.31Y-41.62
X134.31Y-42.57
X134.31Y-43.52
X134.31Y-44.47
X134.31Y-45.42
X134.31Y-46.37
X134.335Y-57.245
X134.36Y-54.461
X134.387Y-32.02
X134.51Y-68.17
X134.875Y-75.585
X135.17Y-39.845
X135.81Y-39.845
X135.815Y-33.445
X135.815Y-34.245
X135.815Y-35.045
X135.815Y-38.245
X135.815Y-39.045
X135.99Y-42.12
X136.135Y-45.772
X136.135Y-46.572
X136.135Y-47.372
X136.135Y-48.172
X136.135Y-48.972
X136.135Y-50.572
X136.135Y-51.372
X136.135Y-52.172
X136.135Y-52.972
X136.135Y-60.172
X136.135Y-61.772
X136.135Y-62.572
X136.135Y-63.372
X136.135Y-64.172
X136.135Y-65.772
X136.135Y-66.572
X136.135Y-67.372
X136.135Y-68.172
X136.135Y-68.972
X136.375Y-75.585
X136.403Y-32.02
X136.555Y-72.36
X136.615Y-33.445
X136.615Y-34.245
X136.615Y-35.045
X136.615Y-38.245
X136.615Y-39.045
X136.615Y-39.845
X136.935Y-45.772
X136.935Y-46.572
X136.935Y-47.372
X136.935Y-48.172
X136.935Y-48.972
X136.935Y-50.572
X136.935Y-51.372
X136.935Y-52.172
X136.935Y-52.972
X136.935Y-54.572
X136.935Y-56.172
X136.935Y-58.572
X136.935Y-60.172
X136.935Y-61.772
X136.935Y-62.572
X136.935Y-63.372
X136.935Y-64.172
X136.935Y-66.572
X136.935Y-68.972
X136.935Y-69.772
X137.36Y-67.747
X137.415Y-33.445
X137.415Y-34.245
X137.415Y-35.045
X137.415Y-38.245
X137.415Y-39.045
X137.54Y-42.12
X137.56Y-37.245
X137.585Y-73.305
X137.735Y-46.572
X137.735Y-47.372
X137.735Y-48.172
X137.735Y-48.972
X137.735Y-50.572
X137.735Y-51.372
X137.735Y-52.172
X137.735Y-52.972
X137.735Y-54.572
X137.735Y-59.372
X137.735Y-60.172
X137.735Y-61.772
X137.735Y-62.572
X137.735Y-63.372
X137.735Y-64.172
X137.735Y-65.772
X137.735Y-66.572
X137.735Y-67.372
X137.735Y-68.172
X137.735Y-68.972
X137.735Y-69.772
X137.875Y-75.585
X138.419Y-32.02
X138.535Y-46.572
X138.535Y-47.372
X138.535Y-48.172
X138.535Y-48.972
X138.535Y-51.372
X138.535Y-52.172
X138.535Y-52.972
X138.535Y-54.572
X138.535Y-58.572
X138.535Y-59.372
X138.535Y-60.172
X138.535Y-61.772
X138.535Y-63.372
X138.535Y-64.172
X138.535Y-65.772
X138.535Y-67.372
X138.535Y-73.305
X138.985Y-37.12
X139.015Y-33.445
X139.015Y-35.045
X139.015Y-38.245
X139.015Y-39.845
X139.335Y-45.772
X139.335Y-46.572
X139.335Y-47.372
X139.335Y-48.172
X139.335Y-48.972
X139.335Y-50.572
X139.335Y-51.372
X139.335Y-52.172
X139.335Y-54.572
X139.335Y-56.172
X139.335Y-57.772
X139.335Y-58.572
X139.335Y-59.372
X139.335Y-60.172
X139.335Y-61.772
X139.335Y-62.572
X139.335Y-63.372
X139.335Y-64.172
X139.335Y-66.572
X139.335Y-68.172
X139.335Y-68.972
X139.335Y-69.772
X139.375Y-75.585
X139.485Y-73.305
X139.815Y-33.445
X139.815Y-34.245
X139.815Y-35.045
X139.815Y-38.245
X139.815Y-39.045
X139.815Y-39.845
X139.96Y-68.195
X139.985Y-75.02
X140.135Y-50.572
X140.135Y-51.372
X140.135Y-52.172
X140.135Y-52.972
X140.135Y-54.572
X140.135Y-55.372
X140.135Y-57.772
X140.135Y-58.572
X140.135Y-60.172
X140.135Y-61.772
X140.135Y-62.572
X140.135Y-63.372
X140.135Y-64.172
X140.435Y-73.315
X140.435Y-32.02
X140.49Y-42.095
X140.61Y-75.02
X140.615Y-33.445
X140.615Y-34.245
X140.615Y-35.045
X140.615Y-37.605
X140.615Y-38.245
X140.615Y-39.045
X140.615Y-39.845
X140.875Y-75.585
X140.935Y-44.972
X140.935Y-45.772
X140.935Y-46.572
X140.935Y-47.372
X140.935Y-52.172
X140.935Y-52.972
X140.935Y-54.572
X140.935Y-55.372
X140.935Y-56.972
X140.935Y-57.772
X140.935Y-58.572
X140.935Y-60.172
X140.935Y-61.772
X140.935Y-62.572
X140.935Y-63.372
X140.935Y-66.572
X140.935Y-67.372
X140.935Y-68.172
X140.935Y-68.972
X140.935Y-69.772
X141.285Y-75.02
X141.36Y-73.27
X141.415Y-33.445
X141.415Y-34.245
X141.415Y-35.045
X141.415Y-38.245
X141.415Y-39.045
X141.415Y-39.845
X141.735Y-45.772
X141.735Y-46.572
X141.735Y-47.372
X141.735Y-48.172
X141.735Y-48.972
X141.735Y-66.572
X141.735Y-67.372
X141.735Y-68.172
X141.735Y-68.972
X141.735Y-69.772
X141.86Y-56.57
X141.86Y-57.37
X141.865Y-61.98
X141.885Y-58.145
X141.885Y-58.97
X141.885Y-59.745
X141.885Y-75.02
X141.91Y-55.945
X142.04Y-42.095
X142.215Y-33.445
X142.215Y-34.245
X142.215Y-35.045
X142.215Y-38.245
X142.215Y-39.045
X142.22Y-39.845
X142.375Y-75.585
X142.451Y-32.02
X142.535Y-45.772
X142.535Y-46.572
X142.535Y-47.372
X142.535Y-48.172
X142.535Y-48.972
X142.535Y-65.772
X142.535Y-66.572
X142.535Y-67.372
X142.535Y-68.972
X142.535Y-69.772
X142.995Y-39.84
X143.285Y-74.595
X143.335Y-45.772
X143.335Y-46.572
X143.335Y-47.372
X143.335Y-48.172
X143.335Y-48.972
X143.335Y-52.172
X143.335Y-52.972
X143.335Y-53.772
X143.335Y-54.572
X143.335Y-55.372
X143.335Y-56.172
X143.335Y-56.972
X143.335Y-57.772
X143.335Y-58.572
X143.335Y-59.372
X143.335Y-60.172
X143.335Y-60.972
X143.335Y-61.772
X143.335Y-62.572
X143.335Y-67.372
X143.86Y-75.02
X143.875Y-75.585
X143.9Y-34.52
X143.9Y-36.645
X143.9Y-38.795
X144.135Y-45.772
X144.135Y-46.572
X144.135Y-47.372
X144.135Y-48.172
X144.135Y-48.972
X144.135Y-52.172
X144.135Y-52.972
X144.135Y-53.772
X144.135Y-54.572
X144.135Y-55.372
X144.135Y-56.172
X144.135Y-56.972
X144.135Y-57.772
X144.135Y-58.572
X144.135Y-59.372
X144.135Y-60.172
X144.135Y-60.972
X144.135Y-61.772
X144.135Y-62.572
X144.135Y-64.972
X144.135Y-65.772
X144.135Y-66.572
X144.135Y-67.372
X144.135Y-68.172
X144.135Y-68.972
X144.135Y-69.772
X144.16Y-32.97
X144.175Y-40.36
X144.42Y-34.52
X144.42Y-36.645
X144.42Y-38.795
X144.468Y-32.02
X144.81Y-74.595
X144.935Y-52.172
X144.935Y-52.972
X144.935Y-53.772
X144.935Y-54.572
X144.935Y-55.372
X144.935Y-56.172
X144.935Y-56.972
X144.935Y-57.772
X144.935Y-58.572
X144.935Y-59.372
X144.935Y-60.172
X144.935Y-60.972
X144.935Y-61.772
X144.935Y-62.572
X144.935Y-64.972
X144.935Y-65.772
X144.935Y-66.572
X144.935Y-67.372
X144.935Y-68.972
X144.935Y-69.772
X145.36Y-75.01
X145.375Y-75.585
X145.47Y-39.845
X145.735Y-45.772
X145.735Y-46.572
X145.735Y-47.372
X145.735Y-48.172
X145.735Y-48.972
X145.735Y-52.172
X145.735Y-52.972
X145.735Y-53.772
X145.735Y-54.572
X145.735Y-55.372
X145.735Y-56.172
X145.735Y-56.972
X145.735Y-57.772
X145.735Y-58.572
X145.735Y-59.372
X145.735Y-60.172
X145.735Y-60.972
X145.735Y-61.772
X145.735Y-62.572
X145.735Y-67.372
X145.739Y-65.027
X145.739Y-66.577
X146.11Y-39.845
X146.115Y-33.445
X146.115Y-34.245
X146.115Y-35.045
X146.115Y-38.245
X146.115Y-39.045
X146.285Y-42.145
X146.31Y-74.595
X146.385Y-36.095
X146.484Y-32.02
X146.535Y-45.772
X146.535Y-46.572
X146.535Y-47.372
X146.535Y-48.172
X146.535Y-48.972
X146.535Y-52.172
X146.535Y-52.972
X146.535Y-53.772
X146.535Y-54.572
X146.535Y-55.372
X146.535Y-56.172
X146.535Y-56.972
X146.535Y-57.772
X146.535Y-58.572
X146.535Y-59.372
X146.535Y-60.172
X146.535Y-60.972
X146.535Y-61.772
X146.535Y-62.572
X146.535Y-64.972
X146.535Y-65.772
X146.535Y-66.572
X146.535Y-67.372
X146.535Y-68.172
X146.535Y-68.972
X146.535Y-69.772
X146.86Y-75.01
X146.875Y-75.585
X146.915Y-33.445
X146.915Y-34.245
X146.915Y-35.045
X146.915Y-38.245
X146.915Y-39.045
X146.915Y-39.845
X147.335Y-45.772
X147.335Y-46.572
X147.335Y-47.372
X147.335Y-48.172
X147.335Y-52.172
X147.335Y-52.972
X147.335Y-53.772
X147.335Y-54.572
X147.335Y-55.372
X147.335Y-56.172
X147.335Y-56.972
X147.335Y-57.772
X147.335Y-58.572
X147.335Y-59.372
X147.335Y-60.172
X147.335Y-60.972
X147.335Y-61.772
X147.335Y-62.572
X147.335Y-64.972
X147.335Y-65.772
X147.335Y-66.572
X147.335Y-67.372
X147.335Y-68.972
X147.335Y-69.772
X147.715Y-33.445
X147.715Y-34.245
X147.715Y-35.045
X147.715Y-38.245
X147.715Y-39.045
X147.81Y-74.595
X147.84Y-42.145
X148.115Y-63.78
X148.135Y-45.772
X148.135Y-46.572
X148.135Y-47.372
X148.135Y-48.172
X148.135Y-52.172
X148.135Y-52.972
X148.135Y-53.772
X148.135Y-54.572
X148.135Y-55.372
X148.135Y-56.172
X148.135Y-56.972
X148.135Y-57.772
X148.135Y-58.572
X148.135Y-59.372
X148.135Y-60.172
X148.135Y-60.972
X148.135Y-61.772
X148.135Y-62.572
X148.135Y-64.972
X148.135Y-65.772
X148.135Y-66.572
X148.135Y-67.372
X148.375Y-75.585
X148.385Y-75.01
X148.5Y-32.02
X148.515Y-34.245
X148.935Y-44.972
X148.935Y-45.772
X148.935Y-46.572
X148.935Y-47.372
X148.935Y-48.172
X148.935Y-52.172
X148.935Y-52.972
X148.935Y-53.772
X148.935Y-54.572
X148.935Y-55.372
X148.935Y-56.172
X148.935Y-56.972
X148.935Y-57.772
X148.935Y-58.572
X148.935Y-59.372
X148.935Y-60.172
X148.935Y-60.972
X148.935Y-61.772
X148.935Y-62.572
X148.935Y-64.972
X148.935Y-65.772
X148.935Y-66.572
X148.935Y-67.372
X148.935Y-68.172
X148.935Y-68.972
X148.935Y-69.772
X149.035Y-63.78
X149.31Y-74.57
X149.315Y-33.445
X149.315Y-35.045
X149.315Y-38.245
X149.315Y-39.845
X149.727Y-65.027
X149.727Y-66.577
X149.735Y-44.972
X149.735Y-45.772
X149.735Y-46.572
X149.735Y-47.372
X149.735Y-48.172
X149.735Y-52.172
X149.735Y-52.972
X149.735Y-53.772
X149.735Y-54.572
X149.735Y-55.372
X149.735Y-56.172
X149.735Y-56.972
X149.735Y-57.772
X149.735Y-58.572
X149.735Y-59.372
X149.735Y-60.172
X149.735Y-60.972
X149.735Y-61.772
X149.735Y-62.572
X149.735Y-67.372
X149.735Y-68.972
X149.735Y-69.772
X149.86Y-75.01
X149.875Y-75.585
X150.115Y-33.445
X150.115Y-34.245
X150.115Y-35.045
X150.115Y-38.245
X150.115Y-39.045
X150.115Y-39.845
X150.435Y-63.78
X150.516Y-32.02
X150.535Y-44.972
X150.535Y-45.772
X150.535Y-46.572
X150.535Y-47.372
X150.535Y-52.172
X150.535Y-52.972
X150.535Y-53.772
X150.535Y-54.572
X150.535Y-55.372
X150.535Y-56.172
X150.535Y-56.972
X150.535Y-57.772
X150.535Y-58.572
X150.535Y-59.372
X150.535Y-60.172
X150.535Y-60.972
X150.535Y-61.772
X150.535Y-62.572
X150.535Y-64.972
X150.535Y-65.772
X150.535Y-66.572
X150.535Y-67.372
X150.79Y-42.145
X150.875Y-75.585
X150.885Y-75.02
X150.915Y-33.445
X150.915Y-34.245
X150.915Y-35.045
X150.915Y-37.605
X150.915Y-38.245
X150.915Y-39.045
X150.915Y-39.845
X151.335Y-45.772
X151.335Y-46.572
X151.335Y-47.372
X151.335Y-48.172
X151.335Y-48.972
X151.335Y-52.172
X151.335Y-52.972
X151.335Y-53.772
X151.335Y-54.572
X151.335Y-55.372
X151.335Y-56.172
X151.335Y-56.972
X151.335Y-57.772
X151.335Y-58.572
X151.335Y-59.372
X151.335Y-60.172
X151.335Y-60.972
X151.335Y-61.772
X151.335Y-62.572
X151.335Y-64.972
X151.335Y-65.772
X151.335Y-66.572
X151.335Y-67.372
X151.335Y-68.172
X151.335Y-68.972
X151.335Y-69.772
X151.365Y-63.78
X151.715Y-33.445
X151.715Y-34.245
X151.715Y-35.045
X151.715Y-38.245
X151.715Y-39.045
X151.715Y-39.845
X152.135Y-52.172
X152.135Y-52.972
X152.135Y-53.772
X152.135Y-54.572
X152.135Y-55.372
X152.135Y-56.172
X152.135Y-56.972
X152.135Y-57.772
X152.135Y-58.572
X152.135Y-59.372
X152.135Y-60.172
X152.135Y-60.972
X152.135Y-61.772
X152.135Y-62.572
X152.135Y-67.372
X152.135Y-68.972
X152.135Y-69.772
X152.14Y-65.027
X152.14Y-66.577
X152.34Y-42.145
X152.515Y-33.445
X152.515Y-34.245
X152.515Y-35.045
X152.515Y-38.245
X152.515Y-39.045
X152.52Y-39.845
X152.532Y-32.02
X152.935Y-45.772
X152.935Y-46.572
X152.935Y-47.372
X152.935Y-48.172
X152.935Y-48.972
X152.935Y-52.172
X152.935Y-52.972
X152.935Y-53.772
X152.935Y-54.572
X152.935Y-55.372
X152.935Y-56.172
X152.935Y-56.972
X152.935Y-57.772
X152.935Y-58.572
X152.935Y-59.372
X152.935Y-60.172
X152.935Y-60.972
X152.935Y-61.772
X152.935Y-62.572
X152.935Y-64.972
X152.935Y-65.772
X152.935Y-66.572
X152.935Y-67.372
X153.125Y-75.585
X153.135Y-74.445
X153.135Y-75.02
X153.335Y-39.845
X153.735Y-45.772
X153.735Y-46.572
X153.735Y-47.372
X153.735Y-48.172
X153.735Y-48.972
X153.735Y-52.172
X153.735Y-52.972
X153.735Y-53.772
X153.735Y-54.572
X153.735Y-55.372
X153.735Y-56.172
X153.735Y-56.972
X153.735Y-57.772
X153.735Y-58.572
X153.735Y-59.372
X153.735Y-60.172
X153.735Y-60.972
X153.735Y-61.772
X153.735Y-62.572
X153.735Y-64.972
X153.735Y-65.772
X153.735Y-66.572
X153.735Y-67.372
X153.735Y-68.172
X153.735Y-68.972
X153.735Y-69.772
X154.535Y-45.772
X154.535Y-46.572
X154.535Y-47.372
X154.535Y-48.172
X154.535Y-48.972
X154.535Y-66.572
X154.535Y-67.372
X154.535Y-68.972
X154.535Y-69.772
X154.549Y-32.02
X154.61Y-74.445
X154.61Y-75.035
X154.625Y-75.585
X154.685Y-32.96
X154.685Y-33.92
X154.685Y-35.102
X154.685Y-36.062
X154.685Y-37.243
X154.685Y-38.203
X154.975Y-62.57
X155.035Y-53.022
X155.035Y-53.982
X155.335Y-45.772
X155.335Y-46.572
X155.335Y-47.372
X155.335Y-48.172
X155.335Y-48.972
X155.598Y-74.283
X156.022Y-74.707
X156.125Y-75.585
X156.135Y-45.772
X156.135Y-46.572
X156.135Y-47.372
X156.135Y-52.172
X156.135Y-54.572
X156.135Y-60.172
X156.135Y-66.572
X156.135Y-67.372
X156.135Y-68.172
X156.135Y-68.972
X156.135Y-69.772
X156.51Y-36.364
X156.51Y-37.004
X156.525Y-35.59
X156.535Y-34.81
X156.545Y-34.04
X156.565Y-32.02
X156.935Y-50.572
X156.935Y-52.172
X156.935Y-54.572
X156.935Y-56.172
X156.935Y-56.972
X156.935Y-60.172
X156.935Y-61.772
X157.135Y-74.308
X157.545Y-34.43
X157.547Y-74.732
X157.548Y-35.203
X157.625Y-75.585
X157.735Y-44.972
X157.735Y-45.772
X157.735Y-46.572
X157.735Y-47.372
X157.735Y-48.172
X157.735Y-50.572
X157.735Y-51.372
X157.735Y-54.572
X157.735Y-55.372
X157.735Y-56.172
X157.735Y-56.972
X157.735Y-58.572
X157.735Y-61.772
X157.735Y-62.572
X157.735Y-63.372
X157.735Y-65.772
X157.735Y-66.572
X157.735Y-67.372
X157.735Y-68.172
X157.735Y-68.972
X157.735Y-69.772
X158.275Y-36.67
X158.275Y-37.38
X158.275Y-38.17
X158.275Y-38.95
X158.301Y-35.186
X158.311Y-34.426
X158.319Y-35.936
X158.535Y-44.972
X158.535Y-45.772
X158.535Y-47.372
X158.535Y-48.172
X158.535Y-54.572
X158.535Y-55.372
X158.535Y-56.172
X158.535Y-57.772
X158.535Y-58.572
X158.535Y-59.372
X158.535Y-60.172
X158.535Y-61.772
X158.535Y-63.372
X158.535Y-66.572
X158.535Y-68.172
X158.535Y-68.972
X158.535Y-69.772
X158.581Y-32.02
X158.615Y-74.34
X159.022Y-74.757
X159.035Y-36.68
X159.035Y-37.4
X159.035Y-38.17
X159.035Y-38.92
X159.064Y-35.931
X159.125Y-75.585
X159.335Y-44.972
X159.335Y-45.772
X159.335Y-48.172
X159.335Y-48.972
X159.335Y-50.572
X159.335Y-52.972
X159.335Y-54.572
X159.335Y-55.372
X159.335Y-61.772
X159.335Y-62.572
X159.335Y-68.172
X159.335Y-68.972
X159.335Y-69.772
X159.775Y-35.92
X159.795Y-36.676
X159.795Y-38.17
X159.795Y-38.93
X159.802Y-34.433
X159.819Y-35.186
X160.085Y-74.34
X160.135Y-44.972
X160.135Y-45.772
X160.135Y-46.572
X160.135Y-48.172
X160.135Y-48.972
X160.135Y-50.572
X160.135Y-51.372
X160.135Y-52.172
X160.135Y-52.972
X160.135Y-54.572
X160.135Y-55.372
X160.135Y-56.172
X160.135Y-56.972
X160.135Y-58.572
X160.135Y-59.372
X160.135Y-60.172
X160.135Y-61.772
X160.135Y-62.572
X160.135Y-63.372
X160.135Y-64.172
X160.135Y-66.572
X160.135Y-68.972
X160.135Y-69.772
X160.497Y-74.782
X160.552Y-34.41
X160.557Y-35.188
X160.559Y-35.926
X160.559Y-37.426
X160.569Y-36.686
X160.597Y-32.02
X160.625Y-75.585
X160.935Y-45.772
X160.935Y-48.172
X160.935Y-51.372
X160.935Y-54.572
X160.935Y-55.372
X160.935Y-56.172
X160.935Y-56.972
X160.935Y-57.772
X160.935Y-60.172
X161.435Y-36.364
X161.435Y-37.059
X161.515Y-35.58
X161.525Y-34.81
X162.125Y-75.585
X162.613Y-32.02
X163.523Y-74.807
X163.625Y-75.585
X163.815Y-38.87
X163.947Y-74.383
X164.142Y-64.25
X164.142Y-65.015
X164.142Y-65.78
X164.142Y-66.545
X164.142Y-67.31
X164.142Y-68.075
X164.18Y-56.845
X164.18Y-57.61
X164.18Y-58.375
X164.18Y-59.14
X164.18Y-59.905
X164.18Y-60.67
X164.21Y-49.47
X164.21Y-50.235
X164.21Y-51.0
X164.21Y-51.765
X164.21Y-52.53
X164.21Y-53.295
X164.235Y-42.12
X164.235Y-42.885
X164.235Y-43.65
X164.235Y-44.415
X164.235Y-45.18
X164.235Y-45.945
X164.265Y-39.55
X164.545Y-34.15
X164.629Y-32.02
X165.065Y-39.8
X165.105Y-36.995
X165.105Y-37.92
X165.125Y-75.585
X165.242Y-62.745
X165.273Y-74.857
X165.28Y-55.395
X165.325Y-48.045
X165.35Y-40.695
X165.542Y-68.8
X165.58Y-61.495
X165.625Y-54.145
X165.65Y-46.795
X165.697Y-74.433
X165.843Y-62.745
X165.88Y-55.395
X165.925Y-48.045
X165.95Y-40.695
X166.065Y-36.995
X166.095Y-38.85
X166.095Y-39.79
X166.348Y-74.307
X166.625Y-75.585
X166.646Y-32.02
X166.772Y-73.883
X167.192Y-68.55
X167.192Y-69.15
X167.237Y-61.2
X167.237Y-61.8
X167.265Y-57.83
X167.282Y-53.85
X167.282Y-54.45
X167.308Y-46.5
X167.308Y-47.1
X167.41Y-38.47
X167.68Y-63.225
X167.718Y-55.895
X167.748Y-49.845
X167.797Y-41.22
X167.797Y-42.52
X167.873Y-74.108
X167.955Y-48.05
X168.125Y-75.585
X168.297Y-74.532
X168.635Y-48.1
X168.662Y-32.02
X168.792Y-68.55
X168.792Y-69.15
X168.838Y-61.2
X168.838Y-61.8
X168.875Y-40.9
X168.882Y-53.85
X168.882Y-54.45
X168.885Y-55.62
X168.907Y-46.5
X168.907Y-47.1
X169.035Y-62.77
X169.373Y-74.108
X169.625Y-75.585
X169.732Y-34.16
X169.797Y-74.532
X170.022Y-49.195
X170.072Y-41.87
X170.365Y-63.87
X170.392Y-68.55
X170.392Y-69.15
X170.438Y-61.2
X170.438Y-61.8
X170.482Y-53.85
X170.482Y-54.45
X170.507Y-46.5
X170.507Y-47.1
X170.645Y-56.545
X170.678Y-32.02
X170.695Y-55.895
X170.725Y-63.22
X170.873Y-74.133
X171.125Y-75.585
X171.297Y-74.557
X171.375Y-37.52
X171.375Y-38.47
X171.375Y-39.41
X171.38Y-48.545
X171.43Y-41.22
X171.873Y-73.108
X171.985Y-68.545
X171.985Y-69.145
X172.035Y-61.19
X172.035Y-61.79
X172.08Y-53.84
X172.08Y-54.44
X172.105Y-46.49
X172.105Y-47.09
X172.297Y-73.532
X172.34Y-48.545
X172.39Y-41.22
X172.395Y-37.52
X172.395Y-38.47
X172.395Y-39.41
X172.423Y-74.083
X172.625Y-75.585
X172.694Y-32.02
X172.778Y-34.16
X172.847Y-74.507
X173.11Y-37.42
X173.398Y-73.108
X173.41Y-38.375
X173.41Y-39.245
X173.41Y-40.205
X173.585Y-68.545
X173.585Y-69.145
X173.635Y-61.19
X173.635Y-61.79
X173.68Y-53.84
X173.68Y-54.44
X173.705Y-46.49
X173.705Y-47.09
X173.76Y-37.42
X173.822Y-73.532
X173.923Y-74.058
X174.125Y-75.585
X174.347Y-74.482
X174.46Y-63.145
X174.46Y-63.745
X174.51Y-55.79
X174.51Y-56.39
X174.555Y-48.44
X174.555Y-49.04
X174.58Y-41.09
X174.58Y-41.69
X174.71Y-32.02
X174.923Y-73.058
X175.185Y-68.545
X175.185Y-69.145
X175.235Y-61.19
X175.235Y-61.79
X175.26Y-63.145
X175.26Y-63.745
X175.28Y-53.84
X175.28Y-54.44
X175.305Y-46.49
X175.305Y-47.09
X175.31Y-55.79
X175.31Y-56.39
X175.347Y-73.482
X175.355Y-48.44
X175.355Y-49.04
X175.38Y-41.09
X175.38Y-41.69
X175.473Y-73.983
X175.625Y-75.585
X175.885Y-60.465
X175.897Y-74.407
X175.93Y-53.115
X175.955Y-45.765
X176.385Y-69.145
X176.435Y-61.79
X176.48Y-54.44
X176.505Y-47.09
X176.726Y-32.02
X176.998Y-73.958
X177.11Y-38.67
X177.125Y-75.585
X177.185Y-67.445
X177.185Y-68.045
X177.185Y-68.645
X177.235Y-60.09
X177.235Y-60.69
X177.235Y-61.29
X177.28Y-52.74
X177.28Y-53.34
X177.28Y-53.94
X177.305Y-45.39
X177.305Y-45.99
X177.305Y-46.59
X177.422Y-74.382
X177.91Y-66.695
X177.91Y-67.835
X177.935Y-60.465
X177.96Y-59.34
X177.98Y-53.115
X177.985Y-69.145
X178.005Y-45.765
X178.005Y-51.99
X178.03Y-44.64
X178.035Y-61.79
X178.08Y-54.44
X178.105Y-47.09
X178.498Y-73.933
X178.581Y-75.556
X178.743Y-32.02
X178.922Y-74.357
X179.125Y-75.585
X179.785Y-63.245
X179.785Y-64.22
X179.785Y-65.195
X179.785Y-66.17
X179.835Y-55.89
X179.835Y-56.865
X179.835Y-57.84
X179.835Y-58.815
X179.84Y-61.865
X179.88Y-48.54
X179.88Y-49.515
X179.88Y-50.49
X179.88Y-51.465
X179.885Y-54.515
X179.905Y-41.19
X179.905Y-42.165
X179.905Y-43.14
X179.905Y-44.115
X179.91Y-47.165
X180.135Y-75.42
X180.735Y-75.42
X180.759Y-32.02
X181.025Y-56.02
X181.03Y-63.393
X181.03Y-65.405
X181.035Y-57.8
X181.045Y-59.58
X181.045Y-61.36
X181.335Y-75.42
X181.98Y-65.409
X181.98Y-67.425
X181.98Y-69.441
X181.98Y-73.645
X181.98Y-74.52
X181.985Y-71.345
X182.775Y-32.02
X182.775Y-34.036
X182.775Y-36.052
X182.775Y-38.069
X182.775Y-40.085
X182.775Y-42.101
X182.775Y-44.117
X182.775Y-46.133
X182.775Y-48.149
X182.775Y-50.166
X182.775Y-52.182
X182.775Y-54.198
X182.775Y-56.01
T2
X116.7Y-35.49
X131.635Y-71.87
X165.46Y-71.87
X180.3Y-35.49
M30
