M48
; DRILL file {KiCad 9.0.0} date 2025-10-22T11:33:18+0200
; FORMAT={-:-/ absolute / metric / decimal}
; #@! TF.CreationDate,2025-10-22T11:33:18+02:00
; #@! TF.GenerationSoftware,Kicad,Pcbnew,9.0.0
; #@! TF.FileFunction,NonPlated,1,8,NPTH
FMAT,2
METRIC
; #@! TA.AperFunction,NonPlated,NPTH,ComponentDrill
T1C0.600
; #@! TA.AperFunction,NonPlated,NPTH,ComponentDrill
T2C1.152
; #@! TA.AperFunction,NonPlated,NPTH,ComponentDrill
T3C1.800
%
G90
G05
T1
X106.7Y-31.5
X106.7Y-78.5
X107.7Y-31.5
X107.7Y-78.5
X108.7Y-31.5
X108.7Y-78.5
X109.7Y-31.5
X109.7Y-78.5
X110.7Y-31.5
X110.7Y-78.5
X111.7Y-31.5
X111.7Y-78.5
X113.3Y-33.99
X113.3Y-34.99
X113.3Y-35.99
X113.3Y-36.99
X113.3Y-49.18
X113.3Y-50.18
X113.3Y-51.18
X113.3Y-52.18
X113.3Y-61.84
X113.3Y-62.84
X113.3Y-63.84
X113.3Y-64.84
X113.3Y-71.24
X113.3Y-72.24
X113.3Y-73.24
X113.3Y-74.24
X113.7Y-20.0
X113.7Y-21.056
X113.7Y-22.111
X113.7Y-23.167
X113.7Y-24.222
X113.7Y-25.278
X113.7Y-26.333
X113.7Y-27.389
X113.7Y-28.444
X113.7Y-29.5
X113.7Y-80.5
X113.7Y-81.556
X113.7Y-82.611
X113.7Y-83.667
X113.7Y-84.722
X113.7Y-85.778
X113.7Y-86.833
X113.7Y-87.889
X113.7Y-88.944
X113.7Y-90.0
X116.2Y-31.1
X117.2Y-31.1
X118.2Y-31.1
X119.2Y-31.1
X131.661Y-31.1
X132.661Y-31.1
X133.661Y-31.1
X134.661Y-31.1
X147.123Y-31.1
X148.123Y-31.1
X149.123Y-31.1
X150.123Y-31.1
X162.584Y-31.1
X163.584Y-31.1
X164.584Y-31.1
X165.584Y-31.1
X178.045Y-31.1
X179.045Y-31.1
X180.045Y-31.1
X181.045Y-31.1
X183.3Y-20.0
X183.3Y-21.056
X183.3Y-22.111
X183.3Y-23.167
X183.3Y-24.222
X183.3Y-25.278
X183.3Y-26.333
X183.3Y-27.389
X183.3Y-28.444
X183.3Y-29.5
X183.3Y-80.5
X183.3Y-81.556
X183.3Y-82.611
X183.3Y-83.667
X183.3Y-84.722
X183.3Y-85.778
X183.3Y-86.833
X183.3Y-87.889
X183.3Y-88.944
X183.3Y-90.0
X183.7Y-33.99
X183.7Y-34.99
X183.7Y-35.99
X183.7Y-36.99
X183.7Y-49.18
X183.7Y-50.18
X183.7Y-51.18
X183.7Y-52.18
X183.7Y-61.84
X183.7Y-62.84
X183.7Y-63.84
X183.7Y-64.84
X183.7Y-71.24
X183.7Y-72.24
X183.7Y-73.24
X183.7Y-74.24
X185.3Y-31.5
X185.3Y-78.5
X186.3Y-31.5
X186.3Y-78.5
X187.3Y-31.5
X187.3Y-78.5
X188.3Y-31.5
X188.3Y-78.5
X189.3Y-31.5
X189.3Y-78.5
X190.3Y-31.5
X190.3Y-78.5
T2
X109.2Y-22.5
X109.2Y-87.5
X187.8Y-22.5
T3
X115.7Y-72.5
X181.3Y-72.5
M30
