G04 #@! TF.GenerationSoftware,KiCad,Pcbnew,9.0.0*
G04 #@! TF.CreationDate,2025-10-22T11:33:07+02:00*
G04 #@! TF.ProjectId,ecap5-bsom-frame,65636170-352d-4627-936f-6d2d6672616d,rev?*
G04 #@! TF.SameCoordinates,Original*
G04 #@! TF.FileFunction,Copper,L6,Inr*
G04 #@! TF.FilePolarity,Positive*
%FSLAX46Y46*%
G04 Gerber Fmt 4.6, Leading zero omitted, Abs format (unit mm)*
G04 Created by KiCad (PCBNEW 9.0.0) date 2025-10-22 11:33:07*
%MOMM*%
%LPD*%
G01*
G04 APERTURE LIST*
G04 #@! TA.AperFunction,ComponentPad*
%ADD10C,2.600000*%
G04 #@! TD*
G04 #@! TA.AperFunction,ViaPad*
%ADD11C,0.450000*%
G04 #@! TD*
G04 #@! TA.AperFunction,ViaPad*
%ADD12C,0.410000*%
G04 #@! TD*
G04 #@! TA.AperFunction,Conductor*
%ADD13C,0.150000*%
G04 #@! TD*
G04 #@! TA.AperFunction,Conductor*
%ADD14C,0.156464*%
G04 #@! TD*
G04 #@! TA.AperFunction,Conductor*
%ADD15C,0.120000*%
G04 #@! TD*
G04 APERTURE END LIST*
D10*
X180300000Y-35489800D03*
X116700000Y-35489800D03*
X165460000Y-71870000D03*
X131635000Y-71870000D03*
D11*
X164142500Y-65015000D03*
D12*
X152135000Y-60971800D03*
X152135000Y-60171800D03*
X146535000Y-53771800D03*
X152135000Y-56171800D03*
D11*
X164142500Y-64250000D03*
X164142500Y-66545000D03*
D12*
X145735000Y-60971800D03*
D11*
X151365000Y-63780000D03*
D12*
X144935000Y-54571800D03*
X148935000Y-60971800D03*
X151335000Y-60971800D03*
X147335000Y-53771800D03*
X144935000Y-59371800D03*
D11*
X172778333Y-34160000D03*
D12*
X144935000Y-55371800D03*
X145735000Y-53771800D03*
X147335000Y-60971800D03*
X150535000Y-53771800D03*
X152135000Y-58571800D03*
X144935000Y-56171800D03*
D11*
X164142500Y-67310000D03*
D12*
X152135000Y-57771800D03*
X144935000Y-60171800D03*
X152135000Y-59371800D03*
X144935000Y-57771800D03*
X144935000Y-60971800D03*
X152135000Y-56971800D03*
X148935000Y-53771800D03*
D11*
X149035000Y-63780000D03*
D12*
X144935000Y-53771800D03*
X152135000Y-54571800D03*
X144935000Y-56971800D03*
X150535000Y-60971800D03*
X148135000Y-53771800D03*
X148135000Y-60971800D03*
X149726800Y-65026600D03*
D11*
X150435000Y-63780000D03*
D12*
X152139800Y-65027200D03*
X152135000Y-55371800D03*
D11*
X164142500Y-68075000D03*
X148115000Y-63780000D03*
D12*
X151335000Y-53771800D03*
X149735000Y-53771800D03*
X152135000Y-53771800D03*
X145739000Y-65026600D03*
X144935000Y-58571800D03*
D11*
X164142500Y-65780000D03*
D12*
X146535000Y-60971800D03*
X149735000Y-60971800D03*
D11*
X164235000Y-42120000D03*
D12*
X123685000Y-50271800D03*
X125310000Y-58445000D03*
X143335000Y-55371800D03*
X119885000Y-55570000D03*
D11*
X164545000Y-34150000D03*
D12*
X122080000Y-50271800D03*
X125290000Y-56671800D03*
D11*
X134310000Y-44470000D03*
D12*
X119885000Y-50620000D03*
X127685000Y-50271800D03*
X122085000Y-56671800D03*
X130085000Y-57130000D03*
X143335000Y-53771800D03*
X143335000Y-56971800D03*
X127395000Y-37390000D03*
X133620000Y-57245000D03*
D11*
X134310000Y-36870000D03*
D12*
X121835000Y-58410000D03*
D11*
X134310000Y-40670000D03*
X164235000Y-44415000D03*
X134310000Y-39720000D03*
X134310000Y-46370000D03*
X134310000Y-37820000D03*
X164235000Y-45945000D03*
D12*
X123685000Y-56671800D03*
X125281800Y-49533200D03*
D11*
X134310000Y-42570000D03*
D12*
X125985000Y-40920000D03*
X143335000Y-56171800D03*
D11*
X164235000Y-42885000D03*
D12*
X127685000Y-48545000D03*
D11*
X134310000Y-43520000D03*
X164235000Y-43650000D03*
D12*
X133585000Y-54451000D03*
X126760000Y-35445000D03*
X123685000Y-55071800D03*
D11*
X134310000Y-45420000D03*
X133160000Y-32895000D03*
D12*
X123685000Y-51871800D03*
D11*
X134310000Y-41620000D03*
D12*
X128060000Y-35345000D03*
D11*
X164235000Y-45180000D03*
D12*
X153735000Y-53771800D03*
X144135000Y-62571800D03*
D11*
X164180000Y-59140000D03*
X169731667Y-34160000D03*
D12*
X152935000Y-62571800D03*
D11*
X164180000Y-59905000D03*
D12*
X153735000Y-60971800D03*
D11*
X164180000Y-58375000D03*
D12*
X153735000Y-58571800D03*
X153735000Y-56971800D03*
D11*
X164180000Y-57610000D03*
D12*
X143335000Y-54571800D03*
X153735000Y-54571800D03*
X153735000Y-57771800D03*
X153735000Y-56171800D03*
D11*
X164180000Y-60670000D03*
D12*
X151335000Y-52171800D03*
X155035000Y-53981800D03*
X143335000Y-60171800D03*
D11*
X165065000Y-39800000D03*
X164180000Y-56845000D03*
D12*
X145735000Y-52171800D03*
X153735000Y-59371800D03*
X153735000Y-55371800D03*
X153735000Y-60171800D03*
X146110000Y-39845000D03*
X140615000Y-38245000D03*
X133545000Y-69175000D03*
X146535000Y-52171800D03*
X142220000Y-39845000D03*
X133545000Y-68225000D03*
X156510000Y-37004300D03*
X154685000Y-35101667D03*
X143335000Y-58571800D03*
D11*
X166065000Y-36995000D03*
D12*
X143335000Y-57771800D03*
X139485000Y-73305000D03*
D11*
X122035000Y-47145000D03*
D12*
X148135000Y-52171800D03*
X141415000Y-35045000D03*
D11*
X124435000Y-68695000D03*
D12*
X133545000Y-65370000D03*
X143335000Y-59371800D03*
X150535000Y-52171800D03*
X152135000Y-52171800D03*
D11*
X128435000Y-60260000D03*
D12*
X139015000Y-38245000D03*
X143900000Y-38795000D03*
X154685000Y-37243333D03*
X148935000Y-52171800D03*
X118655000Y-41490000D03*
X133545000Y-64420000D03*
D11*
X164210000Y-51765000D03*
D12*
X140435000Y-73315000D03*
X142040000Y-42095000D03*
X135990000Y-42120000D03*
X144420000Y-38795000D03*
D11*
X164210000Y-52530000D03*
D12*
X161435000Y-36364300D03*
X126385000Y-39920000D03*
X143335000Y-62571800D03*
X172395000Y-37520000D03*
X135810000Y-39845000D03*
X146285000Y-42145000D03*
X152515000Y-38245000D03*
X152520000Y-39845000D03*
X118655000Y-43350000D03*
X139815000Y-35045000D03*
X142215000Y-38245000D03*
X152340000Y-42145000D03*
X149315000Y-38245000D03*
X150915000Y-38245000D03*
X118655000Y-45210000D03*
X144420000Y-34520000D03*
X172395000Y-38470000D03*
X154685000Y-32960000D03*
X150115000Y-35045000D03*
X143335000Y-60971800D03*
X149735000Y-52171800D03*
D11*
X164210000Y-49470000D03*
D12*
X144935000Y-52171800D03*
X133545000Y-66320000D03*
D11*
X164210000Y-53295000D03*
D12*
X153735000Y-61771800D03*
X124885000Y-38420000D03*
D11*
X164210000Y-50235000D03*
D12*
X151715000Y-35045000D03*
D11*
X164210000Y-51000000D03*
D12*
X133545000Y-67275000D03*
X172395000Y-39410000D03*
X153735000Y-62571800D03*
X143335000Y-61771800D03*
X147335000Y-52171800D03*
X118660000Y-47070000D03*
X143900000Y-34520000D03*
X118655000Y-39630000D03*
D11*
X171430000Y-41220000D03*
X173110000Y-37420000D03*
X170725000Y-63220000D03*
D12*
X170695000Y-55895000D03*
D11*
X173760000Y-37420000D03*
X171380000Y-48545000D03*
D12*
X127685000Y-51071800D03*
X136135000Y-48971800D03*
X127685000Y-55071800D03*
X137735000Y-52171800D03*
X140935000Y-52971800D03*
X127685000Y-55871800D03*
X129285000Y-51871800D03*
X137735000Y-50571800D03*
X130085000Y-55871800D03*
X137735000Y-52971800D03*
X130085000Y-51071800D03*
X139335000Y-48971800D03*
X136935000Y-48971800D03*
X127685000Y-51871800D03*
X128485000Y-55871800D03*
X140135000Y-54571800D03*
X138535000Y-48171800D03*
X128485000Y-51071800D03*
X128485000Y-55071800D03*
X136135000Y-52971800D03*
X138535000Y-51371800D03*
X128485000Y-51871800D03*
X129285000Y-55871800D03*
X138535000Y-52171800D03*
X138535000Y-48971800D03*
X129285000Y-51071800D03*
X136935000Y-52971800D03*
X129285000Y-55071800D03*
X126885000Y-55871800D03*
X136935000Y-52171800D03*
X136135000Y-52171800D03*
X126885000Y-55071800D03*
X123685000Y-51071800D03*
X140135000Y-51371800D03*
X140135000Y-55371800D03*
X123685000Y-55871800D03*
X139335000Y-52171800D03*
X124485000Y-51871800D03*
X124485000Y-55071800D03*
X140135000Y-52971800D03*
X124485000Y-56671800D03*
X140935000Y-54571800D03*
X140935000Y-52171800D03*
X124485000Y-50271800D03*
X122885000Y-56671800D03*
X140935000Y-55371800D03*
X138535000Y-52971800D03*
X122885000Y-50271800D03*
X146535000Y-48171800D03*
X138985000Y-37120000D03*
X136615000Y-38245000D03*
X146915000Y-38245000D03*
X144135000Y-48971800D03*
X136615000Y-39045000D03*
X146915000Y-39045000D03*
X145735000Y-48971800D03*
X146915000Y-39845000D03*
X136615000Y-39845000D03*
X146535000Y-46571800D03*
X147715000Y-34245000D03*
X137415000Y-34245000D03*
X147715000Y-33445000D03*
X147335000Y-46571800D03*
X137415000Y-33445000D03*
X144135000Y-48171800D03*
X146115000Y-39045000D03*
X135815000Y-39045000D03*
X144135000Y-47371800D03*
X146115000Y-38245000D03*
X137560000Y-37245000D03*
X135815000Y-38245000D03*
X146115000Y-35045000D03*
X145735000Y-47371800D03*
X146385000Y-36095000D03*
X135815000Y-35045000D03*
X135815000Y-34245000D03*
X146115000Y-34245000D03*
X144135000Y-45771800D03*
X146535000Y-47371800D03*
X146915000Y-35045000D03*
X136615000Y-35045000D03*
X145735000Y-46571800D03*
X136615000Y-34245000D03*
X146915000Y-34245000D03*
X136615000Y-33445000D03*
X146915000Y-33445000D03*
X144135000Y-46571800D03*
X137415000Y-35045000D03*
X147715000Y-35045000D03*
X146535000Y-45771800D03*
X146535000Y-48971800D03*
X137415000Y-38245000D03*
X147715000Y-38245000D03*
X137415000Y-39045000D03*
X147715000Y-39045000D03*
X147335000Y-47371800D03*
X140935000Y-44971800D03*
X148515000Y-34245000D03*
X143335000Y-48971800D03*
X142215000Y-39045000D03*
X143335000Y-47371800D03*
X141415000Y-39845000D03*
X141735000Y-46571800D03*
X139815000Y-33445000D03*
X140615000Y-34245000D03*
X142535000Y-46571800D03*
X143335000Y-45771800D03*
X140615000Y-33445000D03*
X141415000Y-34245000D03*
X140935000Y-45771800D03*
X141415000Y-33445000D03*
X143335000Y-46571800D03*
X142215000Y-34245000D03*
X141735000Y-45771800D03*
X150535000Y-47371800D03*
X152515000Y-39045000D03*
X150535000Y-46571800D03*
X151715000Y-39845000D03*
X151715000Y-39045000D03*
X150535000Y-45771800D03*
X149735000Y-46571800D03*
X150915000Y-39845000D03*
X141415000Y-39045000D03*
X143335000Y-48171800D03*
X150535000Y-44971800D03*
X150915000Y-39045000D03*
X150115000Y-39845000D03*
X148935000Y-44971800D03*
X150115000Y-39045000D03*
X148935000Y-45771800D03*
X149315000Y-39845000D03*
X149735000Y-44971800D03*
X148135000Y-45771800D03*
X149315000Y-33445000D03*
X150115000Y-34245000D03*
X148135000Y-46571800D03*
X148935000Y-46571800D03*
X150115000Y-33445000D03*
X148135000Y-48171800D03*
X150915000Y-34245000D03*
X150915000Y-33445000D03*
X148135000Y-47371800D03*
X149735000Y-47371800D03*
X151715000Y-34245000D03*
X140615000Y-39845000D03*
X141735000Y-47371800D03*
X148935000Y-47371800D03*
X151715000Y-33445000D03*
X148935000Y-48171800D03*
X152515000Y-34245000D03*
X140935000Y-47371800D03*
X140615000Y-39045000D03*
X139815000Y-39845000D03*
X141735000Y-48171800D03*
X142535000Y-48971800D03*
X139815000Y-39045000D03*
X139015000Y-39845000D03*
X141735000Y-48971800D03*
X139015000Y-33445000D03*
X142535000Y-47371800D03*
X139815000Y-34245000D03*
X140935000Y-46571800D03*
X158311348Y-34426347D03*
X151335000Y-48971800D03*
X158535000Y-44971800D03*
X159802047Y-34432952D03*
X153735000Y-48171800D03*
X158275000Y-38950000D03*
X159035000Y-38920000D03*
X153735000Y-48971800D03*
X158275000Y-38170000D03*
X153735000Y-47371800D03*
X159035000Y-38170000D03*
X152935000Y-48971800D03*
X152935000Y-47371800D03*
X159035000Y-37400000D03*
X155335000Y-46571800D03*
X159035000Y-36680000D03*
X160552047Y-34410000D03*
X160135000Y-44971800D03*
X158301348Y-35186347D03*
X154535000Y-46571800D03*
X159818653Y-35186348D03*
X155335000Y-48971800D03*
X159063653Y-35931348D03*
X155335000Y-47371800D03*
X159775000Y-35920000D03*
X155335000Y-48171800D03*
X159795000Y-36676348D03*
X155335000Y-45771800D03*
X159335000Y-44971800D03*
X161525000Y-34810000D03*
X156135000Y-46571800D03*
X160558653Y-35926348D03*
X158318653Y-35936348D03*
X154535000Y-47371800D03*
X153735000Y-46571800D03*
X158275000Y-36670000D03*
X158275000Y-37380000D03*
X152935000Y-48171800D03*
X161515000Y-35580000D03*
X156135000Y-47371800D03*
X156135000Y-45771800D03*
X160568653Y-36686348D03*
X160558653Y-37426348D03*
X159335000Y-45771800D03*
X159795000Y-38170000D03*
X158535000Y-45771800D03*
X152935000Y-45771800D03*
X156535000Y-34810000D03*
X153735000Y-45771800D03*
X156525000Y-35590000D03*
X157735000Y-44971800D03*
X160557047Y-35187952D03*
X156545000Y-34040000D03*
X151335000Y-47371800D03*
X151335000Y-46571800D03*
X157544999Y-34430000D03*
X152935000Y-46571800D03*
X157547952Y-35202953D03*
X159795000Y-38930000D03*
X154535000Y-48971800D03*
X139335000Y-68171800D03*
X136555000Y-72360000D03*
X139960000Y-68195000D03*
X139335000Y-69771800D03*
X167717500Y-55895000D03*
X167680000Y-63225000D03*
X167955000Y-48050000D03*
X167797500Y-41220000D03*
X164265000Y-39550000D03*
X166095000Y-39790000D03*
X168875000Y-40900000D03*
X163815000Y-38870000D03*
X168635000Y-48100000D03*
X169035000Y-62770000D03*
X166095000Y-38850000D03*
X168885000Y-55620000D03*
X158535000Y-63371800D03*
X157547132Y-74732132D03*
X157735000Y-62571800D03*
X157135000Y-74307868D03*
X159022132Y-74757132D03*
X160135000Y-64171800D03*
X158615000Y-74340000D03*
X160135000Y-62571800D03*
X116235000Y-71070000D03*
X169372868Y-74107868D03*
X160935000Y-55371800D03*
X169797132Y-74532132D03*
X160935000Y-54571800D03*
X170872868Y-74132868D03*
X159335000Y-50571800D03*
X160135000Y-50571800D03*
X171297132Y-74557132D03*
X171872868Y-73107868D03*
X157735000Y-56971800D03*
X158535000Y-56171800D03*
X172297132Y-73532132D03*
X158535000Y-55371800D03*
X173822132Y-73532132D03*
X157735000Y-55371800D03*
X173397868Y-73107868D03*
X174922868Y-73057868D03*
X159335000Y-52971800D03*
X160135000Y-52971800D03*
X175347132Y-73482132D03*
X159335000Y-48171800D03*
X177422132Y-74382132D03*
X176997868Y-73957868D03*
X159335000Y-48971800D03*
X157735000Y-47371800D03*
X178497868Y-73932868D03*
X178922132Y-74357132D03*
X157735000Y-46571800D03*
X156935000Y-60171800D03*
X156135000Y-60171800D03*
X160135000Y-61771800D03*
X159335000Y-62571800D03*
X158535000Y-59371800D03*
X158535000Y-60171800D03*
X156022132Y-74707132D03*
X156935000Y-61771800D03*
X155597868Y-74282868D03*
X157735000Y-61771800D03*
X158535000Y-58571800D03*
X158535000Y-57771800D03*
X160135000Y-56971800D03*
X160935000Y-56171800D03*
X156135000Y-54571800D03*
X163522868Y-74807132D03*
X163947132Y-74382868D03*
X156935000Y-54571800D03*
X156935000Y-56971800D03*
X166772132Y-73882868D03*
X166347868Y-74307132D03*
X156935000Y-56171800D03*
X159335000Y-55371800D03*
X160135000Y-55371800D03*
X158535000Y-54571800D03*
X159335000Y-54571800D03*
X160935000Y-51371800D03*
X160135000Y-52171800D03*
X160935000Y-48171800D03*
X172422868Y-74082868D03*
X172847132Y-74507132D03*
X160135000Y-48971800D03*
X173922868Y-74057868D03*
X158535000Y-48171800D03*
X174347132Y-74482132D03*
X158535000Y-47371800D03*
X160135000Y-46571800D03*
X175897132Y-74407132D03*
X175472868Y-73982868D03*
X160935000Y-45771800D03*
X157735000Y-50571800D03*
X156935000Y-50571800D03*
X156135000Y-52171800D03*
X156935000Y-52171800D03*
X160497132Y-74782132D03*
X158535000Y-61771800D03*
X160085000Y-74340000D03*
X159335000Y-61771800D03*
X165272868Y-74857132D03*
X160935000Y-60171800D03*
X160135000Y-59371800D03*
X165697132Y-74432868D03*
X160935000Y-57771800D03*
X167872868Y-74107868D03*
X160935000Y-56971800D03*
X168297132Y-74532132D03*
X140935000Y-56971800D03*
X139335000Y-57771800D03*
X124135000Y-73820000D03*
X137735000Y-63371800D03*
X125635000Y-73245000D03*
X139335000Y-62571800D03*
X125635000Y-73820000D03*
X140135000Y-62571800D03*
X127135000Y-73245000D03*
X136135000Y-67371800D03*
X136135000Y-68171800D03*
X127135000Y-73820000D03*
X137735000Y-68171800D03*
X128635000Y-73245000D03*
X140935000Y-60171800D03*
X128635000Y-73820000D03*
X137735000Y-68971800D03*
X129810000Y-74620000D03*
X136135000Y-65771800D03*
X130385000Y-75010000D03*
X131260000Y-74620000D03*
X137735000Y-65771800D03*
X140135000Y-57771800D03*
X131885000Y-75010000D03*
X136135000Y-66571800D03*
X137735000Y-66571800D03*
X132810000Y-74620000D03*
X136935000Y-64171800D03*
X137735000Y-64171800D03*
X138535000Y-64171800D03*
X139335000Y-64171800D03*
X140135000Y-64171800D03*
X140135000Y-63371800D03*
X140935000Y-63371800D03*
X140935000Y-62571800D03*
X138535000Y-58571800D03*
X140935000Y-61771800D03*
X139985000Y-75020000D03*
X140935000Y-57771800D03*
X140610000Y-75020000D03*
X141885000Y-58970000D03*
X141885000Y-59745000D03*
X141285000Y-75020000D03*
X141885000Y-75020000D03*
X141885000Y-58145000D03*
X141860000Y-57370000D03*
X143285000Y-74595000D03*
X143860000Y-75020000D03*
X141860000Y-56570000D03*
X144810000Y-74595000D03*
X141910000Y-55945000D03*
X157735000Y-65771800D03*
X145360000Y-75010000D03*
X157735000Y-66571800D03*
X146310000Y-74595000D03*
X137735000Y-59371800D03*
X157735000Y-67371800D03*
X146860000Y-75010000D03*
X147810000Y-74595000D03*
X157735000Y-68171800D03*
X148385000Y-75010000D03*
X157735000Y-68971800D03*
X149310000Y-74570000D03*
X157735000Y-69771800D03*
X158535000Y-68171800D03*
X149860000Y-75010000D03*
X158535000Y-69771800D03*
X150885000Y-75020000D03*
X159335000Y-69771800D03*
X153135000Y-75020000D03*
X159335000Y-68971800D03*
X153135000Y-74445000D03*
X154610000Y-75035000D03*
X160135000Y-69771800D03*
X154610000Y-74445000D03*
X159335000Y-68171800D03*
X137735000Y-60171800D03*
X138535000Y-59371800D03*
X118135000Y-74995000D03*
X136135000Y-60171800D03*
X118135000Y-74395000D03*
X119635000Y-74995000D03*
X136935000Y-61771800D03*
X136135000Y-61771800D03*
X119635000Y-74395000D03*
X121135000Y-74995000D03*
X136935000Y-62571800D03*
X121135000Y-74395000D03*
X136135000Y-62571800D03*
X122610000Y-74995000D03*
X136135000Y-64171800D03*
X122610000Y-74395000D03*
X136135000Y-63371800D03*
X138535000Y-60171800D03*
X124135000Y-74995000D03*
X138535000Y-63371800D03*
X124135000Y-74395000D03*
X139335000Y-59371800D03*
X139335000Y-60171800D03*
X125635000Y-74995000D03*
X140135000Y-60171800D03*
X125635000Y-74395000D03*
X127135000Y-74995000D03*
X137735000Y-61771800D03*
X127135000Y-74395000D03*
X138535000Y-61771800D03*
X128635000Y-74995000D03*
X139335000Y-61771800D03*
X128635000Y-74395000D03*
X140135000Y-61771800D03*
X140135000Y-58571800D03*
X137735000Y-62571800D03*
X140935000Y-58571800D03*
X125285000Y-51071800D03*
X140135000Y-50571800D03*
X139335000Y-50571800D03*
X126085000Y-51071800D03*
X126085000Y-55871800D03*
X137735000Y-51371800D03*
X122885000Y-55071800D03*
X140135000Y-52171800D03*
X137735000Y-54571800D03*
X122885000Y-51871800D03*
X138535000Y-54571800D03*
X122085000Y-51071800D03*
X137735000Y-48171800D03*
X126063383Y-49198383D03*
X126885000Y-51871800D03*
X136135000Y-50571800D03*
X126885000Y-51071800D03*
X137735000Y-48971800D03*
X126085000Y-51871800D03*
X136935000Y-50571800D03*
X126085000Y-55071800D03*
X136135000Y-51371800D03*
X136935000Y-46571800D03*
X126315000Y-37390000D03*
X136135000Y-45771800D03*
X129985000Y-37470000D03*
X126865000Y-37390000D03*
X126460000Y-38929400D03*
X137735000Y-47371800D03*
X129985000Y-38945000D03*
X128086000Y-42968000D03*
X137735000Y-46571800D03*
X127628800Y-43349000D03*
X136935000Y-47371800D03*
X136135000Y-47371800D03*
X126917600Y-43349000D03*
X139335000Y-47371800D03*
X130760000Y-41670000D03*
X130010000Y-42570000D03*
X138535000Y-47371800D03*
X130410000Y-40170000D03*
X127425600Y-40428000D03*
X138535000Y-46571800D03*
X129985000Y-39545000D03*
X126865000Y-40920000D03*
X139335000Y-46571800D03*
X136135000Y-48171800D03*
X126130200Y-43425200D03*
X136135000Y-46571800D03*
X127393600Y-37920000D03*
X129985000Y-38295000D03*
X117125000Y-39050000D03*
X138535000Y-67371800D03*
X125760000Y-66175000D03*
X137735000Y-69771800D03*
X132525000Y-65370000D03*
X137360000Y-67746800D03*
X132525000Y-64420000D03*
X125760000Y-64905000D03*
X131160000Y-67445000D03*
X134510000Y-68170000D03*
X132525000Y-68225000D03*
X132525000Y-67275000D03*
X131160000Y-66175000D03*
X136935000Y-69771800D03*
X136135000Y-68971800D03*
X132525000Y-66320000D03*
X125760000Y-67445000D03*
X131160000Y-68715000D03*
X132785000Y-69175000D03*
X137735000Y-67371800D03*
X138535000Y-65771800D03*
X117175000Y-40970000D03*
X171375000Y-39410000D03*
X177910000Y-67835000D03*
X178005000Y-45765000D03*
X171375000Y-37520000D03*
X171375000Y-38470000D03*
X177935000Y-60465000D03*
X144135000Y-68171800D03*
D11*
X170392500Y-69150000D03*
D12*
X142375000Y-75585000D03*
X146535000Y-52971800D03*
X152135000Y-52971800D03*
X148935000Y-57771800D03*
X146535000Y-60171800D03*
X148935000Y-68971800D03*
X136935000Y-48171800D03*
D11*
X144467647Y-32020000D03*
D12*
X177125000Y-75585000D03*
X154685000Y-36061667D03*
X152935000Y-56171800D03*
D11*
X167237500Y-61200000D03*
D12*
X170645000Y-56545000D03*
D11*
X176435000Y-61790000D03*
D12*
X147335000Y-68971800D03*
D11*
X114225000Y-50165589D03*
X175235000Y-61190000D03*
D12*
X146535000Y-68171800D03*
X142535000Y-66571800D03*
X148935000Y-62571800D03*
X144135000Y-56171800D03*
X152935000Y-52971800D03*
D11*
X132370588Y-32020000D03*
D12*
X160135000Y-60171800D03*
D11*
X181030000Y-63392941D03*
D12*
X148135000Y-59371800D03*
X139335000Y-48171800D03*
X145735000Y-48171800D03*
X150875000Y-75585000D03*
X136935000Y-45771800D03*
X142215000Y-35045000D03*
D11*
X114225000Y-36052353D03*
X175185000Y-68545000D03*
X114225000Y-42100883D03*
D12*
X149735000Y-58571800D03*
X174125000Y-75585000D03*
X148135000Y-56171800D03*
X126160000Y-35495000D03*
X148935000Y-56971800D03*
D11*
X178742647Y-32020000D03*
D12*
X144135000Y-68971800D03*
X151335000Y-62571800D03*
X152935000Y-65771800D03*
X141735000Y-69771800D03*
X130375000Y-75585000D03*
X151715000Y-38245000D03*
X146535000Y-68971800D03*
X134359800Y-54460800D03*
X148935000Y-65771800D03*
X145735000Y-62571800D03*
D11*
X181980000Y-73645000D03*
X182775000Y-46133236D03*
X179880000Y-51465000D03*
D12*
X148135000Y-65771800D03*
X151335000Y-64971800D03*
X127385000Y-40945000D03*
X167797500Y-42520000D03*
X147335000Y-55371800D03*
D11*
X177235000Y-60690000D03*
D12*
X144135000Y-66571800D03*
X124641800Y-49533200D03*
X157735000Y-58571800D03*
D11*
X165925000Y-48045000D03*
D12*
X150915000Y-37605000D03*
D11*
X115010000Y-65399117D03*
D12*
X149735000Y-55371800D03*
X159125000Y-75585000D03*
D11*
X170392500Y-68550000D03*
X179785000Y-64220000D03*
X167282500Y-54450000D03*
D12*
X127125000Y-75585000D03*
X141360000Y-73270000D03*
X146115000Y-33445000D03*
D11*
X173585000Y-68545000D03*
X115010000Y-67415294D03*
D12*
X146535000Y-64971800D03*
X153735000Y-68171800D03*
D11*
X177305000Y-45990000D03*
D12*
X152935000Y-53771800D03*
D11*
X179880000Y-50490000D03*
D12*
X160135000Y-66571800D03*
D11*
X173635000Y-61190000D03*
D12*
X144135000Y-69771800D03*
X169625000Y-75585000D03*
X152515000Y-33445000D03*
D11*
X167307500Y-46500000D03*
D12*
X145735000Y-45771800D03*
D11*
X168907500Y-46500000D03*
D12*
X135815000Y-33445000D03*
X144935000Y-62571800D03*
X147335000Y-58571800D03*
X142995000Y-39840000D03*
D11*
X182775000Y-42100883D03*
D12*
X121125000Y-75585000D03*
X154975000Y-62570000D03*
X142535000Y-65771800D03*
X151335000Y-58571800D03*
D11*
X176480000Y-54440000D03*
X167192500Y-69150000D03*
D12*
X152135000Y-69771800D03*
X148935000Y-56171800D03*
D11*
X182775000Y-54197942D03*
D12*
X129410000Y-40775000D03*
D11*
X118257353Y-32020000D03*
X176385000Y-69145000D03*
D12*
X151335000Y-57771800D03*
D11*
X164629412Y-32020000D03*
X115975000Y-56020000D03*
D12*
X148935000Y-68171800D03*
D11*
X177110000Y-38670000D03*
D12*
X145735000Y-55371800D03*
X157735000Y-56171800D03*
D11*
X138419118Y-32020000D03*
D12*
X151335000Y-52971800D03*
X131875000Y-75585000D03*
D11*
X179835000Y-55890000D03*
D12*
X136375000Y-75585000D03*
X146535000Y-56171800D03*
D11*
X179880000Y-49515000D03*
D12*
X140935000Y-68171800D03*
D11*
X168837500Y-61200000D03*
D12*
X150535000Y-54571800D03*
X151335000Y-65771800D03*
X142535000Y-67371800D03*
X167265000Y-57830000D03*
X147335000Y-54571800D03*
X131160000Y-64905000D03*
D11*
X182775000Y-44117059D03*
D12*
X146535000Y-62571800D03*
D11*
X170677941Y-32020000D03*
D12*
X144135000Y-54571800D03*
X151335000Y-60171800D03*
X140490000Y-42095000D03*
D11*
X179785000Y-63245000D03*
D12*
X145735000Y-54571800D03*
D11*
X170022500Y-49195000D03*
X177280000Y-53940000D03*
D12*
X146535000Y-69771800D03*
X148935000Y-61771800D03*
X124485000Y-55871800D03*
X139335000Y-66571800D03*
D11*
X175185000Y-69145000D03*
D12*
X141735000Y-66571800D03*
X137875000Y-75585000D03*
X170365000Y-63870000D03*
X171125000Y-75585000D03*
D11*
X171985000Y-69145000D03*
D12*
X121445000Y-50271800D03*
X125310000Y-59420000D03*
X144135000Y-57771800D03*
D11*
X177235000Y-61290000D03*
D12*
X145470000Y-39845000D03*
X139015000Y-35045000D03*
X167410000Y-38470000D03*
X127685000Y-46970000D03*
X144135000Y-59371800D03*
X146535000Y-66571800D03*
X148935000Y-52971800D03*
X160625000Y-75585000D03*
X147335000Y-57771800D03*
X146535000Y-55371800D03*
X149735000Y-56171800D03*
X149735000Y-52971800D03*
X156135000Y-67371800D03*
X156135000Y-69771800D03*
X144935000Y-64971800D03*
X152935000Y-66571800D03*
X154535000Y-48171800D03*
X172390000Y-41220000D03*
X127310000Y-39420000D03*
X173410000Y-38375000D03*
X128325000Y-50271800D03*
X150790000Y-42145000D03*
X178581246Y-75555504D03*
D11*
X173635000Y-61790000D03*
D12*
X149735000Y-67371800D03*
X144135000Y-61771800D03*
D11*
X179905000Y-43140000D03*
X165625000Y-54145000D03*
X170507500Y-46500000D03*
X173705000Y-47090000D03*
X114225000Y-34036177D03*
D12*
X145739000Y-66576600D03*
D11*
X165542500Y-68800000D03*
D12*
X156510000Y-36364300D03*
X122885000Y-51071800D03*
X143900000Y-36645000D03*
D11*
X179905000Y-41190000D03*
D12*
X118935000Y-55570000D03*
X115635000Y-46560000D03*
X148135000Y-52971800D03*
X148135000Y-55371800D03*
X165125000Y-75585000D03*
X150535000Y-57771800D03*
D11*
X133160000Y-34445000D03*
D12*
X125285000Y-55071800D03*
X142535000Y-69771800D03*
X167747500Y-49845000D03*
X173410000Y-39245000D03*
X147335000Y-59371800D03*
D11*
X171985000Y-68545000D03*
D12*
X147335000Y-64971800D03*
X160135000Y-48171800D03*
X157735000Y-54571800D03*
X152135000Y-61771800D03*
D11*
X177960000Y-59340000D03*
D12*
X148135000Y-62571800D03*
X179125000Y-75585000D03*
X149735000Y-68971800D03*
D11*
X182775000Y-34036177D03*
D12*
X146535000Y-61771800D03*
X144935000Y-66571800D03*
X148935000Y-67371800D03*
X147335000Y-48171800D03*
X153335000Y-39845000D03*
X152135000Y-62571800D03*
X145735000Y-56171800D03*
D11*
X160597059Y-32020000D03*
D12*
X146535000Y-59371800D03*
X148135000Y-60171800D03*
D11*
X115965000Y-57800000D03*
X176726471Y-32020000D03*
D12*
X152135000Y-67371800D03*
D11*
X167282500Y-53850000D03*
X115010000Y-71320000D03*
X177185000Y-68045000D03*
D12*
X144935000Y-52971800D03*
D11*
X170437500Y-61200000D03*
X168792500Y-68550000D03*
D12*
X148935000Y-54571800D03*
X134335000Y-57245000D03*
X147335000Y-67371800D03*
X140935000Y-66571800D03*
X144160000Y-32970000D03*
X149726800Y-66576600D03*
X154685000Y-38203333D03*
X158535000Y-66571800D03*
X121835000Y-59385000D03*
X154535000Y-66571800D03*
D11*
X167192500Y-68550000D03*
X182775000Y-48149412D03*
D12*
X143335000Y-52971800D03*
X145375000Y-75585000D03*
X137540000Y-42120000D03*
D11*
X175235000Y-61790000D03*
D12*
X127395000Y-38450000D03*
X148135000Y-56971800D03*
X139335000Y-58571800D03*
D11*
X165350000Y-40695000D03*
D12*
X157625000Y-75585000D03*
D11*
X115955000Y-61360000D03*
D12*
X148135000Y-66571800D03*
X146535000Y-58571800D03*
X141735000Y-68971800D03*
D11*
X182775000Y-52181765D03*
X181985000Y-71345000D03*
X114225000Y-54197942D03*
X181025000Y-56020000D03*
D12*
X153735000Y-64971800D03*
X154685000Y-33920000D03*
X153735000Y-65771800D03*
D11*
X114225000Y-52181765D03*
D12*
X160135000Y-54571800D03*
X130735000Y-57130000D03*
X145735000Y-67371800D03*
X144935000Y-67371800D03*
X140875000Y-75585000D03*
D11*
X175280000Y-54440000D03*
D12*
X145735000Y-57771800D03*
D11*
X115960000Y-65395000D03*
D12*
X148375000Y-75585000D03*
D11*
X120273529Y-32020000D03*
D12*
X125745000Y-39920000D03*
X156135000Y-68171800D03*
X139335000Y-45771800D03*
X148935000Y-66571800D03*
X144135000Y-55371800D03*
X160135000Y-51371800D03*
D11*
X172080000Y-54440000D03*
D12*
X147335000Y-61771800D03*
X149735000Y-60171800D03*
D11*
X172105000Y-46490000D03*
D12*
X151335000Y-56971800D03*
D11*
X167237500Y-61800000D03*
D12*
X143335000Y-67371800D03*
D11*
X130860000Y-47145000D03*
D12*
X147335000Y-52971800D03*
X141735000Y-68171800D03*
X135170000Y-39845000D03*
X132830000Y-60915000D03*
X161435000Y-37059300D03*
D11*
X150516176Y-32020000D03*
D12*
X150535000Y-66571800D03*
D11*
X115010000Y-69431470D03*
D12*
X156125000Y-75585000D03*
X144135000Y-52171800D03*
X150535000Y-55371800D03*
X149735000Y-57771800D03*
X151335000Y-45771800D03*
D11*
X172105000Y-47090000D03*
D12*
X143875000Y-75585000D03*
D11*
X178005000Y-51990000D03*
D12*
X165105000Y-37920000D03*
X123685000Y-49631800D03*
X156135000Y-66571800D03*
D11*
X178035000Y-61790000D03*
D12*
X152935000Y-57771800D03*
X175625000Y-75585000D03*
X144175000Y-40360000D03*
D11*
X181030000Y-65405000D03*
X177910000Y-66695000D03*
X177235000Y-60090000D03*
D12*
X144135000Y-65771800D03*
X142535000Y-68971800D03*
X152515000Y-35045000D03*
D11*
X128435000Y-61220000D03*
X120485000Y-47145000D03*
X175305000Y-46490000D03*
X165580000Y-61495000D03*
D12*
X154535000Y-67371800D03*
X150535000Y-65771800D03*
X150535000Y-59371800D03*
X148135000Y-57771800D03*
D11*
X166645588Y-32020000D03*
D12*
X149875000Y-75585000D03*
D11*
X179880000Y-48540000D03*
D12*
X150535000Y-61771800D03*
D11*
X168907500Y-47100000D03*
D12*
X150535000Y-60171800D03*
X144935000Y-61771800D03*
D11*
X174710294Y-32020000D03*
D12*
X144935000Y-65771800D03*
X141735000Y-67371800D03*
X134875000Y-75585000D03*
X150535000Y-62571800D03*
X125625000Y-75585000D03*
X152935000Y-55371800D03*
X153735000Y-52971800D03*
X136935000Y-58571800D03*
D11*
X170437500Y-61800000D03*
D12*
X154535000Y-68971800D03*
X149735000Y-48171800D03*
X152935000Y-59371800D03*
X150535000Y-67371800D03*
X148135000Y-67371800D03*
X150535000Y-52971800D03*
X158535000Y-68971800D03*
X148135000Y-54571800D03*
X150535000Y-64971800D03*
D11*
X182775000Y-32020000D03*
X172035000Y-61790000D03*
D12*
X152935000Y-67371800D03*
D11*
X136402941Y-32020000D03*
X179785000Y-66170000D03*
D12*
X124125000Y-75585000D03*
X148135000Y-64971800D03*
D11*
X182775000Y-36052353D03*
D12*
X144935000Y-69771800D03*
D11*
X115955000Y-59580000D03*
D12*
X124485000Y-51071800D03*
X149735000Y-45771800D03*
X147335000Y-69771800D03*
X160135000Y-58571800D03*
D11*
X128338235Y-32020000D03*
X168882500Y-53850000D03*
X178080000Y-54440000D03*
D12*
X153735000Y-69771800D03*
D11*
X179835000Y-58815000D03*
X162613235Y-32020000D03*
D12*
X146535000Y-67371800D03*
X133375000Y-75585000D03*
X148135000Y-58571800D03*
X146535000Y-65771800D03*
D11*
X115010000Y-73645000D03*
D12*
X129355000Y-36420000D03*
X122885000Y-55871800D03*
X139335000Y-51371800D03*
X152935000Y-58571800D03*
D11*
X114225000Y-46133236D03*
D12*
X150115000Y-38245000D03*
X147840000Y-42145000D03*
X138535000Y-73305000D03*
D11*
X122289706Y-32020000D03*
D12*
X136935000Y-66571800D03*
D11*
X133595000Y-38770000D03*
D12*
X165105000Y-36995000D03*
X160135000Y-68971800D03*
X151335000Y-66571800D03*
X122085000Y-55071800D03*
X142535000Y-48171800D03*
X118125000Y-75585000D03*
X153125000Y-75585000D03*
D11*
X172035000Y-61190000D03*
X182775000Y-38068530D03*
D12*
X136935000Y-56171800D03*
X152935000Y-54571800D03*
X128625000Y-75585000D03*
X154625000Y-75585000D03*
X163625000Y-75585000D03*
X147335000Y-56971800D03*
X153735000Y-68971800D03*
X140935000Y-68971800D03*
X147335000Y-62571800D03*
D11*
X180758824Y-32020000D03*
D12*
X148935000Y-60171800D03*
D11*
X158580882Y-32020000D03*
D12*
X144135000Y-56971800D03*
D11*
X168792500Y-69150000D03*
D12*
X142215000Y-33445000D03*
X122625000Y-75585000D03*
X136935000Y-60171800D03*
X152935000Y-60171800D03*
D11*
X170507500Y-47100000D03*
X172694118Y-32020000D03*
D12*
X128485000Y-56671800D03*
X140935000Y-69771800D03*
X152935000Y-64971800D03*
D11*
X178030000Y-44640000D03*
D12*
X126385000Y-42820000D03*
X146875000Y-75585000D03*
X149315000Y-35045000D03*
X145735000Y-60171800D03*
X116625000Y-75585000D03*
X152935000Y-60971800D03*
X137585000Y-73305000D03*
D11*
X115960000Y-63382941D03*
D12*
X145735000Y-58571800D03*
X151335000Y-56171800D03*
X151335000Y-59371800D03*
X125385000Y-37495000D03*
D11*
X177985000Y-69145000D03*
D12*
X129285000Y-50271800D03*
D11*
X168661765Y-32020000D03*
D12*
X144135000Y-58571800D03*
D11*
X181980000Y-69441470D03*
X177185000Y-67445000D03*
D12*
X166625000Y-75585000D03*
X148935000Y-59371800D03*
X146535000Y-57771800D03*
X152935000Y-56971800D03*
X147335000Y-56171800D03*
X119625000Y-75585000D03*
X121445000Y-56671800D03*
X115125000Y-75585000D03*
D11*
X182775000Y-56010000D03*
D12*
X160135000Y-56171800D03*
X172625000Y-75585000D03*
D11*
X114225000Y-56010000D03*
X181980000Y-74520000D03*
D12*
X168125000Y-75585000D03*
X160135000Y-45771800D03*
X151335000Y-69771800D03*
X139335000Y-54571800D03*
X157735000Y-51371800D03*
X155035000Y-53021800D03*
D11*
X175305000Y-47090000D03*
X165280000Y-55395000D03*
D12*
X136935000Y-54571800D03*
X141865000Y-61980000D03*
D11*
X177305000Y-45390000D03*
D12*
X150915000Y-35045000D03*
D11*
X152532353Y-32020000D03*
X170482500Y-53850000D03*
X165842500Y-62745000D03*
D12*
X151335000Y-67371800D03*
D11*
X165650000Y-46795000D03*
D12*
X149735000Y-62571800D03*
D11*
X116241176Y-32020000D03*
X173705000Y-46490000D03*
D12*
X149735000Y-69771800D03*
X139335000Y-63371800D03*
D11*
X115010000Y-75050000D03*
D12*
X139335000Y-56171800D03*
X146535000Y-54571800D03*
X160135000Y-63371800D03*
D11*
X165880000Y-55395000D03*
D12*
X144935000Y-68971800D03*
D11*
X114225000Y-44117059D03*
X142451471Y-32020000D03*
X175280000Y-53840000D03*
X181980000Y-65409117D03*
D12*
X140615000Y-35045000D03*
D11*
X181045000Y-61360000D03*
D12*
X172340000Y-48545000D03*
X136935000Y-63371800D03*
X152135000Y-68971800D03*
D11*
X140435294Y-32020000D03*
D12*
X152139800Y-66577200D03*
D11*
X146483824Y-32020000D03*
D12*
X156135000Y-68971800D03*
D11*
X173585000Y-69145000D03*
D12*
X144135000Y-67371800D03*
D11*
X148500000Y-32020000D03*
D12*
X125340000Y-40920000D03*
X152935000Y-52171800D03*
X145735000Y-56971800D03*
X125285000Y-51871800D03*
X149735000Y-59371800D03*
X147335000Y-65771800D03*
X145735000Y-59371800D03*
D11*
X170482500Y-54450000D03*
X114225000Y-32020000D03*
D12*
X157735000Y-45771800D03*
D11*
X168837500Y-61800000D03*
X114225000Y-38068530D03*
X181045000Y-59580000D03*
X179835000Y-56865000D03*
D12*
X150535000Y-56171800D03*
X124435000Y-67740000D03*
D11*
X179905000Y-44115000D03*
D12*
X145735000Y-61771800D03*
D11*
X165950000Y-40695000D03*
D12*
X153735000Y-67371800D03*
X162125000Y-75585000D03*
X157735000Y-63371800D03*
X144135000Y-52971800D03*
D11*
X177185000Y-68645000D03*
D12*
X153735000Y-52171800D03*
D11*
X114225000Y-40084706D03*
X126322059Y-32020000D03*
X165325000Y-48045000D03*
D12*
X153735000Y-66571800D03*
X151335000Y-68171800D03*
X144135000Y-53771800D03*
D11*
X177305000Y-46590000D03*
X179905000Y-42165000D03*
D12*
X147335000Y-66571800D03*
X144135000Y-64971800D03*
D11*
X181035000Y-57800000D03*
D12*
X149735000Y-61771800D03*
X140615000Y-37605000D03*
X139815000Y-38245000D03*
X139375000Y-75585000D03*
X147335000Y-45771800D03*
X150535000Y-56971800D03*
X145735000Y-52971800D03*
X148135000Y-61771800D03*
X149735000Y-56971800D03*
X147335000Y-60171800D03*
X127420000Y-35345000D03*
D11*
X178105000Y-47090000D03*
X177280000Y-52740000D03*
X168882500Y-54450000D03*
D12*
X151335000Y-54571800D03*
X151335000Y-68971800D03*
X148935000Y-69771800D03*
D11*
X181980000Y-67425294D03*
X114225000Y-48149412D03*
D12*
X144135000Y-60171800D03*
X151335000Y-61771800D03*
X125930000Y-56671800D03*
X150535000Y-58571800D03*
X142535000Y-45771800D03*
X141415000Y-38245000D03*
D11*
X173680000Y-53840000D03*
X170072500Y-41870000D03*
X179835000Y-57840000D03*
D12*
X152935000Y-61771800D03*
X149735000Y-54571800D03*
X122085000Y-51871800D03*
X151335000Y-55371800D03*
X144420000Y-36645000D03*
D11*
X165242500Y-62745000D03*
X182775000Y-40084706D03*
D12*
X124885000Y-39060000D03*
D11*
X177280000Y-53340000D03*
X173680000Y-54440000D03*
D12*
X144135000Y-60971800D03*
X148935000Y-64971800D03*
D11*
X167307500Y-47100000D03*
D12*
X136935000Y-68971800D03*
X154535000Y-45771800D03*
X151335000Y-48171800D03*
D11*
X156564706Y-32020000D03*
X154548529Y-32020000D03*
X176505000Y-47090000D03*
D12*
X136935000Y-51371800D03*
X157735000Y-48171800D03*
D11*
X182775000Y-50165589D03*
D12*
X140935000Y-67371800D03*
X118935000Y-50620000D03*
D11*
X179785000Y-65195000D03*
D12*
X148935000Y-55371800D03*
X148935000Y-58571800D03*
X139335000Y-68971800D03*
X154535000Y-69771800D03*
D11*
X134386765Y-32020000D03*
X172080000Y-53840000D03*
X130354412Y-32020000D03*
D12*
X146535000Y-56971800D03*
D11*
X124305882Y-32020000D03*
D12*
X143335000Y-52171800D03*
D11*
X129310000Y-47145000D03*
D12*
X129410000Y-41420000D03*
X179910000Y-47165000D03*
X175955000Y-45765000D03*
X175885000Y-60465000D03*
X179840000Y-61865000D03*
X179885000Y-54515000D03*
X175930000Y-53115000D03*
D11*
X174510000Y-56390000D03*
D12*
X177980000Y-53115000D03*
D11*
X174460000Y-63145000D03*
X181335000Y-75420000D03*
X175355000Y-48440000D03*
X174580000Y-41090000D03*
X175380000Y-41090000D03*
X174510000Y-55790000D03*
X175380000Y-41690000D03*
X173410000Y-40205000D03*
X174460000Y-63745000D03*
X174555000Y-48440000D03*
X180735000Y-75420000D03*
X175260000Y-63745000D03*
X174580000Y-41690000D03*
X175355000Y-49040000D03*
X175310000Y-56390000D03*
X175310000Y-55790000D03*
X180135000Y-75420000D03*
X174555000Y-49040000D03*
X175260000Y-63145000D03*
D13*
X124085000Y-51245000D02*
X124310000Y-51470000D01*
X141210000Y-51770000D02*
X140533200Y-51770000D01*
X141435000Y-50107500D02*
X141435000Y-51545000D01*
X140760000Y-49720000D02*
X141047500Y-49720000D01*
X123360000Y-50770000D02*
X123470000Y-50660000D01*
X123685000Y-51071800D02*
X123411800Y-51071800D01*
X141435000Y-51545000D02*
X141210000Y-51770000D01*
X141047500Y-49720000D02*
X141435000Y-50107500D01*
X135910000Y-50970000D02*
X140360000Y-50970000D01*
X129785000Y-51470000D02*
X130060000Y-51745000D01*
X124085000Y-50820000D02*
X124085000Y-51245000D01*
X130060000Y-51745000D02*
X135135000Y-51745000D01*
X135135000Y-51745000D02*
X135910000Y-50970000D01*
X124310000Y-51470000D02*
X129785000Y-51470000D01*
X140360000Y-50970000D02*
X140585000Y-50745000D01*
X140585000Y-49895000D02*
X140760000Y-49720000D01*
X123470000Y-50660000D02*
X123925000Y-50660000D01*
X123411800Y-51071800D02*
X123360000Y-51020000D01*
X123925000Y-50660000D02*
X124085000Y-50820000D01*
X140585000Y-50745000D02*
X140585000Y-49895000D01*
X123360000Y-51020000D02*
X123360000Y-50770000D01*
X140533200Y-51770000D02*
X140135000Y-51371800D01*
X121985000Y-56145000D02*
X122100000Y-56260000D01*
X123283200Y-55470000D02*
X122135000Y-55470000D01*
X139735000Y-55745000D02*
X140108200Y-55371800D01*
X122100000Y-56260000D02*
X128650000Y-56260000D01*
X130560000Y-58170000D02*
X139560000Y-58170000D01*
X140108200Y-55371800D02*
X140135000Y-55371800D01*
X128650000Y-56260000D02*
X130560000Y-58170000D01*
X139735000Y-57995000D02*
X139735000Y-55745000D01*
X122135000Y-55470000D02*
X121985000Y-55620000D01*
X139560000Y-58170000D02*
X139735000Y-57995000D01*
X123685000Y-55871800D02*
X123283200Y-55470000D01*
X121985000Y-55620000D02*
X121985000Y-56145000D01*
X124485000Y-51871800D02*
X124873200Y-52260000D01*
X132685000Y-53420000D02*
X132860000Y-53420000D01*
X134060000Y-53220000D02*
X134060000Y-52806978D01*
X135860000Y-53420000D02*
X136310000Y-53420000D01*
X136535000Y-52112294D02*
X136535000Y-51895000D01*
X138135000Y-51945000D02*
X138310000Y-51770000D01*
X139110000Y-51770000D02*
X139335000Y-51995000D01*
X135560000Y-52806953D02*
X135560000Y-53220000D01*
X139335000Y-51995000D02*
X139335000Y-52171800D01*
X134760000Y-53420000D02*
X134860000Y-53420000D01*
X136535000Y-51895000D02*
X136660000Y-51770000D01*
X136310000Y-53420000D02*
X136535000Y-53195000D01*
X135260000Y-52606953D02*
X135360000Y-52606953D01*
X133560000Y-52806953D02*
X133560000Y-53220000D01*
X136660000Y-51770000D02*
X137185000Y-51770000D01*
X133760000Y-53420000D02*
X133860000Y-53420000D01*
X124873200Y-52260000D02*
X131525000Y-52260000D01*
X134560000Y-52806978D02*
X134560000Y-53220000D01*
X133260000Y-52606953D02*
X133360000Y-52606953D01*
X137331600Y-51916600D02*
X137331600Y-53216600D01*
X131525000Y-52260000D02*
X132685000Y-53420000D01*
X134260000Y-52606978D02*
X134360000Y-52606978D01*
X135760000Y-53420000D02*
X135860000Y-53420000D01*
X137910000Y-53420000D02*
X138135000Y-53195000D01*
X137331600Y-53216600D02*
X137535000Y-53420000D01*
X133060000Y-53220000D02*
X133060000Y-52806953D01*
X136535000Y-53195000D02*
X136535000Y-52112294D01*
X138310000Y-51770000D02*
X139110000Y-51770000D01*
X135060000Y-53220000D02*
X135060000Y-52806953D01*
X137535000Y-53420000D02*
X137910000Y-53420000D01*
X137185000Y-51770000D02*
X137331600Y-51916600D01*
X138135000Y-53195000D02*
X138135000Y-51945000D01*
X133060000Y-52806953D02*
G75*
G02*
X133260000Y-52607000I200000J-47D01*
G01*
X132860000Y-53420000D02*
G75*
G03*
X133060000Y-53220000I0J200000D01*
G01*
X135560000Y-53220000D02*
G75*
G03*
X135760000Y-53420000I200000J0D01*
G01*
X133360000Y-52606953D02*
G75*
G02*
X133560047Y-52806953I0J-200047D01*
G01*
X134360000Y-52606978D02*
G75*
G02*
X134560022Y-52806978I0J-200022D01*
G01*
X134860000Y-53420000D02*
G75*
G03*
X135060000Y-53220000I0J200000D01*
G01*
X133860000Y-53420000D02*
G75*
G03*
X134060000Y-53220000I0J200000D01*
G01*
X134560000Y-53220000D02*
G75*
G03*
X134760000Y-53420000I200000J0D01*
G01*
X135360000Y-52606953D02*
G75*
G02*
X135560047Y-52806953I0J-200047D01*
G01*
X134060000Y-52806978D02*
G75*
G02*
X134260000Y-52607000I200000J-22D01*
G01*
X135060000Y-52806953D02*
G75*
G02*
X135260000Y-52607000I200000J-47D01*
G01*
X133560000Y-53220000D02*
G75*
G03*
X133760000Y-53420000I200000J0D01*
G01*
X139735000Y-54270000D02*
X140360000Y-53645000D01*
X134885000Y-57370000D02*
X138810000Y-57370000D01*
X131043079Y-56203080D02*
X131043080Y-56203080D01*
X141485000Y-53320000D02*
X141485000Y-52795000D01*
X131043080Y-56203080D02*
X130980877Y-56265282D01*
X132510000Y-57670000D02*
X134585000Y-57670000D01*
X139735000Y-55046800D02*
X139735000Y-54270000D01*
X131105274Y-56140884D02*
X131043079Y-56203080D01*
X141485000Y-52795000D02*
X141245800Y-52555800D01*
X131529546Y-56689546D02*
X131810290Y-56970290D01*
X124485000Y-55071800D02*
X124485000Y-55295000D01*
X138945000Y-57235000D02*
X138945000Y-55836800D01*
X141160000Y-53645000D02*
X141485000Y-53320000D01*
X138810000Y-57370000D02*
X138945000Y-57235000D01*
X140549200Y-52555800D02*
X140135000Y-52970000D01*
X130300000Y-55460000D02*
X130537500Y-55697500D01*
X140360000Y-53645000D02*
X141160000Y-53645000D01*
X141245800Y-52555800D02*
X140549200Y-52555800D01*
X124485000Y-55295000D02*
X124650000Y-55460000D01*
X138945000Y-55836800D02*
X139735000Y-55046800D01*
X132397500Y-57557500D02*
X132510000Y-57670000D01*
X124650000Y-55460000D02*
X130300000Y-55460000D01*
X140135000Y-52970000D02*
X140135000Y-52971800D01*
X130786282Y-55697500D02*
X131105274Y-56016492D01*
X130980877Y-56389688D02*
X131280735Y-56689546D01*
X134585000Y-57670000D02*
X134885000Y-57370000D01*
X131810290Y-56970290D02*
X132397500Y-57557500D01*
X131105274Y-56016492D02*
G75*
G02*
X131105286Y-56140896I-62174J-62208D01*
G01*
X130661892Y-55697501D02*
G75*
G02*
X130786294Y-55697487I62208J-62199D01*
G01*
X130980877Y-56265282D02*
G75*
G03*
X130980862Y-56389703I62223J-62218D01*
G01*
X130537500Y-55697500D02*
G75*
G03*
X130661895Y-55697505I62200J62200D01*
G01*
X131405141Y-56689546D02*
G75*
G02*
X131529546Y-56689546I62202J-62203D01*
G01*
X131280735Y-56689546D02*
G75*
G03*
X131405141Y-56689546I62203J62204D01*
G01*
X124485000Y-56671800D02*
X124958200Y-57145000D01*
X140535000Y-58745000D02*
X140535000Y-54870000D01*
X140535000Y-54870000D02*
X140833200Y-54571800D01*
X124958200Y-57145000D02*
X126985717Y-57145000D01*
X130285000Y-58970000D02*
X140310000Y-58970000D01*
X140833200Y-54571800D02*
X140935000Y-54571800D01*
X127185717Y-57345000D02*
X127185717Y-57722051D01*
X128582320Y-58366180D02*
X128653030Y-58436890D01*
X127885717Y-57145000D02*
X128460000Y-57145000D01*
X128460000Y-57145000D02*
X128848908Y-57533908D01*
X127685717Y-57722051D02*
X127685717Y-57345000D01*
X128935873Y-58436890D02*
X129202460Y-58170302D01*
X140310000Y-58970000D02*
X140535000Y-58745000D01*
X128848908Y-57816750D02*
X128582320Y-58083337D01*
X127385717Y-57922051D02*
X127485717Y-57922051D01*
X140986800Y-54571800D02*
X140935000Y-54571800D01*
X129485303Y-58170302D02*
X130285000Y-58970000D01*
X126985717Y-57145000D02*
G75*
G02*
X127185700Y-57345000I-17J-200000D01*
G01*
X129202460Y-58170302D02*
G75*
G02*
X129485303Y-58170301I141422J-141424D01*
G01*
X128582320Y-58083337D02*
G75*
G03*
X128582278Y-58366222I141380J-141463D01*
G01*
X127485717Y-57922051D02*
G75*
G03*
X127685751Y-57722051I-17J200051D01*
G01*
X128848908Y-57533908D02*
G75*
G02*
X128848879Y-57816721I-141408J-141392D01*
G01*
X127685717Y-57345000D02*
G75*
G02*
X127885717Y-57145017I199983J0D01*
G01*
X128653030Y-58436890D02*
G75*
G03*
X128935873Y-58436891I141422J141424D01*
G01*
X127185717Y-57722051D02*
G75*
G03*
X127385717Y-57921983I199983J51D01*
G01*
X125222593Y-48157408D02*
X125810000Y-47570000D01*
X124485000Y-50271800D02*
X124160000Y-49946800D01*
X141433200Y-52171800D02*
X140935000Y-52171800D01*
X133710000Y-47570000D02*
X134700000Y-48560000D01*
X126503750Y-47570000D02*
X133710000Y-47570000D01*
X140525000Y-48560000D02*
X141860000Y-49895000D01*
X125810000Y-47570000D02*
X126503750Y-47570000D01*
X124374063Y-48472793D02*
X124531757Y-48315100D01*
X141860000Y-49895000D02*
X141860000Y-51745000D01*
X124160000Y-49220000D02*
X124374063Y-49005937D01*
X125064901Y-48315101D02*
X125222593Y-48157408D01*
X141860000Y-51745000D02*
X141433200Y-52171800D01*
X134700000Y-48560000D02*
X140525000Y-48560000D01*
X124160000Y-49946800D02*
X124160000Y-49220000D01*
X124374063Y-49005937D02*
G75*
G03*
X124374014Y-48739414I-133263J133237D01*
G01*
X124374063Y-48739365D02*
G75*
G02*
X124374084Y-48472814I133337J133265D01*
G01*
X124798329Y-48315100D02*
G75*
G03*
X125064886Y-48315086I133271J133300D01*
G01*
X124531757Y-48315100D02*
G75*
G02*
X124798329Y-48315100I133286J-133289D01*
G01*
X141385000Y-55770000D02*
X140986800Y-55371800D01*
X140986800Y-55371800D02*
X140935000Y-55371800D01*
X141385000Y-58945000D02*
X141385000Y-55770000D01*
X124208200Y-57995000D02*
X126285000Y-57995000D01*
X122885000Y-56671800D02*
X124208200Y-57995000D01*
X140560000Y-59770000D02*
X141385000Y-58945000D01*
X128060000Y-59770000D02*
X140560000Y-59770000D01*
X126285000Y-57995000D02*
X128060000Y-59770000D01*
X122485000Y-49620000D02*
X122785000Y-49320000D01*
X131110000Y-52720000D02*
X123685000Y-52720000D01*
X123285000Y-51645000D02*
X123110000Y-51470000D01*
X123260000Y-49470000D02*
X123260000Y-49895000D01*
X122885000Y-50270000D02*
X122885000Y-50271800D01*
X138710000Y-52520000D02*
X139085000Y-52520000D01*
X138561800Y-52945000D02*
X138535000Y-52971800D01*
X138535000Y-52695000D02*
X138710000Y-52520000D01*
X139260000Y-53320000D02*
X138610000Y-53970000D01*
X122485000Y-51295000D02*
X122485000Y-49620000D01*
X123260000Y-49895000D02*
X122885000Y-50270000D01*
X123285000Y-52320000D02*
X123285000Y-51645000D01*
X139260000Y-52695000D02*
X139260000Y-53320000D01*
X122785000Y-49320000D02*
X123110000Y-49320000D01*
X132360000Y-53970000D02*
X131110000Y-52720000D01*
X122660000Y-51470000D02*
X122485000Y-51295000D01*
X138535000Y-52971800D02*
X138535000Y-52695000D01*
X139085000Y-52520000D02*
X139260000Y-52695000D01*
X138610000Y-53970000D02*
X132360000Y-53970000D01*
X123685000Y-52720000D02*
X123285000Y-52320000D01*
X123110000Y-51470000D02*
X122660000Y-51470000D01*
X123110000Y-49320000D02*
X123260000Y-49470000D01*
D14*
X148135000Y-40370000D02*
X148135000Y-37570000D01*
X147305913Y-43249087D02*
X147305913Y-41199087D01*
X147305913Y-41199087D02*
X148135000Y-40370000D01*
X148135000Y-37570000D02*
X148385000Y-37320000D01*
X146935000Y-46171800D02*
X146935000Y-45545000D01*
X148385000Y-37320000D02*
X148385000Y-34915000D01*
X146935000Y-45545000D02*
X147155000Y-45325000D01*
X147155000Y-43400000D02*
X147305913Y-43249087D01*
X148385000Y-34915000D02*
X147715000Y-34245000D01*
X146535000Y-46571800D02*
X146935000Y-46171800D01*
X147155000Y-45325000D02*
X147155000Y-43400000D01*
X147735000Y-43495000D02*
X148310000Y-42920000D01*
X147335000Y-46571800D02*
X147735000Y-46171800D01*
X148910000Y-37455000D02*
X148910000Y-33945000D01*
X148310000Y-41065000D02*
X148735000Y-40640000D01*
X147735000Y-45060000D02*
X147735000Y-43495000D01*
X148310000Y-42920000D02*
X148310000Y-41065000D01*
X148735000Y-40640000D02*
X148735000Y-37630000D01*
X148910000Y-33945000D02*
X148410000Y-33445000D01*
X148410000Y-33445000D02*
X147715000Y-33445000D01*
X147735000Y-46171800D02*
X147735000Y-45060000D01*
X148735000Y-37630000D02*
X148910000Y-37455000D01*
X145935000Y-35220000D02*
X146110000Y-35045000D01*
X144810000Y-39045000D02*
X144810000Y-37856396D01*
X144905000Y-43515000D02*
X144615000Y-43225000D01*
X145735000Y-47371800D02*
X144761800Y-47371800D01*
X144615000Y-43225000D02*
X144615000Y-39240000D01*
X146110000Y-35045000D02*
X146115000Y-35045000D01*
X144610000Y-47220000D02*
X144610000Y-46095000D01*
X144615000Y-39240000D02*
X144810000Y-39045000D01*
X144810000Y-37856396D02*
X145935000Y-36731396D01*
X145935000Y-36731396D02*
X145935000Y-35220000D01*
X144761800Y-47371800D02*
X144610000Y-47220000D01*
X144610000Y-46095000D02*
X144905000Y-45800000D01*
X144905000Y-45800000D02*
X144905000Y-43515000D01*
X144485000Y-45370000D02*
X144485000Y-43845000D01*
X144135000Y-45771800D02*
X144135000Y-45720000D01*
X143785000Y-39341752D02*
X143485000Y-39041752D01*
X144485000Y-43845000D02*
X143785000Y-43145000D01*
X145355000Y-35005000D02*
X146115000Y-34245000D01*
X145355000Y-36500000D02*
X145355000Y-35005000D01*
X143785000Y-43145000D02*
X143785000Y-39341752D01*
X143485000Y-38095000D02*
X144185000Y-37395000D01*
X144460000Y-37395000D02*
X145355000Y-36500000D01*
X144135000Y-45720000D02*
X144485000Y-45370000D01*
X143485000Y-39041752D02*
X143485000Y-38095000D01*
X144185000Y-37395000D02*
X144460000Y-37395000D01*
D13*
X145085000Y-39416827D02*
X145085000Y-42770000D01*
X145260000Y-38195000D02*
X145260000Y-39241827D01*
D14*
X145345000Y-45985000D02*
X145345000Y-43030000D01*
D13*
X146815000Y-35145000D02*
X146815000Y-36640000D01*
D14*
X145385000Y-46970000D02*
X145210000Y-46795000D01*
D13*
X145085000Y-42770000D02*
X145122500Y-42807500D01*
X146815000Y-36640000D02*
X145260000Y-38195000D01*
X145260000Y-39241827D02*
X145085000Y-39416827D01*
D14*
X145210000Y-46795000D02*
X145210000Y-46120000D01*
D13*
X146915000Y-35045000D02*
X146815000Y-35145000D01*
D14*
X145210000Y-46120000D02*
X145345000Y-45985000D01*
X145345000Y-43030000D02*
X145122500Y-42807500D01*
X146133200Y-46970000D02*
X145385000Y-46970000D01*
X146535000Y-47371800D02*
X146133200Y-46970000D01*
D13*
X147325000Y-36908198D02*
X146535000Y-37698198D01*
X146535000Y-40095000D02*
X145685000Y-40945000D01*
D14*
X146135000Y-46171800D02*
X146135000Y-45570000D01*
X145885000Y-45320000D02*
X145885000Y-43270000D01*
D13*
X147325000Y-34655000D02*
X147325000Y-36908198D01*
X146535000Y-37698198D02*
X146535000Y-40095000D01*
D14*
X145885000Y-45320000D02*
X146135000Y-45570000D01*
D13*
X145885000Y-42820000D02*
X145885000Y-43270000D01*
D14*
X145735000Y-46571800D02*
X146135000Y-46171800D01*
D13*
X145685000Y-40945000D02*
X145685000Y-42620000D01*
X145685000Y-42620000D02*
X145885000Y-42820000D01*
X146915000Y-34245000D02*
X147325000Y-34655000D01*
D14*
X143060000Y-36470000D02*
X145700000Y-33830000D01*
X143735000Y-45395000D02*
X143935000Y-45195000D01*
X143935000Y-45195000D02*
X143935000Y-44045000D01*
X143385000Y-39595000D02*
X143060000Y-39270000D01*
X144135000Y-46571800D02*
X143735000Y-46171800D01*
X143935000Y-44045000D02*
X143085000Y-43195000D01*
X145700000Y-33830000D02*
X146530000Y-33830000D01*
X143085000Y-40391752D02*
X143385000Y-40091752D01*
X146530000Y-33830000D02*
X146915000Y-33445000D01*
X143385000Y-40091752D02*
X143385000Y-39595000D01*
X143735000Y-46171800D02*
X143735000Y-45395000D01*
X143060000Y-39270000D02*
X143060000Y-36470000D01*
X143085000Y-43195000D02*
X143085000Y-40391752D01*
D13*
X146760000Y-42995000D02*
X146697500Y-43057500D01*
X147715000Y-35175000D02*
X147935000Y-35395000D01*
X147335000Y-37695000D02*
X147335000Y-40345000D01*
X147335000Y-40345000D02*
X146760000Y-40920000D01*
X147715000Y-35045000D02*
X147715000Y-35175000D01*
X147935000Y-37095000D02*
X147335000Y-37695000D01*
D14*
X146535000Y-45771800D02*
X146535000Y-43220000D01*
D13*
X146760000Y-40920000D02*
X146760000Y-42995000D01*
X147935000Y-35395000D02*
X147935000Y-37095000D01*
D14*
X146535000Y-43220000D02*
X146697500Y-43057500D01*
X137960000Y-35295000D02*
X137960000Y-44470000D01*
X138935000Y-46820000D02*
X139085000Y-46970000D01*
X139810000Y-33445000D02*
X137960000Y-35295000D01*
X137960000Y-44470000D02*
X138935000Y-45445000D01*
X138935000Y-45445000D02*
X138935000Y-46820000D01*
X141336800Y-46970000D02*
X141735000Y-46571800D01*
X139085000Y-46970000D02*
X141336800Y-46970000D01*
X139815000Y-33445000D02*
X139810000Y-33445000D01*
X140360000Y-45970000D02*
X140560000Y-46170000D01*
X140360000Y-45045000D02*
X140360000Y-45970000D01*
X140225000Y-34635000D02*
X140225000Y-35205000D01*
X139415000Y-44100000D02*
X140360000Y-45045000D01*
X140560000Y-46170000D02*
X142133200Y-46170000D01*
X140615000Y-34245000D02*
X140225000Y-34635000D01*
X139415000Y-36015000D02*
X139415000Y-44100000D01*
X140225000Y-35205000D02*
X139415000Y-36015000D01*
X142133200Y-46170000D02*
X142535000Y-46571800D01*
X140615000Y-33415000D02*
X141060000Y-32970000D01*
X143216464Y-35520000D02*
X142605000Y-36131464D01*
X143216464Y-33701464D02*
X143216464Y-35520000D01*
X142605000Y-43490000D02*
X143335000Y-44220000D01*
X140615000Y-33445000D02*
X140615000Y-33415000D01*
X141060000Y-32970000D02*
X142485000Y-32970000D01*
X143335000Y-44220000D02*
X143335000Y-45771800D01*
X142485000Y-32970000D02*
X143216464Y-33701464D01*
X142605000Y-36131464D02*
X142605000Y-43490000D01*
X141385000Y-44620000D02*
X141385000Y-45321800D01*
X141385000Y-45321800D02*
X140935000Y-45771800D01*
X140011768Y-42421768D02*
X140235000Y-42645000D01*
X141015000Y-34645000D02*
X141015000Y-35315000D01*
X140215000Y-41590000D02*
X140011768Y-41793232D01*
X141415000Y-34245000D02*
X141015000Y-34645000D01*
X140011768Y-41793232D02*
X140011768Y-42421768D01*
X140215000Y-36115000D02*
X140215000Y-41590000D01*
X140235000Y-42645000D02*
X140235000Y-43470000D01*
X141015000Y-35315000D02*
X140215000Y-36115000D01*
X140235000Y-43470000D02*
X141385000Y-44620000D01*
X141735000Y-42607744D02*
X141735000Y-43395000D01*
X142935000Y-45470000D02*
X142935000Y-46171800D01*
X141805000Y-36225000D02*
X141805000Y-41512256D01*
X141553628Y-42426372D02*
X141735000Y-42607744D01*
X142760000Y-34020000D02*
X142760000Y-35270000D01*
X142510000Y-45045000D02*
X142935000Y-45470000D01*
X141735000Y-43395000D02*
X142510000Y-44170000D01*
X141415000Y-33445000D02*
X141815000Y-33845000D01*
X142510000Y-44170000D02*
X142510000Y-45045000D01*
X142935000Y-46171800D02*
X143335000Y-46571800D01*
X142760000Y-35270000D02*
X141805000Y-36225000D01*
X142585000Y-33845000D02*
X142760000Y-34020000D01*
X141815000Y-33845000D02*
X142585000Y-33845000D01*
X141805000Y-41512256D02*
X141553628Y-41763628D01*
X141553628Y-41763628D02*
X141553628Y-42426372D01*
X141960000Y-44370000D02*
X141960000Y-45546800D01*
X141960000Y-45546800D02*
X141735000Y-45771800D01*
X141005000Y-36200000D02*
X141005000Y-43415000D01*
X141005000Y-43415000D02*
X141960000Y-44370000D01*
X141805000Y-34655000D02*
X141805000Y-35400000D01*
X142215000Y-34245000D02*
X141805000Y-34655000D01*
X141805000Y-35400000D02*
X141005000Y-36200000D01*
X152515000Y-39045000D02*
X152135000Y-39425000D01*
X151785000Y-40945000D02*
X151785000Y-42870000D01*
X151785000Y-42870000D02*
X151395000Y-43260000D01*
X151395000Y-44285000D02*
X150935000Y-44745000D01*
X152135000Y-40595000D02*
X151785000Y-40945000D01*
X150935000Y-46971800D02*
X150535000Y-47371800D01*
X151395000Y-43260000D02*
X151395000Y-44285000D01*
X150935000Y-44745000D02*
X150935000Y-46971800D01*
X152135000Y-39425000D02*
X152135000Y-40595000D01*
D13*
X150915000Y-39845000D02*
X151185000Y-40115000D01*
D14*
X150855000Y-43950000D02*
X150855000Y-42925000D01*
X151185000Y-42595000D02*
X151185000Y-40990000D01*
D13*
X151185000Y-40115000D02*
X151185000Y-40990000D01*
D14*
X150855000Y-42925000D02*
X151185000Y-42595000D01*
X150135000Y-44670000D02*
X150855000Y-43950000D01*
X150135000Y-46171800D02*
X150135000Y-44670000D01*
X149735000Y-46571800D02*
X150135000Y-46171800D01*
X148935000Y-44195000D02*
X149585000Y-43545000D01*
X148935000Y-44971800D02*
X148935000Y-44195000D01*
X150115000Y-40940000D02*
X150115000Y-39845000D01*
X149585000Y-41470000D02*
X150115000Y-40940000D01*
X149585000Y-43545000D02*
X149585000Y-41470000D01*
X149710000Y-33840000D02*
X149710000Y-40075000D01*
X148885000Y-41370000D02*
X148885000Y-43170000D01*
X148260000Y-45646800D02*
X148135000Y-45771800D01*
X148885000Y-43170000D02*
X148260000Y-43795000D01*
X149585000Y-40200000D02*
X149585000Y-40670000D01*
X148260000Y-43795000D02*
X148260000Y-45646800D01*
X149315000Y-33445000D02*
X149710000Y-33840000D01*
X149710000Y-40075000D02*
X149585000Y-40200000D01*
X149585000Y-40670000D02*
X148885000Y-41370000D01*
X150655000Y-40290000D02*
X150655000Y-41200000D01*
X150235000Y-41620000D02*
X150235000Y-43820000D01*
X150510000Y-33840000D02*
X150510000Y-40145000D01*
X149335000Y-44720000D02*
X149335000Y-46171800D01*
X150655000Y-41200000D02*
X150235000Y-41620000D01*
X150115000Y-33445000D02*
X150510000Y-33840000D01*
X150235000Y-43820000D02*
X149335000Y-44720000D01*
X149335000Y-46171800D02*
X148935000Y-46571800D01*
X150510000Y-40145000D02*
X150655000Y-40290000D01*
X142136800Y-47770000D02*
X142535000Y-47371800D01*
X138310000Y-47770000D02*
X142136800Y-47770000D01*
X138135000Y-47595000D02*
X138310000Y-47770000D01*
X138135000Y-45645000D02*
X138135000Y-47595000D01*
X137005000Y-44515000D02*
X138135000Y-45645000D01*
X137005000Y-34900000D02*
X137005000Y-44515000D01*
X137975000Y-34630000D02*
X137275000Y-34630000D01*
X139015000Y-33590000D02*
X137975000Y-34630000D01*
X137275000Y-34630000D02*
X137005000Y-34900000D01*
X139015000Y-33445000D02*
X139015000Y-33590000D01*
X139735000Y-46154056D02*
X140152744Y-46571800D01*
X138485000Y-44045000D02*
X139735000Y-45295000D01*
X139815000Y-34245000D02*
X139416128Y-34643872D01*
X139413232Y-35295000D02*
X138485000Y-36223232D01*
X139416128Y-35295000D02*
X139413232Y-35295000D01*
X138485000Y-36223232D02*
X138485000Y-44045000D01*
X139735000Y-45295000D02*
X139735000Y-46154056D01*
X139416128Y-34643872D02*
X139416128Y-35295000D01*
X140152744Y-46571800D02*
X140935000Y-46571800D01*
D13*
X154235000Y-40270000D02*
X156060000Y-38445000D01*
X151785000Y-46720000D02*
X152485000Y-46020000D01*
X156340000Y-35190000D02*
X156890000Y-35190000D01*
X157270000Y-34810000D02*
X157927695Y-34810000D01*
X156060000Y-38445000D02*
X156060000Y-35470000D01*
X154235000Y-42220000D02*
X154235000Y-40270000D01*
X152485000Y-46020000D02*
X152485000Y-43970000D01*
X156060000Y-35470000D02*
X156340000Y-35190000D01*
X151335000Y-48971800D02*
X151785000Y-48521800D01*
X151785000Y-48521800D02*
X151785000Y-46720000D01*
X156890000Y-35190000D02*
X157270000Y-34810000D01*
X152485000Y-43970000D02*
X154235000Y-42220000D01*
X157927695Y-34810000D02*
X158311348Y-34426347D01*
X158525000Y-44180000D02*
X158695000Y-44010000D01*
X160159095Y-34790000D02*
X159802047Y-34432952D01*
X160795491Y-34790000D02*
X160159095Y-34790000D01*
X161960000Y-39275000D02*
X161960000Y-35395000D01*
X158535000Y-44971800D02*
X158525000Y-44961800D01*
X161960000Y-35395000D02*
X161765000Y-35200000D01*
X158695000Y-44010000D02*
X158695000Y-42540000D01*
X158695000Y-42540000D02*
X161960000Y-39275000D01*
X158525000Y-44961800D02*
X158525000Y-44180000D01*
X161765000Y-35200000D02*
X161205491Y-35200000D01*
X161205491Y-35200000D02*
X160795491Y-34790000D01*
X160135000Y-42680000D02*
X160135000Y-44971800D01*
X162885000Y-34995000D02*
X162885000Y-39930000D01*
X162320000Y-34430000D02*
X162885000Y-34995000D01*
X162885000Y-39930000D02*
X160135000Y-42680000D01*
X160552047Y-34427048D02*
X160554999Y-34430000D01*
X160554999Y-34430000D02*
X162320000Y-34430000D01*
X160552047Y-34410000D02*
X160552047Y-34427048D01*
X154135000Y-43745000D02*
X155285000Y-42595000D01*
X154135000Y-46171800D02*
X154135000Y-43745000D01*
X158293653Y-35186347D02*
X158301348Y-35186347D01*
X157435000Y-38790000D02*
X157435000Y-36045000D01*
X155285000Y-42595000D02*
X155285000Y-40940000D01*
X157435000Y-36045000D02*
X158293653Y-35186347D01*
X155285000Y-40940000D02*
X157435000Y-38790000D01*
X154535000Y-46571800D02*
X154135000Y-46171800D01*
X157435000Y-42095000D02*
X160175000Y-39355000D01*
X160175000Y-35542695D02*
X159818653Y-35186348D01*
X157435000Y-43530000D02*
X157435000Y-42095000D01*
X157110000Y-43855000D02*
X157435000Y-43530000D01*
X155335000Y-48971800D02*
X155933200Y-48971800D01*
X160175000Y-39355000D02*
X160175000Y-35542695D01*
X157110000Y-47795000D02*
X157110000Y-43855000D01*
X155933200Y-48971800D02*
X157110000Y-47795000D01*
X155735000Y-46971800D02*
X155735000Y-43620000D01*
X156365000Y-42990000D02*
X156365000Y-41640000D01*
X158655000Y-39350000D02*
X158655000Y-36340001D01*
X156365000Y-41640000D02*
X158655000Y-39350000D01*
X158655000Y-36340001D02*
X159063653Y-35931348D01*
X155335000Y-47371800D02*
X155735000Y-46971800D01*
X155735000Y-43620000D02*
X156365000Y-42990000D01*
X159775000Y-35960001D02*
X159415000Y-36320001D01*
X156460000Y-45395000D02*
X156635000Y-45570000D01*
X156460000Y-43685000D02*
X156460000Y-45395000D01*
X159415000Y-36320001D02*
X159415000Y-39340000D01*
X156895000Y-41860000D02*
X156895000Y-43250000D01*
X156033200Y-48171800D02*
X155335000Y-48171800D01*
X159775000Y-35920000D02*
X159775000Y-35960001D01*
X156635000Y-45570000D02*
X156635000Y-47570000D01*
X156895000Y-43250000D02*
X156460000Y-43685000D01*
X156635000Y-47570000D02*
X156033200Y-48171800D01*
X159415000Y-39340000D02*
X156895000Y-41860000D01*
X162435000Y-39560000D02*
X162435000Y-35195000D01*
X159335000Y-42660000D02*
X162435000Y-39560000D01*
X159335000Y-44971800D02*
X159335000Y-42660000D01*
X162435000Y-35195000D02*
X162050000Y-34810000D01*
X162050000Y-34810000D02*
X161525000Y-34810000D01*
X154535000Y-47371800D02*
X154925000Y-46981800D01*
X157895000Y-36360001D02*
X158318653Y-35936348D01*
X155805000Y-41330000D02*
X157895000Y-39240000D01*
X154925000Y-46981800D02*
X154925000Y-43655000D01*
X155805000Y-42775000D02*
X155805000Y-41330000D01*
X157895000Y-39240000D02*
X157895000Y-36360001D01*
X154925000Y-43655000D02*
X155805000Y-42775000D01*
X161035000Y-39370000D02*
X161035000Y-35665905D01*
X161035000Y-35665905D02*
X160557047Y-35187952D01*
X157735000Y-44971800D02*
X157735000Y-44090000D01*
X158060000Y-43765000D02*
X158060000Y-42345000D01*
X158060000Y-42345000D02*
X161035000Y-39370000D01*
X157735000Y-44090000D02*
X158060000Y-43765000D01*
X151955000Y-45810000D02*
X151335000Y-46430000D01*
X157544999Y-34430000D02*
X156275000Y-34430000D01*
X155610000Y-35095000D02*
X155610000Y-38095000D01*
X153735000Y-39970000D02*
X153735000Y-41895000D01*
X151955000Y-43675000D02*
X151955000Y-45810000D01*
X156275000Y-34430000D02*
X155610000Y-35095000D01*
X151335000Y-46430000D02*
X151335000Y-46571800D01*
X155610000Y-38095000D02*
X153735000Y-39970000D01*
X153735000Y-41895000D02*
X151955000Y-43675000D01*
X153335000Y-43845000D02*
X153335000Y-46171800D01*
X157547952Y-35202953D02*
X156932952Y-35817952D01*
X154745000Y-42435000D02*
X153335000Y-43845000D01*
X156932952Y-35817952D02*
X156932952Y-38422048D01*
X156932952Y-38422048D02*
X154745000Y-40610000D01*
X153335000Y-46171800D02*
X152935000Y-46571800D01*
X154745000Y-40610000D02*
X154745000Y-42435000D01*
X138565000Y-68941800D02*
X139335000Y-68171800D01*
X136555000Y-72360000D02*
X138565000Y-70350000D01*
X138565000Y-70350000D02*
X138565000Y-68941800D01*
D15*
X157065000Y-72153726D02*
X157065000Y-64268075D01*
X158535000Y-63371800D02*
X158101000Y-63371800D01*
X157595275Y-63737800D02*
X157065000Y-64268075D01*
X157547132Y-74732132D02*
X157547132Y-72635858D01*
X158101000Y-63371800D02*
X158101000Y-63523403D01*
X158101000Y-63523403D02*
X157886603Y-63737800D01*
X157547132Y-72635858D02*
X157065000Y-72153726D01*
X157886603Y-63737800D02*
X157595275Y-63737800D01*
X157583397Y-63005800D02*
X157369000Y-63220197D01*
X156745000Y-72286274D02*
X156745000Y-64135525D01*
X157735000Y-62571800D02*
X157735000Y-63005800D01*
X157135000Y-74295736D02*
X157227132Y-74203604D01*
X157735000Y-63005800D02*
X157583397Y-63005800D01*
X157227132Y-72768406D02*
X156745000Y-72286274D01*
X157135000Y-74307868D02*
X157135000Y-74295736D01*
X157369000Y-63220197D02*
X157369000Y-63511525D01*
X157369000Y-63511525D02*
X156745000Y-64135525D01*
X157227132Y-74203604D02*
X157227132Y-72768406D01*
X159095000Y-63916274D02*
X159095000Y-65493726D01*
X159022132Y-72852868D02*
X159022132Y-74757132D01*
X160135000Y-64060000D02*
X159606801Y-63531801D01*
X159606801Y-63531801D02*
X159479473Y-63531801D01*
X159535000Y-65933726D02*
X159535000Y-66963726D01*
X159535000Y-66963726D02*
X160915000Y-68343726D01*
X159095000Y-65493726D02*
X159535000Y-65933726D01*
X160135000Y-64171800D02*
X160135000Y-64060000D01*
X160915000Y-68343726D02*
X160915000Y-70960000D01*
X160915000Y-70960000D02*
X159022132Y-72852868D01*
X159479473Y-63531801D02*
X159095000Y-63916274D01*
X159346927Y-63211799D02*
X159495001Y-63211799D01*
X160595000Y-68476274D02*
X159215000Y-67096274D01*
X158775000Y-63783726D02*
X159346927Y-63211799D01*
X158775000Y-65626274D02*
X158775000Y-63783726D01*
X159215000Y-66066274D02*
X158775000Y-65626274D01*
X158702132Y-72720322D02*
X160595000Y-70827454D01*
X159495001Y-63211799D02*
X160135000Y-62571800D01*
X158702132Y-74228604D02*
X158702132Y-72720322D01*
X158615000Y-74340000D02*
X158615000Y-74315736D01*
X160595000Y-70827454D02*
X160595000Y-68476274D01*
X159215000Y-67096274D02*
X159215000Y-66066274D01*
X158615000Y-74315736D02*
X158702132Y-74228604D01*
X169477132Y-71387132D02*
X169477132Y-74003604D01*
X167800000Y-69710000D02*
X169477132Y-71387132D01*
X168100000Y-53936274D02*
X168100000Y-54550536D01*
X168100000Y-55630536D02*
X168100000Y-55750536D01*
X169477132Y-74003604D02*
X169372868Y-74107868D01*
X160935000Y-55371800D02*
X161174999Y-55131801D01*
X163774473Y-55131801D02*
X165701274Y-53205000D01*
X167810851Y-55390536D02*
X167860000Y-55390536D01*
X167368726Y-53205000D02*
X168100000Y-53936274D01*
X165701274Y-53205000D02*
X167368726Y-53205000D01*
X168100000Y-55750536D02*
X168100000Y-56334930D01*
X167800000Y-64378726D02*
X167800000Y-69710000D01*
X168100000Y-56334930D02*
X168100000Y-64078726D01*
X167570851Y-55030536D02*
X167570851Y-55150536D01*
X168100000Y-64078726D02*
X167800000Y-64378726D01*
X167860000Y-54790536D02*
X167810851Y-54790536D01*
X161174999Y-55131801D02*
X163774473Y-55131801D01*
X167570851Y-55150536D02*
G75*
G03*
X167810851Y-55390449I239949J36D01*
G01*
X167860000Y-55390536D02*
G75*
G02*
X168099964Y-55630536I0J-239964D01*
G01*
X167810851Y-54790536D02*
G75*
G03*
X167570836Y-55030536I-51J-239964D01*
G01*
X168100000Y-54550536D02*
G75*
G02*
X167860000Y-54790500I-240000J36D01*
G01*
X168120000Y-64511274D02*
X168120000Y-69577454D01*
X168420000Y-53803726D02*
X168420000Y-64211274D01*
X160935000Y-54571800D02*
X161174999Y-54811799D01*
X161174999Y-54811799D02*
X163641927Y-54811799D01*
X169797132Y-71254586D02*
X169797132Y-74532132D01*
X167501274Y-52885000D02*
X168420000Y-53803726D01*
X168120000Y-69577454D02*
X169797132Y-71254586D01*
X168420000Y-64211274D02*
X168120000Y-64511274D01*
X163641927Y-54811799D02*
X165568726Y-52885000D01*
X165568726Y-52885000D02*
X167501274Y-52885000D01*
X170977132Y-71088406D02*
X169550000Y-69661274D01*
X159655000Y-50891800D02*
X159937397Y-50891800D01*
X159937397Y-50891800D02*
X159983397Y-50937800D01*
X170977132Y-74028604D02*
X170977132Y-71088406D01*
X170872868Y-74132868D02*
X170977132Y-74028604D01*
X159335000Y-50571800D02*
X159655000Y-50891800D01*
X169550000Y-69661274D02*
X169550000Y-53436274D01*
X168093726Y-51980000D02*
X167518726Y-51980000D01*
X160286603Y-50937800D02*
X160332603Y-50891800D01*
X160332603Y-50891800D02*
X160989474Y-50891800D01*
X164543726Y-49005000D02*
X162876274Y-49005000D01*
X159983397Y-50937800D02*
X160286603Y-50937800D01*
X167518726Y-51980000D02*
X164543726Y-49005000D01*
X169550000Y-53436274D02*
X168093726Y-51980000D01*
X162876274Y-49005000D02*
X160989474Y-50891800D01*
X168226274Y-51660000D02*
X169870000Y-53303726D01*
X161615150Y-49813578D02*
X161840996Y-49587731D01*
X171297132Y-70955858D02*
X171297132Y-74557132D01*
X167651274Y-51660000D02*
X168226274Y-51660000D01*
X169870000Y-69528726D02*
X171297132Y-70955858D01*
X162121607Y-49307119D02*
X162743726Y-48685000D01*
X160135000Y-50571800D02*
X160856926Y-50571800D01*
X160992466Y-50039424D02*
X161218314Y-49813577D01*
X169870000Y-53303726D02*
X169870000Y-69528726D01*
X161840996Y-49587731D02*
X162121607Y-49307119D01*
X162743726Y-48685000D02*
X164676274Y-48685000D01*
X164676274Y-48685000D02*
X167651274Y-51660000D01*
X160856926Y-50571800D02*
X160992466Y-50436260D01*
X160992466Y-50436260D02*
G75*
G03*
X160992417Y-50237891I-99166J99160D01*
G01*
X161218314Y-49813577D02*
G75*
G02*
X161416732Y-49813577I99209J-99211D01*
G01*
X161416732Y-49813577D02*
G75*
G03*
X161615108Y-49813537I99168J99177D01*
G01*
X160992466Y-50237842D02*
G75*
G02*
X160992433Y-50039391I99234J99242D01*
G01*
X155755000Y-63067806D02*
X155755000Y-64268884D01*
X156022132Y-73380858D02*
X156022132Y-74707132D01*
X156433246Y-62347806D02*
X156433246Y-62467806D01*
X156193246Y-62707806D02*
X155995000Y-62707806D01*
X155755000Y-62947806D02*
X155755000Y-63067806D01*
X157018726Y-61230000D02*
X156126274Y-61230000D01*
X155995000Y-62107806D02*
X156193246Y-62107806D01*
X157174999Y-61386273D02*
X157018726Y-61230000D01*
X155755000Y-73113726D02*
X156022132Y-73380858D01*
X155755000Y-61601274D02*
X155755000Y-61867806D01*
X156935000Y-61771800D02*
X157174999Y-61531801D01*
X155755000Y-64268884D02*
X155755000Y-73113726D01*
X157174999Y-61531801D02*
X157174999Y-61386273D01*
X156126274Y-61230000D02*
X155755000Y-61601274D01*
X156193246Y-62107806D02*
G75*
G02*
X156433194Y-62347806I-46J-239994D01*
G01*
X156433246Y-62467806D02*
G75*
G02*
X156193246Y-62707846I-240046J6D01*
G01*
X155995000Y-62707806D02*
G75*
G03*
X155755006Y-62947806I0J-239994D01*
G01*
X155755000Y-61867806D02*
G75*
G03*
X155995000Y-62107800I240000J6D01*
G01*
X155435000Y-73246274D02*
X155702132Y-73513406D01*
X155702132Y-74178604D02*
X155597868Y-74282868D01*
X155702132Y-73513406D02*
X155702132Y-74178604D01*
X157151274Y-60910000D02*
X155993726Y-60910000D01*
X157495001Y-61253727D02*
X157151274Y-60910000D01*
X157735000Y-61771800D02*
X157495001Y-61531801D01*
X155435000Y-61468726D02*
X155435000Y-73246274D01*
X155993726Y-60910000D02*
X155435000Y-61468726D01*
X157495001Y-61531801D02*
X157495001Y-61253727D01*
X163664032Y-47978705D02*
X163664032Y-47845000D01*
X164864032Y-47978738D02*
X164864032Y-47845000D01*
X160935000Y-48171800D02*
X161501800Y-47605000D01*
X162464032Y-47978721D02*
X162464032Y-47845000D01*
X166368726Y-47605000D02*
X171125000Y-52361274D01*
X163064032Y-47845000D02*
X163064032Y-47978705D01*
X172700000Y-74003725D02*
X172620857Y-74082868D01*
X161864032Y-47845000D02*
X161864032Y-47978721D01*
X163904032Y-47605000D02*
X164024032Y-47605000D01*
X172700000Y-71086274D02*
X172700000Y-74003725D01*
X164264032Y-47845000D02*
X164264032Y-47978738D01*
X162704032Y-47605000D02*
X162824032Y-47605000D01*
X162104032Y-48218721D02*
X162224032Y-48218721D01*
X171125000Y-52361274D02*
X171125000Y-69511274D01*
X165104032Y-47605000D02*
X165224032Y-47605000D01*
X165224032Y-47605000D02*
X165305000Y-47605000D01*
X164504032Y-48218738D02*
X164624032Y-48218738D01*
X161501800Y-47605000D02*
X161624032Y-47605000D01*
X171125000Y-69511274D02*
X172700000Y-71086274D01*
X172620857Y-74082868D02*
X172422868Y-74082868D01*
X163304032Y-48218705D02*
X163424032Y-48218705D01*
X165305000Y-47605000D02*
X166368726Y-47605000D01*
X161624032Y-47605000D02*
G75*
G02*
X161864000Y-47845000I-32J-240000D01*
G01*
X164624032Y-48218738D02*
G75*
G03*
X164864038Y-47978738I-32J240038D01*
G01*
X163424032Y-48218705D02*
G75*
G03*
X163664005Y-47978705I-32J240005D01*
G01*
X162464032Y-47845000D02*
G75*
G02*
X162704032Y-47605032I239968J0D01*
G01*
X162824032Y-47605000D02*
G75*
G02*
X163064000Y-47845000I-32J-240000D01*
G01*
X161864032Y-47978721D02*
G75*
G03*
X162104032Y-48218668I239968J21D01*
G01*
X164864032Y-47845000D02*
G75*
G02*
X165104032Y-47605032I239968J0D01*
G01*
X164024032Y-47605000D02*
G75*
G02*
X164264000Y-47845000I-32J-240000D01*
G01*
X163664032Y-47845000D02*
G75*
G02*
X163904032Y-47605032I239968J0D01*
G01*
X164264032Y-47978738D02*
G75*
G03*
X164504032Y-48218668I239968J38D01*
G01*
X163064032Y-47978705D02*
G75*
G03*
X163304032Y-48218668I239968J5D01*
G01*
X162224032Y-48218721D02*
G75*
G03*
X162464021Y-47978721I-32J240021D01*
G01*
X160286230Y-48536900D02*
X160569900Y-48253230D01*
X160569900Y-48253230D02*
X160569900Y-48020570D01*
X171445000Y-52228726D02*
X166501274Y-47285000D01*
X173020000Y-70953726D02*
X171445000Y-69378726D01*
X160783770Y-47806700D02*
X160847552Y-47806700D01*
X160135000Y-48971800D02*
X160135000Y-48536900D01*
X160135000Y-48536900D02*
X160286230Y-48536900D01*
X172847132Y-74309143D02*
X173020000Y-74136275D01*
X160847552Y-47806700D02*
X161369252Y-47285000D01*
X171445000Y-69378726D02*
X171445000Y-52228726D01*
X172847132Y-74507132D02*
X172847132Y-74309143D01*
X173020000Y-74136275D02*
X173020000Y-70953726D01*
X160569900Y-48020570D02*
X160783770Y-47806700D01*
X166501274Y-47285000D02*
X161369252Y-47285000D01*
X159361274Y-47560000D02*
X160346274Y-47560000D01*
X158535000Y-48171800D02*
X158774999Y-47931801D01*
X165671274Y-45830000D02*
X169338726Y-45830000D01*
X172650000Y-65586274D02*
X172650000Y-69636274D01*
X169338726Y-45830000D02*
X169675000Y-46166274D01*
X172650000Y-69636274D02*
X174200000Y-71186274D01*
X174200000Y-73978725D02*
X174120857Y-74057868D01*
X161551274Y-46355000D02*
X163426682Y-46355000D01*
X160346274Y-47560000D02*
X161551274Y-46355000D01*
X172750000Y-52569695D02*
X172750000Y-53092948D01*
X163751682Y-46680000D02*
X164821274Y-46680000D01*
X172775645Y-60486919D02*
X172775645Y-62053081D01*
X172325000Y-65261274D02*
X172650000Y-65586274D01*
X172425000Y-60136274D02*
X172775645Y-60486919D01*
X172750000Y-52434149D02*
X172750000Y-52569695D01*
X172750000Y-51011274D02*
X172750000Y-51369695D01*
X174200000Y-71186274D02*
X174200000Y-73978725D01*
X172750000Y-55128726D02*
X172425000Y-55453726D01*
X172425000Y-55453726D02*
X172425000Y-60136274D01*
X158774999Y-47931801D02*
X158989473Y-47931801D01*
X172285546Y-51834149D02*
X172285546Y-51969695D01*
X174120857Y-74057868D02*
X173922868Y-74057868D01*
X172775645Y-62053081D02*
X172325000Y-62503726D01*
X163426682Y-46355000D02*
X163751682Y-46680000D01*
X172750000Y-53092948D02*
X172750000Y-55128726D01*
X169675000Y-47936274D02*
X172750000Y-51011274D01*
X158989473Y-47931801D02*
X159361274Y-47560000D01*
X169675000Y-46166274D02*
X169675000Y-47936274D01*
X172325000Y-62503726D02*
X172325000Y-65261274D01*
X164821274Y-46680000D02*
X165671274Y-45830000D01*
X172750000Y-51369695D02*
G75*
G02*
X172517773Y-51601900I-232200J-5D01*
G01*
X172285546Y-51969695D02*
G75*
G03*
X172517773Y-52201954I232254J-5D01*
G01*
X172517773Y-51601922D02*
G75*
G03*
X172285622Y-51834149I27J-232178D01*
G01*
X172517773Y-52201922D02*
G75*
G02*
X172749978Y-52434149I27J-232178D01*
G01*
X172970000Y-69503726D02*
X174520000Y-71053726D01*
X163559230Y-46035000D02*
X163884288Y-46360058D01*
X160213726Y-47240000D02*
X161418726Y-46035000D01*
X169471274Y-45510000D02*
X169995000Y-46033726D01*
X174347132Y-74284143D02*
X174347132Y-74482132D01*
X158535000Y-47371800D02*
X158774999Y-47611799D01*
X172745000Y-60003726D02*
X173095645Y-60354371D01*
X163884288Y-46360058D02*
X163884346Y-46360000D01*
X159228726Y-47240000D02*
X160213726Y-47240000D01*
X174520000Y-71053726D02*
X174520000Y-74111275D01*
X173095645Y-60354371D02*
X173095645Y-62185629D01*
X165538726Y-45510000D02*
X169471274Y-45510000D01*
X164688726Y-46360000D02*
X165538726Y-45510000D01*
X169995000Y-46033726D02*
X169995000Y-47803726D01*
X172645000Y-65128726D02*
X172970000Y-65453726D01*
X158856927Y-47611799D02*
X159228726Y-47240000D01*
X163884346Y-46360000D02*
X164688726Y-46360000D01*
X172970000Y-65453726D02*
X172970000Y-69503726D01*
X158774999Y-47611799D02*
X158856927Y-47611799D01*
X174520000Y-74111275D02*
X174347132Y-74284143D01*
X161418726Y-46035000D02*
X163559230Y-46035000D01*
X173070000Y-50878726D02*
X173070000Y-55261274D01*
X173070000Y-55261274D02*
X172745000Y-55586274D01*
X173095645Y-62185629D02*
X172645000Y-62636274D01*
X172645000Y-62636274D02*
X172645000Y-65128726D01*
X172745000Y-55586274D02*
X172745000Y-60003726D01*
X169995000Y-47803726D02*
X173070000Y-50878726D01*
X174645000Y-46253726D02*
X172336274Y-43945000D01*
X160569900Y-45853230D02*
X160569900Y-45620570D01*
X174620000Y-49903726D02*
X173979137Y-49262863D01*
X172336274Y-43945000D02*
X167710000Y-43945000D01*
X176070000Y-71278726D02*
X174595000Y-69803726D01*
X174645000Y-47461274D02*
X174645000Y-46253726D01*
X174595000Y-64753726D02*
X173970000Y-64128726D01*
X173970000Y-62786274D02*
X174495000Y-62261274D01*
X173979137Y-48127137D02*
X174645000Y-47461274D01*
X173979137Y-49262863D02*
X173979137Y-48127137D01*
X164975000Y-41210000D02*
X163468726Y-41210000D01*
X160135000Y-46136900D02*
X160286230Y-46136900D01*
X174620000Y-54786274D02*
X174620000Y-49903726D01*
X160847552Y-45406700D02*
X161100000Y-45154252D01*
X174495000Y-57428726D02*
X173920000Y-56853726D01*
X161100000Y-43578726D02*
X161100000Y-45154252D01*
X160569900Y-45620570D02*
X160783770Y-45406700D01*
X163468726Y-41210000D02*
X161100000Y-43578726D01*
X176070000Y-74036275D02*
X176070000Y-71278726D01*
X173920000Y-56853726D02*
X173920000Y-55486274D01*
X174495000Y-62261274D02*
X174495000Y-57428726D01*
X175897132Y-74407132D02*
X175897132Y-74209143D01*
X167710000Y-43945000D02*
X164975000Y-41210000D01*
X160783770Y-45406700D02*
X160847552Y-45406700D01*
X173970000Y-64128726D02*
X173970000Y-62786274D01*
X160286230Y-46136900D02*
X160569900Y-45853230D01*
X175897132Y-74209143D02*
X176070000Y-74036275D01*
X160135000Y-46571800D02*
X160135000Y-46136900D01*
X174595000Y-69803726D02*
X174595000Y-64753726D01*
X173920000Y-55486274D02*
X174620000Y-54786274D01*
X173650000Y-62653726D02*
X173650000Y-64261274D01*
X161420000Y-43823745D02*
X161420000Y-43711274D01*
X174325000Y-46386274D02*
X174325000Y-47328726D01*
X160935000Y-45771800D02*
X161420000Y-45286800D01*
X174175000Y-57561274D02*
X174175000Y-62128726D01*
X172203726Y-44265000D02*
X174325000Y-46386274D01*
X163464340Y-41666934D02*
X163601274Y-41530000D01*
X162708661Y-43401873D02*
X162793513Y-43317020D01*
X173600000Y-56986274D02*
X174175000Y-57561274D01*
X167577454Y-44265000D02*
X172203726Y-44265000D01*
X174175000Y-62128726D02*
X173650000Y-62653726D01*
X173659137Y-47994589D02*
X173659137Y-49395411D01*
X174300000Y-50036274D02*
X174300000Y-54653726D01*
X162362451Y-44543745D02*
X162362451Y-44423745D01*
X162793513Y-42977608D02*
X162643293Y-42827388D01*
X174275000Y-69936274D02*
X175750000Y-71411274D01*
X161420000Y-45286800D02*
X161420000Y-45023745D01*
X175670857Y-73982868D02*
X175472868Y-73982868D01*
X161420000Y-43711274D02*
X161879619Y-43251654D01*
X174325000Y-47328726D02*
X173659137Y-47994589D01*
X164842454Y-41530000D02*
X167577454Y-44265000D01*
X173659137Y-49395411D02*
X174300000Y-50036274D01*
X173650000Y-64261274D02*
X174275000Y-64886274D01*
X175750000Y-71411274D02*
X175750000Y-73903725D01*
X161660000Y-44783745D02*
X162122451Y-44783745D01*
X162643293Y-42487976D02*
X162728147Y-42403125D01*
X174275000Y-64886274D02*
X174275000Y-69936274D01*
X174300000Y-54653726D02*
X173600000Y-55353726D01*
X161420000Y-43943745D02*
X161420000Y-43823745D01*
X163601274Y-41530000D02*
X164842454Y-41530000D01*
X175750000Y-73903725D02*
X175670857Y-73982868D01*
X162728147Y-42403125D02*
X163464340Y-41666934D01*
X162122451Y-44183745D02*
X161660000Y-44183745D01*
X162219030Y-43251654D02*
X162369249Y-43401873D01*
X173600000Y-55353726D02*
X173600000Y-56986274D01*
X161879619Y-43251654D02*
G75*
G02*
X162219030Y-43251653I169706J-169707D01*
G01*
X162793513Y-43317020D02*
G75*
G03*
X162793527Y-42977594I-169713J169720D01*
G01*
X161660000Y-44183745D02*
G75*
G02*
X161419955Y-43943745I0J240045D01*
G01*
X162362451Y-44423745D02*
G75*
G03*
X162122451Y-44183749I-239951J45D01*
G01*
X162122451Y-44783745D02*
G75*
G03*
X162362545Y-44543745I49J240045D01*
G01*
X162369249Y-43401873D02*
G75*
G03*
X162708661Y-43401873I169706J169704D01*
G01*
X162643293Y-42827388D02*
G75*
G02*
X162643311Y-42487994I169707J169688D01*
G01*
X161420000Y-45023745D02*
G75*
G02*
X161660000Y-44783700I240000J45D01*
G01*
X159371800Y-60935000D02*
X158535000Y-61771800D01*
X160497132Y-74782132D02*
X160497132Y-73409142D01*
X160497132Y-73409142D02*
X162160000Y-71746274D01*
X162160000Y-61793726D02*
X161301274Y-60935000D01*
X161301274Y-60935000D02*
X159371800Y-60935000D01*
X162160000Y-71746274D02*
X162160000Y-61793726D01*
X161530192Y-62250000D02*
X161600000Y-62250000D01*
X161168726Y-61255000D02*
X159504349Y-61255000D01*
X160090736Y-74340000D02*
X160177132Y-74253604D01*
X161290192Y-62610000D02*
X161290192Y-62490000D01*
X161290173Y-63810000D02*
X161290173Y-63690000D01*
X159335000Y-61424349D02*
X159335000Y-61771800D01*
X161840000Y-63210000D02*
X161840000Y-63090000D01*
X161600000Y-62850000D02*
X161530192Y-62850000D01*
X161530173Y-63450000D02*
X161600000Y-63450000D01*
X161840000Y-62010000D02*
X161840000Y-61926274D01*
X160085000Y-74340000D02*
X160090736Y-74340000D01*
X160177132Y-73276594D02*
X161840000Y-71613726D01*
X160177132Y-74253604D02*
X160177132Y-73276594D01*
X161840000Y-71613726D02*
X161840000Y-64410000D01*
X159504349Y-61255000D02*
X159335000Y-61424349D01*
X161600000Y-64050000D02*
X161530173Y-64050000D01*
X161840000Y-61926274D02*
X161168726Y-61255000D01*
X161840000Y-64410000D02*
X161840000Y-64290000D01*
X161290192Y-62490000D02*
G75*
G02*
X161530192Y-62249992I240008J0D01*
G01*
X161840000Y-64290000D02*
G75*
G03*
X161600000Y-64050000I-240000J0D01*
G01*
X161840000Y-63090000D02*
G75*
G03*
X161600000Y-62850000I-240000J0D01*
G01*
X161600000Y-63450000D02*
G75*
G03*
X161840000Y-63210000I0J240000D01*
G01*
X161290173Y-63690000D02*
G75*
G02*
X161530173Y-63449973I240027J0D01*
G01*
X161530192Y-62850000D02*
G75*
G02*
X161290200Y-62610000I8J240000D01*
G01*
X161600000Y-62250000D02*
G75*
G03*
X161840000Y-62010000I0J240000D01*
G01*
X161530173Y-64050000D02*
G75*
G02*
X161290200Y-63810000I27J240000D01*
G01*
X163895116Y-73281391D02*
X164874935Y-74261210D01*
X160935000Y-60171800D02*
X161415000Y-59691800D01*
X161555526Y-59691800D02*
X162975000Y-61111274D01*
X162840322Y-73317950D02*
X162925174Y-73402802D01*
X162975000Y-61111274D02*
X162975000Y-72361275D01*
X163046588Y-72772274D02*
X162840322Y-72978539D01*
X165272868Y-74659143D02*
X165272868Y-74857132D01*
X162975000Y-72361275D02*
X163046588Y-72432863D01*
X161415000Y-59691800D02*
X161555526Y-59691800D01*
X163810262Y-73196536D02*
X163895116Y-73281391D01*
X163264586Y-73402802D02*
X163470851Y-73196536D01*
X164874935Y-74261210D02*
X165272868Y-74659143D01*
X163470851Y-73196536D02*
G75*
G02*
X163810262Y-73196535I169706J-169707D01*
G01*
X162840322Y-72978539D02*
G75*
G03*
X162840366Y-73317905I169678J-169661D01*
G01*
X163046588Y-72432863D02*
G75*
G02*
X163046620Y-72772306I-169688J-169737D01*
G01*
X162925174Y-73402802D02*
G75*
G03*
X163264586Y-73402802I169706J169704D01*
G01*
X163295000Y-60978726D02*
X163295000Y-72228725D01*
X163295000Y-72228725D02*
X165499143Y-74432868D01*
X160135000Y-59371800D02*
X161688074Y-59371800D01*
X161688074Y-59371800D02*
X163295000Y-60978726D01*
X165499143Y-74432868D02*
X165697132Y-74432868D01*
X166160899Y-59578399D02*
X166210000Y-59578399D01*
X167977132Y-74003604D02*
X167872868Y-74107868D01*
X167977132Y-71738406D02*
X167977132Y-74003604D01*
X166210000Y-58978399D02*
X166160899Y-58978399D01*
X166450000Y-70211274D02*
X167977132Y-71738406D01*
X161174999Y-57531801D02*
X162199473Y-57531801D01*
X162199473Y-57531801D02*
X163426274Y-56305000D01*
X163426274Y-56305000D02*
X164337454Y-56305000D01*
X166450000Y-58417546D02*
X166450000Y-58738399D01*
X165920899Y-59218399D02*
X165920899Y-59338399D01*
X166450000Y-60832331D02*
X166450000Y-70211274D01*
X164337454Y-56305000D02*
X166450000Y-58417546D01*
X166450000Y-59938399D02*
X166450000Y-60832331D01*
X166450000Y-59818399D02*
X166450000Y-59938399D01*
X160935000Y-57771800D02*
X161174999Y-57531801D01*
X166210000Y-59578399D02*
G75*
G02*
X166450001Y-59818399I0J-240001D01*
G01*
X166160899Y-58978399D02*
G75*
G03*
X165920899Y-59218399I1J-240001D01*
G01*
X166450000Y-58738399D02*
G75*
G02*
X166210000Y-58978400I-240000J-1D01*
G01*
X165920899Y-59338399D02*
G75*
G03*
X166160899Y-59578401I240001J-1D01*
G01*
X168297132Y-71605858D02*
X166770000Y-70078726D01*
X164470000Y-55985000D02*
X163293726Y-55985000D01*
X163293726Y-55985000D02*
X162066927Y-57211799D01*
X162066927Y-57211799D02*
X161174999Y-57211799D01*
X166770000Y-58285000D02*
X164470000Y-55985000D01*
X166770000Y-70078726D02*
X166770000Y-58285000D01*
X161174999Y-57211799D02*
X160935000Y-56971800D01*
X168297132Y-74532132D02*
X168297132Y-71605858D01*
D13*
X139810000Y-65220000D02*
X134685000Y-65220000D01*
X134010000Y-65895000D02*
X132260000Y-65895000D01*
X129025000Y-68555000D02*
X129025000Y-73430000D01*
X140535000Y-64495000D02*
X139810000Y-65220000D01*
X140535000Y-60571800D02*
X140535000Y-64495000D01*
X129025000Y-73430000D02*
X128635000Y-73820000D01*
X134685000Y-65220000D02*
X134010000Y-65895000D01*
X132260000Y-65895000D02*
X131410000Y-66745000D01*
X130835000Y-66745000D02*
X129025000Y-68555000D01*
X140935000Y-60171800D02*
X140535000Y-60571800D01*
X131410000Y-66745000D02*
X130835000Y-66745000D01*
X131935000Y-67445000D02*
X131485000Y-67895000D01*
X129555000Y-73551827D02*
X130385000Y-74381827D01*
X130485000Y-67895000D02*
X129555000Y-68825000D01*
X136135000Y-65771800D02*
X135283200Y-65771800D01*
X132310000Y-66795000D02*
X131935000Y-67170000D01*
X131935000Y-67170000D02*
X131935000Y-67445000D01*
X129555000Y-68825000D02*
X129555000Y-73551827D01*
X130385000Y-74381827D02*
X130385000Y-75010000D01*
X131485000Y-67895000D02*
X130485000Y-67895000D01*
X134260000Y-66795000D02*
X132310000Y-66795000D01*
X135283200Y-65771800D02*
X134260000Y-66795000D01*
X131260000Y-74620000D02*
X130075000Y-73435000D01*
X137116802Y-66163198D02*
X137508200Y-65771800D01*
X134010000Y-67745000D02*
X135591802Y-66163198D01*
X130075000Y-68941396D02*
X130696396Y-68320000D01*
X135591802Y-66163198D02*
X137116802Y-66163198D01*
X137508200Y-65771800D02*
X137735000Y-65771800D01*
X131660000Y-68320000D02*
X132235000Y-67745000D01*
X130696396Y-68320000D02*
X131660000Y-68320000D01*
X130075000Y-73435000D02*
X130075000Y-68941396D01*
X132235000Y-67745000D02*
X134010000Y-67745000D01*
X135966802Y-66613198D02*
X136135000Y-66613198D01*
X135135000Y-67445000D02*
X135966802Y-66613198D01*
X133385000Y-70270000D02*
X135135000Y-68520000D01*
X135135000Y-68520000D02*
X135135000Y-67445000D01*
X131885000Y-75010000D02*
X131885000Y-73970000D01*
X131885000Y-73970000D02*
X133385000Y-72470000D01*
X133385000Y-72470000D02*
X133385000Y-70270000D01*
X136785000Y-68245000D02*
X136785000Y-67345000D01*
X132810000Y-74620000D02*
X132810000Y-73681396D01*
X136785000Y-67345000D02*
X137222500Y-66907500D01*
X135785000Y-68570000D02*
X136460000Y-68570000D01*
X133835000Y-72656396D02*
X133835000Y-70520000D01*
X132810000Y-73681396D02*
X133835000Y-72656396D01*
X137222500Y-66907500D02*
X137558200Y-66571800D01*
X137558200Y-66571800D02*
X137735000Y-66571800D01*
X133835000Y-70520000D02*
X135785000Y-68570000D01*
X136460000Y-68570000D02*
X136785000Y-68245000D01*
X143735000Y-64620000D02*
X142335000Y-63220000D01*
X143860000Y-75020000D02*
X143860000Y-74145000D01*
X142335000Y-57045000D02*
X141860000Y-56570000D01*
X143735000Y-74020000D02*
X143735000Y-64620000D01*
X142335000Y-63220000D02*
X142335000Y-57045000D01*
X143860000Y-74145000D02*
X143735000Y-74020000D01*
X142835000Y-56845000D02*
X141935000Y-55945000D01*
X141935000Y-55945000D02*
X141910000Y-55945000D01*
X142835000Y-63045000D02*
X142835000Y-56845000D01*
X144810000Y-74595000D02*
X144810000Y-74070000D01*
X144810000Y-74070000D02*
X144525000Y-73785000D01*
X144525000Y-64735000D02*
X142835000Y-63045000D01*
X144525000Y-73785000D02*
X144525000Y-64735000D01*
X123365000Y-74225000D02*
X123365000Y-65615000D01*
X138146800Y-60560000D02*
X138535000Y-60171800D01*
X123365000Y-65615000D02*
X128185000Y-60795000D01*
X129855000Y-60400000D02*
X135465000Y-60400000D01*
X128185000Y-60795000D02*
X129460000Y-60795000D01*
X124135000Y-74995000D02*
X123365000Y-74225000D01*
X129460000Y-60795000D02*
X129855000Y-60400000D01*
X135465000Y-60400000D02*
X135625000Y-60560000D01*
X135625000Y-60560000D02*
X138146800Y-60560000D01*
X128335000Y-61645000D02*
X128760000Y-61645000D01*
X124585000Y-70070000D02*
X123995000Y-69480000D01*
X128760000Y-61645000D02*
X128960000Y-61445000D01*
X123995000Y-65985000D02*
X128335000Y-61645000D01*
X133460000Y-60970000D02*
X138536800Y-60970000D01*
X132985000Y-61445000D02*
X133460000Y-60970000D01*
X138536800Y-60970000D02*
X139335000Y-60171800D01*
X128960000Y-61445000D02*
X132985000Y-61445000D01*
X125635000Y-74995000D02*
X124585000Y-73945000D01*
X124585000Y-73945000D02*
X124585000Y-70070000D01*
X123995000Y-69480000D02*
X123995000Y-65985000D01*
X125635000Y-74395000D02*
X125255000Y-74015000D01*
X133260000Y-61995000D02*
X133685000Y-61570000D01*
X125255000Y-66000000D02*
X128985000Y-62270000D01*
X138916800Y-61390000D02*
X140135000Y-60171800D01*
X128985000Y-62270000D02*
X130705000Y-62270000D01*
X125255000Y-74015000D02*
X125255000Y-66000000D01*
X130705000Y-62270000D02*
X130980000Y-61995000D01*
X133685000Y-61570000D02*
X135610000Y-61570000D01*
X135610000Y-61570000D02*
X135790000Y-61390000D01*
X130980000Y-61995000D02*
X133260000Y-61995000D01*
X135790000Y-61390000D02*
X138916800Y-61390000D01*
X126410000Y-66220000D02*
X126410000Y-69445000D01*
X126235000Y-69620000D02*
X126235000Y-74095000D01*
X133685000Y-62470000D02*
X131345000Y-62470000D01*
X126235000Y-74095000D02*
X127135000Y-74995000D01*
X137346800Y-62160000D02*
X133995000Y-62160000D01*
X131345000Y-62470000D02*
X130970000Y-62845000D01*
X126410000Y-69445000D02*
X126235000Y-69620000D01*
X130970000Y-62845000D02*
X129785000Y-62845000D01*
X137735000Y-61771800D02*
X137346800Y-62160000D01*
X133995000Y-62160000D02*
X133685000Y-62470000D01*
X129785000Y-62845000D02*
X126410000Y-66220000D01*
X131785000Y-62960000D02*
X138020001Y-62960000D01*
X126735000Y-69870000D02*
X127010000Y-69595000D01*
X127010000Y-69595000D02*
X127010000Y-66970000D01*
X138535000Y-62445001D02*
X138535000Y-61771800D01*
X130610000Y-63370000D02*
X131375000Y-63370000D01*
X126735000Y-73995000D02*
X126735000Y-69870000D01*
X127010000Y-66970000D02*
X130610000Y-63370000D01*
X127135000Y-74395000D02*
X126735000Y-73995000D01*
X131375000Y-63370000D02*
X131785000Y-62960000D01*
X138020001Y-62960000D02*
X138535000Y-62445001D01*
X132025000Y-63770000D02*
X138808552Y-63770000D01*
X128635000Y-74995000D02*
X127760000Y-74120000D01*
X131675000Y-64120000D02*
X130835000Y-64120000D01*
X138935000Y-63643552D02*
X138935000Y-62171800D01*
X127760000Y-74120000D02*
X127760000Y-67195000D01*
X138808552Y-63770000D02*
X138935000Y-63643552D01*
X138935000Y-62171800D02*
X139335000Y-61771800D01*
X127760000Y-67195000D02*
X130835000Y-64120000D01*
X132025000Y-63770000D02*
X131675000Y-64120000D01*
X128245000Y-74005000D02*
X128635000Y-74395000D01*
X139485000Y-64645000D02*
X134385000Y-64645000D01*
X130910000Y-65495000D02*
X128245000Y-68160000D01*
X139752513Y-62154287D02*
X139752513Y-64377487D01*
X139752513Y-64377487D02*
X139485000Y-64645000D01*
X140135000Y-61771800D02*
X139752513Y-62154287D01*
X131385000Y-65495000D02*
X130910000Y-65495000D01*
X134385000Y-64645000D02*
X134160000Y-64870000D01*
X134160000Y-64870000D02*
X132010000Y-64870000D01*
X132010000Y-64870000D02*
X131385000Y-65495000D01*
X128245000Y-68160000D02*
X128245000Y-74005000D01*
D15*
X131635364Y-50749249D02*
X131835364Y-50749249D01*
X125285000Y-51071800D02*
X125524999Y-50831801D01*
X125524999Y-50578727D02*
X126518726Y-49585000D01*
X134075364Y-50509254D02*
X134075364Y-50145000D01*
X132635364Y-48420752D02*
X132835364Y-48420752D01*
X133635364Y-50749254D02*
X133835364Y-50749254D01*
X125524999Y-50831801D02*
X125524999Y-50578727D01*
X126518726Y-49585000D02*
X129835364Y-49585000D01*
X130635364Y-48420751D02*
X130835364Y-48420751D01*
X132075364Y-50509249D02*
X132075364Y-48980752D01*
X131395364Y-48980751D02*
X131395364Y-50509249D01*
X134635364Y-49585000D02*
X139601274Y-49585000D01*
X139601274Y-49585000D02*
X139895001Y-49878727D01*
X133395364Y-48980752D02*
X133395364Y-50509254D01*
X130075364Y-49345000D02*
X130075364Y-48980751D01*
X139895001Y-49878727D02*
X139895001Y-50331801D01*
X139895001Y-50331801D02*
X140135000Y-50571800D01*
X131395364Y-50509249D02*
G75*
G03*
X131635364Y-50749336I240036J-51D01*
G01*
X130835364Y-48420751D02*
G75*
G02*
X131395449Y-48980751I36J-560049D01*
G01*
X132075364Y-48980752D02*
G75*
G02*
X132635364Y-48420764I560036J-48D01*
G01*
X133395364Y-50509254D02*
G75*
G03*
X133635364Y-50749336I240036J-46D01*
G01*
X132835364Y-48420752D02*
G75*
G02*
X133395448Y-48980752I36J-560048D01*
G01*
X129835364Y-49585000D02*
G75*
G03*
X130075400Y-49345000I36J240000D01*
G01*
X133835364Y-50749254D02*
G75*
G03*
X134075354Y-50509254I36J239954D01*
G01*
X131835364Y-50749249D02*
G75*
G03*
X132075349Y-50509249I36J239949D01*
G01*
X130075364Y-48980751D02*
G75*
G02*
X130635364Y-48420764I560036J-49D01*
G01*
X134075364Y-50145000D02*
G75*
G02*
X134635364Y-49584964I560036J0D01*
G01*
X134635364Y-49905000D02*
X136578852Y-49905000D01*
X138725726Y-50347777D02*
X138633726Y-50347777D01*
X130635364Y-48740751D02*
X130835364Y-48740751D01*
X126651273Y-49905000D02*
X129835364Y-49905000D01*
X137958852Y-50119874D02*
X137713726Y-50119874D01*
X139574999Y-50331801D02*
X139574999Y-50011273D01*
X134395364Y-50509254D02*
X134395364Y-50145000D01*
X132395364Y-50509249D02*
X132395364Y-48980752D01*
X125845001Y-50711273D02*
X126651273Y-49905000D01*
X133635364Y-51069254D02*
X133835364Y-51069254D01*
X130395364Y-49345000D02*
X130395364Y-48980751D01*
X133075364Y-48980752D02*
X133075364Y-50509254D01*
X132635364Y-48740752D02*
X132835364Y-48740752D01*
X139468726Y-49905000D02*
X139093726Y-49905000D01*
X138449726Y-50163777D02*
X138449726Y-50089000D01*
X126085000Y-51071800D02*
X125845001Y-50831801D01*
X137038852Y-50119874D02*
X136793726Y-50119874D01*
X138909726Y-50089000D02*
X138909726Y-50163777D01*
X131075364Y-48980751D02*
X131075364Y-50509249D01*
X139335000Y-50571800D02*
X139574999Y-50331801D01*
X131635364Y-51069249D02*
X131835364Y-51069249D01*
X137498852Y-49905000D02*
X137253726Y-49905000D01*
X139574999Y-50011273D02*
X139468726Y-49905000D01*
X138265726Y-49905000D02*
X138173726Y-49905000D01*
X125845001Y-50831801D02*
X125845001Y-50711273D01*
X131835364Y-51069249D02*
G75*
G03*
X132395449Y-50509249I36J560049D01*
G01*
X134395364Y-50145000D02*
G75*
G02*
X134635364Y-49904964I240036J0D01*
G01*
X131075364Y-50509249D02*
G75*
G03*
X131635364Y-51069236I560036J49D01*
G01*
X138909726Y-50163777D02*
G75*
G02*
X138725726Y-50347826I-184026J-23D01*
G01*
X130395364Y-48980751D02*
G75*
G02*
X130635364Y-48740664I240036J51D01*
G01*
X139093726Y-49905000D02*
G75*
G03*
X138909700Y-50089000I-26J-184000D01*
G01*
X130835364Y-48740751D02*
G75*
G02*
X131075349Y-48980751I36J-239949D01*
G01*
X137253726Y-49905000D02*
G75*
G03*
X137146300Y-50012437I-26J-107400D01*
G01*
X136686289Y-50012437D02*
G75*
G03*
X136578852Y-49905011I-107389J37D01*
G01*
X133835364Y-51069254D02*
G75*
G03*
X134395354Y-50509254I36J559954D01*
G01*
X137606289Y-50012437D02*
G75*
G03*
X137498852Y-49905011I-107389J37D01*
G01*
X132835364Y-48740752D02*
G75*
G02*
X133075448Y-48980752I36J-240048D01*
G01*
X137146289Y-50012437D02*
G75*
G02*
X137038852Y-50119789I-107389J37D01*
G01*
X136793726Y-50119874D02*
G75*
G02*
X136686226Y-50012437I-26J107474D01*
G01*
X138449726Y-50089000D02*
G75*
G03*
X138265726Y-49904974I-184026J0D01*
G01*
X132395364Y-48980752D02*
G75*
G02*
X132635364Y-48740764I240036J-48D01*
G01*
X138633726Y-50347777D02*
G75*
G02*
X138449723Y-50163777I-26J183977D01*
G01*
X133075364Y-50509254D02*
G75*
G03*
X133635364Y-51069336I560036J-46D01*
G01*
X137713726Y-50119874D02*
G75*
G02*
X137606226Y-50012437I-26J107474D01*
G01*
X138066289Y-50012437D02*
G75*
G02*
X137958852Y-50119789I-107389J37D01*
G01*
X129835364Y-49905000D02*
G75*
G03*
X130395400Y-49345000I36J560000D01*
G01*
X138173726Y-49905000D02*
G75*
G03*
X138066300Y-50012437I-26J-107400D01*
G01*
D13*
X127180247Y-54385240D02*
X127420487Y-54385240D01*
X125180213Y-54385274D02*
X125420487Y-54385274D01*
X138135000Y-56395000D02*
X138135000Y-56020000D01*
X138935000Y-54345000D02*
X139685000Y-53595000D01*
X122661800Y-55071800D02*
X122535000Y-54945000D01*
X126680147Y-54645000D02*
X126920487Y-54645000D01*
X130435000Y-54645000D02*
X132360000Y-56570000D01*
X137960000Y-56570000D02*
X138135000Y-56395000D01*
X128680249Y-54645000D02*
X130435000Y-54645000D01*
X122535000Y-54945000D02*
X122535000Y-54795000D01*
X122885000Y-55071800D02*
X122661800Y-55071800D01*
X123180147Y-54385340D02*
X123420487Y-54385340D01*
X138935000Y-55220000D02*
X138935000Y-54345000D01*
X128180249Y-54385238D02*
X128420487Y-54385238D01*
X125680213Y-54645000D02*
X125920487Y-54645000D01*
X124680213Y-54645000D02*
X124920487Y-54645000D01*
X122685000Y-54645000D02*
X122920487Y-54645000D01*
X126180147Y-54385340D02*
X126420487Y-54385340D01*
X139685000Y-52645000D02*
X140135000Y-52195000D01*
X127680247Y-54645000D02*
X127920487Y-54645000D01*
X139685000Y-53595000D02*
X139685000Y-52645000D01*
X123680147Y-54645000D02*
X123920487Y-54645000D01*
X140135000Y-52195000D02*
X140135000Y-52171800D01*
X132360000Y-56570000D02*
X137960000Y-56570000D01*
X122535000Y-54795000D02*
X122685000Y-54645000D01*
X138135000Y-56020000D02*
X138935000Y-55220000D01*
X124180213Y-54385274D02*
X124420487Y-54385274D01*
X127420487Y-54385240D02*
G75*
G02*
X127550360Y-54515120I13J-129860D01*
G01*
X124050350Y-54515137D02*
G75*
G02*
X124180213Y-54385250I129850J37D01*
G01*
X127050367Y-54515120D02*
G75*
G02*
X127180247Y-54385267I129833J20D01*
G01*
X122920487Y-54645000D02*
G75*
G03*
X123050300Y-54515170I13J129800D01*
G01*
X123420487Y-54385340D02*
G75*
G02*
X123550360Y-54515170I13J-129860D01*
G01*
X128050368Y-54515119D02*
G75*
G02*
X128180249Y-54385268I129832J19D01*
G01*
X124420487Y-54385274D02*
G75*
G02*
X124550326Y-54515137I13J-129826D01*
G01*
X128550368Y-54515119D02*
G75*
G03*
X128680249Y-54644932I129832J19D01*
G01*
X128420487Y-54385238D02*
G75*
G02*
X128550362Y-54515119I13J-129862D01*
G01*
X125420487Y-54385274D02*
G75*
G02*
X125550326Y-54515137I13J-129826D01*
G01*
X127550367Y-54515120D02*
G75*
G03*
X127680247Y-54644933I129833J20D01*
G01*
X126050317Y-54515170D02*
G75*
G02*
X126180147Y-54385417I129783J-30D01*
G01*
X125550350Y-54515137D02*
G75*
G03*
X125680213Y-54644950I129850J37D01*
G01*
X124550350Y-54515137D02*
G75*
G03*
X124680213Y-54644950I129850J37D01*
G01*
X125050350Y-54515137D02*
G75*
G02*
X125180213Y-54385250I129850J37D01*
G01*
X123920487Y-54645000D02*
G75*
G03*
X124050400Y-54515137I13J129900D01*
G01*
X124920487Y-54645000D02*
G75*
G03*
X125050400Y-54515137I13J129900D01*
G01*
X126920487Y-54645000D02*
G75*
G03*
X127050400Y-54515120I13J129900D01*
G01*
X123550317Y-54515170D02*
G75*
G03*
X123680147Y-54644983I129783J-30D01*
G01*
X123050317Y-54515170D02*
G75*
G02*
X123180147Y-54385417I129783J-30D01*
G01*
X126550317Y-54515170D02*
G75*
G03*
X126680147Y-54644983I129783J-30D01*
G01*
X126420487Y-54385340D02*
G75*
G02*
X126550360Y-54515170I13J-129860D01*
G01*
X127920487Y-54645000D02*
G75*
G03*
X128050400Y-54515119I13J129900D01*
G01*
X125920487Y-54645000D02*
G75*
G03*
X126050300Y-54515170I13J129800D01*
G01*
D15*
X135753450Y-54956328D02*
X135557122Y-54956328D01*
X137975000Y-54978726D02*
X137593726Y-55360000D01*
X122450100Y-51871800D02*
X122450100Y-52023030D01*
X120670565Y-53495000D02*
X120351982Y-53176417D01*
X137975000Y-54811800D02*
X137975000Y-54978726D01*
X122236230Y-52236900D02*
X121946175Y-52236900D01*
X130860000Y-53495000D02*
X120670565Y-53495000D01*
X134553394Y-54956272D02*
X134357122Y-54956272D01*
X135153450Y-55360000D02*
X134957122Y-55360000D01*
X120594197Y-52580000D02*
X121603075Y-52580000D01*
X121946175Y-52236900D02*
X121603075Y-52580000D01*
X136403450Y-55360000D02*
X136157122Y-55360000D01*
X132725000Y-55360000D02*
X130860000Y-53495000D01*
X120351982Y-53176417D02*
X120351982Y-52822215D01*
X137593726Y-55360000D02*
X137357122Y-55360000D01*
X137003450Y-55006328D02*
X136757122Y-55006328D01*
X122450100Y-52023030D02*
X122236230Y-52236900D01*
X132725000Y-55360000D02*
X133953394Y-55360000D01*
X137735000Y-54571800D02*
X137975000Y-54811800D01*
X120351982Y-52822215D02*
X120594197Y-52580000D01*
X122885000Y-51871800D02*
X122450100Y-51871800D01*
X134357122Y-54956272D02*
G75*
G03*
X134155272Y-55158136I-22J-201828D01*
G01*
X135355286Y-55158164D02*
G75*
G02*
X135153450Y-55359986I-201786J-36D01*
G01*
X137180286Y-55183164D02*
G75*
G03*
X137003450Y-55006414I-176786J-36D01*
G01*
X135557122Y-54956328D02*
G75*
G03*
X135355228Y-55158164I-22J-201872D01*
G01*
X134755258Y-55158136D02*
G75*
G03*
X134553394Y-54956242I-201858J36D01*
G01*
X135955286Y-55158164D02*
G75*
G03*
X135753450Y-54956414I-201786J-36D01*
G01*
X136157122Y-55360000D02*
G75*
G02*
X135955300Y-55158164I-22J201800D01*
G01*
X136757122Y-55006328D02*
G75*
G03*
X136580228Y-55183164I-22J-176872D01*
G01*
X134155258Y-55158136D02*
G75*
G02*
X133953394Y-55359958I-201858J36D01*
G01*
X137357122Y-55360000D02*
G75*
G02*
X137180300Y-55183164I-22J176800D01*
G01*
X136580286Y-55183164D02*
G75*
G02*
X136403450Y-55359986I-176786J-36D01*
G01*
X134957122Y-55360000D02*
G75*
G02*
X134755200Y-55158136I-22J201900D01*
G01*
X122085000Y-51071800D02*
X122085000Y-51506700D01*
X121719900Y-51720570D02*
X121719900Y-52010625D01*
X122085000Y-51506700D02*
X121933770Y-51506700D01*
X121719900Y-52010625D02*
X121470525Y-52260000D01*
X138295000Y-55111274D02*
X138295000Y-54811800D01*
X120031982Y-53308965D02*
X120538017Y-53815000D01*
X120031982Y-52689667D02*
X120031982Y-53308965D01*
X121470525Y-52260000D02*
X120461648Y-52260000D01*
X138295000Y-54811800D02*
X138535000Y-54571800D01*
X120461648Y-52260000D02*
X120031982Y-52689667D01*
X132592454Y-55680000D02*
X137726274Y-55680000D01*
X137726274Y-55680000D02*
X138295000Y-55111274D01*
X121933770Y-51506700D02*
X121719900Y-51720570D01*
X120538017Y-53815000D02*
X130727454Y-53815000D01*
X130727454Y-53815000D02*
X132592454Y-55680000D01*
D13*
X132890000Y-42120000D02*
X133029353Y-42120000D01*
X137343200Y-46180000D02*
X137735000Y-46571800D01*
X132050000Y-42360000D02*
X132050000Y-42481207D01*
X127560000Y-42320000D02*
X127760000Y-42120000D01*
X135551514Y-43836513D02*
X136535000Y-44820000D01*
X128821935Y-42690000D02*
X128941935Y-42690000D01*
X136535000Y-44820000D02*
X136535000Y-45995000D01*
X127754000Y-42968000D02*
X127560000Y-42774000D01*
X132290000Y-42721207D02*
X132410000Y-42721207D01*
X129181935Y-42450000D02*
X129181935Y-42360000D01*
X133029353Y-42120000D02*
X133979353Y-43070000D01*
X132650000Y-42481207D02*
X132650000Y-42360000D01*
X133979353Y-43070000D02*
X134785000Y-43070000D01*
X136535000Y-45995000D02*
X136720000Y-46180000D01*
X127760000Y-42120000D02*
X128341935Y-42120000D01*
X128086000Y-42968000D02*
X127754000Y-42968000D01*
X136720000Y-46180000D02*
X137343200Y-46180000D01*
X128581935Y-42360000D02*
X128581935Y-42450000D01*
X129421935Y-42120000D02*
X131810000Y-42120000D01*
X134785000Y-43070000D02*
X135551514Y-43836513D01*
X127560000Y-42774000D02*
X127560000Y-42320000D01*
X132050000Y-42481207D02*
G75*
G03*
X132290000Y-42721200I240000J7D01*
G01*
X129181935Y-42360000D02*
G75*
G02*
X129421935Y-42120035I239965J0D01*
G01*
X128941935Y-42690000D02*
G75*
G03*
X129181900Y-42450000I-35J240000D01*
G01*
X132410000Y-42721207D02*
G75*
G03*
X132650007Y-42481207I0J240007D01*
G01*
X128341935Y-42120000D02*
G75*
G02*
X128581900Y-42360000I-35J-240000D01*
G01*
X128581935Y-42450000D02*
G75*
G03*
X128821935Y-42689965I239965J0D01*
G01*
X131810000Y-42120000D02*
G75*
G02*
X132050000Y-42360000I0J-240000D01*
G01*
X132650000Y-42360000D02*
G75*
G02*
X132890000Y-42120000I240000J0D01*
G01*
X131648949Y-43208666D02*
X131837615Y-43208666D01*
X131443282Y-43802603D02*
X131443282Y-43414333D01*
X134185000Y-44945000D02*
X134685000Y-44945000D01*
X127899800Y-43620000D02*
X128248282Y-43620000D01*
X129825884Y-43985205D02*
X130060680Y-43985205D01*
X132248949Y-43620000D02*
X132860000Y-43620000D01*
X135535000Y-45795000D02*
X135535000Y-46645000D01*
X135860000Y-46970000D02*
X136533200Y-46970000D01*
X135535000Y-46645000D02*
X135860000Y-46970000D01*
X130843282Y-43412407D02*
X130843282Y-43802603D01*
X132860000Y-43620000D02*
X134185000Y-44945000D01*
X129643282Y-43412363D02*
X129643282Y-43802603D01*
X127628800Y-43349000D02*
X127899800Y-43620000D01*
X129043282Y-43800651D02*
X129043282Y-43412363D01*
X134685000Y-44945000D02*
X135535000Y-45795000D01*
X136533200Y-46970000D02*
X136935000Y-47371800D01*
X130243282Y-43802603D02*
X130243282Y-43412407D01*
X128609584Y-43981302D02*
X128862631Y-43981302D01*
X131025884Y-43985205D02*
X131260680Y-43985205D01*
X130450874Y-43204815D02*
X130635690Y-43204815D01*
X129250918Y-43204727D02*
X129435646Y-43204727D01*
X131260680Y-43985205D02*
G75*
G03*
X131443305Y-43802603I20J182605D01*
G01*
X131837615Y-43208666D02*
G75*
G02*
X132043234Y-43414333I-15J-205634D01*
G01*
X128248282Y-43620000D02*
G75*
G02*
X128428900Y-43800651I18J-180600D01*
G01*
X129643282Y-43802603D02*
G75*
G03*
X129825884Y-43985218I182618J3D01*
G01*
X130060680Y-43985205D02*
G75*
G03*
X130243305Y-43802603I20J182605D01*
G01*
X130243282Y-43412407D02*
G75*
G02*
X130450874Y-43204782I207618J7D01*
G01*
X128428933Y-43800651D02*
G75*
G03*
X128609584Y-43981367I180667J-49D01*
G01*
X131443282Y-43414333D02*
G75*
G02*
X131648949Y-43208682I205618J33D01*
G01*
X128862631Y-43981302D02*
G75*
G03*
X129043202Y-43800651I-31J180602D01*
G01*
X130843282Y-43802603D02*
G75*
G03*
X131025884Y-43985218I182618J3D01*
G01*
X129435646Y-43204727D02*
G75*
G02*
X129643273Y-43412363I-46J-207673D01*
G01*
X130635690Y-43204815D02*
G75*
G02*
X130843285Y-43412407I10J-207585D01*
G01*
X129043282Y-43412363D02*
G75*
G02*
X129250918Y-43204782I207618J-37D01*
G01*
X132043282Y-43414333D02*
G75*
G03*
X132248949Y-43619918I205618J33D01*
G01*
X126917600Y-43349000D02*
X126917600Y-44477600D01*
X126917600Y-44477600D02*
X127335000Y-44895000D01*
X128401002Y-45086537D02*
X128401002Y-44699580D01*
X132192525Y-44895000D02*
X132985001Y-44895000D01*
X130396428Y-45285853D02*
X130605576Y-45285853D01*
X135460000Y-47370000D02*
X136110000Y-47370000D01*
X128596421Y-44504161D02*
X128805583Y-44504161D01*
X129196428Y-45285853D02*
X129405576Y-45285853D01*
X134535735Y-45870735D02*
X134910000Y-46245000D01*
X127335000Y-44895000D02*
X127581002Y-44895000D01*
X127964076Y-45278074D02*
X128209465Y-45278074D01*
X130996436Y-44504132D02*
X131205568Y-44504132D01*
X129001002Y-44699580D02*
X129001002Y-45090427D01*
X131401002Y-44699566D02*
X131401002Y-45086523D01*
X129796421Y-44504161D02*
X130005583Y-44504161D01*
X130801002Y-45090427D02*
X130801002Y-44699566D01*
X129601002Y-45090427D02*
X129601002Y-44699580D01*
X136110000Y-47370000D02*
X136135000Y-47395000D01*
X134910000Y-46245000D02*
X134910000Y-46820000D01*
X130201002Y-44699580D02*
X130201002Y-45090427D01*
X131592525Y-45278046D02*
X131809479Y-45278046D01*
X132985001Y-44895000D02*
X133960736Y-45870735D01*
X134910000Y-46820000D02*
X135460000Y-47370000D01*
X133960736Y-45870735D02*
X134535735Y-45870735D01*
X132001002Y-45086523D02*
G75*
G02*
X132192525Y-44895002I191498J23D01*
G01*
X131401002Y-45086523D02*
G75*
G03*
X131592525Y-45277998I191498J23D01*
G01*
X130201002Y-45090427D02*
G75*
G03*
X130396428Y-45285798I195398J27D01*
G01*
X129405576Y-45285853D02*
G75*
G03*
X129601053Y-45090427I24J195453D01*
G01*
X131809479Y-45278046D02*
G75*
G03*
X132001046Y-45086523I21J191546D01*
G01*
X129001002Y-45090427D02*
G75*
G03*
X129196428Y-45285798I195398J27D01*
G01*
X127772539Y-45086537D02*
G75*
G03*
X127964076Y-45278061I191561J37D01*
G01*
X130605576Y-45285853D02*
G75*
G03*
X130801053Y-45090427I24J195453D01*
G01*
X127581002Y-44895000D02*
G75*
G02*
X127772500Y-45086537I-2J-191500D01*
G01*
X128805583Y-44504161D02*
G75*
G02*
X129001039Y-44699580I17J-195439D01*
G01*
X130005583Y-44504161D02*
G75*
G02*
X130201039Y-44699580I17J-195439D01*
G01*
X129601002Y-44699580D02*
G75*
G02*
X129796421Y-44504202I195398J-20D01*
G01*
X130801002Y-44699566D02*
G75*
G02*
X130996436Y-44504202I195398J-34D01*
G01*
X131205568Y-44504132D02*
G75*
G02*
X131401068Y-44699566I32J-195468D01*
G01*
X128401002Y-44699580D02*
G75*
G02*
X128596421Y-44504202I195398J-20D01*
G01*
X128209465Y-45278074D02*
G75*
G03*
X128401074Y-45086537I35J191574D01*
G01*
X129389242Y-46245000D02*
X132849005Y-46245000D01*
X135858200Y-47895000D02*
X136135000Y-48171800D01*
X125885000Y-43670400D02*
X125885000Y-45195000D01*
X128789242Y-45920680D02*
X129064922Y-45920680D01*
X133360000Y-46245000D02*
X135010000Y-47895000D01*
X125885000Y-45195000D02*
X126935000Y-46245000D01*
X132849005Y-46245000D02*
X133360000Y-46245000D01*
X126130200Y-43425200D02*
X125885000Y-43670400D01*
X127669296Y-45840626D02*
X127864922Y-45840626D01*
X128269296Y-46245000D02*
X128464922Y-46245000D01*
X126935000Y-46245000D02*
X127264922Y-46245000D01*
X135010000Y-47895000D02*
X135858200Y-47895000D01*
X128464922Y-46245000D02*
G75*
G03*
X128627100Y-46082840I-22J162200D01*
G01*
X129064922Y-45920680D02*
G75*
G02*
X129227020Y-46082840I-22J-162120D01*
G01*
X127467109Y-46042813D02*
G75*
G02*
X127669296Y-45840609I202191J13D01*
G01*
X127264922Y-46245000D02*
G75*
G03*
X127467100Y-46042813I-22J202200D01*
G01*
X129227082Y-46082840D02*
G75*
G03*
X129389242Y-46244918I162118J40D01*
G01*
X128067109Y-46042813D02*
G75*
G03*
X128269296Y-46244991I202191J13D01*
G01*
X128627082Y-46082840D02*
G75*
G02*
X128789242Y-45920682I162118J40D01*
G01*
X127864922Y-45840626D02*
G75*
G02*
X128067074Y-46042813I-22J-202174D01*
G01*
M02*
