G04 #@! TF.GenerationSoftware,KiCad,Pcbnew,9.0.0*
G04 #@! TF.CreationDate,2025-10-22T11:33:07+02:00*
G04 #@! TF.ProjectId,ecap5-bsom-frame,65636170-352d-4627-936f-6d2d6672616d,rev?*
G04 #@! TF.SameCoordinates,Original*
G04 #@! TF.FileFunction,Copper,L8,Bot*
G04 #@! TF.FilePolarity,Positive*
%FSLAX46Y46*%
G04 Gerber Fmt 4.6, Leading zero omitted, Abs format (unit mm)*
G04 Created by KiCad (PCBNEW 9.0.0) date 2025-10-22 11:33:07*
%MOMM*%
%LPD*%
G01*
G04 APERTURE LIST*
G04 Aperture macros list*
%AMRoundRect*
0 Rectangle with rounded corners*
0 $1 Rounding radius*
0 $2 $3 $4 $5 $6 $7 $8 $9 X,Y pos of 4 corners*
0 Add a 4 corners polygon primitive as box body*
4,1,4,$2,$3,$4,$5,$6,$7,$8,$9,$2,$3,0*
0 Add four circle primitives for the rounded corners*
1,1,$1+$1,$2,$3*
1,1,$1+$1,$4,$5*
1,1,$1+$1,$6,$7*
1,1,$1+$1,$8,$9*
0 Add four rect primitives between the rounded corners*
20,1,$1+$1,$2,$3,$4,$5,0*
20,1,$1+$1,$4,$5,$6,$7,0*
20,1,$1+$1,$6,$7,$8,$9,0*
20,1,$1+$1,$8,$9,$2,$3,0*%
G04 Aperture macros list end*
G04 #@! TA.AperFunction,SMDPad,CuDef*
%ADD10R,0.350000X2.250000*%
G04 #@! TD*
G04 #@! TA.AperFunction,ComponentPad*
%ADD11C,2.600000*%
G04 #@! TD*
G04 #@! TA.AperFunction,ConnectorPad*
%ADD12C,3.800000*%
G04 #@! TD*
G04 #@! TA.AperFunction,SMDPad,CuDef*
%ADD13RoundRect,0.100000X-0.130000X-0.100000X0.130000X-0.100000X0.130000X0.100000X-0.130000X0.100000X0*%
G04 #@! TD*
G04 #@! TA.AperFunction,SMDPad,CuDef*
%ADD14RoundRect,0.100000X-0.162635X0.021213X0.021213X-0.162635X0.162635X-0.021213X-0.021213X0.162635X0*%
G04 #@! TD*
G04 #@! TA.AperFunction,SMDPad,CuDef*
%ADD15C,1.000000*%
G04 #@! TD*
G04 #@! TA.AperFunction,SMDPad,CuDef*
%ADD16RoundRect,0.100000X-0.100000X0.130000X-0.100000X-0.130000X0.100000X-0.130000X0.100000X0.130000X0*%
G04 #@! TD*
G04 #@! TA.AperFunction,SMDPad,CuDef*
%ADD17RoundRect,0.100000X0.130000X0.100000X-0.130000X0.100000X-0.130000X-0.100000X0.130000X-0.100000X0*%
G04 #@! TD*
G04 #@! TA.AperFunction,SMDPad,CuDef*
%ADD18RoundRect,0.100000X0.100000X-0.130000X0.100000X0.130000X-0.100000X0.130000X-0.100000X-0.130000X0*%
G04 #@! TD*
G04 #@! TA.AperFunction,SMDPad,CuDef*
%ADD19RoundRect,0.225000X-0.250000X0.225000X-0.250000X-0.225000X0.250000X-0.225000X0.250000X0.225000X0*%
G04 #@! TD*
G04 #@! TA.AperFunction,SMDPad,CuDef*
%ADD20RoundRect,0.100000X0.162635X-0.021213X-0.021213X0.162635X-0.162635X0.021213X0.021213X-0.162635X0*%
G04 #@! TD*
G04 #@! TA.AperFunction,SMDPad,CuDef*
%ADD21RoundRect,0.140000X0.170000X-0.140000X0.170000X0.140000X-0.170000X0.140000X-0.170000X-0.140000X0*%
G04 #@! TD*
G04 #@! TA.AperFunction,SMDPad,CuDef*
%ADD22RoundRect,0.100000X-0.021213X-0.162635X0.162635X0.021213X0.021213X0.162635X-0.162635X-0.021213X0*%
G04 #@! TD*
G04 #@! TA.AperFunction,SMDPad,CuDef*
%ADD23RoundRect,0.100000X0.021213X0.162635X-0.162635X-0.021213X-0.021213X-0.162635X0.162635X0.021213X0*%
G04 #@! TD*
G04 #@! TA.AperFunction,ViaPad*
%ADD24C,0.450000*%
G04 #@! TD*
G04 #@! TA.AperFunction,ViaPad*
%ADD25C,0.410000*%
G04 #@! TD*
G04 #@! TA.AperFunction,Conductor*
%ADD26C,0.400000*%
G04 #@! TD*
G04 #@! TA.AperFunction,Conductor*
%ADD27C,0.150000*%
G04 #@! TD*
G04 #@! TA.AperFunction,Conductor*
%ADD28C,0.156464*%
G04 #@! TD*
G04 #@! TA.AperFunction,Conductor*
%ADD29C,0.120000*%
G04 #@! TD*
G04 #@! TA.AperFunction,Conductor*
%ADD30C,0.350000*%
G04 #@! TD*
G04 #@! TA.AperFunction,Conductor*
%ADD31C,0.200000*%
G04 #@! TD*
G04 APERTURE END LIST*
D10*
X115375000Y-77075000D03*
X115875000Y-77075000D03*
X116375000Y-77075000D03*
X116875000Y-77075000D03*
X117375000Y-77075000D03*
X117875000Y-77075000D03*
X118375000Y-77075000D03*
X118875000Y-77075000D03*
X119375000Y-77075000D03*
X119875000Y-77075000D03*
X120375000Y-77075000D03*
X120875000Y-77075000D03*
X121375000Y-77075000D03*
X121875000Y-77075000D03*
X122375000Y-77075000D03*
X122875000Y-77075000D03*
X123375000Y-77075000D03*
X123875000Y-77075000D03*
X124375000Y-77075000D03*
X124875000Y-77075000D03*
X125375000Y-77075000D03*
X125875000Y-77075000D03*
X126375000Y-77075000D03*
X126875000Y-77075000D03*
X127375000Y-77075000D03*
X127875000Y-77075000D03*
X128375000Y-77075000D03*
X128875000Y-77075000D03*
X129375000Y-77075000D03*
X129875000Y-77075000D03*
X130375000Y-77075000D03*
X130875000Y-77075000D03*
X131375000Y-77075000D03*
X131875000Y-77075000D03*
X132375000Y-77075000D03*
X132875000Y-77075000D03*
X133375000Y-77075000D03*
X133875000Y-77075000D03*
X134375000Y-77075000D03*
X134875000Y-77075000D03*
X135375000Y-77075000D03*
X135875000Y-77075000D03*
X136375000Y-77075000D03*
X136875000Y-77075000D03*
X137375000Y-77075000D03*
X137875000Y-77075000D03*
X138375000Y-77075000D03*
X138875000Y-77075000D03*
X139375000Y-77075000D03*
X139875000Y-77075000D03*
X140375000Y-77075000D03*
X140875000Y-77075000D03*
X141375000Y-77075000D03*
X141875000Y-77075000D03*
X142375000Y-77075000D03*
X142875000Y-77075000D03*
X143375000Y-77075000D03*
X143875000Y-77075000D03*
X144375000Y-77075000D03*
X144875000Y-77075000D03*
X145375000Y-77075000D03*
X145875000Y-77075000D03*
X146375000Y-77075000D03*
X146875000Y-77075000D03*
X147375000Y-77075000D03*
X147875000Y-77075000D03*
X148375000Y-77075000D03*
X148875000Y-77075000D03*
X149375000Y-77075000D03*
X149875000Y-77075000D03*
X150375000Y-77075000D03*
X150875000Y-77075000D03*
X153375000Y-77075000D03*
X153875000Y-77075000D03*
X154375000Y-77075000D03*
X154875000Y-77075000D03*
X155375000Y-77075000D03*
X155875000Y-77075000D03*
X156375000Y-77075000D03*
X156875000Y-77075000D03*
X157375000Y-77075000D03*
X157875000Y-77075000D03*
X158375000Y-77075000D03*
X158875000Y-77075000D03*
X159375000Y-77075000D03*
X159875000Y-77075000D03*
X160375000Y-77075000D03*
X160875000Y-77075000D03*
X161375000Y-77075000D03*
X161875000Y-77075000D03*
X162375000Y-77075000D03*
X162875000Y-77075000D03*
X163375000Y-77075000D03*
X163875000Y-77075000D03*
X164375000Y-77075000D03*
X164875000Y-77075000D03*
X165375000Y-77075000D03*
X165875000Y-77075000D03*
X166375000Y-77075000D03*
X166875000Y-77075000D03*
X167375000Y-77075000D03*
X167875000Y-77075000D03*
X168375000Y-77075000D03*
X168875000Y-77075000D03*
X169375000Y-77075000D03*
X169875000Y-77075000D03*
X170375000Y-77075000D03*
X170875000Y-77075000D03*
X171375000Y-77075000D03*
X171875000Y-77075000D03*
X172375000Y-77075000D03*
X172875000Y-77075000D03*
X173375000Y-77075000D03*
X173875000Y-77075000D03*
X174375000Y-77075000D03*
X174875000Y-77075000D03*
X175375000Y-77075000D03*
X175875000Y-77075000D03*
X176375000Y-77075000D03*
X176875000Y-77075000D03*
X177375000Y-77075000D03*
X177875000Y-77075000D03*
X178375000Y-77075000D03*
X178875000Y-77075000D03*
X179375000Y-77075000D03*
X179875000Y-77075000D03*
X180375000Y-77075000D03*
X180875000Y-77075000D03*
X181375000Y-77075000D03*
X181875000Y-77075000D03*
D11*
X180300000Y-35489800D03*
D12*
X180300000Y-35489800D03*
D11*
X116700000Y-35489800D03*
D12*
X116700000Y-35489800D03*
D11*
X165460000Y-71870000D03*
D12*
X165460000Y-71870000D03*
D11*
X131635000Y-71870000D03*
D12*
X131635000Y-71870000D03*
D13*
X143415000Y-55371800D03*
X144055000Y-55371800D03*
D14*
X145108726Y-53945526D03*
X145561274Y-54398074D03*
D15*
X185300000Y-23850000D03*
D16*
X150535000Y-53851800D03*
X150535000Y-54491800D03*
D13*
X143415000Y-56971800D03*
X144055000Y-56971800D03*
D15*
X111700000Y-23850000D03*
D17*
X125281800Y-49533200D03*
X124641800Y-49533200D03*
D16*
X152135000Y-52251800D03*
X152135000Y-52891800D03*
D13*
X145015000Y-56971800D03*
X145655000Y-56971800D03*
D16*
X147335000Y-53851800D03*
X147335000Y-54491800D03*
D17*
X153655000Y-60171800D03*
X153015000Y-60171800D03*
D18*
X148135000Y-60891800D03*
X148135000Y-60251800D03*
X140615000Y-38245000D03*
X140615000Y-37605000D03*
D17*
X125980000Y-40920000D03*
X125340000Y-40920000D03*
D13*
X145015000Y-60171800D03*
X145655000Y-60171800D03*
D17*
X152055000Y-55371800D03*
X151415000Y-55371800D03*
D16*
X144935000Y-61051800D03*
X144935000Y-61691800D03*
D17*
X126385000Y-39920000D03*
X125745000Y-39920000D03*
D18*
X149735000Y-60891800D03*
X149735000Y-60251800D03*
X123685000Y-50271800D03*
X123685000Y-49631800D03*
D17*
X146110000Y-39845000D03*
X145470000Y-39845000D03*
X152055000Y-56971800D03*
X151415000Y-56971800D03*
D16*
X145735000Y-52251800D03*
X145735000Y-52891800D03*
D17*
X153655000Y-57771800D03*
X153015000Y-57771800D03*
D16*
X146535000Y-52251800D03*
X146535000Y-52891800D03*
D17*
X128060000Y-35345000D03*
X127420000Y-35345000D03*
D13*
X139095000Y-38245000D03*
X139735000Y-38245000D03*
D17*
X152055000Y-56171800D03*
X151415000Y-56171800D03*
X152435000Y-38245000D03*
X151795000Y-38245000D03*
D16*
X145735000Y-61051800D03*
X145735000Y-61691800D03*
D13*
X145015000Y-55371800D03*
X145655000Y-55371800D03*
D16*
X148135000Y-52251800D03*
X148135000Y-52891800D03*
D17*
X153655000Y-61771800D03*
X153015000Y-61771800D03*
D19*
X145739000Y-65026600D03*
X145739000Y-66576600D03*
D13*
X141470000Y-35045000D03*
X142110000Y-35045000D03*
D16*
X150535000Y-52251800D03*
X150535000Y-52891800D03*
D20*
X151961274Y-60798074D03*
X151508726Y-60345526D03*
D13*
X151770000Y-35045000D03*
X152410000Y-35045000D03*
X143415000Y-54571800D03*
X144055000Y-54571800D03*
X145015000Y-57771800D03*
X145655000Y-57771800D03*
D18*
X148935000Y-60891800D03*
X148935000Y-60251800D03*
D13*
X143415000Y-56171800D03*
X144055000Y-56171800D03*
D17*
X122085000Y-56671800D03*
X121445000Y-56671800D03*
D13*
X145015000Y-59371800D03*
X145655000Y-59371800D03*
D17*
X150035000Y-35045000D03*
X149395000Y-35045000D03*
X152055000Y-57771800D03*
X151415000Y-57771800D03*
D13*
X145020000Y-56171800D03*
X145660000Y-56171800D03*
D16*
X147335000Y-52251800D03*
X147335000Y-52891800D03*
D21*
X151365000Y-63780000D03*
X151365000Y-62820000D03*
X155035000Y-53981800D03*
X155035000Y-53021800D03*
D17*
X142135000Y-38245000D03*
X141495000Y-38245000D03*
D21*
X149035000Y-63780000D03*
X149035000Y-62820000D03*
D18*
X147335000Y-60891800D03*
X147335000Y-60251800D03*
D13*
X143415000Y-60971800D03*
X144055000Y-60971800D03*
X143415000Y-53771800D03*
X144055000Y-53771800D03*
D16*
X149735000Y-52251800D03*
X149735000Y-52891800D03*
D18*
X150535000Y-60891800D03*
X150535000Y-60251800D03*
D13*
X127685000Y-50271800D03*
X128325000Y-50271800D03*
D22*
X123858726Y-56498074D03*
X124311274Y-56045526D03*
D17*
X153655000Y-60971800D03*
X153015000Y-60971800D03*
D16*
X149735000Y-53851800D03*
X149735000Y-54491800D03*
D13*
X142220000Y-39845000D03*
X142860000Y-39845000D03*
D17*
X122085000Y-50271800D03*
X121445000Y-50271800D03*
D16*
X144935000Y-52251800D03*
X144935000Y-52891800D03*
D13*
X144165000Y-62571800D03*
X144805000Y-62571800D03*
D16*
X148135000Y-53851800D03*
X148135000Y-54491800D03*
D17*
X153655000Y-56171800D03*
X153015000Y-56171800D03*
X143255000Y-62571800D03*
X142615000Y-62571800D03*
X139735000Y-35045000D03*
X139095000Y-35045000D03*
D21*
X148115000Y-63780000D03*
X148115000Y-62820000D03*
D13*
X152520000Y-39845000D03*
X153160000Y-39845000D03*
D17*
X135810000Y-39845000D03*
X135170000Y-39845000D03*
D13*
X143415000Y-59371800D03*
X144055000Y-59371800D03*
X143415000Y-61771800D03*
X144055000Y-61771800D03*
D16*
X151335000Y-52251800D03*
X151335000Y-52891800D03*
D13*
X143415000Y-60171800D03*
X144055000Y-60171800D03*
D21*
X150435000Y-63780000D03*
X150435000Y-62820000D03*
D13*
X149395000Y-38245000D03*
X150035000Y-38245000D03*
D16*
X124885000Y-38420000D03*
X124885000Y-39060000D03*
D13*
X153815000Y-62571800D03*
X154455000Y-62571800D03*
D17*
X153655000Y-59371800D03*
X153015000Y-59371800D03*
D16*
X151335000Y-53851800D03*
X151335000Y-54491800D03*
D13*
X125290000Y-56671800D03*
X125930000Y-56671800D03*
X145015000Y-58571800D03*
X145655000Y-58571800D03*
D17*
X153655000Y-53771800D03*
X153015000Y-53771800D03*
D15*
X111700000Y-86150000D03*
D23*
X123511274Y-55245526D03*
X123058726Y-55698074D03*
D16*
X161440000Y-36419300D03*
X161440000Y-37059300D03*
D17*
X152055000Y-59371800D03*
X151415000Y-59371800D03*
D16*
X146535000Y-53851800D03*
X146535000Y-54491800D03*
D13*
X130084800Y-57130000D03*
X130724800Y-57130000D03*
X143415000Y-57771800D03*
X144055000Y-57771800D03*
D17*
X153655000Y-58571800D03*
X153015000Y-58571800D03*
X153655000Y-56971800D03*
X153015000Y-56971800D03*
D16*
X148935000Y-53851800D03*
X148935000Y-54491800D03*
D19*
X152139800Y-65027200D03*
X152139800Y-66577200D03*
D16*
X148935000Y-52251800D03*
X148935000Y-52891800D03*
D17*
X152855000Y-62571800D03*
X152215000Y-62571800D03*
D13*
X143415000Y-58571800D03*
X144055000Y-58571800D03*
D18*
X146535000Y-60891800D03*
X146535000Y-60251800D03*
D17*
X152055000Y-58571800D03*
X151415000Y-58571800D03*
D19*
X149726800Y-65026600D03*
X149726800Y-66576600D03*
D17*
X153655000Y-54571800D03*
X153015000Y-54571800D03*
D22*
X123858726Y-51698074D03*
X124311274Y-51245526D03*
D16*
X129410000Y-40775000D03*
X129410000Y-41415000D03*
D18*
X150915000Y-38245000D03*
X150915000Y-37605000D03*
X157190000Y-37059300D03*
X157190000Y-36419300D03*
D17*
X153655000Y-55371800D03*
X153015000Y-55371800D03*
D13*
X125365000Y-51070000D03*
X126005000Y-51070000D03*
D24*
X164142500Y-65015000D03*
D25*
X152135000Y-60971800D03*
X152135000Y-60171800D03*
X146535000Y-53771800D03*
X152135000Y-56171800D03*
D24*
X164142500Y-64250000D03*
X164142500Y-66545000D03*
D25*
X145735000Y-60971800D03*
D24*
X151365000Y-63780000D03*
D25*
X144935000Y-54571800D03*
X148935000Y-60971800D03*
X151335000Y-60971800D03*
X147335000Y-53771800D03*
X144935000Y-59371800D03*
D24*
X172778333Y-34160000D03*
D25*
X144935000Y-55371800D03*
X145735000Y-53771800D03*
X147335000Y-60971800D03*
X150535000Y-53771800D03*
X152135000Y-58571800D03*
X144935000Y-56171800D03*
D24*
X164142500Y-67310000D03*
D25*
X152135000Y-57771800D03*
X144935000Y-60171800D03*
X152135000Y-59371800D03*
X144935000Y-57771800D03*
X144935000Y-60971800D03*
X152135000Y-56971800D03*
X148935000Y-53771800D03*
D24*
X149035000Y-63780000D03*
D25*
X144935000Y-53771800D03*
X152135000Y-54571800D03*
X144935000Y-56971800D03*
X150535000Y-60971800D03*
X148135000Y-53771800D03*
X148135000Y-60971800D03*
X149726800Y-65026600D03*
D24*
X150435000Y-63780000D03*
D25*
X152139800Y-65027200D03*
X152135000Y-55371800D03*
D24*
X164142500Y-68075000D03*
X148115000Y-63780000D03*
D25*
X151335000Y-53771800D03*
X149735000Y-53771800D03*
X152135000Y-53771800D03*
X145739000Y-65026600D03*
X144935000Y-58571800D03*
D24*
X164142500Y-65780000D03*
D25*
X146535000Y-60971800D03*
X149735000Y-60971800D03*
D24*
X164235000Y-42120000D03*
D25*
X123685000Y-50271800D03*
X125310000Y-58445000D03*
X143335000Y-55371800D03*
X119885000Y-55570000D03*
D24*
X164545000Y-34150000D03*
D25*
X122080000Y-50271800D03*
X125290000Y-56671800D03*
D24*
X134310000Y-44470000D03*
D25*
X119885000Y-50620000D03*
X127685000Y-50271800D03*
X122085000Y-56671800D03*
X130085000Y-57130000D03*
X143335000Y-53771800D03*
X143335000Y-56971800D03*
X127395000Y-37390000D03*
X133620000Y-57245000D03*
D24*
X134310000Y-36870000D03*
D25*
X121835000Y-58410000D03*
D24*
X134310000Y-40670000D03*
X164235000Y-44415000D03*
X134310000Y-39720000D03*
X134310000Y-46370000D03*
X134310000Y-37820000D03*
X164235000Y-45945000D03*
D25*
X123685000Y-56671800D03*
X125281800Y-49533200D03*
D24*
X134310000Y-42570000D03*
D25*
X125985000Y-40920000D03*
X143335000Y-56171800D03*
D24*
X164235000Y-42885000D03*
D25*
X127685000Y-48545000D03*
D24*
X134310000Y-43520000D03*
X164235000Y-43650000D03*
D25*
X133585000Y-54451000D03*
X126760000Y-35445000D03*
X123685000Y-55071800D03*
D24*
X134310000Y-45420000D03*
X133160000Y-32895000D03*
D25*
X123685000Y-51871800D03*
D24*
X134310000Y-41620000D03*
D25*
X128060000Y-35345000D03*
D24*
X164235000Y-45180000D03*
D25*
X153735000Y-53771800D03*
X144135000Y-62571800D03*
D24*
X164180000Y-59140000D03*
X169731667Y-34160000D03*
D25*
X152935000Y-62571800D03*
D24*
X164180000Y-59905000D03*
D25*
X153735000Y-60971800D03*
D24*
X164180000Y-58375000D03*
D25*
X153735000Y-58571800D03*
X153735000Y-56971800D03*
D24*
X164180000Y-57610000D03*
D25*
X143335000Y-54571800D03*
X153735000Y-54571800D03*
X153735000Y-57771800D03*
X153735000Y-56171800D03*
D24*
X164180000Y-60670000D03*
D25*
X151335000Y-52171800D03*
X155035000Y-53981800D03*
X143335000Y-60171800D03*
D24*
X165065000Y-39800000D03*
X164180000Y-56845000D03*
D25*
X145735000Y-52171800D03*
X153735000Y-59371800D03*
X153735000Y-55371800D03*
X153735000Y-60171800D03*
X146110000Y-39845000D03*
X140615000Y-38245000D03*
X133545000Y-69175000D03*
X146535000Y-52171800D03*
X142220000Y-39845000D03*
X133545000Y-68225000D03*
X156510000Y-37004300D03*
X154685000Y-35101667D03*
X143335000Y-58571800D03*
D24*
X166065000Y-36995000D03*
D25*
X143335000Y-57771800D03*
X139485000Y-73305000D03*
D24*
X122035000Y-47145000D03*
D25*
X148135000Y-52171800D03*
X141415000Y-35045000D03*
D24*
X124435000Y-68695000D03*
D25*
X133545000Y-65370000D03*
X143335000Y-59371800D03*
X150535000Y-52171800D03*
X152135000Y-52171800D03*
D24*
X128435000Y-60260000D03*
D25*
X139015000Y-38245000D03*
X143900000Y-38795000D03*
X154685000Y-37243333D03*
X148935000Y-52171800D03*
X118655000Y-41490000D03*
X133545000Y-64420000D03*
D24*
X164210000Y-51765000D03*
D25*
X140435000Y-73315000D03*
X142040000Y-42095000D03*
X135990000Y-42120000D03*
X144420000Y-38795000D03*
D24*
X164210000Y-52530000D03*
D25*
X161435000Y-36364300D03*
X126385000Y-39920000D03*
X143335000Y-62571800D03*
X172395000Y-37520000D03*
X135810000Y-39845000D03*
X146285000Y-42145000D03*
X152515000Y-38245000D03*
X152520000Y-39845000D03*
X118655000Y-43350000D03*
X139815000Y-35045000D03*
X142215000Y-38245000D03*
X152340000Y-42145000D03*
X149315000Y-38245000D03*
X150915000Y-38245000D03*
X118655000Y-45210000D03*
X144420000Y-34520000D03*
X172395000Y-38470000D03*
X154685000Y-32960000D03*
X150115000Y-35045000D03*
X143335000Y-60971800D03*
X149735000Y-52171800D03*
D24*
X164210000Y-49470000D03*
D25*
X144935000Y-52171800D03*
X133545000Y-66320000D03*
D24*
X164210000Y-53295000D03*
D25*
X153735000Y-61771800D03*
X124885000Y-38420000D03*
D24*
X164210000Y-50235000D03*
D25*
X151715000Y-35045000D03*
D24*
X164210000Y-51000000D03*
D25*
X133545000Y-67275000D03*
X172395000Y-39410000D03*
X153735000Y-62571800D03*
X143335000Y-61771800D03*
X147335000Y-52171800D03*
X118660000Y-47070000D03*
X143900000Y-34520000D03*
X118655000Y-39630000D03*
D24*
X171430000Y-41220000D03*
X173110000Y-37420000D03*
X170725000Y-63220000D03*
D25*
X170695000Y-55895000D03*
D24*
X173760000Y-37420000D03*
X171380000Y-48545000D03*
D25*
X127685000Y-51071800D03*
X136135000Y-48971800D03*
X127685000Y-55071800D03*
X137735000Y-52171800D03*
X140935000Y-52971800D03*
X127685000Y-55871800D03*
X129285000Y-51871800D03*
X137735000Y-50571800D03*
X130085000Y-55871800D03*
X137735000Y-52971800D03*
X130085000Y-51071800D03*
X139335000Y-48971800D03*
X136935000Y-48971800D03*
X127685000Y-51871800D03*
X128485000Y-55871800D03*
X140135000Y-54571800D03*
X138535000Y-48171800D03*
X128485000Y-51071800D03*
X128485000Y-55071800D03*
X136135000Y-52971800D03*
X138535000Y-51371800D03*
X128485000Y-51871800D03*
X129285000Y-55871800D03*
X138535000Y-52171800D03*
X138535000Y-48971800D03*
X129285000Y-51071800D03*
X136935000Y-52971800D03*
X129285000Y-55071800D03*
X126885000Y-55871800D03*
X136935000Y-52171800D03*
X136135000Y-52171800D03*
X126885000Y-55071800D03*
X123685000Y-51071800D03*
X140135000Y-51371800D03*
X140135000Y-55371800D03*
X123685000Y-55871800D03*
X139335000Y-52171800D03*
X124485000Y-51871800D03*
X124485000Y-55071800D03*
X140135000Y-52971800D03*
X124485000Y-56671800D03*
X140935000Y-54571800D03*
X140935000Y-52171800D03*
X124485000Y-50271800D03*
X122885000Y-56671800D03*
X140935000Y-55371800D03*
X138535000Y-52971800D03*
X122885000Y-50271800D03*
X146535000Y-48171800D03*
X138985000Y-37120000D03*
X136615000Y-38245000D03*
X146915000Y-38245000D03*
X144135000Y-48971800D03*
X136615000Y-39045000D03*
X146915000Y-39045000D03*
X145735000Y-48971800D03*
X146915000Y-39845000D03*
X136615000Y-39845000D03*
X146535000Y-46571800D03*
X147715000Y-34245000D03*
X137415000Y-34245000D03*
X147715000Y-33445000D03*
X147335000Y-46571800D03*
X137415000Y-33445000D03*
X144135000Y-48171800D03*
X146115000Y-39045000D03*
X135815000Y-39045000D03*
X144135000Y-47371800D03*
X146115000Y-38245000D03*
X137560000Y-37245000D03*
X135815000Y-38245000D03*
X146115000Y-35045000D03*
X145735000Y-47371800D03*
X146385000Y-36095000D03*
X135815000Y-35045000D03*
X135815000Y-34245000D03*
X146115000Y-34245000D03*
X144135000Y-45771800D03*
X146535000Y-47371800D03*
X146915000Y-35045000D03*
X136615000Y-35045000D03*
X145735000Y-46571800D03*
X136615000Y-34245000D03*
X146915000Y-34245000D03*
X136615000Y-33445000D03*
X146915000Y-33445000D03*
X144135000Y-46571800D03*
X137415000Y-35045000D03*
X147715000Y-35045000D03*
X146535000Y-45771800D03*
X146535000Y-48971800D03*
X137415000Y-38245000D03*
X147715000Y-38245000D03*
X137415000Y-39045000D03*
X147715000Y-39045000D03*
X147335000Y-47371800D03*
X140935000Y-44971800D03*
X148515000Y-34245000D03*
X143335000Y-48971800D03*
X142215000Y-39045000D03*
X143335000Y-47371800D03*
X141415000Y-39845000D03*
X141735000Y-46571800D03*
X139815000Y-33445000D03*
X140615000Y-34245000D03*
X142535000Y-46571800D03*
X143335000Y-45771800D03*
X140615000Y-33445000D03*
X141415000Y-34245000D03*
X140935000Y-45771800D03*
X141415000Y-33445000D03*
X143335000Y-46571800D03*
X142215000Y-34245000D03*
X141735000Y-45771800D03*
X150535000Y-47371800D03*
X152515000Y-39045000D03*
X150535000Y-46571800D03*
X151715000Y-39845000D03*
X151715000Y-39045000D03*
X150535000Y-45771800D03*
X149735000Y-46571800D03*
X150915000Y-39845000D03*
X141415000Y-39045000D03*
X143335000Y-48171800D03*
X150535000Y-44971800D03*
X150915000Y-39045000D03*
X150115000Y-39845000D03*
X148935000Y-44971800D03*
X150115000Y-39045000D03*
X148935000Y-45771800D03*
X149315000Y-39845000D03*
X149735000Y-44971800D03*
X148135000Y-45771800D03*
X149315000Y-33445000D03*
X150115000Y-34245000D03*
X148135000Y-46571800D03*
X148935000Y-46571800D03*
X150115000Y-33445000D03*
X148135000Y-48171800D03*
X150915000Y-34245000D03*
X150915000Y-33445000D03*
X148135000Y-47371800D03*
X149735000Y-47371800D03*
X151715000Y-34245000D03*
X140615000Y-39845000D03*
X141735000Y-47371800D03*
X148935000Y-47371800D03*
X151715000Y-33445000D03*
X148935000Y-48171800D03*
X152515000Y-34245000D03*
X140935000Y-47371800D03*
X140615000Y-39045000D03*
X139815000Y-39845000D03*
X141735000Y-48171800D03*
X142535000Y-48971800D03*
X139815000Y-39045000D03*
X139015000Y-39845000D03*
X141735000Y-48971800D03*
X139015000Y-33445000D03*
X142535000Y-47371800D03*
X139815000Y-34245000D03*
X140935000Y-46571800D03*
X158311348Y-34426347D03*
X151335000Y-48971800D03*
X158535000Y-44971800D03*
X159802047Y-34432952D03*
X153735000Y-48171800D03*
X158275000Y-38950000D03*
X159035000Y-38920000D03*
X153735000Y-48971800D03*
X158275000Y-38170000D03*
X153735000Y-47371800D03*
X159035000Y-38170000D03*
X152935000Y-48971800D03*
X152935000Y-47371800D03*
X159035000Y-37400000D03*
X155335000Y-46571800D03*
X159035000Y-36680000D03*
X160552047Y-34410000D03*
X160135000Y-44971800D03*
X158301348Y-35186347D03*
X154535000Y-46571800D03*
X159818653Y-35186348D03*
X155335000Y-48971800D03*
X159063653Y-35931348D03*
X155335000Y-47371800D03*
X159775000Y-35920000D03*
X155335000Y-48171800D03*
X159795000Y-36676348D03*
X155335000Y-45771800D03*
X159335000Y-44971800D03*
X161525000Y-34810000D03*
X156135000Y-46571800D03*
X160558653Y-35926348D03*
X158318653Y-35936348D03*
X154535000Y-47371800D03*
X153735000Y-46571800D03*
X158275000Y-36670000D03*
X158275000Y-37380000D03*
X152935000Y-48171800D03*
X161515000Y-35580000D03*
X156135000Y-47371800D03*
X156135000Y-45771800D03*
X160568653Y-36686348D03*
X160558653Y-37426348D03*
X159335000Y-45771800D03*
X159795000Y-38170000D03*
X158535000Y-45771800D03*
X152935000Y-45771800D03*
X156535000Y-34810000D03*
X153735000Y-45771800D03*
X156525000Y-35590000D03*
X157735000Y-44971800D03*
X160557047Y-35187952D03*
X156545000Y-34040000D03*
X151335000Y-47371800D03*
X151335000Y-46571800D03*
X157544999Y-34430000D03*
X152935000Y-46571800D03*
X157547952Y-35202953D03*
X159795000Y-38930000D03*
X154535000Y-48971800D03*
X139335000Y-68171800D03*
X136555000Y-72360000D03*
X139960000Y-68195000D03*
X139335000Y-69771800D03*
X167717500Y-55895000D03*
X167680000Y-63225000D03*
X167955000Y-48050000D03*
X167797500Y-41220000D03*
X164265000Y-39550000D03*
X166095000Y-39790000D03*
X168875000Y-40900000D03*
X163815000Y-38870000D03*
X168635000Y-48100000D03*
X169035000Y-62770000D03*
X166095000Y-38850000D03*
X168885000Y-55620000D03*
X158535000Y-63371800D03*
X157547132Y-74732132D03*
X157735000Y-62571800D03*
X157135000Y-74307868D03*
X159022132Y-74757132D03*
X160135000Y-64171800D03*
X158615000Y-74340000D03*
X160135000Y-62571800D03*
X116235000Y-71070000D03*
X169372868Y-74107868D03*
X160935000Y-55371800D03*
X169797132Y-74532132D03*
X160935000Y-54571800D03*
X170872868Y-74132868D03*
X159335000Y-50571800D03*
X160135000Y-50571800D03*
X171297132Y-74557132D03*
X171872868Y-73107868D03*
X157735000Y-56971800D03*
X158535000Y-56171800D03*
X172297132Y-73532132D03*
X158535000Y-55371800D03*
X173822132Y-73532132D03*
X157735000Y-55371800D03*
X173397868Y-73107868D03*
X174922868Y-73057868D03*
X159335000Y-52971800D03*
X160135000Y-52971800D03*
X175347132Y-73482132D03*
X159335000Y-48171800D03*
X177422132Y-74382132D03*
X176997868Y-73957868D03*
X159335000Y-48971800D03*
X157735000Y-47371800D03*
X178497868Y-73932868D03*
X178922132Y-74357132D03*
X157735000Y-46571800D03*
X156935000Y-60171800D03*
X156135000Y-60171800D03*
X160135000Y-61771800D03*
X159335000Y-62571800D03*
X158535000Y-59371800D03*
X158535000Y-60171800D03*
X156022132Y-74707132D03*
X156935000Y-61771800D03*
X155597868Y-74282868D03*
X157735000Y-61771800D03*
X158535000Y-58571800D03*
X158535000Y-57771800D03*
X160135000Y-56971800D03*
X160935000Y-56171800D03*
X156135000Y-54571800D03*
X163522868Y-74807132D03*
X163947132Y-74382868D03*
X156935000Y-54571800D03*
X156935000Y-56971800D03*
X166772132Y-73882868D03*
X166347868Y-74307132D03*
X156935000Y-56171800D03*
X159335000Y-55371800D03*
X160135000Y-55371800D03*
X158535000Y-54571800D03*
X159335000Y-54571800D03*
X160935000Y-51371800D03*
X160135000Y-52171800D03*
X160935000Y-48171800D03*
X172422868Y-74082868D03*
X172847132Y-74507132D03*
X160135000Y-48971800D03*
X173922868Y-74057868D03*
X158535000Y-48171800D03*
X174347132Y-74482132D03*
X158535000Y-47371800D03*
X160135000Y-46571800D03*
X175897132Y-74407132D03*
X175472868Y-73982868D03*
X160935000Y-45771800D03*
X157735000Y-50571800D03*
X156935000Y-50571800D03*
X156135000Y-52171800D03*
X156935000Y-52171800D03*
X160497132Y-74782132D03*
X158535000Y-61771800D03*
X160085000Y-74340000D03*
X159335000Y-61771800D03*
X165272868Y-74857132D03*
X160935000Y-60171800D03*
X160135000Y-59371800D03*
X165697132Y-74432868D03*
X160935000Y-57771800D03*
X167872868Y-74107868D03*
X160935000Y-56971800D03*
X168297132Y-74532132D03*
X140935000Y-56971800D03*
X139335000Y-57771800D03*
X124135000Y-73820000D03*
X137735000Y-63371800D03*
X125635000Y-73245000D03*
X139335000Y-62571800D03*
X125635000Y-73820000D03*
X140135000Y-62571800D03*
X127135000Y-73245000D03*
X136135000Y-67371800D03*
X136135000Y-68171800D03*
X127135000Y-73820000D03*
X137735000Y-68171800D03*
X128635000Y-73245000D03*
X140935000Y-60171800D03*
X128635000Y-73820000D03*
X137735000Y-68971800D03*
X129810000Y-74620000D03*
X136135000Y-65771800D03*
X130385000Y-75010000D03*
X131260000Y-74620000D03*
X137735000Y-65771800D03*
X140135000Y-57771800D03*
X131885000Y-75010000D03*
X136135000Y-66571800D03*
X137735000Y-66571800D03*
X132810000Y-74620000D03*
X136935000Y-64171800D03*
X137735000Y-64171800D03*
X138535000Y-64171800D03*
X139335000Y-64171800D03*
X140135000Y-64171800D03*
X140135000Y-63371800D03*
X140935000Y-63371800D03*
X140935000Y-62571800D03*
X138535000Y-58571800D03*
X140935000Y-61771800D03*
X139985000Y-75020000D03*
X140935000Y-57771800D03*
X140610000Y-75020000D03*
X141885000Y-58970000D03*
X141885000Y-59745000D03*
X141285000Y-75020000D03*
X141885000Y-75020000D03*
X141885000Y-58145000D03*
X141860000Y-57370000D03*
X143285000Y-74595000D03*
X143860000Y-75020000D03*
X141860000Y-56570000D03*
X144810000Y-74595000D03*
X141910000Y-55945000D03*
X157735000Y-65771800D03*
X145360000Y-75010000D03*
X157735000Y-66571800D03*
X146310000Y-74595000D03*
X137735000Y-59371800D03*
X157735000Y-67371800D03*
X146860000Y-75010000D03*
X147810000Y-74595000D03*
X157735000Y-68171800D03*
X148385000Y-75010000D03*
X157735000Y-68971800D03*
X149310000Y-74570000D03*
X157735000Y-69771800D03*
X158535000Y-68171800D03*
X149860000Y-75010000D03*
X158535000Y-69771800D03*
X150885000Y-75020000D03*
X159335000Y-69771800D03*
X153135000Y-75020000D03*
X159335000Y-68971800D03*
X153135000Y-74445000D03*
X154610000Y-75035000D03*
X160135000Y-69771800D03*
X154610000Y-74445000D03*
X159335000Y-68171800D03*
X137735000Y-60171800D03*
X138535000Y-59371800D03*
X118135000Y-74995000D03*
X136135000Y-60171800D03*
X118135000Y-74395000D03*
X119635000Y-74995000D03*
X136935000Y-61771800D03*
X136135000Y-61771800D03*
X119635000Y-74395000D03*
X121135000Y-74995000D03*
X136935000Y-62571800D03*
X121135000Y-74395000D03*
X136135000Y-62571800D03*
X122610000Y-74995000D03*
X136135000Y-64171800D03*
X122610000Y-74395000D03*
X136135000Y-63371800D03*
X138535000Y-60171800D03*
X124135000Y-74995000D03*
X138535000Y-63371800D03*
X124135000Y-74395000D03*
X139335000Y-59371800D03*
X139335000Y-60171800D03*
X125635000Y-74995000D03*
X140135000Y-60171800D03*
X125635000Y-74395000D03*
X127135000Y-74995000D03*
X137735000Y-61771800D03*
X127135000Y-74395000D03*
X138535000Y-61771800D03*
X128635000Y-74995000D03*
X139335000Y-61771800D03*
X128635000Y-74395000D03*
X140135000Y-61771800D03*
X140135000Y-58571800D03*
X137735000Y-62571800D03*
X140935000Y-58571800D03*
X125285000Y-51071800D03*
X140135000Y-50571800D03*
X139335000Y-50571800D03*
X126085000Y-51071800D03*
X126085000Y-55871800D03*
X137735000Y-51371800D03*
X122885000Y-55071800D03*
X140135000Y-52171800D03*
X137735000Y-54571800D03*
X122885000Y-51871800D03*
X138535000Y-54571800D03*
X122085000Y-51071800D03*
X137735000Y-48171800D03*
X126063383Y-49198383D03*
X126885000Y-51871800D03*
X136135000Y-50571800D03*
X126885000Y-51071800D03*
X137735000Y-48971800D03*
X126085000Y-51871800D03*
X136935000Y-50571800D03*
X126085000Y-55071800D03*
X136135000Y-51371800D03*
X136935000Y-46571800D03*
X126315000Y-37390000D03*
X136135000Y-45771800D03*
X129985000Y-37470000D03*
X126865000Y-37390000D03*
X126460000Y-38929400D03*
X137735000Y-47371800D03*
X129985000Y-38945000D03*
X128086000Y-42968000D03*
X137735000Y-46571800D03*
X127628800Y-43349000D03*
X136935000Y-47371800D03*
X136135000Y-47371800D03*
X126917600Y-43349000D03*
X139335000Y-47371800D03*
X130760000Y-41670000D03*
X130010000Y-42570000D03*
X138535000Y-47371800D03*
X130410000Y-40170000D03*
X127425600Y-40428000D03*
X138535000Y-46571800D03*
X129985000Y-39545000D03*
X126865000Y-40920000D03*
X139335000Y-46571800D03*
X136135000Y-48171800D03*
X126130200Y-43425200D03*
X136135000Y-46571800D03*
X127393600Y-37920000D03*
X129985000Y-38295000D03*
X117125000Y-39050000D03*
X138535000Y-67371800D03*
X125760000Y-66175000D03*
X137735000Y-69771800D03*
X132525000Y-65370000D03*
X137360000Y-67746800D03*
X132525000Y-64420000D03*
X125760000Y-64905000D03*
X131160000Y-67445000D03*
X134510000Y-68170000D03*
X132525000Y-68225000D03*
X132525000Y-67275000D03*
X131160000Y-66175000D03*
X136935000Y-69771800D03*
X136135000Y-68971800D03*
X132525000Y-66320000D03*
X125760000Y-67445000D03*
X131160000Y-68715000D03*
X132785000Y-69175000D03*
X137735000Y-67371800D03*
X138535000Y-65771800D03*
X117175000Y-40970000D03*
X171375000Y-39410000D03*
X177910000Y-67835000D03*
X178005000Y-45765000D03*
X171375000Y-37520000D03*
X171375000Y-38470000D03*
X177935000Y-60465000D03*
X144135000Y-68171800D03*
D24*
X170392500Y-69150000D03*
D25*
X142375000Y-75585000D03*
X146535000Y-52971800D03*
X152135000Y-52971800D03*
X148935000Y-57771800D03*
X146535000Y-60171800D03*
X148935000Y-68971800D03*
X136935000Y-48171800D03*
D24*
X144467647Y-32020000D03*
D25*
X177125000Y-75585000D03*
X154685000Y-36061667D03*
X152935000Y-56171800D03*
D24*
X167237500Y-61200000D03*
D25*
X170645000Y-56545000D03*
D24*
X176435000Y-61790000D03*
D25*
X147335000Y-68971800D03*
D24*
X114225000Y-50165589D03*
X175235000Y-61190000D03*
D25*
X146535000Y-68171800D03*
X142535000Y-66571800D03*
X148935000Y-62571800D03*
X144135000Y-56171800D03*
X152935000Y-52971800D03*
D24*
X132370588Y-32020000D03*
D25*
X160135000Y-60171800D03*
D24*
X181030000Y-63392941D03*
D25*
X148135000Y-59371800D03*
X139335000Y-48171800D03*
X145735000Y-48171800D03*
X150875000Y-75585000D03*
X136935000Y-45771800D03*
X142215000Y-35045000D03*
D24*
X114225000Y-36052353D03*
X175185000Y-68545000D03*
X114225000Y-42100883D03*
D25*
X149735000Y-58571800D03*
X174125000Y-75585000D03*
X148135000Y-56171800D03*
X126160000Y-35495000D03*
X148935000Y-56971800D03*
D24*
X178742647Y-32020000D03*
D25*
X144135000Y-68971800D03*
X151335000Y-62571800D03*
X152935000Y-65771800D03*
X141735000Y-69771800D03*
X130375000Y-75585000D03*
X151715000Y-38245000D03*
X146535000Y-68971800D03*
X134359800Y-54460800D03*
X148935000Y-65771800D03*
X145735000Y-62571800D03*
D24*
X181980000Y-73645000D03*
X182775000Y-46133236D03*
X179880000Y-51465000D03*
D25*
X148135000Y-65771800D03*
X151335000Y-64971800D03*
X127385000Y-40945000D03*
X167797500Y-42520000D03*
X147335000Y-55371800D03*
D24*
X177235000Y-60690000D03*
D25*
X144135000Y-66571800D03*
X124641800Y-49533200D03*
X157735000Y-58571800D03*
D24*
X165925000Y-48045000D03*
D25*
X150915000Y-37605000D03*
D24*
X115010000Y-65399117D03*
D25*
X149735000Y-55371800D03*
X159125000Y-75585000D03*
D24*
X170392500Y-68550000D03*
X179785000Y-64220000D03*
X167282500Y-54450000D03*
D25*
X127125000Y-75585000D03*
X141360000Y-73270000D03*
X146115000Y-33445000D03*
D24*
X173585000Y-68545000D03*
X115010000Y-67415294D03*
D25*
X146535000Y-64971800D03*
X153735000Y-68171800D03*
D24*
X177305000Y-45990000D03*
D25*
X152935000Y-53771800D03*
D24*
X179880000Y-50490000D03*
D25*
X160135000Y-66571800D03*
D24*
X173635000Y-61190000D03*
D25*
X144135000Y-69771800D03*
X169625000Y-75585000D03*
X152515000Y-33445000D03*
D24*
X167307500Y-46500000D03*
D25*
X145735000Y-45771800D03*
D24*
X168907500Y-46500000D03*
D25*
X135815000Y-33445000D03*
X144935000Y-62571800D03*
X147335000Y-58571800D03*
X142995000Y-39840000D03*
D24*
X182775000Y-42100883D03*
D25*
X121125000Y-75585000D03*
X154975000Y-62570000D03*
X142535000Y-65771800D03*
X151335000Y-58571800D03*
D24*
X176480000Y-54440000D03*
X167192500Y-69150000D03*
D25*
X152135000Y-69771800D03*
X148935000Y-56171800D03*
D24*
X182775000Y-54197942D03*
D25*
X129410000Y-40775000D03*
D24*
X118257353Y-32020000D03*
X176385000Y-69145000D03*
D25*
X151335000Y-57771800D03*
D24*
X164629412Y-32020000D03*
X115975000Y-56020000D03*
D25*
X148935000Y-68171800D03*
D24*
X177110000Y-38670000D03*
D25*
X145735000Y-55371800D03*
X157735000Y-56171800D03*
D24*
X138419118Y-32020000D03*
D25*
X151335000Y-52971800D03*
X131875000Y-75585000D03*
D24*
X179835000Y-55890000D03*
D25*
X136375000Y-75585000D03*
X146535000Y-56171800D03*
D24*
X179880000Y-49515000D03*
D25*
X140935000Y-68171800D03*
D24*
X168837500Y-61200000D03*
D25*
X150535000Y-54571800D03*
X151335000Y-65771800D03*
X142535000Y-67371800D03*
X167265000Y-57830000D03*
X147335000Y-54571800D03*
X131160000Y-64905000D03*
D24*
X182775000Y-44117059D03*
D25*
X146535000Y-62571800D03*
D24*
X170677941Y-32020000D03*
D25*
X144135000Y-54571800D03*
X151335000Y-60171800D03*
X140490000Y-42095000D03*
D24*
X179785000Y-63245000D03*
D25*
X145735000Y-54571800D03*
D24*
X170022500Y-49195000D03*
X177280000Y-53940000D03*
D25*
X146535000Y-69771800D03*
X148935000Y-61771800D03*
X124485000Y-55871800D03*
X139335000Y-66571800D03*
D24*
X175185000Y-69145000D03*
D25*
X141735000Y-66571800D03*
X137875000Y-75585000D03*
X170365000Y-63870000D03*
X171125000Y-75585000D03*
D24*
X171985000Y-69145000D03*
D25*
X121445000Y-50271800D03*
X125310000Y-59420000D03*
X144135000Y-57771800D03*
D24*
X177235000Y-61290000D03*
D25*
X145470000Y-39845000D03*
X139015000Y-35045000D03*
X167410000Y-38470000D03*
X127685000Y-46970000D03*
X144135000Y-59371800D03*
X146535000Y-66571800D03*
X148935000Y-52971800D03*
X160625000Y-75585000D03*
X147335000Y-57771800D03*
X146535000Y-55371800D03*
X149735000Y-56171800D03*
X149735000Y-52971800D03*
X156135000Y-67371800D03*
X156135000Y-69771800D03*
X144935000Y-64971800D03*
X152935000Y-66571800D03*
X154535000Y-48171800D03*
X172390000Y-41220000D03*
X127310000Y-39420000D03*
X173410000Y-38375000D03*
X128325000Y-50271800D03*
X150790000Y-42145000D03*
X178581246Y-75555504D03*
D24*
X173635000Y-61790000D03*
D25*
X149735000Y-67371800D03*
X144135000Y-61771800D03*
D24*
X179905000Y-43140000D03*
X165625000Y-54145000D03*
X170507500Y-46500000D03*
X173705000Y-47090000D03*
X114225000Y-34036177D03*
D25*
X145739000Y-66576600D03*
D24*
X165542500Y-68800000D03*
D25*
X156510000Y-36364300D03*
X122885000Y-51071800D03*
X143900000Y-36645000D03*
D24*
X179905000Y-41190000D03*
D25*
X118935000Y-55570000D03*
X115635000Y-46560000D03*
X148135000Y-52971800D03*
X148135000Y-55371800D03*
X165125000Y-75585000D03*
X150535000Y-57771800D03*
D24*
X133160000Y-34445000D03*
D25*
X125285000Y-55071800D03*
X142535000Y-69771800D03*
X167747500Y-49845000D03*
X173410000Y-39245000D03*
X147335000Y-59371800D03*
D24*
X171985000Y-68545000D03*
D25*
X147335000Y-64971800D03*
X160135000Y-48171800D03*
X157735000Y-54571800D03*
X152135000Y-61771800D03*
D24*
X177960000Y-59340000D03*
D25*
X148135000Y-62571800D03*
X179125000Y-75585000D03*
X149735000Y-68971800D03*
D24*
X182775000Y-34036177D03*
D25*
X146535000Y-61771800D03*
X144935000Y-66571800D03*
X148935000Y-67371800D03*
X147335000Y-48171800D03*
X153335000Y-39845000D03*
X152135000Y-62571800D03*
X145735000Y-56171800D03*
D24*
X160597059Y-32020000D03*
D25*
X146535000Y-59371800D03*
X148135000Y-60171800D03*
D24*
X115965000Y-57800000D03*
X176726471Y-32020000D03*
D25*
X152135000Y-67371800D03*
D24*
X167282500Y-53850000D03*
X115010000Y-71320000D03*
X177185000Y-68045000D03*
D25*
X144935000Y-52971800D03*
D24*
X170437500Y-61200000D03*
X168792500Y-68550000D03*
D25*
X148935000Y-54571800D03*
X134335000Y-57245000D03*
X147335000Y-67371800D03*
X140935000Y-66571800D03*
X144160000Y-32970000D03*
X149726800Y-66576600D03*
X154685000Y-38203333D03*
X158535000Y-66571800D03*
X121835000Y-59385000D03*
X154535000Y-66571800D03*
D24*
X167192500Y-68550000D03*
X182775000Y-48149412D03*
D25*
X143335000Y-52971800D03*
X145375000Y-75585000D03*
X137540000Y-42120000D03*
D24*
X175235000Y-61790000D03*
D25*
X127395000Y-38450000D03*
X148135000Y-56971800D03*
X139335000Y-58571800D03*
D24*
X165350000Y-40695000D03*
D25*
X157625000Y-75585000D03*
D24*
X115955000Y-61360000D03*
D25*
X148135000Y-66571800D03*
X146535000Y-58571800D03*
X141735000Y-68971800D03*
D24*
X182775000Y-52181765D03*
X181985000Y-71345000D03*
X114225000Y-54197942D03*
X181025000Y-56020000D03*
D25*
X153735000Y-64971800D03*
X154685000Y-33920000D03*
X153735000Y-65771800D03*
D24*
X114225000Y-52181765D03*
D25*
X160135000Y-54571800D03*
X130735000Y-57130000D03*
X145735000Y-67371800D03*
X144935000Y-67371800D03*
X140875000Y-75585000D03*
D24*
X175280000Y-54440000D03*
D25*
X145735000Y-57771800D03*
D24*
X115960000Y-65395000D03*
D25*
X148375000Y-75585000D03*
D24*
X120273529Y-32020000D03*
D25*
X125745000Y-39920000D03*
X156135000Y-68171800D03*
X139335000Y-45771800D03*
X148935000Y-66571800D03*
X144135000Y-55371800D03*
X160135000Y-51371800D03*
D24*
X172080000Y-54440000D03*
D25*
X147335000Y-61771800D03*
X149735000Y-60171800D03*
D24*
X172105000Y-46490000D03*
D25*
X151335000Y-56971800D03*
D24*
X167237500Y-61800000D03*
D25*
X143335000Y-67371800D03*
D24*
X130860000Y-47145000D03*
D25*
X147335000Y-52971800D03*
X141735000Y-68171800D03*
X135170000Y-39845000D03*
X132830000Y-60915000D03*
X161435000Y-37059300D03*
D24*
X150516176Y-32020000D03*
D25*
X150535000Y-66571800D03*
D24*
X115010000Y-69431470D03*
D25*
X156125000Y-75585000D03*
X144135000Y-52171800D03*
X150535000Y-55371800D03*
X149735000Y-57771800D03*
X151335000Y-45771800D03*
D24*
X172105000Y-47090000D03*
D25*
X143875000Y-75585000D03*
D24*
X178005000Y-51990000D03*
D25*
X165105000Y-37920000D03*
X123685000Y-49631800D03*
X156135000Y-66571800D03*
D24*
X178035000Y-61790000D03*
D25*
X152935000Y-57771800D03*
X175625000Y-75585000D03*
X144175000Y-40360000D03*
D24*
X181030000Y-65405000D03*
X177910000Y-66695000D03*
X177235000Y-60090000D03*
D25*
X144135000Y-65771800D03*
X142535000Y-68971800D03*
X152515000Y-35045000D03*
D24*
X128435000Y-61220000D03*
X120485000Y-47145000D03*
X175305000Y-46490000D03*
X165580000Y-61495000D03*
D25*
X154535000Y-67371800D03*
X150535000Y-65771800D03*
X150535000Y-59371800D03*
X148135000Y-57771800D03*
D24*
X166645588Y-32020000D03*
D25*
X149875000Y-75585000D03*
D24*
X179880000Y-48540000D03*
D25*
X150535000Y-61771800D03*
D24*
X168907500Y-47100000D03*
D25*
X150535000Y-60171800D03*
X144935000Y-61771800D03*
D24*
X174710294Y-32020000D03*
D25*
X144935000Y-65771800D03*
X141735000Y-67371800D03*
X134875000Y-75585000D03*
X150535000Y-62571800D03*
X125625000Y-75585000D03*
X152935000Y-55371800D03*
X153735000Y-52971800D03*
X136935000Y-58571800D03*
D24*
X170437500Y-61800000D03*
D25*
X154535000Y-68971800D03*
X149735000Y-48171800D03*
X152935000Y-59371800D03*
X150535000Y-67371800D03*
X148135000Y-67371800D03*
X150535000Y-52971800D03*
X158535000Y-68971800D03*
X148135000Y-54571800D03*
X150535000Y-64971800D03*
D24*
X182775000Y-32020000D03*
X172035000Y-61790000D03*
D25*
X152935000Y-67371800D03*
D24*
X136402941Y-32020000D03*
X179785000Y-66170000D03*
D25*
X124125000Y-75585000D03*
X148135000Y-64971800D03*
D24*
X182775000Y-36052353D03*
D25*
X144935000Y-69771800D03*
D24*
X115955000Y-59580000D03*
D25*
X124485000Y-51071800D03*
X149735000Y-45771800D03*
X147335000Y-69771800D03*
X160135000Y-58571800D03*
D24*
X128338235Y-32020000D03*
X168882500Y-53850000D03*
X178080000Y-54440000D03*
D25*
X153735000Y-69771800D03*
D24*
X179835000Y-58815000D03*
X162613235Y-32020000D03*
D25*
X146535000Y-67371800D03*
X133375000Y-75585000D03*
X148135000Y-58571800D03*
X146535000Y-65771800D03*
D24*
X115010000Y-73645000D03*
D25*
X129355000Y-36420000D03*
X122885000Y-55871800D03*
X139335000Y-51371800D03*
X152935000Y-58571800D03*
D24*
X114225000Y-46133236D03*
D25*
X150115000Y-38245000D03*
X147840000Y-42145000D03*
X138535000Y-73305000D03*
D24*
X122289706Y-32020000D03*
D25*
X136935000Y-66571800D03*
D24*
X133595000Y-38770000D03*
D25*
X165105000Y-36995000D03*
X160135000Y-68971800D03*
X151335000Y-66571800D03*
X122085000Y-55071800D03*
X142535000Y-48171800D03*
X118125000Y-75585000D03*
X153125000Y-75585000D03*
D24*
X172035000Y-61190000D03*
X182775000Y-38068530D03*
D25*
X136935000Y-56171800D03*
X152935000Y-54571800D03*
X128625000Y-75585000D03*
X154625000Y-75585000D03*
X163625000Y-75585000D03*
X147335000Y-56971800D03*
X153735000Y-68971800D03*
X140935000Y-68971800D03*
X147335000Y-62571800D03*
D24*
X180758824Y-32020000D03*
D25*
X148935000Y-60171800D03*
D24*
X158580882Y-32020000D03*
D25*
X144135000Y-56971800D03*
D24*
X168792500Y-69150000D03*
D25*
X142215000Y-33445000D03*
X122625000Y-75585000D03*
X136935000Y-60171800D03*
X152935000Y-60171800D03*
D24*
X170507500Y-47100000D03*
X172694118Y-32020000D03*
D25*
X128485000Y-56671800D03*
X140935000Y-69771800D03*
X152935000Y-64971800D03*
D24*
X178030000Y-44640000D03*
D25*
X126385000Y-42820000D03*
X146875000Y-75585000D03*
X149315000Y-35045000D03*
X145735000Y-60171800D03*
X116625000Y-75585000D03*
X152935000Y-60971800D03*
X137585000Y-73305000D03*
D24*
X115960000Y-63382941D03*
D25*
X145735000Y-58571800D03*
X151335000Y-56171800D03*
X151335000Y-59371800D03*
X125385000Y-37495000D03*
D24*
X177985000Y-69145000D03*
D25*
X129285000Y-50271800D03*
D24*
X168661765Y-32020000D03*
D25*
X144135000Y-58571800D03*
D24*
X181980000Y-69441470D03*
X177185000Y-67445000D03*
D25*
X166625000Y-75585000D03*
X148935000Y-59371800D03*
X146535000Y-57771800D03*
X152935000Y-56971800D03*
X147335000Y-56171800D03*
X119625000Y-75585000D03*
X121445000Y-56671800D03*
X115125000Y-75585000D03*
D24*
X182775000Y-56010000D03*
D25*
X160135000Y-56171800D03*
X172625000Y-75585000D03*
D24*
X114225000Y-56010000D03*
X181980000Y-74520000D03*
D25*
X168125000Y-75585000D03*
X160135000Y-45771800D03*
X151335000Y-69771800D03*
X139335000Y-54571800D03*
X157735000Y-51371800D03*
X155035000Y-53021800D03*
D24*
X175305000Y-47090000D03*
X165280000Y-55395000D03*
D25*
X136935000Y-54571800D03*
X141865000Y-61980000D03*
D24*
X177305000Y-45390000D03*
D25*
X150915000Y-35045000D03*
D24*
X152532353Y-32020000D03*
X170482500Y-53850000D03*
X165842500Y-62745000D03*
D25*
X151335000Y-67371800D03*
D24*
X165650000Y-46795000D03*
D25*
X149735000Y-62571800D03*
D24*
X116241176Y-32020000D03*
X173705000Y-46490000D03*
D25*
X149735000Y-69771800D03*
X139335000Y-63371800D03*
D24*
X115010000Y-75050000D03*
D25*
X139335000Y-56171800D03*
X146535000Y-54571800D03*
X160135000Y-63371800D03*
D24*
X165880000Y-55395000D03*
D25*
X144935000Y-68971800D03*
D24*
X114225000Y-44117059D03*
X142451471Y-32020000D03*
X175280000Y-53840000D03*
X181980000Y-65409117D03*
D25*
X140615000Y-35045000D03*
D24*
X181045000Y-61360000D03*
D25*
X172340000Y-48545000D03*
X136935000Y-63371800D03*
X152135000Y-68971800D03*
D24*
X140435294Y-32020000D03*
D25*
X152139800Y-66577200D03*
D24*
X146483824Y-32020000D03*
D25*
X156135000Y-68971800D03*
D24*
X173585000Y-69145000D03*
D25*
X144135000Y-67371800D03*
D24*
X148500000Y-32020000D03*
D25*
X125340000Y-40920000D03*
X152935000Y-52171800D03*
X145735000Y-56971800D03*
X125285000Y-51871800D03*
X149735000Y-59371800D03*
X147335000Y-65771800D03*
X145735000Y-59371800D03*
D24*
X170482500Y-54450000D03*
X114225000Y-32020000D03*
D25*
X157735000Y-45771800D03*
D24*
X168837500Y-61800000D03*
X114225000Y-38068530D03*
X181045000Y-59580000D03*
X179835000Y-56865000D03*
D25*
X150535000Y-56171800D03*
X124435000Y-67740000D03*
D24*
X179905000Y-44115000D03*
D25*
X145735000Y-61771800D03*
D24*
X165950000Y-40695000D03*
D25*
X153735000Y-67371800D03*
X162125000Y-75585000D03*
X157735000Y-63371800D03*
X144135000Y-52971800D03*
D24*
X177185000Y-68645000D03*
D25*
X153735000Y-52171800D03*
D24*
X114225000Y-40084706D03*
X126322059Y-32020000D03*
X165325000Y-48045000D03*
D25*
X153735000Y-66571800D03*
X151335000Y-68171800D03*
X144135000Y-53771800D03*
D24*
X177305000Y-46590000D03*
X179905000Y-42165000D03*
D25*
X147335000Y-66571800D03*
X144135000Y-64971800D03*
D24*
X181035000Y-57800000D03*
D25*
X149735000Y-61771800D03*
X140615000Y-37605000D03*
X139815000Y-38245000D03*
X139375000Y-75585000D03*
X147335000Y-45771800D03*
X150535000Y-56971800D03*
X145735000Y-52971800D03*
X148135000Y-61771800D03*
X149735000Y-56971800D03*
X147335000Y-60171800D03*
X127420000Y-35345000D03*
D24*
X178105000Y-47090000D03*
X177280000Y-52740000D03*
X168882500Y-54450000D03*
D25*
X151335000Y-54571800D03*
X151335000Y-68971800D03*
X148935000Y-69771800D03*
D24*
X181980000Y-67425294D03*
X114225000Y-48149412D03*
D25*
X144135000Y-60171800D03*
X151335000Y-61771800D03*
X125930000Y-56671800D03*
X150535000Y-58571800D03*
X142535000Y-45771800D03*
X141415000Y-38245000D03*
D24*
X173680000Y-53840000D03*
X170072500Y-41870000D03*
X179835000Y-57840000D03*
D25*
X152935000Y-61771800D03*
X149735000Y-54571800D03*
X122085000Y-51871800D03*
X151335000Y-55371800D03*
X144420000Y-36645000D03*
D24*
X165242500Y-62745000D03*
X182775000Y-40084706D03*
D25*
X124885000Y-39060000D03*
D24*
X177280000Y-53340000D03*
X173680000Y-54440000D03*
D25*
X144135000Y-60971800D03*
X148935000Y-64971800D03*
D24*
X167307500Y-47100000D03*
D25*
X136935000Y-68971800D03*
X154535000Y-45771800D03*
X151335000Y-48171800D03*
D24*
X156564706Y-32020000D03*
X154548529Y-32020000D03*
X176505000Y-47090000D03*
D25*
X136935000Y-51371800D03*
X157735000Y-48171800D03*
D24*
X182775000Y-50165589D03*
D25*
X140935000Y-67371800D03*
X118935000Y-50620000D03*
D24*
X179785000Y-65195000D03*
D25*
X148935000Y-55371800D03*
X148935000Y-58571800D03*
X139335000Y-68971800D03*
X154535000Y-69771800D03*
D24*
X134386765Y-32020000D03*
X172080000Y-53840000D03*
X130354412Y-32020000D03*
D25*
X146535000Y-56971800D03*
D24*
X124305882Y-32020000D03*
D25*
X143335000Y-52171800D03*
D24*
X129310000Y-47145000D03*
D25*
X129410000Y-41420000D03*
X179910000Y-47165000D03*
X175955000Y-45765000D03*
X175885000Y-60465000D03*
X179840000Y-61865000D03*
X179885000Y-54515000D03*
X175930000Y-53115000D03*
D24*
X174510000Y-56390000D03*
D25*
X177980000Y-53115000D03*
D24*
X174460000Y-63145000D03*
X181335000Y-75420000D03*
X175355000Y-48440000D03*
X174580000Y-41090000D03*
X175380000Y-41090000D03*
X174510000Y-55790000D03*
X175380000Y-41690000D03*
X173410000Y-40205000D03*
X174460000Y-63745000D03*
X174555000Y-48440000D03*
X180735000Y-75420000D03*
X175260000Y-63745000D03*
X174580000Y-41690000D03*
X175355000Y-49040000D03*
X175310000Y-56390000D03*
X175310000Y-55790000D03*
X180135000Y-75420000D03*
X174555000Y-49040000D03*
X175260000Y-63145000D03*
D26*
X145108726Y-53945526D02*
X144935000Y-53771800D01*
X151961274Y-60798074D02*
X152135000Y-60971800D01*
X123511274Y-55245526D02*
X123685000Y-55071800D01*
X123858726Y-56498074D02*
X123685000Y-56671800D01*
X122080000Y-56676800D02*
X122085000Y-56671800D01*
X123858726Y-51698074D02*
X123685000Y-51871800D01*
X127690000Y-50266800D02*
X127685000Y-50271800D01*
X156490000Y-37059300D02*
X157190000Y-37059300D01*
D27*
X129635000Y-49020000D02*
X130685000Y-50070000D01*
X131681786Y-50815979D02*
X131681786Y-50310000D01*
X132660000Y-50070000D02*
X133119619Y-49610380D01*
X127685000Y-51071800D02*
X128073200Y-51460000D01*
X131681786Y-50310000D02*
X131681786Y-49830000D01*
X131081786Y-50310000D02*
X131081786Y-50815979D01*
X132281786Y-49524030D02*
X132281786Y-49830000D01*
X132521786Y-50070000D02*
X132641786Y-50070000D01*
X135836800Y-49270000D02*
X136135000Y-48971800D01*
X131321786Y-51055979D02*
X131441786Y-51055979D01*
X130685000Y-51070000D02*
X129135000Y-49520000D01*
X132641786Y-50070000D02*
X132660000Y-50070000D01*
X129135000Y-49120000D02*
X129235000Y-49020000D01*
X129235000Y-49020000D02*
X129635000Y-49020000D01*
X131681786Y-49830000D02*
X131681786Y-49524030D01*
X133460000Y-49270000D02*
X135836800Y-49270000D01*
X130685000Y-50070000D02*
X130841786Y-50070000D01*
X128073200Y-51460000D02*
X130685000Y-51460000D01*
X133287063Y-49442937D02*
X133460000Y-49270000D01*
X133119619Y-49610380D02*
X133287063Y-49442937D01*
X129135000Y-49520000D02*
X129135000Y-49120000D01*
X130685000Y-51460000D02*
X130685000Y-51070000D01*
X131921786Y-49284030D02*
X132041786Y-49284030D01*
X131681786Y-49524030D02*
G75*
G02*
X131921786Y-49283986I240014J30D01*
G01*
X130841786Y-50070000D02*
G75*
G02*
X131081800Y-50310000I14J-240000D01*
G01*
X131441786Y-51055979D02*
G75*
G03*
X131681779Y-50815979I14J239979D01*
G01*
X132281786Y-49830000D02*
G75*
G03*
X132521786Y-50070014I240014J0D01*
G01*
X131081786Y-50815979D02*
G75*
G03*
X131321786Y-51056014I240014J-21D01*
G01*
X132041786Y-49284030D02*
G75*
G02*
X132281770Y-49524030I14J-239970D01*
G01*
X137333200Y-49370000D02*
X136935000Y-48971800D01*
X139985000Y-49845000D02*
X139985000Y-49470000D01*
X127233200Y-52620000D02*
X128510000Y-52620000D01*
X139985000Y-49470000D02*
X139885000Y-49370000D01*
X139885000Y-49370000D02*
X137333200Y-49370000D01*
X134010000Y-49920000D02*
X139910000Y-49920000D01*
X139910000Y-49920000D02*
X139985000Y-49845000D01*
X127635000Y-51871800D02*
X127159100Y-52347700D01*
X127159100Y-52545900D02*
X127233200Y-52620000D01*
X128510000Y-52620000D02*
X128785000Y-52345000D01*
X128785000Y-52345000D02*
X131585000Y-52345000D01*
X127159100Y-52347700D02*
X127159100Y-52545900D01*
X131585000Y-52345000D02*
X134010000Y-49920000D01*
X127685000Y-51871800D02*
X127635000Y-51871800D01*
X136540013Y-53389986D02*
X136540013Y-52566787D01*
X127010000Y-57495000D02*
X127154127Y-57495000D01*
X127394127Y-57255000D02*
X127394127Y-57035000D01*
X127994127Y-57035000D02*
X127994127Y-57255000D01*
X132930000Y-57510000D02*
X133110000Y-57330000D01*
X127634127Y-56795000D02*
X127754127Y-56795000D01*
X133110000Y-56820000D02*
X133601994Y-56328006D01*
X133941405Y-56328006D02*
X134151038Y-56537639D01*
X129204127Y-57495000D02*
X129219127Y-57510000D01*
X134365667Y-55564329D02*
X134450522Y-55479477D01*
X134450522Y-55479477D02*
X136540013Y-53389986D01*
X126885000Y-55871800D02*
X126885000Y-57370000D01*
X128604127Y-57245000D02*
X128954127Y-57245000D01*
X129219127Y-57510000D02*
X132930000Y-57510000D01*
X133110000Y-57330000D02*
X133110000Y-56820000D01*
X136540013Y-52566787D02*
X136935000Y-52171800D01*
X126885000Y-57370000D02*
X127010000Y-57495000D01*
X128234127Y-57495000D02*
X128354127Y-57495000D01*
X134490449Y-56537639D02*
X134575301Y-56452786D01*
X134575301Y-56113374D02*
X134365667Y-55903740D01*
X133601994Y-56328006D02*
G75*
G02*
X133941405Y-56328006I169705J-169707D01*
G01*
X127394127Y-57035000D02*
G75*
G02*
X127634127Y-56795027I239973J0D01*
G01*
X134365667Y-55903740D02*
G75*
G02*
X134365632Y-55564295I169733J169740D01*
G01*
X127754127Y-56795000D02*
G75*
G02*
X127994100Y-57035000I-27J-240000D01*
G01*
X128354127Y-57495000D02*
G75*
G03*
X128479100Y-57370000I-27J125000D01*
G01*
X127994127Y-57255000D02*
G75*
G03*
X128234127Y-57494973I239973J0D01*
G01*
X129079127Y-57370000D02*
G75*
G03*
X129204127Y-57494973I124973J0D01*
G01*
X134575301Y-56452786D02*
G75*
G03*
X134575281Y-56113394I-169701J169686D01*
G01*
X128479127Y-57370000D02*
G75*
G02*
X128604127Y-57245027I124973J0D01*
G01*
X128954127Y-57245000D02*
G75*
G02*
X129079100Y-57370000I-27J-125000D01*
G01*
X127154127Y-57495000D02*
G75*
G03*
X127394100Y-57255000I-27J240000D01*
G01*
X134151038Y-56537639D02*
G75*
G03*
X134490449Y-56537640I169706J169707D01*
G01*
X130721098Y-55685000D02*
X130721098Y-56228213D01*
X133260000Y-55445000D02*
X133485000Y-55445000D01*
X134852116Y-53730602D02*
X135025020Y-53557697D01*
X133485000Y-55445000D02*
X133978800Y-54951200D01*
X132761098Y-55445000D02*
X132881098Y-55445000D01*
X131321098Y-55445000D02*
X131321098Y-55161784D01*
X132521098Y-56728230D02*
X132521098Y-55685000D01*
X135497500Y-52582500D02*
X135711127Y-52582500D01*
X136121827Y-52171800D02*
X136135000Y-52171800D01*
X135711127Y-52582500D02*
X136121827Y-52171800D01*
X132161098Y-56968230D02*
X132281098Y-56968230D01*
X131321098Y-55685000D02*
X131321098Y-55445000D01*
X131921098Y-55685000D02*
X131921098Y-56728230D01*
X126885000Y-55071800D02*
X127283200Y-55470000D01*
X132881098Y-55445000D02*
X133260000Y-55445000D01*
X133978800Y-54101200D02*
X134349398Y-53730602D01*
X131321098Y-56228213D02*
X131321098Y-55685000D01*
X131921098Y-55445000D02*
X131921098Y-55685000D01*
X130961098Y-56468213D02*
X131081098Y-56468213D01*
X127283200Y-55470000D02*
X130456098Y-55470000D01*
X135231336Y-52848664D02*
X135497500Y-52582500D01*
X130456098Y-55470000D02*
X130481098Y-55445000D01*
X131921098Y-55161784D02*
X131921098Y-55445000D01*
X135025020Y-53054977D02*
X135231336Y-52848664D01*
X131561098Y-54921784D02*
X131681098Y-54921784D01*
X133978800Y-54951200D02*
X133978800Y-54101200D01*
X131321098Y-55161784D02*
G75*
G02*
X131561098Y-54921798I240002J-16D01*
G01*
X134349398Y-53730602D02*
G75*
G02*
X134600757Y-53730601I125680J-125680D01*
G01*
X131921098Y-56728230D02*
G75*
G03*
X132161098Y-56968202I240002J30D01*
G01*
X132281098Y-56968230D02*
G75*
G03*
X132521130Y-56728230I2J240030D01*
G01*
X131681098Y-54921784D02*
G75*
G02*
X131921116Y-55161784I2J-240016D01*
G01*
X134600757Y-53730602D02*
G75*
G03*
X134852116Y-53730603I125680J125680D01*
G01*
X130721098Y-56228213D02*
G75*
G03*
X130961098Y-56468202I240002J13D01*
G01*
X135025020Y-53306337D02*
G75*
G02*
X135025063Y-53055020I125680J125637D01*
G01*
X135025020Y-53557697D02*
G75*
G03*
X135025037Y-53306320I-125720J125697D01*
G01*
X130481098Y-55445000D02*
G75*
G02*
X130721100Y-55685000I2J-240000D01*
G01*
X132521098Y-55685000D02*
G75*
G02*
X132761098Y-55444998I240002J0D01*
G01*
X131081098Y-56468213D02*
G75*
G03*
X131321113Y-56228213I2J240013D01*
G01*
X138985000Y-37120000D02*
X138360001Y-37120000D01*
X146935000Y-47771800D02*
X146935000Y-43125000D01*
X146935000Y-43125000D02*
X147335000Y-42725000D01*
X138360001Y-37120000D02*
X137731587Y-37748414D01*
X137111586Y-37748414D02*
X136615000Y-38245000D01*
X147335000Y-42725000D02*
X147335000Y-38665000D01*
X137731587Y-37748414D02*
X137111586Y-37748414D01*
X147335000Y-38665000D02*
X146915000Y-38245000D01*
X146535000Y-48171800D02*
X146935000Y-47771800D01*
X146510000Y-38640000D02*
X146510000Y-37995000D01*
D28*
X145335000Y-45630000D02*
X145635000Y-45330000D01*
D27*
X142135000Y-37745000D02*
X141390000Y-37000000D01*
X145910000Y-42070000D02*
X145635000Y-42345000D01*
X138635000Y-37595000D02*
X137590000Y-38640000D01*
X146915000Y-39045000D02*
X146510000Y-38640000D01*
D28*
X144135000Y-48971800D02*
X144283200Y-48971800D01*
D27*
X146535000Y-39425000D02*
X146915000Y-39045000D01*
X137020000Y-38640000D02*
X136615000Y-39045000D01*
X146260000Y-37745000D02*
X142135000Y-37745000D01*
X137590000Y-38640000D02*
X137020000Y-38640000D01*
X146535000Y-40170000D02*
X146535000Y-39425000D01*
X140180000Y-37000000D02*
X139585000Y-37595000D01*
D28*
X145335000Y-47920000D02*
X145335000Y-45630000D01*
D27*
X141390000Y-37000000D02*
X140180000Y-37000000D01*
D28*
X144283200Y-48971800D02*
X145335000Y-47920000D01*
D27*
X139585000Y-37595000D02*
X138635000Y-37595000D01*
X145910000Y-40795000D02*
X146535000Y-40170000D01*
X145910000Y-42070000D02*
X145910000Y-40795000D01*
D28*
X145635000Y-45330000D02*
X145635000Y-42345000D01*
D27*
X146510000Y-37995000D02*
X146260000Y-37745000D01*
X146135000Y-43145000D02*
X146135000Y-48570000D01*
X145735000Y-48970000D02*
X145735000Y-48971800D01*
X146135000Y-48570000D02*
X145735000Y-48970000D01*
X146915000Y-39845000D02*
X146915000Y-40640000D01*
X146695000Y-42585000D02*
X146135000Y-43145000D01*
X146695000Y-40860000D02*
X146695000Y-42585000D01*
X146915000Y-40640000D02*
X146695000Y-40860000D01*
X147715000Y-33440000D02*
X147715000Y-33445000D01*
X143675000Y-33380000D02*
X144635000Y-33380000D01*
X137415000Y-33445000D02*
X137860000Y-33000000D01*
X146865000Y-32590000D02*
X147715000Y-33440000D01*
X144635000Y-33380000D02*
X145425000Y-32590000D01*
X143295000Y-33000000D02*
X143675000Y-33380000D01*
X137860000Y-33000000D02*
X143295000Y-33000000D01*
X145425000Y-32590000D02*
X146865000Y-32590000D01*
D28*
X144135000Y-48171800D02*
X144135000Y-48170000D01*
D27*
X145060000Y-39495000D02*
X145060000Y-40120000D01*
X146115000Y-39045000D02*
X145510000Y-39045000D01*
X145060000Y-40120000D02*
X145060000Y-45095000D01*
D28*
X144935000Y-45220000D02*
X144985000Y-45170000D01*
D27*
X145510000Y-39045000D02*
X145060000Y-39495000D01*
D28*
X144935000Y-47370000D02*
X144935000Y-45220000D01*
D27*
X145060000Y-45095000D02*
X144985000Y-45170000D01*
D28*
X144135000Y-48170000D02*
X144935000Y-47370000D01*
X144565000Y-39315000D02*
X144947500Y-38932500D01*
X144135000Y-47190000D02*
X144565000Y-46760000D01*
X144135000Y-47371800D02*
X144135000Y-47190000D01*
D27*
X137560000Y-37245000D02*
X136815000Y-37245000D01*
X136815000Y-37245000D02*
X135815000Y-38245000D01*
X144947500Y-38932500D02*
X145635000Y-38245000D01*
D28*
X144565000Y-46760000D02*
X144565000Y-39315000D01*
D27*
X145635000Y-38245000D02*
X146115000Y-38245000D01*
X136865000Y-36095000D02*
X135815000Y-35045000D01*
X146385000Y-36095000D02*
X136865000Y-36095000D01*
X136615000Y-34245000D02*
X137000000Y-34630000D01*
X143565000Y-34930000D02*
X144825000Y-34930000D01*
X146510000Y-33840000D02*
X146915000Y-34245000D01*
X145915000Y-33840000D02*
X146510000Y-33840000D01*
X143265000Y-34630000D02*
X143565000Y-34930000D01*
X137000000Y-34630000D02*
X143265000Y-34630000D01*
X144825000Y-34930000D02*
X145915000Y-33840000D01*
X145785000Y-33050000D02*
X146520000Y-33050000D01*
X146520000Y-33050000D02*
X146915000Y-33445000D01*
X136615000Y-33445000D02*
X136615000Y-33315000D01*
X144995000Y-33840000D02*
X145785000Y-33050000D01*
X136615000Y-33445000D02*
X137010000Y-33840000D01*
X137010000Y-33840000D02*
X144995000Y-33840000D01*
X137415000Y-35045000D02*
X137940000Y-35570000D01*
X137940000Y-35570000D02*
X147190000Y-35570000D01*
X147190000Y-35570000D02*
X147715000Y-35045000D01*
D28*
X147610000Y-48570000D02*
X147725000Y-48455000D01*
X148265000Y-41175000D02*
X148265000Y-38795000D01*
X148335000Y-47770000D02*
X148535000Y-47570000D01*
X148535000Y-43110000D02*
X148745000Y-42900000D01*
X148745000Y-41655000D02*
X148265000Y-41175000D01*
X148265000Y-38795000D02*
X147715000Y-38245000D01*
X148535000Y-47570000D02*
X148535000Y-43110000D01*
X146535000Y-48970000D02*
X146935000Y-48570000D01*
X147935000Y-47770000D02*
X148335000Y-47770000D01*
X147725000Y-47980000D02*
X147935000Y-47770000D01*
X148745000Y-42900000D02*
X148745000Y-41655000D01*
X147725000Y-48455000D02*
X147725000Y-47980000D01*
X146535000Y-48971800D02*
X146535000Y-48970000D01*
X146935000Y-48570000D02*
X147610000Y-48570000D01*
X147785000Y-39470000D02*
X147715000Y-39400000D01*
X147735000Y-43150000D02*
X148225000Y-42660000D01*
X147735000Y-46971800D02*
X147735000Y-43150000D01*
X147715000Y-39400000D02*
X147715000Y-39045000D01*
X148225000Y-41890000D02*
X147785000Y-41450000D01*
X148225000Y-42660000D02*
X148225000Y-41890000D01*
X147335000Y-47371800D02*
X147735000Y-46971800D01*
X147785000Y-41450000D02*
X147785000Y-39470000D01*
X143735000Y-44995000D02*
X143810000Y-44920000D01*
X143810000Y-44920000D02*
X143810000Y-40965000D01*
X143735000Y-48571800D02*
X143735000Y-44995000D01*
X143035000Y-39045000D02*
X142215000Y-39045000D01*
X143485000Y-39495000D02*
X143035000Y-39045000D01*
X143810000Y-40965000D02*
X143485000Y-40640000D01*
X143485000Y-40640000D02*
X143485000Y-39495000D01*
X143335000Y-48971800D02*
X143735000Y-48571800D01*
X141935000Y-40470000D02*
X141415000Y-39950000D01*
X141415000Y-39950000D02*
X141415000Y-39845000D01*
X142385000Y-40470000D02*
X141935000Y-40470000D01*
X143160000Y-41245000D02*
X142385000Y-40470000D01*
X143160000Y-44670000D02*
X143160000Y-41245000D01*
X142935000Y-44895000D02*
X143160000Y-44670000D01*
X142935000Y-46971800D02*
X142935000Y-44895000D01*
X143335000Y-47371800D02*
X142935000Y-46971800D01*
X150936800Y-46170000D02*
X151505000Y-46170000D01*
X151935000Y-45740000D02*
X151935000Y-41645000D01*
X151715000Y-39900000D02*
X151715000Y-39845000D01*
X152035000Y-41545000D02*
X152035000Y-40220000D01*
X151505000Y-46170000D02*
X151935000Y-45740000D01*
X152035000Y-40220000D02*
X151715000Y-39900000D01*
X150535000Y-46571800D02*
X150936800Y-46170000D01*
X151935000Y-41645000D02*
X152035000Y-41545000D01*
X151315000Y-44991800D02*
X151315000Y-39445000D01*
X151315000Y-39445000D02*
X151715000Y-39045000D01*
X150535000Y-45771800D02*
X151315000Y-44991800D01*
X142075000Y-41080000D02*
X141785000Y-41080000D01*
X142135000Y-47570000D02*
X142135000Y-45020000D01*
X142478536Y-44676464D02*
X142478536Y-41483536D01*
X142335000Y-47770000D02*
X142135000Y-47570000D01*
X142933200Y-47770000D02*
X142335000Y-47770000D01*
X141028628Y-40323628D02*
X141028628Y-39431372D01*
X142478536Y-41483536D02*
X142075000Y-41080000D01*
X142135000Y-45020000D02*
X142478536Y-44676464D01*
X141785000Y-41080000D02*
X141028628Y-40323628D01*
X143335000Y-48171800D02*
X142933200Y-47770000D01*
X141028628Y-39431372D02*
X141415000Y-39045000D01*
X150505000Y-41750000D02*
X150405000Y-41850000D01*
X150535000Y-42995000D02*
X150535000Y-44971800D01*
X150505000Y-39455000D02*
X150505000Y-41750000D01*
X150405000Y-42865000D02*
X150535000Y-42995000D01*
X150405000Y-41850000D02*
X150405000Y-42865000D01*
X150915000Y-39045000D02*
X150505000Y-39455000D01*
X148735000Y-40895000D02*
X149285000Y-41445000D01*
X150115000Y-39045000D02*
X149297256Y-39045000D01*
X149335000Y-45371800D02*
X148935000Y-45771800D01*
X149285000Y-41445000D02*
X149285000Y-44645000D01*
X149285000Y-44645000D02*
X149335000Y-44695000D01*
X149335000Y-44695000D02*
X149335000Y-45371800D01*
X148735000Y-39607256D02*
X148735000Y-40895000D01*
X149297256Y-39045000D02*
X148735000Y-39607256D01*
D27*
X149315000Y-39845000D02*
X149835000Y-40365000D01*
D28*
X149735000Y-44971800D02*
X149735000Y-44970000D01*
D27*
X149735000Y-44895000D02*
X149735000Y-44971800D01*
X149835000Y-44795000D02*
X149735000Y-44895000D01*
X149835000Y-40365000D02*
X149835000Y-44795000D01*
D28*
X141510000Y-44788536D02*
X141335000Y-44963536D01*
X141335000Y-44963536D02*
X141335000Y-46971800D01*
X141510000Y-41595000D02*
X141510000Y-44788536D01*
X140615000Y-40700000D02*
X141510000Y-41595000D01*
X141335000Y-46971800D02*
X141735000Y-47371800D01*
X140615000Y-39845000D02*
X140615000Y-40700000D01*
X140915000Y-42590000D02*
X140535000Y-42970000D01*
X140535000Y-46971800D02*
X140935000Y-47371800D01*
X140210000Y-41135000D02*
X140915000Y-41840000D01*
X140535000Y-42970000D02*
X140535000Y-46971800D01*
X140615000Y-39045000D02*
X140210000Y-39450000D01*
X140210000Y-39450000D02*
X140210000Y-41135000D01*
X140915000Y-41840000D02*
X140915000Y-42590000D01*
X139835000Y-47020000D02*
X140985000Y-48170000D01*
X140985000Y-48171800D02*
X141735000Y-48171800D01*
X140985000Y-48170000D02*
X140985000Y-48171800D01*
X139815000Y-39845000D02*
X139815000Y-45125000D01*
X139815000Y-45125000D02*
X139835000Y-45145000D01*
X139835000Y-45145000D02*
X139835000Y-47020000D01*
X142133200Y-48570000D02*
X140560000Y-48570000D01*
X138935000Y-40670000D02*
X139410000Y-40195000D01*
X139410000Y-39450000D02*
X139815000Y-39045000D01*
X142535000Y-48971800D02*
X142133200Y-48570000D01*
X139760000Y-47770000D02*
X139185000Y-47770000D01*
X139410000Y-40195000D02*
X139410000Y-39450000D01*
X138935000Y-47520000D02*
X138935000Y-40670000D01*
X140560000Y-48570000D02*
X139760000Y-47770000D01*
X139185000Y-47770000D02*
X138935000Y-47520000D01*
X138135000Y-48395000D02*
X138135000Y-40725000D01*
X138135000Y-40725000D02*
X139015000Y-39845000D01*
X140261800Y-48971800D02*
X139860000Y-48570000D01*
X138310000Y-48570000D02*
X138135000Y-48395000D01*
X139860000Y-48570000D02*
X138310000Y-48570000D01*
X141735000Y-48971800D02*
X140261800Y-48971800D01*
D27*
X159035000Y-36680000D02*
X159035000Y-36720001D01*
X158655000Y-37100001D02*
X158655000Y-40450000D01*
X154935000Y-45470000D02*
X154935000Y-46171800D01*
X159035000Y-36720001D02*
X158655000Y-37100001D01*
X154835000Y-45370000D02*
X154935000Y-45470000D01*
X154935000Y-46171800D02*
X155335000Y-46571800D01*
X158655000Y-40450000D02*
X154835000Y-44270000D01*
X154835000Y-44270000D02*
X154835000Y-45370000D01*
X155335000Y-44442500D02*
X155335000Y-45771800D01*
X159415000Y-40740000D02*
X157810000Y-42345000D01*
X159415000Y-37070001D02*
X159415000Y-40740000D01*
X159795000Y-36676348D02*
X159795000Y-36690001D01*
X157432500Y-42345000D02*
X155335000Y-44442500D01*
X157810000Y-42345000D02*
X157432500Y-42345000D01*
X159795000Y-36690001D02*
X159415000Y-37070001D01*
X157810814Y-43470000D02*
X156735000Y-44545814D01*
X161010000Y-36377695D02*
X161010000Y-40845000D01*
X160558653Y-35926348D02*
X161010000Y-36377695D01*
X156735000Y-45971800D02*
X156135000Y-46571800D01*
X158385000Y-43470000D02*
X157810814Y-43470000D01*
X161010000Y-40845000D02*
X158385000Y-43470000D01*
X156735000Y-44545814D02*
X156735000Y-45971800D01*
X154335000Y-44020000D02*
X154335000Y-45370000D01*
X157885000Y-37100001D02*
X157885000Y-40470000D01*
X154135000Y-46171800D02*
X153735000Y-46571800D01*
X158275000Y-36710001D02*
X157885000Y-37100001D01*
X154335000Y-45370000D02*
X154135000Y-45570000D01*
X157885000Y-40470000D02*
X154335000Y-44020000D01*
X158275000Y-36670000D02*
X158275000Y-36710001D01*
X154135000Y-45570000D02*
X154135000Y-46171800D01*
X161535000Y-35580000D02*
X161515000Y-35580000D01*
X162110000Y-40870000D02*
X162110000Y-36155000D01*
X157235000Y-46270000D02*
X157235000Y-44800000D01*
X162110000Y-36155000D02*
X161535000Y-35580000D01*
X158930000Y-44050000D02*
X162110000Y-40870000D01*
X157235000Y-44800000D02*
X157985000Y-44050000D01*
X157985000Y-44050000D02*
X158930000Y-44050000D01*
X156135000Y-47370000D02*
X157235000Y-46270000D01*
X156135000Y-47371800D02*
X156135000Y-47370000D01*
X156135000Y-44420000D02*
X156135000Y-45771800D01*
X160568653Y-36686348D02*
X160175000Y-37080001D01*
X158135000Y-42895000D02*
X157660000Y-42895000D01*
X157660000Y-42895000D02*
X156135000Y-44420000D01*
X160175000Y-37080001D02*
X160175000Y-40855000D01*
X160175000Y-40855000D02*
X158135000Y-42895000D01*
X155610000Y-35735000D02*
X155610000Y-41120000D01*
X152935000Y-43795000D02*
X152935000Y-45771800D01*
X155610000Y-41120000D02*
X152935000Y-43795000D01*
X156535000Y-34810000D02*
X155610000Y-35735000D01*
X156525000Y-35590000D02*
X156495000Y-35590000D01*
X156085000Y-36000000D02*
X156085000Y-41470000D01*
X156085000Y-41470000D02*
X153735000Y-43820000D01*
X153735000Y-43820000D02*
X153735000Y-45771800D01*
X156495000Y-35590000D02*
X156085000Y-36000000D01*
X155085000Y-40845000D02*
X152445000Y-43485000D01*
X152445000Y-43485000D02*
X152445000Y-46261800D01*
X155085000Y-35520000D02*
X155085000Y-40845000D01*
X156545000Y-34060000D02*
X155085000Y-35520000D01*
X156545000Y-34040000D02*
X156545000Y-34060000D01*
X152445000Y-46261800D02*
X151335000Y-47371800D01*
X139910000Y-68195000D02*
X139935000Y-68220000D01*
X139935000Y-68220000D02*
X139935000Y-69095000D01*
X139335000Y-69695000D02*
X139335000Y-69771800D01*
X139960000Y-68195000D02*
X139910000Y-68195000D01*
X139935000Y-69095000D02*
X139335000Y-69695000D01*
X116875000Y-72986701D02*
X115760000Y-74101701D01*
X115875000Y-75810000D02*
X115875000Y-77075000D01*
X115760000Y-75695000D02*
X115875000Y-75810000D01*
X116210000Y-71095000D02*
X116210000Y-71145000D01*
X115760000Y-74101701D02*
X115760000Y-75695000D01*
X116235000Y-71070000D02*
X116210000Y-71095000D01*
X116875000Y-71810000D02*
X116875000Y-72986701D01*
X116210000Y-71145000D02*
X116875000Y-71810000D01*
D29*
X156760000Y-75243726D02*
X157285000Y-75768726D01*
X156760000Y-74143726D02*
X156760000Y-75243726D01*
X155735000Y-73118726D02*
X156760000Y-74143726D01*
X156695001Y-61261273D02*
X155735000Y-62221274D01*
X155735000Y-62221274D02*
X155735000Y-73118726D01*
X157285000Y-76035000D02*
X157375000Y-76125000D01*
X156695001Y-60411799D02*
X156695001Y-61261273D01*
X157375000Y-76125000D02*
X157375000Y-77075000D01*
X157285000Y-75768726D02*
X157285000Y-76035000D01*
X156935000Y-60171800D02*
X156695001Y-60411799D01*
X156374999Y-60411799D02*
X156374999Y-61128727D01*
X156965000Y-76035000D02*
X156875000Y-76125000D01*
X156440000Y-74276274D02*
X156440000Y-75376274D01*
X155415000Y-62088726D02*
X155415000Y-73251274D01*
X156135000Y-60171800D02*
X156374999Y-60411799D01*
X155415000Y-73251274D02*
X156440000Y-74276274D01*
X156440000Y-75376274D02*
X156965000Y-75901274D01*
X156875000Y-76125000D02*
X156875000Y-77075000D01*
X156374999Y-61128727D02*
X155415000Y-62088726D01*
X156965000Y-75901274D02*
X156965000Y-76035000D01*
X160500100Y-63523030D02*
X160300800Y-63722330D01*
X158193726Y-65205000D02*
X157476274Y-65205000D01*
X160300800Y-62922330D02*
X160300800Y-63021270D01*
X158785000Y-75768726D02*
X158785000Y-76035000D01*
X158875000Y-76125000D02*
X158875000Y-77075000D01*
X158785000Y-76035000D02*
X158875000Y-76125000D01*
X160135000Y-61771800D02*
X160135000Y-62206700D01*
X160500100Y-64020570D02*
X160500100Y-64323030D01*
X158245000Y-75228726D02*
X158785000Y-75768726D01*
X157095000Y-72378726D02*
X158245000Y-73528726D01*
X160286230Y-62206700D02*
X160500100Y-62420570D01*
X158245000Y-73528726D02*
X158245000Y-75228726D01*
X157476274Y-65205000D02*
X157095000Y-65586274D01*
X160300800Y-64522330D02*
X160300800Y-65130474D01*
X160300800Y-63021270D02*
X160500100Y-63220570D01*
X160300800Y-65130474D02*
X159637111Y-65794163D01*
X160300800Y-63821270D02*
X160500100Y-64020570D01*
X160500100Y-63220570D02*
X160500100Y-63523030D01*
X160500100Y-62420570D02*
X160500100Y-62723030D01*
X158782889Y-65794163D02*
X158193726Y-65205000D01*
X160135000Y-62206700D02*
X160286230Y-62206700D01*
X160500100Y-62723030D02*
X160300800Y-62922330D01*
X159637111Y-65794163D02*
X158782889Y-65794163D01*
X157095000Y-65586274D02*
X157095000Y-72378726D01*
X160500100Y-64323030D02*
X160300800Y-64522330D01*
X160300800Y-63722330D02*
X160300800Y-63821270D01*
X159504563Y-65474163D02*
X158915437Y-65474163D01*
X157400220Y-73511394D02*
X157417964Y-73493649D01*
X156975956Y-73426542D02*
X157060808Y-73511394D01*
X157757376Y-73493649D02*
X157842229Y-73578503D01*
X157925000Y-75361274D02*
X158465000Y-75901274D01*
X159980800Y-63733930D02*
X159980800Y-63809670D01*
X159769900Y-63523030D02*
X159980800Y-63733930D01*
X159980800Y-64997926D02*
X159504563Y-65474163D01*
X157910000Y-74146240D02*
X157925000Y-74161240D01*
X159980800Y-64533930D02*
X159980800Y-64997926D01*
X159769900Y-63220570D02*
X159769900Y-63523030D01*
X156993701Y-73069386D02*
X156975956Y-73087130D01*
X158915437Y-65474163D02*
X158326274Y-64885000D01*
X159980800Y-63009670D02*
X159769900Y-63220570D01*
X157343726Y-64885000D02*
X156775000Y-65453726D01*
X158326274Y-64885000D02*
X157343726Y-64885000D01*
X157842229Y-73578503D02*
X157910000Y-73646274D01*
X158465000Y-76035000D02*
X158375000Y-76125000D01*
X159980800Y-62933930D02*
X159980800Y-63009670D01*
X159769900Y-64020570D02*
X159769900Y-64323030D01*
X159980800Y-63809670D02*
X159769900Y-64020570D01*
X156775000Y-72511274D02*
X156993701Y-72729975D01*
X157910000Y-73646274D02*
X157910000Y-74146240D01*
X157925000Y-74161240D02*
X157925000Y-75361274D01*
X158465000Y-75901274D02*
X158465000Y-76035000D01*
X159769900Y-62723030D02*
X159980800Y-62933930D01*
X159769900Y-62571800D02*
X159769900Y-62723030D01*
X159335000Y-62571800D02*
X159769900Y-62571800D01*
X156775000Y-65453726D02*
X156775000Y-72511274D01*
X158375000Y-76125000D02*
X158375000Y-77075000D01*
X159769900Y-64323030D02*
X159980800Y-64533930D01*
X157060808Y-73511394D02*
G75*
G03*
X157400220Y-73511394I169706J169704D01*
G01*
X156993701Y-72729975D02*
G75*
G02*
X156993721Y-73069405I-169701J-169725D01*
G01*
X156975956Y-73087130D02*
G75*
G03*
X156975992Y-73426506I169744J-169670D01*
G01*
X157417964Y-73493649D02*
G75*
G02*
X157757376Y-73493649I169706J-169704D01*
G01*
X161720000Y-65525000D02*
X161720000Y-61578726D01*
X160286230Y-59806700D02*
X159983770Y-59806700D01*
X160482202Y-60340928D02*
X160500100Y-60323030D01*
X160285000Y-75768726D02*
X159715000Y-75198726D01*
X160995000Y-66250000D02*
X161720000Y-65525000D01*
X160285000Y-76035000D02*
X160285000Y-75768726D01*
X159983770Y-59806700D02*
X159788869Y-59611799D01*
X159715000Y-71266274D02*
X160995000Y-69986274D01*
X160500100Y-60323030D02*
X160500100Y-60020570D01*
X159715000Y-75198726D02*
X159715000Y-71266274D01*
X161720000Y-61578726D02*
X160482202Y-60340928D01*
X160995000Y-69986274D02*
X160995000Y-66250000D01*
X160375000Y-76125000D02*
X160285000Y-76035000D01*
X160375000Y-77075000D02*
X160375000Y-76125000D01*
X159788869Y-59611799D02*
X158774999Y-59611799D01*
X160500100Y-60020570D02*
X160286230Y-59806700D01*
X158774999Y-59611799D02*
X158535000Y-59371800D01*
X158774999Y-59931801D02*
X159620527Y-59931801D01*
X159769900Y-60323030D02*
X159983770Y-60536900D01*
X159965000Y-75901274D02*
X159965000Y-76035000D01*
X159385000Y-73118970D02*
X159385000Y-73238970D01*
X159395000Y-73795536D02*
X159395000Y-75331274D01*
X159118775Y-72878970D02*
X159145000Y-72878970D01*
X159385000Y-73785536D02*
X159395000Y-73795536D01*
X161400000Y-65392454D02*
X160675000Y-66117454D01*
X159983770Y-60536900D02*
X160225626Y-60536900D01*
X159395000Y-75331274D02*
X159965000Y-75901274D01*
X160675000Y-69853726D02*
X159385000Y-71143726D01*
X161400000Y-61711274D02*
X161400000Y-65392454D01*
X159385000Y-71143726D02*
X159385000Y-72038970D01*
X159875000Y-76125000D02*
X159875000Y-77075000D01*
X158535000Y-60171800D02*
X158774999Y-59931801D01*
X158878775Y-72518970D02*
X158878775Y-72638970D01*
X159769900Y-60081174D02*
X159769900Y-60323030D01*
X159620527Y-59931801D02*
X159769900Y-60081174D01*
X159965000Y-76035000D02*
X159875000Y-76125000D01*
X159385000Y-73238970D02*
X159385000Y-73785536D01*
X160675000Y-66117454D02*
X160675000Y-69853726D01*
X160225626Y-60536900D02*
X161400000Y-61711274D01*
X159145000Y-72278970D02*
X159118775Y-72278970D01*
X159118775Y-72278970D02*
G75*
G03*
X158878770Y-72518970I25J-240030D01*
G01*
X159145000Y-72878970D02*
G75*
G02*
X159385030Y-73118970I0J-240030D01*
G01*
X159385000Y-72038970D02*
G75*
G02*
X159145000Y-72279000I-240000J-30D01*
G01*
X158878775Y-72638970D02*
G75*
G03*
X159118775Y-72879025I240025J-30D01*
G01*
X161653244Y-59489518D02*
X161819291Y-59655565D01*
X158911800Y-58195000D02*
X160358726Y-58195000D01*
X162015000Y-66767454D02*
X162015000Y-70244909D01*
X161819291Y-59655565D02*
X162425000Y-60261274D01*
X160358726Y-58195000D02*
X160970763Y-58807037D01*
X162425000Y-66357454D02*
X162015000Y-66767454D01*
X161175000Y-75611274D02*
X161465000Y-75901274D01*
X161375000Y-76125000D02*
X161375000Y-77075000D01*
X162425000Y-60261274D02*
X162425000Y-60829635D01*
X161465000Y-76035000D02*
X161375000Y-76125000D01*
X160970763Y-59323471D02*
X161136810Y-59489518D01*
X162425000Y-60829635D02*
X162425000Y-66357454D01*
X162015000Y-70244909D02*
X161175000Y-71084909D01*
X158535000Y-58571800D02*
X158911800Y-58195000D01*
X161175000Y-71084909D02*
X161175000Y-75611274D01*
X161465000Y-75901274D02*
X161465000Y-76035000D01*
X161136810Y-59489518D02*
G75*
G03*
X161395027Y-59489518I129108J129110D01*
G01*
X161395027Y-59489518D02*
G75*
G02*
X161653244Y-59489517I129109J-129110D01*
G01*
X160970763Y-58807037D02*
G75*
G02*
X160970718Y-59065208I-129063J-129063D01*
G01*
X160970763Y-59065254D02*
G75*
G03*
X160970725Y-59323508I129137J-129146D01*
G01*
X162335000Y-70377455D02*
X161495000Y-71217455D01*
X161785000Y-75768726D02*
X161785000Y-76035000D01*
X161875000Y-76125000D02*
X161875000Y-77075000D01*
X162335000Y-66900000D02*
X162335000Y-70377455D01*
X160491274Y-57875000D02*
X162745000Y-60128726D01*
X161495000Y-75478726D02*
X161785000Y-75768726D01*
X158638200Y-57875000D02*
X160491274Y-57875000D01*
X161495000Y-71217455D02*
X161495000Y-75478726D01*
X161785000Y-76035000D02*
X161875000Y-76125000D01*
X162745000Y-66490000D02*
X162335000Y-66900000D01*
X162745000Y-60128726D02*
X162745000Y-66490000D01*
X158535000Y-57771800D02*
X158638200Y-57875000D01*
X162965000Y-75901274D02*
X162965000Y-76035000D01*
X163425000Y-70452454D02*
X162650000Y-71227454D01*
X162417754Y-73874648D02*
X162417754Y-74242402D01*
X162965000Y-76035000D02*
X162875000Y-76125000D01*
X162875000Y-76125000D02*
X162875000Y-77075000D01*
X162650000Y-74842402D02*
X162650000Y-75586274D01*
X161073825Y-57336900D02*
X163425000Y-59688075D01*
X160783770Y-57336900D02*
X161073825Y-57336900D01*
X163425000Y-59688075D02*
X163425000Y-70452454D01*
X162650000Y-71227454D02*
X162650000Y-73642402D01*
X160135000Y-56971800D02*
X160569900Y-56971800D01*
X160569900Y-56971800D02*
X160569900Y-57123030D01*
X162650000Y-74474648D02*
X162650000Y-74842402D01*
X162650000Y-75586274D02*
X162965000Y-75901274D01*
X160569900Y-57123030D02*
X160783770Y-57336900D01*
X162650000Y-73642402D02*
G75*
G02*
X162533877Y-73758500I-116100J2D01*
G01*
X162533877Y-73758525D02*
G75*
G03*
X162417825Y-73874648I23J-116075D01*
G01*
X162533877Y-74358525D02*
G75*
G02*
X162649975Y-74474648I23J-116075D01*
G01*
X162417754Y-74242402D02*
G75*
G03*
X162533877Y-74358546I116146J2D01*
G01*
X163285000Y-76035000D02*
X163375000Y-76125000D01*
X160935000Y-56606700D02*
X161086230Y-56606700D01*
X162970000Y-75453726D02*
X163285000Y-75768726D01*
X162970000Y-71360000D02*
X162970000Y-75453726D01*
X161086230Y-56606700D02*
X161300100Y-56820570D01*
X160935000Y-56171800D02*
X160935000Y-56606700D01*
X161300100Y-56820570D02*
X161300100Y-57110625D01*
X163745000Y-70585000D02*
X162970000Y-71360000D01*
X163745000Y-59555525D02*
X163745000Y-70585000D01*
X161300100Y-57110625D02*
X163745000Y-59555525D01*
X163285000Y-75768726D02*
X163285000Y-76035000D01*
X163375000Y-76125000D02*
X163375000Y-77075000D01*
X164465000Y-76035000D02*
X164465000Y-75901274D01*
X164375000Y-76125000D02*
X164465000Y-76035000D01*
X164175000Y-75611274D02*
X164175000Y-75261275D01*
X163720857Y-74807132D02*
X163522868Y-74807132D01*
X164175000Y-75261275D02*
X163720857Y-74807132D01*
X164465000Y-75901274D02*
X164175000Y-75611274D01*
X164375000Y-77075000D02*
X164375000Y-76125000D01*
X164875000Y-76125000D02*
X164785000Y-76035000D01*
X163947132Y-74580857D02*
X163947132Y-74382868D01*
X164875000Y-77075000D02*
X164875000Y-76125000D01*
X164495000Y-75128725D02*
X163947132Y-74580857D01*
X164785000Y-75768726D02*
X164495000Y-75478726D01*
X164785000Y-76035000D02*
X164785000Y-75768726D01*
X164495000Y-75478726D02*
X164495000Y-75128725D01*
X166126274Y-75105000D02*
X166501274Y-75105000D01*
X166375000Y-76125000D02*
X166285000Y-76035000D01*
X166501274Y-75105000D02*
X166772132Y-74834142D01*
X166285000Y-75768726D02*
X165995000Y-75478726D01*
X166772132Y-74834142D02*
X166772132Y-73882868D01*
X165995000Y-75478726D02*
X165995000Y-75236274D01*
X166375000Y-77075000D02*
X166375000Y-76125000D01*
X165995000Y-75236274D02*
X166126274Y-75105000D01*
X166285000Y-76035000D02*
X166285000Y-75768726D01*
X165965000Y-76035000D02*
X165965000Y-75901274D01*
X165675000Y-75103726D02*
X165993726Y-74785000D01*
X165875000Y-77075000D02*
X165875000Y-76125000D01*
X165675000Y-75611274D02*
X165675000Y-75103726D01*
X166460000Y-74419264D02*
X166347868Y-74307132D01*
X165993726Y-74785000D02*
X166368726Y-74785000D01*
X165875000Y-76125000D02*
X165965000Y-76035000D01*
X166460000Y-74693726D02*
X166460000Y-74419264D01*
X165965000Y-75901274D02*
X165675000Y-75611274D01*
X166368726Y-74785000D02*
X166460000Y-74693726D01*
X167635000Y-72842454D02*
X167175000Y-73302454D01*
X159938670Y-55691800D02*
X159983770Y-55736900D01*
X167635000Y-70895000D02*
X167635000Y-72842454D01*
X167465000Y-76035000D02*
X167375000Y-76125000D01*
X161131330Y-55691800D02*
X163744254Y-55691800D01*
X167175000Y-75611274D02*
X167465000Y-75901274D01*
X159335000Y-55371800D02*
X159655000Y-55691800D01*
X159655000Y-55691800D02*
X159938670Y-55691800D01*
X166425000Y-69685000D02*
X167635000Y-70895000D01*
X161086230Y-55736900D02*
X161131330Y-55691800D01*
X167175000Y-73302454D02*
X167175000Y-75611274D01*
X166425000Y-58372546D02*
X166425000Y-69685000D01*
X167465000Y-75901274D02*
X167465000Y-76035000D01*
X163744254Y-55691800D02*
X166425000Y-58372546D01*
X167375000Y-76125000D02*
X167375000Y-77075000D01*
X159983770Y-55736900D02*
X161086230Y-55736900D01*
X167495000Y-73435000D02*
X167495000Y-75478726D01*
X166745000Y-58240000D02*
X166745000Y-69552454D01*
X161300100Y-55220570D02*
X161300100Y-55371800D01*
X167495000Y-75478726D02*
X167785000Y-75768726D01*
X167955000Y-70762454D02*
X167955000Y-72975000D01*
X160783770Y-55006700D02*
X161086230Y-55006700D01*
X166745000Y-69552454D02*
X167955000Y-70762454D01*
X167875000Y-76125000D02*
X167875000Y-77075000D01*
X167955000Y-72975000D02*
X167495000Y-73435000D01*
X161300100Y-55371800D02*
X163876800Y-55371800D01*
X160569900Y-55371800D02*
X160569900Y-55220570D01*
X161086230Y-55006700D02*
X161300100Y-55220570D01*
X160135000Y-55371800D02*
X160569900Y-55371800D01*
X167785000Y-75768726D02*
X167785000Y-76035000D01*
X163876800Y-55371800D02*
X166745000Y-58240000D01*
X160569900Y-55220570D02*
X160783770Y-55006700D01*
X167785000Y-76035000D02*
X167875000Y-76125000D01*
X169375000Y-77075000D02*
X169375000Y-76125000D01*
X162967546Y-54570000D02*
X162107546Y-53710000D01*
X166236274Y-54570000D02*
X162967546Y-54570000D01*
X169285000Y-75768726D02*
X168995000Y-75478726D01*
X168170000Y-63986274D02*
X168420000Y-63736274D01*
X168995000Y-70202454D02*
X168170000Y-69377454D01*
X169285000Y-76035000D02*
X169285000Y-75768726D01*
X168420000Y-57842454D02*
X167270000Y-56692454D01*
X168420000Y-63736274D02*
X168420000Y-57842454D01*
X159396800Y-53710000D02*
X158535000Y-54571800D01*
X168170000Y-69377454D02*
X168170000Y-63986274D01*
X167270000Y-55603726D02*
X166236274Y-54570000D01*
X162107546Y-53710000D02*
X159396800Y-53710000D01*
X169375000Y-76125000D02*
X169285000Y-76035000D01*
X167270000Y-56692454D02*
X167270000Y-55603726D01*
X168995000Y-75478726D02*
X168995000Y-70202454D01*
X168965000Y-75901274D02*
X168965000Y-76035000D01*
X166950000Y-55736274D02*
X166950000Y-56825000D01*
X168675000Y-70335000D02*
X168675000Y-75611274D01*
X166950000Y-56825000D02*
X168100000Y-57975000D01*
X168100000Y-59585956D02*
X168100000Y-59705956D01*
X168675000Y-75611274D02*
X168965000Y-75901274D01*
X167820000Y-59345956D02*
X167860000Y-59345956D01*
X167860000Y-59945956D02*
X167820000Y-59945956D01*
X168100000Y-60905956D02*
X168100000Y-61300000D01*
X168100000Y-60785956D02*
X168100000Y-60905956D01*
X159529349Y-54030000D02*
X161975000Y-54030000D01*
X168875000Y-76125000D02*
X168875000Y-77075000D01*
X167850000Y-63853726D02*
X167850000Y-69510000D01*
X162814000Y-54869000D02*
X166082726Y-54869000D01*
X161975000Y-54030000D02*
X162814000Y-54869000D01*
X159335000Y-54224349D02*
X159529349Y-54030000D01*
X167860000Y-58745956D02*
X167820000Y-58745956D01*
X168100000Y-63603726D02*
X167850000Y-63853726D01*
X168100000Y-57975000D02*
X168100000Y-58505956D01*
X167850000Y-69510000D02*
X168675000Y-70335000D01*
X168965000Y-76035000D02*
X168875000Y-76125000D01*
X166082726Y-54869000D02*
X166950000Y-55736274D01*
X168100000Y-61300000D02*
X168100000Y-63603726D01*
X167580000Y-58985956D02*
X167580000Y-59105956D01*
X167820000Y-60545956D02*
X167860000Y-60545956D01*
X159335000Y-54571800D02*
X159335000Y-54224349D01*
X167580000Y-60185956D02*
X167580000Y-60305956D01*
X167820000Y-59945956D02*
G75*
G03*
X167579956Y-60185956I0J-240044D01*
G01*
X167580000Y-59105956D02*
G75*
G03*
X167820000Y-59346000I240000J-44D01*
G01*
X167860000Y-60545956D02*
G75*
G02*
X168100044Y-60785956I0J-240044D01*
G01*
X168100000Y-58505956D02*
G75*
G02*
X167860000Y-58746000I-240000J-44D01*
G01*
X167820000Y-58745956D02*
G75*
G03*
X167579956Y-58985956I0J-240044D01*
G01*
X167580000Y-60305956D02*
G75*
G03*
X167820000Y-60546000I240000J-44D01*
G01*
X167860000Y-59345956D02*
G75*
G02*
X168100044Y-59585956I0J-240044D01*
G01*
X168100000Y-59705956D02*
G75*
G02*
X167860000Y-59946000I-240000J-44D01*
G01*
X170875000Y-76125000D02*
X170785000Y-76035000D01*
X169920000Y-69377454D02*
X169920000Y-57810000D01*
X162851274Y-52560000D02*
X161549475Y-52560000D01*
X170785000Y-75768726D02*
X170495000Y-75478726D01*
X164393726Y-53685000D02*
X163976274Y-53685000D01*
X169920000Y-57810000D02*
X168465000Y-56355000D01*
X170495000Y-75478726D02*
X170495000Y-69952454D01*
X165168726Y-52910000D02*
X164393726Y-53685000D01*
X168465000Y-56355000D02*
X168465000Y-53973726D01*
X160935000Y-51945525D02*
X160935000Y-51371800D01*
X170785000Y-76035000D02*
X170785000Y-75768726D01*
X170495000Y-69952454D02*
X169920000Y-69377454D01*
X161549475Y-52560000D02*
X160935000Y-51945525D01*
X167401274Y-52910000D02*
X165168726Y-52910000D01*
X170875000Y-77075000D02*
X170875000Y-76125000D01*
X163976274Y-53685000D02*
X162851274Y-52560000D01*
X168465000Y-53973726D02*
X167401274Y-52910000D01*
X169600000Y-59272216D02*
X169600000Y-59639990D01*
X160135000Y-52171800D02*
X160708725Y-52171800D01*
X161416925Y-52880000D02*
X162718726Y-52880000D01*
X169600000Y-69510000D02*
X170175000Y-70085000D01*
X170465000Y-75901274D02*
X170465000Y-76035000D01*
X170175000Y-70085000D02*
X170175000Y-75611274D01*
X169367774Y-58672216D02*
X169367774Y-59039990D01*
X162718726Y-52880000D02*
X163843726Y-54005000D01*
X168145000Y-56487546D02*
X169600000Y-57942546D01*
X169600000Y-59639990D02*
X169600000Y-60655065D01*
X164526274Y-54005000D02*
X165301274Y-53230000D01*
X169600000Y-57942546D02*
X169600000Y-58439990D01*
X167268726Y-53230000D02*
X168145000Y-54106274D01*
X170175000Y-75611274D02*
X170465000Y-75901274D01*
X168145000Y-54106274D02*
X168145000Y-56487546D01*
X163843726Y-54005000D02*
X164526274Y-54005000D01*
X160708725Y-52171800D02*
X161416925Y-52880000D01*
X169600000Y-60655065D02*
X169600000Y-69510000D01*
X165301274Y-53230000D02*
X167268726Y-53230000D01*
X170465000Y-76035000D02*
X170375000Y-76125000D01*
X170375000Y-76125000D02*
X170375000Y-77075000D01*
X169367774Y-59039990D02*
G75*
G03*
X169483887Y-59156126I116126J-10D01*
G01*
X169600000Y-58439990D02*
G75*
G02*
X169483887Y-58556100I-116100J-10D01*
G01*
X169483887Y-58556103D02*
G75*
G03*
X169367803Y-58672216I13J-116097D01*
G01*
X169483887Y-59156103D02*
G75*
G02*
X169599997Y-59272216I13J-116097D01*
G01*
X171965000Y-76035000D02*
X171965000Y-75901274D01*
X171675000Y-75028725D02*
X172422868Y-74280857D01*
X171875000Y-77075000D02*
X171875000Y-76125000D01*
X172422868Y-74280857D02*
X172422868Y-74082868D01*
X171675000Y-75611274D02*
X171675000Y-75028725D01*
X171875000Y-76125000D02*
X171965000Y-76035000D01*
X171965000Y-75901274D02*
X171675000Y-75611274D01*
X172375000Y-77075000D02*
X172375000Y-76125000D01*
X171995000Y-75161275D02*
X172649143Y-74507132D01*
X172285000Y-76035000D02*
X172285000Y-75768726D01*
X172649143Y-74507132D02*
X172847132Y-74507132D01*
X172285000Y-75768726D02*
X171995000Y-75478726D01*
X171995000Y-75478726D02*
X171995000Y-75161275D01*
X172375000Y-76125000D02*
X172285000Y-76035000D01*
X173465000Y-75901274D02*
X173175000Y-75611274D01*
X173175000Y-75003725D02*
X173922868Y-74255857D01*
X173922868Y-74255857D02*
X173922868Y-74057868D01*
X173375000Y-77075000D02*
X173375000Y-76125000D01*
X173175000Y-75611274D02*
X173175000Y-75003725D01*
X173465000Y-76035000D02*
X173465000Y-75901274D01*
X173375000Y-76125000D02*
X173465000Y-76035000D01*
X173875000Y-76125000D02*
X173785000Y-76035000D01*
X173495000Y-75136275D02*
X174149143Y-74482132D01*
X174149143Y-74482132D02*
X174347132Y-74482132D01*
X173785000Y-76035000D02*
X173785000Y-75768726D01*
X173495000Y-75478726D02*
X173495000Y-75136275D01*
X173785000Y-75768726D02*
X173495000Y-75478726D01*
X173875000Y-77075000D02*
X173875000Y-76125000D01*
X175375000Y-77075000D02*
X175375000Y-76125000D01*
X175285000Y-76035000D02*
X175285000Y-75768726D01*
X175285000Y-75768726D02*
X174995000Y-75478726D01*
X174995000Y-75478726D02*
X174995000Y-75111275D01*
X175699143Y-74407132D02*
X175897132Y-74407132D01*
X175375000Y-76125000D02*
X175285000Y-76035000D01*
X174995000Y-75111275D02*
X175699143Y-74407132D01*
X174875000Y-76125000D02*
X174965000Y-76035000D01*
X174675000Y-75611274D02*
X174675000Y-74978725D01*
X175472868Y-74180857D02*
X175472868Y-73982868D01*
X174675000Y-74978725D02*
X175472868Y-74180857D01*
X174875000Y-77075000D02*
X174875000Y-76125000D01*
X174965000Y-75901274D02*
X174675000Y-75611274D01*
X174965000Y-76035000D02*
X174965000Y-75901274D01*
X157829349Y-50130000D02*
X161776274Y-50130000D01*
X162901274Y-49005000D02*
X165268726Y-49005000D01*
X171070000Y-58849758D02*
X171029251Y-58849758D01*
X172625000Y-66836274D02*
X172625000Y-69886274D01*
X170789251Y-59089758D02*
X170789251Y-59209758D01*
X169600000Y-53336274D02*
X169600000Y-56537546D01*
X171310000Y-61009758D02*
X171310000Y-61827276D01*
X171070000Y-60049758D02*
X171029252Y-60049758D01*
X161776274Y-50130000D02*
X162901274Y-49005000D01*
X169600000Y-56537546D02*
X171310000Y-58247546D01*
X171310000Y-61827276D02*
X171310000Y-65521274D01*
X171310000Y-60889758D02*
X171310000Y-61009758D01*
X171029252Y-60649758D02*
X171070000Y-60649758D01*
X171310000Y-65521274D02*
X172625000Y-66836274D01*
X165268726Y-49005000D02*
X169600000Y-53336274D01*
X176290000Y-75726274D02*
X176465000Y-75901274D01*
X171310000Y-59689758D02*
X171310000Y-59809758D01*
X171310000Y-58247546D02*
X171310000Y-58609758D01*
X176465000Y-76035000D02*
X176375000Y-76125000D01*
X171029251Y-59449758D02*
X171070000Y-59449758D01*
X176465000Y-75901274D02*
X176465000Y-76035000D01*
X157735000Y-50571800D02*
X157735000Y-50224349D01*
X170789252Y-60289758D02*
X170789252Y-60409758D01*
X172625000Y-69886274D02*
X176290000Y-73551274D01*
X176290000Y-73551274D02*
X176290000Y-75726274D01*
X157735000Y-50224349D02*
X157829349Y-50130000D01*
X176375000Y-76125000D02*
X176375000Y-77075000D01*
X171070000Y-60649758D02*
G75*
G02*
X171310042Y-60889758I0J-240042D01*
G01*
X171310000Y-58609758D02*
G75*
G02*
X171070000Y-58849800I-240000J-42D01*
G01*
X171070000Y-59449758D02*
G75*
G02*
X171310042Y-59689758I0J-240042D01*
G01*
X170789252Y-60409758D02*
G75*
G03*
X171029252Y-60649848I240048J-42D01*
G01*
X171029251Y-58849758D02*
G75*
G03*
X170789158Y-59089758I-51J-240042D01*
G01*
X171029252Y-60049758D02*
G75*
G03*
X170789258Y-60289758I48J-240042D01*
G01*
X171310000Y-59809758D02*
G75*
G02*
X171070000Y-60049800I-240000J-42D01*
G01*
X170789251Y-59209758D02*
G75*
G03*
X171029251Y-59449749I239949J-42D01*
G01*
X161643726Y-49810000D02*
X157696800Y-49810000D01*
X176785000Y-75768726D02*
X176610000Y-75593726D01*
X169920000Y-53203726D02*
X165401274Y-48685000D01*
X171630000Y-58115000D02*
X169920000Y-56405000D01*
X157696800Y-49810000D02*
X156935000Y-50571800D01*
X171630000Y-65388726D02*
X171630000Y-58115000D01*
X162768726Y-48685000D02*
X161643726Y-49810000D01*
X176610000Y-75593726D02*
X176610000Y-73418726D01*
X176875000Y-76125000D02*
X176785000Y-76035000D01*
X176875000Y-77075000D02*
X176875000Y-76125000D01*
X169920000Y-56405000D02*
X169920000Y-53203726D01*
X165401274Y-48685000D02*
X162768726Y-48685000D01*
X172945000Y-69753726D02*
X172945000Y-66703726D01*
X172945000Y-66703726D02*
X171630000Y-65388726D01*
X176785000Y-76035000D02*
X176785000Y-75768726D01*
X176610000Y-73418726D02*
X172945000Y-69753726D01*
X158901000Y-47523403D02*
X158901000Y-47480000D01*
X171495000Y-54552454D02*
X173045000Y-56102454D01*
X178110000Y-72893726D02*
X178110000Y-75593726D01*
X178110000Y-75593726D02*
X178285000Y-75768726D01*
X155975000Y-49978726D02*
X157499662Y-48454064D01*
X178285000Y-75768726D02*
X178285000Y-76035000D01*
X174595000Y-69378726D02*
X178110000Y-72893726D01*
X173045000Y-56102454D02*
X173045000Y-64478726D01*
X163893726Y-47210000D02*
X166476274Y-47210000D01*
X156135000Y-52171800D02*
X156374999Y-51931801D01*
X157583396Y-48537799D02*
X157886603Y-48537800D01*
X171495000Y-52228726D02*
X171495000Y-54552454D01*
X158101000Y-47852726D02*
X158215926Y-47737800D01*
X158101000Y-48323403D02*
X158101000Y-47852726D01*
X174595000Y-66028726D02*
X174595000Y-69378726D01*
X158901000Y-47480000D02*
X163613726Y-47480000D01*
X158686603Y-47737800D02*
X158901000Y-47523403D01*
X163618726Y-47485000D02*
X163893726Y-47210000D01*
X166476274Y-47210000D02*
X171495000Y-52228726D01*
X157499662Y-48454064D02*
X157583396Y-48537799D01*
X173045000Y-64478726D02*
X174595000Y-66028726D01*
X178285000Y-76035000D02*
X178375000Y-76125000D01*
X178375000Y-76125000D02*
X178375000Y-77075000D01*
X163613726Y-47480000D02*
X163618726Y-47485000D01*
X156374999Y-51931801D02*
X156374999Y-51536273D01*
X156374999Y-51536273D02*
X155975000Y-51136274D01*
X157886603Y-48537800D02*
X158101000Y-48323403D01*
X158215926Y-47737800D02*
X158686603Y-47737800D01*
X155975000Y-51136274D02*
X155975000Y-49978726D01*
X177790000Y-75726274D02*
X177965000Y-75901274D01*
X164026274Y-47530000D02*
X164083689Y-47530000D01*
X171175000Y-52361274D02*
X171175000Y-54685000D01*
X158366624Y-48857779D02*
X158901000Y-48323403D01*
X161630682Y-48391948D02*
X161750682Y-48391948D01*
X158901000Y-47975923D02*
X159076923Y-47800000D01*
X161990682Y-48151948D02*
X161990682Y-48045000D01*
X163550682Y-47805000D02*
X163751274Y-47805000D01*
X157548495Y-48857779D02*
X158366624Y-48857779D01*
X162755348Y-48209666D02*
X162950682Y-48209666D01*
X177965000Y-75901274D02*
X177965000Y-76035000D01*
X156695001Y-51403727D02*
X156295000Y-51003726D01*
X156295000Y-51003726D02*
X156295000Y-50111274D01*
X158901000Y-48323403D02*
X158901000Y-47975923D01*
X159076923Y-47800000D02*
X161145682Y-47800000D01*
X171175000Y-54685000D02*
X172725000Y-56235000D01*
X161145682Y-47800000D02*
X161150682Y-47805000D01*
X161390682Y-48045000D02*
X161390682Y-48151948D01*
X174275000Y-66161274D02*
X174275000Y-69511274D01*
X163751274Y-47805000D02*
X164026274Y-47530000D01*
X177875000Y-76125000D02*
X177875000Y-77075000D01*
X172725000Y-56235000D02*
X172725000Y-64611274D01*
X164083689Y-47530000D02*
X166343726Y-47530000D01*
X162230682Y-47805000D02*
X162350682Y-47805000D01*
X156695001Y-51931801D02*
X156695001Y-51403727D01*
X156295000Y-50111274D02*
X157548495Y-48857779D01*
X163355348Y-47805000D02*
X163550682Y-47805000D01*
X172725000Y-64611274D02*
X174275000Y-66161274D01*
X166343726Y-47530000D02*
X171175000Y-52361274D01*
X156935000Y-52171800D02*
X156695001Y-51931801D01*
X177965000Y-76035000D02*
X177875000Y-76125000D01*
X174275000Y-69511274D02*
X177790000Y-73026274D01*
X177790000Y-73026274D02*
X177790000Y-75726274D01*
X161150682Y-47805000D02*
G75*
G02*
X161390700Y-48045000I18J-240000D01*
G01*
X162950682Y-48209666D02*
G75*
G03*
X163153066Y-48007333I18J202366D01*
G01*
X162553015Y-48007333D02*
G75*
G03*
X162755348Y-48209585I202285J33D01*
G01*
X161750682Y-48391948D02*
G75*
G03*
X161990748Y-48151948I18J240048D01*
G01*
X162350682Y-47805000D02*
G75*
G02*
X162553000Y-48007333I18J-202300D01*
G01*
X161390682Y-48151948D02*
G75*
G03*
X161630682Y-48391918I240018J48D01*
G01*
X163153015Y-48007333D02*
G75*
G02*
X163355348Y-47805015I202285J33D01*
G01*
X161990682Y-48045000D02*
G75*
G02*
X162230682Y-47804982I240018J0D01*
G01*
D27*
X122995000Y-59010000D02*
X116960000Y-65045000D01*
X117285000Y-73290000D02*
X116765000Y-73810000D01*
X126885000Y-59010000D02*
X122995000Y-59010000D01*
X116960000Y-71070000D02*
X117285000Y-71395000D01*
X136335000Y-56970000D02*
X134635000Y-58670000D01*
X140933200Y-56970000D02*
X136335000Y-56970000D01*
X134635000Y-58670000D02*
X127225000Y-58670000D01*
X116765000Y-74665000D02*
X116185000Y-75245000D01*
X117285000Y-71395000D02*
X117285000Y-73290000D01*
X116375000Y-75920000D02*
X116375000Y-77075000D01*
X116765000Y-73810000D02*
X116765000Y-74665000D01*
X127225000Y-58670000D02*
X126885000Y-59010000D01*
X116960000Y-65045000D02*
X116960000Y-71070000D01*
X116185000Y-75245000D02*
X116185000Y-75730000D01*
X140935000Y-56971800D02*
X140933200Y-56970000D01*
X116185000Y-75730000D02*
X116375000Y-75920000D01*
X127010000Y-59870000D02*
X127630000Y-59250000D01*
X117235000Y-74010000D02*
X117725000Y-73520000D01*
X138983200Y-57420000D02*
X139335000Y-57771800D01*
X134705000Y-59250000D02*
X136535000Y-57420000D01*
X117235000Y-75570000D02*
X117235000Y-74010000D01*
X127630000Y-59250000D02*
X134705000Y-59250000D01*
X117375000Y-75710000D02*
X117235000Y-75570000D01*
X136535000Y-57420000D02*
X138983200Y-57420000D01*
X122935000Y-59870000D02*
X127010000Y-59870000D01*
X117375000Y-77075000D02*
X117375000Y-75710000D01*
X117725000Y-65080000D02*
X122935000Y-59870000D01*
X117725000Y-73520000D02*
X117725000Y-65080000D01*
X123710000Y-75795000D02*
X123875000Y-75960000D01*
X123810000Y-73820000D02*
X123710000Y-73920000D01*
X124135000Y-73820000D02*
X123810000Y-73820000D01*
X123875000Y-75960000D02*
X123875000Y-77075000D01*
X123710000Y-73920000D02*
X123710000Y-75795000D01*
X125635000Y-73245000D02*
X125285000Y-73245000D01*
X124875000Y-75557182D02*
X124875000Y-77075000D01*
X125285000Y-73245000D02*
X124698909Y-73831091D01*
X124698909Y-73831091D02*
X124698909Y-75381091D01*
X124698909Y-75381091D02*
X124875000Y-75557182D01*
X125360000Y-73820000D02*
X125185000Y-73995000D01*
X125635000Y-73820000D02*
X125360000Y-73820000D01*
X125375000Y-75910000D02*
X125375000Y-77075000D01*
X125185000Y-73995000D02*
X125185000Y-75720000D01*
X125185000Y-75720000D02*
X125375000Y-75910000D01*
X126375000Y-77075000D02*
X126375000Y-75785000D01*
X126375000Y-75785000D02*
X126285000Y-75695000D01*
X126285000Y-74095000D02*
X127135000Y-73245000D01*
X126285000Y-75695000D02*
X126285000Y-74095000D01*
X126685000Y-74270000D02*
X127135000Y-73820000D01*
X126685000Y-75720000D02*
X126685000Y-74270000D01*
X126875000Y-77075000D02*
X126875000Y-75910000D01*
X126685000Y-75720000D02*
X126875000Y-75910000D01*
X127875000Y-77075000D02*
X127875000Y-75885000D01*
X127875000Y-75885000D02*
X127760000Y-75770000D01*
X127760000Y-75770000D02*
X127760000Y-74120000D01*
X127760000Y-74120000D02*
X128635000Y-73245000D01*
X128135000Y-75720000D02*
X128375000Y-75960000D01*
X128375000Y-77075000D02*
X128375000Y-75960000D01*
X128135000Y-75720000D02*
X128135000Y-74320000D01*
X128135000Y-74320000D02*
X128635000Y-73820000D01*
X129375000Y-75055000D02*
X129810000Y-74620000D01*
X129375000Y-77075000D02*
X129375000Y-75055000D01*
X129875000Y-77075000D02*
X129875000Y-75520000D01*
X129875000Y-75520000D02*
X130385000Y-75010000D01*
X130875000Y-77075000D02*
X130875000Y-75005000D01*
X130875000Y-75005000D02*
X131260000Y-74620000D01*
X139760000Y-58170000D02*
X140135000Y-57795000D01*
X123175000Y-60380000D02*
X127275000Y-60380000D01*
X138583200Y-57870000D02*
X138883200Y-58170000D01*
X127275000Y-60380000D02*
X127805000Y-59850000D01*
X140135000Y-57795000D02*
X140135000Y-57771800D01*
X117875000Y-75885000D02*
X117685000Y-75695000D01*
X117685000Y-74270000D02*
X118185000Y-73770000D01*
X136760000Y-57870000D02*
X138583200Y-57870000D01*
X118185000Y-73770000D02*
X118185000Y-65370000D01*
X118185000Y-65370000D02*
X123175000Y-60380000D01*
X127805000Y-59850000D02*
X134780000Y-59850000D01*
X117875000Y-77075000D02*
X117875000Y-75885000D01*
X138883200Y-58170000D02*
X139760000Y-58170000D01*
X117685000Y-75695000D02*
X117685000Y-74270000D01*
X134780000Y-59850000D02*
X136760000Y-57870000D01*
X131375000Y-75520000D02*
X131885000Y-75010000D01*
X131375000Y-77075000D02*
X131375000Y-75520000D01*
X132375000Y-77075000D02*
X132375000Y-75055000D01*
X132375000Y-75055000D02*
X132810000Y-74620000D01*
X138135000Y-65510000D02*
X136935000Y-64310000D01*
X135170000Y-70645000D02*
X138147500Y-70645000D01*
X138147500Y-70645000D02*
X138935000Y-69857500D01*
X138135000Y-65945000D02*
X138135000Y-65510000D01*
X138935000Y-66745000D02*
X138135000Y-65945000D01*
X136935000Y-64310000D02*
X136935000Y-64171800D01*
X138935000Y-69857500D02*
X138935000Y-66745000D01*
X134060000Y-74070000D02*
X134060000Y-71755000D01*
X132875000Y-77075000D02*
X132875000Y-75255000D01*
X134060000Y-71755000D02*
X135170000Y-70645000D01*
X132875000Y-75255000D02*
X134060000Y-74070000D01*
X140435000Y-69320000D02*
X140435000Y-66946800D01*
X135470000Y-71095000D02*
X138660000Y-71095000D01*
X137735000Y-64246800D02*
X137735000Y-64171800D01*
X138660000Y-71095000D02*
X140435000Y-69320000D01*
X134560000Y-74320000D02*
X134560000Y-72005000D01*
X134560000Y-72005000D02*
X135470000Y-71095000D01*
X133875000Y-75005000D02*
X134560000Y-74320000D01*
X133875000Y-77075000D02*
X133875000Y-75005000D01*
X140435000Y-66946800D02*
X137735000Y-64246800D01*
X139883200Y-65520000D02*
X138535000Y-64171800D01*
X135835000Y-71520000D02*
X140095000Y-71520000D01*
X141345000Y-70270000D02*
X141345000Y-66105000D01*
X135060000Y-72295000D02*
X135835000Y-71520000D01*
X141345000Y-66105000D02*
X140760000Y-65520000D01*
X134375000Y-75205000D02*
X135060000Y-74520000D01*
X134375000Y-77075000D02*
X134375000Y-75205000D01*
X135060000Y-74520000D02*
X135060000Y-72295000D01*
X140095000Y-71520000D02*
X141345000Y-70270000D01*
X140760000Y-65520000D02*
X139883200Y-65520000D01*
X135375000Y-75005000D02*
X135760000Y-74620000D01*
X135375000Y-77075000D02*
X135375000Y-75005000D01*
X140235000Y-65070000D02*
X139336800Y-64171800D01*
X136155000Y-71970000D02*
X140455000Y-71970000D01*
X135760000Y-74620000D02*
X135760000Y-72365000D01*
X139336800Y-64171800D02*
X139335000Y-64171800D01*
X142129986Y-70295014D02*
X142129986Y-66253590D01*
X142129986Y-66253590D02*
X140946396Y-65070000D01*
X140946396Y-65070000D02*
X140235000Y-65070000D01*
X135760000Y-72365000D02*
X136155000Y-71970000D01*
X140455000Y-71970000D02*
X142129986Y-70295014D01*
X136335000Y-73205000D02*
X137120000Y-72420000D01*
X140775000Y-72420000D02*
X142935000Y-70260000D01*
X135875000Y-77075000D02*
X135875000Y-75155000D01*
X140583200Y-64620000D02*
X140135000Y-64171800D01*
X141135000Y-64620000D02*
X140583200Y-64620000D01*
X141685000Y-65170000D02*
X141135000Y-64620000D01*
X142935000Y-65270000D02*
X142835000Y-65170000D01*
X135875000Y-75155000D02*
X136335000Y-74695000D01*
X142835000Y-65170000D02*
X141685000Y-65170000D01*
X142935000Y-70260000D02*
X142935000Y-65270000D01*
X136335000Y-74695000D02*
X136335000Y-73205000D01*
X137120000Y-72420000D02*
X140775000Y-72420000D01*
X137385000Y-72870000D02*
X141065000Y-72870000D01*
X136875000Y-73380000D02*
X137385000Y-72870000D01*
X143735000Y-65420000D02*
X143010000Y-64695000D01*
X136875000Y-77075000D02*
X136875000Y-73380000D01*
X143735000Y-70200000D02*
X143735000Y-65420000D01*
X141410000Y-64170000D02*
X140933200Y-64170000D01*
X141935000Y-64695000D02*
X141410000Y-64170000D01*
X140933200Y-64170000D02*
X140135000Y-63371800D01*
X143010000Y-64695000D02*
X141935000Y-64695000D01*
X141065000Y-72870000D02*
X143735000Y-70200000D01*
X141653500Y-73695000D02*
X144535000Y-70813500D01*
X144535000Y-64545000D02*
X144235000Y-64245000D01*
X137985000Y-73695000D02*
X141653500Y-73695000D01*
X142135000Y-64245000D02*
X141585000Y-63695000D01*
X144535000Y-70813500D02*
X144535000Y-64545000D01*
X141258200Y-63695000D02*
X140935000Y-63371800D01*
X137375000Y-77075000D02*
X137375000Y-74305000D01*
X137375000Y-74305000D02*
X137985000Y-73695000D01*
X144235000Y-64245000D02*
X142135000Y-64245000D01*
X141585000Y-63695000D02*
X141258200Y-63695000D01*
X138770000Y-74145000D02*
X141960000Y-74145000D01*
X141860000Y-63295000D02*
X141658200Y-63295000D01*
X141960000Y-74145000D02*
X145385000Y-70720000D01*
X146310000Y-67770000D02*
X146735000Y-67770000D01*
X141658200Y-63295000D02*
X140935000Y-62571800D01*
X146735000Y-67770000D02*
X146925000Y-67580000D01*
X138375000Y-77075000D02*
X138375000Y-74540000D01*
X146925000Y-67580000D02*
X146925000Y-64460000D01*
X142325000Y-63760000D02*
X141860000Y-63295000D01*
X146225000Y-63760000D02*
X142325000Y-63760000D01*
X145385000Y-70720000D02*
X145385000Y-68695000D01*
X138375000Y-74540000D02*
X138770000Y-74145000D01*
X145385000Y-68695000D02*
X146310000Y-67770000D01*
X146925000Y-64460000D02*
X146225000Y-63760000D01*
X132185000Y-60720000D02*
X132435000Y-60470000D01*
X118860000Y-65515000D02*
X123455000Y-60920000D01*
X127560000Y-60920000D02*
X127760000Y-60720000D01*
X133210000Y-60470000D02*
X133385000Y-60645000D01*
X134635000Y-60645000D02*
X136185000Y-59095000D01*
X138533200Y-58570000D02*
X138535000Y-58571800D01*
X132435000Y-60470000D02*
X133210000Y-60470000D01*
X123455000Y-60920000D02*
X127560000Y-60920000D01*
X118875000Y-77075000D02*
X118875000Y-75760000D01*
X118860000Y-73570000D02*
X118860000Y-65515000D01*
X136185000Y-59095000D02*
X136985000Y-59095000D01*
X118660000Y-73770000D02*
X118860000Y-73570000D01*
X127760000Y-60720000D02*
X132185000Y-60720000D01*
X118660000Y-75545000D02*
X118660000Y-73770000D01*
X137510000Y-58570000D02*
X138533200Y-58570000D01*
X133385000Y-60645000D02*
X134635000Y-60645000D01*
X118875000Y-75760000D02*
X118660000Y-75545000D01*
X136985000Y-59095000D02*
X137510000Y-58570000D01*
X146910000Y-68570000D02*
X147745000Y-67735000D01*
X145910000Y-70945000D02*
X145910000Y-68895000D01*
X147745000Y-64330000D02*
X146710000Y-63295000D01*
X140961800Y-61771800D02*
X140935000Y-61771800D01*
X139135000Y-74595000D02*
X142260000Y-74595000D01*
X147745000Y-67735000D02*
X147745000Y-64330000D01*
X146235000Y-68570000D02*
X146910000Y-68570000D01*
X146710000Y-63295000D02*
X142485000Y-63295000D01*
X138875000Y-77075000D02*
X138875000Y-74855000D01*
X142260000Y-74595000D02*
X145910000Y-70945000D01*
X142485000Y-63295000D02*
X140961800Y-61771800D01*
X145910000Y-68895000D02*
X146235000Y-68570000D01*
X138875000Y-74855000D02*
X139135000Y-74595000D01*
X139875000Y-75130000D02*
X139985000Y-75020000D01*
X139875000Y-77075000D02*
X139875000Y-75130000D01*
X140610000Y-75020000D02*
X140610000Y-75095000D01*
X140375000Y-75330000D02*
X140375000Y-77075000D01*
X140610000Y-75095000D02*
X140375000Y-75330000D01*
X141375000Y-77075000D02*
X141375000Y-75110000D01*
X141375000Y-75110000D02*
X141285000Y-75020000D01*
X141875000Y-75520000D02*
X141885000Y-75510000D01*
X141885000Y-75510000D02*
X141885000Y-75020000D01*
X141875000Y-77075000D02*
X141875000Y-75520000D01*
X142875000Y-77075000D02*
X142875000Y-75005000D01*
X142875000Y-75005000D02*
X143285000Y-74595000D01*
X143860000Y-75035000D02*
X143860000Y-75020000D01*
X143375000Y-77075000D02*
X143375000Y-75520000D01*
X143375000Y-75520000D02*
X143860000Y-75035000D01*
X144810000Y-74620000D02*
X144810000Y-74595000D01*
X144375000Y-77075000D02*
X144375000Y-75055000D01*
X144375000Y-75055000D02*
X144810000Y-74620000D01*
X144875000Y-77075000D02*
X144875000Y-75495000D01*
X144875000Y-75495000D02*
X145360000Y-75010000D01*
X145875000Y-75030000D02*
X146310000Y-74595000D01*
X145875000Y-77075000D02*
X145875000Y-75030000D01*
X135345000Y-60560000D02*
X136418552Y-60560000D01*
X123560000Y-61645000D02*
X134260000Y-61645000D01*
X136418552Y-60560000D02*
X136535000Y-60443552D01*
X136535000Y-59970000D02*
X136960000Y-59545000D01*
X134260000Y-61645000D02*
X135345000Y-60560000D01*
X119345000Y-73770000D02*
X119345000Y-65860000D01*
X119345000Y-65860000D02*
X123560000Y-61645000D01*
X119110000Y-75620000D02*
X119110000Y-74005000D01*
X119110000Y-74005000D02*
X119345000Y-73770000D01*
X136535000Y-60443552D02*
X136535000Y-59970000D01*
X136960000Y-59545000D02*
X137260000Y-59545000D01*
X137433200Y-59371800D02*
X137735000Y-59371800D01*
X119375000Y-75885000D02*
X119110000Y-75620000D01*
X137260000Y-59545000D02*
X137433200Y-59371800D01*
X119375000Y-77075000D02*
X119375000Y-75885000D01*
X146375000Y-77075000D02*
X146375000Y-75495000D01*
X146375000Y-75495000D02*
X146860000Y-75010000D01*
X147375000Y-75030000D02*
X147810000Y-74595000D01*
X147375000Y-77075000D02*
X147375000Y-75030000D01*
X147875000Y-77075000D02*
X147875000Y-75520000D01*
X147875000Y-75520000D02*
X148385000Y-75010000D01*
X148875000Y-75005000D02*
X149310000Y-74570000D01*
X148875000Y-77075000D02*
X148875000Y-75005000D01*
X149375000Y-77075000D02*
X149375000Y-75495000D01*
X149375000Y-75495000D02*
X149860000Y-75010000D01*
X150375000Y-75430000D02*
X150785000Y-75020000D01*
X150785000Y-75020000D02*
X150885000Y-75020000D01*
X150375000Y-77075000D02*
X150375000Y-75430000D01*
X153235000Y-75020000D02*
X153875000Y-75660000D01*
X153135000Y-75020000D02*
X153235000Y-75020000D01*
X153875000Y-75660000D02*
X153875000Y-77075000D01*
X154176624Y-75711624D02*
X154176624Y-75361624D01*
X154176624Y-75361624D02*
X153260000Y-74445000D01*
X154375000Y-75910000D02*
X154176624Y-75711624D01*
X153260000Y-74445000D02*
X153135000Y-74445000D01*
X154375000Y-77075000D02*
X154375000Y-75910000D01*
X154620000Y-75035000D02*
X154610000Y-75035000D01*
X155375000Y-77075000D02*
X155375000Y-75790000D01*
X155375000Y-75790000D02*
X154620000Y-75035000D01*
X155875000Y-75910000D02*
X155875000Y-77075000D01*
X155650000Y-75685000D02*
X155875000Y-75910000D01*
X155635000Y-75470000D02*
X155650000Y-75470000D01*
X154610000Y-74445000D02*
X155635000Y-75470000D01*
X155650000Y-75470000D02*
X155650000Y-75685000D01*
X137735000Y-60184973D02*
X137735000Y-60171800D01*
X120375000Y-77075000D02*
X120375000Y-75785000D01*
X134410000Y-62095000D02*
X135510000Y-60995000D01*
X135510000Y-60995000D02*
X136924973Y-60995000D01*
X136924973Y-60995000D02*
X137735000Y-60184973D01*
X120375000Y-75785000D02*
X120260000Y-75670000D01*
X120260000Y-73720000D02*
X120410000Y-73570000D01*
X123980000Y-62095000D02*
X134410000Y-62095000D01*
X120260000Y-75670000D02*
X120260000Y-73720000D01*
X120410000Y-65665000D02*
X123980000Y-62095000D01*
X120410000Y-73570000D02*
X120410000Y-65665000D01*
X136135000Y-62571800D02*
X136111800Y-62595000D01*
X136135000Y-64171800D02*
X136133200Y-64170000D01*
X137265000Y-61390000D02*
X138125000Y-60530000D01*
X135790000Y-61390000D02*
X137265000Y-61390000D01*
X120710000Y-75745000D02*
X120710000Y-74015000D01*
X120910000Y-73815000D02*
X120910000Y-65985000D01*
X120710000Y-74015000D02*
X120910000Y-73815000D01*
X138935000Y-59770000D02*
X139310000Y-59395000D01*
X138125000Y-60530000D02*
X138125000Y-59930000D01*
X120875000Y-75910000D02*
X120710000Y-75745000D01*
X139310000Y-59395000D02*
X139310000Y-59371800D01*
X124300000Y-62595000D02*
X134585000Y-62595000D01*
X138285000Y-59770000D02*
X138935000Y-59770000D01*
X134585000Y-62595000D02*
X135790000Y-61390000D01*
X138125000Y-59930000D02*
X138285000Y-59770000D01*
X120875000Y-77075000D02*
X120875000Y-75910000D01*
X120910000Y-65985000D02*
X124300000Y-62595000D01*
X138135000Y-61920000D02*
X138135000Y-61320000D01*
X135745000Y-62160000D02*
X137895000Y-62160000D01*
X137895000Y-62160000D02*
X138135000Y-61920000D01*
X121910000Y-65795000D02*
X124610000Y-63095000D01*
X121875000Y-77075000D02*
X121875000Y-75710000D01*
X139745000Y-60510000D02*
X139745000Y-59235000D01*
X138810000Y-60645000D02*
X139610000Y-60645000D01*
X121875000Y-75710000D02*
X121710000Y-75545000D01*
X139610000Y-60645000D02*
X139745000Y-60510000D01*
X121910000Y-73495000D02*
X121910000Y-65795000D01*
X124610000Y-63095000D02*
X134810000Y-63095000D01*
X140135000Y-58845000D02*
X140135000Y-58571800D01*
X139745000Y-59235000D02*
X140135000Y-58845000D01*
X138135000Y-61320000D02*
X138810000Y-60645000D01*
X121710000Y-75545000D02*
X121710000Y-73695000D01*
X121710000Y-73695000D02*
X121910000Y-73495000D01*
X134810000Y-63095000D02*
X135745000Y-62160000D01*
X122176624Y-75711624D02*
X122176624Y-73968376D01*
X122176624Y-73968376D02*
X122444251Y-73700749D01*
X135110000Y-63545000D02*
X135695000Y-62960000D01*
X122375000Y-77075000D02*
X122375000Y-75910000D01*
X135695000Y-62960000D02*
X137320000Y-62960000D01*
X137320000Y-62960000D02*
X137708200Y-62571800D01*
X124910000Y-63545000D02*
X135110000Y-63545000D01*
X122444251Y-73700749D02*
X122444251Y-66010749D01*
X122375000Y-75910000D02*
X122176624Y-75711624D01*
X122444251Y-66010749D02*
X124910000Y-63545000D01*
X137708200Y-62571800D02*
X137735000Y-62571800D01*
X140535000Y-60584973D02*
X140535000Y-59371800D01*
X135385000Y-64020000D02*
X135635000Y-63770000D01*
X138710000Y-63770000D02*
X138935000Y-63545000D01*
X123375000Y-77075000D02*
X123375000Y-75385000D01*
X140535000Y-59371800D02*
X140935000Y-58971800D01*
X125308200Y-64020000D02*
X135385000Y-64020000D01*
X139310000Y-61145000D02*
X139974973Y-61145000D01*
X123360000Y-73745000D02*
X123360000Y-65968200D01*
X123185000Y-75195000D02*
X123185000Y-73920000D01*
X139974973Y-61145000D02*
X140535000Y-60584973D01*
X123360000Y-65968200D02*
X125308200Y-64020000D01*
X140935000Y-58971800D02*
X140935000Y-58571800D01*
X138935000Y-61520000D02*
X139310000Y-61145000D01*
X138935000Y-63545000D02*
X138935000Y-61520000D01*
X135635000Y-63770000D02*
X138710000Y-63770000D01*
X123185000Y-73920000D02*
X123360000Y-73745000D01*
X123375000Y-75385000D02*
X123185000Y-75195000D01*
X126358800Y-57693800D02*
X126685000Y-58020000D01*
X126085000Y-56170000D02*
X126358800Y-56443800D01*
X134460000Y-58020000D02*
X135260000Y-57220000D01*
X135260000Y-55645000D02*
X137331600Y-53573400D01*
X135260000Y-57220000D02*
X135260000Y-55645000D01*
X137331600Y-53573400D02*
X137331600Y-51775200D01*
X137331600Y-51775200D02*
X137735000Y-51371800D01*
X126358800Y-56443800D02*
X126358800Y-57693800D01*
X126085000Y-55871800D02*
X126085000Y-56170000D01*
X126685000Y-58020000D02*
X134460000Y-58020000D01*
X124185000Y-48095000D02*
X124185000Y-48795000D01*
X124435000Y-49045000D02*
X125910000Y-49045000D01*
X124520000Y-47760000D02*
X124185000Y-48095000D01*
X125910000Y-49045000D02*
X126063383Y-49198383D01*
X137323200Y-47760000D02*
X124520000Y-47760000D01*
X124185000Y-48795000D02*
X124435000Y-49045000D01*
X137735000Y-48171800D02*
X137323200Y-47760000D01*
X126885000Y-51895000D02*
X125985000Y-52795000D01*
X123172500Y-52957500D02*
X123172500Y-53082500D01*
X131935000Y-53070000D02*
X134433200Y-50571800D01*
X127560000Y-53070000D02*
X131935000Y-53070000D01*
X127285000Y-53345000D02*
X127560000Y-53070000D01*
X126885000Y-51871800D02*
X126885000Y-51895000D01*
X123335000Y-52795000D02*
X123172500Y-52957500D01*
X134433200Y-50571800D02*
X136135000Y-50571800D01*
X123172500Y-53082500D02*
X123435000Y-53345000D01*
X125985000Y-52795000D02*
X123335000Y-52795000D01*
X123435000Y-53345000D02*
X127285000Y-53345000D01*
X126197500Y-50384300D02*
X126197500Y-49832500D01*
X137333200Y-48570000D02*
X137735000Y-48971800D01*
X126922500Y-49107500D02*
X128022500Y-49107500D01*
X131765000Y-48405098D02*
X131765000Y-48670000D01*
X134308007Y-48570000D02*
X137333200Y-48570000D01*
X132365000Y-48670000D02*
X132365000Y-48408467D01*
X131865000Y-48770000D02*
X132265000Y-48770000D01*
X132965000Y-48408467D02*
X132965000Y-48670000D01*
X130565000Y-48407481D02*
X130565000Y-48816272D01*
X133708007Y-48283986D02*
X134021993Y-48283986D01*
X130110038Y-48244962D02*
X130402481Y-48244962D01*
X126885000Y-51071800D02*
X126197500Y-50384300D01*
X128560000Y-48570000D02*
X129785000Y-48570000D01*
X133565000Y-48670000D02*
X133565000Y-48426993D01*
X133065000Y-48770000D02*
X133465000Y-48770000D01*
X131165000Y-48816272D02*
X131165000Y-48405098D01*
X130805000Y-49056272D02*
X130925000Y-49056272D01*
X128022500Y-49107500D02*
X128560000Y-48570000D01*
X132526532Y-48246935D02*
X132803468Y-48246935D01*
X126197500Y-49832500D02*
X126922500Y-49107500D01*
X131329902Y-48240196D02*
X131600098Y-48240196D01*
X131765000Y-48670000D02*
G75*
G03*
X131865000Y-48770000I100000J0D01*
G01*
X129785000Y-48570000D02*
G75*
G03*
X129947500Y-48407481I0J162500D01*
G01*
X134021993Y-48283986D02*
G75*
G02*
X134165014Y-48426993I7J-143014D01*
G01*
X132803468Y-48246935D02*
G75*
G02*
X132965065Y-48408467I32J-161565D01*
G01*
X132265000Y-48770000D02*
G75*
G03*
X132365000Y-48670000I0J100000D01*
G01*
X132965000Y-48670000D02*
G75*
G03*
X133065000Y-48770000I100000J0D01*
G01*
X134165000Y-48426993D02*
G75*
G03*
X134308007Y-48570000I143000J-7D01*
G01*
X132365000Y-48408467D02*
G75*
G02*
X132526532Y-48247000I161500J-33D01*
G01*
X130402481Y-48244962D02*
G75*
G02*
X130565038Y-48407481I19J-162538D01*
G01*
X130565000Y-48816272D02*
G75*
G03*
X130805000Y-49056300I240000J-28D01*
G01*
X130925000Y-49056272D02*
G75*
G03*
X131164972Y-48816272I0J239972D01*
G01*
X133465000Y-48770000D02*
G75*
G03*
X133565000Y-48670000I0J100000D01*
G01*
X129947519Y-48407481D02*
G75*
G02*
X130110038Y-48245019I162481J-19D01*
G01*
X133565000Y-48426993D02*
G75*
G02*
X133708007Y-48284000I143000J-7D01*
G01*
X131165000Y-48405098D02*
G75*
G02*
X131329902Y-48240200I164900J-2D01*
G01*
X131600098Y-48240196D02*
G75*
G02*
X131765004Y-48405098I2J-164904D01*
G01*
X135785000Y-50970000D02*
X136536800Y-50970000D01*
X125624973Y-52345000D02*
X122560000Y-52345000D01*
X126085000Y-51871800D02*
X126085000Y-51884973D01*
X122560000Y-52345000D02*
X122285000Y-52620000D01*
X132260000Y-53795000D02*
X134685000Y-51370000D01*
X136536800Y-50970000D02*
X136935000Y-50571800D01*
X126085000Y-51884973D02*
X125624973Y-52345000D01*
X122935000Y-53795000D02*
X132260000Y-53795000D01*
X122285000Y-52620000D02*
X122285000Y-53145000D01*
X135385000Y-51370000D02*
X135785000Y-50970000D01*
X134685000Y-51370000D02*
X135385000Y-51370000D01*
X122285000Y-53145000D02*
X122935000Y-53795000D01*
X135110000Y-51870000D02*
X135635000Y-51870000D01*
X125470000Y-54270000D02*
X126523627Y-54270000D01*
X126523627Y-54270000D02*
X126698627Y-54445000D01*
X126085000Y-55084973D02*
X125699974Y-55470000D01*
X132535000Y-54445000D02*
X135110000Y-51870000D01*
X136135000Y-51696800D02*
X136135000Y-51371800D01*
X126698627Y-54445000D02*
X132535000Y-54445000D01*
X124870000Y-54480000D02*
X125260000Y-54480000D01*
X136061800Y-51770000D02*
X136135000Y-51696800D01*
X135735000Y-51770000D02*
X136061800Y-51770000D01*
X126085000Y-55071800D02*
X126085000Y-55084973D01*
X125699974Y-55470000D02*
X124185000Y-55470000D01*
X124185000Y-55470000D02*
X124098200Y-55383200D01*
X124098200Y-55383200D02*
X124098200Y-54331800D01*
X135635000Y-51870000D02*
X135735000Y-51770000D01*
X124160000Y-54270000D02*
X124660000Y-54270000D01*
X124098200Y-54331800D02*
X124160000Y-54270000D01*
X125365000Y-54375000D02*
G75*
G02*
X125470000Y-54270000I105000J0D01*
G01*
X124765000Y-54375000D02*
G75*
G03*
X124870000Y-54480000I105000J0D01*
G01*
X125260000Y-54480000D02*
G75*
G03*
X125365000Y-54375000I0J105000D01*
G01*
X124660000Y-54270000D02*
G75*
G02*
X124765000Y-54375000I0J-105000D01*
G01*
X126385000Y-37070000D02*
X126910000Y-36545000D01*
X126385000Y-37330000D02*
X126385000Y-37070000D01*
X133610000Y-40895000D02*
X133835000Y-41120000D01*
X135485000Y-44370000D02*
X136535000Y-45420000D01*
X134685000Y-41120000D02*
X135485000Y-41920000D01*
X126375000Y-37370000D02*
X126375000Y-37340000D01*
X126910000Y-36545000D02*
X127860000Y-36545000D01*
X129610000Y-37020000D02*
X129785000Y-36845000D01*
X133610000Y-39870000D02*
X133610000Y-40895000D01*
X127860000Y-36545000D02*
X128335000Y-37020000D01*
X128335000Y-37020000D02*
X129610000Y-37020000D01*
X129785000Y-36845000D02*
X130585000Y-36845000D01*
X136535000Y-45420000D02*
X136535000Y-46171800D01*
X133835000Y-41120000D02*
X134685000Y-41120000D01*
X130585000Y-36845000D02*
X133610000Y-39870000D01*
X126315000Y-37390000D02*
X126355000Y-37390000D01*
X126375000Y-37340000D02*
X126385000Y-37330000D01*
X136535000Y-46171800D02*
X136935000Y-46571800D01*
X126355000Y-37390000D02*
X126375000Y-37370000D01*
X135485000Y-41920000D02*
X135485000Y-44370000D01*
X129985000Y-37470000D02*
X130385000Y-37470000D01*
X133085000Y-40170000D02*
X133085000Y-41295000D01*
X134810000Y-42070000D02*
X134960000Y-42220000D01*
X127123248Y-37010000D02*
X127646752Y-37010000D01*
X134960000Y-42220000D02*
X134960000Y-44595000D01*
X126865000Y-37390000D02*
X126885000Y-37370000D01*
X128106752Y-37470000D02*
X129985000Y-37470000D01*
X130385000Y-37470000D02*
X133085000Y-40170000D01*
X127646752Y-37010000D02*
X128106752Y-37470000D01*
X136135000Y-45770000D02*
X136135000Y-45771800D01*
X133085000Y-41295000D02*
X133860000Y-42070000D01*
X133860000Y-42070000D02*
X134810000Y-42070000D01*
X126885000Y-37248248D02*
X127123248Y-37010000D01*
X134960000Y-44595000D02*
X136135000Y-45770000D01*
X126885000Y-37370000D02*
X126885000Y-37248248D01*
X132785000Y-42845000D02*
X132785000Y-44820000D01*
X129985000Y-38945000D02*
X130385000Y-38945000D01*
X135735000Y-46970000D02*
X137333200Y-46970000D01*
X134660000Y-45895000D02*
X135735000Y-46970000D01*
X132785000Y-44820000D02*
X133860000Y-45895000D01*
X133860000Y-45895000D02*
X134660000Y-45895000D01*
X129969400Y-38929400D02*
X129985000Y-38945000D01*
X131985000Y-42045000D02*
X132785000Y-42845000D01*
X137333200Y-46970000D02*
X137735000Y-47371800D01*
X131985000Y-40545000D02*
X131985000Y-42045000D01*
X130385000Y-38945000D02*
X131985000Y-40545000D01*
X126460000Y-38929400D02*
X129969400Y-38929400D01*
X127427000Y-40428000D02*
X127425600Y-40428000D01*
X127685000Y-40170000D02*
X127427000Y-40428000D01*
X130410000Y-40170000D02*
X127685000Y-40170000D01*
X126866800Y-40313200D02*
X127384730Y-39795270D01*
X127960000Y-39545000D02*
X129985000Y-39545000D01*
X127709730Y-39795270D02*
X127960000Y-39545000D01*
X126865000Y-40920000D02*
X126866800Y-40918200D01*
X126866800Y-40918200D02*
X126866800Y-40313200D01*
X127384730Y-39795270D02*
X127709730Y-39795270D01*
X132560000Y-40395000D02*
X130460000Y-38295000D01*
X129603400Y-37913400D02*
X129985000Y-38295000D01*
X134485000Y-44920000D02*
X133810000Y-44920000D01*
X130460000Y-38295000D02*
X129985000Y-38295000D01*
X133360000Y-42645000D02*
X132560000Y-41845000D01*
X136135000Y-46570000D02*
X134485000Y-44920000D01*
X133810000Y-44920000D02*
X133360000Y-44470000D01*
X136135000Y-46571800D02*
X136135000Y-46570000D01*
X133360000Y-44470000D02*
X133360000Y-42645000D01*
X127393600Y-37920000D02*
X127400200Y-37913400D01*
X132560000Y-41845000D02*
X132560000Y-40395000D01*
X127400200Y-37913400D02*
X129603400Y-37913400D01*
X137110000Y-68570000D02*
X136735000Y-68570000D01*
X137735000Y-69770000D02*
X137335000Y-69370000D01*
X136535000Y-66420000D02*
X136285000Y-66170000D01*
X136735000Y-68570000D02*
X136535000Y-68370000D01*
X136285000Y-66170000D02*
X135835000Y-66170000D01*
X137735000Y-69771800D02*
X137735000Y-69770000D01*
X129705000Y-66175000D02*
X130510000Y-65370000D01*
X137335000Y-68795000D02*
X137110000Y-68570000D01*
X132950000Y-65795000D02*
X132525000Y-65370000D01*
X135835000Y-66170000D02*
X135460000Y-65795000D01*
X136535000Y-68370000D02*
X136535000Y-66420000D01*
X125760000Y-66175000D02*
X129705000Y-66175000D01*
X135460000Y-65795000D02*
X132950000Y-65795000D01*
X130510000Y-65370000D02*
X132525000Y-65370000D01*
X137335000Y-69370000D02*
X137335000Y-68795000D01*
X132975000Y-64870000D02*
X132525000Y-64420000D01*
X137360000Y-67746800D02*
X137345000Y-67731800D01*
X132525000Y-64420000D02*
X130585000Y-64420000D01*
X136635000Y-64870000D02*
X132975000Y-64870000D01*
X130100000Y-64905000D02*
X125760000Y-64905000D01*
X137345000Y-67731800D02*
X137345000Y-65580000D01*
X130585000Y-64420000D02*
X130100000Y-64905000D01*
X137345000Y-65580000D02*
X136635000Y-64870000D01*
X132525000Y-68225000D02*
X131940000Y-68225000D01*
X134510000Y-68170000D02*
X133985000Y-68695000D01*
X133985000Y-68695000D02*
X132995000Y-68695000D01*
X132995000Y-68695000D02*
X132525000Y-68225000D01*
X131940000Y-68225000D02*
X131160000Y-67445000D01*
X136161800Y-69771800D02*
X135005000Y-68615000D01*
X135005000Y-68615000D02*
X135005000Y-67890000D01*
X135005000Y-67890000D02*
X134835000Y-67720000D01*
X132970000Y-67720000D02*
X132525000Y-67275000D01*
X132260000Y-67275000D02*
X131160000Y-66175000D01*
X132525000Y-67275000D02*
X132260000Y-67275000D01*
X134835000Y-67720000D02*
X132970000Y-67720000D01*
X136935000Y-69771800D02*
X136161800Y-69771800D01*
X136135000Y-68971800D02*
X135585000Y-68421800D01*
X131535000Y-65795000D02*
X130940000Y-65795000D01*
X132950000Y-66745000D02*
X132525000Y-66320000D01*
X135085000Y-66745000D02*
X132950000Y-66745000D01*
X130940000Y-65795000D02*
X129290000Y-67445000D01*
X132525000Y-66320000D02*
X132060000Y-66320000D01*
X129290000Y-67445000D02*
X125760000Y-67445000D01*
X135585000Y-67245000D02*
X135085000Y-66745000D01*
X132060000Y-66320000D02*
X131535000Y-65795000D01*
X135585000Y-68421800D02*
X135585000Y-67245000D01*
X132785000Y-69435000D02*
X132945000Y-69595000D01*
X132945000Y-69595000D02*
X135385000Y-69595000D01*
X135960000Y-70170000D02*
X137910000Y-70170000D01*
X138135000Y-69945000D02*
X138135000Y-67771800D01*
X138135000Y-67771800D02*
X137735000Y-67371800D01*
X132785000Y-69175000D02*
X132785000Y-69435000D01*
X137910000Y-70170000D02*
X138135000Y-69945000D01*
X131620000Y-69175000D02*
X131160000Y-68715000D01*
X135385000Y-69595000D02*
X135960000Y-70170000D01*
X132785000Y-69175000D02*
X131620000Y-69175000D01*
X180615000Y-55690000D02*
X181055000Y-55250000D01*
X180615000Y-66815000D02*
X180615000Y-55690000D01*
X177545000Y-36270000D02*
X171035000Y-36270000D01*
X171035000Y-36270000D02*
X170245000Y-37060000D01*
X170245000Y-38280000D02*
X171375000Y-39410000D01*
X179605000Y-67825000D02*
X180615000Y-66815000D01*
X181055000Y-39780000D02*
X177545000Y-36270000D01*
X177910000Y-67835000D02*
X177920000Y-67825000D01*
X177920000Y-67825000D02*
X179605000Y-67825000D01*
X170245000Y-37060000D02*
X170245000Y-38280000D01*
X181055000Y-55250000D02*
X181055000Y-39780000D01*
X177560147Y-37970000D02*
X179305000Y-39714853D01*
X171375000Y-37520000D02*
X171825000Y-37970000D01*
X179305000Y-44670000D02*
X178210000Y-45765000D01*
X178210000Y-45765000D02*
X178005000Y-45765000D01*
X179305000Y-39714853D02*
X179305000Y-44670000D01*
X171825000Y-37970000D02*
X177560147Y-37970000D01*
X177195000Y-36790000D02*
X180415000Y-40010000D01*
X180415000Y-40010000D02*
X180415000Y-55230000D01*
X180275000Y-55370000D02*
X180275000Y-59100000D01*
X170685000Y-37750000D02*
X170685000Y-37360000D01*
X171375000Y-38470000D02*
X171375000Y-38440000D01*
X171255000Y-36790000D02*
X177195000Y-36790000D01*
X171375000Y-38440000D02*
X170685000Y-37750000D01*
X178910000Y-60465000D02*
X177935000Y-60465000D01*
X180275000Y-59100000D02*
X178910000Y-60465000D01*
X180415000Y-55230000D02*
X180275000Y-55370000D01*
X170685000Y-37360000D02*
X171255000Y-36790000D01*
D30*
X115375000Y-75835000D02*
X115125000Y-75585000D01*
X116875000Y-77075000D02*
X116875000Y-75835000D01*
X166875000Y-77075000D02*
X166875000Y-75835000D01*
X143875000Y-77075000D02*
X143875000Y-75585000D01*
D26*
X124311274Y-56045526D02*
X124485000Y-55871800D01*
D30*
X118375000Y-75835000D02*
X118125000Y-75585000D01*
D26*
X142615000Y-62571800D02*
X142456800Y-62571800D01*
D30*
X163875000Y-75835000D02*
X163625000Y-75585000D01*
X124375000Y-77075000D02*
X124375000Y-75835000D01*
X159375000Y-75835000D02*
X159125000Y-75585000D01*
D26*
X123058726Y-55698074D02*
X122885000Y-55871800D01*
D30*
X125875000Y-77075000D02*
X125875000Y-75835000D01*
X172875000Y-77075000D02*
X172875000Y-75835000D01*
X168375000Y-75835000D02*
X168125000Y-75585000D01*
X162375000Y-75835000D02*
X162125000Y-75585000D01*
X177375000Y-77075000D02*
X177375000Y-75835000D01*
X140875000Y-77075000D02*
X140875000Y-75585000D01*
X121375000Y-77075000D02*
X121375000Y-75835000D01*
X154875000Y-77075000D02*
X154875000Y-75835000D01*
X127375000Y-77075000D02*
X127375000Y-75835000D01*
X133375000Y-77075000D02*
X133375000Y-75585000D01*
X162375000Y-77075000D02*
X162375000Y-75835000D01*
X149875000Y-77075000D02*
X149875000Y-75585000D01*
X128875000Y-77075000D02*
X128875000Y-75835000D01*
X163875000Y-77075000D02*
X163875000Y-75835000D01*
X171375000Y-75835000D02*
X171125000Y-75585000D01*
X165375000Y-75835000D02*
X165125000Y-75585000D01*
X153375000Y-77075000D02*
X153375000Y-75835000D01*
X175875000Y-77075000D02*
X175875000Y-75835000D01*
X119875000Y-75835000D02*
X119625000Y-75585000D01*
X148375000Y-77075000D02*
X148375000Y-75585000D01*
X160875000Y-75835000D02*
X160625000Y-75585000D01*
X122875000Y-75835000D02*
X122625000Y-75585000D01*
D26*
X145561274Y-54398074D02*
X145735000Y-54571800D01*
D30*
X153375000Y-75835000D02*
X153125000Y-75585000D01*
X157875000Y-75835000D02*
X157625000Y-75585000D01*
X145375000Y-77075000D02*
X145375000Y-75585000D01*
X154875000Y-75835000D02*
X154625000Y-75585000D01*
X168375000Y-77075000D02*
X168375000Y-75835000D01*
X157875000Y-77075000D02*
X157875000Y-75835000D01*
X139375000Y-77075000D02*
X139375000Y-75585000D01*
X116875000Y-75835000D02*
X116625000Y-75585000D01*
X174375000Y-77075000D02*
X174375000Y-75835000D01*
X169875000Y-75835000D02*
X169625000Y-75585000D01*
X174375000Y-75835000D02*
X174125000Y-75585000D01*
X177375000Y-75835000D02*
X177125000Y-75585000D01*
X156375000Y-75835000D02*
X156125000Y-75585000D01*
X121375000Y-75835000D02*
X121125000Y-75585000D01*
X169875000Y-77075000D02*
X169875000Y-75835000D01*
X179375000Y-77075000D02*
X179375000Y-75835000D01*
X134875000Y-77075000D02*
X134875000Y-75585000D01*
X179375000Y-75835000D02*
X179125000Y-75585000D01*
X178581246Y-75555504D02*
X178595504Y-75555504D01*
X171375000Y-77075000D02*
X171375000Y-75835000D01*
X160875000Y-77075000D02*
X160875000Y-75835000D01*
X178875000Y-75835000D02*
X178875000Y-77075000D01*
X131875000Y-77075000D02*
X131875000Y-75585000D01*
X115375000Y-77075000D02*
X115375000Y-75835000D01*
X136375000Y-77075000D02*
X136375000Y-75585000D01*
X146875000Y-77075000D02*
X146875000Y-75585000D01*
X128875000Y-75835000D02*
X128625000Y-75585000D01*
D26*
X154455000Y-62571800D02*
X154973200Y-62571800D01*
D30*
X125875000Y-75835000D02*
X125625000Y-75585000D01*
D26*
X154973200Y-62571800D02*
X154975000Y-62570000D01*
D30*
X172875000Y-75835000D02*
X172625000Y-75585000D01*
D26*
X124311274Y-51245526D02*
X124485000Y-51071800D01*
D30*
X127375000Y-75835000D02*
X127125000Y-75585000D01*
X130375000Y-77075000D02*
X130375000Y-75585000D01*
X165375000Y-77075000D02*
X165375000Y-75835000D01*
D26*
X151508726Y-60345526D02*
X151335000Y-60171800D01*
D30*
X156375000Y-77075000D02*
X156375000Y-75835000D01*
X122875000Y-77075000D02*
X122875000Y-75835000D01*
X137875000Y-77075000D02*
X137875000Y-75585000D01*
X142375000Y-77075000D02*
X142375000Y-75585000D01*
X166875000Y-75835000D02*
X166625000Y-75585000D01*
X119875000Y-77075000D02*
X119875000Y-75835000D01*
X118375000Y-77075000D02*
X118375000Y-75835000D01*
X150875000Y-77075000D02*
X150875000Y-75585000D01*
D26*
X156490000Y-36419300D02*
X157190000Y-36419300D01*
D30*
X159375000Y-77075000D02*
X159375000Y-75835000D01*
X124375000Y-75835000D02*
X124125000Y-75585000D01*
D26*
X142456800Y-62571800D02*
X141865000Y-61980000D01*
D30*
X175875000Y-75835000D02*
X175625000Y-75585000D01*
X178595504Y-75555504D02*
X178875000Y-75835000D01*
D31*
X175955000Y-47290000D02*
X175955000Y-45765000D01*
X179910000Y-47165000D02*
X178830000Y-47165000D01*
X176280000Y-47615000D02*
X175955000Y-47290000D01*
X178830000Y-47165000D02*
X178380000Y-47615000D01*
X178380000Y-47615000D02*
X176280000Y-47615000D01*
X178310000Y-62315000D02*
X176210000Y-62315000D01*
X176210000Y-62315000D02*
X175885000Y-61990000D01*
X179840000Y-61865000D02*
X178760000Y-61865000D01*
X178760000Y-61865000D02*
X178310000Y-62315000D01*
X175885000Y-61990000D02*
X175885000Y-60465000D01*
X175930000Y-54640000D02*
X175930000Y-53115000D01*
X176255000Y-54965000D02*
X175930000Y-54640000D01*
X179885000Y-54515000D02*
X178805000Y-54515000D01*
X178355000Y-54965000D02*
X176255000Y-54965000D01*
X178805000Y-54515000D02*
X178355000Y-54965000D01*
G04 #@! TA.AperFunction,Conductor*
G36*
X182051632Y-74973368D02*
G01*
X182055000Y-74981500D01*
X182055000Y-75948500D01*
X182051632Y-75956632D01*
X182043500Y-75960000D01*
X179706500Y-75960000D01*
X179698368Y-75956632D01*
X179695000Y-75948500D01*
X179695000Y-74981500D01*
X179698368Y-74973368D01*
X179706500Y-74970000D01*
X182043500Y-74970000D01*
X182051632Y-74973368D01*
G37*
G04 #@! TD.AperFunction*
M02*
