G04 #@! TF.GenerationSoftware,KiCad,Pcbnew,9.0.0*
G04 #@! TF.CreationDate,2025-10-22T11:33:07+02:00*
G04 #@! TF.ProjectId,ecap5-bsom-frame,65636170-352d-4627-936f-6d2d6672616d,rev?*
G04 #@! TF.SameCoordinates,Original*
G04 #@! TF.FileFunction,Copper,L1,Top*
G04 #@! TF.FilePolarity,Positive*
%FSLAX46Y46*%
G04 Gerber Fmt 4.6, Leading zero omitted, Abs format (unit mm)*
G04 Created by KiCad (PCBNEW 9.0.0) date 2025-10-22 11:33:07*
%MOMM*%
%LPD*%
G01*
G04 APERTURE LIST*
G04 Aperture macros list*
%AMRoundRect*
0 Rectangle with rounded corners*
0 $1 Rounding radius*
0 $2 $3 $4 $5 $6 $7 $8 $9 X,Y pos of 4 corners*
0 Add a 4 corners polygon primitive as box body*
4,1,4,$2,$3,$4,$5,$6,$7,$8,$9,$2,$3,0*
0 Add four circle primitives for the rounded corners*
1,1,$1+$1,$2,$3*
1,1,$1+$1,$4,$5*
1,1,$1+$1,$6,$7*
1,1,$1+$1,$8,$9*
0 Add four rect primitives between the rounded corners*
20,1,$1+$1,$2,$3,$4,$5,0*
20,1,$1+$1,$4,$5,$6,$7,0*
20,1,$1+$1,$6,$7,$8,$9,0*
20,1,$1+$1,$8,$9,$2,$3,0*%
G04 Aperture macros list end*
G04 #@! TA.AperFunction,SMDPad,CuDef*
%ADD10R,0.350000X2.250000*%
G04 #@! TD*
G04 #@! TA.AperFunction,SMDPad,CuDef*
%ADD11RoundRect,0.150000X-0.400000X-0.150000X0.400000X-0.150000X0.400000X0.150000X-0.400000X0.150000X0*%
G04 #@! TD*
G04 #@! TA.AperFunction,SMDPad,CuDef*
%ADD12RoundRect,0.135000X0.185000X-0.135000X0.185000X0.135000X-0.185000X0.135000X-0.185000X-0.135000X0*%
G04 #@! TD*
G04 #@! TA.AperFunction,SMDPad,CuDef*
%ADD13RoundRect,0.140000X-0.140000X-0.170000X0.140000X-0.170000X0.140000X0.170000X-0.140000X0.170000X0*%
G04 #@! TD*
G04 #@! TA.AperFunction,SMDPad,CuDef*
%ADD14C,1.500000*%
G04 #@! TD*
G04 #@! TA.AperFunction,SMDPad,CuDef*
%ADD15RoundRect,0.140000X0.140000X0.170000X-0.140000X0.170000X-0.140000X-0.170000X0.140000X-0.170000X0*%
G04 #@! TD*
G04 #@! TA.AperFunction,SMDPad,CuDef*
%ADD16RoundRect,0.140000X-0.170000X0.140000X-0.170000X-0.140000X0.170000X-0.140000X0.170000X0.140000X0*%
G04 #@! TD*
G04 #@! TA.AperFunction,SMDPad,CuDef*
%ADD17RoundRect,0.250000X0.312500X0.625000X-0.312500X0.625000X-0.312500X-0.625000X0.312500X-0.625000X0*%
G04 #@! TD*
G04 #@! TA.AperFunction,SMDPad,CuDef*
%ADD18RoundRect,0.250000X-0.250000X-0.475000X0.250000X-0.475000X0.250000X0.475000X-0.250000X0.475000X0*%
G04 #@! TD*
G04 #@! TA.AperFunction,ComponentPad*
%ADD19C,2.600000*%
G04 #@! TD*
G04 #@! TA.AperFunction,ConnectorPad*
%ADD20C,3.800000*%
G04 #@! TD*
G04 #@! TA.AperFunction,SMDPad,CuDef*
%ADD21RoundRect,0.125000X0.537500X0.125000X-0.537500X0.125000X-0.537500X-0.125000X0.537500X-0.125000X0*%
G04 #@! TD*
G04 #@! TA.AperFunction,SMDPad,CuDef*
%ADD22RoundRect,0.250000X0.475000X-0.250000X0.475000X0.250000X-0.475000X0.250000X-0.475000X-0.250000X0*%
G04 #@! TD*
G04 #@! TA.AperFunction,SMDPad,CuDef*
%ADD23RoundRect,0.218750X0.218750X0.256250X-0.218750X0.256250X-0.218750X-0.256250X0.218750X-0.256250X0*%
G04 #@! TD*
G04 #@! TA.AperFunction,SMDPad,CuDef*
%ADD24C,1.000000*%
G04 #@! TD*
G04 #@! TA.AperFunction,SMDPad,CuDef*
%ADD25RoundRect,0.135000X0.135000X0.185000X-0.135000X0.185000X-0.135000X-0.185000X0.135000X-0.185000X0*%
G04 #@! TD*
G04 #@! TA.AperFunction,SMDPad,CuDef*
%ADD26RoundRect,0.250000X-0.475000X0.250000X-0.475000X-0.250000X0.475000X-0.250000X0.475000X0.250000X0*%
G04 #@! TD*
G04 #@! TA.AperFunction,SMDPad,CuDef*
%ADD27RoundRect,0.140000X0.170000X-0.140000X0.170000X0.140000X-0.170000X0.140000X-0.170000X-0.140000X0*%
G04 #@! TD*
G04 #@! TA.AperFunction,SMDPad,CuDef*
%ADD28R,0.980000X3.400000*%
G04 #@! TD*
G04 #@! TA.AperFunction,SMDPad,CuDef*
%ADD29RoundRect,0.135000X-0.135000X-0.185000X0.135000X-0.185000X0.135000X0.185000X-0.135000X0.185000X0*%
G04 #@! TD*
G04 #@! TA.AperFunction,SMDPad,CuDef*
%ADD30RoundRect,0.225000X0.225000X0.250000X-0.225000X0.250000X-0.225000X-0.250000X0.225000X-0.250000X0*%
G04 #@! TD*
G04 #@! TA.AperFunction,SMDPad,CuDef*
%ADD31RoundRect,0.225000X-0.250000X0.225000X-0.250000X-0.225000X0.250000X-0.225000X0.250000X0.225000X0*%
G04 #@! TD*
G04 #@! TA.AperFunction,SMDPad,CuDef*
%ADD32RoundRect,0.045000X-0.290000X-0.105000X0.290000X-0.105000X0.290000X0.105000X-0.290000X0.105000X0*%
G04 #@! TD*
G04 #@! TA.AperFunction,SMDPad,CuDef*
%ADD33R,1.300000X1.000000*%
G04 #@! TD*
G04 #@! TA.AperFunction,SMDPad,CuDef*
%ADD34R,0.700000X1.000000*%
G04 #@! TD*
G04 #@! TA.AperFunction,SMDPad,CuDef*
%ADD35C,0.450000*%
G04 #@! TD*
G04 #@! TA.AperFunction,BGAPad,CuDef*
%ADD36C,0.400000*%
G04 #@! TD*
G04 #@! TA.AperFunction,SMDPad,CuDef*
%ADD37RoundRect,0.135000X-0.185000X0.135000X-0.185000X-0.135000X0.185000X-0.135000X0.185000X0.135000X0*%
G04 #@! TD*
G04 #@! TA.AperFunction,SMDPad,CuDef*
%ADD38RoundRect,0.050000X-0.600000X-0.250000X0.600000X-0.250000X0.600000X0.250000X-0.600000X0.250000X0*%
G04 #@! TD*
G04 #@! TA.AperFunction,SMDPad,CuDef*
%ADD39C,0.350000*%
G04 #@! TD*
G04 #@! TA.AperFunction,SMDPad,CuDef*
%ADD40RoundRect,0.125000X0.250000X0.125000X-0.250000X0.125000X-0.250000X-0.125000X0.250000X-0.125000X0*%
G04 #@! TD*
G04 #@! TA.AperFunction,HeatsinkPad*
%ADD41R,3.400000X4.300000*%
G04 #@! TD*
G04 #@! TA.AperFunction,SMDPad,CuDef*
%ADD42RoundRect,0.225000X-0.225000X-0.250000X0.225000X-0.250000X0.225000X0.250000X-0.225000X0.250000X0*%
G04 #@! TD*
G04 #@! TA.AperFunction,SMDPad,CuDef*
%ADD43C,0.300000*%
G04 #@! TD*
G04 #@! TA.AperFunction,SMDPad,CuDef*
%ADD44RoundRect,0.218750X-0.218750X-0.256250X0.218750X-0.256250X0.218750X0.256250X-0.218750X0.256250X0*%
G04 #@! TD*
G04 #@! TA.AperFunction,ViaPad*
%ADD45C,0.450000*%
G04 #@! TD*
G04 #@! TA.AperFunction,ViaPad*
%ADD46C,0.410000*%
G04 #@! TD*
G04 #@! TA.AperFunction,Conductor*
%ADD47C,0.110000*%
G04 #@! TD*
G04 #@! TA.AperFunction,Conductor*
%ADD48C,0.200000*%
G04 #@! TD*
G04 #@! TA.AperFunction,Conductor*
%ADD49C,0.300000*%
G04 #@! TD*
G04 #@! TA.AperFunction,Conductor*
%ADD50C,0.350000*%
G04 #@! TD*
G04 #@! TA.AperFunction,Conductor*
%ADD51C,0.400000*%
G04 #@! TD*
G04 #@! TA.AperFunction,Conductor*
%ADD52C,0.150000*%
G04 #@! TD*
G04 #@! TA.AperFunction,Conductor*
%ADD53C,0.500000*%
G04 #@! TD*
G04 #@! TA.AperFunction,Conductor*
%ADD54C,0.140000*%
G04 #@! TD*
G04 #@! TA.AperFunction,Conductor*
%ADD55C,0.120000*%
G04 #@! TD*
G04 APERTURE END LIST*
D10*
X115125000Y-77075000D03*
X115625000Y-77075000D03*
X116125000Y-77075000D03*
X116625000Y-77075000D03*
X117125000Y-77075000D03*
X117625000Y-77075000D03*
X118125000Y-77075000D03*
X118625000Y-77075000D03*
X119125000Y-77075000D03*
X119625000Y-77075000D03*
X120125000Y-77075000D03*
X120625000Y-77075000D03*
X121125000Y-77075000D03*
X121625000Y-77075000D03*
X122125000Y-77075000D03*
X122625000Y-77075000D03*
X123125000Y-77075000D03*
X123625000Y-77075000D03*
X124125000Y-77075000D03*
X124625000Y-77075000D03*
X125125000Y-77075000D03*
X125625000Y-77075000D03*
X126125000Y-77075000D03*
X126625000Y-77075000D03*
X127125000Y-77075000D03*
X127625000Y-77075000D03*
X128125000Y-77075000D03*
X128625000Y-77075000D03*
X129125000Y-77075000D03*
X129625000Y-77075000D03*
X130125000Y-77075000D03*
X130625000Y-77075000D03*
X131125000Y-77075000D03*
X131625000Y-77075000D03*
X132125000Y-77075000D03*
X132625000Y-77075000D03*
X133125000Y-77075000D03*
X133625000Y-77075000D03*
X134125000Y-77075000D03*
X134625000Y-77075000D03*
X135125000Y-77075000D03*
X135625000Y-77075000D03*
X136125000Y-77075000D03*
X136625000Y-77075000D03*
X137125000Y-77075000D03*
X137625000Y-77075000D03*
X138125000Y-77075000D03*
X138625000Y-77075000D03*
X139125000Y-77075000D03*
X139625000Y-77075000D03*
X140125000Y-77075000D03*
X140625000Y-77075000D03*
X141125000Y-77075000D03*
X141625000Y-77075000D03*
X142125000Y-77075000D03*
X142625000Y-77075000D03*
X143125000Y-77075000D03*
X143625000Y-77075000D03*
X144125000Y-77075000D03*
X144625000Y-77075000D03*
X145125000Y-77075000D03*
X145625000Y-77075000D03*
X146125000Y-77075000D03*
X146625000Y-77075000D03*
X147125000Y-77075000D03*
X147625000Y-77075000D03*
X148125000Y-77075000D03*
X148625000Y-77075000D03*
X149125000Y-77075000D03*
X149625000Y-77075000D03*
X150125000Y-77075000D03*
X150625000Y-77075000D03*
X153125000Y-77075000D03*
X153625000Y-77075000D03*
X154125000Y-77075000D03*
X154625000Y-77075000D03*
X155125000Y-77075000D03*
X155625000Y-77075000D03*
X156125000Y-77075000D03*
X156625000Y-77075000D03*
X157125000Y-77075000D03*
X157625000Y-77075000D03*
X158125000Y-77075000D03*
X158625000Y-77075000D03*
X159125000Y-77075000D03*
X159625000Y-77075000D03*
X160125000Y-77075000D03*
X160625000Y-77075000D03*
X161125000Y-77075000D03*
X161625000Y-77075000D03*
X162125000Y-77075000D03*
X162625000Y-77075000D03*
X163125000Y-77075000D03*
X163625000Y-77075000D03*
X164125000Y-77075000D03*
X164625000Y-77075000D03*
X165125000Y-77075000D03*
X165625000Y-77075000D03*
X166125000Y-77075000D03*
X166625000Y-77075000D03*
X167125000Y-77075000D03*
X167625000Y-77075000D03*
X168125000Y-77075000D03*
X168625000Y-77075000D03*
X169125000Y-77075000D03*
X169625000Y-77075000D03*
X170125000Y-77075000D03*
X170625000Y-77075000D03*
X171125000Y-77075000D03*
X171625000Y-77075000D03*
X172125000Y-77075000D03*
X172625000Y-77075000D03*
X173125000Y-77075000D03*
X173625000Y-77075000D03*
X174125000Y-77075000D03*
X174625000Y-77075000D03*
X175125000Y-77075000D03*
X175625000Y-77075000D03*
X176125000Y-77075000D03*
X176625000Y-77075000D03*
X177125000Y-77075000D03*
X177625000Y-77075000D03*
X178125000Y-77075000D03*
X178625000Y-77075000D03*
X179125000Y-77075000D03*
X179625000Y-77075000D03*
X180125000Y-77075000D03*
X180625000Y-77075000D03*
X181125000Y-77075000D03*
X181625000Y-77075000D03*
D11*
X167410000Y-37520000D03*
X167410000Y-38470000D03*
X167410000Y-39420000D03*
X170010000Y-39420000D03*
X170010000Y-38470000D03*
X170010000Y-37520000D03*
D12*
X118655000Y-43350000D03*
X118655000Y-42330000D03*
D13*
X171350000Y-55895000D03*
X172310000Y-55895000D03*
D14*
X169731667Y-34160000D03*
D15*
X119895000Y-55570000D03*
X118935000Y-55570000D03*
D16*
X125310000Y-58445000D03*
X125310000Y-59405000D03*
D17*
X170347500Y-52345000D03*
X167422500Y-52345000D03*
D18*
X176655000Y-63725000D03*
X178555000Y-63725000D03*
D19*
X180300000Y-35489800D03*
D20*
X180300000Y-35489800D03*
D21*
X170072500Y-43170000D03*
X170072500Y-42520000D03*
X170072500Y-41870000D03*
X170072500Y-41220000D03*
X167797500Y-41220000D03*
X167797500Y-41870000D03*
X167797500Y-42520000D03*
X167797500Y-43170000D03*
D13*
X178950000Y-54525000D03*
X179910000Y-54525000D03*
D19*
X116700000Y-35489800D03*
D20*
X116700000Y-35489800D03*
D22*
X165660000Y-43370000D03*
X165660000Y-41470000D03*
D13*
X178880000Y-61865000D03*
X179840000Y-61865000D03*
D23*
X117115000Y-39054400D03*
X115540000Y-39054400D03*
D24*
X111700000Y-23850000D03*
D14*
X175825000Y-34170000D03*
X166685000Y-34160000D03*
D15*
X133590000Y-54451000D03*
X132630000Y-54451000D03*
D25*
X133595000Y-39720000D03*
X132575000Y-39720000D03*
X133610000Y-44470000D03*
X132590000Y-44470000D03*
D26*
X165580000Y-59570000D03*
X165580000Y-61470000D03*
D27*
X144160000Y-33930000D03*
X144160000Y-32970000D03*
D18*
X176785000Y-43645000D03*
X178685000Y-43645000D03*
D28*
X174770000Y-51445000D03*
X172400000Y-51445000D03*
D16*
X144160000Y-39395000D03*
X144160000Y-40355000D03*
D29*
X178970000Y-45270000D03*
X179990000Y-45270000D03*
D22*
X165542500Y-65425000D03*
X165542500Y-63525000D03*
D12*
X137585000Y-73305000D03*
X137585000Y-72285000D03*
D13*
X165105000Y-36995000D03*
X166065000Y-36995000D03*
D21*
X169992500Y-57845000D03*
X169992500Y-57195000D03*
X169992500Y-56545000D03*
X169992500Y-55895000D03*
X167717500Y-55895000D03*
X167717500Y-56545000D03*
X167717500Y-57195000D03*
X167717500Y-57845000D03*
D30*
X142040000Y-42095000D03*
X140490000Y-42095000D03*
D15*
X119885000Y-50620000D03*
X118925000Y-50620000D03*
D12*
X118655000Y-39630000D03*
X118655000Y-38610000D03*
D25*
X133595000Y-36870000D03*
X132575000Y-36870000D03*
D13*
X171305000Y-63220000D03*
X172265000Y-63220000D03*
D24*
X111700000Y-86150000D03*
D27*
X127685000Y-48545000D03*
X127685000Y-47585000D03*
D16*
X121835000Y-58410000D03*
X121835000Y-59370000D03*
D31*
X133160000Y-32895000D03*
X133160000Y-34445000D03*
D13*
X171430000Y-41220000D03*
X172390000Y-41220000D03*
D27*
X124435000Y-68700000D03*
X124435000Y-67740000D03*
D28*
X174735000Y-58815000D03*
X172365000Y-58815000D03*
D14*
X172778333Y-34160000D03*
D18*
X176760000Y-48970000D03*
X178660000Y-48970000D03*
D16*
X141360000Y-72310000D03*
X141360000Y-73270000D03*
D25*
X133615000Y-45420000D03*
X132595000Y-45420000D03*
D22*
X165610000Y-50720000D03*
X165610000Y-48820000D03*
D25*
X133595000Y-40670000D03*
X132575000Y-40670000D03*
D12*
X139485000Y-73305000D03*
X139485000Y-72285000D03*
D17*
X170280000Y-67025000D03*
X167355000Y-67025000D03*
D28*
X174795000Y-44095000D03*
X172425000Y-44095000D03*
D29*
X178840000Y-67350000D03*
X179860000Y-67350000D03*
D12*
X118655000Y-41490000D03*
X118655000Y-40470000D03*
D30*
X152340000Y-42145000D03*
X150790000Y-42145000D03*
D12*
X118655000Y-45210000D03*
X118655000Y-44190000D03*
D32*
X176430000Y-67335000D03*
X176430000Y-67835000D03*
X176430000Y-68335000D03*
X177910000Y-68335000D03*
X177910000Y-67835000D03*
X177910000Y-67335000D03*
D33*
X130230000Y-60915000D03*
D34*
X131530000Y-60915000D03*
D33*
X132830000Y-60915000D03*
X132830000Y-59015000D03*
D34*
X131530000Y-59015000D03*
D33*
X130230000Y-59015000D03*
D12*
X140435000Y-73315000D03*
X140435000Y-72295000D03*
D25*
X133620000Y-57245000D03*
X132600000Y-57245000D03*
D24*
X185300000Y-23850000D03*
D25*
X172395000Y-39410000D03*
X171375000Y-39410000D03*
D30*
X122035000Y-47145000D03*
X120485000Y-47145000D03*
D29*
X132600000Y-65370000D03*
X133620000Y-65370000D03*
D12*
X118660000Y-47070000D03*
X118660000Y-46050000D03*
D26*
X165542500Y-66925000D03*
X165542500Y-68825000D03*
D16*
X144160000Y-35101667D03*
X144160000Y-36061667D03*
D23*
X117140000Y-42840000D03*
X115565000Y-42840000D03*
D18*
X176710000Y-56380000D03*
X178610000Y-56380000D03*
D13*
X179000000Y-47170000D03*
X179960000Y-47170000D03*
D29*
X132600000Y-56305200D03*
X133620000Y-56305200D03*
D18*
X176710000Y-58340000D03*
X178610000Y-58340000D03*
D35*
X122085000Y-56671800D03*
X122085000Y-55871800D03*
X122085000Y-55071800D03*
X122085000Y-51871800D03*
X122085000Y-51071800D03*
X122085000Y-50271800D03*
X122885000Y-56671800D03*
X122885000Y-55871800D03*
X122885000Y-55071800D03*
X122885000Y-51871800D03*
X122885000Y-51071800D03*
X122885000Y-50271800D03*
X123685000Y-56671800D03*
X123685000Y-55871800D03*
X123685000Y-55071800D03*
X123685000Y-51871800D03*
X123685000Y-51071800D03*
X123685000Y-50271800D03*
X124485000Y-56671800D03*
X124485000Y-55871800D03*
X124485000Y-55071800D03*
X124485000Y-51871800D03*
X124485000Y-51071800D03*
X124485000Y-50271800D03*
X125285000Y-56671800D03*
X125285000Y-55871800D03*
X125285000Y-55071800D03*
X125285000Y-51871800D03*
X125285000Y-51071800D03*
X125285000Y-50271800D03*
X126085000Y-55871800D03*
X126085000Y-55071800D03*
X126085000Y-51871800D03*
X126085000Y-51071800D03*
X126085000Y-50271800D03*
X126885000Y-56671800D03*
X126885000Y-55871800D03*
X126885000Y-55071800D03*
X126885000Y-51871800D03*
X126885000Y-51071800D03*
X127685000Y-55871800D03*
X127685000Y-55071800D03*
X127685000Y-51871800D03*
X127685000Y-51071800D03*
X127685000Y-50271800D03*
X128485000Y-56671800D03*
X128485000Y-55871800D03*
X128485000Y-55071800D03*
X128485000Y-51871800D03*
X128485000Y-51071800D03*
X129285000Y-55871800D03*
X129285000Y-55071800D03*
X129285000Y-51871800D03*
X129285000Y-51071800D03*
X129285000Y-50271800D03*
X130085000Y-56671800D03*
X130085000Y-55871800D03*
X130085000Y-55071800D03*
X130085000Y-51871800D03*
X130085000Y-51071800D03*
D25*
X133620000Y-46370000D03*
X132600000Y-46370000D03*
D36*
X136935000Y-44971800D03*
X137735000Y-44971800D03*
X138535000Y-44971800D03*
X139335000Y-44971800D03*
X140935000Y-44971800D03*
X141735000Y-44971800D03*
X142535000Y-44971800D03*
X143335000Y-44971800D03*
X144135000Y-44971800D03*
X145735000Y-44971800D03*
X146535000Y-44971800D03*
X147335000Y-44971800D03*
X148135000Y-44971800D03*
X148935000Y-44971800D03*
X149735000Y-44971800D03*
X150535000Y-44971800D03*
X151335000Y-44971800D03*
X152935000Y-44971800D03*
X153735000Y-44971800D03*
X154535000Y-44971800D03*
X155335000Y-44971800D03*
X156135000Y-44971800D03*
X157735000Y-44971800D03*
X158535000Y-44971800D03*
X159335000Y-44971800D03*
X160135000Y-44971800D03*
X143335000Y-60971800D03*
X144135000Y-60971800D03*
X144935000Y-60971800D03*
X145735000Y-60971800D03*
X146535000Y-60971800D03*
X147335000Y-60971800D03*
X148135000Y-60971800D03*
X148935000Y-60971800D03*
X149735000Y-60971800D03*
X150535000Y-60971800D03*
X151335000Y-60971800D03*
X152135000Y-60971800D03*
X152935000Y-60971800D03*
X153735000Y-60971800D03*
X136135000Y-61771800D03*
X136935000Y-61771800D03*
X137735000Y-61771800D03*
X138535000Y-61771800D03*
X139335000Y-61771800D03*
X140135000Y-61771800D03*
X140935000Y-61771800D03*
X143335000Y-61771800D03*
X144135000Y-61771800D03*
X144935000Y-61771800D03*
X145735000Y-61771800D03*
X146535000Y-61771800D03*
X147335000Y-61771800D03*
X148135000Y-61771800D03*
X148935000Y-61771800D03*
X149735000Y-61771800D03*
X150535000Y-61771800D03*
X151335000Y-61771800D03*
X152135000Y-61771800D03*
X152935000Y-61771800D03*
X153735000Y-61771800D03*
X156135000Y-61771800D03*
X156935000Y-61771800D03*
X157735000Y-61771800D03*
X158535000Y-61771800D03*
X159335000Y-61771800D03*
X160135000Y-61771800D03*
X160935000Y-61771800D03*
X136135000Y-62571800D03*
X136935000Y-62571800D03*
X137735000Y-62571800D03*
X138535000Y-62571800D03*
X139335000Y-62571800D03*
X140135000Y-62571800D03*
X140935000Y-62571800D03*
X143335000Y-62571800D03*
X144135000Y-62571800D03*
X144935000Y-62571800D03*
X145735000Y-62571800D03*
X146535000Y-62571800D03*
X147335000Y-62571800D03*
X148135000Y-62571800D03*
X148935000Y-62571800D03*
X149735000Y-62571800D03*
X150535000Y-62571800D03*
X151335000Y-62571800D03*
X152135000Y-62571800D03*
X152935000Y-62571800D03*
X153735000Y-62571800D03*
X156135000Y-62571800D03*
X156935000Y-62571800D03*
X157735000Y-62571800D03*
X158535000Y-62571800D03*
X159335000Y-62571800D03*
X160135000Y-62571800D03*
X160935000Y-62571800D03*
X136135000Y-63371800D03*
X136935000Y-63371800D03*
X137735000Y-63371800D03*
X138535000Y-63371800D03*
X139335000Y-63371800D03*
X140135000Y-63371800D03*
X140935000Y-63371800D03*
X156135000Y-63371800D03*
X156935000Y-63371800D03*
X157735000Y-63371800D03*
X158535000Y-63371800D03*
X159335000Y-63371800D03*
X160135000Y-63371800D03*
X160935000Y-63371800D03*
X136135000Y-64171800D03*
X136935000Y-64171800D03*
X137735000Y-64171800D03*
X138535000Y-64171800D03*
X139335000Y-64171800D03*
X140135000Y-64171800D03*
X140935000Y-64171800D03*
X156135000Y-64171800D03*
X156935000Y-64171800D03*
X157735000Y-64171800D03*
X158535000Y-64171800D03*
X159335000Y-64171800D03*
X160135000Y-64171800D03*
X160935000Y-64171800D03*
X144135000Y-64971800D03*
X144935000Y-64971800D03*
X146535000Y-64971800D03*
X147335000Y-64971800D03*
X148135000Y-64971800D03*
X148935000Y-64971800D03*
X150535000Y-64971800D03*
X151335000Y-64971800D03*
X152935000Y-64971800D03*
X153735000Y-64971800D03*
X136135000Y-65771800D03*
X136935000Y-65771800D03*
X137735000Y-65771800D03*
X138535000Y-65771800D03*
X139335000Y-65771800D03*
X142535000Y-65771800D03*
X144135000Y-65771800D03*
X144935000Y-65771800D03*
X146535000Y-65771800D03*
X147335000Y-65771800D03*
X148135000Y-65771800D03*
X148935000Y-65771800D03*
X150535000Y-65771800D03*
X151335000Y-65771800D03*
X152935000Y-65771800D03*
X153735000Y-65771800D03*
X154535000Y-65771800D03*
X157735000Y-65771800D03*
X158535000Y-65771800D03*
X159335000Y-65771800D03*
X160135000Y-65771800D03*
X160935000Y-65771800D03*
X136135000Y-66571800D03*
X136935000Y-66571800D03*
X137735000Y-66571800D03*
X138535000Y-66571800D03*
X139335000Y-66571800D03*
X140935000Y-66571800D03*
X141735000Y-66571800D03*
X142535000Y-66571800D03*
X144135000Y-66571800D03*
X144935000Y-66571800D03*
X146535000Y-66571800D03*
X147335000Y-66571800D03*
X148135000Y-66571800D03*
X148935000Y-66571800D03*
X150535000Y-66571800D03*
X151335000Y-66571800D03*
X152935000Y-66571800D03*
X153735000Y-66571800D03*
X154535000Y-66571800D03*
X155335000Y-66571800D03*
X156135000Y-66571800D03*
X157735000Y-66571800D03*
X158535000Y-66571800D03*
X159335000Y-66571800D03*
X160135000Y-66571800D03*
X160935000Y-66571800D03*
X136135000Y-67371800D03*
X136935000Y-67371800D03*
X137735000Y-67371800D03*
X138535000Y-67371800D03*
X139335000Y-67371800D03*
X140935000Y-67371800D03*
X141735000Y-67371800D03*
X142535000Y-67371800D03*
X143335000Y-67371800D03*
X144135000Y-67371800D03*
X144935000Y-67371800D03*
X145735000Y-67371800D03*
X146535000Y-67371800D03*
X147335000Y-67371800D03*
X148135000Y-67371800D03*
X148935000Y-67371800D03*
X149735000Y-67371800D03*
X150535000Y-67371800D03*
X151335000Y-67371800D03*
X152135000Y-67371800D03*
X152935000Y-67371800D03*
X153735000Y-67371800D03*
X154535000Y-67371800D03*
X155335000Y-67371800D03*
X156135000Y-67371800D03*
X157735000Y-67371800D03*
X158535000Y-67371800D03*
X159335000Y-67371800D03*
X160135000Y-67371800D03*
X160935000Y-67371800D03*
X136135000Y-68171800D03*
X136935000Y-68171800D03*
X137735000Y-68171800D03*
X138535000Y-68171800D03*
X139335000Y-68171800D03*
X140935000Y-68171800D03*
X141735000Y-68171800D03*
X142535000Y-68171800D03*
X143335000Y-68171800D03*
X144135000Y-68171800D03*
X144935000Y-68171800D03*
X145735000Y-68171800D03*
X146535000Y-68171800D03*
X147335000Y-68171800D03*
X148135000Y-68171800D03*
X148935000Y-68171800D03*
X149735000Y-68171800D03*
X150535000Y-68171800D03*
X151335000Y-68171800D03*
X152135000Y-68171800D03*
X152935000Y-68171800D03*
X153735000Y-68171800D03*
X154535000Y-68171800D03*
X155335000Y-68171800D03*
X156135000Y-68171800D03*
X157735000Y-68171800D03*
X158535000Y-68171800D03*
X159335000Y-68171800D03*
X160135000Y-68171800D03*
X160935000Y-68171800D03*
X136135000Y-68971800D03*
X136935000Y-68971800D03*
X137735000Y-68971800D03*
X138535000Y-68971800D03*
X139335000Y-68971800D03*
X140935000Y-68971800D03*
X141735000Y-68971800D03*
X142535000Y-68971800D03*
X144135000Y-68971800D03*
X144935000Y-68971800D03*
X146535000Y-68971800D03*
X147335000Y-68971800D03*
X148935000Y-68971800D03*
X149735000Y-68971800D03*
X151335000Y-68971800D03*
X152135000Y-68971800D03*
X153735000Y-68971800D03*
X154535000Y-68971800D03*
X156135000Y-68971800D03*
X157735000Y-68971800D03*
X158535000Y-68971800D03*
X159335000Y-68971800D03*
X160135000Y-68971800D03*
X160935000Y-68971800D03*
X136935000Y-69771800D03*
X137735000Y-69771800D03*
X138535000Y-69771800D03*
X139335000Y-69771800D03*
X140935000Y-69771800D03*
X141735000Y-69771800D03*
X142535000Y-69771800D03*
X144135000Y-69771800D03*
X144935000Y-69771800D03*
X146535000Y-69771800D03*
X147335000Y-69771800D03*
X148935000Y-69771800D03*
X149735000Y-69771800D03*
X151335000Y-69771800D03*
X152135000Y-69771800D03*
X153735000Y-69771800D03*
X154535000Y-69771800D03*
X156135000Y-69771800D03*
X157735000Y-69771800D03*
X158535000Y-69771800D03*
X159335000Y-69771800D03*
X160135000Y-69771800D03*
X136135000Y-45771800D03*
X136935000Y-45771800D03*
X137735000Y-45771800D03*
X138535000Y-45771800D03*
X139335000Y-45771800D03*
X140935000Y-45771800D03*
X141735000Y-45771800D03*
X142535000Y-45771800D03*
X143335000Y-45771800D03*
X144135000Y-45771800D03*
X145735000Y-45771800D03*
X146535000Y-45771800D03*
X147335000Y-45771800D03*
X148135000Y-45771800D03*
X148935000Y-45771800D03*
X149735000Y-45771800D03*
X150535000Y-45771800D03*
X151335000Y-45771800D03*
X152935000Y-45771800D03*
X153735000Y-45771800D03*
X154535000Y-45771800D03*
X155335000Y-45771800D03*
X156135000Y-45771800D03*
X157735000Y-45771800D03*
X158535000Y-45771800D03*
X159335000Y-45771800D03*
X160135000Y-45771800D03*
X160935000Y-45771800D03*
X136135000Y-46571800D03*
X136935000Y-46571800D03*
X137735000Y-46571800D03*
X138535000Y-46571800D03*
X139335000Y-46571800D03*
X140935000Y-46571800D03*
X141735000Y-46571800D03*
X142535000Y-46571800D03*
X143335000Y-46571800D03*
X144135000Y-46571800D03*
X145735000Y-46571800D03*
X146535000Y-46571800D03*
X147335000Y-46571800D03*
X148135000Y-46571800D03*
X148935000Y-46571800D03*
X149735000Y-46571800D03*
X150535000Y-46571800D03*
X151335000Y-46571800D03*
X152935000Y-46571800D03*
X153735000Y-46571800D03*
X154535000Y-46571800D03*
X155335000Y-46571800D03*
X156135000Y-46571800D03*
X157735000Y-46571800D03*
X158535000Y-46571800D03*
X159335000Y-46571800D03*
X160135000Y-46571800D03*
X160935000Y-46571800D03*
X136135000Y-47371800D03*
X136935000Y-47371800D03*
X137735000Y-47371800D03*
X138535000Y-47371800D03*
X139335000Y-47371800D03*
X140935000Y-47371800D03*
X141735000Y-47371800D03*
X142535000Y-47371800D03*
X143335000Y-47371800D03*
X144135000Y-47371800D03*
X145735000Y-47371800D03*
X146535000Y-47371800D03*
X147335000Y-47371800D03*
X148135000Y-47371800D03*
X148935000Y-47371800D03*
X149735000Y-47371800D03*
X150535000Y-47371800D03*
X151335000Y-47371800D03*
X152935000Y-47371800D03*
X153735000Y-47371800D03*
X154535000Y-47371800D03*
X155335000Y-47371800D03*
X156135000Y-47371800D03*
X157735000Y-47371800D03*
X158535000Y-47371800D03*
X159335000Y-47371800D03*
X160135000Y-47371800D03*
X160935000Y-47371800D03*
X136135000Y-48171800D03*
X136935000Y-48171800D03*
X137735000Y-48171800D03*
X138535000Y-48171800D03*
X139335000Y-48171800D03*
X140935000Y-48171800D03*
X141735000Y-48171800D03*
X142535000Y-48171800D03*
X143335000Y-48171800D03*
X144135000Y-48171800D03*
X145735000Y-48171800D03*
X146535000Y-48171800D03*
X147335000Y-48171800D03*
X148135000Y-48171800D03*
X148935000Y-48171800D03*
X149735000Y-48171800D03*
X150535000Y-48171800D03*
X151335000Y-48171800D03*
X152935000Y-48171800D03*
X153735000Y-48171800D03*
X154535000Y-48171800D03*
X155335000Y-48171800D03*
X156135000Y-48171800D03*
X157735000Y-48171800D03*
X158535000Y-48171800D03*
X159335000Y-48171800D03*
X160135000Y-48171800D03*
X160935000Y-48171800D03*
X136135000Y-48971800D03*
X136935000Y-48971800D03*
X137735000Y-48971800D03*
X138535000Y-48971800D03*
X139335000Y-48971800D03*
X141735000Y-48971800D03*
X142535000Y-48971800D03*
X143335000Y-48971800D03*
X144135000Y-48971800D03*
X145735000Y-48971800D03*
X146535000Y-48971800D03*
X147335000Y-48971800D03*
X148135000Y-48971800D03*
X148935000Y-48971800D03*
X149735000Y-48971800D03*
X150535000Y-48971800D03*
X151335000Y-48971800D03*
X152935000Y-48971800D03*
X153735000Y-48971800D03*
X154535000Y-48971800D03*
X155335000Y-48971800D03*
X157735000Y-48971800D03*
X158535000Y-48971800D03*
X159335000Y-48971800D03*
X160135000Y-48971800D03*
X160935000Y-48971800D03*
X142535000Y-49771800D03*
X143335000Y-49771800D03*
X144135000Y-49771800D03*
X146535000Y-49771800D03*
X147335000Y-49771800D03*
X148135000Y-49771800D03*
X148935000Y-49771800D03*
X149735000Y-49771800D03*
X150535000Y-49771800D03*
X152935000Y-49771800D03*
X153735000Y-49771800D03*
X154535000Y-49771800D03*
X136135000Y-50571800D03*
X136935000Y-50571800D03*
X137735000Y-50571800D03*
X138535000Y-50571800D03*
X139335000Y-50571800D03*
X140135000Y-50571800D03*
X156935000Y-50571800D03*
X157735000Y-50571800D03*
X158535000Y-50571800D03*
X159335000Y-50571800D03*
X160135000Y-50571800D03*
X160935000Y-50571800D03*
X136135000Y-51371800D03*
X136935000Y-51371800D03*
X137735000Y-51371800D03*
X138535000Y-51371800D03*
X139335000Y-51371800D03*
X140135000Y-51371800D03*
X140935000Y-51371800D03*
X156135000Y-51371800D03*
X156935000Y-51371800D03*
X157735000Y-51371800D03*
X158535000Y-51371800D03*
X159335000Y-51371800D03*
X160135000Y-51371800D03*
X160935000Y-51371800D03*
X136135000Y-52171800D03*
X136935000Y-52171800D03*
X137735000Y-52171800D03*
X138535000Y-52171800D03*
X139335000Y-52171800D03*
X140135000Y-52171800D03*
X140935000Y-52171800D03*
X143335000Y-52171800D03*
X144135000Y-52171800D03*
X144935000Y-52171800D03*
X145735000Y-52171800D03*
X146535000Y-52171800D03*
X147335000Y-52171800D03*
X148135000Y-52171800D03*
X148935000Y-52171800D03*
X149735000Y-52171800D03*
X150535000Y-52171800D03*
X151335000Y-52171800D03*
X152135000Y-52171800D03*
X152935000Y-52171800D03*
X153735000Y-52171800D03*
X156135000Y-52171800D03*
X156935000Y-52171800D03*
X157735000Y-52171800D03*
X158535000Y-52171800D03*
X159335000Y-52171800D03*
X160135000Y-52171800D03*
X160935000Y-52171800D03*
X136135000Y-52971800D03*
X136935000Y-52971800D03*
X137735000Y-52971800D03*
X138535000Y-52971800D03*
X139335000Y-52971800D03*
X140135000Y-52971800D03*
X140935000Y-52971800D03*
X143335000Y-52971800D03*
X144135000Y-52971800D03*
X144935000Y-52971800D03*
X145735000Y-52971800D03*
X146535000Y-52971800D03*
X147335000Y-52971800D03*
X148135000Y-52971800D03*
X148935000Y-52971800D03*
X149735000Y-52971800D03*
X150535000Y-52971800D03*
X151335000Y-52971800D03*
X152135000Y-52971800D03*
X152935000Y-52971800D03*
X153735000Y-52971800D03*
X156135000Y-52971800D03*
X156935000Y-52971800D03*
X157735000Y-52971800D03*
X158535000Y-52971800D03*
X159335000Y-52971800D03*
X160135000Y-52971800D03*
X160935000Y-52971800D03*
X143335000Y-53771800D03*
X144135000Y-53771800D03*
X144935000Y-53771800D03*
X145735000Y-53771800D03*
X146535000Y-53771800D03*
X147335000Y-53771800D03*
X148135000Y-53771800D03*
X148935000Y-53771800D03*
X149735000Y-53771800D03*
X150535000Y-53771800D03*
X151335000Y-53771800D03*
X152135000Y-53771800D03*
X152935000Y-53771800D03*
X153735000Y-53771800D03*
X136135000Y-54571800D03*
X136935000Y-54571800D03*
X137735000Y-54571800D03*
X138535000Y-54571800D03*
X139335000Y-54571800D03*
X140135000Y-54571800D03*
X140935000Y-54571800D03*
X143335000Y-54571800D03*
X144135000Y-54571800D03*
X144935000Y-54571800D03*
X145735000Y-54571800D03*
X146535000Y-54571800D03*
X147335000Y-54571800D03*
X148135000Y-54571800D03*
X148935000Y-54571800D03*
X149735000Y-54571800D03*
X150535000Y-54571800D03*
X151335000Y-54571800D03*
X152135000Y-54571800D03*
X152935000Y-54571800D03*
X153735000Y-54571800D03*
X156135000Y-54571800D03*
X156935000Y-54571800D03*
X157735000Y-54571800D03*
X158535000Y-54571800D03*
X159335000Y-54571800D03*
X160135000Y-54571800D03*
X160935000Y-54571800D03*
X136135000Y-55371800D03*
X136935000Y-55371800D03*
X137735000Y-55371800D03*
X138535000Y-55371800D03*
X139335000Y-55371800D03*
X140135000Y-55371800D03*
X140935000Y-55371800D03*
X143335000Y-55371800D03*
X144135000Y-55371800D03*
X144935000Y-55371800D03*
X145735000Y-55371800D03*
X146535000Y-55371800D03*
X147335000Y-55371800D03*
X148135000Y-55371800D03*
X148935000Y-55371800D03*
X149735000Y-55371800D03*
X150535000Y-55371800D03*
X151335000Y-55371800D03*
X152135000Y-55371800D03*
X152935000Y-55371800D03*
X153735000Y-55371800D03*
X156135000Y-55371800D03*
X156935000Y-55371800D03*
X157735000Y-55371800D03*
X158535000Y-55371800D03*
X159335000Y-55371800D03*
X160135000Y-55371800D03*
X160935000Y-55371800D03*
X136135000Y-56171800D03*
X136935000Y-56171800D03*
X137735000Y-56171800D03*
X138535000Y-56171800D03*
X139335000Y-56171800D03*
X140135000Y-56171800D03*
X140935000Y-56171800D03*
X143335000Y-56171800D03*
X144135000Y-56171800D03*
X144935000Y-56171800D03*
X145735000Y-56171800D03*
X146535000Y-56171800D03*
X147335000Y-56171800D03*
X148135000Y-56171800D03*
X148935000Y-56171800D03*
X149735000Y-56171800D03*
X150535000Y-56171800D03*
X151335000Y-56171800D03*
X152135000Y-56171800D03*
X152935000Y-56171800D03*
X153735000Y-56171800D03*
X156135000Y-56171800D03*
X156935000Y-56171800D03*
X157735000Y-56171800D03*
X158535000Y-56171800D03*
X159335000Y-56171800D03*
X160135000Y-56171800D03*
X160935000Y-56171800D03*
X136135000Y-56971800D03*
X136935000Y-56971800D03*
X137735000Y-56971800D03*
X138535000Y-56971800D03*
X139335000Y-56971800D03*
X140135000Y-56971800D03*
X140935000Y-56971800D03*
X143335000Y-56971800D03*
X144135000Y-56971800D03*
X144935000Y-56971800D03*
X145735000Y-56971800D03*
X146535000Y-56971800D03*
X147335000Y-56971800D03*
X148135000Y-56971800D03*
X148935000Y-56971800D03*
X149735000Y-56971800D03*
X150535000Y-56971800D03*
X151335000Y-56971800D03*
X152135000Y-56971800D03*
X152935000Y-56971800D03*
X153735000Y-56971800D03*
X156135000Y-56971800D03*
X156935000Y-56971800D03*
X157735000Y-56971800D03*
X158535000Y-56971800D03*
X159335000Y-56971800D03*
X160135000Y-56971800D03*
X160935000Y-56971800D03*
X136135000Y-57771800D03*
X136935000Y-57771800D03*
X137735000Y-57771800D03*
X138535000Y-57771800D03*
X139335000Y-57771800D03*
X140135000Y-57771800D03*
X140935000Y-57771800D03*
X143335000Y-57771800D03*
X144135000Y-57771800D03*
X144935000Y-57771800D03*
X145735000Y-57771800D03*
X146535000Y-57771800D03*
X147335000Y-57771800D03*
X148135000Y-57771800D03*
X148935000Y-57771800D03*
X149735000Y-57771800D03*
X150535000Y-57771800D03*
X151335000Y-57771800D03*
X152135000Y-57771800D03*
X152935000Y-57771800D03*
X153735000Y-57771800D03*
X156135000Y-57771800D03*
X156935000Y-57771800D03*
X157735000Y-57771800D03*
X158535000Y-57771800D03*
X159335000Y-57771800D03*
X160135000Y-57771800D03*
X160935000Y-57771800D03*
X136135000Y-58571800D03*
X136935000Y-58571800D03*
X137735000Y-58571800D03*
X138535000Y-58571800D03*
X139335000Y-58571800D03*
X140135000Y-58571800D03*
X140935000Y-58571800D03*
X143335000Y-58571800D03*
X144135000Y-58571800D03*
X144935000Y-58571800D03*
X145735000Y-58571800D03*
X146535000Y-58571800D03*
X147335000Y-58571800D03*
X148135000Y-58571800D03*
X148935000Y-58571800D03*
X149735000Y-58571800D03*
X150535000Y-58571800D03*
X151335000Y-58571800D03*
X152135000Y-58571800D03*
X152935000Y-58571800D03*
X153735000Y-58571800D03*
X156135000Y-58571800D03*
X156935000Y-58571800D03*
X157735000Y-58571800D03*
X158535000Y-58571800D03*
X159335000Y-58571800D03*
X160135000Y-58571800D03*
X160935000Y-58571800D03*
X136135000Y-59371800D03*
X136935000Y-59371800D03*
X137735000Y-59371800D03*
X138535000Y-59371800D03*
X139335000Y-59371800D03*
X140135000Y-59371800D03*
X143335000Y-59371800D03*
X144135000Y-59371800D03*
X144935000Y-59371800D03*
X145735000Y-59371800D03*
X146535000Y-59371800D03*
X147335000Y-59371800D03*
X148135000Y-59371800D03*
X148935000Y-59371800D03*
X149735000Y-59371800D03*
X150535000Y-59371800D03*
X151335000Y-59371800D03*
X152135000Y-59371800D03*
X152935000Y-59371800D03*
X153735000Y-59371800D03*
X156935000Y-59371800D03*
X157735000Y-59371800D03*
X158535000Y-59371800D03*
X159335000Y-59371800D03*
X160135000Y-59371800D03*
X160935000Y-59371800D03*
X136135000Y-60171800D03*
X136935000Y-60171800D03*
X137735000Y-60171800D03*
X138535000Y-60171800D03*
X139335000Y-60171800D03*
X140135000Y-60171800D03*
X140935000Y-60171800D03*
X143335000Y-60171800D03*
X144135000Y-60171800D03*
X144935000Y-60171800D03*
X145735000Y-60171800D03*
X146535000Y-60171800D03*
X147335000Y-60171800D03*
X148135000Y-60171800D03*
X148935000Y-60171800D03*
X149735000Y-60171800D03*
X150535000Y-60171800D03*
X151335000Y-60171800D03*
X152135000Y-60171800D03*
X152935000Y-60171800D03*
X153735000Y-60171800D03*
X156135000Y-60171800D03*
X156935000Y-60171800D03*
X157735000Y-60171800D03*
X158535000Y-60171800D03*
X159335000Y-60171800D03*
X160135000Y-60171800D03*
X160935000Y-60171800D03*
D15*
X166065000Y-37920000D03*
X165105000Y-37920000D03*
D23*
X117142500Y-40980000D03*
X115567500Y-40980000D03*
D25*
X179990000Y-46220000D03*
X178970000Y-46220000D03*
X179885000Y-60940000D03*
X178865000Y-60940000D03*
D18*
X176760000Y-50945000D03*
X178660000Y-50945000D03*
D26*
X165610000Y-52220000D03*
X165610000Y-54120000D03*
D37*
X136635000Y-72285000D03*
X136635000Y-73305000D03*
D32*
X176455000Y-59965000D03*
X176455000Y-60465000D03*
X176455000Y-60965000D03*
X177935000Y-60965000D03*
X177935000Y-60465000D03*
X177935000Y-59965000D03*
D25*
X172395000Y-38470000D03*
X171375000Y-38470000D03*
D38*
X175010000Y-37720000D03*
X175010000Y-39620000D03*
X177110000Y-38670000D03*
D25*
X133600000Y-42570000D03*
X132580000Y-42570000D03*
X133595000Y-37820000D03*
X132575000Y-37820000D03*
D16*
X128435000Y-60260000D03*
X128435000Y-61220000D03*
D39*
X157185000Y-34059300D03*
X157935000Y-34059300D03*
X158685000Y-34059300D03*
X159435000Y-34059300D03*
X160185000Y-34059300D03*
X160935000Y-34059300D03*
X157185000Y-34809300D03*
X157935000Y-34809300D03*
X158685000Y-34809300D03*
X159435000Y-34809300D03*
X160185000Y-34809300D03*
X160935000Y-34809300D03*
X157185000Y-35559300D03*
X157935000Y-35559300D03*
X158685000Y-35559300D03*
X159435000Y-35559300D03*
X160185000Y-35559300D03*
X160935000Y-35559300D03*
X157185000Y-36309300D03*
X157935000Y-36309300D03*
X158685000Y-36309300D03*
X159435000Y-36309300D03*
X160185000Y-36309300D03*
X160935000Y-36309300D03*
X157185000Y-37059300D03*
X157935000Y-37059300D03*
X158685000Y-37059300D03*
X159435000Y-37059300D03*
X160185000Y-37059300D03*
X160935000Y-37059300D03*
X157185000Y-37809300D03*
X157935000Y-37809300D03*
X158685000Y-37809300D03*
X159435000Y-37809300D03*
X160185000Y-37809300D03*
X160935000Y-37809300D03*
X157185000Y-38559300D03*
X157935000Y-38559300D03*
X158685000Y-38559300D03*
X159435000Y-38559300D03*
X160185000Y-38559300D03*
X160935000Y-38559300D03*
X157185000Y-39309300D03*
X157935000Y-39309300D03*
X158685000Y-39309300D03*
X159435000Y-39309300D03*
X160185000Y-39309300D03*
X160935000Y-39309300D03*
D29*
X132600000Y-66320000D03*
X133620000Y-66320000D03*
D40*
X131160000Y-68715000D03*
X131160000Y-67445000D03*
X131160000Y-66175000D03*
X131160000Y-64905000D03*
X125760000Y-64905000D03*
X125760000Y-66175000D03*
X125760000Y-67445000D03*
X125760000Y-68715000D03*
D41*
X128460000Y-66810000D03*
D17*
X170317500Y-59695000D03*
X167392500Y-59695000D03*
D25*
X133600000Y-41620000D03*
X132580000Y-41620000D03*
D19*
X165460000Y-71870000D03*
D20*
X165460000Y-71870000D03*
D16*
X154685000Y-32960000D03*
X154685000Y-33920000D03*
X154685000Y-37243333D03*
X154685000Y-38203333D03*
D29*
X132600000Y-64420000D03*
X133620000Y-64420000D03*
X165075000Y-38850000D03*
X166095000Y-38850000D03*
D22*
X165580000Y-58070000D03*
X165580000Y-56170000D03*
D29*
X132600000Y-67275000D03*
X133620000Y-67275000D03*
X178865000Y-59990000D03*
X179885000Y-59990000D03*
D42*
X135990000Y-42120000D03*
X137540000Y-42120000D03*
D25*
X179860000Y-68350000D03*
X178840000Y-68350000D03*
D27*
X173410000Y-38375000D03*
X173410000Y-37415000D03*
D13*
X171380000Y-48545000D03*
X172340000Y-48545000D03*
D17*
X170397500Y-45020000D03*
X167472500Y-45020000D03*
D18*
X176785000Y-41670000D03*
X178685000Y-41670000D03*
D12*
X138535000Y-73305000D03*
X138535000Y-72285000D03*
D35*
X142215000Y-33445000D03*
X142215000Y-34245000D03*
X142215000Y-35045000D03*
X142215000Y-38245000D03*
X142215000Y-39045000D03*
X142215000Y-39845000D03*
X141415000Y-33445000D03*
X141415000Y-34245000D03*
X141415000Y-35045000D03*
X141415000Y-38245000D03*
X141415000Y-39045000D03*
X141415000Y-39845000D03*
X140615000Y-33445000D03*
X140615000Y-34245000D03*
X140615000Y-35045000D03*
X140615000Y-38245000D03*
X140615000Y-39045000D03*
X140615000Y-39845000D03*
X139815000Y-33445000D03*
X139815000Y-34245000D03*
X139815000Y-35045000D03*
X139815000Y-38245000D03*
X139815000Y-39045000D03*
X139815000Y-39845000D03*
X139015000Y-33445000D03*
X139015000Y-34245000D03*
X139015000Y-35045000D03*
X139015000Y-38245000D03*
X139015000Y-39045000D03*
X139015000Y-39845000D03*
X138215000Y-33445000D03*
X138215000Y-34245000D03*
X138215000Y-35045000D03*
X138215000Y-38245000D03*
X138215000Y-39045000D03*
X138215000Y-39845000D03*
X137415000Y-33445000D03*
X137415000Y-34245000D03*
X137415000Y-35045000D03*
X137415000Y-38245000D03*
X137415000Y-39045000D03*
X137415000Y-39845000D03*
X136615000Y-33445000D03*
X136615000Y-34245000D03*
X136615000Y-35045000D03*
X136615000Y-38245000D03*
X136615000Y-39045000D03*
X136615000Y-39845000D03*
X135815000Y-33445000D03*
X135815000Y-34245000D03*
X135815000Y-35045000D03*
X135815000Y-38245000D03*
X135815000Y-39045000D03*
X135815000Y-39845000D03*
D29*
X132575000Y-38770000D03*
X133595000Y-38770000D03*
D25*
X172395000Y-37520000D03*
X171375000Y-37520000D03*
D29*
X132600000Y-69175000D03*
X133620000Y-69175000D03*
D13*
X132630000Y-55365400D03*
X133590000Y-55365400D03*
D29*
X132600000Y-68225000D03*
X133620000Y-68225000D03*
D25*
X179940000Y-53600000D03*
X178920000Y-53600000D03*
D16*
X154685000Y-35101667D03*
X154685000Y-36061667D03*
D42*
X146290000Y-42145000D03*
X147840000Y-42145000D03*
D27*
X144160000Y-38196667D03*
X144160000Y-37236667D03*
D35*
X152515000Y-33445000D03*
X152515000Y-34245000D03*
X152515000Y-35045000D03*
X152515000Y-38245000D03*
X152515000Y-39045000D03*
X152515000Y-39845000D03*
X151715000Y-33445000D03*
X151715000Y-34245000D03*
X151715000Y-35045000D03*
X151715000Y-38245000D03*
X151715000Y-39045000D03*
X151715000Y-39845000D03*
X150915000Y-33445000D03*
X150915000Y-34245000D03*
X150915000Y-35045000D03*
X150915000Y-38245000D03*
X150915000Y-39045000D03*
X150915000Y-39845000D03*
X150115000Y-33445000D03*
X150115000Y-34245000D03*
X150115000Y-35045000D03*
X150115000Y-38245000D03*
X150115000Y-39045000D03*
X150115000Y-39845000D03*
X149315000Y-33445000D03*
X149315000Y-34245000D03*
X149315000Y-35045000D03*
X149315000Y-38245000D03*
X149315000Y-39045000D03*
X149315000Y-39845000D03*
X148515000Y-33445000D03*
X148515000Y-34245000D03*
X148515000Y-35045000D03*
X148515000Y-38245000D03*
X148515000Y-39045000D03*
X148515000Y-39845000D03*
X147715000Y-33445000D03*
X147715000Y-34245000D03*
X147715000Y-35045000D03*
X147715000Y-38245000D03*
X147715000Y-39045000D03*
X147715000Y-39845000D03*
X146915000Y-33445000D03*
X146915000Y-34245000D03*
X146915000Y-35045000D03*
X146915000Y-38245000D03*
X146915000Y-39045000D03*
X146915000Y-39845000D03*
X146115000Y-33445000D03*
X146115000Y-34245000D03*
X146115000Y-35045000D03*
X146115000Y-38245000D03*
X146115000Y-39045000D03*
X146115000Y-39845000D03*
D43*
X128885000Y-42420000D03*
X128385000Y-42420000D03*
X127885000Y-42420000D03*
X127385000Y-42420000D03*
X126885000Y-42420000D03*
X126385000Y-42420000D03*
X125885000Y-42420000D03*
X125385000Y-42420000D03*
X124885000Y-42420000D03*
X124385000Y-42420000D03*
X123885000Y-42420000D03*
X123385000Y-42420000D03*
X122885000Y-42420000D03*
X122385000Y-42420000D03*
X128885000Y-41920000D03*
X128385000Y-41920000D03*
X127885000Y-41920000D03*
X127385000Y-41920000D03*
X126885000Y-41920000D03*
X126385000Y-41920000D03*
X125885000Y-41920000D03*
X125385000Y-41920000D03*
X124885000Y-41920000D03*
X124385000Y-41920000D03*
X123885000Y-41920000D03*
X123385000Y-41920000D03*
X122885000Y-41920000D03*
X122385000Y-41920000D03*
X128885000Y-41420000D03*
X128385000Y-41420000D03*
X127885000Y-41420000D03*
X127385000Y-41420000D03*
X126885000Y-41420000D03*
X126385000Y-41420000D03*
X125885000Y-41420000D03*
X125385000Y-41420000D03*
X124885000Y-41420000D03*
X124385000Y-41420000D03*
X123885000Y-41420000D03*
X123385000Y-41420000D03*
X122885000Y-41420000D03*
X122385000Y-41420000D03*
X128885000Y-40920000D03*
X128385000Y-40920000D03*
X127885000Y-40920000D03*
X123385000Y-40920000D03*
X122885000Y-40920000D03*
X122385000Y-40920000D03*
X128885000Y-40420000D03*
X128385000Y-40420000D03*
X127885000Y-40420000D03*
X126885000Y-40420000D03*
X126385000Y-40420000D03*
X125885000Y-40420000D03*
X125385000Y-40420000D03*
X124885000Y-40420000D03*
X124385000Y-40420000D03*
X123385000Y-40420000D03*
X122885000Y-40420000D03*
X122385000Y-40420000D03*
X128885000Y-39920000D03*
X128385000Y-39920000D03*
X127885000Y-39920000D03*
X126885000Y-39920000D03*
X124385000Y-39920000D03*
X123385000Y-39920000D03*
X122885000Y-39920000D03*
X122385000Y-39920000D03*
X128885000Y-39420000D03*
X128385000Y-39420000D03*
X127885000Y-39420000D03*
X126885000Y-39420000D03*
X124385000Y-39420000D03*
X123385000Y-39420000D03*
X122885000Y-39420000D03*
X122385000Y-39420000D03*
X128885000Y-38920000D03*
X128385000Y-38920000D03*
X127885000Y-38920000D03*
X126885000Y-38920000D03*
X124385000Y-38920000D03*
X123385000Y-38920000D03*
X122885000Y-38920000D03*
X122385000Y-38920000D03*
X128885000Y-38420000D03*
X128385000Y-38420000D03*
X127885000Y-38420000D03*
X126885000Y-38420000D03*
X124385000Y-38420000D03*
X123385000Y-38420000D03*
X122885000Y-38420000D03*
X122385000Y-38420000D03*
X128885000Y-37920000D03*
X128385000Y-37920000D03*
X127885000Y-37920000D03*
X126885000Y-37920000D03*
X126385000Y-37920000D03*
X125885000Y-37920000D03*
X125385000Y-37920000D03*
X124885000Y-37920000D03*
X124385000Y-37920000D03*
X123385000Y-37920000D03*
X122885000Y-37920000D03*
X122385000Y-37920000D03*
X128885000Y-37420000D03*
X128385000Y-37420000D03*
X127885000Y-37420000D03*
X123385000Y-37420000D03*
X122885000Y-37420000D03*
X122385000Y-37420000D03*
X128885000Y-36920000D03*
X128385000Y-36920000D03*
X127885000Y-36920000D03*
X127385000Y-36920000D03*
X126885000Y-36920000D03*
X126385000Y-36920000D03*
X125885000Y-36920000D03*
X125385000Y-36920000D03*
X124885000Y-36920000D03*
X124385000Y-36920000D03*
X123885000Y-36920000D03*
X123385000Y-36920000D03*
X122885000Y-36920000D03*
X122385000Y-36920000D03*
X128885000Y-36420000D03*
X128385000Y-36420000D03*
X127885000Y-36420000D03*
X127385000Y-36420000D03*
X126885000Y-36420000D03*
X126385000Y-36420000D03*
X125885000Y-36420000D03*
X125385000Y-36420000D03*
X124885000Y-36420000D03*
X124385000Y-36420000D03*
X123885000Y-36420000D03*
X123385000Y-36420000D03*
X122885000Y-36420000D03*
X122385000Y-36420000D03*
X128885000Y-35920000D03*
X128385000Y-35920000D03*
X127885000Y-35920000D03*
X127385000Y-35920000D03*
X126885000Y-35920000D03*
X126385000Y-35920000D03*
X125885000Y-35920000D03*
X125385000Y-35920000D03*
X124885000Y-35920000D03*
X124385000Y-35920000D03*
X123885000Y-35920000D03*
X123385000Y-35920000D03*
X122885000Y-35920000D03*
X122385000Y-35920000D03*
D29*
X165075000Y-39790000D03*
X166095000Y-39790000D03*
D25*
X133595000Y-43520000D03*
X132575000Y-43520000D03*
D26*
X165660000Y-44870000D03*
X165660000Y-46770000D03*
D21*
X169955000Y-65175000D03*
X169955000Y-64525000D03*
X169955000Y-63875000D03*
X169955000Y-63225000D03*
X167680000Y-63225000D03*
X167680000Y-63875000D03*
X167680000Y-64525000D03*
X167680000Y-65175000D03*
D18*
X176680000Y-65700000D03*
X178580000Y-65700000D03*
D42*
X129310000Y-47145000D03*
X130860000Y-47145000D03*
D32*
X176505000Y-52620000D03*
X176505000Y-53120000D03*
X176505000Y-53620000D03*
X177985000Y-53620000D03*
X177985000Y-53120000D03*
X177985000Y-52620000D03*
D23*
X117140000Y-44690000D03*
X115565000Y-44690000D03*
D21*
X170022500Y-50495000D03*
X170022500Y-49845000D03*
X170022500Y-49195000D03*
X170022500Y-48545000D03*
X167747500Y-48545000D03*
X167747500Y-49195000D03*
X167747500Y-49845000D03*
X167747500Y-50495000D03*
D16*
X173410000Y-39245000D03*
X173410000Y-40205000D03*
D32*
X176530000Y-45270000D03*
X176530000Y-45770000D03*
X176530000Y-46270000D03*
X178010000Y-46270000D03*
X178010000Y-45770000D03*
X178010000Y-45270000D03*
D28*
X174690000Y-66150000D03*
X172320000Y-66150000D03*
D29*
X178920000Y-52650000D03*
X179940000Y-52650000D03*
D19*
X131635000Y-71870000D03*
D20*
X131635000Y-71870000D03*
D44*
X115567500Y-46560000D03*
X117142500Y-46560000D03*
D45*
X164142500Y-65015000D03*
D46*
X152135000Y-60971800D03*
X152135000Y-60171800D03*
X146535000Y-53771800D03*
X152135000Y-56171800D03*
D45*
X164142500Y-64250000D03*
X164142500Y-66545000D03*
D46*
X145735000Y-60971800D03*
D45*
X151365000Y-63780000D03*
D46*
X144935000Y-54571800D03*
X148935000Y-60971800D03*
X151335000Y-60971800D03*
X147335000Y-53771800D03*
X144935000Y-59371800D03*
D45*
X172778333Y-34160000D03*
D46*
X144935000Y-55371800D03*
X145735000Y-53771800D03*
X147335000Y-60971800D03*
X150535000Y-53771800D03*
X152135000Y-58571800D03*
X144935000Y-56171800D03*
D45*
X164142500Y-67310000D03*
D46*
X152135000Y-57771800D03*
X144935000Y-60171800D03*
X152135000Y-59371800D03*
X144935000Y-57771800D03*
X144935000Y-60971800D03*
X152135000Y-56971800D03*
X148935000Y-53771800D03*
D45*
X149035000Y-63780000D03*
D46*
X144935000Y-53771800D03*
X152135000Y-54571800D03*
X144935000Y-56971800D03*
X150535000Y-60971800D03*
X148135000Y-53771800D03*
X148135000Y-60971800D03*
X149726800Y-65026600D03*
D45*
X150435000Y-63780000D03*
D46*
X152139800Y-65027200D03*
X152135000Y-55371800D03*
D45*
X164142500Y-68075000D03*
X148115000Y-63780000D03*
D46*
X151335000Y-53771800D03*
X149735000Y-53771800D03*
X152135000Y-53771800D03*
X145739000Y-65026600D03*
X144935000Y-58571800D03*
D45*
X164142500Y-65780000D03*
D46*
X146535000Y-60971800D03*
X149735000Y-60971800D03*
D45*
X164235000Y-42120000D03*
D46*
X123685000Y-50271800D03*
X125310000Y-58445000D03*
X143335000Y-55371800D03*
X119885000Y-55570000D03*
D45*
X164545000Y-34150000D03*
D46*
X122080000Y-50271800D03*
X125290000Y-56671800D03*
D45*
X134310000Y-44470000D03*
D46*
X119885000Y-50620000D03*
X127685000Y-50271800D03*
X122085000Y-56671800D03*
X130085000Y-57130000D03*
X143335000Y-53771800D03*
X143335000Y-56971800D03*
X127395000Y-37390000D03*
X133620000Y-57245000D03*
D45*
X134310000Y-36870000D03*
D46*
X121835000Y-58410000D03*
D45*
X134310000Y-40670000D03*
X164235000Y-44415000D03*
X134310000Y-39720000D03*
X134310000Y-46370000D03*
X134310000Y-37820000D03*
X164235000Y-45945000D03*
D46*
X123685000Y-56671800D03*
X125281800Y-49533200D03*
D45*
X134310000Y-42570000D03*
D46*
X125985000Y-40920000D03*
X143335000Y-56171800D03*
D45*
X164235000Y-42885000D03*
D46*
X127685000Y-48545000D03*
D45*
X134310000Y-43520000D03*
X164235000Y-43650000D03*
D46*
X133585000Y-54451000D03*
X126760000Y-35445000D03*
X123685000Y-55071800D03*
D45*
X134310000Y-45420000D03*
X133160000Y-32895000D03*
D46*
X123685000Y-51871800D03*
D45*
X134310000Y-41620000D03*
D46*
X128060000Y-35345000D03*
D45*
X164235000Y-45180000D03*
D46*
X153735000Y-53771800D03*
X144135000Y-62571800D03*
D45*
X164180000Y-59140000D03*
X169731667Y-34160000D03*
D46*
X152935000Y-62571800D03*
D45*
X164180000Y-59905000D03*
D46*
X153735000Y-60971800D03*
D45*
X164180000Y-58375000D03*
D46*
X153735000Y-58571800D03*
X153735000Y-56971800D03*
D45*
X164180000Y-57610000D03*
D46*
X143335000Y-54571800D03*
X153735000Y-54571800D03*
X153735000Y-57771800D03*
X153735000Y-56171800D03*
D45*
X164180000Y-60670000D03*
D46*
X151335000Y-52171800D03*
X155035000Y-53981800D03*
X143335000Y-60171800D03*
D45*
X165065000Y-39800000D03*
X164180000Y-56845000D03*
D46*
X145735000Y-52171800D03*
X153735000Y-59371800D03*
X153735000Y-55371800D03*
X153735000Y-60171800D03*
X146110000Y-39845000D03*
X140615000Y-38245000D03*
X133545000Y-69175000D03*
X146535000Y-52171800D03*
X142220000Y-39845000D03*
X133545000Y-68225000D03*
X156510000Y-37004300D03*
X154685000Y-35101667D03*
X143335000Y-58571800D03*
D45*
X166065000Y-36995000D03*
D46*
X143335000Y-57771800D03*
X139485000Y-73305000D03*
D45*
X122035000Y-47145000D03*
D46*
X148135000Y-52171800D03*
X141415000Y-35045000D03*
D45*
X124435000Y-68695000D03*
D46*
X133545000Y-65370000D03*
X143335000Y-59371800D03*
X150535000Y-52171800D03*
X152135000Y-52171800D03*
D45*
X128435000Y-60260000D03*
D46*
X139015000Y-38245000D03*
X143900000Y-38795000D03*
X154685000Y-37243333D03*
X148935000Y-52171800D03*
X118655000Y-41490000D03*
X133545000Y-64420000D03*
D45*
X164210000Y-51765000D03*
D46*
X140435000Y-73315000D03*
X142040000Y-42095000D03*
X135990000Y-42120000D03*
X144420000Y-38795000D03*
D45*
X164210000Y-52530000D03*
D46*
X161435000Y-36364300D03*
X126385000Y-39920000D03*
X143335000Y-62571800D03*
X172395000Y-37520000D03*
X135810000Y-39845000D03*
X146285000Y-42145000D03*
X152515000Y-38245000D03*
X152520000Y-39845000D03*
X118655000Y-43350000D03*
X139815000Y-35045000D03*
X142215000Y-38245000D03*
X152340000Y-42145000D03*
X149315000Y-38245000D03*
X150915000Y-38245000D03*
X118655000Y-45210000D03*
X144420000Y-34520000D03*
X172395000Y-38470000D03*
X154685000Y-32960000D03*
X150115000Y-35045000D03*
X143335000Y-60971800D03*
X149735000Y-52171800D03*
D45*
X164210000Y-49470000D03*
D46*
X144935000Y-52171800D03*
X133545000Y-66320000D03*
D45*
X164210000Y-53295000D03*
D46*
X153735000Y-61771800D03*
X124885000Y-38420000D03*
D45*
X164210000Y-50235000D03*
D46*
X151715000Y-35045000D03*
D45*
X164210000Y-51000000D03*
D46*
X133545000Y-67275000D03*
X172395000Y-39410000D03*
X153735000Y-62571800D03*
X143335000Y-61771800D03*
X147335000Y-52171800D03*
X118660000Y-47070000D03*
X143900000Y-34520000D03*
X118655000Y-39630000D03*
D45*
X171430000Y-41220000D03*
X173110000Y-37420000D03*
X170725000Y-63220000D03*
D46*
X170695000Y-55895000D03*
D45*
X173760000Y-37420000D03*
X171380000Y-48545000D03*
D46*
X127685000Y-51071800D03*
X136135000Y-48971800D03*
X127685000Y-55071800D03*
X137735000Y-52171800D03*
X140935000Y-52971800D03*
X127685000Y-55871800D03*
X129285000Y-51871800D03*
X137735000Y-50571800D03*
X130085000Y-55871800D03*
X137735000Y-52971800D03*
X130085000Y-51071800D03*
X139335000Y-48971800D03*
X136935000Y-48971800D03*
X127685000Y-51871800D03*
X128485000Y-55871800D03*
X140135000Y-54571800D03*
X138535000Y-48171800D03*
X128485000Y-51071800D03*
X128485000Y-55071800D03*
X136135000Y-52971800D03*
X138535000Y-51371800D03*
X128485000Y-51871800D03*
X129285000Y-55871800D03*
X138535000Y-52171800D03*
X138535000Y-48971800D03*
X129285000Y-51071800D03*
X136935000Y-52971800D03*
X129285000Y-55071800D03*
X126885000Y-55871800D03*
X136935000Y-52171800D03*
X136135000Y-52171800D03*
X126885000Y-55071800D03*
X123685000Y-51071800D03*
X140135000Y-51371800D03*
X140135000Y-55371800D03*
X123685000Y-55871800D03*
X139335000Y-52171800D03*
X124485000Y-51871800D03*
X124485000Y-55071800D03*
X140135000Y-52971800D03*
X124485000Y-56671800D03*
X140935000Y-54571800D03*
X140935000Y-52171800D03*
X124485000Y-50271800D03*
X122885000Y-56671800D03*
X140935000Y-55371800D03*
X138535000Y-52971800D03*
X122885000Y-50271800D03*
X146535000Y-48171800D03*
X138985000Y-37120000D03*
X136615000Y-38245000D03*
X146915000Y-38245000D03*
X144135000Y-48971800D03*
X136615000Y-39045000D03*
X146915000Y-39045000D03*
X145735000Y-48971800D03*
X146915000Y-39845000D03*
X136615000Y-39845000D03*
X146535000Y-46571800D03*
X147715000Y-34245000D03*
X137415000Y-34245000D03*
X147715000Y-33445000D03*
X147335000Y-46571800D03*
X137415000Y-33445000D03*
X144135000Y-48171800D03*
X146115000Y-39045000D03*
X135815000Y-39045000D03*
X144135000Y-47371800D03*
X146115000Y-38245000D03*
X137560000Y-37245000D03*
X135815000Y-38245000D03*
X146115000Y-35045000D03*
X145735000Y-47371800D03*
X146385000Y-36095000D03*
X135815000Y-35045000D03*
X135815000Y-34245000D03*
X146115000Y-34245000D03*
X144135000Y-45771800D03*
X146535000Y-47371800D03*
X146915000Y-35045000D03*
X136615000Y-35045000D03*
X145735000Y-46571800D03*
X136615000Y-34245000D03*
X146915000Y-34245000D03*
X136615000Y-33445000D03*
X146915000Y-33445000D03*
X144135000Y-46571800D03*
X137415000Y-35045000D03*
X147715000Y-35045000D03*
X146535000Y-45771800D03*
X146535000Y-48971800D03*
X137415000Y-38245000D03*
X147715000Y-38245000D03*
X137415000Y-39045000D03*
X147715000Y-39045000D03*
X147335000Y-47371800D03*
X140935000Y-44971800D03*
X148515000Y-34245000D03*
X143335000Y-48971800D03*
X142215000Y-39045000D03*
X143335000Y-47371800D03*
X141415000Y-39845000D03*
X141735000Y-46571800D03*
X139815000Y-33445000D03*
X140615000Y-34245000D03*
X142535000Y-46571800D03*
X143335000Y-45771800D03*
X140615000Y-33445000D03*
X141415000Y-34245000D03*
X140935000Y-45771800D03*
X141415000Y-33445000D03*
X143335000Y-46571800D03*
X142215000Y-34245000D03*
X141735000Y-45771800D03*
X150535000Y-47371800D03*
X152515000Y-39045000D03*
X150535000Y-46571800D03*
X151715000Y-39845000D03*
X151715000Y-39045000D03*
X150535000Y-45771800D03*
X149735000Y-46571800D03*
X150915000Y-39845000D03*
X141415000Y-39045000D03*
X143335000Y-48171800D03*
X150535000Y-44971800D03*
X150915000Y-39045000D03*
X150115000Y-39845000D03*
X148935000Y-44971800D03*
X150115000Y-39045000D03*
X148935000Y-45771800D03*
X149315000Y-39845000D03*
X149735000Y-44971800D03*
X148135000Y-45771800D03*
X149315000Y-33445000D03*
X150115000Y-34245000D03*
X148135000Y-46571800D03*
X148935000Y-46571800D03*
X150115000Y-33445000D03*
X148135000Y-48171800D03*
X150915000Y-34245000D03*
X150915000Y-33445000D03*
X148135000Y-47371800D03*
X149735000Y-47371800D03*
X151715000Y-34245000D03*
X140615000Y-39845000D03*
X141735000Y-47371800D03*
X148935000Y-47371800D03*
X151715000Y-33445000D03*
X148935000Y-48171800D03*
X152515000Y-34245000D03*
X140935000Y-47371800D03*
X140615000Y-39045000D03*
X139815000Y-39845000D03*
X141735000Y-48171800D03*
X142535000Y-48971800D03*
X139815000Y-39045000D03*
X139015000Y-39845000D03*
X141735000Y-48971800D03*
X139015000Y-33445000D03*
X142535000Y-47371800D03*
X139815000Y-34245000D03*
X140935000Y-46571800D03*
X158311348Y-34426347D03*
X151335000Y-48971800D03*
X158535000Y-44971800D03*
X159802047Y-34432952D03*
X153735000Y-48171800D03*
X158275000Y-38950000D03*
X159035000Y-38920000D03*
X153735000Y-48971800D03*
X158275000Y-38170000D03*
X153735000Y-47371800D03*
X159035000Y-38170000D03*
X152935000Y-48971800D03*
X152935000Y-47371800D03*
X159035000Y-37400000D03*
X155335000Y-46571800D03*
X159035000Y-36680000D03*
X160552047Y-34410000D03*
X160135000Y-44971800D03*
X158301348Y-35186347D03*
X154535000Y-46571800D03*
X159818653Y-35186348D03*
X155335000Y-48971800D03*
X159063653Y-35931348D03*
X155335000Y-47371800D03*
X159775000Y-35920000D03*
X155335000Y-48171800D03*
X159795000Y-36676348D03*
X155335000Y-45771800D03*
X159335000Y-44971800D03*
X161525000Y-34810000D03*
X156135000Y-46571800D03*
X160558653Y-35926348D03*
X158318653Y-35936348D03*
X154535000Y-47371800D03*
X153735000Y-46571800D03*
X158275000Y-36670000D03*
X158275000Y-37380000D03*
X152935000Y-48171800D03*
X161515000Y-35580000D03*
X156135000Y-47371800D03*
X156135000Y-45771800D03*
X160568653Y-36686348D03*
X160558653Y-37426348D03*
X159335000Y-45771800D03*
X159795000Y-38170000D03*
X158535000Y-45771800D03*
X152935000Y-45771800D03*
X156535000Y-34810000D03*
X153735000Y-45771800D03*
X156525000Y-35590000D03*
X157735000Y-44971800D03*
X160557047Y-35187952D03*
X156545000Y-34040000D03*
X151335000Y-47371800D03*
X151335000Y-46571800D03*
X157544999Y-34430000D03*
X152935000Y-46571800D03*
X157547952Y-35202953D03*
X159795000Y-38930000D03*
X154535000Y-48971800D03*
X139335000Y-68171800D03*
X136555000Y-72360000D03*
X139960000Y-68195000D03*
X139335000Y-69771800D03*
X167717500Y-55895000D03*
X167680000Y-63225000D03*
X167955000Y-48050000D03*
X167797500Y-41220000D03*
X164265000Y-39550000D03*
X166095000Y-39790000D03*
X168875000Y-40900000D03*
X163815000Y-38870000D03*
X168635000Y-48100000D03*
X169035000Y-62770000D03*
X166095000Y-38850000D03*
X168885000Y-55620000D03*
X158535000Y-63371800D03*
X157547132Y-74732132D03*
X157735000Y-62571800D03*
X157135000Y-74307868D03*
X159022132Y-74757132D03*
X160135000Y-64171800D03*
X158615000Y-74340000D03*
X160135000Y-62571800D03*
X116235000Y-71070000D03*
X169372868Y-74107868D03*
X160935000Y-55371800D03*
X169797132Y-74532132D03*
X160935000Y-54571800D03*
X170872868Y-74132868D03*
X159335000Y-50571800D03*
X160135000Y-50571800D03*
X171297132Y-74557132D03*
X171872868Y-73107868D03*
X157735000Y-56971800D03*
X158535000Y-56171800D03*
X172297132Y-73532132D03*
X158535000Y-55371800D03*
X173822132Y-73532132D03*
X157735000Y-55371800D03*
X173397868Y-73107868D03*
X174922868Y-73057868D03*
X159335000Y-52971800D03*
X160135000Y-52971800D03*
X175347132Y-73482132D03*
X159335000Y-48171800D03*
X177422132Y-74382132D03*
X176997868Y-73957868D03*
X159335000Y-48971800D03*
X157735000Y-47371800D03*
X178497868Y-73932868D03*
X178922132Y-74357132D03*
X157735000Y-46571800D03*
X156935000Y-60171800D03*
X156135000Y-60171800D03*
X160135000Y-61771800D03*
X159335000Y-62571800D03*
X158535000Y-59371800D03*
X158535000Y-60171800D03*
X156022132Y-74707132D03*
X156935000Y-61771800D03*
X155597868Y-74282868D03*
X157735000Y-61771800D03*
X158535000Y-58571800D03*
X158535000Y-57771800D03*
X160135000Y-56971800D03*
X160935000Y-56171800D03*
X156135000Y-54571800D03*
X163522868Y-74807132D03*
X163947132Y-74382868D03*
X156935000Y-54571800D03*
X156935000Y-56971800D03*
X166772132Y-73882868D03*
X166347868Y-74307132D03*
X156935000Y-56171800D03*
X159335000Y-55371800D03*
X160135000Y-55371800D03*
X158535000Y-54571800D03*
X159335000Y-54571800D03*
X160935000Y-51371800D03*
X160135000Y-52171800D03*
X160935000Y-48171800D03*
X172422868Y-74082868D03*
X172847132Y-74507132D03*
X160135000Y-48971800D03*
X173922868Y-74057868D03*
X158535000Y-48171800D03*
X174347132Y-74482132D03*
X158535000Y-47371800D03*
X160135000Y-46571800D03*
X175897132Y-74407132D03*
X175472868Y-73982868D03*
X160935000Y-45771800D03*
X157735000Y-50571800D03*
X156935000Y-50571800D03*
X156135000Y-52171800D03*
X156935000Y-52171800D03*
X160497132Y-74782132D03*
X158535000Y-61771800D03*
X160085000Y-74340000D03*
X159335000Y-61771800D03*
X165272868Y-74857132D03*
X160935000Y-60171800D03*
X160135000Y-59371800D03*
X165697132Y-74432868D03*
X160935000Y-57771800D03*
X167872868Y-74107868D03*
X160935000Y-56971800D03*
X168297132Y-74532132D03*
X140935000Y-56971800D03*
X139335000Y-57771800D03*
X124135000Y-73820000D03*
X137735000Y-63371800D03*
X125635000Y-73245000D03*
X139335000Y-62571800D03*
X125635000Y-73820000D03*
X140135000Y-62571800D03*
X127135000Y-73245000D03*
X136135000Y-67371800D03*
X136135000Y-68171800D03*
X127135000Y-73820000D03*
X137735000Y-68171800D03*
X128635000Y-73245000D03*
X140935000Y-60171800D03*
X128635000Y-73820000D03*
X137735000Y-68971800D03*
X129810000Y-74620000D03*
X136135000Y-65771800D03*
X130385000Y-75010000D03*
X131260000Y-74620000D03*
X137735000Y-65771800D03*
X140135000Y-57771800D03*
X131885000Y-75010000D03*
X136135000Y-66571800D03*
X137735000Y-66571800D03*
X132810000Y-74620000D03*
X136935000Y-64171800D03*
X137735000Y-64171800D03*
X138535000Y-64171800D03*
X139335000Y-64171800D03*
X140135000Y-64171800D03*
X140135000Y-63371800D03*
X140935000Y-63371800D03*
X140935000Y-62571800D03*
X138535000Y-58571800D03*
X140935000Y-61771800D03*
X139985000Y-75020000D03*
X140935000Y-57771800D03*
X140610000Y-75020000D03*
X141885000Y-58970000D03*
X141885000Y-59745000D03*
X141285000Y-75020000D03*
X141885000Y-75020000D03*
X141885000Y-58145000D03*
X141860000Y-57370000D03*
X143285000Y-74595000D03*
X143860000Y-75020000D03*
X141860000Y-56570000D03*
X144810000Y-74595000D03*
X141910000Y-55945000D03*
X157735000Y-65771800D03*
X145360000Y-75010000D03*
X157735000Y-66571800D03*
X146310000Y-74595000D03*
X137735000Y-59371800D03*
X157735000Y-67371800D03*
X146860000Y-75010000D03*
X147810000Y-74595000D03*
X157735000Y-68171800D03*
X148385000Y-75010000D03*
X157735000Y-68971800D03*
X149310000Y-74570000D03*
X157735000Y-69771800D03*
X158535000Y-68171800D03*
X149860000Y-75010000D03*
X158535000Y-69771800D03*
X150885000Y-75020000D03*
X159335000Y-69771800D03*
X153135000Y-75020000D03*
X159335000Y-68971800D03*
X153135000Y-74445000D03*
X154610000Y-75035000D03*
X160135000Y-69771800D03*
X154610000Y-74445000D03*
X159335000Y-68171800D03*
X137735000Y-60171800D03*
X138535000Y-59371800D03*
X118135000Y-74995000D03*
X136135000Y-60171800D03*
X118135000Y-74395000D03*
X119635000Y-74995000D03*
X136935000Y-61771800D03*
X136135000Y-61771800D03*
X119635000Y-74395000D03*
X121135000Y-74995000D03*
X136935000Y-62571800D03*
X121135000Y-74395000D03*
X136135000Y-62571800D03*
X122610000Y-74995000D03*
X136135000Y-64171800D03*
X122610000Y-74395000D03*
X136135000Y-63371800D03*
X138535000Y-60171800D03*
X124135000Y-74995000D03*
X138535000Y-63371800D03*
X124135000Y-74395000D03*
X139335000Y-59371800D03*
X139335000Y-60171800D03*
X125635000Y-74995000D03*
X140135000Y-60171800D03*
X125635000Y-74395000D03*
X127135000Y-74995000D03*
X137735000Y-61771800D03*
X127135000Y-74395000D03*
X138535000Y-61771800D03*
X128635000Y-74995000D03*
X139335000Y-61771800D03*
X128635000Y-74395000D03*
X140135000Y-61771800D03*
X140135000Y-58571800D03*
X137735000Y-62571800D03*
X140935000Y-58571800D03*
X125285000Y-51071800D03*
X140135000Y-50571800D03*
X139335000Y-50571800D03*
X126085000Y-51071800D03*
X126085000Y-55871800D03*
X137735000Y-51371800D03*
X122885000Y-55071800D03*
X140135000Y-52171800D03*
X137735000Y-54571800D03*
X122885000Y-51871800D03*
X138535000Y-54571800D03*
X122085000Y-51071800D03*
X137735000Y-48171800D03*
X126063383Y-49198383D03*
X126885000Y-51871800D03*
X136135000Y-50571800D03*
X126885000Y-51071800D03*
X137735000Y-48971800D03*
X126085000Y-51871800D03*
X136935000Y-50571800D03*
X126085000Y-55071800D03*
X136135000Y-51371800D03*
X136935000Y-46571800D03*
X126315000Y-37390000D03*
X136135000Y-45771800D03*
X129985000Y-37470000D03*
X126865000Y-37390000D03*
X126460000Y-38929400D03*
X137735000Y-47371800D03*
X129985000Y-38945000D03*
X128086000Y-42968000D03*
X137735000Y-46571800D03*
X127628800Y-43349000D03*
X136935000Y-47371800D03*
X136135000Y-47371800D03*
X126917600Y-43349000D03*
X139335000Y-47371800D03*
X130760000Y-41670000D03*
X130010000Y-42570000D03*
X138535000Y-47371800D03*
X130410000Y-40170000D03*
X127425600Y-40428000D03*
X138535000Y-46571800D03*
X129985000Y-39545000D03*
X126865000Y-40920000D03*
X139335000Y-46571800D03*
X136135000Y-48171800D03*
X126130200Y-43425200D03*
X136135000Y-46571800D03*
X127393600Y-37920000D03*
X129985000Y-38295000D03*
X117125000Y-39050000D03*
X138535000Y-67371800D03*
X125760000Y-66175000D03*
X137735000Y-69771800D03*
X132525000Y-65370000D03*
X137360000Y-67746800D03*
X132525000Y-64420000D03*
X125760000Y-64905000D03*
X131160000Y-67445000D03*
X134510000Y-68170000D03*
X132525000Y-68225000D03*
X132525000Y-67275000D03*
X131160000Y-66175000D03*
X136935000Y-69771800D03*
X136135000Y-68971800D03*
X132525000Y-66320000D03*
X125760000Y-67445000D03*
X131160000Y-68715000D03*
X132785000Y-69175000D03*
X137735000Y-67371800D03*
X138535000Y-65771800D03*
X117175000Y-40970000D03*
X171375000Y-39410000D03*
X177910000Y-67835000D03*
X178005000Y-45765000D03*
X171375000Y-37520000D03*
X171375000Y-38470000D03*
X177935000Y-60465000D03*
X144135000Y-68171800D03*
D45*
X170392500Y-69150000D03*
D46*
X142375000Y-75585000D03*
X146535000Y-52971800D03*
X152135000Y-52971800D03*
X148935000Y-57771800D03*
X146535000Y-60171800D03*
X148935000Y-68971800D03*
X136935000Y-48171800D03*
D45*
X144467647Y-32020000D03*
D46*
X177125000Y-75585000D03*
X154685000Y-36061667D03*
X152935000Y-56171800D03*
D45*
X167237500Y-61200000D03*
D46*
X170645000Y-56545000D03*
D45*
X176435000Y-61790000D03*
D46*
X147335000Y-68971800D03*
D45*
X114225000Y-50165589D03*
X175235000Y-61190000D03*
D46*
X146535000Y-68171800D03*
X142535000Y-66571800D03*
X148935000Y-62571800D03*
X144135000Y-56171800D03*
X152935000Y-52971800D03*
D45*
X132370588Y-32020000D03*
D46*
X160135000Y-60171800D03*
D45*
X181030000Y-63392941D03*
D46*
X148135000Y-59371800D03*
X139335000Y-48171800D03*
X145735000Y-48171800D03*
X150875000Y-75585000D03*
X136935000Y-45771800D03*
X142215000Y-35045000D03*
D45*
X114225000Y-36052353D03*
X175185000Y-68545000D03*
X114225000Y-42100883D03*
D46*
X149735000Y-58571800D03*
X174125000Y-75585000D03*
X148135000Y-56171800D03*
X126160000Y-35495000D03*
X148935000Y-56971800D03*
D45*
X178742647Y-32020000D03*
D46*
X144135000Y-68971800D03*
X151335000Y-62571800D03*
X152935000Y-65771800D03*
X141735000Y-69771800D03*
X130375000Y-75585000D03*
X151715000Y-38245000D03*
X146535000Y-68971800D03*
X134359800Y-54460800D03*
X148935000Y-65771800D03*
X145735000Y-62571800D03*
D45*
X181980000Y-73645000D03*
X182775000Y-46133236D03*
X179880000Y-51465000D03*
D46*
X148135000Y-65771800D03*
X151335000Y-64971800D03*
X127385000Y-40945000D03*
X167797500Y-42520000D03*
X147335000Y-55371800D03*
D45*
X177235000Y-60690000D03*
D46*
X144135000Y-66571800D03*
X124641800Y-49533200D03*
X157735000Y-58571800D03*
D45*
X165925000Y-48045000D03*
D46*
X150915000Y-37605000D03*
D45*
X115010000Y-65399117D03*
D46*
X149735000Y-55371800D03*
X159125000Y-75585000D03*
D45*
X170392500Y-68550000D03*
X179785000Y-64220000D03*
X167282500Y-54450000D03*
D46*
X127125000Y-75585000D03*
X141360000Y-73270000D03*
X146115000Y-33445000D03*
D45*
X173585000Y-68545000D03*
X115010000Y-67415294D03*
D46*
X146535000Y-64971800D03*
X153735000Y-68171800D03*
D45*
X177305000Y-45990000D03*
D46*
X152935000Y-53771800D03*
D45*
X179880000Y-50490000D03*
D46*
X160135000Y-66571800D03*
D45*
X173635000Y-61190000D03*
D46*
X144135000Y-69771800D03*
X169625000Y-75585000D03*
X152515000Y-33445000D03*
D45*
X167307500Y-46500000D03*
D46*
X145735000Y-45771800D03*
D45*
X168907500Y-46500000D03*
D46*
X135815000Y-33445000D03*
X144935000Y-62571800D03*
X147335000Y-58571800D03*
X142995000Y-39840000D03*
D45*
X182775000Y-42100883D03*
D46*
X121125000Y-75585000D03*
X154975000Y-62570000D03*
X142535000Y-65771800D03*
X151335000Y-58571800D03*
D45*
X176480000Y-54440000D03*
X167192500Y-69150000D03*
D46*
X152135000Y-69771800D03*
X148935000Y-56171800D03*
D45*
X182775000Y-54197942D03*
D46*
X129410000Y-40775000D03*
D45*
X118257353Y-32020000D03*
X176385000Y-69145000D03*
D46*
X151335000Y-57771800D03*
D45*
X164629412Y-32020000D03*
X115975000Y-56020000D03*
D46*
X148935000Y-68171800D03*
D45*
X177110000Y-38670000D03*
D46*
X145735000Y-55371800D03*
X157735000Y-56171800D03*
D45*
X138419118Y-32020000D03*
D46*
X151335000Y-52971800D03*
X131875000Y-75585000D03*
D45*
X179835000Y-55890000D03*
D46*
X136375000Y-75585000D03*
X146535000Y-56171800D03*
D45*
X179880000Y-49515000D03*
D46*
X140935000Y-68171800D03*
D45*
X168837500Y-61200000D03*
D46*
X150535000Y-54571800D03*
X151335000Y-65771800D03*
X142535000Y-67371800D03*
X167265000Y-57830000D03*
X147335000Y-54571800D03*
X131160000Y-64905000D03*
D45*
X182775000Y-44117059D03*
D46*
X146535000Y-62571800D03*
D45*
X170677941Y-32020000D03*
D46*
X144135000Y-54571800D03*
X151335000Y-60171800D03*
X140490000Y-42095000D03*
D45*
X179785000Y-63245000D03*
D46*
X145735000Y-54571800D03*
D45*
X170022500Y-49195000D03*
X177280000Y-53940000D03*
D46*
X146535000Y-69771800D03*
X148935000Y-61771800D03*
X124485000Y-55871800D03*
X139335000Y-66571800D03*
D45*
X175185000Y-69145000D03*
D46*
X141735000Y-66571800D03*
X137875000Y-75585000D03*
X170365000Y-63870000D03*
X171125000Y-75585000D03*
D45*
X171985000Y-69145000D03*
D46*
X121445000Y-50271800D03*
X125310000Y-59420000D03*
X144135000Y-57771800D03*
D45*
X177235000Y-61290000D03*
D46*
X145470000Y-39845000D03*
X139015000Y-35045000D03*
X167410000Y-38470000D03*
X127685000Y-46970000D03*
X144135000Y-59371800D03*
X146535000Y-66571800D03*
X148935000Y-52971800D03*
X160625000Y-75585000D03*
X147335000Y-57771800D03*
X146535000Y-55371800D03*
X149735000Y-56171800D03*
X149735000Y-52971800D03*
X156135000Y-67371800D03*
X156135000Y-69771800D03*
X144935000Y-64971800D03*
X152935000Y-66571800D03*
X154535000Y-48171800D03*
X172390000Y-41220000D03*
X127310000Y-39420000D03*
X173410000Y-38375000D03*
X128325000Y-50271800D03*
X150790000Y-42145000D03*
X178581246Y-75555504D03*
D45*
X173635000Y-61790000D03*
D46*
X149735000Y-67371800D03*
X144135000Y-61771800D03*
D45*
X179905000Y-43140000D03*
X165625000Y-54145000D03*
X170507500Y-46500000D03*
X173705000Y-47090000D03*
X114225000Y-34036177D03*
D46*
X145739000Y-66576600D03*
D45*
X165542500Y-68800000D03*
D46*
X156510000Y-36364300D03*
X122885000Y-51071800D03*
X143900000Y-36645000D03*
D45*
X179905000Y-41190000D03*
D46*
X118935000Y-55570000D03*
X115635000Y-46560000D03*
X148135000Y-52971800D03*
X148135000Y-55371800D03*
X165125000Y-75585000D03*
X150535000Y-57771800D03*
D45*
X133160000Y-34445000D03*
D46*
X125285000Y-55071800D03*
X142535000Y-69771800D03*
X167747500Y-49845000D03*
X173410000Y-39245000D03*
X147335000Y-59371800D03*
D45*
X171985000Y-68545000D03*
D46*
X147335000Y-64971800D03*
X160135000Y-48171800D03*
X157735000Y-54571800D03*
X152135000Y-61771800D03*
D45*
X177960000Y-59340000D03*
D46*
X148135000Y-62571800D03*
X179125000Y-75585000D03*
X149735000Y-68971800D03*
D45*
X182775000Y-34036177D03*
D46*
X146535000Y-61771800D03*
X144935000Y-66571800D03*
X148935000Y-67371800D03*
X147335000Y-48171800D03*
X153335000Y-39845000D03*
X152135000Y-62571800D03*
X145735000Y-56171800D03*
D45*
X160597059Y-32020000D03*
D46*
X146535000Y-59371800D03*
X148135000Y-60171800D03*
D45*
X115965000Y-57800000D03*
X176726471Y-32020000D03*
D46*
X152135000Y-67371800D03*
D45*
X167282500Y-53850000D03*
X115010000Y-71320000D03*
X177185000Y-68045000D03*
D46*
X144935000Y-52971800D03*
D45*
X170437500Y-61200000D03*
X168792500Y-68550000D03*
D46*
X148935000Y-54571800D03*
X134335000Y-57245000D03*
X147335000Y-67371800D03*
X140935000Y-66571800D03*
X144160000Y-32970000D03*
X149726800Y-66576600D03*
X154685000Y-38203333D03*
X158535000Y-66571800D03*
X121835000Y-59385000D03*
X154535000Y-66571800D03*
D45*
X167192500Y-68550000D03*
X182775000Y-48149412D03*
D46*
X143335000Y-52971800D03*
X145375000Y-75585000D03*
X137540000Y-42120000D03*
D45*
X175235000Y-61790000D03*
D46*
X127395000Y-38450000D03*
X148135000Y-56971800D03*
X139335000Y-58571800D03*
D45*
X165350000Y-40695000D03*
D46*
X157625000Y-75585000D03*
D45*
X115955000Y-61360000D03*
D46*
X148135000Y-66571800D03*
X146535000Y-58571800D03*
X141735000Y-68971800D03*
D45*
X182775000Y-52181765D03*
X181985000Y-71345000D03*
X114225000Y-54197942D03*
X181025000Y-56020000D03*
D46*
X153735000Y-64971800D03*
X154685000Y-33920000D03*
X153735000Y-65771800D03*
D45*
X114225000Y-52181765D03*
D46*
X160135000Y-54571800D03*
X130735000Y-57130000D03*
X145735000Y-67371800D03*
X144935000Y-67371800D03*
X140875000Y-75585000D03*
D45*
X175280000Y-54440000D03*
D46*
X145735000Y-57771800D03*
D45*
X115960000Y-65395000D03*
D46*
X148375000Y-75585000D03*
D45*
X120273529Y-32020000D03*
D46*
X125745000Y-39920000D03*
X156135000Y-68171800D03*
X139335000Y-45771800D03*
X148935000Y-66571800D03*
X144135000Y-55371800D03*
X160135000Y-51371800D03*
D45*
X172080000Y-54440000D03*
D46*
X147335000Y-61771800D03*
X149735000Y-60171800D03*
D45*
X172105000Y-46490000D03*
D46*
X151335000Y-56971800D03*
D45*
X167237500Y-61800000D03*
D46*
X143335000Y-67371800D03*
D45*
X130860000Y-47145000D03*
D46*
X147335000Y-52971800D03*
X141735000Y-68171800D03*
X135170000Y-39845000D03*
X132830000Y-60915000D03*
X161435000Y-37059300D03*
D45*
X150516176Y-32020000D03*
D46*
X150535000Y-66571800D03*
D45*
X115010000Y-69431470D03*
D46*
X156125000Y-75585000D03*
X144135000Y-52171800D03*
X150535000Y-55371800D03*
X149735000Y-57771800D03*
X151335000Y-45771800D03*
D45*
X172105000Y-47090000D03*
D46*
X143875000Y-75585000D03*
D45*
X178005000Y-51990000D03*
D46*
X165105000Y-37920000D03*
X123685000Y-49631800D03*
X156135000Y-66571800D03*
D45*
X178035000Y-61790000D03*
D46*
X152935000Y-57771800D03*
X175625000Y-75585000D03*
X144175000Y-40360000D03*
D45*
X181030000Y-65405000D03*
X177910000Y-66695000D03*
X177235000Y-60090000D03*
D46*
X144135000Y-65771800D03*
X142535000Y-68971800D03*
X152515000Y-35045000D03*
D45*
X128435000Y-61220000D03*
X120485000Y-47145000D03*
X175305000Y-46490000D03*
X165580000Y-61495000D03*
D46*
X154535000Y-67371800D03*
X150535000Y-65771800D03*
X150535000Y-59371800D03*
X148135000Y-57771800D03*
D45*
X166645588Y-32020000D03*
D46*
X149875000Y-75585000D03*
D45*
X179880000Y-48540000D03*
D46*
X150535000Y-61771800D03*
D45*
X168907500Y-47100000D03*
D46*
X150535000Y-60171800D03*
X144935000Y-61771800D03*
D45*
X174710294Y-32020000D03*
D46*
X144935000Y-65771800D03*
X141735000Y-67371800D03*
X134875000Y-75585000D03*
X150535000Y-62571800D03*
X125625000Y-75585000D03*
X152935000Y-55371800D03*
X153735000Y-52971800D03*
X136935000Y-58571800D03*
D45*
X170437500Y-61800000D03*
D46*
X154535000Y-68971800D03*
X149735000Y-48171800D03*
X152935000Y-59371800D03*
X150535000Y-67371800D03*
X148135000Y-67371800D03*
X150535000Y-52971800D03*
X158535000Y-68971800D03*
X148135000Y-54571800D03*
X150535000Y-64971800D03*
D45*
X182775000Y-32020000D03*
X172035000Y-61790000D03*
D46*
X152935000Y-67371800D03*
D45*
X136402941Y-32020000D03*
X179785000Y-66170000D03*
D46*
X124125000Y-75585000D03*
X148135000Y-64971800D03*
D45*
X182775000Y-36052353D03*
D46*
X144935000Y-69771800D03*
D45*
X115955000Y-59580000D03*
D46*
X124485000Y-51071800D03*
X149735000Y-45771800D03*
X147335000Y-69771800D03*
X160135000Y-58571800D03*
D45*
X128338235Y-32020000D03*
X168882500Y-53850000D03*
X178080000Y-54440000D03*
D46*
X153735000Y-69771800D03*
D45*
X179835000Y-58815000D03*
X162613235Y-32020000D03*
D46*
X146535000Y-67371800D03*
X133375000Y-75585000D03*
X148135000Y-58571800D03*
X146535000Y-65771800D03*
D45*
X115010000Y-73645000D03*
D46*
X129355000Y-36420000D03*
X122885000Y-55871800D03*
X139335000Y-51371800D03*
X152935000Y-58571800D03*
D45*
X114225000Y-46133236D03*
D46*
X150115000Y-38245000D03*
X147840000Y-42145000D03*
X138535000Y-73305000D03*
D45*
X122289706Y-32020000D03*
D46*
X136935000Y-66571800D03*
D45*
X133595000Y-38770000D03*
D46*
X165105000Y-36995000D03*
X160135000Y-68971800D03*
X151335000Y-66571800D03*
X122085000Y-55071800D03*
X142535000Y-48171800D03*
X118125000Y-75585000D03*
X153125000Y-75585000D03*
D45*
X172035000Y-61190000D03*
X182775000Y-38068530D03*
D46*
X136935000Y-56171800D03*
X152935000Y-54571800D03*
X128625000Y-75585000D03*
X154625000Y-75585000D03*
X163625000Y-75585000D03*
X147335000Y-56971800D03*
X153735000Y-68971800D03*
X140935000Y-68971800D03*
X147335000Y-62571800D03*
D45*
X180758824Y-32020000D03*
D46*
X148935000Y-60171800D03*
D45*
X158580882Y-32020000D03*
D46*
X144135000Y-56971800D03*
D45*
X168792500Y-69150000D03*
D46*
X142215000Y-33445000D03*
X122625000Y-75585000D03*
X136935000Y-60171800D03*
X152935000Y-60171800D03*
D45*
X170507500Y-47100000D03*
X172694118Y-32020000D03*
D46*
X128485000Y-56671800D03*
X140935000Y-69771800D03*
X152935000Y-64971800D03*
D45*
X178030000Y-44640000D03*
D46*
X126385000Y-42820000D03*
X146875000Y-75585000D03*
X149315000Y-35045000D03*
X145735000Y-60171800D03*
X116625000Y-75585000D03*
X152935000Y-60971800D03*
X137585000Y-73305000D03*
D45*
X115960000Y-63382941D03*
D46*
X145735000Y-58571800D03*
X151335000Y-56171800D03*
X151335000Y-59371800D03*
X125385000Y-37495000D03*
D45*
X177985000Y-69145000D03*
D46*
X129285000Y-50271800D03*
D45*
X168661765Y-32020000D03*
D46*
X144135000Y-58571800D03*
D45*
X181980000Y-69441470D03*
X177185000Y-67445000D03*
D46*
X166625000Y-75585000D03*
X148935000Y-59371800D03*
X146535000Y-57771800D03*
X152935000Y-56971800D03*
X147335000Y-56171800D03*
X119625000Y-75585000D03*
X121445000Y-56671800D03*
X115125000Y-75585000D03*
D45*
X182775000Y-56010000D03*
D46*
X160135000Y-56171800D03*
X172625000Y-75585000D03*
D45*
X114225000Y-56010000D03*
X181980000Y-74520000D03*
D46*
X168125000Y-75585000D03*
X160135000Y-45771800D03*
X151335000Y-69771800D03*
X139335000Y-54571800D03*
X157735000Y-51371800D03*
X155035000Y-53021800D03*
D45*
X175305000Y-47090000D03*
X165280000Y-55395000D03*
D46*
X136935000Y-54571800D03*
X141865000Y-61980000D03*
D45*
X177305000Y-45390000D03*
D46*
X150915000Y-35045000D03*
D45*
X152532353Y-32020000D03*
X170482500Y-53850000D03*
X165842500Y-62745000D03*
D46*
X151335000Y-67371800D03*
D45*
X165650000Y-46795000D03*
D46*
X149735000Y-62571800D03*
D45*
X116241176Y-32020000D03*
X173705000Y-46490000D03*
D46*
X149735000Y-69771800D03*
X139335000Y-63371800D03*
D45*
X115010000Y-75050000D03*
D46*
X139335000Y-56171800D03*
X146535000Y-54571800D03*
X160135000Y-63371800D03*
D45*
X165880000Y-55395000D03*
D46*
X144935000Y-68971800D03*
D45*
X114225000Y-44117059D03*
X142451471Y-32020000D03*
X175280000Y-53840000D03*
X181980000Y-65409117D03*
D46*
X140615000Y-35045000D03*
D45*
X181045000Y-61360000D03*
D46*
X172340000Y-48545000D03*
X136935000Y-63371800D03*
X152135000Y-68971800D03*
D45*
X140435294Y-32020000D03*
D46*
X152139800Y-66577200D03*
D45*
X146483824Y-32020000D03*
D46*
X156135000Y-68971800D03*
D45*
X173585000Y-69145000D03*
D46*
X144135000Y-67371800D03*
D45*
X148500000Y-32020000D03*
D46*
X125340000Y-40920000D03*
X152935000Y-52171800D03*
X145735000Y-56971800D03*
X125285000Y-51871800D03*
X149735000Y-59371800D03*
X147335000Y-65771800D03*
X145735000Y-59371800D03*
D45*
X170482500Y-54450000D03*
X114225000Y-32020000D03*
D46*
X157735000Y-45771800D03*
D45*
X168837500Y-61800000D03*
X114225000Y-38068530D03*
X181045000Y-59580000D03*
X179835000Y-56865000D03*
D46*
X150535000Y-56171800D03*
X124435000Y-67740000D03*
D45*
X179905000Y-44115000D03*
D46*
X145735000Y-61771800D03*
D45*
X165950000Y-40695000D03*
D46*
X153735000Y-67371800D03*
X162125000Y-75585000D03*
X157735000Y-63371800D03*
X144135000Y-52971800D03*
D45*
X177185000Y-68645000D03*
D46*
X153735000Y-52171800D03*
D45*
X114225000Y-40084706D03*
X126322059Y-32020000D03*
X165325000Y-48045000D03*
D46*
X153735000Y-66571800D03*
X151335000Y-68171800D03*
X144135000Y-53771800D03*
D45*
X177305000Y-46590000D03*
X179905000Y-42165000D03*
D46*
X147335000Y-66571800D03*
X144135000Y-64971800D03*
D45*
X181035000Y-57800000D03*
D46*
X149735000Y-61771800D03*
X140615000Y-37605000D03*
X139815000Y-38245000D03*
X139375000Y-75585000D03*
X147335000Y-45771800D03*
X150535000Y-56971800D03*
X145735000Y-52971800D03*
X148135000Y-61771800D03*
X149735000Y-56971800D03*
X147335000Y-60171800D03*
X127420000Y-35345000D03*
D45*
X178105000Y-47090000D03*
X177280000Y-52740000D03*
X168882500Y-54450000D03*
D46*
X151335000Y-54571800D03*
X151335000Y-68971800D03*
X148935000Y-69771800D03*
D45*
X181980000Y-67425294D03*
X114225000Y-48149412D03*
D46*
X144135000Y-60171800D03*
X151335000Y-61771800D03*
X125930000Y-56671800D03*
X150535000Y-58571800D03*
X142535000Y-45771800D03*
X141415000Y-38245000D03*
D45*
X173680000Y-53840000D03*
X170072500Y-41870000D03*
X179835000Y-57840000D03*
D46*
X152935000Y-61771800D03*
X149735000Y-54571800D03*
X122085000Y-51871800D03*
X151335000Y-55371800D03*
X144420000Y-36645000D03*
D45*
X165242500Y-62745000D03*
X182775000Y-40084706D03*
D46*
X124885000Y-39060000D03*
D45*
X177280000Y-53340000D03*
X173680000Y-54440000D03*
D46*
X144135000Y-60971800D03*
X148935000Y-64971800D03*
D45*
X167307500Y-47100000D03*
D46*
X136935000Y-68971800D03*
X154535000Y-45771800D03*
X151335000Y-48171800D03*
D45*
X156564706Y-32020000D03*
X154548529Y-32020000D03*
X176505000Y-47090000D03*
D46*
X136935000Y-51371800D03*
X157735000Y-48171800D03*
D45*
X182775000Y-50165589D03*
D46*
X140935000Y-67371800D03*
X118935000Y-50620000D03*
D45*
X179785000Y-65195000D03*
D46*
X148935000Y-55371800D03*
X148935000Y-58571800D03*
X139335000Y-68971800D03*
X154535000Y-69771800D03*
D45*
X134386765Y-32020000D03*
X172080000Y-53840000D03*
X130354412Y-32020000D03*
D46*
X146535000Y-56971800D03*
D45*
X124305882Y-32020000D03*
D46*
X143335000Y-52171800D03*
D45*
X129310000Y-47145000D03*
D46*
X129410000Y-41420000D03*
X179910000Y-47165000D03*
X175955000Y-45765000D03*
X175885000Y-60465000D03*
X179840000Y-61865000D03*
X179885000Y-54515000D03*
X175930000Y-53115000D03*
D45*
X174510000Y-56390000D03*
D46*
X177980000Y-53115000D03*
D45*
X174460000Y-63145000D03*
X181335000Y-75420000D03*
X175355000Y-48440000D03*
X174580000Y-41090000D03*
X175380000Y-41090000D03*
X174510000Y-55790000D03*
X175380000Y-41690000D03*
X173410000Y-40205000D03*
X174460000Y-63745000D03*
X174555000Y-48440000D03*
X180735000Y-75420000D03*
X175260000Y-63745000D03*
X174580000Y-41690000D03*
X175355000Y-49040000D03*
X175310000Y-56390000D03*
X175310000Y-55790000D03*
X180135000Y-75420000D03*
X174555000Y-49040000D03*
X175260000Y-63145000D03*
D47*
X164142500Y-69475000D02*
X164142500Y-68400000D01*
X164292500Y-69625000D02*
X178455000Y-69625000D01*
X178585000Y-69170000D02*
X178585000Y-69495000D01*
X168967500Y-64525000D02*
X169955000Y-64525000D01*
X168692500Y-66650000D02*
X168692500Y-64800000D01*
X179860000Y-68350000D02*
X179860000Y-68750000D01*
X167992500Y-67025000D02*
X168317500Y-67025000D01*
X164292500Y-69625000D02*
X164142500Y-69475000D01*
X178585000Y-69495000D02*
X178455000Y-69625000D01*
X168692500Y-64800000D02*
X168967500Y-64525000D01*
X179860000Y-68750000D02*
X179740000Y-68870000D01*
X178885000Y-68870000D02*
X178585000Y-69170000D01*
X179740000Y-68870000D02*
X178885000Y-68870000D01*
X168317500Y-67025000D02*
X168692500Y-66650000D01*
D48*
X164555000Y-34160000D02*
X164545000Y-34150000D01*
D47*
X169410000Y-42495000D02*
X170012500Y-42495000D01*
X179475000Y-46720000D02*
X179475000Y-47495000D01*
X179955000Y-46240000D02*
X179475000Y-46720000D01*
D49*
X126385000Y-41320000D02*
X125985000Y-40920000D01*
X126885000Y-35570000D02*
X126760000Y-35445000D01*
D47*
X168750000Y-43155000D02*
X169410000Y-42495000D01*
D49*
X127395000Y-37390000D02*
X127385000Y-37380000D01*
D50*
X130085000Y-56671800D02*
X130085000Y-57070000D01*
D49*
X127885000Y-35520000D02*
X128060000Y-35345000D01*
X127385000Y-37380000D02*
X127385000Y-36920000D01*
D47*
X164370000Y-47665000D02*
X164250000Y-47545000D01*
X168375000Y-44995000D02*
X168750000Y-44620000D01*
X179305000Y-47665000D02*
X164370000Y-47665000D01*
D51*
X125285000Y-50271800D02*
X125285000Y-49536400D01*
D49*
X127385000Y-36920000D02*
X127385000Y-36420000D01*
X126385000Y-41420000D02*
X126385000Y-41320000D01*
D48*
X166685000Y-34160000D02*
X164555000Y-34160000D01*
D47*
X164250000Y-47545000D02*
X164250000Y-46270000D01*
X168050000Y-44995000D02*
X168375000Y-44995000D01*
D48*
X164565000Y-34170000D02*
X164545000Y-34150000D01*
D49*
X127885000Y-35920000D02*
X127885000Y-35520000D01*
X126885000Y-35920000D02*
X126885000Y-35570000D01*
D47*
X179475000Y-47495000D02*
X179305000Y-47665000D01*
X168750000Y-44620000D02*
X168750000Y-43155000D01*
D51*
X153460000Y-63096800D02*
X153943200Y-63096800D01*
X143098200Y-51666800D02*
X142831808Y-51933192D01*
X152935000Y-62571800D02*
X153460000Y-63096800D01*
X152410000Y-63096800D02*
X152935000Y-62571800D01*
X144135000Y-62571800D02*
X143610000Y-63096800D01*
X143335000Y-54571800D02*
X142818000Y-55088800D01*
D47*
X164300000Y-62365000D02*
X164180000Y-62245000D01*
D51*
X142818000Y-60688800D02*
X143335000Y-60171800D01*
D47*
X168955000Y-57195000D02*
X169942500Y-57195000D01*
D51*
X146240000Y-51666800D02*
X145735000Y-52171800D01*
D47*
X168680000Y-57470000D02*
X168955000Y-57195000D01*
D51*
X153735000Y-54571800D02*
X154248000Y-54058800D01*
X150830000Y-51666800D02*
X146240000Y-51666800D01*
D47*
X179360000Y-61465000D02*
X179360000Y-62240000D01*
D51*
X142818000Y-51980279D02*
X142818000Y-54054800D01*
X144660000Y-63096800D02*
X152410000Y-63096800D01*
X154044800Y-51666800D02*
X151840000Y-51666800D01*
X142831808Y-51933192D02*
X142831808Y-51962086D01*
D47*
X164300000Y-62365000D02*
X179235000Y-62365000D01*
D51*
X142818000Y-55088800D02*
X142818000Y-59654800D01*
X153943200Y-63096800D02*
X154248000Y-62792000D01*
X142834000Y-51964279D02*
X142818000Y-51980279D01*
X151840000Y-51666800D02*
X151335000Y-52171800D01*
X151335000Y-52171800D02*
X150830000Y-51666800D01*
X144135000Y-62571800D02*
X144660000Y-63096800D01*
D47*
X179885000Y-60940000D02*
X179360000Y-61465000D01*
D51*
X143610000Y-63096800D02*
X143137140Y-63096800D01*
X143137140Y-63096800D02*
X142818000Y-62777660D01*
D47*
X179360000Y-62240000D02*
X179235000Y-62365000D01*
D51*
X142818000Y-54054800D02*
X143335000Y-54571800D01*
X145735000Y-52171800D02*
X145230000Y-51666800D01*
X154248000Y-60684800D02*
X153735000Y-60171800D01*
D47*
X168680000Y-59320000D02*
X168680000Y-57470000D01*
D51*
X154248000Y-54058800D02*
X154248000Y-51870000D01*
D47*
X164180000Y-62245000D02*
X164180000Y-60970000D01*
X168305000Y-59695000D02*
X168680000Y-59320000D01*
D51*
X142818000Y-59654800D02*
X143335000Y-60171800D01*
D47*
X167980000Y-59695000D02*
X168305000Y-59695000D01*
D51*
X154248000Y-62792000D02*
X154248000Y-60684800D01*
X142818000Y-62777660D02*
X142818000Y-60688800D01*
X145230000Y-51666800D02*
X143098200Y-51666800D01*
X154248000Y-51870000D02*
X154044800Y-51666800D01*
D47*
X164225000Y-54895000D02*
X164225000Y-53620000D01*
X169000000Y-49845000D02*
X169987500Y-49845000D01*
D49*
X124385000Y-38420000D02*
X124885000Y-38420000D01*
D47*
X164345000Y-55015000D02*
X164225000Y-54895000D01*
D49*
X160935000Y-36309300D02*
X161380000Y-36309300D01*
D48*
X173005000Y-36200000D02*
X173795000Y-36200000D01*
D49*
X126385000Y-40420000D02*
X126385000Y-39920000D01*
D47*
X168025000Y-52345000D02*
X168350000Y-52345000D01*
D49*
X157185000Y-37059300D02*
X156540000Y-37059300D01*
D47*
X179405000Y-54890000D02*
X179280000Y-55015000D01*
X168725000Y-50120000D02*
X169000000Y-49845000D01*
X168350000Y-52345000D02*
X168725000Y-51970000D01*
X179405000Y-54115000D02*
X179405000Y-54890000D01*
X168725000Y-51970000D02*
X168725000Y-50120000D01*
D48*
X172395000Y-36810000D02*
X173005000Y-36200000D01*
D47*
X179930000Y-53590000D02*
X179405000Y-54115000D01*
D49*
X124885000Y-37920000D02*
X124885000Y-38420000D01*
X161380000Y-36309300D02*
X161435000Y-36364300D01*
D47*
X164345000Y-55015000D02*
X179280000Y-55015000D01*
D48*
X172395000Y-37520000D02*
X172395000Y-36810000D01*
X173795000Y-36200000D02*
X175825000Y-34170000D01*
D49*
X126885000Y-39920000D02*
X126385000Y-39920000D01*
D52*
X167717500Y-57195000D02*
X168435000Y-57195000D01*
D53*
X171350000Y-55895000D02*
X170695000Y-55895000D01*
D52*
X168435000Y-57195000D02*
X169035000Y-56595000D01*
X167797500Y-43170000D02*
X168285000Y-43170000D01*
D53*
X171300000Y-63225000D02*
X171305000Y-63220000D01*
D52*
X169185000Y-41370000D02*
X169335000Y-41220000D01*
X167680000Y-65175000D02*
X167680000Y-64525000D01*
X168480000Y-64525000D02*
X168960000Y-64045000D01*
D53*
X170022500Y-48545000D02*
X171380000Y-48545000D01*
D52*
X169335000Y-41220000D02*
X170072500Y-41220000D01*
D53*
X170725000Y-63220000D02*
X170730000Y-63225000D01*
D52*
X169235000Y-55895000D02*
X169992500Y-55895000D01*
D53*
X169955000Y-63225000D02*
X170720000Y-63225000D01*
D52*
X168960000Y-64045000D02*
X168960000Y-63470000D01*
X167680000Y-64525000D02*
X168480000Y-64525000D01*
X169185000Y-42270000D02*
X169185000Y-41370000D01*
D53*
X170665000Y-55895000D02*
X169992500Y-55895000D01*
D52*
X168285000Y-43170000D02*
X169185000Y-42270000D01*
D53*
X170720000Y-63225000D02*
X170725000Y-63220000D01*
D52*
X169035000Y-56095000D02*
X169235000Y-55895000D01*
X168960000Y-63470000D02*
X169205000Y-63225000D01*
D53*
X170695000Y-55895000D02*
X170665000Y-55895000D01*
X170072500Y-41220000D02*
X171430000Y-41220000D01*
D52*
X169035000Y-56595000D02*
X169035000Y-56095000D01*
D53*
X170730000Y-63225000D02*
X171300000Y-63225000D01*
D52*
X169205000Y-63225000D02*
X169955000Y-63225000D01*
X138936800Y-55770000D02*
X139335000Y-55371800D01*
X135235000Y-56320000D02*
X135785000Y-55770000D01*
X132830000Y-59015000D02*
X134090000Y-59015000D01*
X135235000Y-57870000D02*
X135235000Y-56320000D01*
X134090000Y-59015000D02*
X135235000Y-57870000D01*
X135785000Y-55770000D02*
X138936800Y-55770000D01*
X141210000Y-53695000D02*
X141460000Y-53445000D01*
D54*
X125714200Y-56280000D02*
X125724200Y-56270000D01*
D52*
X132785000Y-53695000D02*
X141210000Y-53695000D01*
X141460000Y-51595000D02*
X141236800Y-51371800D01*
D48*
X132584400Y-56289600D02*
X132600000Y-56305200D01*
D52*
X132630000Y-53850000D02*
X132785000Y-53695000D01*
X141460000Y-53445000D02*
X141460000Y-51595000D01*
D54*
X125724200Y-56270000D02*
X132354800Y-56270000D01*
D52*
X132364800Y-56280000D02*
X132374400Y-56289600D01*
X141236800Y-51371800D02*
X140935000Y-51371800D01*
X132630000Y-54451000D02*
X132630000Y-53850000D01*
D54*
X132354800Y-56270000D02*
X132364800Y-56280000D01*
D52*
X125306000Y-55871800D02*
X125714200Y-56280000D01*
X121025000Y-42850000D02*
X127295000Y-49120000D01*
X142295000Y-50290000D02*
X146715000Y-50290000D01*
X117189700Y-42850000D02*
X121025000Y-42850000D01*
X135615000Y-49410000D02*
X141415000Y-49410000D01*
X146955000Y-50050000D02*
X146955000Y-49351800D01*
X135325000Y-49120000D02*
X135615000Y-49410000D01*
X146955000Y-49351800D02*
X147335000Y-48971800D01*
X146715000Y-50290000D02*
X146955000Y-50050000D01*
X117140000Y-42899700D02*
X117189700Y-42850000D01*
X127295000Y-49120000D02*
X135325000Y-49120000D01*
X141415000Y-49410000D02*
X142295000Y-50290000D01*
X135245000Y-49900000D02*
X141075000Y-49900000D01*
X147745000Y-49361800D02*
X147745000Y-50030000D01*
X147045000Y-50730000D02*
X147745000Y-50030000D01*
X148135000Y-48971800D02*
X147745000Y-49361800D01*
X122215000Y-44690000D02*
X127035000Y-49510000D01*
X141905000Y-50730000D02*
X147045000Y-50730000D01*
X141075000Y-49900000D02*
X141905000Y-50730000D01*
X127035000Y-49510000D02*
X134855000Y-49510000D01*
X134855000Y-49510000D02*
X135245000Y-49900000D01*
X117140000Y-44690000D02*
X122215000Y-44690000D01*
X146115000Y-35045000D02*
X146115000Y-35825000D01*
X146115000Y-35825000D02*
X146385000Y-36095000D01*
D54*
X141260000Y-41345000D02*
X140215000Y-40300000D01*
X140215000Y-37000000D02*
X138615000Y-35400000D01*
X140935000Y-43095000D02*
X141260000Y-42770000D01*
D52*
X148466471Y-34245000D02*
X148515000Y-34245000D01*
D54*
X140935000Y-44971800D02*
X140935000Y-43095000D01*
X140215000Y-40300000D02*
X140215000Y-37000000D01*
X138615000Y-34645000D02*
X138215000Y-34245000D01*
X141260000Y-42770000D02*
X141260000Y-41345000D01*
X138615000Y-35400000D02*
X138615000Y-34645000D01*
X135110000Y-43670000D02*
X136411800Y-44971800D01*
X138215000Y-35045000D02*
X138215000Y-35615000D01*
X136215000Y-40065000D02*
X135110000Y-41170000D01*
X136215000Y-37615000D02*
X136215000Y-40065000D01*
X135110000Y-41170000D02*
X135110000Y-43670000D01*
X136411800Y-44971800D02*
X136885000Y-44971800D01*
X138215000Y-35615000D02*
X136215000Y-37615000D01*
X142420000Y-42995000D02*
X142160000Y-42995000D01*
X141935000Y-41070000D02*
X142255000Y-41070000D01*
X142160000Y-42995000D02*
X141735000Y-43420000D01*
X141015000Y-40150000D02*
X141935000Y-41070000D01*
X142255000Y-41070000D02*
X142895000Y-41710000D01*
X138215000Y-33445000D02*
X138615000Y-33845000D01*
X142895000Y-41710000D02*
X142895000Y-42520000D01*
X139415000Y-35275000D02*
X141015000Y-36875000D01*
X139415000Y-34000000D02*
X139415000Y-35275000D01*
X139260000Y-33845000D02*
X139415000Y-34000000D01*
X142895000Y-42520000D02*
X142420000Y-42995000D01*
X141015000Y-36875000D02*
X141015000Y-40150000D01*
X141735000Y-43420000D02*
X141735000Y-44971800D01*
X138615000Y-33845000D02*
X139260000Y-33845000D01*
X139415000Y-39445000D02*
X139015000Y-39045000D01*
X139415000Y-40400000D02*
X139415000Y-39445000D01*
X140385000Y-45745000D02*
X140385000Y-43920000D01*
X140385000Y-43920000D02*
X139810000Y-43345000D01*
X139810000Y-40795000D02*
X139415000Y-40400000D01*
X139985000Y-45920000D02*
X140210000Y-45920000D01*
X139810000Y-43345000D02*
X139810000Y-40795000D01*
X139735000Y-45371800D02*
X139735000Y-45670000D01*
X139335000Y-44971800D02*
X139735000Y-45371800D01*
X140210000Y-45920000D02*
X140385000Y-45745000D01*
X139735000Y-45670000D02*
X139985000Y-45920000D01*
X138235000Y-41645000D02*
X138235000Y-42490000D01*
X136960000Y-43720000D02*
X137735000Y-44495000D01*
X136960000Y-43320000D02*
X136960000Y-43720000D01*
X137855000Y-42870000D02*
X137410000Y-42870000D01*
X137815000Y-41225000D02*
X138235000Y-41645000D01*
X137410000Y-42870000D02*
X136960000Y-43320000D01*
X137815000Y-38645000D02*
X137815000Y-41225000D01*
X138215000Y-38245000D02*
X137815000Y-38645000D01*
X137735000Y-44495000D02*
X137735000Y-44971800D01*
X138235000Y-42490000D02*
X137855000Y-42870000D01*
D52*
X136510000Y-40795000D02*
X136510000Y-41320000D01*
X137335000Y-44720000D02*
X137335000Y-45370000D01*
X136510000Y-41320000D02*
X136760000Y-41570000D01*
X136760000Y-41570000D02*
X136760000Y-42670000D01*
X136560000Y-44395000D02*
X137010000Y-44395000D01*
X136210000Y-43220000D02*
X136210000Y-44045000D01*
X137010000Y-44395000D02*
X137335000Y-44720000D01*
X136210000Y-44045000D02*
X136560000Y-44395000D01*
X137335000Y-45370000D02*
X137735000Y-45770000D01*
X137415000Y-39845000D02*
X137415000Y-39890000D01*
X137735000Y-45770000D02*
X137735000Y-45771800D01*
X136760000Y-42670000D02*
X136210000Y-43220000D01*
X137415000Y-39890000D02*
X136510000Y-40795000D01*
D54*
X138683200Y-44971800D02*
X138535000Y-44971800D01*
X138215000Y-39050000D02*
X138615000Y-39450000D01*
X139310000Y-44345000D02*
X139278003Y-44376997D01*
X138570045Y-43613665D02*
X138570045Y-43733665D01*
X138615000Y-39450000D02*
X138615000Y-40275000D01*
X139310000Y-44333665D02*
X139310000Y-44345000D01*
X139310000Y-44213665D02*
X139310000Y-44333665D01*
X139310000Y-40970000D02*
X139310000Y-43133665D01*
X138615000Y-40275000D02*
X139310000Y-40970000D01*
X138810045Y-43973665D02*
X139070000Y-43973665D01*
X139070000Y-43373665D02*
X138810045Y-43373665D01*
X139278003Y-44376997D02*
X138683200Y-44971800D01*
X138215000Y-39045000D02*
X138215000Y-39050000D01*
X138570045Y-43733665D02*
G75*
G03*
X138810045Y-43973655I239955J-35D01*
G01*
X139310000Y-43133665D02*
G75*
G02*
X139070000Y-43373700I-240000J-35D01*
G01*
X138810045Y-43373665D02*
G75*
G03*
X138569965Y-43613665I-45J-240035D01*
G01*
X139070000Y-43973665D02*
G75*
G02*
X139310035Y-44213665I0J-240035D01*
G01*
D52*
X138260000Y-40820000D02*
X138260000Y-39845000D01*
X138135000Y-43220000D02*
X138760000Y-42595000D01*
X138535000Y-45771800D02*
X138935000Y-46171800D01*
X138335000Y-46970000D02*
X138135000Y-46770000D01*
X138735000Y-46970000D02*
X138335000Y-46970000D01*
X138760000Y-42595000D02*
X138760000Y-41320000D01*
X138760000Y-41320000D02*
X138260000Y-40820000D01*
X138135000Y-46770000D02*
X138135000Y-43220000D01*
X138935000Y-46171800D02*
X138935000Y-46770000D01*
X138935000Y-46770000D02*
X138735000Y-46970000D01*
X144483173Y-40845000D02*
X144260000Y-40845000D01*
X143410000Y-42756396D02*
X142535000Y-43631396D01*
X145860000Y-37045000D02*
X144935000Y-37970000D01*
X146860000Y-37045000D02*
X145860000Y-37045000D01*
X144935000Y-37970000D02*
X144935000Y-40393173D01*
X144260000Y-40845000D02*
X143410000Y-41695000D01*
X144935000Y-40393173D02*
X144483173Y-40845000D01*
X148515000Y-35045000D02*
X148515000Y-35390000D01*
X142535000Y-43631396D02*
X142535000Y-44971800D01*
X143410000Y-41695000D02*
X143410000Y-42756396D01*
X148515000Y-35390000D02*
X146860000Y-37045000D01*
D54*
X148915000Y-35375000D02*
X150515000Y-36975000D01*
X148135000Y-44170000D02*
X148135000Y-44971800D01*
X148515000Y-33445000D02*
X148915000Y-33845000D01*
X150515000Y-36975000D02*
X150515000Y-40440000D01*
X150515000Y-40440000D02*
X150035000Y-40920000D01*
X148910000Y-43895000D02*
X148410000Y-43895000D01*
X150035000Y-42770000D02*
X148910000Y-43895000D01*
X148410000Y-43895000D02*
X148135000Y-44170000D01*
X150035000Y-40920000D02*
X150035000Y-42770000D01*
X148915000Y-33845000D02*
X148915000Y-35375000D01*
X149495000Y-40635000D02*
X149495000Y-42540000D01*
X149495000Y-42540000D02*
X148590000Y-43445000D01*
X149315000Y-39045000D02*
X149715000Y-39445000D01*
X149715000Y-39445000D02*
X149715000Y-40415000D01*
X149715000Y-40415000D02*
X149495000Y-40635000D01*
X147535000Y-43445000D02*
X147335000Y-43645000D01*
X148590000Y-43445000D02*
X147535000Y-43445000D01*
X147335000Y-43645000D02*
X147335000Y-44971800D01*
X148115000Y-38645000D02*
X148115000Y-40315000D01*
X144445000Y-42185000D02*
X144445000Y-43230000D01*
X148515000Y-38245000D02*
X148115000Y-38645000D01*
X144445000Y-43230000D02*
X144135000Y-43540000D01*
X144135000Y-43540000D02*
X144135000Y-44971800D01*
X148115000Y-40315000D02*
X147522500Y-40907500D01*
X145722500Y-40907500D02*
X144445000Y-42185000D01*
X147522500Y-40907500D02*
X145722500Y-40907500D01*
D52*
X147715000Y-40065000D02*
X147310000Y-40470000D01*
X144685000Y-41295000D02*
X144540000Y-41295000D01*
X143935000Y-41900000D02*
X143935000Y-43000000D01*
X147310000Y-40470000D02*
X145510000Y-40470000D01*
X144540000Y-41295000D02*
X143935000Y-41900000D01*
X143935000Y-43000000D02*
X143360000Y-43575000D01*
X143360000Y-44946800D02*
X143335000Y-44971800D01*
X143360000Y-43575000D02*
X143360000Y-44946800D01*
X145510000Y-40470000D02*
X144685000Y-41295000D01*
X147715000Y-39845000D02*
X147715000Y-40065000D01*
D54*
X146535000Y-43120000D02*
X146535000Y-44971800D01*
X148915000Y-42340000D02*
X148260000Y-42995000D01*
X146660000Y-42995000D02*
X146535000Y-43120000D01*
X148260000Y-42995000D02*
X146660000Y-42995000D01*
X148515000Y-39045000D02*
X148915000Y-39445000D01*
X148915000Y-39445000D02*
X148915000Y-42340000D01*
D52*
X145485000Y-41795000D02*
X145485000Y-43195000D01*
X145485000Y-43195000D02*
X145760000Y-43470000D01*
X148515000Y-39845000D02*
X148515000Y-40620000D01*
X145910000Y-41370000D02*
X145485000Y-41795000D01*
X145760000Y-43470000D02*
X145760000Y-44946800D01*
X147765000Y-41370000D02*
X145910000Y-41370000D01*
X148515000Y-40620000D02*
X147765000Y-41370000D01*
X145760000Y-44946800D02*
X145735000Y-44971800D01*
X158685000Y-34059300D02*
X158678395Y-34059300D01*
X158678395Y-34059300D02*
X158311348Y-34426347D01*
X159435000Y-34065905D02*
X159802047Y-34432952D01*
X159435000Y-34059300D02*
X159435000Y-34065905D01*
X159435000Y-39309300D02*
X159435000Y-39960000D01*
X155595000Y-43800000D02*
X154906800Y-43800000D01*
X159435000Y-39960000D02*
X155595000Y-43800000D01*
X154906800Y-43800000D02*
X153735000Y-44971800D01*
X155980000Y-44150000D02*
X155356800Y-44150000D01*
X160185000Y-39309300D02*
X160185000Y-39945000D01*
X155356800Y-44150000D02*
X154535000Y-44971800D01*
X160185000Y-39945000D02*
X155980000Y-44150000D01*
X158275000Y-38950000D02*
X158300905Y-38950000D01*
X158685000Y-38565905D02*
X158685000Y-38559300D01*
X158300905Y-38950000D02*
X158685000Y-38565905D01*
X159039095Y-38915905D02*
X159085000Y-38915905D01*
X159085000Y-38915905D02*
X159435000Y-38565905D01*
X159035000Y-38920000D02*
X159039095Y-38915905D01*
X159435000Y-38565905D02*
X159435000Y-38559300D01*
X158275000Y-38170000D02*
X158330905Y-38170000D01*
X158685000Y-37815905D02*
X158685000Y-37809300D01*
X158330905Y-38170000D02*
X158685000Y-37815905D01*
X159085000Y-38165905D02*
X159435000Y-37815905D01*
X159435000Y-37815905D02*
X159435000Y-37809300D01*
X159035000Y-38170000D02*
X159039095Y-38165905D01*
X159039095Y-38165905D02*
X159085000Y-38165905D01*
X159428395Y-37059300D02*
X159435000Y-37059300D01*
X159035000Y-37400000D02*
X159075000Y-37400000D01*
X159107695Y-37380000D02*
X159428395Y-37059300D01*
X159075000Y-37400000D02*
X159095000Y-37380000D01*
X159095000Y-37380000D02*
X159107695Y-37380000D01*
X158691605Y-36309300D02*
X158685000Y-36309300D01*
X159035000Y-36680000D02*
X159035000Y-36652695D01*
X159035000Y-36652695D02*
X158691605Y-36309300D01*
X160552047Y-34410000D02*
X160529095Y-34410000D01*
X160185000Y-34065905D02*
X160185000Y-34059300D01*
X160529095Y-34410000D02*
X160185000Y-34065905D01*
X158685000Y-34809300D02*
X158678395Y-34809300D01*
X158678395Y-34809300D02*
X158301348Y-35186347D01*
X159435000Y-34809300D02*
X159441605Y-34809300D01*
X159441605Y-34809300D02*
X159818653Y-35186348D01*
X158691605Y-35559300D02*
X159063653Y-35931348D01*
X158685000Y-35559300D02*
X158691605Y-35559300D01*
X159775000Y-35892695D02*
X159441605Y-35559300D01*
X159441605Y-35559300D02*
X159435000Y-35559300D01*
X159775000Y-35920000D02*
X159775000Y-35892695D01*
X159441605Y-36309300D02*
X159435000Y-36309300D01*
X159795000Y-36676348D02*
X159795000Y-36662695D01*
X159795000Y-36662695D02*
X159441605Y-36309300D01*
X154215000Y-42900000D02*
X152143200Y-44971800D01*
X157935000Y-39309300D02*
X157935000Y-39970000D01*
X152143200Y-44971800D02*
X151335000Y-44971800D01*
X157935000Y-39970000D02*
X155005000Y-42900000D01*
X155005000Y-42900000D02*
X154215000Y-42900000D01*
X155255000Y-43370000D02*
X154536800Y-43370000D01*
X158685000Y-39940000D02*
X155255000Y-43370000D01*
X154536800Y-43370000D02*
X152935000Y-44971800D01*
X158685000Y-39309300D02*
X158685000Y-39940000D01*
X161524300Y-34809300D02*
X161525000Y-34810000D01*
X160935000Y-34809300D02*
X161524300Y-34809300D01*
X160191605Y-35559300D02*
X160558653Y-35926348D01*
X160185000Y-35559300D02*
X160191605Y-35559300D01*
X157941605Y-35559300D02*
X158318653Y-35936348D01*
X157935000Y-35559300D02*
X157941605Y-35559300D01*
X158275000Y-36670000D02*
X158275000Y-36642695D01*
X158275000Y-36642695D02*
X157941605Y-36309300D01*
X157941605Y-36309300D02*
X157935000Y-36309300D01*
X157941605Y-37059300D02*
X157935000Y-37059300D01*
X158262305Y-37380000D02*
X157941605Y-37059300D01*
X158275000Y-37380000D02*
X158262305Y-37380000D01*
X154760000Y-42370000D02*
X154035000Y-42370000D01*
X152185000Y-44220000D02*
X151185000Y-44220000D01*
X150935000Y-44470000D02*
X150935000Y-48571800D01*
X154035000Y-42370000D02*
X152185000Y-44220000D01*
X157560000Y-38184300D02*
X157560000Y-39570000D01*
X150935000Y-48571800D02*
X150535000Y-48971800D01*
X157560000Y-39570000D02*
X154760000Y-42370000D01*
X157935000Y-37809300D02*
X157560000Y-38184300D01*
X151185000Y-44220000D02*
X150935000Y-44470000D01*
X151585000Y-41620000D02*
X151585000Y-42795000D01*
X156645700Y-37809300D02*
X153460000Y-40995000D01*
X152210000Y-40995000D02*
X151585000Y-41620000D01*
X150335000Y-43320000D02*
X149345000Y-44310000D01*
X151060000Y-43320000D02*
X150335000Y-43320000D01*
X151585000Y-42795000D02*
X151060000Y-43320000D01*
X149345000Y-44310000D02*
X149345000Y-48561800D01*
X153460000Y-40995000D02*
X152210000Y-40995000D01*
X149345000Y-48561800D02*
X148935000Y-48971800D01*
X157185000Y-37809300D02*
X156645700Y-37809300D01*
X157035700Y-38559300D02*
X151725000Y-43870000D01*
X150660000Y-43870000D02*
X150135000Y-44395000D01*
X151725000Y-43870000D02*
X150660000Y-43870000D01*
X157185000Y-38559300D02*
X157035700Y-38559300D01*
X150135000Y-44395000D02*
X150135000Y-48571800D01*
X150135000Y-48571800D02*
X149735000Y-48971800D01*
X161515000Y-35580000D02*
X161515000Y-35560000D01*
X161514300Y-35559300D02*
X160935000Y-35559300D01*
X161515000Y-35560000D02*
X161514300Y-35559300D01*
X160191605Y-36309300D02*
X160568653Y-36686348D01*
X160185000Y-36309300D02*
X160191605Y-36309300D01*
X160191605Y-37059300D02*
X160558653Y-37426348D01*
X160185000Y-37059300D02*
X160191605Y-37059300D01*
X159835000Y-38152695D02*
X160178395Y-37809300D01*
X159812305Y-38152695D02*
X159835000Y-38152695D01*
X160178395Y-37809300D02*
X160185000Y-37809300D01*
X159795000Y-38170000D02*
X159812305Y-38152695D01*
X160935000Y-37809300D02*
X161295000Y-38169300D01*
X161295000Y-38169300D02*
X161295000Y-40235000D01*
X161295000Y-40235000D02*
X156558200Y-44971800D01*
X156558200Y-44971800D02*
X156135000Y-44971800D01*
X160710000Y-40125000D02*
X156290000Y-44545000D01*
X160560000Y-39445000D02*
X160710000Y-39595000D01*
X160710000Y-39595000D02*
X160710000Y-40125000D01*
X155761800Y-44545000D02*
X155335000Y-44971800D01*
X156290000Y-44545000D02*
X155761800Y-44545000D01*
X160935000Y-38559300D02*
X160560000Y-38934300D01*
X160560000Y-38934300D02*
X160560000Y-39445000D01*
X156535700Y-34809300D02*
X156535000Y-34810000D01*
X157185000Y-34809300D02*
X156535700Y-34809300D01*
X156525700Y-35559300D02*
X157185000Y-35559300D01*
X156525000Y-35560000D02*
X156525700Y-35559300D01*
X156525000Y-35590000D02*
X156525000Y-35560000D01*
X160185000Y-34809300D02*
X160185000Y-34815905D01*
X160185000Y-34815905D02*
X160557047Y-35187952D01*
X156545700Y-34059300D02*
X157185000Y-34059300D01*
X156545000Y-34058600D02*
X156545700Y-34059300D01*
X156545000Y-34040000D02*
X156545000Y-34058600D01*
X157935000Y-34065905D02*
X157935000Y-34059300D01*
X157544999Y-34430000D02*
X157570905Y-34430000D01*
X157570905Y-34430000D02*
X157935000Y-34065905D01*
X157935000Y-34809300D02*
X157935000Y-34815905D01*
X157935000Y-34815905D02*
X157547952Y-35202953D01*
X159807695Y-38930000D02*
X160178395Y-38559300D01*
X160178395Y-38559300D02*
X160185000Y-38559300D01*
X159795000Y-38930000D02*
X159807695Y-38930000D01*
X117485000Y-73095000D02*
X117485000Y-69970000D01*
X116125000Y-75355000D02*
X116710000Y-74770000D01*
X140110000Y-67370000D02*
X139335000Y-68145000D01*
X124685000Y-62770000D02*
X134235000Y-62770000D01*
X116125000Y-77075000D02*
X116125000Y-75355000D01*
X134235000Y-62770000D02*
X135235000Y-63770000D01*
X140110000Y-65345000D02*
X140110000Y-67370000D01*
X138735000Y-63770000D02*
X138935000Y-63970000D01*
X116710000Y-74770000D02*
X116710000Y-73870000D01*
X138935000Y-63970000D02*
X138935000Y-64620000D01*
X139735000Y-64970000D02*
X140110000Y-65345000D01*
X116710000Y-73870000D02*
X117485000Y-73095000D01*
X138935000Y-64620000D02*
X139285000Y-64970000D01*
X117485000Y-69970000D02*
X124685000Y-62770000D01*
X139285000Y-64970000D02*
X139735000Y-64970000D01*
X135235000Y-63770000D02*
X138735000Y-63770000D01*
X139335000Y-68145000D02*
X139335000Y-68171800D01*
X139610000Y-65370000D02*
X139735000Y-65495000D01*
X138985000Y-65370000D02*
X139610000Y-65370000D01*
X117235000Y-74420000D02*
X117235000Y-74007500D01*
X117985000Y-73257500D02*
X117985000Y-70195000D01*
X139735000Y-66971800D02*
X139335000Y-67371800D01*
X124935000Y-63245000D02*
X133910000Y-63245000D01*
X138560000Y-64945000D02*
X138985000Y-65370000D01*
X117125000Y-77075000D02*
X117125000Y-74530000D01*
X135610000Y-64945000D02*
X138560000Y-64945000D01*
X117125000Y-74530000D02*
X117235000Y-74420000D01*
X117235000Y-74007500D02*
X117985000Y-73257500D01*
X117985000Y-70195000D02*
X124935000Y-63245000D01*
X139735000Y-65495000D02*
X139735000Y-66971800D01*
X133910000Y-63245000D02*
X135610000Y-64945000D01*
X135735000Y-66170000D02*
X138936800Y-66170000D01*
X125160000Y-63770000D02*
X133760000Y-63770000D01*
X118460000Y-70470000D02*
X125160000Y-63770000D01*
X135460000Y-65895000D02*
X135735000Y-66170000D01*
X133760000Y-63770000D02*
X135460000Y-65470000D01*
X138936800Y-66170000D02*
X139335000Y-65771800D01*
X135460000Y-65470000D02*
X135460000Y-65895000D01*
X117625000Y-74255000D02*
X118460000Y-73420000D01*
X118460000Y-73420000D02*
X118460000Y-70470000D01*
X117625000Y-77075000D02*
X117625000Y-74255000D01*
X116235000Y-74445000D02*
X116235000Y-73670000D01*
X115625000Y-75055000D02*
X116235000Y-74445000D01*
X139745000Y-64360000D02*
X140535000Y-65150000D01*
X139960000Y-68145000D02*
X139960000Y-68195000D01*
X140335000Y-67770000D02*
X139960000Y-68145000D01*
X135285000Y-62970000D02*
X139535000Y-62970000D01*
X139535000Y-62970000D02*
X139745000Y-63180000D01*
X134635000Y-62320000D02*
X135285000Y-62970000D01*
X140535000Y-65150000D02*
X140535000Y-67545000D01*
X116235000Y-73670000D02*
X116960000Y-72945000D01*
X116960000Y-69845000D02*
X124485000Y-62320000D01*
X124485000Y-62320000D02*
X134635000Y-62320000D01*
X116960000Y-72945000D02*
X116960000Y-69845000D01*
X115625000Y-77075000D02*
X115625000Y-75055000D01*
X140335000Y-67745000D02*
X140335000Y-67770000D01*
X139745000Y-63180000D02*
X139745000Y-64360000D01*
X140535000Y-67545000D02*
X140335000Y-67745000D01*
X164265000Y-39550000D02*
X164225000Y-39590000D01*
X167747500Y-48257500D02*
X167747500Y-48545000D01*
X162265000Y-46130000D02*
X161023200Y-47371800D01*
X167955000Y-48050000D02*
X167747500Y-48257500D01*
X164225000Y-39590000D02*
X164225000Y-40170000D01*
X162265000Y-42130000D02*
X162265000Y-46130000D01*
X164225000Y-40170000D02*
X162265000Y-42130000D01*
X161023200Y-47371800D02*
X160935000Y-47371800D01*
X161735000Y-45880000D02*
X161043200Y-46571800D01*
X163805000Y-39840000D02*
X161735000Y-41910000D01*
X163805000Y-38880000D02*
X163805000Y-39840000D01*
X168635000Y-48100000D02*
X168635000Y-48920000D01*
X168995000Y-62770000D02*
X168665000Y-63100000D01*
X168390000Y-63875000D02*
X167680000Y-63875000D01*
X169035000Y-62770000D02*
X168995000Y-62770000D01*
X168380000Y-56545000D02*
X168715000Y-56210000D01*
X168875000Y-41540000D02*
X168875000Y-40900000D01*
X168360000Y-49195000D02*
X167747500Y-49195000D01*
X167797500Y-41870000D02*
X168545000Y-41870000D01*
X168665000Y-63100000D02*
X168665000Y-63600000D01*
X168545000Y-41870000D02*
X168875000Y-41540000D01*
X168665000Y-63600000D02*
X168390000Y-63875000D01*
X167717500Y-56545000D02*
X168380000Y-56545000D01*
X168635000Y-48920000D02*
X168360000Y-49195000D01*
X168715000Y-55790000D02*
X168885000Y-55620000D01*
X163815000Y-38870000D02*
X163805000Y-38880000D01*
X168715000Y-56210000D02*
X168715000Y-55790000D01*
X161735000Y-41910000D02*
X161735000Y-45880000D01*
X161043200Y-46571800D02*
X160935000Y-46571800D01*
D55*
X157035000Y-75297499D02*
X157035000Y-75046275D01*
X157035000Y-75046275D02*
X157349143Y-74732132D01*
X157125000Y-77075000D02*
X157125000Y-75387499D01*
X157349143Y-74732132D02*
X157547132Y-74732132D01*
X157125000Y-75387499D02*
X157035000Y-75297499D01*
X157122868Y-74320000D02*
X157122868Y-74505857D01*
X156715000Y-75297499D02*
X156625000Y-75387499D01*
X157122868Y-74505857D02*
X156715000Y-74913725D01*
X156625000Y-75387499D02*
X156625000Y-77075000D01*
X157135000Y-74307868D02*
X157122868Y-74320000D01*
X156715000Y-74913725D02*
X156715000Y-75297499D01*
X158625000Y-77075000D02*
X158625000Y-75387499D01*
X158535000Y-75046275D02*
X158824143Y-74757132D01*
X158535000Y-75297499D02*
X158535000Y-75046275D01*
X158824143Y-74757132D02*
X159022132Y-74757132D01*
X158625000Y-75387499D02*
X158535000Y-75297499D01*
X158597868Y-74530857D02*
X158215000Y-74913725D01*
X158215000Y-75297499D02*
X158125000Y-75387499D01*
X158125000Y-75387499D02*
X158125000Y-77075000D01*
X158215000Y-74913725D02*
X158215000Y-75297499D01*
X158615000Y-74340000D02*
X158597868Y-74357132D01*
X158597868Y-74357132D02*
X158597868Y-74530857D01*
X159574999Y-63931801D02*
X159645527Y-63931801D01*
X159335000Y-64171800D02*
X159574999Y-63931801D01*
X161215000Y-74525000D02*
X161215000Y-75297499D01*
X161125000Y-75387499D02*
X161125000Y-77075000D01*
X161051996Y-65338269D02*
X161136850Y-65423124D01*
X161300000Y-65586274D02*
X161300000Y-65730273D01*
X160288322Y-64914007D02*
X160283329Y-64918999D01*
X160725000Y-70527454D02*
X160725000Y-74035000D01*
X161215000Y-75297499D02*
X161125000Y-75387499D01*
X160283329Y-65258410D02*
X160368181Y-65343262D01*
X161300000Y-65730273D02*
X161300000Y-69952454D01*
X160707593Y-65343262D02*
X160712585Y-65338269D01*
X160251526Y-64537800D02*
X160288322Y-64574596D01*
X161136850Y-65423124D02*
X161300000Y-65586274D01*
X159769000Y-64055274D02*
X159769000Y-64323403D01*
X159983397Y-64537800D02*
X160251526Y-64537800D01*
X159645527Y-63931801D02*
X159769000Y-64055274D01*
X161300000Y-69952454D02*
X160725000Y-70527454D01*
X159769000Y-64323403D02*
X159983397Y-64537800D01*
X160725000Y-74035000D02*
X161215000Y-74525000D01*
X160712585Y-65338269D02*
G75*
G02*
X161051996Y-65338268I169706J-169707D01*
G01*
X160368181Y-65343262D02*
G75*
G03*
X160707593Y-65343262I169706J169704D01*
G01*
X160283329Y-64918999D02*
G75*
G03*
X160283333Y-65258405I169671J-169701D01*
G01*
X160288322Y-64574596D02*
G75*
G02*
X160288321Y-64914006I-169722J-169704D01*
G01*
X160501000Y-64020197D02*
X160501000Y-64323403D01*
X161620000Y-65453726D02*
X161620000Y-70085000D01*
X161535000Y-74392454D02*
X161535000Y-75297499D01*
X161620000Y-70085000D02*
X161045000Y-70660000D01*
X161535000Y-75297499D02*
X161625000Y-75387499D01*
X160501000Y-64323403D02*
X160495339Y-64329065D01*
X159983397Y-63805800D02*
X160286603Y-63805800D01*
X159574999Y-63611799D02*
X159789396Y-63611799D01*
X160286603Y-63805800D02*
X160501000Y-64020197D01*
X159335000Y-63371800D02*
X159574999Y-63611799D01*
X161045000Y-73902454D02*
X161535000Y-74392454D01*
X161045000Y-70660000D02*
X161045000Y-73902454D01*
X160495339Y-64329065D02*
X161620000Y-65453726D01*
X159789396Y-63611799D02*
X159983397Y-63805800D01*
X161625000Y-75387499D02*
X161625000Y-77075000D01*
X162715000Y-74551274D02*
X162715000Y-75297499D01*
X161174999Y-63931801D02*
X161346801Y-63931801D01*
X161910000Y-70917454D02*
X161910000Y-72344245D01*
X161910000Y-73408751D02*
X161910000Y-73544245D01*
X162625000Y-75387499D02*
X162625000Y-77075000D01*
X161910000Y-73746274D02*
X161987088Y-73823362D01*
X161346801Y-63931801D02*
X162200000Y-64785000D01*
X162200000Y-64785000D02*
X162200000Y-70627454D01*
X162715000Y-75297499D02*
X162625000Y-75387499D01*
X161910000Y-73544245D02*
X161910000Y-73746274D01*
X161987088Y-73823362D02*
X162715000Y-74551274D01*
X161445494Y-72808751D02*
X161445494Y-72944245D01*
X160935000Y-64171800D02*
X161174999Y-63931801D01*
X162200000Y-70627454D02*
X161910000Y-70917454D01*
X161677747Y-73176498D02*
G75*
G02*
X161909902Y-73408751I-47J-232202D01*
G01*
X161677747Y-72576498D02*
G75*
G03*
X161445498Y-72808751I-47J-232202D01*
G01*
X161445494Y-72944245D02*
G75*
G03*
X161677747Y-73176406I232206J45D01*
G01*
X161910000Y-72344245D02*
G75*
G02*
X161677747Y-72576500I-232300J45D01*
G01*
X163035000Y-75297499D02*
X163125000Y-75387499D01*
X161174999Y-63611799D02*
X161479345Y-63611799D01*
X163125000Y-75387499D02*
X163125000Y-77075000D01*
X163035000Y-74418726D02*
X163035000Y-75297499D01*
X162230000Y-71050000D02*
X162230000Y-73613726D01*
X160935000Y-63371800D02*
X161174999Y-63611799D01*
X162230000Y-73613726D02*
X163035000Y-74418726D01*
X161479345Y-63611799D02*
X162520000Y-64652454D01*
X162520000Y-64652454D02*
X162520000Y-70760000D01*
X162520000Y-70760000D02*
X162230000Y-71050000D01*
D48*
X140450000Y-72310000D02*
X140435000Y-72295000D01*
D52*
X135310000Y-61870000D02*
X135610000Y-62170000D01*
X116235000Y-69795000D02*
X124160000Y-61870000D01*
X138935000Y-68370000D02*
X139135000Y-68570000D01*
X138935000Y-66971800D02*
X138935000Y-68370000D01*
X140435000Y-69395000D02*
X140435000Y-72295000D01*
D48*
X141360000Y-72310000D02*
X140450000Y-72310000D01*
D52*
X138535000Y-66571800D02*
X138935000Y-66971800D01*
X140172500Y-69132500D02*
X140435000Y-69395000D01*
X140410000Y-62170000D02*
X140535000Y-62295000D01*
X139610000Y-68570000D02*
X140172500Y-69132500D01*
X139135000Y-68570000D02*
X139610000Y-68570000D01*
X140410000Y-69370000D02*
X140172500Y-69132500D01*
X135610000Y-62170000D02*
X140410000Y-62170000D01*
X141335000Y-65320000D02*
X141335000Y-69120000D01*
X141085000Y-69370000D02*
X140410000Y-69370000D01*
X140535000Y-64520000D02*
X141335000Y-65320000D01*
X124160000Y-61870000D02*
X135310000Y-61870000D01*
X116235000Y-71070000D02*
X116235000Y-69795000D01*
X141335000Y-69120000D02*
X141085000Y-69370000D01*
X140535000Y-62295000D02*
X140535000Y-64520000D01*
D55*
X156497600Y-63974514D02*
X156497600Y-64321994D01*
X155928873Y-65685000D02*
X155720000Y-65476127D01*
X154883528Y-72322745D02*
X156345042Y-70861232D01*
X156551274Y-65685000D02*
X155928873Y-65685000D01*
X154125000Y-77075000D02*
X154125000Y-75387499D01*
X156345042Y-70861232D02*
X157070645Y-70135629D01*
X157070645Y-70135629D02*
X157070645Y-66204371D01*
X156285194Y-64534400D02*
X155984806Y-64534400D01*
X154035000Y-73677404D02*
X154035000Y-73171274D01*
X156935000Y-64171800D02*
X156695001Y-63931801D01*
X156497600Y-64321994D02*
X156285194Y-64534400D01*
X154035000Y-75297499D02*
X154035000Y-74327404D01*
X154125000Y-77075000D02*
X154035001Y-76985001D01*
X154716881Y-72489390D02*
X154883528Y-72322745D01*
X156540313Y-63931801D02*
X156497600Y-63974514D01*
X155950063Y-64499657D02*
X155720000Y-64729720D01*
X157070645Y-66204371D02*
X156551274Y-65685000D01*
X156695001Y-63931801D02*
X156540313Y-63931801D01*
X154125000Y-75387499D02*
X154035000Y-75297499D01*
X154035000Y-74327404D02*
X154035000Y-73677404D01*
X154550236Y-73171274D02*
X154716881Y-73004628D01*
X155720000Y-65476127D02*
X155720000Y-64729720D01*
X155984806Y-64534400D02*
X155950063Y-64499657D01*
X154716881Y-73004628D02*
G75*
G03*
X154716900Y-72746990I-128781J128828D01*
G01*
X154716881Y-72747009D02*
G75*
G02*
X154716881Y-72489390I128819J128809D01*
G01*
X154292618Y-73171274D02*
G75*
G03*
X154550236Y-73171274I128809J128810D01*
G01*
X154035000Y-73171274D02*
G75*
G02*
X154292618Y-73171274I128809J-128810D01*
G01*
X156750645Y-66336919D02*
X156418726Y-66005000D01*
X156210394Y-63809200D02*
X155984806Y-63809200D01*
X156407795Y-63611799D02*
X156210394Y-63809200D01*
X156418726Y-66005000D02*
X155796325Y-66005000D01*
X155796325Y-66005000D02*
X155400000Y-65608675D01*
X153625000Y-75387499D02*
X153715000Y-75297499D01*
X155772400Y-64021606D02*
X155772400Y-64224772D01*
X156695001Y-63611799D02*
X156407795Y-63611799D01*
X155772400Y-64224772D02*
X155400000Y-64597172D01*
X155984806Y-63809200D02*
X155772400Y-64021606D01*
X153625000Y-77075000D02*
X153714999Y-76985001D01*
X153625000Y-77075000D02*
X153625000Y-75387499D01*
X156750645Y-70003081D02*
X156750645Y-66336919D01*
X153715000Y-73038726D02*
X156750645Y-70003081D01*
X155400000Y-65608675D02*
X155400000Y-64597172D01*
X153715000Y-75297499D02*
X153715000Y-73038726D01*
X156935000Y-63371800D02*
X156695001Y-63611799D01*
X168625000Y-77075000D02*
X168625000Y-75387499D01*
X168715000Y-74963725D02*
X169372868Y-74305857D01*
X169372868Y-74305857D02*
X169372868Y-74107868D01*
X168715000Y-75297499D02*
X168715000Y-74963725D01*
X168625000Y-75387499D02*
X168715000Y-75297499D01*
X169125000Y-77075000D02*
X169125000Y-75387499D01*
X169125000Y-75387499D02*
X169035000Y-75297499D01*
X169035000Y-75297499D02*
X169035000Y-75096275D01*
X169599143Y-74532132D02*
X169797132Y-74532132D01*
X169035000Y-75096275D02*
X169599143Y-74532132D01*
X170872868Y-74330857D02*
X170872868Y-74132868D01*
X170125000Y-77075000D02*
X170125000Y-75387499D01*
X170215000Y-74988725D02*
X170872868Y-74330857D01*
X170125000Y-75387499D02*
X170215000Y-75297499D01*
X170215000Y-75297499D02*
X170215000Y-74988725D01*
X171099143Y-74557132D02*
X171297132Y-74557132D01*
X170625000Y-75387499D02*
X170535000Y-75297499D01*
X170535000Y-75297499D02*
X170535000Y-75121275D01*
X170535000Y-75121275D02*
X171099143Y-74557132D01*
X170625000Y-77075000D02*
X170625000Y-75387499D01*
X171715000Y-75297499D02*
X171715000Y-73463725D01*
X171872868Y-73305857D02*
X171872868Y-73107868D01*
X171625000Y-75387499D02*
X171715000Y-75297499D01*
X171625000Y-77075000D02*
X171625000Y-75387499D01*
X171715000Y-73463725D02*
X171872868Y-73305857D01*
X172099143Y-73532132D02*
X172297132Y-73532132D01*
X172125000Y-77075000D02*
X172125000Y-75387499D01*
X172035000Y-75297499D02*
X172035000Y-73596275D01*
X172035000Y-73596275D02*
X172099143Y-73532132D01*
X172125000Y-75387499D02*
X172035000Y-75297499D01*
X173535000Y-75297499D02*
X173535000Y-73621275D01*
X173535000Y-73621275D02*
X173624143Y-73532132D01*
X173625000Y-75387499D02*
X173535000Y-75297499D01*
X173624143Y-73532132D02*
X173822132Y-73532132D01*
X173625000Y-77075000D02*
X173625000Y-75387499D01*
X173125000Y-75387499D02*
X173215000Y-75297499D01*
X173397868Y-73305857D02*
X173397868Y-73107868D01*
X173215000Y-75297499D02*
X173215000Y-73488725D01*
X173125000Y-77075000D02*
X173125000Y-75387499D01*
X173215000Y-73488725D02*
X173397868Y-73305857D01*
X174625000Y-77075000D02*
X174625000Y-75387499D01*
X174922868Y-73255857D02*
X174922868Y-73057868D01*
X174715000Y-75297499D02*
X174715000Y-73463725D01*
X174715000Y-73463725D02*
X174922868Y-73255857D01*
X174625000Y-75387499D02*
X174715000Y-75297499D01*
X175035000Y-73596275D02*
X175149143Y-73482132D01*
X175149143Y-73482132D02*
X175347132Y-73482132D01*
X175125000Y-77075000D02*
X175125000Y-75387499D01*
X175035000Y-75297499D02*
X175035000Y-73596275D01*
X175125000Y-75387499D02*
X175035000Y-75297499D01*
X176625000Y-77075000D02*
X176625000Y-75387499D01*
X177224143Y-74382132D02*
X177422132Y-74382132D01*
X176535000Y-75297499D02*
X176535000Y-75071275D01*
X176625000Y-75387499D02*
X176535000Y-75297499D01*
X176535000Y-75071275D02*
X177224143Y-74382132D01*
X176125000Y-75387499D02*
X176215000Y-75297499D01*
X176215000Y-75297499D02*
X176215000Y-74938725D01*
X176215000Y-74938725D02*
X176997868Y-74155857D01*
X176997868Y-74155857D02*
X176997868Y-73957868D01*
X176125000Y-77075000D02*
X176125000Y-75387499D01*
X177715000Y-75297499D02*
X177715000Y-74913725D01*
X178497868Y-74130857D02*
X178497868Y-73932868D01*
X177715000Y-74913725D02*
X178497868Y-74130857D01*
X177625000Y-75387499D02*
X177715000Y-75297499D01*
X177625000Y-77075000D02*
X177625000Y-75387499D01*
X178125000Y-75387499D02*
X178035000Y-75297499D01*
X178035000Y-75046275D02*
X178724143Y-74357132D01*
X178035000Y-75297499D02*
X178035000Y-75046275D01*
X178724143Y-74357132D02*
X178922132Y-74357132D01*
X178125000Y-77075000D02*
X178125000Y-75387499D01*
X155535000Y-75297499D02*
X155535000Y-74996275D01*
X155824143Y-74707132D02*
X156022132Y-74707132D01*
X155535000Y-74996275D02*
X155824143Y-74707132D01*
X155625000Y-75387499D02*
X155535000Y-75297499D01*
X155625000Y-77075000D02*
X155625000Y-75387499D01*
X155215000Y-75297499D02*
X155215000Y-74863725D01*
X155125000Y-77075000D02*
X155125000Y-75387499D01*
X155597868Y-74480857D02*
X155597868Y-74282868D01*
X155215000Y-74863725D02*
X155597868Y-74480857D01*
X155125000Y-75387499D02*
X155215000Y-75297499D01*
X160035000Y-75297499D02*
X160035000Y-75046274D01*
X160125000Y-75387499D02*
X160035000Y-75297499D01*
X160125000Y-77075000D02*
X160125000Y-75387499D01*
X160299143Y-74782132D02*
X160497132Y-74782132D01*
X160035000Y-75046274D02*
X160299143Y-74782132D01*
X160072868Y-74352132D02*
X160072868Y-74555857D01*
X159715000Y-75297499D02*
X159625000Y-75387499D01*
X159625000Y-75387499D02*
X159625000Y-77075000D01*
X159715000Y-74913726D02*
X159715000Y-75297499D01*
X160072868Y-74555857D02*
X159715000Y-74913726D01*
X160085000Y-74340000D02*
X160072868Y-74352132D01*
X163100000Y-63960000D02*
X163100000Y-64465761D01*
X162573981Y-63433981D02*
X163100000Y-63960000D01*
X161725453Y-63149977D02*
X161867454Y-63291978D01*
X163100000Y-64465761D02*
X163100000Y-71102454D01*
X163040000Y-72925000D02*
X164365000Y-74250000D01*
X161175000Y-62331800D02*
X161471800Y-62331800D01*
X163040000Y-71162454D02*
X163040000Y-72925000D01*
X160935000Y-62571800D02*
X161175000Y-62331800D01*
X164365000Y-74250000D02*
X164365000Y-75147499D01*
X162431979Y-63291978D02*
X162573981Y-63433981D01*
X163100000Y-71102454D02*
X163040000Y-71162454D01*
X164365000Y-75147499D02*
X164125000Y-75387499D01*
X161471800Y-62331800D02*
X161725453Y-62585453D01*
X164125000Y-75387499D02*
X164125000Y-77075000D01*
X161725453Y-62867715D02*
G75*
G03*
X161725499Y-63149931I141147J-141085D01*
G01*
X161867454Y-63291978D02*
G75*
G03*
X162149717Y-63291979I141132J141133D01*
G01*
X162149717Y-63291978D02*
G75*
G02*
X162431979Y-63291978I141131J-141132D01*
G01*
X161725453Y-62585453D02*
G75*
G02*
X161725469Y-62867731I-141153J-141147D01*
G01*
X164685000Y-75327499D02*
X164685000Y-74117454D01*
X164625000Y-77075000D02*
X164625000Y-75387499D01*
X163420000Y-63827454D02*
X161604346Y-62011800D01*
X163360000Y-72792454D02*
X163360000Y-71295000D01*
X161175000Y-62011800D02*
X160935000Y-61771800D01*
X163360000Y-71295000D02*
X163420000Y-71235000D01*
X161604346Y-62011800D02*
X161175000Y-62011800D01*
X164685000Y-74117454D02*
X163360000Y-72792454D01*
X164625000Y-75387499D02*
X164685000Y-75327499D01*
X163420000Y-71235000D02*
X163420000Y-63827454D01*
X165625000Y-77075000D02*
X165625000Y-75387499D01*
X165625000Y-75387499D02*
X165715000Y-75297499D01*
X165715000Y-75297499D02*
X165715000Y-75101275D01*
X165715000Y-75101275D02*
X165470857Y-74857132D01*
X165470857Y-74857132D02*
X165272868Y-74857132D01*
X166125000Y-77075000D02*
X166125000Y-75387499D01*
X166125000Y-75387499D02*
X166035000Y-75297499D01*
X166035000Y-75297499D02*
X166035000Y-74968725D01*
X165697132Y-74630857D02*
X165697132Y-74432868D01*
X166035000Y-74968725D02*
X165697132Y-74630857D01*
X167872868Y-74305857D02*
X167872868Y-74107868D01*
X167125000Y-77075000D02*
X167125000Y-75387499D01*
X167215000Y-75297499D02*
X167215000Y-74963725D01*
X167215000Y-74963725D02*
X167872868Y-74305857D01*
X167125000Y-75387499D02*
X167215000Y-75297499D01*
X167625000Y-75387499D02*
X167535000Y-75297499D01*
X167535000Y-75096275D02*
X168099143Y-74532132D01*
X168099143Y-74532132D02*
X168297132Y-74532132D01*
X167625000Y-77075000D02*
X167625000Y-75387499D01*
X167535000Y-75297499D02*
X167535000Y-75096275D01*
D52*
X136533200Y-58970000D02*
X141885000Y-58970000D01*
X136135000Y-58571800D02*
X136533200Y-58970000D01*
X136935000Y-59371800D02*
X137333200Y-59770000D01*
X137333200Y-59770000D02*
X141860000Y-59770000D01*
X141860000Y-59770000D02*
X141885000Y-59745000D01*
X138535000Y-57771800D02*
X138933200Y-58170000D01*
X141860000Y-58170000D02*
X141885000Y-58145000D01*
X138933200Y-58170000D02*
X141860000Y-58170000D01*
X140135000Y-56971800D02*
X140533200Y-57370000D01*
X140533200Y-57370000D02*
X141860000Y-57370000D01*
X141860000Y-56570000D02*
X140533200Y-56570000D01*
X140533200Y-56570000D02*
X140135000Y-56171800D01*
X141910000Y-55945000D02*
X141161800Y-55945000D01*
X141161800Y-55945000D02*
X140935000Y-56171800D01*
X118225000Y-74995000D02*
X118625000Y-75395000D01*
X118135000Y-74995000D02*
X118225000Y-74995000D01*
X118625000Y-75395000D02*
X118625000Y-77075000D01*
X118135000Y-74395000D02*
X118275000Y-74395000D01*
X119125000Y-75245000D02*
X119125000Y-77075000D01*
X118275000Y-74395000D02*
X119125000Y-75245000D01*
X119675000Y-74995000D02*
X120125000Y-75445000D01*
X119635000Y-74995000D02*
X119675000Y-74995000D01*
X120125000Y-75445000D02*
X120125000Y-77075000D01*
X119725000Y-74395000D02*
X120625000Y-75295000D01*
X120625000Y-75295000D02*
X120625000Y-77075000D01*
X119635000Y-74395000D02*
X119725000Y-74395000D01*
X121135000Y-74995000D02*
X121150000Y-74995000D01*
X121625000Y-75470000D02*
X121625000Y-77075000D01*
X121150000Y-74995000D02*
X121625000Y-75470000D01*
X121135000Y-74395000D02*
X121200000Y-74395000D01*
X122125000Y-75320000D02*
X122125000Y-77075000D01*
X121200000Y-74395000D02*
X122125000Y-75320000D01*
X122610000Y-74995000D02*
X122625000Y-74995000D01*
X122625000Y-74995000D02*
X123125000Y-75495000D01*
X123125000Y-75495000D02*
X123125000Y-77075000D01*
X122610000Y-74395000D02*
X122675000Y-74395000D01*
X122675000Y-74395000D02*
X123625000Y-75345000D01*
X123625000Y-75345000D02*
X123625000Y-77075000D01*
X124625000Y-75445000D02*
X124625000Y-77075000D01*
X124175000Y-74995000D02*
X124625000Y-75445000D01*
X124135000Y-74995000D02*
X124175000Y-74995000D01*
X124135000Y-74395000D02*
X124250000Y-74395000D01*
X125125000Y-75270000D02*
X125125000Y-77075000D01*
X124250000Y-74395000D02*
X125125000Y-75270000D01*
X126125000Y-75485000D02*
X126125000Y-77075000D01*
X125635000Y-74995000D02*
X126125000Y-75485000D01*
X126625000Y-75345000D02*
X126625000Y-77075000D01*
X125635000Y-74395000D02*
X125675000Y-74395000D01*
X125675000Y-74395000D02*
X126625000Y-75345000D01*
X127625000Y-75485000D02*
X127135000Y-74995000D01*
X127625000Y-77075000D02*
X127625000Y-75485000D01*
X128125000Y-75385000D02*
X127135000Y-74395000D01*
X128125000Y-77075000D02*
X128125000Y-75385000D01*
X129125000Y-77075000D02*
X129125000Y-75485000D01*
X129125000Y-75485000D02*
X128635000Y-74995000D01*
X129625000Y-77075000D02*
X129625000Y-75385000D01*
X129625000Y-75385000D02*
X128635000Y-74395000D01*
X126085000Y-49220000D02*
X126063383Y-49198383D01*
X126085000Y-50271800D02*
X126085000Y-49220000D01*
X126085000Y-51871800D02*
X126085000Y-52045000D01*
X126315000Y-37390000D02*
X126355000Y-37390000D01*
X126385000Y-37330000D02*
X126385000Y-36920000D01*
X126375000Y-37340000D02*
X126385000Y-37330000D01*
X126375000Y-37370000D02*
X126375000Y-37340000D01*
X126355000Y-37390000D02*
X126375000Y-37370000D01*
X126865000Y-37390000D02*
X126885000Y-37370000D01*
X132575000Y-36870000D02*
X130585000Y-36870000D01*
X126885000Y-37370000D02*
X126885000Y-36920000D01*
X129985000Y-37470000D02*
X130585000Y-36870000D01*
X132575000Y-38770000D02*
X130485000Y-38770000D01*
X126460000Y-38929400D02*
X126575600Y-38929400D01*
X129985000Y-38945000D02*
X130310000Y-38945000D01*
X126585000Y-38920000D02*
X126885000Y-38920000D01*
X126575600Y-38929400D02*
X126585000Y-38920000D01*
X130310000Y-38945000D02*
X130485000Y-38770000D01*
X128086000Y-42968000D02*
X128638000Y-43520000D01*
X127885000Y-42767000D02*
X128086000Y-42968000D01*
X127885000Y-42420000D02*
X127885000Y-42767000D01*
X128638000Y-43520000D02*
X132575000Y-43520000D01*
X128749800Y-44470000D02*
X132590000Y-44470000D01*
X127385000Y-43105200D02*
X127628800Y-43349000D01*
X127628800Y-43349000D02*
X128749800Y-44470000D01*
X127385000Y-42420000D02*
X127385000Y-43105200D01*
X126917600Y-43627600D02*
X128710000Y-45420000D01*
X126917600Y-43349000D02*
X126917600Y-43627600D01*
X126885000Y-42420000D02*
X126885000Y-43316400D01*
X126885000Y-43316400D02*
X126917600Y-43349000D01*
X128710000Y-45420000D02*
X132595000Y-45420000D01*
X126917600Y-43349000D02*
X127010200Y-43349000D01*
X130760000Y-41670000D02*
X130110000Y-41670000D01*
X129861800Y-41918200D02*
X128386800Y-41918200D01*
X132530000Y-41670000D02*
X132580000Y-41620000D01*
X130760000Y-41670000D02*
X132530000Y-41670000D01*
X130110000Y-41670000D02*
X129861800Y-41918200D01*
X128385000Y-42420000D02*
X128385000Y-42520000D01*
X130010000Y-42570000D02*
X132580000Y-42570000D01*
X129185000Y-42895000D02*
X129510000Y-42570000D01*
X128760000Y-42895000D02*
X129185000Y-42895000D01*
X128385000Y-42520000D02*
X128760000Y-42895000D01*
X127885000Y-41920000D02*
X128385000Y-42420000D01*
X129510000Y-42570000D02*
X130010000Y-42570000D01*
X127885000Y-41420000D02*
X127885000Y-40887400D01*
X127885000Y-40887400D02*
X127425600Y-40428000D01*
X127385000Y-41920000D02*
X127885000Y-41420000D01*
X130910000Y-40670000D02*
X132575000Y-40670000D01*
X130410000Y-40170000D02*
X130910000Y-40670000D01*
D55*
X126885000Y-40988200D02*
X126865000Y-40968200D01*
D52*
X132575000Y-39720000D02*
X130485000Y-39720000D01*
X130310000Y-39545000D02*
X130485000Y-39720000D01*
X129985000Y-39545000D02*
X130310000Y-39545000D01*
D55*
X126865000Y-40968200D02*
X126865000Y-40920000D01*
D52*
X126885000Y-41920000D02*
X126885000Y-40988200D01*
X126130200Y-43425200D02*
X126130200Y-43790200D01*
X125885000Y-42420000D02*
X125885000Y-43180000D01*
X126130200Y-43790200D02*
X128634000Y-46294000D01*
X132524000Y-46294000D02*
X132600000Y-46370000D01*
X126385000Y-41920000D02*
X125885000Y-42420000D01*
X125885000Y-43180000D02*
X126130200Y-43425200D01*
X128634000Y-46294000D02*
X132524000Y-46294000D01*
X126885000Y-37920000D02*
X127393600Y-37920000D01*
X129985000Y-38295000D02*
X130460000Y-37820000D01*
X132575000Y-37820000D02*
X130460000Y-37820000D01*
X138535000Y-69771800D02*
X138535000Y-72285000D01*
X139485000Y-70770000D02*
X138935000Y-70220000D01*
X138935000Y-69371800D02*
X138535000Y-68971800D01*
X139485000Y-72285000D02*
X139485000Y-70770000D01*
X138935000Y-70220000D02*
X138935000Y-69371800D01*
X138535000Y-68171800D02*
X138135000Y-68571800D01*
X138135000Y-70145000D02*
X137585000Y-70695000D01*
X137585000Y-70695000D02*
X137585000Y-72285000D01*
X138135000Y-68571800D02*
X138135000Y-70145000D01*
X137360000Y-67746800D02*
X136935000Y-68171800D01*
X135035000Y-68170000D02*
X135435000Y-67770000D01*
X134510000Y-68170000D02*
X135035000Y-68170000D01*
X136536800Y-67770000D02*
X136935000Y-67371800D01*
X135435000Y-67770000D02*
X136536800Y-67770000D01*
X170010000Y-39420000D02*
X171365000Y-39420000D01*
X171365000Y-39420000D02*
X171375000Y-39410000D01*
X170010000Y-37520000D02*
X171375000Y-37520000D01*
X170010000Y-38470000D02*
X171375000Y-38470000D01*
D50*
X124125000Y-77075000D02*
X124125000Y-75585000D01*
X148125000Y-77075000D02*
X148125000Y-75705000D01*
D49*
X126385000Y-35720000D02*
X126160000Y-35495000D01*
D50*
X130625000Y-77075000D02*
X130625000Y-75705000D01*
X162125000Y-77075000D02*
X162125000Y-75585000D01*
D51*
X172105000Y-63870000D02*
X172265000Y-63710000D01*
X172390000Y-41625000D02*
X172390000Y-41220000D01*
X172340000Y-48945000D02*
X172340000Y-48545000D01*
D50*
X174125000Y-77075000D02*
X174125000Y-75585000D01*
D47*
X179860000Y-67350000D02*
X179860000Y-66715000D01*
D51*
X172090000Y-49195000D02*
X172340000Y-48945000D01*
X172060000Y-56545000D02*
X172310000Y-56295000D01*
D50*
X134625000Y-77075000D02*
X134625000Y-75705000D01*
X166625000Y-77075000D02*
X166625000Y-75585000D01*
D49*
X125385000Y-37920000D02*
X125385000Y-37495000D01*
D50*
X136125000Y-77075000D02*
X136125000Y-75705000D01*
D51*
X127685000Y-47585000D02*
X127685000Y-46970000D01*
D50*
X178625000Y-75599258D02*
X178581246Y-75555504D01*
X122625000Y-77075000D02*
X122625000Y-75585000D01*
X153125000Y-77075000D02*
X153125000Y-75585000D01*
D49*
X126385000Y-35920000D02*
X126385000Y-35720000D01*
D50*
X154625000Y-77075000D02*
X154625000Y-75585000D01*
X121125000Y-77075000D02*
X121125000Y-75585000D01*
X168125000Y-77075000D02*
X168125000Y-75585000D01*
X156125000Y-77075000D02*
X156125000Y-75585000D01*
D49*
X128385000Y-36420000D02*
X129355000Y-36420000D01*
D50*
X115125000Y-77075000D02*
X115125000Y-75585000D01*
X178625000Y-77075000D02*
X178625000Y-75599258D01*
X157625000Y-77075000D02*
X157625000Y-75585000D01*
X116625000Y-77075000D02*
X116625000Y-75585000D01*
X165125000Y-77075000D02*
X165125000Y-75585000D01*
X140125000Y-77075000D02*
X140125000Y-75705000D01*
X169625000Y-77075000D02*
X169625000Y-75585000D01*
X148625000Y-77075000D02*
X148625000Y-75705000D01*
X118125000Y-77075000D02*
X118125000Y-75585000D01*
D49*
X126885000Y-36420000D02*
X126385000Y-36420000D01*
X127365000Y-38420000D02*
X127395000Y-38450000D01*
X160935000Y-37059300D02*
X161435000Y-37059300D01*
D50*
X175625000Y-77075000D02*
X175625000Y-75585000D01*
D51*
X154535000Y-66571800D02*
X155335000Y-66571800D01*
D49*
X157185000Y-36309300D02*
X156540000Y-36309300D01*
D50*
X179125000Y-77075000D02*
X179125000Y-75585000D01*
D49*
X126385000Y-35920000D02*
X126385000Y-36020000D01*
D50*
X136625000Y-77075000D02*
X136625000Y-75705000D01*
D49*
X127385000Y-41420000D02*
X127385000Y-40945000D01*
D51*
X154535000Y-67371800D02*
X155335000Y-67371800D01*
D48*
X126385000Y-42420000D02*
X126385000Y-42820000D01*
D50*
X138625000Y-77075000D02*
X138625000Y-75705000D01*
D49*
X125885000Y-40060000D02*
X125745000Y-39920000D01*
D51*
X170022500Y-49195000D02*
X172090000Y-49195000D01*
D50*
X172625000Y-77075000D02*
X172625000Y-75585000D01*
D49*
X124745000Y-38920000D02*
X124885000Y-39060000D01*
D50*
X132125000Y-77075000D02*
X132125000Y-75705000D01*
D51*
X172145000Y-41870000D02*
X172390000Y-41625000D01*
D50*
X163625000Y-77075000D02*
X163625000Y-75585000D01*
X171125000Y-77075000D02*
X171125000Y-75585000D01*
D51*
X170365000Y-63870000D02*
X172105000Y-63870000D01*
D50*
X132625000Y-77075000D02*
X132625000Y-75705000D01*
D49*
X126385000Y-35920000D02*
X126385000Y-36420000D01*
D47*
X179880000Y-59995000D02*
X179880000Y-59360000D01*
D50*
X177125000Y-77075000D02*
X177125000Y-75585000D01*
X127125000Y-77075000D02*
X127125000Y-75585000D01*
X119625000Y-77075000D02*
X119625000Y-75585000D01*
X142625000Y-77075000D02*
X142625000Y-75705000D01*
D49*
X124385000Y-38920000D02*
X124745000Y-38920000D01*
D50*
X146125000Y-77075000D02*
X146125000Y-75705000D01*
D49*
X126885000Y-39420000D02*
X127310000Y-39420000D01*
X126385000Y-36020000D02*
X126785000Y-36420000D01*
D50*
X134125000Y-77075000D02*
X134125000Y-75705000D01*
D47*
X179950000Y-45295000D02*
X179950000Y-44660000D01*
D49*
X127385000Y-35920000D02*
X127385000Y-35380000D01*
D50*
X159125000Y-77075000D02*
X159125000Y-75585000D01*
D51*
X172310000Y-56295000D02*
X172310000Y-55895000D01*
X170645000Y-56545000D02*
X172060000Y-56545000D01*
D50*
X150625000Y-77075000D02*
X150625000Y-75705000D01*
D49*
X126885000Y-38420000D02*
X127365000Y-38420000D01*
D52*
X167747500Y-50495000D02*
X167747500Y-49845000D01*
D50*
X138125000Y-77075000D02*
X138125000Y-75705000D01*
D51*
X170072500Y-41870000D02*
X172145000Y-41870000D01*
D50*
X160625000Y-77075000D02*
X160625000Y-75585000D01*
X144125000Y-77075000D02*
X144125000Y-75705000D01*
X146625000Y-77075000D02*
X146625000Y-75705000D01*
D49*
X127385000Y-35380000D02*
X127420000Y-35345000D01*
D50*
X140625000Y-77075000D02*
X140625000Y-75705000D01*
X125625000Y-77075000D02*
X125625000Y-75585000D01*
D49*
X125885000Y-40420000D02*
X125885000Y-40060000D01*
D51*
X169992500Y-56545000D02*
X170645000Y-56545000D01*
D47*
X179925000Y-52645000D02*
X179925000Y-52010000D01*
D50*
X144625000Y-77075000D02*
X144625000Y-75705000D01*
X150125000Y-77075000D02*
X150125000Y-75705000D01*
X130125000Y-77075000D02*
X130125000Y-75705000D01*
X128625000Y-77075000D02*
X128625000Y-75585000D01*
D51*
X172265000Y-63710000D02*
X172265000Y-63220000D01*
D50*
X142125000Y-77075000D02*
X142125000Y-75705000D01*
D52*
X115540000Y-39054400D02*
X115540000Y-38495000D01*
X115540000Y-38495000D02*
X115725000Y-38310000D01*
X115725000Y-38310000D02*
X117755000Y-38310000D01*
X117755000Y-38310000D02*
X118055000Y-38610000D01*
X118055000Y-38610000D02*
X118655000Y-38610000D01*
X117845000Y-40470000D02*
X118655000Y-40470000D01*
X115745000Y-40230000D02*
X117605000Y-40230000D01*
X115567500Y-40407500D02*
X115745000Y-40230000D01*
X117605000Y-40230000D02*
X117845000Y-40470000D01*
X115567500Y-40980000D02*
X115567500Y-40407500D01*
X115785000Y-42070000D02*
X117665000Y-42070000D01*
X117925000Y-42330000D02*
X118655000Y-42330000D01*
X115565000Y-42840000D02*
X115565000Y-42290000D01*
X117665000Y-42070000D02*
X117925000Y-42330000D01*
X115565000Y-42290000D02*
X115785000Y-42070000D01*
X117895000Y-44190000D02*
X118655000Y-44190000D01*
X115565000Y-44690000D02*
X115565000Y-44130000D01*
X117635000Y-43930000D02*
X117895000Y-44190000D01*
X115765000Y-43930000D02*
X117635000Y-43930000D01*
X115565000Y-44130000D02*
X115765000Y-43930000D01*
X118185000Y-46050000D02*
X118660000Y-46050000D01*
X117210000Y-46560000D02*
X117675000Y-46560000D01*
X117675000Y-46560000D02*
X118185000Y-46050000D01*
D47*
X177910000Y-67335000D02*
X178975000Y-67335000D01*
X178840000Y-68350000D02*
X178840000Y-67350000D01*
D49*
X128385000Y-41420000D02*
X129410000Y-41420000D01*
D47*
X169025000Y-51970000D02*
X169400000Y-52345000D01*
X169400000Y-52345000D02*
X169675000Y-52345000D01*
X169150000Y-50495000D02*
X169025000Y-50620000D01*
X169987500Y-50495000D02*
X169150000Y-50495000D01*
X169025000Y-50620000D02*
X169025000Y-51970000D01*
X169942500Y-57845000D02*
X169105000Y-57845000D01*
X168980000Y-57970000D02*
X168980000Y-59320000D01*
X169355000Y-59695000D02*
X169630000Y-59695000D01*
X169105000Y-57845000D02*
X168980000Y-57970000D01*
X168980000Y-59320000D02*
X169355000Y-59695000D01*
X169175000Y-43145000D02*
X169050000Y-43270000D01*
X169425000Y-44995000D02*
X169700000Y-44995000D01*
X170012500Y-43145000D02*
X169175000Y-43145000D01*
X169050000Y-43270000D02*
X169050000Y-44620000D01*
X169050000Y-44620000D02*
X169425000Y-44995000D01*
X168992500Y-66650000D02*
X169367500Y-67025000D01*
X168992500Y-65300000D02*
X168992500Y-66650000D01*
X169955000Y-65175000D02*
X169117500Y-65175000D01*
X169367500Y-67025000D02*
X169642500Y-67025000D01*
X169117500Y-65175000D02*
X168992500Y-65300000D01*
D48*
X178155000Y-46265000D02*
X178950000Y-47060000D01*
D47*
X178930000Y-46295000D02*
X178930000Y-45295000D01*
X178030000Y-45280000D02*
X179095000Y-45280000D01*
D48*
X178085000Y-60965000D02*
X178880000Y-61760000D01*
D47*
X177960000Y-59980000D02*
X179025000Y-59980000D01*
X178860000Y-60995000D02*
X178860000Y-59995000D01*
D48*
X178130000Y-53615000D02*
X178925000Y-54410000D01*
D47*
X178005000Y-52630000D02*
X179070000Y-52630000D01*
X178905000Y-53645000D02*
X178905000Y-52645000D01*
D52*
X166610000Y-38045000D02*
X166485000Y-37920000D01*
X167410000Y-39420000D02*
X167110000Y-39420000D01*
X166485000Y-37920000D02*
X166065000Y-37920000D01*
X167110000Y-39420000D02*
X166610000Y-38920000D01*
X166610000Y-38920000D02*
X166610000Y-38045000D01*
G04 #@! TA.AperFunction,Conductor*
G36*
X164610648Y-49084352D02*
G01*
X164625000Y-49119000D01*
X164625000Y-49495000D01*
X164740543Y-49495000D01*
X164770680Y-49506118D01*
X164770690Y-49506102D01*
X164770770Y-49506151D01*
X164772365Y-49506739D01*
X164773978Y-49508117D01*
X164808626Y-49522469D01*
X164849000Y-49530500D01*
X164849002Y-49530500D01*
X166400998Y-49530500D01*
X166401000Y-49530500D01*
X166441374Y-49522469D01*
X166441376Y-49522468D01*
X166447335Y-49520000D01*
X166473041Y-49509352D01*
X166476013Y-49508121D01*
X166476013Y-49508120D01*
X166476022Y-49508117D01*
X166487103Y-49502470D01*
X166491286Y-49500340D01*
X166513530Y-49495000D01*
X166526000Y-49495000D01*
X166560648Y-49509352D01*
X166575000Y-49544000D01*
X166575000Y-51270000D01*
X168126000Y-51270000D01*
X168160648Y-51284352D01*
X168175000Y-51319000D01*
X168175000Y-53271000D01*
X168160648Y-53305648D01*
X168126000Y-53320000D01*
X164650000Y-53320000D01*
X164650000Y-53391912D01*
X164642783Y-53417508D01*
X164641885Y-53418972D01*
X164641883Y-53418978D01*
X164627531Y-53453626D01*
X164620951Y-53486708D01*
X164619500Y-53494002D01*
X164619500Y-53646000D01*
X164605148Y-53680648D01*
X164570500Y-53695000D01*
X163874000Y-53695000D01*
X163839352Y-53680648D01*
X163825000Y-53646000D01*
X163825000Y-49119000D01*
X163839352Y-49084352D01*
X163874000Y-49070000D01*
X164576000Y-49070000D01*
X164610648Y-49084352D01*
G37*
G04 #@! TD.AperFunction*
G04 #@! TA.AperFunction,Conductor*
G36*
X166353148Y-62534852D02*
G01*
X166367500Y-62569500D01*
X166367500Y-64076000D01*
X166353148Y-64110648D01*
X166318500Y-64125000D01*
X164766500Y-64125000D01*
X164731852Y-64110648D01*
X164717500Y-64076000D01*
X164717500Y-62569500D01*
X164731852Y-62534852D01*
X164766500Y-62520500D01*
X166318500Y-62520500D01*
X166353148Y-62534852D01*
G37*
G04 #@! TD.AperFunction*
G04 #@! TA.AperFunction,Conductor*
G36*
X173840148Y-37999852D02*
G01*
X173854500Y-38034500D01*
X173854500Y-38106001D01*
X173859058Y-38128912D01*
X173860000Y-38138473D01*
X173860000Y-39161525D01*
X173859058Y-39171085D01*
X173854500Y-39193996D01*
X173854500Y-39556000D01*
X173840148Y-39590648D01*
X173805500Y-39605000D01*
X173034000Y-39605000D01*
X172999352Y-39590648D01*
X172985000Y-39556000D01*
X172985000Y-38034500D01*
X172999352Y-37999852D01*
X173034000Y-37985500D01*
X173805500Y-37985500D01*
X173840148Y-37999852D01*
G37*
G04 #@! TD.AperFunction*
G04 #@! TA.AperFunction,Conductor*
G36*
X173933814Y-64225481D02*
G01*
X173933994Y-64225498D01*
X173934000Y-64225500D01*
X175680500Y-64225500D01*
X175715148Y-64239852D01*
X175729500Y-64274500D01*
X175729500Y-67496000D01*
X175735523Y-67526280D01*
X175737531Y-67536375D01*
X175737531Y-67536376D01*
X175751878Y-67571013D01*
X175751883Y-67571024D01*
X175759396Y-67585769D01*
X175759397Y-67585770D01*
X175759398Y-67585771D01*
X175808978Y-67628117D01*
X175843626Y-67642469D01*
X175884000Y-67650500D01*
X175884002Y-67650500D01*
X176750500Y-67650500D01*
X176785148Y-67664852D01*
X176799500Y-67699500D01*
X176799500Y-67995500D01*
X176785148Y-68030148D01*
X176750500Y-68044500D01*
X173929000Y-68044500D01*
X173894352Y-68030148D01*
X173880000Y-67995500D01*
X173880000Y-64274244D01*
X173894352Y-64239596D01*
X173929000Y-64225244D01*
X173933814Y-64225481D01*
G37*
G04 #@! TD.AperFunction*
G04 #@! TA.AperFunction,Conductor*
G36*
X173065648Y-56834352D02*
G01*
X173080000Y-56869000D01*
X173080000Y-60621000D01*
X173065648Y-60655648D01*
X173031000Y-60670000D01*
X169554000Y-60670000D01*
X169519352Y-60655648D01*
X169505000Y-60621000D01*
X169505000Y-58544000D01*
X169519352Y-58509352D01*
X169554000Y-58495000D01*
X171080000Y-58495000D01*
X171080000Y-56894500D01*
X171094352Y-56859852D01*
X171129000Y-56845500D01*
X172099564Y-56845500D01*
X172130132Y-56837308D01*
X172175989Y-56825021D01*
X172175996Y-56825016D01*
X172178955Y-56823792D01*
X172179430Y-56824941D01*
X172197814Y-56820000D01*
X173031000Y-56820000D01*
X173065648Y-56834352D01*
G37*
G04 #@! TD.AperFunction*
G04 #@! TA.AperFunction,Conductor*
G36*
X134656632Y-36398368D02*
G01*
X134660000Y-36406500D01*
X134660000Y-38283500D01*
X134656632Y-38291632D01*
X134648500Y-38295000D01*
X133196500Y-38295000D01*
X133188368Y-38291632D01*
X133185000Y-38283500D01*
X133185000Y-36406500D01*
X133188368Y-36398368D01*
X133196500Y-36395000D01*
X134648500Y-36395000D01*
X134656632Y-36398368D01*
G37*
G04 #@! TD.AperFunction*
G04 #@! TA.AperFunction,Conductor*
G36*
X165470648Y-38384352D02*
G01*
X165485000Y-38419000D01*
X165485000Y-40211000D01*
X165470648Y-40245648D01*
X165436000Y-40260000D01*
X164704000Y-40260000D01*
X164669352Y-40245648D01*
X164655000Y-40211000D01*
X164655000Y-38419000D01*
X164669352Y-38384352D01*
X164704000Y-38370000D01*
X165436000Y-38370000D01*
X165470648Y-38384352D01*
G37*
G04 #@! TD.AperFunction*
G04 #@! TA.AperFunction,Conductor*
G36*
X166460648Y-40464352D02*
G01*
X166475000Y-40499000D01*
X166475000Y-42026000D01*
X166460648Y-42060648D01*
X166426000Y-42075000D01*
X164874000Y-42075000D01*
X164839352Y-42060648D01*
X164825000Y-42026000D01*
X164825000Y-40499000D01*
X164839352Y-40464352D01*
X164874000Y-40450000D01*
X166426000Y-40450000D01*
X166460648Y-40464352D01*
G37*
G04 #@! TD.AperFunction*
G04 #@! TA.AperFunction,Conductor*
G36*
X175795648Y-36994352D02*
G01*
X175810000Y-37029000D01*
X175810000Y-38106000D01*
X175795648Y-38140648D01*
X175761000Y-38155000D01*
X174009000Y-38155000D01*
X173974352Y-38140648D01*
X173960000Y-38106000D01*
X173960000Y-37880000D01*
X172934000Y-37880000D01*
X172899352Y-37865648D01*
X172885000Y-37831000D01*
X172885000Y-37029000D01*
X172899352Y-36994352D01*
X172934000Y-36980000D01*
X175761000Y-36980000D01*
X175795648Y-36994352D01*
G37*
G04 #@! TD.AperFunction*
G04 #@! TA.AperFunction,Conductor*
G36*
X173110648Y-49484352D02*
G01*
X173125000Y-49519000D01*
X173125000Y-53271000D01*
X173110648Y-53305648D01*
X173076000Y-53320000D01*
X169599000Y-53320000D01*
X169564352Y-53305648D01*
X169550000Y-53271000D01*
X169550000Y-51194000D01*
X169564352Y-51159352D01*
X169599000Y-51145000D01*
X171125000Y-51145000D01*
X171125000Y-49544500D01*
X171139352Y-49509852D01*
X171174000Y-49495500D01*
X172129564Y-49495500D01*
X172160132Y-49487308D01*
X172205989Y-49475021D01*
X172205996Y-49475016D01*
X172208955Y-49473792D01*
X172209430Y-49474941D01*
X172227814Y-49470000D01*
X173076000Y-49470000D01*
X173110648Y-49484352D01*
G37*
G04 #@! TD.AperFunction*
G04 #@! TA.AperFunction,Conductor*
G36*
X166435648Y-47834852D02*
G01*
X166450000Y-47869500D01*
X166450000Y-49376000D01*
X166435648Y-49410648D01*
X166401000Y-49425000D01*
X164849000Y-49425000D01*
X164814352Y-49410648D01*
X164800000Y-49376000D01*
X164800000Y-47869500D01*
X164814352Y-47834852D01*
X164849000Y-47820500D01*
X166401000Y-47820500D01*
X166435648Y-47834852D01*
G37*
G04 #@! TD.AperFunction*
G04 #@! TA.AperFunction,Conductor*
G36*
X174053814Y-42170481D02*
G01*
X174053994Y-42170498D01*
X174054000Y-42170500D01*
X175800500Y-42170500D01*
X175835148Y-42184852D01*
X175849500Y-42219500D01*
X175849500Y-45411226D01*
X175849501Y-45411239D01*
X175855084Y-45445096D01*
X175855087Y-45445110D01*
X175865185Y-45474898D01*
X175868686Y-45483861D01*
X175868687Y-45483862D01*
X175900000Y-45518694D01*
X175900000Y-45545000D01*
X175934143Y-45545000D01*
X175939760Y-45548249D01*
X175940577Y-45546834D01*
X175948819Y-45553489D01*
X175954763Y-45556927D01*
X175960185Y-45557645D01*
X175962345Y-45558971D01*
X175964808Y-45560571D01*
X175964811Y-45560571D01*
X175964813Y-45560573D01*
X176036505Y-45579782D01*
X176042546Y-45581833D01*
X176051006Y-45585338D01*
X176075508Y-45591904D01*
X176102816Y-45595500D01*
X176102819Y-45595500D01*
X176870500Y-45595500D01*
X176905148Y-45609852D01*
X176919500Y-45644500D01*
X176919500Y-45940500D01*
X176905148Y-45975148D01*
X176870500Y-45989500D01*
X174049000Y-45989500D01*
X174014352Y-45975148D01*
X174000000Y-45940500D01*
X174000000Y-42219244D01*
X174014352Y-42184596D01*
X174049000Y-42170244D01*
X174053814Y-42170481D01*
G37*
G04 #@! TD.AperFunction*
G04 #@! TA.AperFunction,Conductor*
G36*
X126295648Y-68259352D02*
G01*
X126310000Y-68294000D01*
X126310000Y-69171000D01*
X126295648Y-69205648D01*
X126261000Y-69220000D01*
X124014000Y-69220000D01*
X123979352Y-69205648D01*
X123965000Y-69171000D01*
X123965000Y-68294000D01*
X123979352Y-68259352D01*
X124014000Y-68245000D01*
X126261000Y-68245000D01*
X126295648Y-68259352D01*
G37*
G04 #@! TD.AperFunction*
G04 #@! TA.AperFunction,Conductor*
G36*
X144606632Y-33523368D02*
G01*
X144610000Y-33531500D01*
X144610000Y-35508500D01*
X144606632Y-35516632D01*
X144598500Y-35520000D01*
X143721500Y-35520000D01*
X143713368Y-35516632D01*
X143710000Y-35508500D01*
X143710000Y-33531500D01*
X143713368Y-33523368D01*
X143721500Y-33520000D01*
X144598500Y-33520000D01*
X144606632Y-33523368D01*
G37*
G04 #@! TD.AperFunction*
G04 #@! TA.AperFunction,Conductor*
G36*
X180435648Y-48084352D02*
G01*
X180450000Y-48119000D01*
X180450000Y-52121000D01*
X180435648Y-52155648D01*
X180401000Y-52170000D01*
X178650000Y-52170000D01*
X178464352Y-52355648D01*
X178429704Y-52370000D01*
X178296671Y-52370000D01*
X178291747Y-52369516D01*
X178291726Y-52369736D01*
X178289333Y-52369500D01*
X178289332Y-52369500D01*
X177680668Y-52369500D01*
X177680666Y-52369500D01*
X177678274Y-52369736D01*
X177678252Y-52369516D01*
X177673329Y-52370000D01*
X177550000Y-52370000D01*
X177550000Y-52493329D01*
X177549516Y-52498252D01*
X177549736Y-52498274D01*
X177549500Y-52500669D01*
X177549500Y-52739333D01*
X177549736Y-52741729D01*
X177549512Y-52741751D01*
X177550000Y-52746672D01*
X177550000Y-52993329D01*
X177549516Y-52998252D01*
X177549736Y-52998274D01*
X177549500Y-53000669D01*
X177549500Y-53239333D01*
X177549736Y-53241729D01*
X177549512Y-53241751D01*
X177550000Y-53246672D01*
X177550000Y-53395021D01*
X177550986Y-53487829D01*
X177550049Y-53497900D01*
X177549501Y-53500657D01*
X177549500Y-53500668D01*
X177549500Y-53739332D01*
X177551811Y-53750950D01*
X177553008Y-53756966D01*
X177553946Y-53766004D01*
X177555000Y-53865000D01*
X177648194Y-53865000D01*
X177657754Y-53865942D01*
X177680668Y-53870500D01*
X178008954Y-53870500D01*
X178043602Y-53884852D01*
X178485648Y-54326898D01*
X178500000Y-54361546D01*
X178500000Y-54721000D01*
X178485648Y-54755648D01*
X178451000Y-54770000D01*
X164774000Y-54770000D01*
X164739352Y-54755648D01*
X164725000Y-54721000D01*
X164725000Y-53494000D01*
X164739352Y-53459352D01*
X164774000Y-53445000D01*
X177000000Y-53445000D01*
X177000000Y-52899457D01*
X177011118Y-52869323D01*
X177011101Y-52869313D01*
X177011156Y-52869222D01*
X177011744Y-52867630D01*
X177013116Y-52866023D01*
X177013115Y-52866023D01*
X177013117Y-52866022D01*
X177027469Y-52831374D01*
X177035500Y-52791000D01*
X177035500Y-52553995D01*
X177049852Y-52519347D01*
X177339699Y-52229500D01*
X177690248Y-51878952D01*
X177713117Y-51844726D01*
X177718469Y-51831804D01*
X177729085Y-51815914D01*
X177775000Y-51770000D01*
X177775000Y-48119000D01*
X177789352Y-48084352D01*
X177824000Y-48070000D01*
X180401000Y-48070000D01*
X180435648Y-48084352D01*
G37*
G04 #@! TD.AperFunction*
G04 #@! TA.AperFunction,Conductor*
G36*
X144606632Y-37798368D02*
G01*
X144610000Y-37806500D01*
X144610000Y-39783500D01*
X144606632Y-39791632D01*
X144598500Y-39795000D01*
X143721500Y-39795000D01*
X143713368Y-39791632D01*
X143710000Y-39783500D01*
X143710000Y-37806500D01*
X143713368Y-37798368D01*
X143721500Y-37795000D01*
X144598500Y-37795000D01*
X144606632Y-37798368D01*
G37*
G04 #@! TD.AperFunction*
G04 #@! TA.AperFunction,Conductor*
G36*
X130269734Y-75295391D02*
G01*
X130344780Y-75315500D01*
X130425220Y-75315500D01*
X130465609Y-75304678D01*
X130500265Y-75295391D01*
X130503241Y-75295000D01*
X131766759Y-75295000D01*
X131769734Y-75295391D01*
X131844780Y-75315500D01*
X131925220Y-75315500D01*
X131965609Y-75304678D01*
X132000265Y-75295391D01*
X132003241Y-75295000D01*
X139847232Y-75295000D01*
X139852982Y-75296541D01*
X139867081Y-75304681D01*
X139944780Y-75325500D01*
X140025220Y-75325500D01*
X140102919Y-75304681D01*
X140117018Y-75296541D01*
X140122768Y-75295000D01*
X140472232Y-75295000D01*
X140477982Y-75296541D01*
X140492081Y-75304681D01*
X140569780Y-75325500D01*
X140650220Y-75325500D01*
X140727919Y-75304681D01*
X140742018Y-75296541D01*
X140747768Y-75295000D01*
X141147232Y-75295000D01*
X141152982Y-75296541D01*
X141167081Y-75304681D01*
X141244780Y-75325500D01*
X141325220Y-75325500D01*
X141402919Y-75304681D01*
X141417018Y-75296541D01*
X141422768Y-75295000D01*
X141747232Y-75295000D01*
X141752982Y-75296541D01*
X141767081Y-75304681D01*
X141844780Y-75325500D01*
X141925220Y-75325500D01*
X142002919Y-75304681D01*
X142017018Y-75296541D01*
X142022768Y-75295000D01*
X143722232Y-75295000D01*
X143727982Y-75296541D01*
X143742081Y-75304681D01*
X143819780Y-75325500D01*
X143900220Y-75325500D01*
X143977919Y-75304681D01*
X143992018Y-75296541D01*
X143997768Y-75295000D01*
X145241759Y-75295000D01*
X145244734Y-75295391D01*
X145319780Y-75315500D01*
X145400220Y-75315500D01*
X145440609Y-75304678D01*
X145475265Y-75295391D01*
X145478241Y-75295000D01*
X146741759Y-75295000D01*
X146744734Y-75295391D01*
X146819780Y-75315500D01*
X146900220Y-75315500D01*
X146940609Y-75304678D01*
X146975265Y-75295391D01*
X146978241Y-75295000D01*
X148266759Y-75295000D01*
X148269734Y-75295391D01*
X148344780Y-75315500D01*
X148425220Y-75315500D01*
X148465609Y-75304678D01*
X148500265Y-75295391D01*
X148503241Y-75295000D01*
X149741759Y-75295000D01*
X149744734Y-75295391D01*
X149819780Y-75315500D01*
X149900220Y-75315500D01*
X149940609Y-75304678D01*
X149975265Y-75295391D01*
X149978241Y-75295000D01*
X150747232Y-75295000D01*
X150752982Y-75296541D01*
X150767081Y-75304681D01*
X150844780Y-75325500D01*
X150925220Y-75325500D01*
X151002919Y-75304681D01*
X151017018Y-75296541D01*
X151022768Y-75295000D01*
X151173500Y-75295000D01*
X151181632Y-75298368D01*
X151185000Y-75306500D01*
X151185000Y-75858500D01*
X151181632Y-75866632D01*
X151173500Y-75870000D01*
X149864656Y-75870000D01*
X149858267Y-75868062D01*
X149839214Y-75855332D01*
X149839215Y-75855332D01*
X149839213Y-75855331D01*
X149839211Y-75855330D01*
X149839210Y-75855330D01*
X149824454Y-75852395D01*
X149809899Y-75849500D01*
X149809897Y-75849500D01*
X149440102Y-75849500D01*
X149410790Y-75855330D01*
X149410785Y-75855332D01*
X149391733Y-75868062D01*
X149385344Y-75870000D01*
X149364656Y-75870000D01*
X149358267Y-75868062D01*
X149339214Y-75855332D01*
X149339215Y-75855332D01*
X149339213Y-75855331D01*
X149339211Y-75855330D01*
X149339210Y-75855330D01*
X149324454Y-75852395D01*
X149309899Y-75849500D01*
X149309897Y-75849500D01*
X148940102Y-75849500D01*
X148910790Y-75855330D01*
X148910785Y-75855332D01*
X148891733Y-75868062D01*
X148885344Y-75870000D01*
X147864656Y-75870000D01*
X147858267Y-75868062D01*
X147839214Y-75855332D01*
X147839215Y-75855332D01*
X147839213Y-75855331D01*
X147839211Y-75855330D01*
X147839210Y-75855330D01*
X147824454Y-75852395D01*
X147809899Y-75849500D01*
X147809897Y-75849500D01*
X147440102Y-75849500D01*
X147410790Y-75855330D01*
X147410785Y-75855332D01*
X147391733Y-75868062D01*
X147385344Y-75870000D01*
X147364656Y-75870000D01*
X147358267Y-75868062D01*
X147339214Y-75855332D01*
X147339215Y-75855332D01*
X147339213Y-75855331D01*
X147339211Y-75855330D01*
X147339210Y-75855330D01*
X147324454Y-75852395D01*
X147309899Y-75849500D01*
X147309897Y-75849500D01*
X146940102Y-75849500D01*
X146910790Y-75855330D01*
X146910785Y-75855332D01*
X146891733Y-75868062D01*
X146885344Y-75870000D01*
X145864656Y-75870000D01*
X145858267Y-75868062D01*
X145839214Y-75855332D01*
X145839215Y-75855332D01*
X145839213Y-75855331D01*
X145839211Y-75855330D01*
X145839210Y-75855330D01*
X145824454Y-75852395D01*
X145809899Y-75849500D01*
X145809897Y-75849500D01*
X145440102Y-75849500D01*
X145410790Y-75855330D01*
X145410785Y-75855332D01*
X145391733Y-75868062D01*
X145385344Y-75870000D01*
X145364656Y-75870000D01*
X145358267Y-75868062D01*
X145339214Y-75855332D01*
X145339215Y-75855332D01*
X145339213Y-75855331D01*
X145339211Y-75855330D01*
X145339210Y-75855330D01*
X145324454Y-75852395D01*
X145309899Y-75849500D01*
X145309897Y-75849500D01*
X144940102Y-75849500D01*
X144910790Y-75855330D01*
X144910785Y-75855332D01*
X144891733Y-75868062D01*
X144885344Y-75870000D01*
X143864656Y-75870000D01*
X143858267Y-75868062D01*
X143839214Y-75855332D01*
X143839215Y-75855332D01*
X143839213Y-75855331D01*
X143839211Y-75855330D01*
X143839210Y-75855330D01*
X143824454Y-75852395D01*
X143809899Y-75849500D01*
X143809897Y-75849500D01*
X143440102Y-75849500D01*
X143410790Y-75855330D01*
X143410785Y-75855332D01*
X143391733Y-75868062D01*
X143385344Y-75870000D01*
X143364656Y-75870000D01*
X143358267Y-75868062D01*
X143339214Y-75855332D01*
X143339215Y-75855332D01*
X143339213Y-75855331D01*
X143339211Y-75855330D01*
X143339210Y-75855330D01*
X143324454Y-75852395D01*
X143309899Y-75849500D01*
X143309897Y-75849500D01*
X142940102Y-75849500D01*
X142910790Y-75855330D01*
X142910785Y-75855332D01*
X142891733Y-75868062D01*
X142885344Y-75870000D01*
X141864656Y-75870000D01*
X141858267Y-75868062D01*
X141839214Y-75855332D01*
X141839215Y-75855332D01*
X141839213Y-75855331D01*
X141839211Y-75855330D01*
X141839210Y-75855330D01*
X141824454Y-75852395D01*
X141809899Y-75849500D01*
X141809897Y-75849500D01*
X141440102Y-75849500D01*
X141410790Y-75855330D01*
X141410785Y-75855332D01*
X141391733Y-75868062D01*
X141385344Y-75870000D01*
X141364656Y-75870000D01*
X141358267Y-75868062D01*
X141339214Y-75855332D01*
X141339215Y-75855332D01*
X141339213Y-75855331D01*
X141339211Y-75855330D01*
X141339210Y-75855330D01*
X141324454Y-75852395D01*
X141309899Y-75849500D01*
X141309897Y-75849500D01*
X140940102Y-75849500D01*
X140910790Y-75855330D01*
X140910785Y-75855332D01*
X140891733Y-75868062D01*
X140885344Y-75870000D01*
X139864656Y-75870000D01*
X139858267Y-75868062D01*
X139839214Y-75855332D01*
X139839215Y-75855332D01*
X139839213Y-75855331D01*
X139839211Y-75855330D01*
X139839210Y-75855330D01*
X139824454Y-75852395D01*
X139809899Y-75849500D01*
X139809897Y-75849500D01*
X139440102Y-75849500D01*
X139410790Y-75855330D01*
X139410785Y-75855332D01*
X139391733Y-75868062D01*
X139385344Y-75870000D01*
X139364656Y-75870000D01*
X139358267Y-75868062D01*
X139339214Y-75855332D01*
X139339215Y-75855332D01*
X139339213Y-75855331D01*
X139339211Y-75855330D01*
X139339210Y-75855330D01*
X139324454Y-75852395D01*
X139309899Y-75849500D01*
X139309897Y-75849500D01*
X138940102Y-75849500D01*
X138910790Y-75855330D01*
X138910785Y-75855332D01*
X138891733Y-75868062D01*
X138885344Y-75870000D01*
X137864656Y-75870000D01*
X137858267Y-75868062D01*
X137839214Y-75855332D01*
X137839215Y-75855332D01*
X137839213Y-75855331D01*
X137839211Y-75855330D01*
X137839210Y-75855330D01*
X137824454Y-75852395D01*
X137809899Y-75849500D01*
X137809897Y-75849500D01*
X137440102Y-75849500D01*
X137410790Y-75855330D01*
X137410785Y-75855332D01*
X137391733Y-75868062D01*
X137385344Y-75870000D01*
X137364656Y-75870000D01*
X137358267Y-75868062D01*
X137339214Y-75855332D01*
X137339215Y-75855332D01*
X137339213Y-75855331D01*
X137339211Y-75855330D01*
X137339210Y-75855330D01*
X137324454Y-75852395D01*
X137309899Y-75849500D01*
X137309897Y-75849500D01*
X136940102Y-75849500D01*
X136910790Y-75855330D01*
X136910785Y-75855332D01*
X136891733Y-75868062D01*
X136885344Y-75870000D01*
X135864656Y-75870000D01*
X135858267Y-75868062D01*
X135839214Y-75855332D01*
X135839215Y-75855332D01*
X135839213Y-75855331D01*
X135839211Y-75855330D01*
X135839210Y-75855330D01*
X135824454Y-75852395D01*
X135809899Y-75849500D01*
X135809897Y-75849500D01*
X135440102Y-75849500D01*
X135410790Y-75855330D01*
X135410785Y-75855332D01*
X135391733Y-75868062D01*
X135385344Y-75870000D01*
X135364656Y-75870000D01*
X135358267Y-75868062D01*
X135339214Y-75855332D01*
X135339215Y-75855332D01*
X135339213Y-75855331D01*
X135339211Y-75855330D01*
X135339210Y-75855330D01*
X135324454Y-75852395D01*
X135309899Y-75849500D01*
X135309897Y-75849500D01*
X134940102Y-75849500D01*
X134910790Y-75855330D01*
X134910785Y-75855332D01*
X134891733Y-75868062D01*
X134885344Y-75870000D01*
X133864656Y-75870000D01*
X133858267Y-75868062D01*
X133839214Y-75855332D01*
X133839215Y-75855332D01*
X133839213Y-75855331D01*
X133839211Y-75855330D01*
X133839210Y-75855330D01*
X133824454Y-75852395D01*
X133809899Y-75849500D01*
X133809897Y-75849500D01*
X133440102Y-75849500D01*
X133410790Y-75855330D01*
X133410785Y-75855332D01*
X133391733Y-75868062D01*
X133385344Y-75870000D01*
X133364656Y-75870000D01*
X133358267Y-75868062D01*
X133339214Y-75855332D01*
X133339215Y-75855332D01*
X133339213Y-75855331D01*
X133339211Y-75855330D01*
X133339210Y-75855330D01*
X133324454Y-75852395D01*
X133309899Y-75849500D01*
X133309897Y-75849500D01*
X132940102Y-75849500D01*
X132910790Y-75855330D01*
X132910785Y-75855332D01*
X132891733Y-75868062D01*
X132885344Y-75870000D01*
X131864656Y-75870000D01*
X131858267Y-75868062D01*
X131839214Y-75855332D01*
X131839215Y-75855332D01*
X131839213Y-75855331D01*
X131839211Y-75855330D01*
X131839210Y-75855330D01*
X131824454Y-75852395D01*
X131809899Y-75849500D01*
X131809897Y-75849500D01*
X131440102Y-75849500D01*
X131410790Y-75855330D01*
X131410785Y-75855332D01*
X131391733Y-75868062D01*
X131385344Y-75870000D01*
X131364656Y-75870000D01*
X131358267Y-75868062D01*
X131339214Y-75855332D01*
X131339215Y-75855332D01*
X131339213Y-75855331D01*
X131339211Y-75855330D01*
X131339210Y-75855330D01*
X131324454Y-75852395D01*
X131309899Y-75849500D01*
X131309897Y-75849500D01*
X130940102Y-75849500D01*
X130910790Y-75855330D01*
X130910785Y-75855332D01*
X130891733Y-75868062D01*
X130885344Y-75870000D01*
X129921500Y-75870000D01*
X129913368Y-75866632D01*
X129910000Y-75858500D01*
X129910000Y-75306500D01*
X129913368Y-75298368D01*
X129921500Y-75295000D01*
X130266759Y-75295000D01*
X130269734Y-75295391D01*
G37*
G04 #@! TD.AperFunction*
G04 #@! TA.AperFunction,Conductor*
G36*
X173090648Y-64239352D02*
G01*
X173105000Y-64274000D01*
X173105000Y-67995500D01*
X173090648Y-68030148D01*
X173056000Y-68044500D01*
X169579000Y-68044500D01*
X169544352Y-68030148D01*
X169530000Y-67995500D01*
X169530000Y-65949000D01*
X169544352Y-65914352D01*
X169579000Y-65900000D01*
X171105000Y-65900000D01*
X171105000Y-64274000D01*
X171119352Y-64239352D01*
X171154000Y-64225000D01*
X173056000Y-64225000D01*
X173090648Y-64239352D01*
G37*
G04 #@! TD.AperFunction*
G04 #@! TA.AperFunction,Conductor*
G36*
X164635648Y-41734352D02*
G01*
X164650000Y-41769000D01*
X164650000Y-42145000D01*
X164765543Y-42145000D01*
X164795680Y-42156118D01*
X164795690Y-42156102D01*
X164795770Y-42156151D01*
X164797365Y-42156739D01*
X164798978Y-42158117D01*
X164833626Y-42172469D01*
X164874000Y-42180500D01*
X164874002Y-42180500D01*
X166425998Y-42180500D01*
X166426000Y-42180500D01*
X166466374Y-42172469D01*
X166466376Y-42172468D01*
X166501013Y-42158121D01*
X166501013Y-42158120D01*
X166501022Y-42158117D01*
X166512103Y-42152470D01*
X166516286Y-42150340D01*
X166538530Y-42145000D01*
X166551000Y-42145000D01*
X166585648Y-42159352D01*
X166600000Y-42194000D01*
X166600000Y-43920000D01*
X168151000Y-43920000D01*
X168185648Y-43934352D01*
X168200000Y-43969000D01*
X168200000Y-45921000D01*
X168185648Y-45955648D01*
X168151000Y-45970000D01*
X164675000Y-45970000D01*
X164675000Y-46041912D01*
X164667783Y-46067508D01*
X164666885Y-46068972D01*
X164666883Y-46068978D01*
X164652531Y-46103626D01*
X164645951Y-46136708D01*
X164644500Y-46144002D01*
X164644500Y-46296000D01*
X164630148Y-46330648D01*
X164595500Y-46345000D01*
X163899000Y-46345000D01*
X163864352Y-46330648D01*
X163850000Y-46296000D01*
X163850000Y-41769000D01*
X163864352Y-41734352D01*
X163899000Y-41720000D01*
X164601000Y-41720000D01*
X164635648Y-41734352D01*
G37*
G04 #@! TD.AperFunction*
G04 #@! TA.AperFunction,Conductor*
G36*
X180460648Y-40734352D02*
G01*
X180475000Y-40769000D01*
X180475000Y-44771000D01*
X180460648Y-44805648D01*
X180426000Y-44820000D01*
X178675000Y-44820000D01*
X178489352Y-45005648D01*
X178454704Y-45020000D01*
X178321671Y-45020000D01*
X178316747Y-45019516D01*
X178316726Y-45019736D01*
X178314333Y-45019500D01*
X178314332Y-45019500D01*
X177705668Y-45019500D01*
X177705666Y-45019500D01*
X177703274Y-45019736D01*
X177703252Y-45019516D01*
X177698329Y-45020000D01*
X177575000Y-45020000D01*
X177575000Y-45143329D01*
X177574516Y-45148252D01*
X177574736Y-45148274D01*
X177574500Y-45150669D01*
X177574500Y-45389333D01*
X177574736Y-45391729D01*
X177574512Y-45391751D01*
X177575000Y-45396672D01*
X177575000Y-45643329D01*
X177574516Y-45648252D01*
X177574736Y-45648274D01*
X177574500Y-45650669D01*
X177574500Y-45889333D01*
X177574736Y-45891729D01*
X177574512Y-45891751D01*
X177575000Y-45896672D01*
X177575000Y-46045021D01*
X177575986Y-46137829D01*
X177575049Y-46147900D01*
X177574501Y-46150657D01*
X177574500Y-46150668D01*
X177574500Y-46389332D01*
X177578008Y-46406966D01*
X177578946Y-46416004D01*
X177580000Y-46515000D01*
X177673194Y-46515000D01*
X177682754Y-46515942D01*
X177705668Y-46520500D01*
X178033954Y-46520500D01*
X178068602Y-46534852D01*
X178510648Y-46976898D01*
X178525000Y-47011546D01*
X178525000Y-47371000D01*
X178510648Y-47405648D01*
X178476000Y-47420000D01*
X164799000Y-47420000D01*
X164764352Y-47405648D01*
X164750000Y-47371000D01*
X164750000Y-46144000D01*
X164764352Y-46109352D01*
X164799000Y-46095000D01*
X177025000Y-46095000D01*
X177025000Y-45549457D01*
X177036118Y-45519323D01*
X177036101Y-45519313D01*
X177036156Y-45519222D01*
X177036744Y-45517630D01*
X177038116Y-45516023D01*
X177038115Y-45516023D01*
X177038117Y-45516022D01*
X177052469Y-45481374D01*
X177060500Y-45441000D01*
X177060500Y-45203995D01*
X177074852Y-45169347D01*
X177381035Y-44863164D01*
X177715248Y-44528952D01*
X177738117Y-44494726D01*
X177743469Y-44481804D01*
X177754085Y-44465914D01*
X177800000Y-44420000D01*
X177800000Y-40769000D01*
X177814352Y-40734352D01*
X177849000Y-40720000D01*
X180426000Y-40720000D01*
X180460648Y-40734352D01*
G37*
G04 #@! TD.AperFunction*
G04 #@! TA.AperFunction,Conductor*
G36*
X177520648Y-62784352D02*
G01*
X177535000Y-62819000D01*
X177535000Y-66474704D01*
X177520648Y-66509352D01*
X176835000Y-67194999D01*
X176835000Y-67496000D01*
X176820648Y-67530648D01*
X176786000Y-67545000D01*
X175884000Y-67545000D01*
X175849352Y-67530648D01*
X175835000Y-67496000D01*
X175835000Y-64120000D01*
X173934000Y-64120000D01*
X173899352Y-64105648D01*
X173885000Y-64071000D01*
X173885000Y-62819000D01*
X173899352Y-62784352D01*
X173934000Y-62770000D01*
X177486000Y-62770000D01*
X177520648Y-62784352D01*
G37*
G04 #@! TD.AperFunction*
G04 #@! TA.AperFunction,Conductor*
G36*
X134631632Y-53948368D02*
G01*
X134635000Y-53956500D01*
X134635000Y-57733500D01*
X134631632Y-57741632D01*
X134623500Y-57745000D01*
X134046500Y-57745000D01*
X134038368Y-57741632D01*
X134035000Y-57733500D01*
X134035000Y-56770001D01*
X134035000Y-56770000D01*
X134034999Y-56770000D01*
X133196500Y-56770000D01*
X133188368Y-56766632D01*
X133185000Y-56758500D01*
X133185000Y-54906500D01*
X133188368Y-54898368D01*
X133196500Y-54895000D01*
X134034999Y-54895000D01*
X134035000Y-54895000D01*
X134035000Y-53956500D01*
X134038368Y-53948368D01*
X134046500Y-53945000D01*
X134623500Y-53945000D01*
X134631632Y-53948368D01*
G37*
G04 #@! TD.AperFunction*
G04 #@! TA.AperFunction,Conductor*
G36*
X166390648Y-55184852D02*
G01*
X166405000Y-55219500D01*
X166405000Y-56726000D01*
X166390648Y-56760648D01*
X166356000Y-56775000D01*
X164804000Y-56775000D01*
X164769352Y-56760648D01*
X164755000Y-56726000D01*
X164755000Y-55219500D01*
X164769352Y-55184852D01*
X164804000Y-55170500D01*
X166356000Y-55170500D01*
X166390648Y-55184852D01*
G37*
G04 #@! TD.AperFunction*
G04 #@! TA.AperFunction,Conductor*
G36*
X177615648Y-48079352D02*
G01*
X177630000Y-48114000D01*
X177630000Y-51769704D01*
X177615648Y-51804352D01*
X176930000Y-52489999D01*
X176930000Y-52791000D01*
X176915648Y-52825648D01*
X176881000Y-52840000D01*
X176077816Y-52840000D01*
X176053314Y-52833434D01*
X176047919Y-52830319D01*
X176047917Y-52830318D01*
X175967118Y-52808668D01*
X175967584Y-52806926D01*
X175940101Y-52791029D01*
X175930000Y-52761232D01*
X175930000Y-49415000D01*
X174029000Y-49415000D01*
X173994352Y-49400648D01*
X173980000Y-49366000D01*
X173980000Y-48114000D01*
X173994352Y-48079352D01*
X174029000Y-48065000D01*
X177581000Y-48065000D01*
X177615648Y-48079352D01*
G37*
G04 #@! TD.AperFunction*
G04 #@! TA.AperFunction,Conductor*
G36*
X144606632Y-35648368D02*
G01*
X144610000Y-35656500D01*
X144610000Y-37633500D01*
X144606632Y-37641632D01*
X144598500Y-37645000D01*
X143721500Y-37645000D01*
X143713368Y-37641632D01*
X143710000Y-37633500D01*
X143710000Y-35656500D01*
X143713368Y-35648368D01*
X143721500Y-35645000D01*
X144598500Y-35645000D01*
X144606632Y-35648368D01*
G37*
G04 #@! TD.AperFunction*
G04 #@! TA.AperFunction,Conductor*
G36*
X164565648Y-56434352D02*
G01*
X164580000Y-56469000D01*
X164580000Y-56845000D01*
X164695543Y-56845000D01*
X164725680Y-56856118D01*
X164725690Y-56856102D01*
X164725770Y-56856151D01*
X164727365Y-56856739D01*
X164728978Y-56858117D01*
X164763626Y-56872469D01*
X164804000Y-56880500D01*
X164804002Y-56880500D01*
X166355998Y-56880500D01*
X166356000Y-56880500D01*
X166396374Y-56872469D01*
X166396376Y-56872468D01*
X166402335Y-56870000D01*
X166428041Y-56859352D01*
X166431013Y-56858121D01*
X166431013Y-56858120D01*
X166431022Y-56858117D01*
X166442103Y-56852470D01*
X166446286Y-56850340D01*
X166468530Y-56845000D01*
X166481000Y-56845000D01*
X166515648Y-56859352D01*
X166530000Y-56894000D01*
X166530000Y-58620000D01*
X168081000Y-58620000D01*
X168115648Y-58634352D01*
X168130000Y-58669000D01*
X168130000Y-60621000D01*
X168115648Y-60655648D01*
X168081000Y-60670000D01*
X164605000Y-60670000D01*
X164605000Y-60741912D01*
X164597783Y-60767508D01*
X164596885Y-60768972D01*
X164582531Y-60803626D01*
X164574500Y-60844002D01*
X164574500Y-60996000D01*
X164560148Y-61030648D01*
X164525500Y-61045000D01*
X163829000Y-61045000D01*
X163794352Y-61030648D01*
X163780000Y-60996000D01*
X163780000Y-56469000D01*
X163794352Y-56434352D01*
X163829000Y-56420000D01*
X164531000Y-56420000D01*
X164565648Y-56434352D01*
G37*
G04 #@! TD.AperFunction*
G04 #@! TA.AperFunction,Conductor*
G36*
X177640648Y-40729352D02*
G01*
X177655000Y-40764000D01*
X177655000Y-44419704D01*
X177640648Y-44454352D01*
X176955000Y-45139999D01*
X176955000Y-45441000D01*
X176940648Y-45475648D01*
X176906000Y-45490000D01*
X176102816Y-45490000D01*
X176078314Y-45483434D01*
X176072919Y-45480319D01*
X176072917Y-45480318D01*
X175992118Y-45458668D01*
X175992584Y-45456926D01*
X175965101Y-45441029D01*
X175955000Y-45411232D01*
X175955000Y-42065000D01*
X174054000Y-42065000D01*
X174019352Y-42050648D01*
X174005000Y-42016000D01*
X174005000Y-40764000D01*
X174019352Y-40729352D01*
X174054000Y-40715000D01*
X177606000Y-40715000D01*
X177640648Y-40729352D01*
G37*
G04 #@! TD.AperFunction*
G04 #@! TA.AperFunction,Conductor*
G36*
X173983814Y-56870481D02*
G01*
X173983994Y-56870498D01*
X173984000Y-56870500D01*
X175730500Y-56870500D01*
X175765148Y-56884852D01*
X175779500Y-56919500D01*
X175779500Y-60111226D01*
X175779501Y-60111239D01*
X175785084Y-60145096D01*
X175785087Y-60145110D01*
X175795185Y-60174898D01*
X175798686Y-60183861D01*
X175798687Y-60183862D01*
X175830000Y-60218694D01*
X175830000Y-60245000D01*
X175864143Y-60245000D01*
X175869760Y-60248249D01*
X175870577Y-60246834D01*
X175878819Y-60253489D01*
X175884763Y-60256927D01*
X175890185Y-60257645D01*
X175892345Y-60258971D01*
X175894808Y-60260571D01*
X175894811Y-60260571D01*
X175894813Y-60260573D01*
X175966505Y-60279782D01*
X175972546Y-60281833D01*
X175981006Y-60285338D01*
X176005508Y-60291904D01*
X176032816Y-60295500D01*
X176032819Y-60295500D01*
X176800500Y-60295500D01*
X176835148Y-60309852D01*
X176849500Y-60344500D01*
X176849500Y-60640500D01*
X176835148Y-60675148D01*
X176800500Y-60689500D01*
X173979000Y-60689500D01*
X173944352Y-60675148D01*
X173930000Y-60640500D01*
X173930000Y-56919244D01*
X173944352Y-56884596D01*
X173979000Y-56870244D01*
X173983814Y-56870481D01*
G37*
G04 #@! TD.AperFunction*
G04 #@! TA.AperFunction,Conductor*
G36*
X173135648Y-42134352D02*
G01*
X173150000Y-42169000D01*
X173150000Y-45921000D01*
X173135648Y-45955648D01*
X173101000Y-45970000D01*
X169624000Y-45970000D01*
X169589352Y-45955648D01*
X169575000Y-45921000D01*
X169575000Y-43844000D01*
X169589352Y-43809352D01*
X169624000Y-43795000D01*
X171150000Y-43795000D01*
X171150000Y-42219500D01*
X171164352Y-42184852D01*
X171199000Y-42170500D01*
X172184564Y-42170500D01*
X172232790Y-42157577D01*
X172260989Y-42150021D01*
X172301616Y-42126564D01*
X172326116Y-42120000D01*
X173101000Y-42120000D01*
X173135648Y-42134352D01*
G37*
G04 #@! TD.AperFunction*
G04 #@! TA.AperFunction,Conductor*
G36*
X180340648Y-62789352D02*
G01*
X180355000Y-62824000D01*
X180355000Y-66826000D01*
X180340648Y-66860648D01*
X180306000Y-66875000D01*
X178555000Y-66875000D01*
X178369352Y-67060648D01*
X178334704Y-67075000D01*
X177455000Y-67075000D01*
X177455000Y-68100000D01*
X177744864Y-68100000D01*
X177769362Y-68106564D01*
X177792081Y-68119681D01*
X177853360Y-68136100D01*
X177869776Y-68140499D01*
X177869777Y-68140500D01*
X177869780Y-68140500D01*
X177950223Y-68140500D01*
X177950223Y-68140499D01*
X178027919Y-68119681D01*
X178050637Y-68106564D01*
X178075136Y-68100000D01*
X178356000Y-68100000D01*
X178390648Y-68114352D01*
X178405000Y-68149000D01*
X178405000Y-69420500D01*
X178390648Y-69455148D01*
X178356000Y-69469500D01*
X164704000Y-69469500D01*
X164669352Y-69455148D01*
X164655000Y-69420500D01*
X164655000Y-68199000D01*
X164669352Y-68164352D01*
X164704000Y-68150000D01*
X176905000Y-68150000D01*
X176905000Y-67604457D01*
X176916118Y-67574323D01*
X176916101Y-67574313D01*
X176916156Y-67574222D01*
X176916744Y-67572630D01*
X176918116Y-67571023D01*
X176918115Y-67571023D01*
X176918117Y-67571022D01*
X176932469Y-67536374D01*
X176940500Y-67496000D01*
X176940500Y-67258995D01*
X176954852Y-67224347D01*
X177249699Y-66929500D01*
X177595248Y-66583952D01*
X177618117Y-66549726D01*
X177623469Y-66536804D01*
X177634085Y-66520914D01*
X177680000Y-66475000D01*
X177680000Y-62824000D01*
X177694352Y-62789352D01*
X177729000Y-62775000D01*
X180306000Y-62775000D01*
X180340648Y-62789352D01*
G37*
G04 #@! TD.AperFunction*
G04 #@! TA.AperFunction,Conductor*
G36*
X174028814Y-49520481D02*
G01*
X174028994Y-49520498D01*
X174029000Y-49520500D01*
X175775500Y-49520500D01*
X175810148Y-49534852D01*
X175824500Y-49569500D01*
X175824500Y-52761226D01*
X175824501Y-52761239D01*
X175830084Y-52795096D01*
X175830087Y-52795110D01*
X175840185Y-52824898D01*
X175843686Y-52833861D01*
X175843687Y-52833862D01*
X175875000Y-52868694D01*
X175875000Y-52895000D01*
X175909143Y-52895000D01*
X175914760Y-52898249D01*
X175915577Y-52896834D01*
X175923819Y-52903489D01*
X175929763Y-52906927D01*
X175935185Y-52907645D01*
X175937345Y-52908971D01*
X175939808Y-52910571D01*
X175939811Y-52910571D01*
X175939813Y-52910573D01*
X176011505Y-52929782D01*
X176017546Y-52931833D01*
X176026006Y-52935338D01*
X176050508Y-52941904D01*
X176077816Y-52945500D01*
X176077819Y-52945500D01*
X176845500Y-52945500D01*
X176880148Y-52959852D01*
X176894500Y-52994500D01*
X176894500Y-53290500D01*
X176880148Y-53325148D01*
X176845500Y-53339500D01*
X174024000Y-53339500D01*
X173989352Y-53325148D01*
X173975000Y-53290500D01*
X173975000Y-49569244D01*
X173989352Y-49534596D01*
X174024000Y-49520244D01*
X174028814Y-49520481D01*
G37*
G04 #@! TD.AperFunction*
G04 #@! TA.AperFunction,Conductor*
G36*
X180390648Y-55434352D02*
G01*
X180405000Y-55469000D01*
X180405000Y-59471000D01*
X180390648Y-59505648D01*
X180356000Y-59520000D01*
X178605000Y-59520000D01*
X178419352Y-59705648D01*
X178384704Y-59720000D01*
X178271806Y-59720000D01*
X178262246Y-59719058D01*
X178239335Y-59714500D01*
X178239332Y-59714500D01*
X177630668Y-59714500D01*
X177630664Y-59714500D01*
X177607754Y-59719058D01*
X177598194Y-59720000D01*
X177505000Y-59720000D01*
X177505000Y-59813193D01*
X177504058Y-59822753D01*
X177499500Y-59845664D01*
X177499500Y-60084333D01*
X177504058Y-60107244D01*
X177505000Y-60116805D01*
X177505000Y-60313193D01*
X177504058Y-60322753D01*
X177499500Y-60345664D01*
X177499500Y-60584333D01*
X177504058Y-60607244D01*
X177505000Y-60616805D01*
X177505000Y-60745022D01*
X177505682Y-60809219D01*
X177504744Y-60819297D01*
X177499500Y-60845667D01*
X177499500Y-61084337D01*
X177508233Y-61128239D01*
X177509172Y-61137276D01*
X177510000Y-61215000D01*
X177623329Y-61215000D01*
X177628252Y-61215483D01*
X177628274Y-61215264D01*
X177630667Y-61215499D01*
X177630668Y-61215500D01*
X177958954Y-61215500D01*
X177993602Y-61229852D01*
X178440648Y-61676898D01*
X178455000Y-61711546D01*
X178455000Y-62071000D01*
X178440648Y-62105648D01*
X178406000Y-62120000D01*
X164729000Y-62120000D01*
X164694352Y-62105648D01*
X164680000Y-62071000D01*
X164680000Y-60844000D01*
X164694352Y-60809352D01*
X164729000Y-60795000D01*
X176955000Y-60795000D01*
X176955000Y-60249457D01*
X176966118Y-60219323D01*
X176966101Y-60219313D01*
X176966156Y-60219222D01*
X176966744Y-60217630D01*
X176968116Y-60216023D01*
X176968115Y-60216023D01*
X176968117Y-60216022D01*
X176982469Y-60181374D01*
X176990500Y-60141000D01*
X176990500Y-59903995D01*
X177004852Y-59869347D01*
X177304699Y-59569500D01*
X177645248Y-59228952D01*
X177668117Y-59194726D01*
X177673469Y-59181804D01*
X177684085Y-59165914D01*
X177730000Y-59120000D01*
X177730000Y-55469000D01*
X177744352Y-55434352D01*
X177779000Y-55420000D01*
X180356000Y-55420000D01*
X180390648Y-55434352D01*
G37*
G04 #@! TD.AperFunction*
G04 #@! TA.AperFunction,Conductor*
G36*
X164528148Y-63839352D02*
G01*
X164542500Y-63874000D01*
X164542500Y-64250000D01*
X166443500Y-64250000D01*
X166478148Y-64264352D01*
X166492500Y-64299000D01*
X166492500Y-66025000D01*
X168043500Y-66025000D01*
X168078148Y-66039352D01*
X168092500Y-66074000D01*
X168092500Y-67995500D01*
X168078148Y-68030148D01*
X168043500Y-68044500D01*
X164704000Y-68044500D01*
X164683813Y-68048515D01*
X164663624Y-68052531D01*
X164663623Y-68052531D01*
X164628991Y-68066876D01*
X164626869Y-68067957D01*
X164623526Y-68069660D01*
X164601284Y-68075000D01*
X164567500Y-68075000D01*
X164567500Y-68124812D01*
X164563770Y-68143563D01*
X164557531Y-68158623D01*
X164557531Y-68158624D01*
X164549500Y-68199002D01*
X164549500Y-68401000D01*
X164535148Y-68435648D01*
X164500500Y-68450000D01*
X163791500Y-68450000D01*
X163756852Y-68435648D01*
X163742500Y-68401000D01*
X163742500Y-63874000D01*
X163756852Y-63839352D01*
X163791500Y-63825000D01*
X164493500Y-63825000D01*
X164528148Y-63839352D01*
G37*
G04 #@! TD.AperFunction*
G04 #@! TA.AperFunction,Conductor*
G36*
X175820648Y-39159352D02*
G01*
X175835000Y-39194000D01*
X175835000Y-40571000D01*
X175820648Y-40605648D01*
X175786000Y-40620000D01*
X172934000Y-40620000D01*
X172899352Y-40605648D01*
X172885000Y-40571000D01*
X172885000Y-39769227D01*
X172899352Y-39734579D01*
X172933997Y-39720227D01*
X173950228Y-39724954D01*
X173959998Y-39725000D01*
X173959998Y-39724999D01*
X173960000Y-39725000D01*
X173960000Y-39194000D01*
X173974352Y-39159352D01*
X174009000Y-39145000D01*
X175786000Y-39145000D01*
X175820648Y-39159352D01*
G37*
G04 #@! TD.AperFunction*
G04 #@! TA.AperFunction,Conductor*
G36*
X131020648Y-58354352D02*
G01*
X131035000Y-58389000D01*
X131035000Y-61566000D01*
X131020648Y-61600648D01*
X130986000Y-61615000D01*
X129034000Y-61615000D01*
X128999352Y-61600648D01*
X128985000Y-61566000D01*
X128985000Y-60765000D01*
X128009000Y-60765000D01*
X127974352Y-60750648D01*
X127960000Y-60716000D01*
X127960000Y-59789000D01*
X127974352Y-59754352D01*
X128009000Y-59740000D01*
X129425000Y-59740000D01*
X129425000Y-58389000D01*
X129439352Y-58354352D01*
X129474000Y-58340000D01*
X130986000Y-58340000D01*
X131020648Y-58354352D01*
G37*
G04 #@! TD.AperFunction*
G04 #@! TA.AperFunction,Conductor*
G36*
X138970648Y-72894352D02*
G01*
X138985000Y-72929000D01*
X138985000Y-73671000D01*
X138970648Y-73705648D01*
X138936000Y-73720000D01*
X136174000Y-73720000D01*
X136139352Y-73705648D01*
X136125000Y-73671000D01*
X136125000Y-72929000D01*
X136139352Y-72894352D01*
X136174000Y-72880000D01*
X138936000Y-72880000D01*
X138970648Y-72894352D01*
G37*
G04 #@! TD.AperFunction*
G04 #@! TA.AperFunction,Conductor*
G36*
X177570648Y-55429352D02*
G01*
X177585000Y-55464000D01*
X177585000Y-59119704D01*
X177570648Y-59154352D01*
X176885000Y-59839999D01*
X176885000Y-60141000D01*
X176870648Y-60175648D01*
X176836000Y-60190000D01*
X176032816Y-60190000D01*
X176008314Y-60183434D01*
X176002919Y-60180319D01*
X176002917Y-60180318D01*
X175922118Y-60158668D01*
X175922584Y-60156926D01*
X175895101Y-60141029D01*
X175885000Y-60111232D01*
X175885000Y-56765000D01*
X173984000Y-56765000D01*
X173949352Y-56750648D01*
X173935000Y-56716000D01*
X173935000Y-55464000D01*
X173949352Y-55429352D01*
X173984000Y-55415000D01*
X177536000Y-55415000D01*
X177570648Y-55429352D01*
G37*
G04 #@! TD.AperFunction*
G04 #@! TA.AperFunction,Conductor*
G36*
X166549352Y-36534352D02*
G01*
X167120000Y-37105000D01*
X168021000Y-37105000D01*
X168055648Y-37119352D01*
X168070000Y-37154000D01*
X168070000Y-37871000D01*
X168055648Y-37905648D01*
X168021000Y-37920000D01*
X166905296Y-37920000D01*
X166870648Y-37905648D01*
X166425000Y-37460000D01*
X165684000Y-37460000D01*
X165649352Y-37445648D01*
X165635000Y-37411000D01*
X165635000Y-36569000D01*
X165649352Y-36534352D01*
X165684000Y-36520000D01*
X166514704Y-36520000D01*
X166549352Y-36534352D01*
G37*
G04 #@! TD.AperFunction*
G04 #@! TA.AperFunction,Conductor*
G36*
X133056632Y-53948368D02*
G01*
X133060000Y-53956500D01*
X133060000Y-57733500D01*
X133056632Y-57741632D01*
X133048500Y-57745000D01*
X132196500Y-57745000D01*
X132188368Y-57741632D01*
X132185000Y-57733500D01*
X132185000Y-53956500D01*
X132188368Y-53948368D01*
X132196500Y-53945000D01*
X133048500Y-53945000D01*
X133056632Y-53948368D01*
G37*
G04 #@! TD.AperFunction*
G04 #@! TA.AperFunction,Conductor*
G36*
X181801632Y-74973368D02*
G01*
X181805000Y-74981500D01*
X181805000Y-75948500D01*
X181801632Y-75956632D01*
X181793500Y-75960000D01*
X179456500Y-75960000D01*
X179448368Y-75956632D01*
X179445000Y-75948500D01*
X179445000Y-74981500D01*
X179448368Y-74973368D01*
X179456500Y-74970000D01*
X181793500Y-74970000D01*
X181801632Y-74973368D01*
G37*
G04 #@! TD.AperFunction*
G04 #@! TA.AperFunction,Conductor*
G36*
X134656632Y-39248368D02*
G01*
X134660000Y-39256500D01*
X134660000Y-46833500D01*
X134656632Y-46841632D01*
X134648500Y-46845000D01*
X133196500Y-46845000D01*
X133188368Y-46841632D01*
X133185000Y-46833500D01*
X133185000Y-39256500D01*
X133188368Y-39248368D01*
X133196500Y-39245000D01*
X134648500Y-39245000D01*
X134656632Y-39248368D01*
G37*
G04 #@! TD.AperFunction*
M02*
